M48
;DRILL file {KiCad 4.0.1-stable} date 07.03.2016 23:12:34
;FORMAT={-:-/ absolute / metric / decimal}
FMAT,2
METRIC,TZ
T1C0.400
T2C1.016
T3C1.097
T4C3.500
%
G90
G05
M71
T1
X159.35Y-105.1
X159.75Y-106.15
X159.75Y-107.65
X159.75Y-109.15
X159.77Y-94.88
X161.25Y-106.15
X161.25Y-107.65
X161.25Y-109.15
X162.65Y-87.975
X164.Y-93.6
X164.27Y-99.8
X164.28Y-101.88
X164.46Y-84.2
X165.075Y-88.075
X167.85Y-88.125
X170.Y-84.13
X170.225Y-88.125
X170.35Y-97.09
X170.36Y-100.63
X172.79Y-104.2
X172.95Y-88.125
X175.32Y-103.48
X175.5Y-88.
X175.64Y-84.05
X176.45Y-96.48
X177.72Y-94.76
X178.375Y-87.95
X180.95Y-93.25
X180.99Y-94.97
X182.8Y-105.3
X184.4Y-101.75
X185.8Y-105.3
X186.Y-101.85
T2
X161.4Y-90.95
X163.76Y-106.
X163.76Y-108.54
X163.94Y-90.95
X166.3Y-106.
X166.3Y-108.54
X166.48Y-90.95
X168.84Y-106.
X168.84Y-108.54
X169.02Y-90.95
X171.38Y-106.
X171.38Y-108.54
X171.56Y-90.95
X173.92Y-106.
X173.92Y-108.54
X174.1Y-90.95
X176.46Y-106.
X176.46Y-108.54
X176.64Y-90.95
X179.Y-106.
X179.Y-108.54
X179.18Y-90.95
T3
X161.04Y-86.15
X163.58Y-86.15
X166.12Y-86.15
X168.66Y-86.15
X171.89Y-86.15
X174.43Y-86.15
X176.97Y-86.15
X179.51Y-86.15
T4
X184.37Y-89.1
T0
M30
