M48
;DRILL file {KiCad 4.0.2-stable} date 16.05.2016 20:37:59
;FORMAT={-:-/ absolute / metric / decimal}
FMAT,2
METRIC,TZ
T1C0.400
T2C0.500
T3C1.016
%
G90
G05
M71
T1
X130.8Y-94.8
X130.8Y-95.96
X130.8Y-97.12
X130.8Y-98.28
X130.8Y-99.44
X130.8Y-100.6
X130.8Y-104.08
X130.8Y-106.4
X130.8Y-108.72
X130.8Y-112.2
X132.Y-94.8
X139.2Y-112.2
X145.2Y-94.8
T2
X136.25Y-106.325
X137.7Y-111.6
X144.75Y-106.55
X144.8Y-111.8
T3
X134.25Y-95.66
X134.25Y-98.2
X136.79Y-95.66
X136.79Y-98.2
X139.33Y-95.66
X139.33Y-98.2
X141.87Y-95.66
X141.87Y-98.2
T0
M30
