G04 #@! TF.FileFunction,Soldermask,Top*
%FSLAX46Y46*%
G04 Gerber Fmt 4.6, Leading zero omitted, Abs format (unit mm)*
G04 Created by KiCad (PCBNEW 4.0.2-stable) date 16.05.2016 20:37:56*
%MOMM*%
G01*
G04 APERTURE LIST*
%ADD10C,0.100000*%
%ADD11R,2.127200X2.127200*%
%ADD12O,2.127200X2.127200*%
%ADD13C,0.900000*%
%ADD14R,1.200100X1.800000*%
%ADD15R,1.600000X1.300000*%
%ADD16R,1.300000X1.600000*%
G04 APERTURE END LIST*
D10*
D11*
X134250000Y-98200000D03*
D12*
X134250000Y-95660000D03*
X136790000Y-98200000D03*
X136790000Y-95660000D03*
X139330000Y-98200000D03*
X139330000Y-95660000D03*
X141870000Y-98200000D03*
X141870000Y-95660000D03*
D13*
X130800000Y-104080000D03*
X130800000Y-108720000D03*
X139200000Y-112200000D03*
X145200000Y-94800000D03*
X132000000Y-94800000D03*
X130800000Y-112200000D03*
X130800000Y-106400000D03*
X130800000Y-100600000D03*
X130800000Y-99440000D03*
X130800000Y-98280000D03*
X130800000Y-97120000D03*
X130800000Y-95960000D03*
D14*
X141550000Y-103400000D03*
X143450000Y-103400000D03*
X142500000Y-100800000D03*
X141550000Y-110000000D03*
X143450000Y-110000000D03*
X142500000Y-107400000D03*
X134150000Y-110000000D03*
X136050000Y-110000000D03*
X135100000Y-107400000D03*
X134150000Y-103400000D03*
X136050000Y-103400000D03*
X135100000Y-100800000D03*
D15*
X143600000Y-105300000D03*
X141400000Y-105300000D03*
X143600000Y-111900000D03*
X141400000Y-111900000D03*
D16*
X139900000Y-103200000D03*
X139900000Y-101000000D03*
X139600000Y-110200000D03*
X139600000Y-108000000D03*
D15*
X136200000Y-111900000D03*
X134000000Y-111900000D03*
X135650000Y-105300000D03*
X133450000Y-105300000D03*
D16*
X132500000Y-109800000D03*
X132500000Y-107600000D03*
X132500000Y-103200000D03*
X132500000Y-101000000D03*
D13*
X130800000Y-94800000D03*
M02*
