G04 #@! TF.FileFunction,Legend,Bot*
%FSLAX46Y46*%
G04 Gerber Fmt 4.6, Leading zero omitted, Abs format (unit mm)*
G04 Created by KiCad (PCBNEW 4.0.1-stable) date 08.03.2016 20:40:15*
%MOMM*%
G01*
G04 APERTURE LIST*
%ADD10C,0.100000*%
G04 APERTURE END LIST*
D10*
X179349999Y-93036667D02*
X179016665Y-93036667D01*
X179416665Y-93236667D02*
X179183332Y-92536667D01*
X178949999Y-93236667D01*
X178416665Y-93236667D02*
X178416665Y-92536667D01*
X178416665Y-93203333D02*
X178483332Y-93236667D01*
X178616665Y-93236667D01*
X178683332Y-93203333D01*
X178716665Y-93170000D01*
X178749999Y-93103333D01*
X178749999Y-92903333D01*
X178716665Y-92836667D01*
X178683332Y-92803333D01*
X178616665Y-92770000D01*
X178483332Y-92770000D01*
X178416665Y-92803333D01*
X177783332Y-93236667D02*
X177783332Y-92536667D01*
X177783332Y-93203333D02*
X177849999Y-93236667D01*
X177983332Y-93236667D01*
X178049999Y-93203333D01*
X178083332Y-93170000D01*
X178116666Y-93103333D01*
X178116666Y-92903333D01*
X178083332Y-92836667D01*
X178049999Y-92803333D01*
X177983332Y-92770000D01*
X177849999Y-92770000D01*
X177783332Y-92803333D01*
X177449999Y-93236667D02*
X177449999Y-92770000D01*
X177449999Y-92536667D02*
X177483333Y-92570000D01*
X177449999Y-92603333D01*
X177416666Y-92570000D01*
X177449999Y-92536667D01*
X177449999Y-92603333D01*
X177216666Y-92770000D02*
X176950000Y-92770000D01*
X177116666Y-92536667D02*
X177116666Y-93136667D01*
X177083333Y-93203333D01*
X177016666Y-93236667D01*
X176950000Y-93236667D01*
X176716666Y-93236667D02*
X176716666Y-92770000D01*
X176716666Y-92536667D02*
X176750000Y-92570000D01*
X176716666Y-92603333D01*
X176683333Y-92570000D01*
X176716666Y-92536667D01*
X176716666Y-92603333D01*
X176283333Y-93236667D02*
X176350000Y-93203333D01*
X176383333Y-93170000D01*
X176416667Y-93103333D01*
X176416667Y-92903333D01*
X176383333Y-92836667D01*
X176350000Y-92803333D01*
X176283333Y-92770000D01*
X176183333Y-92770000D01*
X176116667Y-92803333D01*
X176083333Y-92836667D01*
X176050000Y-92903333D01*
X176050000Y-93103333D01*
X176083333Y-93170000D01*
X176116667Y-93203333D01*
X176183333Y-93236667D01*
X176283333Y-93236667D01*
X175750000Y-92770000D02*
X175750000Y-93236667D01*
X175750000Y-92836667D02*
X175716667Y-92803333D01*
X175650000Y-92770000D01*
X175550000Y-92770000D01*
X175483334Y-92803333D01*
X175450000Y-92870000D01*
X175450000Y-93236667D01*
X174816667Y-93236667D02*
X174816667Y-92870000D01*
X174850001Y-92803333D01*
X174916667Y-92770000D01*
X175050001Y-92770000D01*
X175116667Y-92803333D01*
X174816667Y-93203333D02*
X174883334Y-93236667D01*
X175050001Y-93236667D01*
X175116667Y-93203333D01*
X175150001Y-93136667D01*
X175150001Y-93070000D01*
X175116667Y-93003333D01*
X175050001Y-92970000D01*
X174883334Y-92970000D01*
X174816667Y-92936667D01*
X174383334Y-93236667D02*
X174450001Y-93203333D01*
X174483334Y-93136667D01*
X174483334Y-92536667D01*
X173583334Y-93236667D02*
X173583334Y-92536667D01*
X173350001Y-93036667D01*
X173116668Y-92536667D01*
X173116668Y-93236667D01*
X172683334Y-93236667D02*
X172750001Y-93203333D01*
X172783334Y-93170000D01*
X172816668Y-93103333D01*
X172816668Y-92903333D01*
X172783334Y-92836667D01*
X172750001Y-92803333D01*
X172683334Y-92770000D01*
X172583334Y-92770000D01*
X172516668Y-92803333D01*
X172483334Y-92836667D01*
X172450001Y-92903333D01*
X172450001Y-93103333D01*
X172483334Y-93170000D01*
X172516668Y-93203333D01*
X172583334Y-93236667D01*
X172683334Y-93236667D01*
X171850001Y-93236667D02*
X171850001Y-92536667D01*
X171850001Y-93203333D02*
X171916668Y-93236667D01*
X172050001Y-93236667D01*
X172116668Y-93203333D01*
X172150001Y-93170000D01*
X172183335Y-93103333D01*
X172183335Y-92903333D01*
X172150001Y-92836667D01*
X172116668Y-92803333D01*
X172050001Y-92770000D01*
X171916668Y-92770000D01*
X171850001Y-92803333D01*
X171216668Y-92770000D02*
X171216668Y-93236667D01*
X171516668Y-92770000D02*
X171516668Y-93136667D01*
X171483335Y-93203333D01*
X171416668Y-93236667D01*
X171316668Y-93236667D01*
X171250002Y-93203333D01*
X171216668Y-93170000D01*
X170783335Y-93236667D02*
X170850002Y-93203333D01*
X170883335Y-93136667D01*
X170883335Y-92536667D01*
X170250002Y-93203333D02*
X170316668Y-93236667D01*
X170450002Y-93236667D01*
X170516668Y-93203333D01*
X170550002Y-93136667D01*
X170550002Y-92870000D01*
X170516668Y-92803333D01*
X170450002Y-92770000D01*
X170316668Y-92770000D01*
X170250002Y-92803333D01*
X170216668Y-92870000D01*
X170216668Y-92936667D01*
X170550002Y-93003333D01*
X169383335Y-92970000D02*
X168850002Y-92970000D01*
X167983335Y-93236667D02*
X167983335Y-92536667D01*
X167250002Y-93236667D02*
X167483336Y-92903333D01*
X167650002Y-93236667D02*
X167650002Y-92536667D01*
X167383336Y-92536667D01*
X167316669Y-92570000D01*
X167283336Y-92603333D01*
X167250002Y-92670000D01*
X167250002Y-92770000D01*
X167283336Y-92836667D01*
X167316669Y-92870000D01*
X167383336Y-92903333D01*
X167650002Y-92903333D01*
X166616669Y-93236667D02*
X166950002Y-93236667D01*
X166950002Y-92536667D01*
X166383335Y-93236667D02*
X166383335Y-92536667D01*
X166150002Y-93036667D01*
X165916669Y-92536667D01*
X165916669Y-93236667D01*
X165250002Y-93236667D02*
X165583335Y-93236667D01*
X165583335Y-92536667D01*
X165050002Y-92603333D02*
X165016668Y-92570000D01*
X164950002Y-92536667D01*
X164783335Y-92536667D01*
X164716668Y-92570000D01*
X164683335Y-92603333D01*
X164650002Y-92670000D01*
X164650002Y-92736667D01*
X164683335Y-92836667D01*
X165083335Y-93236667D01*
X164650002Y-93236667D01*
X164016668Y-92536667D02*
X164350001Y-92536667D01*
X164383335Y-92870000D01*
X164350001Y-92836667D01*
X164283335Y-92803333D01*
X164116668Y-92803333D01*
X164050001Y-92836667D01*
X164016668Y-92870000D01*
X163983335Y-92936667D01*
X163983335Y-93103333D01*
X164016668Y-93170000D01*
X164050001Y-93203333D01*
X164116668Y-93236667D01*
X164283335Y-93236667D01*
X164350001Y-93203333D01*
X164383335Y-93170000D01*
X163550001Y-92536667D02*
X163483334Y-92536667D01*
X163416668Y-92570000D01*
X163383334Y-92603333D01*
X163350001Y-92670000D01*
X163316668Y-92803333D01*
X163316668Y-92970000D01*
X163350001Y-93103333D01*
X163383334Y-93170000D01*
X163416668Y-93203333D01*
X163483334Y-93236667D01*
X163550001Y-93236667D01*
X163616668Y-93203333D01*
X163650001Y-93170000D01*
X163683334Y-93103333D01*
X163716668Y-92970000D01*
X163716668Y-92803333D01*
X163683334Y-92670000D01*
X163650001Y-92603333D01*
X163616668Y-92570000D01*
X163550001Y-92536667D01*
X163050001Y-92603333D02*
X163016667Y-92570000D01*
X162950001Y-92536667D01*
X162783334Y-92536667D01*
X162716667Y-92570000D01*
X162683334Y-92603333D01*
X162650001Y-92670000D01*
X162650001Y-92736667D01*
X162683334Y-92836667D01*
X163083334Y-93236667D01*
X162650001Y-93236667D01*
X172083332Y-94316667D02*
X172316666Y-93983333D01*
X172483332Y-94316667D02*
X172483332Y-93616667D01*
X172216666Y-93616667D01*
X172149999Y-93650000D01*
X172116666Y-93683333D01*
X172083332Y-93750000D01*
X172083332Y-93850000D01*
X172116666Y-93916667D01*
X172149999Y-93950000D01*
X172216666Y-93983333D01*
X172483332Y-93983333D01*
X171516666Y-94283333D02*
X171583332Y-94316667D01*
X171716666Y-94316667D01*
X171783332Y-94283333D01*
X171816666Y-94216667D01*
X171816666Y-93950000D01*
X171783332Y-93883333D01*
X171716666Y-93850000D01*
X171583332Y-93850000D01*
X171516666Y-93883333D01*
X171483332Y-93950000D01*
X171483332Y-94016667D01*
X171816666Y-94083333D01*
X171249999Y-93850000D02*
X171083332Y-94316667D01*
X170916666Y-93850000D01*
X170649999Y-94250000D02*
X170616666Y-94283333D01*
X170649999Y-94316667D01*
X170683333Y-94283333D01*
X170649999Y-94250000D01*
X170649999Y-94316667D01*
X169816667Y-94116667D02*
X169483333Y-94116667D01*
X169883333Y-94316667D02*
X169650000Y-93616667D01*
X169416667Y-94316667D01*
X174016665Y-95063333D02*
X174049998Y-95030000D01*
X174116665Y-94996667D01*
X174183332Y-94996667D01*
X174249998Y-95030000D01*
X174283332Y-95063333D01*
X174316665Y-95130000D01*
X174316665Y-95196667D01*
X174283332Y-95263333D01*
X174249998Y-95296667D01*
X174183332Y-95330000D01*
X174116665Y-95330000D01*
X174049998Y-95296667D01*
X174016665Y-95263333D01*
X174016665Y-94996667D02*
X174016665Y-95263333D01*
X173983332Y-95296667D01*
X173949998Y-95296667D01*
X173883332Y-95263333D01*
X173849998Y-95196667D01*
X173849998Y-95030000D01*
X173916665Y-94930000D01*
X174016665Y-94863333D01*
X174149998Y-94830000D01*
X174283332Y-94863333D01*
X174383332Y-94930000D01*
X174449998Y-95030000D01*
X174483332Y-95163333D01*
X174449998Y-95296667D01*
X174383332Y-95396667D01*
X174283332Y-95463333D01*
X174149998Y-95496667D01*
X174016665Y-95463333D01*
X173916665Y-95396667D01*
X173549998Y-95396667D02*
X173549998Y-94930000D01*
X173549998Y-94996667D02*
X173516665Y-94963333D01*
X173449998Y-94930000D01*
X173349998Y-94930000D01*
X173283332Y-94963333D01*
X173249998Y-95030000D01*
X173249998Y-95396667D01*
X173249998Y-95030000D02*
X173216665Y-94963333D01*
X173149998Y-94930000D01*
X173049998Y-94930000D01*
X172983332Y-94963333D01*
X172949998Y-95030000D01*
X172949998Y-95396667D01*
X172316665Y-95396667D02*
X172316665Y-95030000D01*
X172349999Y-94963333D01*
X172416665Y-94930000D01*
X172549999Y-94930000D01*
X172616665Y-94963333D01*
X172316665Y-95363333D02*
X172383332Y-95396667D01*
X172549999Y-95396667D01*
X172616665Y-95363333D01*
X172649999Y-95296667D01*
X172649999Y-95230000D01*
X172616665Y-95163333D01*
X172549999Y-95130000D01*
X172383332Y-95130000D01*
X172316665Y-95096667D01*
X171983332Y-95396667D02*
X171983332Y-94696667D01*
X171916666Y-95130000D02*
X171716666Y-95396667D01*
X171716666Y-94930000D02*
X171983332Y-95196667D01*
X171149999Y-95363333D02*
X171216665Y-95396667D01*
X171349999Y-95396667D01*
X171416665Y-95363333D01*
X171449999Y-95296667D01*
X171449999Y-95030000D01*
X171416665Y-94963333D01*
X171349999Y-94930000D01*
X171216665Y-94930000D01*
X171149999Y-94963333D01*
X171116665Y-95030000D01*
X171116665Y-95096667D01*
X171449999Y-95163333D01*
X170816665Y-95396667D02*
X170816665Y-94930000D01*
X170816665Y-95063333D02*
X170783332Y-94996667D01*
X170749999Y-94963333D01*
X170683332Y-94930000D01*
X170616665Y-94930000D01*
X170549999Y-95463333D02*
X170016666Y-95463333D01*
X169849999Y-95396667D02*
X169849999Y-94696667D01*
X169849999Y-94963333D02*
X169783333Y-94930000D01*
X169649999Y-94930000D01*
X169583333Y-94963333D01*
X169549999Y-94996667D01*
X169516666Y-95063333D01*
X169516666Y-95263333D01*
X169549999Y-95330000D01*
X169583333Y-95363333D01*
X169649999Y-95396667D01*
X169783333Y-95396667D01*
X169849999Y-95363333D01*
X168950000Y-95363333D02*
X169016666Y-95396667D01*
X169150000Y-95396667D01*
X169216666Y-95363333D01*
X169250000Y-95296667D01*
X169250000Y-95030000D01*
X169216666Y-94963333D01*
X169150000Y-94930000D01*
X169016666Y-94930000D01*
X168950000Y-94963333D01*
X168916666Y-95030000D01*
X168916666Y-95096667D01*
X169250000Y-95163333D01*
X168616666Y-95396667D02*
X168616666Y-94930000D01*
X168616666Y-95063333D02*
X168583333Y-94996667D01*
X168550000Y-94963333D01*
X168483333Y-94930000D01*
X168416666Y-94930000D01*
X168183333Y-95396667D02*
X168183333Y-94930000D01*
X168183333Y-95063333D02*
X168150000Y-94996667D01*
X168116667Y-94963333D01*
X168050000Y-94930000D01*
X167983333Y-94930000D01*
X167816667Y-94930000D02*
X167650000Y-95396667D01*
X167483334Y-94930000D02*
X167650000Y-95396667D01*
X167716667Y-95563333D01*
X167750000Y-95596667D01*
X167816667Y-95630000D01*
M02*
