G04 #@! TF.FileFunction,Soldermask,Top*
%FSLAX46Y46*%
G04 Gerber Fmt 4.6, Leading zero omitted, Abs format (unit mm)*
G04 Created by KiCad (PCBNEW 4.0.1-stable) date 08.03.2016 20:40:15*
%MOMM*%
G01*
G04 APERTURE LIST*
%ADD10C,0.100000*%
%ADD11O,2.398980X2.398980*%
%ADD12R,2.398980X2.398980*%
%ADD13R,1.200100X1.800000*%
%ADD14R,1.700000X1.900000*%
%ADD15R,2.127200X2.432000*%
%ADD16O,2.127200X2.432000*%
%ADD17C,5.400000*%
%ADD18R,2.127200X2.127200*%
%ADD19O,2.127200X2.127200*%
G04 APERTURE END LIST*
D10*
D11*
X179510000Y-86150000D03*
D12*
X171890000Y-86150000D03*
D11*
X174430000Y-86150000D03*
X176970000Y-86150000D03*
X168660000Y-86150000D03*
D12*
X161040000Y-86150000D03*
D11*
X163580000Y-86150000D03*
X166120000Y-86150000D03*
D13*
X166400000Y-96725000D03*
X168300000Y-96725000D03*
X167350000Y-94125000D03*
X178600000Y-96750000D03*
X180500000Y-96750000D03*
X179550000Y-94150000D03*
X172500000Y-96725000D03*
X174400000Y-96725000D03*
X173450000Y-94125000D03*
X160300000Y-96725000D03*
X162200000Y-96725000D03*
X161250000Y-94125000D03*
D14*
X166050000Y-101925000D03*
X166050000Y-99225000D03*
X178250000Y-101925000D03*
X178250000Y-99225000D03*
X168650000Y-101925000D03*
X168650000Y-99225000D03*
X180850000Y-101925000D03*
X180850000Y-99225000D03*
X172150000Y-101925000D03*
X172150000Y-99225000D03*
X159950000Y-101925000D03*
X159950000Y-99225000D03*
X174750000Y-101925000D03*
X174750000Y-99225000D03*
X162550000Y-101925000D03*
X162550000Y-99225000D03*
D15*
X161400000Y-90950000D03*
D16*
X163940000Y-90950000D03*
X166480000Y-90950000D03*
X169020000Y-90950000D03*
X171560000Y-90950000D03*
X174100000Y-90950000D03*
X176640000Y-90950000D03*
X179180000Y-90950000D03*
D17*
X184370000Y-89100000D03*
D18*
X179000000Y-106000000D03*
D19*
X179000000Y-108540000D03*
X176460000Y-106000000D03*
X176460000Y-108540000D03*
X173920000Y-106000000D03*
X173920000Y-108540000D03*
X171380000Y-106000000D03*
X171380000Y-108540000D03*
X168840000Y-106000000D03*
X168840000Y-108540000D03*
X166300000Y-106000000D03*
X166300000Y-108540000D03*
X163760000Y-106000000D03*
X163760000Y-108540000D03*
M02*
