G04 #@! TF.FileFunction,Legend,Top*
%FSLAX46Y46*%
G04 Gerber Fmt 4.6, Leading zero omitted, Abs format (unit mm)*
G04 Created by KiCad (PCBNEW 4.0.2-stable) date 16.05.2016 20:37:56*
%MOMM*%
G01*
G04 APERTURE LIST*
%ADD10C,0.100000*%
%ADD11C,0.150000*%
%ADD12C,0.175000*%
G04 APERTURE END LIST*
D10*
D11*
X135520000Y-99470000D02*
X143140000Y-99470000D01*
X143140000Y-99470000D02*
X143140000Y-94390000D01*
X143140000Y-94390000D02*
X132980000Y-94390000D01*
X132980000Y-94390000D02*
X132980000Y-96930000D01*
X132700000Y-98200000D02*
X132700000Y-99750000D01*
X132980000Y-96930000D02*
X135520000Y-96930000D01*
X135520000Y-96930000D02*
X135520000Y-99470000D01*
X132700000Y-99750000D02*
X134250000Y-99750000D01*
X143799160Y-101449760D02*
X143750900Y-101449760D01*
X141000180Y-102150800D02*
X141000180Y-101449760D01*
X141000180Y-101449760D02*
X141249100Y-101449760D01*
X143799160Y-101449760D02*
X143999820Y-101449760D01*
X143999820Y-101449760D02*
X143999820Y-102150800D01*
X143799160Y-108049760D02*
X143750900Y-108049760D01*
X141000180Y-108750800D02*
X141000180Y-108049760D01*
X141000180Y-108049760D02*
X141249100Y-108049760D01*
X143799160Y-108049760D02*
X143999820Y-108049760D01*
X143999820Y-108049760D02*
X143999820Y-108750800D01*
X136399160Y-108049760D02*
X136350900Y-108049760D01*
X133600180Y-108750800D02*
X133600180Y-108049760D01*
X133600180Y-108049760D02*
X133849100Y-108049760D01*
X136399160Y-108049760D02*
X136599820Y-108049760D01*
X136599820Y-108049760D02*
X136599820Y-108750800D01*
X136399160Y-101449760D02*
X136350900Y-101449760D01*
X133600180Y-102150800D02*
X133600180Y-101449760D01*
X133600180Y-101449760D02*
X133849100Y-101449760D01*
X136399160Y-101449760D02*
X136599820Y-101449760D01*
X136599820Y-101449760D02*
X136599820Y-102150800D01*
X142000000Y-104625000D02*
X143000000Y-104625000D01*
X143000000Y-105975000D02*
X142000000Y-105975000D01*
X142000000Y-111225000D02*
X143000000Y-111225000D01*
X143000000Y-112575000D02*
X142000000Y-112575000D01*
X140575000Y-101600000D02*
X140575000Y-102600000D01*
X139225000Y-102600000D02*
X139225000Y-101600000D01*
X140275000Y-108600000D02*
X140275000Y-109600000D01*
X138925000Y-109600000D02*
X138925000Y-108600000D01*
X134600000Y-111225000D02*
X135600000Y-111225000D01*
X135600000Y-112575000D02*
X134600000Y-112575000D01*
X134050000Y-104625000D02*
X135050000Y-104625000D01*
X135050000Y-105975000D02*
X134050000Y-105975000D01*
X133175000Y-108200000D02*
X133175000Y-109200000D01*
X131825000Y-109200000D02*
X131825000Y-108200000D01*
X133175000Y-101600000D02*
X133175000Y-102600000D01*
X131825000Y-102600000D02*
X131825000Y-101600000D01*
X144452381Y-97638095D02*
X143452381Y-97638095D01*
X143452381Y-97257142D01*
X143500000Y-97161904D01*
X143547619Y-97114285D01*
X143642857Y-97066666D01*
X143785714Y-97066666D01*
X143880952Y-97114285D01*
X143928571Y-97161904D01*
X143976190Y-97257142D01*
X143976190Y-97638095D01*
X143547619Y-96685714D02*
X143500000Y-96638095D01*
X143452381Y-96542857D01*
X143452381Y-96304761D01*
X143500000Y-96209523D01*
X143547619Y-96161904D01*
X143642857Y-96114285D01*
X143738095Y-96114285D01*
X143880952Y-96161904D01*
X144452381Y-96733333D01*
X144452381Y-96114285D01*
D12*
X145265476Y-102180952D02*
X145225000Y-102261905D01*
X145144048Y-102342857D01*
X145022619Y-102464286D01*
X144982143Y-102545238D01*
X144982143Y-102626190D01*
X145184524Y-102585714D02*
X145144048Y-102666667D01*
X145063095Y-102747619D01*
X144901190Y-102788095D01*
X144617857Y-102788095D01*
X144455952Y-102747619D01*
X144375000Y-102666667D01*
X144334524Y-102585714D01*
X144334524Y-102423810D01*
X144375000Y-102342857D01*
X144455952Y-102261905D01*
X144617857Y-102221429D01*
X144901190Y-102221429D01*
X145063095Y-102261905D01*
X145144048Y-102342857D01*
X145184524Y-102423810D01*
X145184524Y-102585714D01*
X145184524Y-101411905D02*
X145184524Y-101897619D01*
X145184524Y-101654762D02*
X144334524Y-101654762D01*
X144455952Y-101735714D01*
X144536905Y-101816667D01*
X144577381Y-101897619D01*
X145365476Y-108780952D02*
X145325000Y-108861905D01*
X145244048Y-108942857D01*
X145122619Y-109064286D01*
X145082143Y-109145238D01*
X145082143Y-109226190D01*
X145284524Y-109185714D02*
X145244048Y-109266667D01*
X145163095Y-109347619D01*
X145001190Y-109388095D01*
X144717857Y-109388095D01*
X144555952Y-109347619D01*
X144475000Y-109266667D01*
X144434524Y-109185714D01*
X144434524Y-109023810D01*
X144475000Y-108942857D01*
X144555952Y-108861905D01*
X144717857Y-108821429D01*
X145001190Y-108821429D01*
X145163095Y-108861905D01*
X145244048Y-108942857D01*
X145284524Y-109023810D01*
X145284524Y-109185714D01*
X144515476Y-108497619D02*
X144475000Y-108457143D01*
X144434524Y-108376191D01*
X144434524Y-108173810D01*
X144475000Y-108092857D01*
X144515476Y-108052381D01*
X144596429Y-108011905D01*
X144677381Y-108011905D01*
X144798810Y-108052381D01*
X145284524Y-108538095D01*
X145284524Y-108011905D01*
X137965476Y-108080952D02*
X137925000Y-108161905D01*
X137844048Y-108242857D01*
X137722619Y-108364286D01*
X137682143Y-108445238D01*
X137682143Y-108526190D01*
X137884524Y-108485714D02*
X137844048Y-108566667D01*
X137763095Y-108647619D01*
X137601190Y-108688095D01*
X137317857Y-108688095D01*
X137155952Y-108647619D01*
X137075000Y-108566667D01*
X137034524Y-108485714D01*
X137034524Y-108323810D01*
X137075000Y-108242857D01*
X137155952Y-108161905D01*
X137317857Y-108121429D01*
X137601190Y-108121429D01*
X137763095Y-108161905D01*
X137844048Y-108242857D01*
X137884524Y-108323810D01*
X137884524Y-108485714D01*
X137034524Y-107838095D02*
X137034524Y-107311905D01*
X137358333Y-107595238D01*
X137358333Y-107473810D01*
X137398810Y-107392857D01*
X137439286Y-107352381D01*
X137520238Y-107311905D01*
X137722619Y-107311905D01*
X137803571Y-107352381D01*
X137844048Y-107392857D01*
X137884524Y-107473810D01*
X137884524Y-107716667D01*
X137844048Y-107797619D01*
X137803571Y-107838095D01*
X137965476Y-101280952D02*
X137925000Y-101361905D01*
X137844048Y-101442857D01*
X137722619Y-101564286D01*
X137682143Y-101645238D01*
X137682143Y-101726190D01*
X137884524Y-101685714D02*
X137844048Y-101766667D01*
X137763095Y-101847619D01*
X137601190Y-101888095D01*
X137317857Y-101888095D01*
X137155952Y-101847619D01*
X137075000Y-101766667D01*
X137034524Y-101685714D01*
X137034524Y-101523810D01*
X137075000Y-101442857D01*
X137155952Y-101361905D01*
X137317857Y-101321429D01*
X137601190Y-101321429D01*
X137763095Y-101361905D01*
X137844048Y-101442857D01*
X137884524Y-101523810D01*
X137884524Y-101685714D01*
X137317857Y-100592857D02*
X137884524Y-100592857D01*
X136994048Y-100795238D02*
X137601190Y-100997619D01*
X137601190Y-100471429D01*
X140284524Y-105541667D02*
X139879762Y-105825000D01*
X140284524Y-106027381D02*
X139434524Y-106027381D01*
X139434524Y-105703572D01*
X139475000Y-105622619D01*
X139515476Y-105582143D01*
X139596429Y-105541667D01*
X139717857Y-105541667D01*
X139798810Y-105582143D01*
X139839286Y-105622619D01*
X139879762Y-105703572D01*
X139879762Y-106027381D01*
X140284524Y-104732143D02*
X140284524Y-105217857D01*
X140284524Y-104975000D02*
X139434524Y-104975000D01*
X139555952Y-105055952D01*
X139636905Y-105136905D01*
X139677381Y-105217857D01*
X140284524Y-112141667D02*
X139879762Y-112425000D01*
X140284524Y-112627381D02*
X139434524Y-112627381D01*
X139434524Y-112303572D01*
X139475000Y-112222619D01*
X139515476Y-112182143D01*
X139596429Y-112141667D01*
X139717857Y-112141667D01*
X139798810Y-112182143D01*
X139839286Y-112222619D01*
X139879762Y-112303572D01*
X139879762Y-112627381D01*
X139515476Y-111817857D02*
X139475000Y-111777381D01*
X139434524Y-111696429D01*
X139434524Y-111494048D01*
X139475000Y-111413095D01*
X139515476Y-111372619D01*
X139596429Y-111332143D01*
X139677381Y-111332143D01*
X139798810Y-111372619D01*
X140284524Y-111858333D01*
X140284524Y-111332143D01*
X138884524Y-103541667D02*
X138479762Y-103825000D01*
X138884524Y-104027381D02*
X138034524Y-104027381D01*
X138034524Y-103703572D01*
X138075000Y-103622619D01*
X138115476Y-103582143D01*
X138196429Y-103541667D01*
X138317857Y-103541667D01*
X138398810Y-103582143D01*
X138439286Y-103622619D01*
X138479762Y-103703572D01*
X138479762Y-104027381D01*
X138034524Y-103258333D02*
X138034524Y-102732143D01*
X138358333Y-103015476D01*
X138358333Y-102894048D01*
X138398810Y-102813095D01*
X138439286Y-102772619D01*
X138520238Y-102732143D01*
X138722619Y-102732143D01*
X138803571Y-102772619D01*
X138844048Y-102813095D01*
X138884524Y-102894048D01*
X138884524Y-103136905D01*
X138844048Y-103217857D01*
X138803571Y-103258333D01*
X138584524Y-110541667D02*
X138179762Y-110825000D01*
X138584524Y-111027381D02*
X137734524Y-111027381D01*
X137734524Y-110703572D01*
X137775000Y-110622619D01*
X137815476Y-110582143D01*
X137896429Y-110541667D01*
X138017857Y-110541667D01*
X138098810Y-110582143D01*
X138139286Y-110622619D01*
X138179762Y-110703572D01*
X138179762Y-111027381D01*
X138017857Y-109813095D02*
X138584524Y-109813095D01*
X137694048Y-110015476D02*
X138301190Y-110217857D01*
X138301190Y-109691667D01*
X132884524Y-111941667D02*
X132479762Y-112225000D01*
X132884524Y-112427381D02*
X132034524Y-112427381D01*
X132034524Y-112103572D01*
X132075000Y-112022619D01*
X132115476Y-111982143D01*
X132196429Y-111941667D01*
X132317857Y-111941667D01*
X132398810Y-111982143D01*
X132439286Y-112022619D01*
X132479762Y-112103572D01*
X132479762Y-112427381D01*
X132034524Y-111172619D02*
X132034524Y-111577381D01*
X132439286Y-111617857D01*
X132398810Y-111577381D01*
X132358333Y-111496429D01*
X132358333Y-111294048D01*
X132398810Y-111213095D01*
X132439286Y-111172619D01*
X132520238Y-111132143D01*
X132722619Y-111132143D01*
X132803571Y-111172619D01*
X132844048Y-111213095D01*
X132884524Y-111294048D01*
X132884524Y-111496429D01*
X132844048Y-111577381D01*
X132803571Y-111617857D01*
X132284524Y-105541667D02*
X131879762Y-105825000D01*
X132284524Y-106027381D02*
X131434524Y-106027381D01*
X131434524Y-105703572D01*
X131475000Y-105622619D01*
X131515476Y-105582143D01*
X131596429Y-105541667D01*
X131717857Y-105541667D01*
X131798810Y-105582143D01*
X131839286Y-105622619D01*
X131879762Y-105703572D01*
X131879762Y-106027381D01*
X131434524Y-104813095D02*
X131434524Y-104975000D01*
X131475000Y-105055952D01*
X131515476Y-105096429D01*
X131636905Y-105177381D01*
X131798810Y-105217857D01*
X132122619Y-105217857D01*
X132203571Y-105177381D01*
X132244048Y-105136905D01*
X132284524Y-105055952D01*
X132284524Y-104894048D01*
X132244048Y-104813095D01*
X132203571Y-104772619D01*
X132122619Y-104732143D01*
X131920238Y-104732143D01*
X131839286Y-104772619D01*
X131798810Y-104813095D01*
X131758333Y-104894048D01*
X131758333Y-105055952D01*
X131798810Y-105136905D01*
X131839286Y-105177381D01*
X131920238Y-105217857D01*
X131484524Y-110141667D02*
X131079762Y-110425000D01*
X131484524Y-110627381D02*
X130634524Y-110627381D01*
X130634524Y-110303572D01*
X130675000Y-110222619D01*
X130715476Y-110182143D01*
X130796429Y-110141667D01*
X130917857Y-110141667D01*
X130998810Y-110182143D01*
X131039286Y-110222619D01*
X131079762Y-110303572D01*
X131079762Y-110627381D01*
X130634524Y-109858333D02*
X130634524Y-109291667D01*
X131484524Y-109655952D01*
X131484524Y-102241667D02*
X131079762Y-102525000D01*
X131484524Y-102727381D02*
X130634524Y-102727381D01*
X130634524Y-102403572D01*
X130675000Y-102322619D01*
X130715476Y-102282143D01*
X130796429Y-102241667D01*
X130917857Y-102241667D01*
X130998810Y-102282143D01*
X131039286Y-102322619D01*
X131079762Y-102403572D01*
X131079762Y-102727381D01*
X130998810Y-101755952D02*
X130958333Y-101836905D01*
X130917857Y-101877381D01*
X130836905Y-101917857D01*
X130796429Y-101917857D01*
X130715476Y-101877381D01*
X130675000Y-101836905D01*
X130634524Y-101755952D01*
X130634524Y-101594048D01*
X130675000Y-101513095D01*
X130715476Y-101472619D01*
X130796429Y-101432143D01*
X130836905Y-101432143D01*
X130917857Y-101472619D01*
X130958333Y-101513095D01*
X130998810Y-101594048D01*
X130998810Y-101755952D01*
X131039286Y-101836905D01*
X131079762Y-101877381D01*
X131160714Y-101917857D01*
X131322619Y-101917857D01*
X131403571Y-101877381D01*
X131444048Y-101836905D01*
X131484524Y-101755952D01*
X131484524Y-101594048D01*
X131444048Y-101513095D01*
X131403571Y-101472619D01*
X131322619Y-101432143D01*
X131160714Y-101432143D01*
X131079762Y-101472619D01*
X131039286Y-101513095D01*
X130998810Y-101594048D01*
D11*
M02*
