G04 #@! TF.FileFunction,Copper,L2,Bot,Signal*
%FSLAX46Y46*%
G04 Gerber Fmt 4.6, Leading zero omitted, Abs format (unit mm)*
G04 Created by KiCad (PCBNEW 4.0.2-stable) date 16.05.2016 20:37:56*
%MOMM*%
G01*
G04 APERTURE LIST*
%ADD10C,0.100000*%
%ADD11R,1.727200X1.727200*%
%ADD12O,1.727200X1.727200*%
%ADD13C,0.500000*%
%ADD14R,1.020000X3.450000*%
%ADD15C,0.700000*%
%ADD16C,2.400000*%
%ADD17C,0.400000*%
%ADD18C,0.254000*%
G04 APERTURE END LIST*
D10*
D11*
X134250000Y-98200000D03*
D12*
X134250000Y-95660000D03*
X136790000Y-98200000D03*
X136790000Y-95660000D03*
X139330000Y-98200000D03*
X139330000Y-95660000D03*
X141870000Y-98200000D03*
X141870000Y-95660000D03*
D13*
X130800000Y-104080000D03*
X130800000Y-108720000D03*
X139200000Y-112200000D03*
X145200000Y-94800000D03*
X132000000Y-94800000D03*
X130800000Y-112200000D03*
X130800000Y-106400000D03*
X130800000Y-100600000D03*
X130800000Y-99440000D03*
X130800000Y-98280000D03*
X130800000Y-97120000D03*
X130800000Y-95960000D03*
D14*
X136830000Y-103675000D03*
X136830000Y-109125000D03*
X139370000Y-103675000D03*
X139370000Y-109125000D03*
X144450000Y-109125000D03*
X144450000Y-103675000D03*
X141910000Y-109125000D03*
X141910000Y-103675000D03*
X134290000Y-103675000D03*
X134290000Y-109125000D03*
X131750000Y-103675000D03*
X131750000Y-109125000D03*
D13*
X130800000Y-94800000D03*
D15*
X144750000Y-106550000D03*
X136250000Y-106325000D03*
X144800000Y-111800000D03*
X137700000Y-111600000D03*
D16*
X141930000Y-95600000D02*
X143300000Y-95600000D01*
X144350000Y-96650000D02*
X144350000Y-103575000D01*
X143300000Y-95600000D02*
X144350000Y-96650000D01*
X139370000Y-103675000D02*
X141910000Y-103675000D01*
X136830000Y-103675000D02*
X139370000Y-103675000D01*
X141910000Y-103675000D02*
X144450000Y-103675000D01*
X134250000Y-95660000D02*
X136790000Y-95660000D01*
X136790000Y-95660000D02*
X139330000Y-95660000D01*
X139330000Y-95660000D02*
X141870000Y-95660000D01*
X141870000Y-95660000D02*
X141930000Y-95600000D01*
X144350000Y-103575000D02*
X144450000Y-103675000D01*
D17*
X144450000Y-109125000D02*
X144450000Y-106850000D01*
X144450000Y-106850000D02*
X144750000Y-106550000D01*
X138675000Y-106550000D02*
X139370000Y-107245000D01*
X139370000Y-107245000D02*
X139370000Y-109125000D01*
X139370000Y-107770000D02*
X139370000Y-109125000D01*
X136250000Y-106325000D02*
X136475000Y-106550000D01*
X136475000Y-106550000D02*
X138675000Y-106550000D01*
X144800000Y-111800000D02*
X144700000Y-111900000D01*
X144700000Y-111900000D02*
X142500000Y-111900000D01*
X142500000Y-111900000D02*
X141910000Y-111310000D01*
X141910000Y-109125000D02*
X141910000Y-111310000D01*
X137700000Y-111600000D02*
X136830000Y-110730000D01*
X136830000Y-110730000D02*
X136830000Y-109125000D01*
D18*
G36*
X133099537Y-94509537D02*
X132746848Y-95037374D01*
X132623000Y-95660000D01*
X132746848Y-96282626D01*
X133099537Y-96810463D01*
X133268335Y-96923250D01*
X133228163Y-96930809D01*
X133082833Y-97024327D01*
X132985336Y-97167019D01*
X132951035Y-97336400D01*
X132951035Y-99063600D01*
X132980809Y-99221837D01*
X133074327Y-99367167D01*
X133217019Y-99464664D01*
X133386400Y-99498965D01*
X135113600Y-99498965D01*
X135271837Y-99469191D01*
X135417167Y-99375673D01*
X135514664Y-99232981D01*
X135548965Y-99063600D01*
X135548965Y-98474464D01*
X135597641Y-98719175D01*
X135877408Y-99137876D01*
X136296109Y-99417643D01*
X136790000Y-99515884D01*
X137283891Y-99417643D01*
X137702592Y-99137876D01*
X137982359Y-98719175D01*
X138060000Y-98328847D01*
X138137641Y-98719175D01*
X138417408Y-99137876D01*
X138836109Y-99417643D01*
X139330000Y-99515884D01*
X139823891Y-99417643D01*
X140242592Y-99137876D01*
X140522359Y-98719175D01*
X140600000Y-98328847D01*
X140677641Y-98719175D01*
X140957408Y-99137876D01*
X141376109Y-99417643D01*
X141870000Y-99515884D01*
X142363891Y-99417643D01*
X142723000Y-99177694D01*
X142723000Y-101640234D01*
X142589381Y-101548936D01*
X142420000Y-101514635D01*
X141400000Y-101514635D01*
X141241763Y-101544409D01*
X141096433Y-101637927D01*
X140998936Y-101780619D01*
X140964635Y-101950000D01*
X140964635Y-102048000D01*
X140315365Y-102048000D01*
X140315365Y-101950000D01*
X140285591Y-101791763D01*
X140192073Y-101646433D01*
X140049381Y-101548936D01*
X139880000Y-101514635D01*
X138860000Y-101514635D01*
X138701763Y-101544409D01*
X138556433Y-101637927D01*
X138458936Y-101780619D01*
X138424635Y-101950000D01*
X138424635Y-102048000D01*
X137775365Y-102048000D01*
X137775365Y-101950000D01*
X137745591Y-101791763D01*
X137652073Y-101646433D01*
X137509381Y-101548936D01*
X137340000Y-101514635D01*
X136320000Y-101514635D01*
X136161763Y-101544409D01*
X136016433Y-101637927D01*
X135918936Y-101780619D01*
X135884635Y-101950000D01*
X135884635Y-102387495D01*
X135679537Y-102524537D01*
X135435000Y-102890513D01*
X135435000Y-101823690D01*
X135338327Y-101590301D01*
X135159698Y-101411673D01*
X134926309Y-101315000D01*
X134703750Y-101315000D01*
X134545000Y-101473750D01*
X134545000Y-102812500D01*
X134800000Y-102812500D01*
X134800000Y-104537500D01*
X134545000Y-104537500D01*
X134545000Y-105876250D01*
X134703750Y-106035000D01*
X134926309Y-106035000D01*
X135159698Y-105938327D01*
X135338327Y-105759699D01*
X135435000Y-105526310D01*
X135435000Y-104459487D01*
X135679537Y-104825463D01*
X135884635Y-104962505D01*
X135884635Y-105400000D01*
X135914409Y-105558237D01*
X135947304Y-105609357D01*
X135810440Y-105665908D01*
X135591676Y-105884290D01*
X135473135Y-106169767D01*
X135472866Y-106478877D01*
X135590908Y-106764560D01*
X135809290Y-106983324D01*
X136033991Y-107076629D01*
X136016433Y-107087927D01*
X135918936Y-107230619D01*
X135884635Y-107400000D01*
X135884635Y-110850000D01*
X135914409Y-111008237D01*
X136007927Y-111153567D01*
X136150619Y-111251064D01*
X136320000Y-111285365D01*
X136498653Y-111285365D01*
X136922905Y-111709617D01*
X136922866Y-111753877D01*
X137040908Y-112039560D01*
X137259290Y-112258324D01*
X137544767Y-112376865D01*
X137853877Y-112377134D01*
X138139560Y-112259092D01*
X138358324Y-112040710D01*
X138476865Y-111755233D01*
X138477134Y-111446123D01*
X138359092Y-111160440D01*
X138140710Y-110941676D01*
X137855233Y-110823135D01*
X137809807Y-110823095D01*
X137775365Y-110788653D01*
X137775365Y-107400000D01*
X137745591Y-107241763D01*
X137703917Y-107177000D01*
X138415288Y-107177000D01*
X138462983Y-107224695D01*
X138458936Y-107230619D01*
X138424635Y-107400000D01*
X138424635Y-110850000D01*
X138454409Y-111008237D01*
X138547927Y-111153567D01*
X138690619Y-111251064D01*
X138860000Y-111285365D01*
X139880000Y-111285365D01*
X140038237Y-111255591D01*
X140183567Y-111162073D01*
X140281064Y-111019381D01*
X140315365Y-110850000D01*
X140315365Y-107400000D01*
X140285591Y-107241763D01*
X140192073Y-107096433D01*
X140049381Y-106998936D01*
X139928876Y-106974533D01*
X139813356Y-106801644D01*
X139118356Y-106106644D01*
X139086050Y-106085058D01*
X138914943Y-105970728D01*
X138675000Y-105923000D01*
X136924612Y-105923000D01*
X136909092Y-105885440D01*
X136859104Y-105835365D01*
X137340000Y-105835365D01*
X137498237Y-105805591D01*
X137643567Y-105712073D01*
X137741064Y-105569381D01*
X137775365Y-105400000D01*
X137775365Y-105302000D01*
X138424635Y-105302000D01*
X138424635Y-105400000D01*
X138454409Y-105558237D01*
X138547927Y-105703567D01*
X138690619Y-105801064D01*
X138860000Y-105835365D01*
X139880000Y-105835365D01*
X140038237Y-105805591D01*
X140183567Y-105712073D01*
X140281064Y-105569381D01*
X140315365Y-105400000D01*
X140315365Y-105302000D01*
X140964635Y-105302000D01*
X140964635Y-105400000D01*
X140994409Y-105558237D01*
X141087927Y-105703567D01*
X141230619Y-105801064D01*
X141400000Y-105835365D01*
X142420000Y-105835365D01*
X142578237Y-105805591D01*
X142723567Y-105712073D01*
X142821064Y-105569381D01*
X142855365Y-105400000D01*
X142855365Y-105302000D01*
X143504635Y-105302000D01*
X143504635Y-105400000D01*
X143534409Y-105558237D01*
X143627927Y-105703567D01*
X143770619Y-105801064D01*
X143940000Y-105835365D01*
X144444864Y-105835365D01*
X144310440Y-105890908D01*
X144091676Y-106109290D01*
X143973135Y-106394767D01*
X143973081Y-106456875D01*
X143870728Y-106610057D01*
X143823000Y-106850000D01*
X143823000Y-106986650D01*
X143781763Y-106994409D01*
X143636433Y-107087927D01*
X143538936Y-107230619D01*
X143504635Y-107400000D01*
X143504635Y-110850000D01*
X143534409Y-111008237D01*
X143627927Y-111153567D01*
X143770619Y-111251064D01*
X143878941Y-111273000D01*
X142759712Y-111273000D01*
X142678065Y-111191353D01*
X142723567Y-111162073D01*
X142821064Y-111019381D01*
X142855365Y-110850000D01*
X142855365Y-107400000D01*
X142825591Y-107241763D01*
X142732073Y-107096433D01*
X142589381Y-106998936D01*
X142420000Y-106964635D01*
X141400000Y-106964635D01*
X141241763Y-106994409D01*
X141096433Y-107087927D01*
X140998936Y-107230619D01*
X140964635Y-107400000D01*
X140964635Y-110850000D01*
X140994409Y-111008237D01*
X141087927Y-111153567D01*
X141230619Y-111251064D01*
X141283000Y-111261672D01*
X141283000Y-111310000D01*
X141330728Y-111549943D01*
X141466644Y-111753356D01*
X142056644Y-112343356D01*
X142260057Y-112479272D01*
X142500000Y-112527000D01*
X144524679Y-112527000D01*
X144644767Y-112576865D01*
X144953877Y-112577134D01*
X145239560Y-112459092D01*
X145458324Y-112240710D01*
X145576865Y-111955233D01*
X145577134Y-111646123D01*
X145459092Y-111360440D01*
X145262047Y-111163051D01*
X145263567Y-111162073D01*
X145361064Y-111019381D01*
X145395365Y-110850000D01*
X145395365Y-107400000D01*
X145365591Y-107241763D01*
X145283941Y-107114876D01*
X145408324Y-106990710D01*
X145526865Y-106705233D01*
X145527134Y-106396123D01*
X145409092Y-106110440D01*
X145190710Y-105891676D01*
X145025444Y-105823051D01*
X145118237Y-105805591D01*
X145263567Y-105712073D01*
X145361064Y-105569381D01*
X145395365Y-105400000D01*
X145395365Y-104962505D01*
X145600463Y-104825463D01*
X145768000Y-104574726D01*
X145768000Y-112157454D01*
X145716945Y-112414125D01*
X145595652Y-112595652D01*
X145414125Y-112716945D01*
X145157453Y-112768000D01*
X130842546Y-112768000D01*
X130585875Y-112716945D01*
X130404348Y-112595652D01*
X130283055Y-112414125D01*
X130232000Y-112157453D01*
X130232000Y-110146250D01*
X130605000Y-110146250D01*
X130605000Y-110976310D01*
X130701673Y-111209699D01*
X130880302Y-111388327D01*
X131113691Y-111485000D01*
X131336250Y-111485000D01*
X131495000Y-111326250D01*
X131495000Y-109987500D01*
X132005000Y-109987500D01*
X132005000Y-111326250D01*
X132163750Y-111485000D01*
X132386309Y-111485000D01*
X132619698Y-111388327D01*
X132798327Y-111209699D01*
X132895000Y-110976310D01*
X132895000Y-110146250D01*
X133145000Y-110146250D01*
X133145000Y-110976310D01*
X133241673Y-111209699D01*
X133420302Y-111388327D01*
X133653691Y-111485000D01*
X133876250Y-111485000D01*
X134035000Y-111326250D01*
X134035000Y-109987500D01*
X134545000Y-109987500D01*
X134545000Y-111326250D01*
X134703750Y-111485000D01*
X134926309Y-111485000D01*
X135159698Y-111388327D01*
X135338327Y-111209699D01*
X135435000Y-110976310D01*
X135435000Y-110146250D01*
X135276250Y-109987500D01*
X134545000Y-109987500D01*
X134035000Y-109987500D01*
X133303750Y-109987500D01*
X133145000Y-110146250D01*
X132895000Y-110146250D01*
X132736250Y-109987500D01*
X132005000Y-109987500D01*
X131495000Y-109987500D01*
X130763750Y-109987500D01*
X130605000Y-110146250D01*
X130232000Y-110146250D01*
X130232000Y-107273690D01*
X130605000Y-107273690D01*
X130605000Y-108103750D01*
X130763750Y-108262500D01*
X131495000Y-108262500D01*
X131495000Y-106923750D01*
X132005000Y-106923750D01*
X132005000Y-108262500D01*
X132736250Y-108262500D01*
X132895000Y-108103750D01*
X132895000Y-107273690D01*
X133145000Y-107273690D01*
X133145000Y-108103750D01*
X133303750Y-108262500D01*
X134035000Y-108262500D01*
X134035000Y-106923750D01*
X134545000Y-106923750D01*
X134545000Y-108262500D01*
X135276250Y-108262500D01*
X135435000Y-108103750D01*
X135435000Y-107273690D01*
X135338327Y-107040301D01*
X135159698Y-106861673D01*
X134926309Y-106765000D01*
X134703750Y-106765000D01*
X134545000Y-106923750D01*
X134035000Y-106923750D01*
X133876250Y-106765000D01*
X133653691Y-106765000D01*
X133420302Y-106861673D01*
X133241673Y-107040301D01*
X133145000Y-107273690D01*
X132895000Y-107273690D01*
X132798327Y-107040301D01*
X132619698Y-106861673D01*
X132386309Y-106765000D01*
X132163750Y-106765000D01*
X132005000Y-106923750D01*
X131495000Y-106923750D01*
X131336250Y-106765000D01*
X131113691Y-106765000D01*
X130880302Y-106861673D01*
X130701673Y-107040301D01*
X130605000Y-107273690D01*
X130232000Y-107273690D01*
X130232000Y-104696250D01*
X130605000Y-104696250D01*
X130605000Y-105526310D01*
X130701673Y-105759699D01*
X130880302Y-105938327D01*
X131113691Y-106035000D01*
X131336250Y-106035000D01*
X131495000Y-105876250D01*
X131495000Y-104537500D01*
X132005000Y-104537500D01*
X132005000Y-105876250D01*
X132163750Y-106035000D01*
X132386309Y-106035000D01*
X132619698Y-105938327D01*
X132798327Y-105759699D01*
X132895000Y-105526310D01*
X132895000Y-104696250D01*
X133145000Y-104696250D01*
X133145000Y-105526310D01*
X133241673Y-105759699D01*
X133420302Y-105938327D01*
X133653691Y-106035000D01*
X133876250Y-106035000D01*
X134035000Y-105876250D01*
X134035000Y-104537500D01*
X133303750Y-104537500D01*
X133145000Y-104696250D01*
X132895000Y-104696250D01*
X132736250Y-104537500D01*
X132005000Y-104537500D01*
X131495000Y-104537500D01*
X130763750Y-104537500D01*
X130605000Y-104696250D01*
X130232000Y-104696250D01*
X130232000Y-101823690D01*
X130605000Y-101823690D01*
X130605000Y-102653750D01*
X130763750Y-102812500D01*
X131495000Y-102812500D01*
X131495000Y-101473750D01*
X132005000Y-101473750D01*
X132005000Y-102812500D01*
X132736250Y-102812500D01*
X132895000Y-102653750D01*
X132895000Y-101823690D01*
X133145000Y-101823690D01*
X133145000Y-102653750D01*
X133303750Y-102812500D01*
X134035000Y-102812500D01*
X134035000Y-101473750D01*
X133876250Y-101315000D01*
X133653691Y-101315000D01*
X133420302Y-101411673D01*
X133241673Y-101590301D01*
X133145000Y-101823690D01*
X132895000Y-101823690D01*
X132798327Y-101590301D01*
X132619698Y-101411673D01*
X132386309Y-101315000D01*
X132163750Y-101315000D01*
X132005000Y-101473750D01*
X131495000Y-101473750D01*
X131336250Y-101315000D01*
X131113691Y-101315000D01*
X130880302Y-101411673D01*
X130701673Y-101590301D01*
X130605000Y-101823690D01*
X130232000Y-101823690D01*
X130232000Y-94842547D01*
X130283055Y-94585875D01*
X130404348Y-94404348D01*
X130585875Y-94283055D01*
X130842546Y-94232000D01*
X133514901Y-94232000D01*
X133099537Y-94509537D01*
X133099537Y-94509537D01*
G37*
X133099537Y-94509537D02*
X132746848Y-95037374D01*
X132623000Y-95660000D01*
X132746848Y-96282626D01*
X133099537Y-96810463D01*
X133268335Y-96923250D01*
X133228163Y-96930809D01*
X133082833Y-97024327D01*
X132985336Y-97167019D01*
X132951035Y-97336400D01*
X132951035Y-99063600D01*
X132980809Y-99221837D01*
X133074327Y-99367167D01*
X133217019Y-99464664D01*
X133386400Y-99498965D01*
X135113600Y-99498965D01*
X135271837Y-99469191D01*
X135417167Y-99375673D01*
X135514664Y-99232981D01*
X135548965Y-99063600D01*
X135548965Y-98474464D01*
X135597641Y-98719175D01*
X135877408Y-99137876D01*
X136296109Y-99417643D01*
X136790000Y-99515884D01*
X137283891Y-99417643D01*
X137702592Y-99137876D01*
X137982359Y-98719175D01*
X138060000Y-98328847D01*
X138137641Y-98719175D01*
X138417408Y-99137876D01*
X138836109Y-99417643D01*
X139330000Y-99515884D01*
X139823891Y-99417643D01*
X140242592Y-99137876D01*
X140522359Y-98719175D01*
X140600000Y-98328847D01*
X140677641Y-98719175D01*
X140957408Y-99137876D01*
X141376109Y-99417643D01*
X141870000Y-99515884D01*
X142363891Y-99417643D01*
X142723000Y-99177694D01*
X142723000Y-101640234D01*
X142589381Y-101548936D01*
X142420000Y-101514635D01*
X141400000Y-101514635D01*
X141241763Y-101544409D01*
X141096433Y-101637927D01*
X140998936Y-101780619D01*
X140964635Y-101950000D01*
X140964635Y-102048000D01*
X140315365Y-102048000D01*
X140315365Y-101950000D01*
X140285591Y-101791763D01*
X140192073Y-101646433D01*
X140049381Y-101548936D01*
X139880000Y-101514635D01*
X138860000Y-101514635D01*
X138701763Y-101544409D01*
X138556433Y-101637927D01*
X138458936Y-101780619D01*
X138424635Y-101950000D01*
X138424635Y-102048000D01*
X137775365Y-102048000D01*
X137775365Y-101950000D01*
X137745591Y-101791763D01*
X137652073Y-101646433D01*
X137509381Y-101548936D01*
X137340000Y-101514635D01*
X136320000Y-101514635D01*
X136161763Y-101544409D01*
X136016433Y-101637927D01*
X135918936Y-101780619D01*
X135884635Y-101950000D01*
X135884635Y-102387495D01*
X135679537Y-102524537D01*
X135435000Y-102890513D01*
X135435000Y-101823690D01*
X135338327Y-101590301D01*
X135159698Y-101411673D01*
X134926309Y-101315000D01*
X134703750Y-101315000D01*
X134545000Y-101473750D01*
X134545000Y-102812500D01*
X134800000Y-102812500D01*
X134800000Y-104537500D01*
X134545000Y-104537500D01*
X134545000Y-105876250D01*
X134703750Y-106035000D01*
X134926309Y-106035000D01*
X135159698Y-105938327D01*
X135338327Y-105759699D01*
X135435000Y-105526310D01*
X135435000Y-104459487D01*
X135679537Y-104825463D01*
X135884635Y-104962505D01*
X135884635Y-105400000D01*
X135914409Y-105558237D01*
X135947304Y-105609357D01*
X135810440Y-105665908D01*
X135591676Y-105884290D01*
X135473135Y-106169767D01*
X135472866Y-106478877D01*
X135590908Y-106764560D01*
X135809290Y-106983324D01*
X136033991Y-107076629D01*
X136016433Y-107087927D01*
X135918936Y-107230619D01*
X135884635Y-107400000D01*
X135884635Y-110850000D01*
X135914409Y-111008237D01*
X136007927Y-111153567D01*
X136150619Y-111251064D01*
X136320000Y-111285365D01*
X136498653Y-111285365D01*
X136922905Y-111709617D01*
X136922866Y-111753877D01*
X137040908Y-112039560D01*
X137259290Y-112258324D01*
X137544767Y-112376865D01*
X137853877Y-112377134D01*
X138139560Y-112259092D01*
X138358324Y-112040710D01*
X138476865Y-111755233D01*
X138477134Y-111446123D01*
X138359092Y-111160440D01*
X138140710Y-110941676D01*
X137855233Y-110823135D01*
X137809807Y-110823095D01*
X137775365Y-110788653D01*
X137775365Y-107400000D01*
X137745591Y-107241763D01*
X137703917Y-107177000D01*
X138415288Y-107177000D01*
X138462983Y-107224695D01*
X138458936Y-107230619D01*
X138424635Y-107400000D01*
X138424635Y-110850000D01*
X138454409Y-111008237D01*
X138547927Y-111153567D01*
X138690619Y-111251064D01*
X138860000Y-111285365D01*
X139880000Y-111285365D01*
X140038237Y-111255591D01*
X140183567Y-111162073D01*
X140281064Y-111019381D01*
X140315365Y-110850000D01*
X140315365Y-107400000D01*
X140285591Y-107241763D01*
X140192073Y-107096433D01*
X140049381Y-106998936D01*
X139928876Y-106974533D01*
X139813356Y-106801644D01*
X139118356Y-106106644D01*
X139086050Y-106085058D01*
X138914943Y-105970728D01*
X138675000Y-105923000D01*
X136924612Y-105923000D01*
X136909092Y-105885440D01*
X136859104Y-105835365D01*
X137340000Y-105835365D01*
X137498237Y-105805591D01*
X137643567Y-105712073D01*
X137741064Y-105569381D01*
X137775365Y-105400000D01*
X137775365Y-105302000D01*
X138424635Y-105302000D01*
X138424635Y-105400000D01*
X138454409Y-105558237D01*
X138547927Y-105703567D01*
X138690619Y-105801064D01*
X138860000Y-105835365D01*
X139880000Y-105835365D01*
X140038237Y-105805591D01*
X140183567Y-105712073D01*
X140281064Y-105569381D01*
X140315365Y-105400000D01*
X140315365Y-105302000D01*
X140964635Y-105302000D01*
X140964635Y-105400000D01*
X140994409Y-105558237D01*
X141087927Y-105703567D01*
X141230619Y-105801064D01*
X141400000Y-105835365D01*
X142420000Y-105835365D01*
X142578237Y-105805591D01*
X142723567Y-105712073D01*
X142821064Y-105569381D01*
X142855365Y-105400000D01*
X142855365Y-105302000D01*
X143504635Y-105302000D01*
X143504635Y-105400000D01*
X143534409Y-105558237D01*
X143627927Y-105703567D01*
X143770619Y-105801064D01*
X143940000Y-105835365D01*
X144444864Y-105835365D01*
X144310440Y-105890908D01*
X144091676Y-106109290D01*
X143973135Y-106394767D01*
X143973081Y-106456875D01*
X143870728Y-106610057D01*
X143823000Y-106850000D01*
X143823000Y-106986650D01*
X143781763Y-106994409D01*
X143636433Y-107087927D01*
X143538936Y-107230619D01*
X143504635Y-107400000D01*
X143504635Y-110850000D01*
X143534409Y-111008237D01*
X143627927Y-111153567D01*
X143770619Y-111251064D01*
X143878941Y-111273000D01*
X142759712Y-111273000D01*
X142678065Y-111191353D01*
X142723567Y-111162073D01*
X142821064Y-111019381D01*
X142855365Y-110850000D01*
X142855365Y-107400000D01*
X142825591Y-107241763D01*
X142732073Y-107096433D01*
X142589381Y-106998936D01*
X142420000Y-106964635D01*
X141400000Y-106964635D01*
X141241763Y-106994409D01*
X141096433Y-107087927D01*
X140998936Y-107230619D01*
X140964635Y-107400000D01*
X140964635Y-110850000D01*
X140994409Y-111008237D01*
X141087927Y-111153567D01*
X141230619Y-111251064D01*
X141283000Y-111261672D01*
X141283000Y-111310000D01*
X141330728Y-111549943D01*
X141466644Y-111753356D01*
X142056644Y-112343356D01*
X142260057Y-112479272D01*
X142500000Y-112527000D01*
X144524679Y-112527000D01*
X144644767Y-112576865D01*
X144953877Y-112577134D01*
X145239560Y-112459092D01*
X145458324Y-112240710D01*
X145576865Y-111955233D01*
X145577134Y-111646123D01*
X145459092Y-111360440D01*
X145262047Y-111163051D01*
X145263567Y-111162073D01*
X145361064Y-111019381D01*
X145395365Y-110850000D01*
X145395365Y-107400000D01*
X145365591Y-107241763D01*
X145283941Y-107114876D01*
X145408324Y-106990710D01*
X145526865Y-106705233D01*
X145527134Y-106396123D01*
X145409092Y-106110440D01*
X145190710Y-105891676D01*
X145025444Y-105823051D01*
X145118237Y-105805591D01*
X145263567Y-105712073D01*
X145361064Y-105569381D01*
X145395365Y-105400000D01*
X145395365Y-104962505D01*
X145600463Y-104825463D01*
X145768000Y-104574726D01*
X145768000Y-112157454D01*
X145716945Y-112414125D01*
X145595652Y-112595652D01*
X145414125Y-112716945D01*
X145157453Y-112768000D01*
X130842546Y-112768000D01*
X130585875Y-112716945D01*
X130404348Y-112595652D01*
X130283055Y-112414125D01*
X130232000Y-112157453D01*
X130232000Y-110146250D01*
X130605000Y-110146250D01*
X130605000Y-110976310D01*
X130701673Y-111209699D01*
X130880302Y-111388327D01*
X131113691Y-111485000D01*
X131336250Y-111485000D01*
X131495000Y-111326250D01*
X131495000Y-109987500D01*
X132005000Y-109987500D01*
X132005000Y-111326250D01*
X132163750Y-111485000D01*
X132386309Y-111485000D01*
X132619698Y-111388327D01*
X132798327Y-111209699D01*
X132895000Y-110976310D01*
X132895000Y-110146250D01*
X133145000Y-110146250D01*
X133145000Y-110976310D01*
X133241673Y-111209699D01*
X133420302Y-111388327D01*
X133653691Y-111485000D01*
X133876250Y-111485000D01*
X134035000Y-111326250D01*
X134035000Y-109987500D01*
X134545000Y-109987500D01*
X134545000Y-111326250D01*
X134703750Y-111485000D01*
X134926309Y-111485000D01*
X135159698Y-111388327D01*
X135338327Y-111209699D01*
X135435000Y-110976310D01*
X135435000Y-110146250D01*
X135276250Y-109987500D01*
X134545000Y-109987500D01*
X134035000Y-109987500D01*
X133303750Y-109987500D01*
X133145000Y-110146250D01*
X132895000Y-110146250D01*
X132736250Y-109987500D01*
X132005000Y-109987500D01*
X131495000Y-109987500D01*
X130763750Y-109987500D01*
X130605000Y-110146250D01*
X130232000Y-110146250D01*
X130232000Y-107273690D01*
X130605000Y-107273690D01*
X130605000Y-108103750D01*
X130763750Y-108262500D01*
X131495000Y-108262500D01*
X131495000Y-106923750D01*
X132005000Y-106923750D01*
X132005000Y-108262500D01*
X132736250Y-108262500D01*
X132895000Y-108103750D01*
X132895000Y-107273690D01*
X133145000Y-107273690D01*
X133145000Y-108103750D01*
X133303750Y-108262500D01*
X134035000Y-108262500D01*
X134035000Y-106923750D01*
X134545000Y-106923750D01*
X134545000Y-108262500D01*
X135276250Y-108262500D01*
X135435000Y-108103750D01*
X135435000Y-107273690D01*
X135338327Y-107040301D01*
X135159698Y-106861673D01*
X134926309Y-106765000D01*
X134703750Y-106765000D01*
X134545000Y-106923750D01*
X134035000Y-106923750D01*
X133876250Y-106765000D01*
X133653691Y-106765000D01*
X133420302Y-106861673D01*
X133241673Y-107040301D01*
X133145000Y-107273690D01*
X132895000Y-107273690D01*
X132798327Y-107040301D01*
X132619698Y-106861673D01*
X132386309Y-106765000D01*
X132163750Y-106765000D01*
X132005000Y-106923750D01*
X131495000Y-106923750D01*
X131336250Y-106765000D01*
X131113691Y-106765000D01*
X130880302Y-106861673D01*
X130701673Y-107040301D01*
X130605000Y-107273690D01*
X130232000Y-107273690D01*
X130232000Y-104696250D01*
X130605000Y-104696250D01*
X130605000Y-105526310D01*
X130701673Y-105759699D01*
X130880302Y-105938327D01*
X131113691Y-106035000D01*
X131336250Y-106035000D01*
X131495000Y-105876250D01*
X131495000Y-104537500D01*
X132005000Y-104537500D01*
X132005000Y-105876250D01*
X132163750Y-106035000D01*
X132386309Y-106035000D01*
X132619698Y-105938327D01*
X132798327Y-105759699D01*
X132895000Y-105526310D01*
X132895000Y-104696250D01*
X133145000Y-104696250D01*
X133145000Y-105526310D01*
X133241673Y-105759699D01*
X133420302Y-105938327D01*
X133653691Y-106035000D01*
X133876250Y-106035000D01*
X134035000Y-105876250D01*
X134035000Y-104537500D01*
X133303750Y-104537500D01*
X133145000Y-104696250D01*
X132895000Y-104696250D01*
X132736250Y-104537500D01*
X132005000Y-104537500D01*
X131495000Y-104537500D01*
X130763750Y-104537500D01*
X130605000Y-104696250D01*
X130232000Y-104696250D01*
X130232000Y-101823690D01*
X130605000Y-101823690D01*
X130605000Y-102653750D01*
X130763750Y-102812500D01*
X131495000Y-102812500D01*
X131495000Y-101473750D01*
X132005000Y-101473750D01*
X132005000Y-102812500D01*
X132736250Y-102812500D01*
X132895000Y-102653750D01*
X132895000Y-101823690D01*
X133145000Y-101823690D01*
X133145000Y-102653750D01*
X133303750Y-102812500D01*
X134035000Y-102812500D01*
X134035000Y-101473750D01*
X133876250Y-101315000D01*
X133653691Y-101315000D01*
X133420302Y-101411673D01*
X133241673Y-101590301D01*
X133145000Y-101823690D01*
X132895000Y-101823690D01*
X132798327Y-101590301D01*
X132619698Y-101411673D01*
X132386309Y-101315000D01*
X132163750Y-101315000D01*
X132005000Y-101473750D01*
X131495000Y-101473750D01*
X131336250Y-101315000D01*
X131113691Y-101315000D01*
X130880302Y-101411673D01*
X130701673Y-101590301D01*
X130605000Y-101823690D01*
X130232000Y-101823690D01*
X130232000Y-94842547D01*
X130283055Y-94585875D01*
X130404348Y-94404348D01*
X130585875Y-94283055D01*
X130842546Y-94232000D01*
X133514901Y-94232000D01*
X133099537Y-94509537D01*
G36*
X145414125Y-94283055D02*
X145595652Y-94404348D01*
X145716945Y-94585875D01*
X145768000Y-94842546D01*
X145768000Y-95899935D01*
X145500463Y-95499537D01*
X144450463Y-94449537D01*
X144124895Y-94232000D01*
X145157453Y-94232000D01*
X145414125Y-94283055D01*
X145414125Y-94283055D01*
G37*
X145414125Y-94283055D02*
X145595652Y-94404348D01*
X145716945Y-94585875D01*
X145768000Y-94842546D01*
X145768000Y-95899935D01*
X145500463Y-95499537D01*
X144450463Y-94449537D01*
X144124895Y-94232000D01*
X145157453Y-94232000D01*
X145414125Y-94283055D01*
M02*
