G04 #@! TF.FileFunction,Copper,L2,Bot,Signal*
%FSLAX46Y46*%
G04 Gerber Fmt 4.6, Leading zero omitted, Abs format (unit mm)*
G04 Created by KiCad (PCBNEW 4.0.1-stable) date 08.03.2016 20:40:15*
%MOMM*%
G01*
G04 APERTURE LIST*
%ADD10C,0.100000*%
%ADD11C,0.600000*%
%ADD12O,1.998980X1.998980*%
%ADD13R,1.998980X1.998980*%
%ADD14R,1.727200X2.032000*%
%ADD15O,1.727200X2.032000*%
%ADD16C,5.000000*%
%ADD17R,1.727200X1.727200*%
%ADD18O,1.727200X1.727200*%
%ADD19C,0.500000*%
%ADD20C,1.000000*%
%ADD21C,2.000000*%
%ADD22C,2.400000*%
%ADD23C,0.250000*%
%ADD24C,0.254000*%
G04 APERTURE END LIST*
D10*
D11*
X164000000Y-93600000D03*
X162650000Y-87975000D03*
X165075000Y-88075000D03*
X167850000Y-88125000D03*
X170225000Y-88125000D03*
X172950000Y-88125000D03*
X175500000Y-88000000D03*
X178375000Y-87950000D03*
X161250000Y-109150000D03*
X159750000Y-109150000D03*
X161250000Y-107650000D03*
X159750000Y-107650000D03*
X161250000Y-106150000D03*
X159750000Y-106150000D03*
X186000000Y-101850000D03*
X184400000Y-101750000D03*
X175640000Y-84050000D03*
X170000000Y-84130000D03*
X164460000Y-84200000D03*
X182800000Y-105300000D03*
X185800000Y-105300000D03*
X159770000Y-94880000D03*
X164280000Y-101880000D03*
X170360000Y-100630000D03*
X177720000Y-94760000D03*
X180950000Y-93250000D03*
D12*
X179510000Y-86150000D03*
D13*
X171890000Y-86150000D03*
D12*
X174430000Y-86150000D03*
X176970000Y-86150000D03*
X168660000Y-86150000D03*
D13*
X161040000Y-86150000D03*
D12*
X163580000Y-86150000D03*
X166120000Y-86150000D03*
D14*
X161400000Y-90950000D03*
D15*
X163940000Y-90950000D03*
X166480000Y-90950000D03*
X169020000Y-90950000D03*
X171560000Y-90950000D03*
X174100000Y-90950000D03*
X176640000Y-90950000D03*
X179180000Y-90950000D03*
D11*
X159350000Y-105100000D03*
D16*
X184370000Y-89100000D03*
D17*
X179000000Y-106000000D03*
D18*
X179000000Y-108540000D03*
X176460000Y-106000000D03*
X176460000Y-108540000D03*
X173920000Y-106000000D03*
X173920000Y-108540000D03*
X171380000Y-106000000D03*
X171380000Y-108540000D03*
X168840000Y-106000000D03*
X168840000Y-108540000D03*
X166300000Y-106000000D03*
X166300000Y-108540000D03*
X163760000Y-106000000D03*
X163760000Y-108540000D03*
D11*
X164270000Y-99800000D03*
X180990000Y-94970000D03*
X170350000Y-97090000D03*
X176450000Y-96480000D03*
X172790000Y-104200000D03*
X175320000Y-103480000D03*
D19*
X164270000Y-99800000D02*
X159630000Y-104440000D01*
X159630000Y-104440000D02*
X159630000Y-107850000D01*
X159630000Y-107850000D02*
X160320000Y-108540000D01*
X160320000Y-108540000D02*
X161735000Y-108540000D01*
X180990000Y-94970000D02*
X179480000Y-96480000D01*
X179480000Y-96480000D02*
X176450000Y-96480000D01*
X170350000Y-97090000D02*
X170960000Y-96480000D01*
X170960000Y-96480000D02*
X176450000Y-96480000D01*
D20*
X161400000Y-92840000D02*
X161400000Y-94375000D01*
X161400000Y-94375000D02*
X162275000Y-95250000D01*
X162275000Y-95250000D02*
X166300000Y-95250000D01*
D21*
X171380000Y-106000000D02*
X173920000Y-106000000D01*
D22*
X166625000Y-95575000D02*
X166300000Y-95250000D01*
X166300000Y-95250000D02*
X168100000Y-97050000D01*
X168100000Y-105260000D02*
X168840000Y-106000000D01*
X168100000Y-97050000D02*
X168100000Y-105260000D01*
X165800000Y-94750000D02*
X166625000Y-95575000D01*
X166625000Y-95575000D02*
X166815000Y-95765000D01*
D21*
X168840000Y-106000000D02*
X171380000Y-106000000D01*
X166300000Y-106000000D02*
X168840000Y-106000000D01*
X163760000Y-106000000D02*
X166300000Y-106000000D01*
D20*
X161400000Y-90950000D02*
X161400000Y-92840000D01*
X176640000Y-90950000D02*
X176640000Y-93135000D01*
X176640000Y-93135000D02*
X175750000Y-94025000D01*
X176970000Y-86050000D02*
X176970000Y-90620000D01*
X176970000Y-90620000D02*
X176640000Y-90950000D01*
X171560000Y-90950000D02*
X171560000Y-86380000D01*
X171560000Y-86380000D02*
X171890000Y-86050000D01*
X171560000Y-90950000D02*
X171560000Y-91990000D01*
X171560000Y-91990000D02*
X169525000Y-94025000D01*
D21*
X166525000Y-94025000D02*
X169525000Y-94025000D01*
X169525000Y-94025000D02*
X175750000Y-94025000D01*
X175750000Y-94025000D02*
X175775000Y-94050000D01*
D20*
X166480000Y-90950000D02*
X166480000Y-86410000D01*
X166480000Y-86410000D02*
X166120000Y-86050000D01*
X166525000Y-94025000D02*
X166525000Y-90995000D01*
X166525000Y-90995000D02*
X166480000Y-90950000D01*
D21*
X165800000Y-94750000D02*
X166525000Y-94025000D01*
D20*
X161400000Y-90950000D02*
X161040000Y-90590000D01*
X161040000Y-90590000D02*
X161040000Y-86050000D01*
D23*
X175250000Y-107330000D02*
X176460000Y-108540000D01*
X172790000Y-104200000D02*
X174400000Y-104200000D01*
X175250000Y-105050000D02*
X175250000Y-107330000D01*
X174400000Y-104200000D02*
X175250000Y-105050000D01*
X179000000Y-108540000D02*
X178740000Y-108540000D01*
X178740000Y-108540000D02*
X177750000Y-107550000D01*
X177750000Y-107550000D02*
X177750000Y-104450000D01*
X177750000Y-104450000D02*
X176780000Y-103480000D01*
X176780000Y-103480000D02*
X175320000Y-103480000D01*
D19*
X169020000Y-90950000D02*
X169020000Y-86410000D01*
X169020000Y-86410000D02*
X168660000Y-86050000D01*
X179510000Y-86050000D02*
X179510000Y-90620000D01*
X179510000Y-90620000D02*
X179180000Y-90950000D01*
X174100000Y-90950000D02*
X174100000Y-86380000D01*
X174100000Y-86380000D02*
X174430000Y-86050000D01*
X163940000Y-90950000D02*
X163940000Y-86410000D01*
X163940000Y-86410000D02*
X163580000Y-86050000D01*
D24*
G36*
X187438000Y-88336627D02*
X187022488Y-87331011D01*
X186143616Y-86450604D01*
X184994728Y-85973544D01*
X183750730Y-85972458D01*
X182601011Y-86447512D01*
X181720604Y-87326384D01*
X181243544Y-88475272D01*
X181242458Y-89719270D01*
X181717512Y-90868989D01*
X182596384Y-91749396D01*
X183745272Y-92226456D01*
X184989270Y-92227542D01*
X186138989Y-91752488D01*
X187019396Y-90873616D01*
X187438000Y-89865506D01*
X187438000Y-110098000D01*
X159112000Y-110098000D01*
X159112000Y-109135467D01*
X162384753Y-109135467D01*
X162717313Y-109616424D01*
X163164537Y-109915218D01*
X163387000Y-109826883D01*
X163387000Y-108913000D01*
X164133000Y-108913000D01*
X164133000Y-109826883D01*
X164355463Y-109915218D01*
X164802687Y-109616424D01*
X165030000Y-109287678D01*
X165257313Y-109616424D01*
X165704537Y-109915218D01*
X165927000Y-109826883D01*
X165927000Y-108913000D01*
X166673000Y-108913000D01*
X166673000Y-109826883D01*
X166895463Y-109915218D01*
X167342687Y-109616424D01*
X167570000Y-109287678D01*
X167797313Y-109616424D01*
X168244537Y-109915218D01*
X168467000Y-109826883D01*
X168467000Y-108913000D01*
X169213000Y-108913000D01*
X169213000Y-109826883D01*
X169435463Y-109915218D01*
X169882687Y-109616424D01*
X170110000Y-109287678D01*
X170337313Y-109616424D01*
X170784537Y-109915218D01*
X171007000Y-109826883D01*
X171007000Y-108913000D01*
X171753000Y-108913000D01*
X171753000Y-109826883D01*
X171975463Y-109915218D01*
X172422687Y-109616424D01*
X172650000Y-109287678D01*
X172877313Y-109616424D01*
X173324537Y-109915218D01*
X173547000Y-109826883D01*
X173547000Y-108913000D01*
X171753000Y-108913000D01*
X171007000Y-108913000D01*
X169213000Y-108913000D01*
X168467000Y-108913000D01*
X166673000Y-108913000D01*
X165927000Y-108913000D01*
X164133000Y-108913000D01*
X163387000Y-108913000D01*
X162467283Y-108913000D01*
X162384753Y-109135467D01*
X159112000Y-109135467D01*
X159112000Y-85050510D01*
X159401227Y-85050510D01*
X159401227Y-87049490D01*
X159444947Y-87281842D01*
X159582267Y-87495243D01*
X159791793Y-87638407D01*
X159913000Y-87662952D01*
X159913000Y-89855567D01*
X159897117Y-89934000D01*
X159897117Y-91966000D01*
X159940837Y-92198352D01*
X160078157Y-92411753D01*
X160273000Y-92544884D01*
X160273000Y-94375000D01*
X160358788Y-94806284D01*
X160603091Y-95171909D01*
X161478091Y-96046909D01*
X161843716Y-96291212D01*
X162275000Y-96377000D01*
X164843232Y-96377000D01*
X166273000Y-97806768D01*
X166273000Y-104373000D01*
X163760000Y-104373000D01*
X163137374Y-104496848D01*
X162609537Y-104849537D01*
X162256848Y-105377374D01*
X162133000Y-106000000D01*
X162256848Y-106622626D01*
X162609537Y-107150463D01*
X162897738Y-107343033D01*
X162717313Y-107463576D01*
X162384753Y-107944533D01*
X162467283Y-108167000D01*
X163387000Y-108167000D01*
X163387000Y-108147000D01*
X164133000Y-108147000D01*
X164133000Y-108167000D01*
X165927000Y-108167000D01*
X165927000Y-108147000D01*
X166673000Y-108147000D01*
X166673000Y-108167000D01*
X168467000Y-108167000D01*
X168467000Y-108147000D01*
X169213000Y-108147000D01*
X169213000Y-108167000D01*
X171007000Y-108167000D01*
X171007000Y-108147000D01*
X171753000Y-108147000D01*
X171753000Y-108167000D01*
X173547000Y-108167000D01*
X173547000Y-108147000D01*
X174293000Y-108147000D01*
X174293000Y-108167000D01*
X174313000Y-108167000D01*
X174313000Y-108913000D01*
X174293000Y-108913000D01*
X174293000Y-109826883D01*
X174515463Y-109915218D01*
X174962687Y-109616424D01*
X175185823Y-109293719D01*
X175405987Y-109623216D01*
X175889572Y-109946338D01*
X176460000Y-110059803D01*
X177030428Y-109946338D01*
X177514013Y-109623216D01*
X177730000Y-109299969D01*
X177945987Y-109623216D01*
X178429572Y-109946338D01*
X179000000Y-110059803D01*
X179570428Y-109946338D01*
X180054013Y-109623216D01*
X180377135Y-109139631D01*
X180490600Y-108569203D01*
X180490600Y-108510797D01*
X180377135Y-107940369D01*
X180060109Y-107465907D01*
X180095952Y-107459163D01*
X180309353Y-107321843D01*
X180452517Y-107112317D01*
X180502883Y-106863600D01*
X180502883Y-105136400D01*
X180459163Y-104904048D01*
X180321843Y-104690647D01*
X180112317Y-104547483D01*
X179863600Y-104497117D01*
X178502000Y-104497117D01*
X178502000Y-104450000D01*
X178444757Y-104162222D01*
X178281744Y-103918256D01*
X177311744Y-102948256D01*
X177067778Y-102785243D01*
X176780000Y-102728000D01*
X175879145Y-102728000D01*
X175845789Y-102694586D01*
X175505201Y-102553161D01*
X175136417Y-102552839D01*
X174795583Y-102693669D01*
X174534586Y-102954211D01*
X174393161Y-103294799D01*
X174393027Y-103448000D01*
X173349145Y-103448000D01*
X173315789Y-103414586D01*
X172975201Y-103273161D01*
X172606417Y-103272839D01*
X172265583Y-103413669D01*
X172004586Y-103674211D01*
X171863161Y-104014799D01*
X171862848Y-104373000D01*
X169927000Y-104373000D01*
X169927000Y-97050000D01*
X169787928Y-96350837D01*
X169391884Y-95758116D01*
X169285768Y-95652000D01*
X175649317Y-95652000D01*
X175775000Y-95677000D01*
X176397626Y-95553152D01*
X176925462Y-95200462D01*
X177278152Y-94672626D01*
X177402000Y-94050000D01*
X177388199Y-93980619D01*
X177436909Y-93931909D01*
X177681212Y-93566284D01*
X177709713Y-93423000D01*
X177767000Y-93135000D01*
X177767000Y-92079369D01*
X177910000Y-91865354D01*
X178125987Y-92188601D01*
X178609572Y-92511723D01*
X179180000Y-92625188D01*
X179750428Y-92511723D01*
X180234013Y-92188601D01*
X180557135Y-91705016D01*
X180670600Y-91134588D01*
X180670600Y-90765412D01*
X180557135Y-90194984D01*
X180387000Y-89940360D01*
X180387000Y-87403875D01*
X180691967Y-87200102D01*
X181044546Y-86672431D01*
X181168355Y-86050000D01*
X181044546Y-85427569D01*
X180691967Y-84899898D01*
X180164296Y-84547319D01*
X179541865Y-84423510D01*
X179478135Y-84423510D01*
X178855704Y-84547319D01*
X178328033Y-84899898D01*
X178240000Y-85031649D01*
X178151967Y-84899898D01*
X177624296Y-84547319D01*
X177001865Y-84423510D01*
X176938135Y-84423510D01*
X176315704Y-84547319D01*
X175788033Y-84899898D01*
X175700000Y-85031649D01*
X175611967Y-84899898D01*
X175084296Y-84547319D01*
X174461865Y-84423510D01*
X174398135Y-84423510D01*
X173775704Y-84547319D01*
X173450569Y-84764568D01*
X173347733Y-84604757D01*
X173138207Y-84461593D01*
X172889490Y-84411227D01*
X170890510Y-84411227D01*
X170658158Y-84454947D01*
X170444757Y-84592267D01*
X170301593Y-84801793D01*
X170251227Y-85050510D01*
X170251227Y-85712524D01*
X170194546Y-85427569D01*
X169841967Y-84899898D01*
X169314296Y-84547319D01*
X168691865Y-84423510D01*
X168628135Y-84423510D01*
X168005704Y-84547319D01*
X167478033Y-84899898D01*
X167390000Y-85031649D01*
X167301967Y-84899898D01*
X166774296Y-84547319D01*
X166151865Y-84423510D01*
X166088135Y-84423510D01*
X165465704Y-84547319D01*
X164938033Y-84899898D01*
X164850000Y-85031649D01*
X164761967Y-84899898D01*
X164234296Y-84547319D01*
X163611865Y-84423510D01*
X163548135Y-84423510D01*
X162925704Y-84547319D01*
X162600569Y-84764568D01*
X162497733Y-84604757D01*
X162288207Y-84461593D01*
X162039490Y-84411227D01*
X160040510Y-84411227D01*
X159808158Y-84454947D01*
X159594757Y-84592267D01*
X159451593Y-84801793D01*
X159401227Y-85050510D01*
X159112000Y-85050510D01*
X159112000Y-83452000D01*
X187438000Y-83452000D01*
X187438000Y-88336627D01*
X187438000Y-88336627D01*
G37*
X187438000Y-88336627D02*
X187022488Y-87331011D01*
X186143616Y-86450604D01*
X184994728Y-85973544D01*
X183750730Y-85972458D01*
X182601011Y-86447512D01*
X181720604Y-87326384D01*
X181243544Y-88475272D01*
X181242458Y-89719270D01*
X181717512Y-90868989D01*
X182596384Y-91749396D01*
X183745272Y-92226456D01*
X184989270Y-92227542D01*
X186138989Y-91752488D01*
X187019396Y-90873616D01*
X187438000Y-89865506D01*
X187438000Y-110098000D01*
X159112000Y-110098000D01*
X159112000Y-109135467D01*
X162384753Y-109135467D01*
X162717313Y-109616424D01*
X163164537Y-109915218D01*
X163387000Y-109826883D01*
X163387000Y-108913000D01*
X164133000Y-108913000D01*
X164133000Y-109826883D01*
X164355463Y-109915218D01*
X164802687Y-109616424D01*
X165030000Y-109287678D01*
X165257313Y-109616424D01*
X165704537Y-109915218D01*
X165927000Y-109826883D01*
X165927000Y-108913000D01*
X166673000Y-108913000D01*
X166673000Y-109826883D01*
X166895463Y-109915218D01*
X167342687Y-109616424D01*
X167570000Y-109287678D01*
X167797313Y-109616424D01*
X168244537Y-109915218D01*
X168467000Y-109826883D01*
X168467000Y-108913000D01*
X169213000Y-108913000D01*
X169213000Y-109826883D01*
X169435463Y-109915218D01*
X169882687Y-109616424D01*
X170110000Y-109287678D01*
X170337313Y-109616424D01*
X170784537Y-109915218D01*
X171007000Y-109826883D01*
X171007000Y-108913000D01*
X171753000Y-108913000D01*
X171753000Y-109826883D01*
X171975463Y-109915218D01*
X172422687Y-109616424D01*
X172650000Y-109287678D01*
X172877313Y-109616424D01*
X173324537Y-109915218D01*
X173547000Y-109826883D01*
X173547000Y-108913000D01*
X171753000Y-108913000D01*
X171007000Y-108913000D01*
X169213000Y-108913000D01*
X168467000Y-108913000D01*
X166673000Y-108913000D01*
X165927000Y-108913000D01*
X164133000Y-108913000D01*
X163387000Y-108913000D01*
X162467283Y-108913000D01*
X162384753Y-109135467D01*
X159112000Y-109135467D01*
X159112000Y-85050510D01*
X159401227Y-85050510D01*
X159401227Y-87049490D01*
X159444947Y-87281842D01*
X159582267Y-87495243D01*
X159791793Y-87638407D01*
X159913000Y-87662952D01*
X159913000Y-89855567D01*
X159897117Y-89934000D01*
X159897117Y-91966000D01*
X159940837Y-92198352D01*
X160078157Y-92411753D01*
X160273000Y-92544884D01*
X160273000Y-94375000D01*
X160358788Y-94806284D01*
X160603091Y-95171909D01*
X161478091Y-96046909D01*
X161843716Y-96291212D01*
X162275000Y-96377000D01*
X164843232Y-96377000D01*
X166273000Y-97806768D01*
X166273000Y-104373000D01*
X163760000Y-104373000D01*
X163137374Y-104496848D01*
X162609537Y-104849537D01*
X162256848Y-105377374D01*
X162133000Y-106000000D01*
X162256848Y-106622626D01*
X162609537Y-107150463D01*
X162897738Y-107343033D01*
X162717313Y-107463576D01*
X162384753Y-107944533D01*
X162467283Y-108167000D01*
X163387000Y-108167000D01*
X163387000Y-108147000D01*
X164133000Y-108147000D01*
X164133000Y-108167000D01*
X165927000Y-108167000D01*
X165927000Y-108147000D01*
X166673000Y-108147000D01*
X166673000Y-108167000D01*
X168467000Y-108167000D01*
X168467000Y-108147000D01*
X169213000Y-108147000D01*
X169213000Y-108167000D01*
X171007000Y-108167000D01*
X171007000Y-108147000D01*
X171753000Y-108147000D01*
X171753000Y-108167000D01*
X173547000Y-108167000D01*
X173547000Y-108147000D01*
X174293000Y-108147000D01*
X174293000Y-108167000D01*
X174313000Y-108167000D01*
X174313000Y-108913000D01*
X174293000Y-108913000D01*
X174293000Y-109826883D01*
X174515463Y-109915218D01*
X174962687Y-109616424D01*
X175185823Y-109293719D01*
X175405987Y-109623216D01*
X175889572Y-109946338D01*
X176460000Y-110059803D01*
X177030428Y-109946338D01*
X177514013Y-109623216D01*
X177730000Y-109299969D01*
X177945987Y-109623216D01*
X178429572Y-109946338D01*
X179000000Y-110059803D01*
X179570428Y-109946338D01*
X180054013Y-109623216D01*
X180377135Y-109139631D01*
X180490600Y-108569203D01*
X180490600Y-108510797D01*
X180377135Y-107940369D01*
X180060109Y-107465907D01*
X180095952Y-107459163D01*
X180309353Y-107321843D01*
X180452517Y-107112317D01*
X180502883Y-106863600D01*
X180502883Y-105136400D01*
X180459163Y-104904048D01*
X180321843Y-104690647D01*
X180112317Y-104547483D01*
X179863600Y-104497117D01*
X178502000Y-104497117D01*
X178502000Y-104450000D01*
X178444757Y-104162222D01*
X178281744Y-103918256D01*
X177311744Y-102948256D01*
X177067778Y-102785243D01*
X176780000Y-102728000D01*
X175879145Y-102728000D01*
X175845789Y-102694586D01*
X175505201Y-102553161D01*
X175136417Y-102552839D01*
X174795583Y-102693669D01*
X174534586Y-102954211D01*
X174393161Y-103294799D01*
X174393027Y-103448000D01*
X173349145Y-103448000D01*
X173315789Y-103414586D01*
X172975201Y-103273161D01*
X172606417Y-103272839D01*
X172265583Y-103413669D01*
X172004586Y-103674211D01*
X171863161Y-104014799D01*
X171862848Y-104373000D01*
X169927000Y-104373000D01*
X169927000Y-97050000D01*
X169787928Y-96350837D01*
X169391884Y-95758116D01*
X169285768Y-95652000D01*
X175649317Y-95652000D01*
X175775000Y-95677000D01*
X176397626Y-95553152D01*
X176925462Y-95200462D01*
X177278152Y-94672626D01*
X177402000Y-94050000D01*
X177388199Y-93980619D01*
X177436909Y-93931909D01*
X177681212Y-93566284D01*
X177709713Y-93423000D01*
X177767000Y-93135000D01*
X177767000Y-92079369D01*
X177910000Y-91865354D01*
X178125987Y-92188601D01*
X178609572Y-92511723D01*
X179180000Y-92625188D01*
X179750428Y-92511723D01*
X180234013Y-92188601D01*
X180557135Y-91705016D01*
X180670600Y-91134588D01*
X180670600Y-90765412D01*
X180557135Y-90194984D01*
X180387000Y-89940360D01*
X180387000Y-87403875D01*
X180691967Y-87200102D01*
X181044546Y-86672431D01*
X181168355Y-86050000D01*
X181044546Y-85427569D01*
X180691967Y-84899898D01*
X180164296Y-84547319D01*
X179541865Y-84423510D01*
X179478135Y-84423510D01*
X178855704Y-84547319D01*
X178328033Y-84899898D01*
X178240000Y-85031649D01*
X178151967Y-84899898D01*
X177624296Y-84547319D01*
X177001865Y-84423510D01*
X176938135Y-84423510D01*
X176315704Y-84547319D01*
X175788033Y-84899898D01*
X175700000Y-85031649D01*
X175611967Y-84899898D01*
X175084296Y-84547319D01*
X174461865Y-84423510D01*
X174398135Y-84423510D01*
X173775704Y-84547319D01*
X173450569Y-84764568D01*
X173347733Y-84604757D01*
X173138207Y-84461593D01*
X172889490Y-84411227D01*
X170890510Y-84411227D01*
X170658158Y-84454947D01*
X170444757Y-84592267D01*
X170301593Y-84801793D01*
X170251227Y-85050510D01*
X170251227Y-85712524D01*
X170194546Y-85427569D01*
X169841967Y-84899898D01*
X169314296Y-84547319D01*
X168691865Y-84423510D01*
X168628135Y-84423510D01*
X168005704Y-84547319D01*
X167478033Y-84899898D01*
X167390000Y-85031649D01*
X167301967Y-84899898D01*
X166774296Y-84547319D01*
X166151865Y-84423510D01*
X166088135Y-84423510D01*
X165465704Y-84547319D01*
X164938033Y-84899898D01*
X164850000Y-85031649D01*
X164761967Y-84899898D01*
X164234296Y-84547319D01*
X163611865Y-84423510D01*
X163548135Y-84423510D01*
X162925704Y-84547319D01*
X162600569Y-84764568D01*
X162497733Y-84604757D01*
X162288207Y-84461593D01*
X162039490Y-84411227D01*
X160040510Y-84411227D01*
X159808158Y-84454947D01*
X159594757Y-84592267D01*
X159451593Y-84801793D01*
X159401227Y-85050510D01*
X159112000Y-85050510D01*
X159112000Y-83452000D01*
X187438000Y-83452000D01*
X187438000Y-88336627D01*
G36*
X165398000Y-92146716D02*
X165398000Y-92858860D01*
X165374537Y-92874537D01*
X165208397Y-93040677D01*
X165100838Y-93062072D01*
X164508116Y-93458116D01*
X164112072Y-94050838D01*
X164097718Y-94123000D01*
X162741818Y-94123000D01*
X162527000Y-93908182D01*
X162527000Y-92541584D01*
X162709353Y-92424243D01*
X162852517Y-92214717D01*
X162864360Y-92156234D01*
X162885987Y-92188601D01*
X163369572Y-92511723D01*
X163940000Y-92625188D01*
X164510428Y-92511723D01*
X164994013Y-92188601D01*
X165210000Y-91865354D01*
X165398000Y-92146716D01*
X165398000Y-92146716D01*
G37*
X165398000Y-92146716D02*
X165398000Y-92858860D01*
X165374537Y-92874537D01*
X165208397Y-93040677D01*
X165100838Y-93062072D01*
X164508116Y-93458116D01*
X164112072Y-94050838D01*
X164097718Y-94123000D01*
X162741818Y-94123000D01*
X162527000Y-93908182D01*
X162527000Y-92541584D01*
X162709353Y-92424243D01*
X162852517Y-92214717D01*
X162864360Y-92156234D01*
X162885987Y-92188601D01*
X163369572Y-92511723D01*
X163940000Y-92625188D01*
X164510428Y-92511723D01*
X164994013Y-92188601D01*
X165210000Y-91865354D01*
X165398000Y-92146716D01*
G36*
X164938033Y-87200102D02*
X165353000Y-87477374D01*
X165353000Y-89820631D01*
X165210000Y-90034646D01*
X164994013Y-89711399D01*
X164817000Y-89593122D01*
X164817000Y-87117739D01*
X164850000Y-87068351D01*
X164938033Y-87200102D01*
X164938033Y-87200102D01*
G37*
X164938033Y-87200102D02*
X165353000Y-87477374D01*
X165353000Y-89820631D01*
X165210000Y-90034646D01*
X164994013Y-89711399D01*
X164817000Y-89593122D01*
X164817000Y-87117739D01*
X164850000Y-87068351D01*
X164938033Y-87200102D01*
G36*
X175788033Y-87200102D02*
X175843000Y-87236830D01*
X175843000Y-89539668D01*
X175585987Y-89711399D01*
X175370000Y-90034646D01*
X175154013Y-89711399D01*
X174977000Y-89593122D01*
X174977000Y-87574023D01*
X175084296Y-87552681D01*
X175611967Y-87200102D01*
X175700000Y-87068351D01*
X175788033Y-87200102D01*
X175788033Y-87200102D01*
G37*
X175788033Y-87200102D02*
X175843000Y-87236830D01*
X175843000Y-89539668D01*
X175585987Y-89711399D01*
X175370000Y-90034646D01*
X175154013Y-89711399D01*
X174977000Y-89593122D01*
X174977000Y-87574023D01*
X175084296Y-87552681D01*
X175611967Y-87200102D01*
X175700000Y-87068351D01*
X175788033Y-87200102D01*
G36*
X173223000Y-89593122D02*
X173045987Y-89711399D01*
X172830000Y-90034646D01*
X172687000Y-89820631D01*
X172687000Y-87688773D01*
X172889490Y-87688773D01*
X173121842Y-87645053D01*
X173223000Y-87579960D01*
X173223000Y-89593122D01*
X173223000Y-89593122D01*
G37*
X173223000Y-89593122D02*
X173045987Y-89711399D01*
X172830000Y-90034646D01*
X172687000Y-89820631D01*
X172687000Y-87688773D01*
X172889490Y-87688773D01*
X173121842Y-87645053D01*
X173223000Y-87579960D01*
X173223000Y-89593122D01*
G36*
X170251227Y-87049490D02*
X170294947Y-87281842D01*
X170432267Y-87495243D01*
X170433000Y-87495744D01*
X170433000Y-89820631D01*
X170290000Y-90034646D01*
X170074013Y-89711399D01*
X169897000Y-89593122D01*
X169897000Y-87117739D01*
X170194546Y-86672431D01*
X170251227Y-86387476D01*
X170251227Y-87049490D01*
X170251227Y-87049490D01*
G37*
X170251227Y-87049490D02*
X170294947Y-87281842D01*
X170432267Y-87495243D01*
X170433000Y-87495744D01*
X170433000Y-89820631D01*
X170290000Y-90034646D01*
X170074013Y-89711399D01*
X169897000Y-89593122D01*
X169897000Y-87117739D01*
X170194546Y-86672431D01*
X170251227Y-86387476D01*
X170251227Y-87049490D01*
G36*
X168005704Y-87552681D02*
X168143000Y-87579991D01*
X168143000Y-89593122D01*
X167965987Y-89711399D01*
X167750000Y-90034646D01*
X167607000Y-89820631D01*
X167607000Y-87286275D01*
X168005704Y-87552681D01*
X168005704Y-87552681D01*
G37*
X168005704Y-87552681D02*
X168143000Y-87579991D01*
X168143000Y-89593122D01*
X167965987Y-89711399D01*
X167750000Y-90034646D01*
X167607000Y-89820631D01*
X167607000Y-87286275D01*
X168005704Y-87552681D01*
G36*
X178328033Y-87200102D02*
X178633000Y-87403875D01*
X178633000Y-89383617D01*
X178609572Y-89388277D01*
X178125987Y-89711399D01*
X178097000Y-89754781D01*
X178097000Y-87236830D01*
X178151967Y-87200102D01*
X178240000Y-87068351D01*
X178328033Y-87200102D01*
X178328033Y-87200102D01*
G37*
X178328033Y-87200102D02*
X178633000Y-87403875D01*
X178633000Y-89383617D01*
X178609572Y-89388277D01*
X178125987Y-89711399D01*
X178097000Y-89754781D01*
X178097000Y-87236830D01*
X178151967Y-87200102D01*
X178240000Y-87068351D01*
X178328033Y-87200102D01*
G36*
X162925704Y-87552681D02*
X163063000Y-87579991D01*
X163063000Y-89593122D01*
X162885987Y-89711399D01*
X162866489Y-89740580D01*
X162859163Y-89701648D01*
X162721843Y-89488247D01*
X162512317Y-89345083D01*
X162263600Y-89294717D01*
X162167000Y-89294717D01*
X162167000Y-87664780D01*
X162271842Y-87645053D01*
X162485243Y-87507733D01*
X162602219Y-87336535D01*
X162925704Y-87552681D01*
X162925704Y-87552681D01*
G37*
X162925704Y-87552681D02*
X163063000Y-87579991D01*
X163063000Y-89593122D01*
X162885987Y-89711399D01*
X162866489Y-89740580D01*
X162859163Y-89701648D01*
X162721843Y-89488247D01*
X162512317Y-89345083D01*
X162263600Y-89294717D01*
X162167000Y-89294717D01*
X162167000Y-87664780D01*
X162271842Y-87645053D01*
X162485243Y-87507733D01*
X162602219Y-87336535D01*
X162925704Y-87552681D01*
M02*
