%FSLAX45Y45*%
G04 Gerber Fmt 4.5, Leading zero omitted, Abs format (unit mm)*
G04 Created by KiCad (PCBNEW 4.0.1-stable) date 08.03.2016 20:35:33*
%MOMM*%
G01*
G04 APERTURE LIST*
%ADD10C,0.127000*%
%ADD11C,0.010000*%
%ADD12C,0.200000*%
%ADD13C,0.300000*%
G04 APERTURE END LIST*
D10*
D11*
X15898000Y-11073000D02*
X18757000Y-11073000D01*
X18807000Y-8332000D02*
X18807000Y-11023000D01*
X15898000Y-8282000D02*
X18757000Y-8282000D01*
X15848000Y-11023000D02*
G75*
G03X15898000Y-11073000I50000J0D01*
G01*
X15898000Y-8282000D02*
G75*
G03X15848000Y-8332000I0J-50000D01*
G01*
X18807000Y-8332000D02*
G75*
G03X18757000Y-8282000I-50000J0D01*
G01*
X18757000Y-11073000D02*
G75*
G03X18807000Y-11023000I0J50000D01*
G01*
X15848000Y-8332000D02*
X15848000Y-11023000D01*
D12*
X15915000Y-10490000D02*
X15955000Y-10530000D01*
X15955000Y-10490000D02*
X15915000Y-10530000D01*
X15955000Y-10595000D02*
X15995000Y-10635000D01*
X15995000Y-10595000D02*
X15955000Y-10635000D01*
X15955000Y-10745000D02*
X15995000Y-10785000D01*
X15995000Y-10745000D02*
X15955000Y-10785000D01*
X15955000Y-10895000D02*
X15995000Y-10935000D01*
X15995000Y-10895000D02*
X15955000Y-10935000D01*
X15957000Y-9468000D02*
X15997000Y-9508000D01*
X15997000Y-9468000D02*
X15957000Y-9508000D01*
X16105000Y-10595000D02*
X16145000Y-10635000D01*
X16145000Y-10595000D02*
X16105000Y-10635000D01*
X16105000Y-10745000D02*
X16145000Y-10785000D01*
X16145000Y-10745000D02*
X16105000Y-10785000D01*
X16105000Y-10895000D02*
X16145000Y-10935000D01*
X16145000Y-10895000D02*
X16105000Y-10935000D01*
X16245000Y-8777500D02*
X16285000Y-8817500D01*
X16285000Y-8777500D02*
X16245000Y-8817500D01*
X16380000Y-9340000D02*
X16420000Y-9380000D01*
X16420000Y-9340000D02*
X16380000Y-9380000D01*
X16407000Y-9960000D02*
X16447000Y-10000000D01*
X16447000Y-9960000D02*
X16407000Y-10000000D01*
X16408000Y-10168000D02*
X16448000Y-10208000D01*
X16448000Y-10168000D02*
X16408000Y-10208000D01*
X16426000Y-8400000D02*
X16466000Y-8440000D01*
X16466000Y-8400000D02*
X16426000Y-8440000D01*
X16487500Y-8787500D02*
X16527500Y-8827500D01*
X16527500Y-8787500D02*
X16487500Y-8827500D01*
X16765000Y-8792500D02*
X16805000Y-8832500D01*
X16805000Y-8792500D02*
X16765000Y-8832500D01*
X16980000Y-8393000D02*
X17020000Y-8433000D01*
X17020000Y-8393000D02*
X16980000Y-8433000D01*
X17002500Y-8792500D02*
X17042500Y-8832500D01*
X17042500Y-8792500D02*
X17002500Y-8832500D01*
X17015000Y-9689000D02*
X17055000Y-9729000D01*
X17055000Y-9689000D02*
X17015000Y-9729000D01*
X17016000Y-10043000D02*
X17056000Y-10083000D01*
X17056000Y-10043000D02*
X17016000Y-10083000D01*
X17259000Y-10400000D02*
X17299000Y-10440000D01*
X17299000Y-10400000D02*
X17259000Y-10440000D01*
X17275000Y-8792500D02*
X17315000Y-8832500D01*
X17315000Y-8792500D02*
X17275000Y-8832500D01*
X17512000Y-10328000D02*
X17552000Y-10368000D01*
X17552000Y-10328000D02*
X17512000Y-10368000D01*
X17530000Y-8780000D02*
X17570000Y-8820000D01*
X17570000Y-8780000D02*
X17530000Y-8820000D01*
X17544000Y-8385000D02*
X17584000Y-8425000D01*
X17584000Y-8385000D02*
X17544000Y-8425000D01*
X17625000Y-9628000D02*
X17665000Y-9668000D01*
X17665000Y-9628000D02*
X17625000Y-9668000D01*
X17752000Y-9456000D02*
X17792000Y-9496000D01*
X17792000Y-9456000D02*
X17752000Y-9496000D01*
X17817500Y-8775000D02*
X17857500Y-8815000D01*
X17857500Y-8775000D02*
X17817500Y-8815000D01*
X18075000Y-9305000D02*
X18115000Y-9345000D01*
X18115000Y-9305000D02*
X18075000Y-9345000D01*
X18079000Y-9477000D02*
X18119000Y-9517000D01*
X18119000Y-9477000D02*
X18079000Y-9517000D01*
X18260000Y-10510000D02*
X18300000Y-10550000D01*
X18300000Y-10510000D02*
X18260000Y-10550000D01*
X18420000Y-10155000D02*
X18460000Y-10195000D01*
X18460000Y-10155000D02*
X18420000Y-10195000D01*
X18560000Y-10510000D02*
X18600000Y-10550000D01*
X18600000Y-10510000D02*
X18560000Y-10550000D01*
X18580000Y-10165000D02*
X18620000Y-10205000D01*
X18620000Y-10165000D02*
X18580000Y-10205000D01*
X16190800Y-9095000D02*
G75*
G03X16190800Y-9095000I-50800J0D01*
G01*
X16426800Y-10600000D02*
G75*
G03X16426800Y-10600000I-50800J0D01*
G01*
X16426800Y-10854000D02*
G75*
G03X16426800Y-10854000I-50800J0D01*
G01*
X16444800Y-9095000D02*
G75*
G03X16444800Y-9095000I-50800J0D01*
G01*
X16680800Y-10600000D02*
G75*
G03X16680800Y-10600000I-50800J0D01*
G01*
X16680800Y-10854000D02*
G75*
G03X16680800Y-10854000I-50800J0D01*
G01*
X16698800Y-9095000D02*
G75*
G03X16698800Y-9095000I-50800J0D01*
G01*
X16934800Y-10600000D02*
G75*
G03X16934800Y-10600000I-50800J0D01*
G01*
X16934800Y-10854000D02*
G75*
G03X16934800Y-10854000I-50800J0D01*
G01*
X16952800Y-9095000D02*
G75*
G03X16952800Y-9095000I-50800J0D01*
G01*
X17188800Y-10600000D02*
G75*
G03X17188800Y-10600000I-50800J0D01*
G01*
X17188800Y-10854000D02*
G75*
G03X17188800Y-10854000I-50800J0D01*
G01*
X17206800Y-9095000D02*
G75*
G03X17206800Y-9095000I-50800J0D01*
G01*
X17442800Y-10600000D02*
G75*
G03X17442800Y-10600000I-50800J0D01*
G01*
X17442800Y-10854000D02*
G75*
G03X17442800Y-10854000I-50800J0D01*
G01*
X17460800Y-9095000D02*
G75*
G03X17460800Y-9095000I-50800J0D01*
G01*
X17696800Y-10600000D02*
G75*
G03X17696800Y-10600000I-50800J0D01*
G01*
X17696800Y-10854000D02*
G75*
G03X17696800Y-10854000I-50800J0D01*
G01*
X17714800Y-9095000D02*
G75*
G03X17714800Y-9095000I-50800J0D01*
G01*
X17950800Y-10600000D02*
G75*
G03X17950800Y-10600000I-50800J0D01*
G01*
X17950800Y-10854000D02*
G75*
G03X17950800Y-10854000I-50800J0D01*
G01*
X17968800Y-9095000D02*
G75*
G03X17968800Y-9095000I-50800J0D01*
G01*
X16104000Y-8560136D02*
X16104000Y-8669864D01*
X16049136Y-8615000D02*
X16158864Y-8615000D01*
X16358000Y-8560136D02*
X16358000Y-8669864D01*
X16303136Y-8615000D02*
X16412864Y-8615000D01*
X16612000Y-8560136D02*
X16612000Y-8669864D01*
X16557136Y-8615000D02*
X16666864Y-8615000D01*
X16866000Y-8560136D02*
X16866000Y-8669864D01*
X16811136Y-8615000D02*
X16920864Y-8615000D01*
X17189000Y-8560136D02*
X17189000Y-8669864D01*
X17134136Y-8615000D02*
X17243864Y-8615000D01*
X17443000Y-8560136D02*
X17443000Y-8669864D01*
X17388136Y-8615000D02*
X17497864Y-8615000D01*
X17697000Y-8560136D02*
X17697000Y-8669864D01*
X17642136Y-8615000D02*
X17751864Y-8615000D01*
X17951000Y-8560136D02*
X17951000Y-8669864D01*
X17896136Y-8615000D02*
X18005864Y-8615000D01*
X18560745Y-9033745D02*
X18560745Y-8786255D01*
X18313255Y-8786255D01*
X18313255Y-9033745D01*
X18560745Y-9033745D01*
D13*
X16118928Y-11539214D02*
X16118928Y-11239214D01*
X16190357Y-11239214D01*
X16233214Y-11253500D01*
X16261786Y-11282071D01*
X16276071Y-11310643D01*
X16290357Y-11367786D01*
X16290357Y-11410643D01*
X16276071Y-11467786D01*
X16261786Y-11496357D01*
X16233214Y-11524929D01*
X16190357Y-11539214D01*
X16118928Y-11539214D01*
X16418928Y-11539214D02*
X16418928Y-11339214D01*
X16418928Y-11396357D02*
X16433214Y-11367786D01*
X16447500Y-11353500D01*
X16476071Y-11339214D01*
X16504643Y-11339214D01*
X16604643Y-11539214D02*
X16604643Y-11339214D01*
X16604643Y-11239214D02*
X16590357Y-11253500D01*
X16604643Y-11267786D01*
X16618928Y-11253500D01*
X16604643Y-11239214D01*
X16604643Y-11267786D01*
X16790357Y-11539214D02*
X16761786Y-11524929D01*
X16747500Y-11496357D01*
X16747500Y-11239214D01*
X16947500Y-11539214D02*
X16918929Y-11524929D01*
X16904643Y-11496357D01*
X16904643Y-11239214D01*
X17290357Y-11539214D02*
X17290357Y-11239214D01*
X17390357Y-11453500D01*
X17490357Y-11239214D01*
X17490357Y-11539214D01*
X17761786Y-11539214D02*
X17761786Y-11382071D01*
X17747500Y-11353500D01*
X17718929Y-11339214D01*
X17661786Y-11339214D01*
X17633214Y-11353500D01*
X17761786Y-11524929D02*
X17733214Y-11539214D01*
X17661786Y-11539214D01*
X17633214Y-11524929D01*
X17618929Y-11496357D01*
X17618929Y-11467786D01*
X17633214Y-11439214D01*
X17661786Y-11424929D01*
X17733214Y-11424929D01*
X17761786Y-11410643D01*
X17904643Y-11339214D02*
X17904643Y-11639214D01*
X17904643Y-11353500D02*
X17933214Y-11339214D01*
X17990357Y-11339214D01*
X18018929Y-11353500D01*
X18033214Y-11367786D01*
X18047500Y-11396357D01*
X18047500Y-11482071D01*
X18033214Y-11510643D01*
X18018929Y-11524929D01*
X17990357Y-11539214D01*
X17933214Y-11539214D01*
X17904643Y-11524929D01*
X18176071Y-11510643D02*
X18190357Y-11524929D01*
X18176071Y-11539214D01*
X18161786Y-11524929D01*
X18176071Y-11510643D01*
X18176071Y-11539214D01*
X18176071Y-11353500D02*
X18190357Y-11367786D01*
X18176071Y-11382071D01*
X18161786Y-11367786D01*
X18176071Y-11353500D01*
X18176071Y-11382071D01*
X15807500Y-12013500D02*
X15847500Y-12053500D01*
X15847500Y-12013500D02*
X15807500Y-12053500D01*
X16176071Y-11869214D02*
X16204643Y-11869214D01*
X16233214Y-11883500D01*
X16247500Y-11897786D01*
X16261786Y-11926357D01*
X16276071Y-11983500D01*
X16276071Y-12054929D01*
X16261786Y-12112071D01*
X16247500Y-12140643D01*
X16233214Y-12154929D01*
X16204643Y-12169214D01*
X16176071Y-12169214D01*
X16147500Y-12154929D01*
X16133214Y-12140643D01*
X16118928Y-12112071D01*
X16104643Y-12054929D01*
X16104643Y-11983500D01*
X16118928Y-11926357D01*
X16133214Y-11897786D01*
X16147500Y-11883500D01*
X16176071Y-11869214D01*
X16404643Y-12140643D02*
X16418928Y-12154929D01*
X16404643Y-12169214D01*
X16390357Y-12154929D01*
X16404643Y-12140643D01*
X16404643Y-12169214D01*
X16676071Y-11969214D02*
X16676071Y-12169214D01*
X16604643Y-11854929D02*
X16533214Y-12069214D01*
X16718928Y-12069214D01*
X16890357Y-11869214D02*
X16918929Y-11869214D01*
X16947500Y-11883500D01*
X16961786Y-11897786D01*
X16976071Y-11926357D01*
X16990357Y-11983500D01*
X16990357Y-12054929D01*
X16976071Y-12112071D01*
X16961786Y-12140643D01*
X16947500Y-12154929D01*
X16918929Y-12169214D01*
X16890357Y-12169214D01*
X16861786Y-12154929D01*
X16847500Y-12140643D01*
X16833214Y-12112071D01*
X16818929Y-12054929D01*
X16818929Y-11983500D01*
X16833214Y-11926357D01*
X16847500Y-11897786D01*
X16861786Y-11883500D01*
X16890357Y-11869214D01*
X17118929Y-12169214D02*
X17118929Y-11969214D01*
X17118929Y-11997786D02*
X17133214Y-11983500D01*
X17161786Y-11969214D01*
X17204643Y-11969214D01*
X17233214Y-11983500D01*
X17247500Y-12012071D01*
X17247500Y-12169214D01*
X17247500Y-12012071D02*
X17261786Y-11983500D01*
X17290357Y-11969214D01*
X17333214Y-11969214D01*
X17361786Y-11983500D01*
X17376071Y-12012071D01*
X17376071Y-12169214D01*
X17518929Y-12169214D02*
X17518929Y-11969214D01*
X17518929Y-11997786D02*
X17533214Y-11983500D01*
X17561786Y-11969214D01*
X17604643Y-11969214D01*
X17633214Y-11983500D01*
X17647500Y-12012071D01*
X17647500Y-12169214D01*
X17647500Y-12012071D02*
X17661786Y-11983500D01*
X17690357Y-11969214D01*
X17733214Y-11969214D01*
X17761786Y-11983500D01*
X17776071Y-12012071D01*
X17776071Y-12169214D01*
X18361786Y-11854929D02*
X18104643Y-12240643D01*
X18747500Y-11869214D02*
X18776071Y-11869214D01*
X18804643Y-11883500D01*
X18818928Y-11897786D01*
X18833214Y-11926357D01*
X18847500Y-11983500D01*
X18847500Y-12054929D01*
X18833214Y-12112071D01*
X18818928Y-12140643D01*
X18804643Y-12154929D01*
X18776071Y-12169214D01*
X18747500Y-12169214D01*
X18718928Y-12154929D01*
X18704643Y-12140643D01*
X18690357Y-12112071D01*
X18676071Y-12054929D01*
X18676071Y-11983500D01*
X18690357Y-11926357D01*
X18704643Y-11897786D01*
X18718928Y-11883500D01*
X18747500Y-11869214D01*
X18976071Y-12140643D02*
X18990357Y-12154929D01*
X18976071Y-12169214D01*
X18961786Y-12154929D01*
X18976071Y-12140643D01*
X18976071Y-12169214D01*
X19176071Y-11869214D02*
X19204643Y-11869214D01*
X19233214Y-11883500D01*
X19247500Y-11897786D01*
X19261786Y-11926357D01*
X19276071Y-11983500D01*
X19276071Y-12054929D01*
X19261786Y-12112071D01*
X19247500Y-12140643D01*
X19233214Y-12154929D01*
X19204643Y-12169214D01*
X19176071Y-12169214D01*
X19147500Y-12154929D01*
X19133214Y-12140643D01*
X19118928Y-12112071D01*
X19104643Y-12054929D01*
X19104643Y-11983500D01*
X19118928Y-11926357D01*
X19133214Y-11897786D01*
X19147500Y-11883500D01*
X19176071Y-11869214D01*
X19561786Y-12169214D02*
X19390357Y-12169214D01*
X19476071Y-12169214D02*
X19476071Y-11869214D01*
X19447500Y-11912071D01*
X19418928Y-11940643D01*
X19390357Y-11954929D01*
X19818928Y-11869214D02*
X19761786Y-11869214D01*
X19733214Y-11883500D01*
X19718928Y-11897786D01*
X19690357Y-11940643D01*
X19676071Y-11997786D01*
X19676071Y-12112071D01*
X19690357Y-12140643D01*
X19704643Y-12154929D01*
X19733214Y-12169214D01*
X19790357Y-12169214D01*
X19818928Y-12154929D01*
X19833214Y-12140643D01*
X19847500Y-12112071D01*
X19847500Y-12040643D01*
X19833214Y-12012071D01*
X19818928Y-11997786D01*
X19790357Y-11983500D01*
X19733214Y-11983500D01*
X19704643Y-11997786D01*
X19690357Y-12012071D01*
X19676071Y-12040643D01*
X19961786Y-11869214D02*
X19961786Y-11926357D01*
X20076071Y-11869214D02*
X20076071Y-11926357D01*
X20518928Y-12283500D02*
X20504643Y-12269214D01*
X20476071Y-12226357D01*
X20461786Y-12197786D01*
X20447500Y-12154929D01*
X20433214Y-12083500D01*
X20433214Y-12026357D01*
X20447500Y-11954929D01*
X20461786Y-11912071D01*
X20476071Y-11883500D01*
X20504643Y-11840643D01*
X20518928Y-11826357D01*
X20604643Y-11869214D02*
X20790357Y-11869214D01*
X20690357Y-11983500D01*
X20733214Y-11983500D01*
X20761786Y-11997786D01*
X20776071Y-12012071D01*
X20790357Y-12040643D01*
X20790357Y-12112071D01*
X20776071Y-12140643D01*
X20761786Y-12154929D01*
X20733214Y-12169214D01*
X20647500Y-12169214D01*
X20618928Y-12154929D01*
X20604643Y-12140643D01*
X20890357Y-11869214D02*
X21076071Y-11869214D01*
X20976071Y-11983500D01*
X21018928Y-11983500D01*
X21047500Y-11997786D01*
X21061786Y-12012071D01*
X21076071Y-12040643D01*
X21076071Y-12112071D01*
X21061786Y-12140643D01*
X21047500Y-12154929D01*
X21018928Y-12169214D01*
X20933214Y-12169214D01*
X20904643Y-12154929D01*
X20890357Y-12140643D01*
X21433214Y-12169214D02*
X21433214Y-11869214D01*
X21561786Y-12169214D02*
X21561786Y-12012071D01*
X21547500Y-11983500D01*
X21518928Y-11969214D01*
X21476071Y-11969214D01*
X21447500Y-11983500D01*
X21433214Y-11997786D01*
X21747500Y-12169214D02*
X21718928Y-12154929D01*
X21704643Y-12140643D01*
X21690357Y-12112071D01*
X21690357Y-12026357D01*
X21704643Y-11997786D01*
X21718928Y-11983500D01*
X21747500Y-11969214D01*
X21790357Y-11969214D01*
X21818928Y-11983500D01*
X21833214Y-11997786D01*
X21847500Y-12026357D01*
X21847500Y-12112071D01*
X21833214Y-12140643D01*
X21818928Y-12154929D01*
X21790357Y-12169214D01*
X21747500Y-12169214D01*
X22018928Y-12169214D02*
X21990357Y-12154929D01*
X21976071Y-12126357D01*
X21976071Y-11869214D01*
X22247500Y-12154929D02*
X22218929Y-12169214D01*
X22161786Y-12169214D01*
X22133214Y-12154929D01*
X22118929Y-12126357D01*
X22118929Y-12012071D01*
X22133214Y-11983500D01*
X22161786Y-11969214D01*
X22218929Y-11969214D01*
X22247500Y-11983500D01*
X22261786Y-12012071D01*
X22261786Y-12040643D01*
X22118929Y-12069214D01*
X22376071Y-12154929D02*
X22404643Y-12169214D01*
X22461786Y-12169214D01*
X22490357Y-12154929D01*
X22504643Y-12126357D01*
X22504643Y-12112071D01*
X22490357Y-12083500D01*
X22461786Y-12069214D01*
X22418928Y-12069214D01*
X22390357Y-12054929D01*
X22376071Y-12026357D01*
X22376071Y-12012071D01*
X22390357Y-11983500D01*
X22418928Y-11969214D01*
X22461786Y-11969214D01*
X22490357Y-11983500D01*
X22604643Y-12283500D02*
X22618928Y-12269214D01*
X22647500Y-12226357D01*
X22661786Y-12197786D01*
X22676071Y-12154929D01*
X22690357Y-12083500D01*
X22690357Y-12026357D01*
X22676071Y-11954929D01*
X22661786Y-11912071D01*
X22647500Y-11883500D01*
X22618928Y-11840643D01*
X22604643Y-11826357D01*
X15847500Y-12429500D02*
G75*
G03X15847500Y-12429500I-50800J0D01*
G01*
X16276071Y-12565214D02*
X16104643Y-12565214D01*
X16190357Y-12565214D02*
X16190357Y-12265214D01*
X16161786Y-12308071D01*
X16133214Y-12336643D01*
X16104643Y-12350929D01*
X16404643Y-12536643D02*
X16418928Y-12550929D01*
X16404643Y-12565214D01*
X16390357Y-12550929D01*
X16404643Y-12536643D01*
X16404643Y-12565214D01*
X16604643Y-12265214D02*
X16633214Y-12265214D01*
X16661786Y-12279500D01*
X16676071Y-12293786D01*
X16690357Y-12322357D01*
X16704643Y-12379500D01*
X16704643Y-12450929D01*
X16690357Y-12508071D01*
X16676071Y-12536643D01*
X16661786Y-12550929D01*
X16633214Y-12565214D01*
X16604643Y-12565214D01*
X16576071Y-12550929D01*
X16561786Y-12536643D01*
X16547500Y-12508071D01*
X16533214Y-12450929D01*
X16533214Y-12379500D01*
X16547500Y-12322357D01*
X16561786Y-12293786D01*
X16576071Y-12279500D01*
X16604643Y-12265214D01*
X16818929Y-12293786D02*
X16833214Y-12279500D01*
X16861786Y-12265214D01*
X16933214Y-12265214D01*
X16961786Y-12279500D01*
X16976071Y-12293786D01*
X16990357Y-12322357D01*
X16990357Y-12350929D01*
X16976071Y-12393786D01*
X16804643Y-12565214D01*
X16990357Y-12565214D01*
X17118929Y-12565214D02*
X17118929Y-12365214D01*
X17118929Y-12393786D02*
X17133214Y-12379500D01*
X17161786Y-12365214D01*
X17204643Y-12365214D01*
X17233214Y-12379500D01*
X17247500Y-12408071D01*
X17247500Y-12565214D01*
X17247500Y-12408071D02*
X17261786Y-12379500D01*
X17290357Y-12365214D01*
X17333214Y-12365214D01*
X17361786Y-12379500D01*
X17376071Y-12408071D01*
X17376071Y-12565214D01*
X17518929Y-12565214D02*
X17518929Y-12365214D01*
X17518929Y-12393786D02*
X17533214Y-12379500D01*
X17561786Y-12365214D01*
X17604643Y-12365214D01*
X17633214Y-12379500D01*
X17647500Y-12408071D01*
X17647500Y-12565214D01*
X17647500Y-12408071D02*
X17661786Y-12379500D01*
X17690357Y-12365214D01*
X17733214Y-12365214D01*
X17761786Y-12379500D01*
X17776071Y-12408071D01*
X17776071Y-12565214D01*
X18361786Y-12250929D02*
X18104643Y-12636643D01*
X18747500Y-12265214D02*
X18776071Y-12265214D01*
X18804643Y-12279500D01*
X18818928Y-12293786D01*
X18833214Y-12322357D01*
X18847500Y-12379500D01*
X18847500Y-12450929D01*
X18833214Y-12508071D01*
X18818928Y-12536643D01*
X18804643Y-12550929D01*
X18776071Y-12565214D01*
X18747500Y-12565214D01*
X18718928Y-12550929D01*
X18704643Y-12536643D01*
X18690357Y-12508071D01*
X18676071Y-12450929D01*
X18676071Y-12379500D01*
X18690357Y-12322357D01*
X18704643Y-12293786D01*
X18718928Y-12279500D01*
X18747500Y-12265214D01*
X18976071Y-12536643D02*
X18990357Y-12550929D01*
X18976071Y-12565214D01*
X18961786Y-12550929D01*
X18976071Y-12536643D01*
X18976071Y-12565214D01*
X19176071Y-12265214D02*
X19204643Y-12265214D01*
X19233214Y-12279500D01*
X19247500Y-12293786D01*
X19261786Y-12322357D01*
X19276071Y-12379500D01*
X19276071Y-12450929D01*
X19261786Y-12508071D01*
X19247500Y-12536643D01*
X19233214Y-12550929D01*
X19204643Y-12565214D01*
X19176071Y-12565214D01*
X19147500Y-12550929D01*
X19133214Y-12536643D01*
X19118928Y-12508071D01*
X19104643Y-12450929D01*
X19104643Y-12379500D01*
X19118928Y-12322357D01*
X19133214Y-12293786D01*
X19147500Y-12279500D01*
X19176071Y-12265214D01*
X19533214Y-12365214D02*
X19533214Y-12565214D01*
X19461786Y-12250929D02*
X19390357Y-12465214D01*
X19576071Y-12465214D01*
X19747500Y-12265214D02*
X19776071Y-12265214D01*
X19804643Y-12279500D01*
X19818928Y-12293786D01*
X19833214Y-12322357D01*
X19847500Y-12379500D01*
X19847500Y-12450929D01*
X19833214Y-12508071D01*
X19818928Y-12536643D01*
X19804643Y-12550929D01*
X19776071Y-12565214D01*
X19747500Y-12565214D01*
X19718928Y-12550929D01*
X19704643Y-12536643D01*
X19690357Y-12508071D01*
X19676071Y-12450929D01*
X19676071Y-12379500D01*
X19690357Y-12322357D01*
X19704643Y-12293786D01*
X19718928Y-12279500D01*
X19747500Y-12265214D01*
X19961786Y-12265214D02*
X19961786Y-12322357D01*
X20076071Y-12265214D02*
X20076071Y-12322357D01*
X20518928Y-12679500D02*
X20504643Y-12665214D01*
X20476071Y-12622357D01*
X20461786Y-12593786D01*
X20447500Y-12550929D01*
X20433214Y-12479500D01*
X20433214Y-12422357D01*
X20447500Y-12350929D01*
X20461786Y-12308071D01*
X20476071Y-12279500D01*
X20504643Y-12236643D01*
X20518928Y-12222357D01*
X20618928Y-12293786D02*
X20633214Y-12279500D01*
X20661786Y-12265214D01*
X20733214Y-12265214D01*
X20761786Y-12279500D01*
X20776071Y-12293786D01*
X20790357Y-12322357D01*
X20790357Y-12350929D01*
X20776071Y-12393786D01*
X20604643Y-12565214D01*
X20790357Y-12565214D01*
X20904643Y-12293786D02*
X20918928Y-12279500D01*
X20947500Y-12265214D01*
X21018928Y-12265214D01*
X21047500Y-12279500D01*
X21061786Y-12293786D01*
X21076071Y-12322357D01*
X21076071Y-12350929D01*
X21061786Y-12393786D01*
X20890357Y-12565214D01*
X21076071Y-12565214D01*
X21433214Y-12565214D02*
X21433214Y-12265214D01*
X21561786Y-12565214D02*
X21561786Y-12408071D01*
X21547500Y-12379500D01*
X21518928Y-12365214D01*
X21476071Y-12365214D01*
X21447500Y-12379500D01*
X21433214Y-12393786D01*
X21747500Y-12565214D02*
X21718928Y-12550929D01*
X21704643Y-12536643D01*
X21690357Y-12508071D01*
X21690357Y-12422357D01*
X21704643Y-12393786D01*
X21718928Y-12379500D01*
X21747500Y-12365214D01*
X21790357Y-12365214D01*
X21818928Y-12379500D01*
X21833214Y-12393786D01*
X21847500Y-12422357D01*
X21847500Y-12508071D01*
X21833214Y-12536643D01*
X21818928Y-12550929D01*
X21790357Y-12565214D01*
X21747500Y-12565214D01*
X22018928Y-12565214D02*
X21990357Y-12550929D01*
X21976071Y-12522357D01*
X21976071Y-12265214D01*
X22247500Y-12550929D02*
X22218929Y-12565214D01*
X22161786Y-12565214D01*
X22133214Y-12550929D01*
X22118929Y-12522357D01*
X22118929Y-12408071D01*
X22133214Y-12379500D01*
X22161786Y-12365214D01*
X22218929Y-12365214D01*
X22247500Y-12379500D01*
X22261786Y-12408071D01*
X22261786Y-12436643D01*
X22118929Y-12465214D01*
X22376071Y-12550929D02*
X22404643Y-12565214D01*
X22461786Y-12565214D01*
X22490357Y-12550929D01*
X22504643Y-12522357D01*
X22504643Y-12508071D01*
X22490357Y-12479500D01*
X22461786Y-12465214D01*
X22418928Y-12465214D01*
X22390357Y-12450929D01*
X22376071Y-12422357D01*
X22376071Y-12408071D01*
X22390357Y-12379500D01*
X22418928Y-12365214D01*
X22461786Y-12365214D01*
X22490357Y-12379500D01*
X22604643Y-12679500D02*
X22618928Y-12665214D01*
X22647500Y-12622357D01*
X22661786Y-12593786D01*
X22676071Y-12550929D01*
X22690357Y-12479500D01*
X22690357Y-12422357D01*
X22676071Y-12350929D01*
X22661786Y-12308071D01*
X22647500Y-12279500D01*
X22618928Y-12236643D01*
X22604643Y-12222357D01*
X15792636Y-12770636D02*
X15792636Y-12880364D01*
X15737772Y-12825500D02*
X15847500Y-12825500D01*
X16276071Y-12961214D02*
X16104643Y-12961214D01*
X16190357Y-12961214D02*
X16190357Y-12661214D01*
X16161786Y-12704071D01*
X16133214Y-12732643D01*
X16104643Y-12746929D01*
X16404643Y-12932643D02*
X16418928Y-12946929D01*
X16404643Y-12961214D01*
X16390357Y-12946929D01*
X16404643Y-12932643D01*
X16404643Y-12961214D01*
X16704643Y-12961214D02*
X16533214Y-12961214D01*
X16618928Y-12961214D02*
X16618928Y-12661214D01*
X16590357Y-12704071D01*
X16561786Y-12732643D01*
X16533214Y-12746929D01*
X16890357Y-12661214D02*
X16918929Y-12661214D01*
X16947500Y-12675500D01*
X16961786Y-12689786D01*
X16976071Y-12718357D01*
X16990357Y-12775500D01*
X16990357Y-12846929D01*
X16976071Y-12904071D01*
X16961786Y-12932643D01*
X16947500Y-12946929D01*
X16918929Y-12961214D01*
X16890357Y-12961214D01*
X16861786Y-12946929D01*
X16847500Y-12932643D01*
X16833214Y-12904071D01*
X16818929Y-12846929D01*
X16818929Y-12775500D01*
X16833214Y-12718357D01*
X16847500Y-12689786D01*
X16861786Y-12675500D01*
X16890357Y-12661214D01*
X17118929Y-12961214D02*
X17118929Y-12761214D01*
X17118929Y-12789786D02*
X17133214Y-12775500D01*
X17161786Y-12761214D01*
X17204643Y-12761214D01*
X17233214Y-12775500D01*
X17247500Y-12804071D01*
X17247500Y-12961214D01*
X17247500Y-12804071D02*
X17261786Y-12775500D01*
X17290357Y-12761214D01*
X17333214Y-12761214D01*
X17361786Y-12775500D01*
X17376071Y-12804071D01*
X17376071Y-12961214D01*
X17518929Y-12961214D02*
X17518929Y-12761214D01*
X17518929Y-12789786D02*
X17533214Y-12775500D01*
X17561786Y-12761214D01*
X17604643Y-12761214D01*
X17633214Y-12775500D01*
X17647500Y-12804071D01*
X17647500Y-12961214D01*
X17647500Y-12804071D02*
X17661786Y-12775500D01*
X17690357Y-12761214D01*
X17733214Y-12761214D01*
X17761786Y-12775500D01*
X17776071Y-12804071D01*
X17776071Y-12961214D01*
X18361786Y-12646929D02*
X18104643Y-13032643D01*
X18747500Y-12661214D02*
X18776071Y-12661214D01*
X18804643Y-12675500D01*
X18818928Y-12689786D01*
X18833214Y-12718357D01*
X18847500Y-12775500D01*
X18847500Y-12846929D01*
X18833214Y-12904071D01*
X18818928Y-12932643D01*
X18804643Y-12946929D01*
X18776071Y-12961214D01*
X18747500Y-12961214D01*
X18718928Y-12946929D01*
X18704643Y-12932643D01*
X18690357Y-12904071D01*
X18676071Y-12846929D01*
X18676071Y-12775500D01*
X18690357Y-12718357D01*
X18704643Y-12689786D01*
X18718928Y-12675500D01*
X18747500Y-12661214D01*
X18976071Y-12932643D02*
X18990357Y-12946929D01*
X18976071Y-12961214D01*
X18961786Y-12946929D01*
X18976071Y-12932643D01*
X18976071Y-12961214D01*
X19176071Y-12661214D02*
X19204643Y-12661214D01*
X19233214Y-12675500D01*
X19247500Y-12689786D01*
X19261786Y-12718357D01*
X19276071Y-12775500D01*
X19276071Y-12846929D01*
X19261786Y-12904071D01*
X19247500Y-12932643D01*
X19233214Y-12946929D01*
X19204643Y-12961214D01*
X19176071Y-12961214D01*
X19147500Y-12946929D01*
X19133214Y-12932643D01*
X19118928Y-12904071D01*
X19104643Y-12846929D01*
X19104643Y-12775500D01*
X19118928Y-12718357D01*
X19133214Y-12689786D01*
X19147500Y-12675500D01*
X19176071Y-12661214D01*
X19533214Y-12761214D02*
X19533214Y-12961214D01*
X19461786Y-12646929D02*
X19390357Y-12861214D01*
X19576071Y-12861214D01*
X19661786Y-12661214D02*
X19847500Y-12661214D01*
X19747500Y-12775500D01*
X19790357Y-12775500D01*
X19818928Y-12789786D01*
X19833214Y-12804071D01*
X19847500Y-12832643D01*
X19847500Y-12904071D01*
X19833214Y-12932643D01*
X19818928Y-12946929D01*
X19790357Y-12961214D01*
X19704643Y-12961214D01*
X19676071Y-12946929D01*
X19661786Y-12932643D01*
X19961786Y-12661214D02*
X19961786Y-12718357D01*
X20076071Y-12661214D02*
X20076071Y-12718357D01*
X20518928Y-13075500D02*
X20504643Y-13061214D01*
X20476071Y-13018357D01*
X20461786Y-12989786D01*
X20447500Y-12946929D01*
X20433214Y-12875500D01*
X20433214Y-12818357D01*
X20447500Y-12746929D01*
X20461786Y-12704071D01*
X20476071Y-12675500D01*
X20504643Y-12632643D01*
X20518928Y-12618357D01*
X20676071Y-12789786D02*
X20647500Y-12775500D01*
X20633214Y-12761214D01*
X20618928Y-12732643D01*
X20618928Y-12718357D01*
X20633214Y-12689786D01*
X20647500Y-12675500D01*
X20676071Y-12661214D01*
X20733214Y-12661214D01*
X20761786Y-12675500D01*
X20776071Y-12689786D01*
X20790357Y-12718357D01*
X20790357Y-12732643D01*
X20776071Y-12761214D01*
X20761786Y-12775500D01*
X20733214Y-12789786D01*
X20676071Y-12789786D01*
X20647500Y-12804071D01*
X20633214Y-12818357D01*
X20618928Y-12846929D01*
X20618928Y-12904071D01*
X20633214Y-12932643D01*
X20647500Y-12946929D01*
X20676071Y-12961214D01*
X20733214Y-12961214D01*
X20761786Y-12946929D01*
X20776071Y-12932643D01*
X20790357Y-12904071D01*
X20790357Y-12846929D01*
X20776071Y-12818357D01*
X20761786Y-12804071D01*
X20733214Y-12789786D01*
X21147500Y-12961214D02*
X21147500Y-12661214D01*
X21276071Y-12961214D02*
X21276071Y-12804071D01*
X21261786Y-12775500D01*
X21233214Y-12761214D01*
X21190357Y-12761214D01*
X21161786Y-12775500D01*
X21147500Y-12789786D01*
X21461786Y-12961214D02*
X21433214Y-12946929D01*
X21418928Y-12932643D01*
X21404643Y-12904071D01*
X21404643Y-12818357D01*
X21418928Y-12789786D01*
X21433214Y-12775500D01*
X21461786Y-12761214D01*
X21504643Y-12761214D01*
X21533214Y-12775500D01*
X21547500Y-12789786D01*
X21561786Y-12818357D01*
X21561786Y-12904071D01*
X21547500Y-12932643D01*
X21533214Y-12946929D01*
X21504643Y-12961214D01*
X21461786Y-12961214D01*
X21733214Y-12961214D02*
X21704643Y-12946929D01*
X21690357Y-12918357D01*
X21690357Y-12661214D01*
X21961786Y-12946929D02*
X21933214Y-12961214D01*
X21876071Y-12961214D01*
X21847500Y-12946929D01*
X21833214Y-12918357D01*
X21833214Y-12804071D01*
X21847500Y-12775500D01*
X21876071Y-12761214D01*
X21933214Y-12761214D01*
X21961786Y-12775500D01*
X21976071Y-12804071D01*
X21976071Y-12832643D01*
X21833214Y-12861214D01*
X22090357Y-12946929D02*
X22118929Y-12961214D01*
X22176071Y-12961214D01*
X22204643Y-12946929D01*
X22218929Y-12918357D01*
X22218929Y-12904071D01*
X22204643Y-12875500D01*
X22176071Y-12861214D01*
X22133214Y-12861214D01*
X22104643Y-12846929D01*
X22090357Y-12818357D01*
X22090357Y-12804071D01*
X22104643Y-12775500D01*
X22133214Y-12761214D01*
X22176071Y-12761214D01*
X22204643Y-12775500D01*
X22318928Y-13075500D02*
X22333214Y-13061214D01*
X22361786Y-13018357D01*
X22376071Y-12989786D01*
X22390357Y-12946929D01*
X22404643Y-12875500D01*
X22404643Y-12818357D01*
X22390357Y-12746929D01*
X22376071Y-12704071D01*
X22361786Y-12675500D01*
X22333214Y-12632643D01*
X22318928Y-12618357D01*
X15796245Y-13345245D02*
X15796245Y-13097755D01*
X15548755Y-13097755D01*
X15548755Y-13345245D01*
X15796245Y-13345245D01*
X16090357Y-13057214D02*
X16276071Y-13057214D01*
X16176071Y-13171500D01*
X16218928Y-13171500D01*
X16247500Y-13185786D01*
X16261786Y-13200071D01*
X16276071Y-13228643D01*
X16276071Y-13300071D01*
X16261786Y-13328643D01*
X16247500Y-13342929D01*
X16218928Y-13357214D01*
X16133214Y-13357214D01*
X16104643Y-13342929D01*
X16090357Y-13328643D01*
X16404643Y-13328643D02*
X16418928Y-13342929D01*
X16404643Y-13357214D01*
X16390357Y-13342929D01*
X16404643Y-13328643D01*
X16404643Y-13357214D01*
X16690357Y-13057214D02*
X16547500Y-13057214D01*
X16533214Y-13200071D01*
X16547500Y-13185786D01*
X16576071Y-13171500D01*
X16647500Y-13171500D01*
X16676071Y-13185786D01*
X16690357Y-13200071D01*
X16704643Y-13228643D01*
X16704643Y-13300071D01*
X16690357Y-13328643D01*
X16676071Y-13342929D01*
X16647500Y-13357214D01*
X16576071Y-13357214D01*
X16547500Y-13342929D01*
X16533214Y-13328643D01*
X16890357Y-13057214D02*
X16918929Y-13057214D01*
X16947500Y-13071500D01*
X16961786Y-13085786D01*
X16976071Y-13114357D01*
X16990357Y-13171500D01*
X16990357Y-13242929D01*
X16976071Y-13300071D01*
X16961786Y-13328643D01*
X16947500Y-13342929D01*
X16918929Y-13357214D01*
X16890357Y-13357214D01*
X16861786Y-13342929D01*
X16847500Y-13328643D01*
X16833214Y-13300071D01*
X16818929Y-13242929D01*
X16818929Y-13171500D01*
X16833214Y-13114357D01*
X16847500Y-13085786D01*
X16861786Y-13071500D01*
X16890357Y-13057214D01*
X17118929Y-13357214D02*
X17118929Y-13157214D01*
X17118929Y-13185786D02*
X17133214Y-13171500D01*
X17161786Y-13157214D01*
X17204643Y-13157214D01*
X17233214Y-13171500D01*
X17247500Y-13200071D01*
X17247500Y-13357214D01*
X17247500Y-13200071D02*
X17261786Y-13171500D01*
X17290357Y-13157214D01*
X17333214Y-13157214D01*
X17361786Y-13171500D01*
X17376071Y-13200071D01*
X17376071Y-13357214D01*
X17518929Y-13357214D02*
X17518929Y-13157214D01*
X17518929Y-13185786D02*
X17533214Y-13171500D01*
X17561786Y-13157214D01*
X17604643Y-13157214D01*
X17633214Y-13171500D01*
X17647500Y-13200071D01*
X17647500Y-13357214D01*
X17647500Y-13200071D02*
X17661786Y-13171500D01*
X17690357Y-13157214D01*
X17733214Y-13157214D01*
X17761786Y-13171500D01*
X17776071Y-13200071D01*
X17776071Y-13357214D01*
X18361786Y-13042929D02*
X18104643Y-13428643D01*
X18747500Y-13057214D02*
X18776071Y-13057214D01*
X18804643Y-13071500D01*
X18818928Y-13085786D01*
X18833214Y-13114357D01*
X18847500Y-13171500D01*
X18847500Y-13242929D01*
X18833214Y-13300071D01*
X18818928Y-13328643D01*
X18804643Y-13342929D01*
X18776071Y-13357214D01*
X18747500Y-13357214D01*
X18718928Y-13342929D01*
X18704643Y-13328643D01*
X18690357Y-13300071D01*
X18676071Y-13242929D01*
X18676071Y-13171500D01*
X18690357Y-13114357D01*
X18704643Y-13085786D01*
X18718928Y-13071500D01*
X18747500Y-13057214D01*
X18976071Y-13328643D02*
X18990357Y-13342929D01*
X18976071Y-13357214D01*
X18961786Y-13342929D01*
X18976071Y-13328643D01*
X18976071Y-13357214D01*
X19276071Y-13357214D02*
X19104643Y-13357214D01*
X19190357Y-13357214D02*
X19190357Y-13057214D01*
X19161786Y-13100071D01*
X19133214Y-13128643D01*
X19104643Y-13142929D01*
X19376071Y-13057214D02*
X19561786Y-13057214D01*
X19461786Y-13171500D01*
X19504643Y-13171500D01*
X19533214Y-13185786D01*
X19547500Y-13200071D01*
X19561786Y-13228643D01*
X19561786Y-13300071D01*
X19547500Y-13328643D01*
X19533214Y-13342929D01*
X19504643Y-13357214D01*
X19418928Y-13357214D01*
X19390357Y-13342929D01*
X19376071Y-13328643D01*
X19733214Y-13185786D02*
X19704643Y-13171500D01*
X19690357Y-13157214D01*
X19676071Y-13128643D01*
X19676071Y-13114357D01*
X19690357Y-13085786D01*
X19704643Y-13071500D01*
X19733214Y-13057214D01*
X19790357Y-13057214D01*
X19818928Y-13071500D01*
X19833214Y-13085786D01*
X19847500Y-13114357D01*
X19847500Y-13128643D01*
X19833214Y-13157214D01*
X19818928Y-13171500D01*
X19790357Y-13185786D01*
X19733214Y-13185786D01*
X19704643Y-13200071D01*
X19690357Y-13214357D01*
X19676071Y-13242929D01*
X19676071Y-13300071D01*
X19690357Y-13328643D01*
X19704643Y-13342929D01*
X19733214Y-13357214D01*
X19790357Y-13357214D01*
X19818928Y-13342929D01*
X19833214Y-13328643D01*
X19847500Y-13300071D01*
X19847500Y-13242929D01*
X19833214Y-13214357D01*
X19818928Y-13200071D01*
X19790357Y-13185786D01*
X19961786Y-13057214D02*
X19961786Y-13114357D01*
X20076071Y-13057214D02*
X20076071Y-13114357D01*
X20518928Y-13471500D02*
X20504643Y-13457214D01*
X20476071Y-13414357D01*
X20461786Y-13385786D01*
X20447500Y-13342929D01*
X20433214Y-13271500D01*
X20433214Y-13214357D01*
X20447500Y-13142929D01*
X20461786Y-13100071D01*
X20476071Y-13071500D01*
X20504643Y-13028643D01*
X20518928Y-13014357D01*
X20790357Y-13357214D02*
X20618928Y-13357214D01*
X20704643Y-13357214D02*
X20704643Y-13057214D01*
X20676071Y-13100071D01*
X20647500Y-13128643D01*
X20618928Y-13142929D01*
X21147500Y-13357214D02*
X21147500Y-13057214D01*
X21276071Y-13357214D02*
X21276071Y-13200071D01*
X21261786Y-13171500D01*
X21233214Y-13157214D01*
X21190357Y-13157214D01*
X21161786Y-13171500D01*
X21147500Y-13185786D01*
X21461786Y-13357214D02*
X21433214Y-13342929D01*
X21418928Y-13328643D01*
X21404643Y-13300071D01*
X21404643Y-13214357D01*
X21418928Y-13185786D01*
X21433214Y-13171500D01*
X21461786Y-13157214D01*
X21504643Y-13157214D01*
X21533214Y-13171500D01*
X21547500Y-13185786D01*
X21561786Y-13214357D01*
X21561786Y-13300071D01*
X21547500Y-13328643D01*
X21533214Y-13342929D01*
X21504643Y-13357214D01*
X21461786Y-13357214D01*
X21733214Y-13357214D02*
X21704643Y-13342929D01*
X21690357Y-13314357D01*
X21690357Y-13057214D01*
X21961786Y-13342929D02*
X21933214Y-13357214D01*
X21876071Y-13357214D01*
X21847500Y-13342929D01*
X21833214Y-13314357D01*
X21833214Y-13200071D01*
X21847500Y-13171500D01*
X21876071Y-13157214D01*
X21933214Y-13157214D01*
X21961786Y-13171500D01*
X21976071Y-13200071D01*
X21976071Y-13228643D01*
X21833214Y-13257214D01*
X22076071Y-13471500D02*
X22090357Y-13457214D01*
X22118929Y-13414357D01*
X22133214Y-13385786D01*
X22147500Y-13342929D01*
X22161786Y-13271500D01*
X22161786Y-13214357D01*
X22147500Y-13142929D01*
X22133214Y-13100071D01*
X22118929Y-13071500D01*
X22090357Y-13028643D01*
X22076071Y-13014357D01*
M02*
