G04 #@! TF.FileFunction,Copper,L1,Top,Signal*
%FSLAX46Y46*%
G04 Gerber Fmt 4.6, Leading zero omitted, Abs format (unit mm)*
G04 Created by KiCad (PCBNEW 4.0.2-stable) date 16.05.2016 20:37:56*
%MOMM*%
G01*
G04 APERTURE LIST*
%ADD10C,0.100000*%
%ADD11R,1.727200X1.727200*%
%ADD12O,1.727200X1.727200*%
%ADD13C,0.500000*%
%ADD14R,0.800100X1.400000*%
%ADD15R,1.200000X0.900000*%
%ADD16R,0.900000X1.200000*%
%ADD17C,0.700000*%
%ADD18C,0.400000*%
%ADD19C,1.000000*%
%ADD20C,0.254000*%
G04 APERTURE END LIST*
D10*
D11*
X134250000Y-98200000D03*
D12*
X134250000Y-95660000D03*
X136790000Y-98200000D03*
X136790000Y-95660000D03*
X139330000Y-98200000D03*
X139330000Y-95660000D03*
X141870000Y-98200000D03*
X141870000Y-95660000D03*
D13*
X130800000Y-104080000D03*
X130800000Y-108720000D03*
X139200000Y-112200000D03*
X145200000Y-94800000D03*
X132000000Y-94800000D03*
X130800000Y-112200000D03*
X130800000Y-106400000D03*
X130800000Y-100600000D03*
X130800000Y-99440000D03*
X130800000Y-98280000D03*
X130800000Y-97120000D03*
X130800000Y-95960000D03*
D14*
X141550000Y-103400000D03*
X143450000Y-103400000D03*
X142500000Y-100800000D03*
X141550000Y-110000000D03*
X143450000Y-110000000D03*
X142500000Y-107400000D03*
X134150000Y-110000000D03*
X136050000Y-110000000D03*
X135100000Y-107400000D03*
X134150000Y-103400000D03*
X136050000Y-103400000D03*
X135100000Y-100800000D03*
D15*
X143600000Y-105300000D03*
X141400000Y-105300000D03*
X143600000Y-111900000D03*
X141400000Y-111900000D03*
D16*
X139900000Y-103200000D03*
X139900000Y-101000000D03*
X139600000Y-110200000D03*
X139600000Y-108000000D03*
D15*
X136200000Y-111900000D03*
X134000000Y-111900000D03*
X135650000Y-105300000D03*
X133450000Y-105300000D03*
D16*
X132500000Y-109800000D03*
X132500000Y-107600000D03*
X132500000Y-103200000D03*
X132500000Y-101000000D03*
D13*
X130800000Y-94800000D03*
D17*
X144750000Y-106550000D03*
X136250000Y-106325000D03*
X144800000Y-111800000D03*
X137700000Y-111600000D03*
D18*
X144750000Y-106550000D02*
X143600000Y-105400000D01*
X143600000Y-105400000D02*
X143600000Y-105300000D01*
X135650000Y-105300000D02*
X135650000Y-105725000D01*
X135650000Y-105725000D02*
X136250000Y-106325000D01*
X143600000Y-111900000D02*
X144700000Y-111900000D01*
X144700000Y-111900000D02*
X144800000Y-111800000D01*
X136200000Y-111900000D02*
X137400000Y-111900000D01*
X137400000Y-111900000D02*
X137700000Y-111600000D01*
D19*
X141870000Y-98200000D02*
X141870000Y-100170000D01*
X141870000Y-100170000D02*
X142500000Y-100800000D01*
X138700000Y-98830000D02*
X139330000Y-98200000D01*
X138700000Y-105849998D02*
X138700000Y-98830000D01*
X139400002Y-106550000D02*
X138700000Y-105849998D01*
X139750000Y-106550000D02*
X139400002Y-106550000D01*
X141400000Y-107400000D02*
X140550000Y-106550000D01*
X140550000Y-106550000D02*
X139750000Y-106550000D01*
X142500000Y-107400000D02*
X141400000Y-107400000D01*
X136000000Y-107400000D02*
X137100000Y-107400000D01*
X137400000Y-98810000D02*
X137400000Y-106000000D01*
X136000000Y-107400000D02*
X135100000Y-107400000D01*
X137400000Y-107100000D02*
X137400000Y-106000000D01*
X137100000Y-107400000D02*
X137400000Y-107100000D01*
X137400000Y-98810000D02*
X136790000Y-98200000D01*
X134250000Y-98200000D02*
X134250000Y-99950000D01*
X134250000Y-99950000D02*
X135100000Y-100800000D01*
D18*
X139900000Y-103200000D02*
X141350000Y-103200000D01*
X141350000Y-103200000D02*
X141550000Y-103400000D01*
X141550000Y-103400000D02*
X141550000Y-105150000D01*
X141550000Y-105150000D02*
X141400000Y-105300000D01*
X139600000Y-110200000D02*
X141350000Y-110200000D01*
X141350000Y-110200000D02*
X141550000Y-110000000D01*
X141550000Y-110000000D02*
X141550000Y-111750000D01*
X141550000Y-111750000D02*
X141400000Y-111900000D01*
X132500000Y-109800000D02*
X133950000Y-109800000D01*
X133950000Y-109800000D02*
X134150000Y-110000000D01*
X134150000Y-110000000D02*
X134150000Y-111750000D01*
X134150000Y-111750000D02*
X134000000Y-111900000D01*
X134150000Y-103400000D02*
X134150000Y-104600000D01*
X134150000Y-104600000D02*
X133450000Y-105300000D01*
X132500000Y-103200000D02*
X133950000Y-103200000D01*
X133950000Y-103200000D02*
X134150000Y-103400000D01*
D20*
G36*
X145414125Y-94283055D02*
X145595652Y-94404348D01*
X145716945Y-94585875D01*
X145768000Y-94842546D01*
X145768000Y-112157454D01*
X145716945Y-112414125D01*
X145595652Y-112595652D01*
X145414125Y-112716945D01*
X145157453Y-112768000D01*
X144292288Y-112768000D01*
X144358237Y-112755591D01*
X144503567Y-112662073D01*
X144580127Y-112550024D01*
X144644767Y-112576865D01*
X144953877Y-112577134D01*
X145239560Y-112459092D01*
X145458324Y-112240710D01*
X145576865Y-111955233D01*
X145577134Y-111646123D01*
X145459092Y-111360440D01*
X145240710Y-111141676D01*
X144955233Y-111023135D01*
X144646123Y-111022866D01*
X144573002Y-111053079D01*
X144573002Y-110700000D01*
X144485050Y-110700000D01*
X144485050Y-110508750D01*
X144326300Y-110350000D01*
X143650025Y-110350000D01*
X143650025Y-110700000D01*
X143249975Y-110700000D01*
X143249975Y-110350000D01*
X142573700Y-110350000D01*
X142414950Y-110508750D01*
X142414950Y-110700000D01*
X142385415Y-110700000D01*
X142385415Y-109300000D01*
X142361649Y-109173690D01*
X142414950Y-109173690D01*
X142414950Y-109491250D01*
X142573700Y-109650000D01*
X143249975Y-109650000D01*
X143249975Y-108823750D01*
X143650025Y-108823750D01*
X143650025Y-109650000D01*
X144326300Y-109650000D01*
X144485050Y-109491250D01*
X144485050Y-109173690D01*
X144388377Y-108940301D01*
X144209748Y-108761673D01*
X143976359Y-108665000D01*
X143808775Y-108665000D01*
X143650025Y-108823750D01*
X143249975Y-108823750D01*
X143091225Y-108665000D01*
X142923641Y-108665000D01*
X142690252Y-108761673D01*
X142511623Y-108940301D01*
X142414950Y-109173690D01*
X142361649Y-109173690D01*
X142355641Y-109141763D01*
X142262123Y-108996433D01*
X142119431Y-108898936D01*
X141950050Y-108864635D01*
X141149950Y-108864635D01*
X140991713Y-108894409D01*
X140846383Y-108987927D01*
X140748886Y-109130619D01*
X140714585Y-109300000D01*
X140714585Y-109573000D01*
X140480285Y-109573000D01*
X140455591Y-109441763D01*
X140362073Y-109296433D01*
X140272163Y-109235000D01*
X140723002Y-109235000D01*
X140723002Y-108600000D01*
X140685000Y-108600000D01*
X140685000Y-108458750D01*
X140526250Y-108300000D01*
X139825000Y-108300000D01*
X139825000Y-108600000D01*
X139375000Y-108600000D01*
X139375000Y-108300000D01*
X138673750Y-108300000D01*
X138515000Y-108458750D01*
X138515000Y-108600000D01*
X138476998Y-108600000D01*
X138476998Y-109235000D01*
X138928683Y-109235000D01*
X138846433Y-109287927D01*
X138748936Y-109430619D01*
X138714635Y-109600000D01*
X138714635Y-110800000D01*
X138744409Y-110958237D01*
X138837927Y-111103567D01*
X138980619Y-111201064D01*
X139150000Y-111235365D01*
X140050000Y-111235365D01*
X140208237Y-111205591D01*
X140353567Y-111112073D01*
X140451064Y-110969381D01*
X140479897Y-110827000D01*
X140738481Y-110827000D01*
X140744359Y-110858237D01*
X140837877Y-111003567D01*
X140854076Y-111014635D01*
X140800000Y-111014635D01*
X140641763Y-111044409D01*
X140496433Y-111137927D01*
X140398936Y-111280619D01*
X140364635Y-111450000D01*
X140364635Y-112350000D01*
X140394409Y-112508237D01*
X140487927Y-112653567D01*
X140630619Y-112751064D01*
X140714250Y-112768000D01*
X136892288Y-112768000D01*
X136958237Y-112755591D01*
X137103567Y-112662073D01*
X137195858Y-112527000D01*
X137400000Y-112527000D01*
X137639943Y-112479272D01*
X137792883Y-112377081D01*
X137853877Y-112377134D01*
X138139560Y-112259092D01*
X138358324Y-112040710D01*
X138476865Y-111755233D01*
X138477134Y-111446123D01*
X138359092Y-111160440D01*
X138140710Y-110941676D01*
X137855233Y-110823135D01*
X137546123Y-110822866D01*
X137260440Y-110940908D01*
X137173002Y-111028193D01*
X137173002Y-110700000D01*
X137085050Y-110700000D01*
X137085050Y-110508750D01*
X136926300Y-110350000D01*
X136250025Y-110350000D01*
X136250025Y-110700000D01*
X135849975Y-110700000D01*
X135849975Y-110350000D01*
X135173700Y-110350000D01*
X135014950Y-110508750D01*
X135014950Y-110700000D01*
X134985415Y-110700000D01*
X134985415Y-109300000D01*
X134961649Y-109173690D01*
X135014950Y-109173690D01*
X135014950Y-109491250D01*
X135173700Y-109650000D01*
X135849975Y-109650000D01*
X135849975Y-108823750D01*
X136250025Y-108823750D01*
X136250025Y-109650000D01*
X136926300Y-109650000D01*
X137085050Y-109491250D01*
X137085050Y-109173690D01*
X136988377Y-108940301D01*
X136809748Y-108761673D01*
X136576359Y-108665000D01*
X136408775Y-108665000D01*
X136250025Y-108823750D01*
X135849975Y-108823750D01*
X135691225Y-108665000D01*
X135523641Y-108665000D01*
X135290252Y-108761673D01*
X135111623Y-108940301D01*
X135014950Y-109173690D01*
X134961649Y-109173690D01*
X134955641Y-109141763D01*
X134862123Y-108996433D01*
X134719431Y-108898936D01*
X134550050Y-108864635D01*
X133749950Y-108864635D01*
X133591713Y-108894409D01*
X133446383Y-108987927D01*
X133367252Y-109103739D01*
X133355591Y-109041763D01*
X133262073Y-108896433D01*
X133172163Y-108835000D01*
X133623002Y-108835000D01*
X133623002Y-108200000D01*
X133585000Y-108200000D01*
X133585000Y-108058750D01*
X133426250Y-107900000D01*
X132725000Y-107900000D01*
X132725000Y-108200000D01*
X132275000Y-108200000D01*
X132275000Y-107900000D01*
X131573750Y-107900000D01*
X131415000Y-108058750D01*
X131415000Y-108200000D01*
X131376998Y-108200000D01*
X131376998Y-108835000D01*
X131828683Y-108835000D01*
X131746433Y-108887927D01*
X131648936Y-109030619D01*
X131614635Y-109200000D01*
X131614635Y-110400000D01*
X131644409Y-110558237D01*
X131737927Y-110703567D01*
X131880619Y-110801064D01*
X132050000Y-110835365D01*
X132950000Y-110835365D01*
X133108237Y-110805591D01*
X133253567Y-110712073D01*
X133314585Y-110622770D01*
X133314585Y-110700000D01*
X133344359Y-110858237D01*
X133437877Y-111003567D01*
X133454076Y-111014635D01*
X133400000Y-111014635D01*
X133241763Y-111044409D01*
X133096433Y-111137927D01*
X132998936Y-111280619D01*
X132964635Y-111450000D01*
X132964635Y-112350000D01*
X132994409Y-112508237D01*
X133087927Y-112653567D01*
X133230619Y-112751064D01*
X133314250Y-112768000D01*
X130842546Y-112768000D01*
X130585875Y-112716945D01*
X130404348Y-112595652D01*
X130283055Y-112414125D01*
X130232000Y-112157453D01*
X130232000Y-106873691D01*
X131415000Y-106873691D01*
X131415000Y-107141250D01*
X131573750Y-107300000D01*
X132275000Y-107300000D01*
X132275000Y-106523750D01*
X132725000Y-106523750D01*
X132725000Y-107300000D01*
X133426250Y-107300000D01*
X133585000Y-107141250D01*
X133585000Y-106873691D01*
X133488327Y-106640302D01*
X133309699Y-106461673D01*
X133076310Y-106365000D01*
X132883750Y-106365000D01*
X132725000Y-106523750D01*
X132275000Y-106523750D01*
X132116250Y-106365000D01*
X131923690Y-106365000D01*
X131690301Y-106461673D01*
X131511673Y-106640302D01*
X131415000Y-106873691D01*
X130232000Y-106873691D01*
X130232000Y-101600000D01*
X131376998Y-101600000D01*
X131376998Y-102235000D01*
X131828683Y-102235000D01*
X131746433Y-102287927D01*
X131648936Y-102430619D01*
X131614635Y-102600000D01*
X131614635Y-103800000D01*
X131644409Y-103958237D01*
X131737927Y-104103567D01*
X131880619Y-104201064D01*
X132050000Y-104235365D01*
X132950000Y-104235365D01*
X133108237Y-104205591D01*
X133253567Y-104112073D01*
X133314585Y-104022770D01*
X133314585Y-104100000D01*
X133344359Y-104258237D01*
X133437877Y-104403567D01*
X133450854Y-104412434D01*
X133448653Y-104414635D01*
X132850000Y-104414635D01*
X132691763Y-104444409D01*
X132546433Y-104537927D01*
X132448936Y-104680619D01*
X132414635Y-104850000D01*
X132414635Y-105750000D01*
X132444409Y-105908237D01*
X132537927Y-106053567D01*
X132680619Y-106151064D01*
X132850000Y-106185365D01*
X134050000Y-106185365D01*
X134208237Y-106155591D01*
X134353567Y-106062073D01*
X134451064Y-105919381D01*
X134485365Y-105750000D01*
X134485365Y-105151347D01*
X134593356Y-105043356D01*
X134614635Y-105011510D01*
X134614635Y-105750000D01*
X134644409Y-105908237D01*
X134737927Y-106053567D01*
X134880619Y-106151064D01*
X135050000Y-106185365D01*
X135223653Y-106185365D01*
X135302923Y-106264635D01*
X134699950Y-106264635D01*
X134541713Y-106294409D01*
X134396383Y-106387927D01*
X134298886Y-106530619D01*
X134264585Y-106700000D01*
X134264585Y-107013792D01*
X134243564Y-107045252D01*
X134173000Y-107400000D01*
X134243564Y-107754748D01*
X134264585Y-107786208D01*
X134264585Y-108100000D01*
X134294359Y-108258237D01*
X134387877Y-108403567D01*
X134530569Y-108501064D01*
X134699950Y-108535365D01*
X135500050Y-108535365D01*
X135658287Y-108505591D01*
X135803617Y-108412073D01*
X135861745Y-108327000D01*
X137100000Y-108327000D01*
X137454748Y-108256436D01*
X137755488Y-108055488D01*
X138055488Y-107755488D01*
X138198637Y-107541250D01*
X138256436Y-107454748D01*
X138327000Y-107100000D01*
X138327000Y-106787974D01*
X138476998Y-106937972D01*
X138476998Y-107400000D01*
X138515000Y-107400000D01*
X138515000Y-107541250D01*
X138673750Y-107700000D01*
X139375000Y-107700000D01*
X139375000Y-107472027D01*
X139400002Y-107477000D01*
X139825000Y-107477000D01*
X139825000Y-107700000D01*
X140389024Y-107700000D01*
X140744512Y-108055488D01*
X141045253Y-108256437D01*
X141400000Y-108327000D01*
X141738607Y-108327000D01*
X141787877Y-108403567D01*
X141930569Y-108501064D01*
X142099950Y-108535365D01*
X142900050Y-108535365D01*
X143058287Y-108505591D01*
X143203617Y-108412073D01*
X143301114Y-108269381D01*
X143335415Y-108100000D01*
X143335415Y-107786208D01*
X143356436Y-107754748D01*
X143427000Y-107400000D01*
X143356436Y-107045252D01*
X143335415Y-107013792D01*
X143335415Y-106700000D01*
X143305641Y-106541763D01*
X143212123Y-106396433D01*
X143069431Y-106298936D01*
X142900050Y-106264635D01*
X142099950Y-106264635D01*
X141941713Y-106294409D01*
X141796383Y-106387927D01*
X141756814Y-106445838D01*
X141496341Y-106185365D01*
X142000000Y-106185365D01*
X142158237Y-106155591D01*
X142303567Y-106062073D01*
X142401064Y-105919381D01*
X142435365Y-105750000D01*
X142435365Y-104850000D01*
X142413727Y-104735000D01*
X142587923Y-104735000D01*
X142564635Y-104850000D01*
X142564635Y-105750000D01*
X142594409Y-105908237D01*
X142687927Y-106053567D01*
X142830619Y-106151064D01*
X143000000Y-106185365D01*
X143498653Y-106185365D01*
X143972905Y-106659617D01*
X143972866Y-106703877D01*
X144090908Y-106989560D01*
X144309290Y-107208324D01*
X144594767Y-107326865D01*
X144903877Y-107327134D01*
X145189560Y-107209092D01*
X145408324Y-106990710D01*
X145526865Y-106705233D01*
X145527134Y-106396123D01*
X145409092Y-106110440D01*
X145190710Y-105891676D01*
X144905233Y-105773135D01*
X144859807Y-105773095D01*
X144635365Y-105548653D01*
X144635365Y-104850000D01*
X144605591Y-104691763D01*
X144573002Y-104641119D01*
X144573002Y-104100000D01*
X144485050Y-104100000D01*
X144485050Y-103908750D01*
X144326300Y-103750000D01*
X143650025Y-103750000D01*
X143650025Y-104100000D01*
X143249975Y-104100000D01*
X143249975Y-103750000D01*
X142573700Y-103750000D01*
X142414950Y-103908750D01*
X142414950Y-104100000D01*
X142385415Y-104100000D01*
X142385415Y-102700000D01*
X142361649Y-102573690D01*
X142414950Y-102573690D01*
X142414950Y-102891250D01*
X142573700Y-103050000D01*
X143249975Y-103050000D01*
X143249975Y-102223750D01*
X143650025Y-102223750D01*
X143650025Y-103050000D01*
X144326300Y-103050000D01*
X144485050Y-102891250D01*
X144485050Y-102573690D01*
X144388377Y-102340301D01*
X144209748Y-102161673D01*
X143976359Y-102065000D01*
X143808775Y-102065000D01*
X143650025Y-102223750D01*
X143249975Y-102223750D01*
X143091225Y-102065000D01*
X142923641Y-102065000D01*
X142690252Y-102161673D01*
X142511623Y-102340301D01*
X142414950Y-102573690D01*
X142361649Y-102573690D01*
X142355641Y-102541763D01*
X142262123Y-102396433D01*
X142119431Y-102298936D01*
X141950050Y-102264635D01*
X141149950Y-102264635D01*
X140991713Y-102294409D01*
X140846383Y-102387927D01*
X140767252Y-102503739D01*
X140755591Y-102441763D01*
X140662073Y-102296433D01*
X140572163Y-102235000D01*
X141023002Y-102235000D01*
X141023002Y-101600000D01*
X140985000Y-101600000D01*
X140985000Y-101458750D01*
X140826250Y-101300000D01*
X140125000Y-101300000D01*
X140125000Y-101600000D01*
X139675000Y-101600000D01*
X139675000Y-101300000D01*
X139627000Y-101300000D01*
X139627000Y-100700000D01*
X139675000Y-100700000D01*
X139675000Y-99923750D01*
X139627000Y-99875750D01*
X139627000Y-99456807D01*
X139823891Y-99417643D01*
X140242592Y-99137876D01*
X140522359Y-98719175D01*
X140600000Y-98328847D01*
X140677641Y-98719175D01*
X140943000Y-99116313D01*
X140943000Y-100170000D01*
X140943878Y-100174414D01*
X140888327Y-100040302D01*
X140709699Y-99861673D01*
X140476310Y-99765000D01*
X140283750Y-99765000D01*
X140125000Y-99923750D01*
X140125000Y-100700000D01*
X140826250Y-100700000D01*
X140985000Y-100541250D01*
X140985000Y-100381148D01*
X141013564Y-100524748D01*
X141201782Y-100806436D01*
X141214512Y-100825488D01*
X141664585Y-101275561D01*
X141664585Y-101500000D01*
X141694359Y-101658237D01*
X141787877Y-101803567D01*
X141930569Y-101901064D01*
X142099950Y-101935365D01*
X142900050Y-101935365D01*
X143058287Y-101905591D01*
X143203617Y-101812073D01*
X143301114Y-101669381D01*
X143335415Y-101500000D01*
X143335415Y-101186209D01*
X143356437Y-101154747D01*
X143427000Y-100800000D01*
X143356437Y-100445253D01*
X143335415Y-100413791D01*
X143335415Y-100100000D01*
X143305641Y-99941763D01*
X143212123Y-99796433D01*
X143069431Y-99698936D01*
X142900050Y-99664635D01*
X142797000Y-99664635D01*
X142797000Y-99116313D01*
X143062359Y-98719175D01*
X143160600Y-98225284D01*
X143160600Y-98174716D01*
X143062359Y-97680825D01*
X142782592Y-97262124D01*
X142363891Y-96982357D01*
X142100675Y-96930000D01*
X142363891Y-96877643D01*
X142782592Y-96597876D01*
X143062359Y-96179175D01*
X143160600Y-95685284D01*
X143160600Y-95634716D01*
X143062359Y-95140825D01*
X142782592Y-94722124D01*
X142363891Y-94442357D01*
X141870000Y-94344116D01*
X141376109Y-94442357D01*
X140957408Y-94722124D01*
X140677641Y-95140825D01*
X140600000Y-95531153D01*
X140522359Y-95140825D01*
X140242592Y-94722124D01*
X139823891Y-94442357D01*
X139330000Y-94344116D01*
X138836109Y-94442357D01*
X138417408Y-94722124D01*
X138137641Y-95140825D01*
X138060000Y-95531153D01*
X137982359Y-95140825D01*
X137702592Y-94722124D01*
X137283891Y-94442357D01*
X136790000Y-94344116D01*
X136296109Y-94442357D01*
X135877408Y-94722124D01*
X135597641Y-95140825D01*
X135520000Y-95531153D01*
X135442359Y-95140825D01*
X135162592Y-94722124D01*
X134743891Y-94442357D01*
X134250000Y-94344116D01*
X133756109Y-94442357D01*
X133337408Y-94722124D01*
X133057641Y-95140825D01*
X132959400Y-95634716D01*
X132959400Y-95685284D01*
X133057641Y-96179175D01*
X133337408Y-96597876D01*
X133756109Y-96877643D01*
X133873709Y-96901035D01*
X133386400Y-96901035D01*
X133228163Y-96930809D01*
X133082833Y-97024327D01*
X132985336Y-97167019D01*
X132951035Y-97336400D01*
X132951035Y-99063600D01*
X132980809Y-99221837D01*
X133074327Y-99367167D01*
X133217019Y-99464664D01*
X133323000Y-99486126D01*
X133323000Y-99874974D01*
X133309699Y-99861673D01*
X133076310Y-99765000D01*
X132883750Y-99765000D01*
X132725000Y-99923750D01*
X132725000Y-100700000D01*
X133426250Y-100700000D01*
X133564972Y-100561278D01*
X133594512Y-100605488D01*
X134264585Y-101275561D01*
X134264585Y-101500000D01*
X134294359Y-101658237D01*
X134387877Y-101803567D01*
X134530569Y-101901064D01*
X134699950Y-101935365D01*
X135500050Y-101935365D01*
X135658287Y-101905591D01*
X135803617Y-101812073D01*
X135901114Y-101669381D01*
X135935415Y-101500000D01*
X135935415Y-101186209D01*
X135956437Y-101154747D01*
X136027000Y-100800000D01*
X135956437Y-100445253D01*
X135935415Y-100413791D01*
X135935415Y-100100000D01*
X135905641Y-99941763D01*
X135812123Y-99796433D01*
X135669431Y-99698936D01*
X135500050Y-99664635D01*
X135275611Y-99664635D01*
X135177000Y-99566024D01*
X135177000Y-99487036D01*
X135271837Y-99469191D01*
X135417167Y-99375673D01*
X135514664Y-99232981D01*
X135548965Y-99063600D01*
X135548965Y-98474464D01*
X135597641Y-98719175D01*
X135877408Y-99137876D01*
X136296109Y-99417643D01*
X136473000Y-99452829D01*
X136473000Y-102065000D01*
X136408775Y-102065000D01*
X136250025Y-102223750D01*
X136250025Y-103050000D01*
X136450050Y-103050000D01*
X136450050Y-103750000D01*
X136250025Y-103750000D01*
X136250025Y-104100000D01*
X135849975Y-104100000D01*
X135849975Y-103750000D01*
X135173700Y-103750000D01*
X135014950Y-103908750D01*
X135014950Y-104100000D01*
X134985415Y-104100000D01*
X134985415Y-102700000D01*
X134961649Y-102573690D01*
X135014950Y-102573690D01*
X135014950Y-102891250D01*
X135173700Y-103050000D01*
X135849975Y-103050000D01*
X135849975Y-102223750D01*
X135691225Y-102065000D01*
X135523641Y-102065000D01*
X135290252Y-102161673D01*
X135111623Y-102340301D01*
X135014950Y-102573690D01*
X134961649Y-102573690D01*
X134955641Y-102541763D01*
X134862123Y-102396433D01*
X134719431Y-102298936D01*
X134550050Y-102264635D01*
X133749950Y-102264635D01*
X133591713Y-102294409D01*
X133446383Y-102387927D01*
X133367252Y-102503739D01*
X133355591Y-102441763D01*
X133262073Y-102296433D01*
X133172163Y-102235000D01*
X133623002Y-102235000D01*
X133623002Y-101600000D01*
X133585000Y-101600000D01*
X133585000Y-101458750D01*
X133426250Y-101300000D01*
X132725000Y-101300000D01*
X132725000Y-101600000D01*
X132275000Y-101600000D01*
X132275000Y-101300000D01*
X131573750Y-101300000D01*
X131415000Y-101458750D01*
X131415000Y-101600000D01*
X131376998Y-101600000D01*
X130232000Y-101600000D01*
X130232000Y-100273691D01*
X131415000Y-100273691D01*
X131415000Y-100541250D01*
X131573750Y-100700000D01*
X132275000Y-100700000D01*
X132275000Y-99923750D01*
X132116250Y-99765000D01*
X131923690Y-99765000D01*
X131690301Y-99861673D01*
X131511673Y-100040302D01*
X131415000Y-100273691D01*
X130232000Y-100273691D01*
X130232000Y-94842547D01*
X130283055Y-94585875D01*
X130404348Y-94404348D01*
X130585875Y-94283055D01*
X130842546Y-94232000D01*
X145157453Y-94232000D01*
X145414125Y-94283055D01*
X145414125Y-94283055D01*
G37*
X145414125Y-94283055D02*
X145595652Y-94404348D01*
X145716945Y-94585875D01*
X145768000Y-94842546D01*
X145768000Y-112157454D01*
X145716945Y-112414125D01*
X145595652Y-112595652D01*
X145414125Y-112716945D01*
X145157453Y-112768000D01*
X144292288Y-112768000D01*
X144358237Y-112755591D01*
X144503567Y-112662073D01*
X144580127Y-112550024D01*
X144644767Y-112576865D01*
X144953877Y-112577134D01*
X145239560Y-112459092D01*
X145458324Y-112240710D01*
X145576865Y-111955233D01*
X145577134Y-111646123D01*
X145459092Y-111360440D01*
X145240710Y-111141676D01*
X144955233Y-111023135D01*
X144646123Y-111022866D01*
X144573002Y-111053079D01*
X144573002Y-110700000D01*
X144485050Y-110700000D01*
X144485050Y-110508750D01*
X144326300Y-110350000D01*
X143650025Y-110350000D01*
X143650025Y-110700000D01*
X143249975Y-110700000D01*
X143249975Y-110350000D01*
X142573700Y-110350000D01*
X142414950Y-110508750D01*
X142414950Y-110700000D01*
X142385415Y-110700000D01*
X142385415Y-109300000D01*
X142361649Y-109173690D01*
X142414950Y-109173690D01*
X142414950Y-109491250D01*
X142573700Y-109650000D01*
X143249975Y-109650000D01*
X143249975Y-108823750D01*
X143650025Y-108823750D01*
X143650025Y-109650000D01*
X144326300Y-109650000D01*
X144485050Y-109491250D01*
X144485050Y-109173690D01*
X144388377Y-108940301D01*
X144209748Y-108761673D01*
X143976359Y-108665000D01*
X143808775Y-108665000D01*
X143650025Y-108823750D01*
X143249975Y-108823750D01*
X143091225Y-108665000D01*
X142923641Y-108665000D01*
X142690252Y-108761673D01*
X142511623Y-108940301D01*
X142414950Y-109173690D01*
X142361649Y-109173690D01*
X142355641Y-109141763D01*
X142262123Y-108996433D01*
X142119431Y-108898936D01*
X141950050Y-108864635D01*
X141149950Y-108864635D01*
X140991713Y-108894409D01*
X140846383Y-108987927D01*
X140748886Y-109130619D01*
X140714585Y-109300000D01*
X140714585Y-109573000D01*
X140480285Y-109573000D01*
X140455591Y-109441763D01*
X140362073Y-109296433D01*
X140272163Y-109235000D01*
X140723002Y-109235000D01*
X140723002Y-108600000D01*
X140685000Y-108600000D01*
X140685000Y-108458750D01*
X140526250Y-108300000D01*
X139825000Y-108300000D01*
X139825000Y-108600000D01*
X139375000Y-108600000D01*
X139375000Y-108300000D01*
X138673750Y-108300000D01*
X138515000Y-108458750D01*
X138515000Y-108600000D01*
X138476998Y-108600000D01*
X138476998Y-109235000D01*
X138928683Y-109235000D01*
X138846433Y-109287927D01*
X138748936Y-109430619D01*
X138714635Y-109600000D01*
X138714635Y-110800000D01*
X138744409Y-110958237D01*
X138837927Y-111103567D01*
X138980619Y-111201064D01*
X139150000Y-111235365D01*
X140050000Y-111235365D01*
X140208237Y-111205591D01*
X140353567Y-111112073D01*
X140451064Y-110969381D01*
X140479897Y-110827000D01*
X140738481Y-110827000D01*
X140744359Y-110858237D01*
X140837877Y-111003567D01*
X140854076Y-111014635D01*
X140800000Y-111014635D01*
X140641763Y-111044409D01*
X140496433Y-111137927D01*
X140398936Y-111280619D01*
X140364635Y-111450000D01*
X140364635Y-112350000D01*
X140394409Y-112508237D01*
X140487927Y-112653567D01*
X140630619Y-112751064D01*
X140714250Y-112768000D01*
X136892288Y-112768000D01*
X136958237Y-112755591D01*
X137103567Y-112662073D01*
X137195858Y-112527000D01*
X137400000Y-112527000D01*
X137639943Y-112479272D01*
X137792883Y-112377081D01*
X137853877Y-112377134D01*
X138139560Y-112259092D01*
X138358324Y-112040710D01*
X138476865Y-111755233D01*
X138477134Y-111446123D01*
X138359092Y-111160440D01*
X138140710Y-110941676D01*
X137855233Y-110823135D01*
X137546123Y-110822866D01*
X137260440Y-110940908D01*
X137173002Y-111028193D01*
X137173002Y-110700000D01*
X137085050Y-110700000D01*
X137085050Y-110508750D01*
X136926300Y-110350000D01*
X136250025Y-110350000D01*
X136250025Y-110700000D01*
X135849975Y-110700000D01*
X135849975Y-110350000D01*
X135173700Y-110350000D01*
X135014950Y-110508750D01*
X135014950Y-110700000D01*
X134985415Y-110700000D01*
X134985415Y-109300000D01*
X134961649Y-109173690D01*
X135014950Y-109173690D01*
X135014950Y-109491250D01*
X135173700Y-109650000D01*
X135849975Y-109650000D01*
X135849975Y-108823750D01*
X136250025Y-108823750D01*
X136250025Y-109650000D01*
X136926300Y-109650000D01*
X137085050Y-109491250D01*
X137085050Y-109173690D01*
X136988377Y-108940301D01*
X136809748Y-108761673D01*
X136576359Y-108665000D01*
X136408775Y-108665000D01*
X136250025Y-108823750D01*
X135849975Y-108823750D01*
X135691225Y-108665000D01*
X135523641Y-108665000D01*
X135290252Y-108761673D01*
X135111623Y-108940301D01*
X135014950Y-109173690D01*
X134961649Y-109173690D01*
X134955641Y-109141763D01*
X134862123Y-108996433D01*
X134719431Y-108898936D01*
X134550050Y-108864635D01*
X133749950Y-108864635D01*
X133591713Y-108894409D01*
X133446383Y-108987927D01*
X133367252Y-109103739D01*
X133355591Y-109041763D01*
X133262073Y-108896433D01*
X133172163Y-108835000D01*
X133623002Y-108835000D01*
X133623002Y-108200000D01*
X133585000Y-108200000D01*
X133585000Y-108058750D01*
X133426250Y-107900000D01*
X132725000Y-107900000D01*
X132725000Y-108200000D01*
X132275000Y-108200000D01*
X132275000Y-107900000D01*
X131573750Y-107900000D01*
X131415000Y-108058750D01*
X131415000Y-108200000D01*
X131376998Y-108200000D01*
X131376998Y-108835000D01*
X131828683Y-108835000D01*
X131746433Y-108887927D01*
X131648936Y-109030619D01*
X131614635Y-109200000D01*
X131614635Y-110400000D01*
X131644409Y-110558237D01*
X131737927Y-110703567D01*
X131880619Y-110801064D01*
X132050000Y-110835365D01*
X132950000Y-110835365D01*
X133108237Y-110805591D01*
X133253567Y-110712073D01*
X133314585Y-110622770D01*
X133314585Y-110700000D01*
X133344359Y-110858237D01*
X133437877Y-111003567D01*
X133454076Y-111014635D01*
X133400000Y-111014635D01*
X133241763Y-111044409D01*
X133096433Y-111137927D01*
X132998936Y-111280619D01*
X132964635Y-111450000D01*
X132964635Y-112350000D01*
X132994409Y-112508237D01*
X133087927Y-112653567D01*
X133230619Y-112751064D01*
X133314250Y-112768000D01*
X130842546Y-112768000D01*
X130585875Y-112716945D01*
X130404348Y-112595652D01*
X130283055Y-112414125D01*
X130232000Y-112157453D01*
X130232000Y-106873691D01*
X131415000Y-106873691D01*
X131415000Y-107141250D01*
X131573750Y-107300000D01*
X132275000Y-107300000D01*
X132275000Y-106523750D01*
X132725000Y-106523750D01*
X132725000Y-107300000D01*
X133426250Y-107300000D01*
X133585000Y-107141250D01*
X133585000Y-106873691D01*
X133488327Y-106640302D01*
X133309699Y-106461673D01*
X133076310Y-106365000D01*
X132883750Y-106365000D01*
X132725000Y-106523750D01*
X132275000Y-106523750D01*
X132116250Y-106365000D01*
X131923690Y-106365000D01*
X131690301Y-106461673D01*
X131511673Y-106640302D01*
X131415000Y-106873691D01*
X130232000Y-106873691D01*
X130232000Y-101600000D01*
X131376998Y-101600000D01*
X131376998Y-102235000D01*
X131828683Y-102235000D01*
X131746433Y-102287927D01*
X131648936Y-102430619D01*
X131614635Y-102600000D01*
X131614635Y-103800000D01*
X131644409Y-103958237D01*
X131737927Y-104103567D01*
X131880619Y-104201064D01*
X132050000Y-104235365D01*
X132950000Y-104235365D01*
X133108237Y-104205591D01*
X133253567Y-104112073D01*
X133314585Y-104022770D01*
X133314585Y-104100000D01*
X133344359Y-104258237D01*
X133437877Y-104403567D01*
X133450854Y-104412434D01*
X133448653Y-104414635D01*
X132850000Y-104414635D01*
X132691763Y-104444409D01*
X132546433Y-104537927D01*
X132448936Y-104680619D01*
X132414635Y-104850000D01*
X132414635Y-105750000D01*
X132444409Y-105908237D01*
X132537927Y-106053567D01*
X132680619Y-106151064D01*
X132850000Y-106185365D01*
X134050000Y-106185365D01*
X134208237Y-106155591D01*
X134353567Y-106062073D01*
X134451064Y-105919381D01*
X134485365Y-105750000D01*
X134485365Y-105151347D01*
X134593356Y-105043356D01*
X134614635Y-105011510D01*
X134614635Y-105750000D01*
X134644409Y-105908237D01*
X134737927Y-106053567D01*
X134880619Y-106151064D01*
X135050000Y-106185365D01*
X135223653Y-106185365D01*
X135302923Y-106264635D01*
X134699950Y-106264635D01*
X134541713Y-106294409D01*
X134396383Y-106387927D01*
X134298886Y-106530619D01*
X134264585Y-106700000D01*
X134264585Y-107013792D01*
X134243564Y-107045252D01*
X134173000Y-107400000D01*
X134243564Y-107754748D01*
X134264585Y-107786208D01*
X134264585Y-108100000D01*
X134294359Y-108258237D01*
X134387877Y-108403567D01*
X134530569Y-108501064D01*
X134699950Y-108535365D01*
X135500050Y-108535365D01*
X135658287Y-108505591D01*
X135803617Y-108412073D01*
X135861745Y-108327000D01*
X137100000Y-108327000D01*
X137454748Y-108256436D01*
X137755488Y-108055488D01*
X138055488Y-107755488D01*
X138198637Y-107541250D01*
X138256436Y-107454748D01*
X138327000Y-107100000D01*
X138327000Y-106787974D01*
X138476998Y-106937972D01*
X138476998Y-107400000D01*
X138515000Y-107400000D01*
X138515000Y-107541250D01*
X138673750Y-107700000D01*
X139375000Y-107700000D01*
X139375000Y-107472027D01*
X139400002Y-107477000D01*
X139825000Y-107477000D01*
X139825000Y-107700000D01*
X140389024Y-107700000D01*
X140744512Y-108055488D01*
X141045253Y-108256437D01*
X141400000Y-108327000D01*
X141738607Y-108327000D01*
X141787877Y-108403567D01*
X141930569Y-108501064D01*
X142099950Y-108535365D01*
X142900050Y-108535365D01*
X143058287Y-108505591D01*
X143203617Y-108412073D01*
X143301114Y-108269381D01*
X143335415Y-108100000D01*
X143335415Y-107786208D01*
X143356436Y-107754748D01*
X143427000Y-107400000D01*
X143356436Y-107045252D01*
X143335415Y-107013792D01*
X143335415Y-106700000D01*
X143305641Y-106541763D01*
X143212123Y-106396433D01*
X143069431Y-106298936D01*
X142900050Y-106264635D01*
X142099950Y-106264635D01*
X141941713Y-106294409D01*
X141796383Y-106387927D01*
X141756814Y-106445838D01*
X141496341Y-106185365D01*
X142000000Y-106185365D01*
X142158237Y-106155591D01*
X142303567Y-106062073D01*
X142401064Y-105919381D01*
X142435365Y-105750000D01*
X142435365Y-104850000D01*
X142413727Y-104735000D01*
X142587923Y-104735000D01*
X142564635Y-104850000D01*
X142564635Y-105750000D01*
X142594409Y-105908237D01*
X142687927Y-106053567D01*
X142830619Y-106151064D01*
X143000000Y-106185365D01*
X143498653Y-106185365D01*
X143972905Y-106659617D01*
X143972866Y-106703877D01*
X144090908Y-106989560D01*
X144309290Y-107208324D01*
X144594767Y-107326865D01*
X144903877Y-107327134D01*
X145189560Y-107209092D01*
X145408324Y-106990710D01*
X145526865Y-106705233D01*
X145527134Y-106396123D01*
X145409092Y-106110440D01*
X145190710Y-105891676D01*
X144905233Y-105773135D01*
X144859807Y-105773095D01*
X144635365Y-105548653D01*
X144635365Y-104850000D01*
X144605591Y-104691763D01*
X144573002Y-104641119D01*
X144573002Y-104100000D01*
X144485050Y-104100000D01*
X144485050Y-103908750D01*
X144326300Y-103750000D01*
X143650025Y-103750000D01*
X143650025Y-104100000D01*
X143249975Y-104100000D01*
X143249975Y-103750000D01*
X142573700Y-103750000D01*
X142414950Y-103908750D01*
X142414950Y-104100000D01*
X142385415Y-104100000D01*
X142385415Y-102700000D01*
X142361649Y-102573690D01*
X142414950Y-102573690D01*
X142414950Y-102891250D01*
X142573700Y-103050000D01*
X143249975Y-103050000D01*
X143249975Y-102223750D01*
X143650025Y-102223750D01*
X143650025Y-103050000D01*
X144326300Y-103050000D01*
X144485050Y-102891250D01*
X144485050Y-102573690D01*
X144388377Y-102340301D01*
X144209748Y-102161673D01*
X143976359Y-102065000D01*
X143808775Y-102065000D01*
X143650025Y-102223750D01*
X143249975Y-102223750D01*
X143091225Y-102065000D01*
X142923641Y-102065000D01*
X142690252Y-102161673D01*
X142511623Y-102340301D01*
X142414950Y-102573690D01*
X142361649Y-102573690D01*
X142355641Y-102541763D01*
X142262123Y-102396433D01*
X142119431Y-102298936D01*
X141950050Y-102264635D01*
X141149950Y-102264635D01*
X140991713Y-102294409D01*
X140846383Y-102387927D01*
X140767252Y-102503739D01*
X140755591Y-102441763D01*
X140662073Y-102296433D01*
X140572163Y-102235000D01*
X141023002Y-102235000D01*
X141023002Y-101600000D01*
X140985000Y-101600000D01*
X140985000Y-101458750D01*
X140826250Y-101300000D01*
X140125000Y-101300000D01*
X140125000Y-101600000D01*
X139675000Y-101600000D01*
X139675000Y-101300000D01*
X139627000Y-101300000D01*
X139627000Y-100700000D01*
X139675000Y-100700000D01*
X139675000Y-99923750D01*
X139627000Y-99875750D01*
X139627000Y-99456807D01*
X139823891Y-99417643D01*
X140242592Y-99137876D01*
X140522359Y-98719175D01*
X140600000Y-98328847D01*
X140677641Y-98719175D01*
X140943000Y-99116313D01*
X140943000Y-100170000D01*
X140943878Y-100174414D01*
X140888327Y-100040302D01*
X140709699Y-99861673D01*
X140476310Y-99765000D01*
X140283750Y-99765000D01*
X140125000Y-99923750D01*
X140125000Y-100700000D01*
X140826250Y-100700000D01*
X140985000Y-100541250D01*
X140985000Y-100381148D01*
X141013564Y-100524748D01*
X141201782Y-100806436D01*
X141214512Y-100825488D01*
X141664585Y-101275561D01*
X141664585Y-101500000D01*
X141694359Y-101658237D01*
X141787877Y-101803567D01*
X141930569Y-101901064D01*
X142099950Y-101935365D01*
X142900050Y-101935365D01*
X143058287Y-101905591D01*
X143203617Y-101812073D01*
X143301114Y-101669381D01*
X143335415Y-101500000D01*
X143335415Y-101186209D01*
X143356437Y-101154747D01*
X143427000Y-100800000D01*
X143356437Y-100445253D01*
X143335415Y-100413791D01*
X143335415Y-100100000D01*
X143305641Y-99941763D01*
X143212123Y-99796433D01*
X143069431Y-99698936D01*
X142900050Y-99664635D01*
X142797000Y-99664635D01*
X142797000Y-99116313D01*
X143062359Y-98719175D01*
X143160600Y-98225284D01*
X143160600Y-98174716D01*
X143062359Y-97680825D01*
X142782592Y-97262124D01*
X142363891Y-96982357D01*
X142100675Y-96930000D01*
X142363891Y-96877643D01*
X142782592Y-96597876D01*
X143062359Y-96179175D01*
X143160600Y-95685284D01*
X143160600Y-95634716D01*
X143062359Y-95140825D01*
X142782592Y-94722124D01*
X142363891Y-94442357D01*
X141870000Y-94344116D01*
X141376109Y-94442357D01*
X140957408Y-94722124D01*
X140677641Y-95140825D01*
X140600000Y-95531153D01*
X140522359Y-95140825D01*
X140242592Y-94722124D01*
X139823891Y-94442357D01*
X139330000Y-94344116D01*
X138836109Y-94442357D01*
X138417408Y-94722124D01*
X138137641Y-95140825D01*
X138060000Y-95531153D01*
X137982359Y-95140825D01*
X137702592Y-94722124D01*
X137283891Y-94442357D01*
X136790000Y-94344116D01*
X136296109Y-94442357D01*
X135877408Y-94722124D01*
X135597641Y-95140825D01*
X135520000Y-95531153D01*
X135442359Y-95140825D01*
X135162592Y-94722124D01*
X134743891Y-94442357D01*
X134250000Y-94344116D01*
X133756109Y-94442357D01*
X133337408Y-94722124D01*
X133057641Y-95140825D01*
X132959400Y-95634716D01*
X132959400Y-95685284D01*
X133057641Y-96179175D01*
X133337408Y-96597876D01*
X133756109Y-96877643D01*
X133873709Y-96901035D01*
X133386400Y-96901035D01*
X133228163Y-96930809D01*
X133082833Y-97024327D01*
X132985336Y-97167019D01*
X132951035Y-97336400D01*
X132951035Y-99063600D01*
X132980809Y-99221837D01*
X133074327Y-99367167D01*
X133217019Y-99464664D01*
X133323000Y-99486126D01*
X133323000Y-99874974D01*
X133309699Y-99861673D01*
X133076310Y-99765000D01*
X132883750Y-99765000D01*
X132725000Y-99923750D01*
X132725000Y-100700000D01*
X133426250Y-100700000D01*
X133564972Y-100561278D01*
X133594512Y-100605488D01*
X134264585Y-101275561D01*
X134264585Y-101500000D01*
X134294359Y-101658237D01*
X134387877Y-101803567D01*
X134530569Y-101901064D01*
X134699950Y-101935365D01*
X135500050Y-101935365D01*
X135658287Y-101905591D01*
X135803617Y-101812073D01*
X135901114Y-101669381D01*
X135935415Y-101500000D01*
X135935415Y-101186209D01*
X135956437Y-101154747D01*
X136027000Y-100800000D01*
X135956437Y-100445253D01*
X135935415Y-100413791D01*
X135935415Y-100100000D01*
X135905641Y-99941763D01*
X135812123Y-99796433D01*
X135669431Y-99698936D01*
X135500050Y-99664635D01*
X135275611Y-99664635D01*
X135177000Y-99566024D01*
X135177000Y-99487036D01*
X135271837Y-99469191D01*
X135417167Y-99375673D01*
X135514664Y-99232981D01*
X135548965Y-99063600D01*
X135548965Y-98474464D01*
X135597641Y-98719175D01*
X135877408Y-99137876D01*
X136296109Y-99417643D01*
X136473000Y-99452829D01*
X136473000Y-102065000D01*
X136408775Y-102065000D01*
X136250025Y-102223750D01*
X136250025Y-103050000D01*
X136450050Y-103050000D01*
X136450050Y-103750000D01*
X136250025Y-103750000D01*
X136250025Y-104100000D01*
X135849975Y-104100000D01*
X135849975Y-103750000D01*
X135173700Y-103750000D01*
X135014950Y-103908750D01*
X135014950Y-104100000D01*
X134985415Y-104100000D01*
X134985415Y-102700000D01*
X134961649Y-102573690D01*
X135014950Y-102573690D01*
X135014950Y-102891250D01*
X135173700Y-103050000D01*
X135849975Y-103050000D01*
X135849975Y-102223750D01*
X135691225Y-102065000D01*
X135523641Y-102065000D01*
X135290252Y-102161673D01*
X135111623Y-102340301D01*
X135014950Y-102573690D01*
X134961649Y-102573690D01*
X134955641Y-102541763D01*
X134862123Y-102396433D01*
X134719431Y-102298936D01*
X134550050Y-102264635D01*
X133749950Y-102264635D01*
X133591713Y-102294409D01*
X133446383Y-102387927D01*
X133367252Y-102503739D01*
X133355591Y-102441763D01*
X133262073Y-102296433D01*
X133172163Y-102235000D01*
X133623002Y-102235000D01*
X133623002Y-101600000D01*
X133585000Y-101600000D01*
X133585000Y-101458750D01*
X133426250Y-101300000D01*
X132725000Y-101300000D01*
X132725000Y-101600000D01*
X132275000Y-101600000D01*
X132275000Y-101300000D01*
X131573750Y-101300000D01*
X131415000Y-101458750D01*
X131415000Y-101600000D01*
X131376998Y-101600000D01*
X130232000Y-101600000D01*
X130232000Y-100273691D01*
X131415000Y-100273691D01*
X131415000Y-100541250D01*
X131573750Y-100700000D01*
X132275000Y-100700000D01*
X132275000Y-99923750D01*
X132116250Y-99765000D01*
X131923690Y-99765000D01*
X131690301Y-99861673D01*
X131511673Y-100040302D01*
X131415000Y-100273691D01*
X130232000Y-100273691D01*
X130232000Y-94842547D01*
X130283055Y-94585875D01*
X130404348Y-94404348D01*
X130585875Y-94283055D01*
X130842546Y-94232000D01*
X145157453Y-94232000D01*
X145414125Y-94283055D01*
M02*
