G04 #@! TF.FileFunction,Soldermask,Top*
%FSLAX46Y46*%
G04 Gerber Fmt 4.6, Leading zero omitted, Abs format (unit mm)*
G04 Created by KiCad (PCBNEW 4.0.2-stable) date 26.07.2016 22:42:36*
%MOMM*%
G01*
G04 APERTURE LIST*
%ADD10C,0.300000*%
%ADD11C,1.000000*%
%ADD12R,2.127200X2.127200*%
%ADD13O,2.127200X2.127200*%
%ADD14R,1.901140X3.399740*%
%ADD15R,2.200860X1.200100*%
%ADD16R,1.900000X1.700000*%
%ADD17R,1.460000X1.050000*%
G04 APERTURE END LIST*
D10*
D11*
X111850000Y-130050000D03*
X114900000Y-125900000D03*
X123400000Y-130750000D03*
X121450000Y-145200000D03*
X109550000Y-142450000D03*
X108550000Y-137450000D03*
X121900000Y-140300000D03*
X115200000Y-145000000D03*
X114800000Y-132000000D03*
X108000000Y-159250000D03*
X108250000Y-120250000D03*
X112100000Y-121100000D03*
X125000000Y-122600000D03*
X125600000Y-136400000D03*
X127900000Y-139600000D03*
X132900000Y-150800000D03*
X127600000Y-158500000D03*
X125800000Y-155800000D03*
X122000000Y-154400000D03*
X114800000Y-154400000D03*
D12*
X127960000Y-123750000D03*
D13*
X130500000Y-123750000D03*
X127960000Y-126290000D03*
X130500000Y-126290000D03*
X127960000Y-128830000D03*
X130500000Y-128830000D03*
X127960000Y-131370000D03*
X130500000Y-131370000D03*
X127960000Y-133910000D03*
X130500000Y-133910000D03*
D14*
X111900000Y-141800000D03*
X111900000Y-137802040D03*
D12*
X128060000Y-145350000D03*
D13*
X130600000Y-145350000D03*
X128060000Y-147890000D03*
X130600000Y-147890000D03*
X128060000Y-150430000D03*
X130600000Y-150430000D03*
X128060000Y-152970000D03*
X130600000Y-152970000D03*
X128060000Y-155510000D03*
X130600000Y-155510000D03*
D15*
X116998860Y-148800000D03*
X116998860Y-150700000D03*
X120001140Y-149750000D03*
X116998860Y-130800000D03*
X116998860Y-132700000D03*
X120001140Y-131750000D03*
X116998860Y-139800000D03*
X116998860Y-141700000D03*
X120001140Y-140750000D03*
X116998860Y-121800000D03*
X116998860Y-123700000D03*
X120001140Y-122750000D03*
D16*
X119850000Y-146750000D03*
X117150000Y-146750000D03*
X119850000Y-128750000D03*
X117150000Y-128750000D03*
X119850000Y-152750000D03*
X117150000Y-152750000D03*
X119850000Y-134750000D03*
X117150000Y-134750000D03*
X119850000Y-137750000D03*
X117150000Y-137750000D03*
X119850000Y-119750000D03*
X117150000Y-119750000D03*
X119850000Y-143750000D03*
X117150000Y-143750000D03*
X119850000Y-125750000D03*
X117150000Y-125750000D03*
D17*
X107150000Y-138550000D03*
X107150000Y-139500000D03*
X107150000Y-140450000D03*
X109350000Y-140450000D03*
X109350000Y-138550000D03*
D12*
X110000000Y-155600000D03*
D13*
X107460000Y-155600000D03*
X110000000Y-153060000D03*
X107460000Y-153060000D03*
X110000000Y-150520000D03*
X107460000Y-150520000D03*
X110000000Y-147980000D03*
X107460000Y-147980000D03*
X110000000Y-145440000D03*
X107460000Y-145440000D03*
D12*
X110000000Y-134000000D03*
D13*
X107460000Y-134000000D03*
X110000000Y-131460000D03*
X107460000Y-131460000D03*
X110000000Y-128920000D03*
X107460000Y-128920000D03*
X110000000Y-126380000D03*
X107460000Y-126380000D03*
X110000000Y-123840000D03*
X107460000Y-123840000D03*
D11*
X117200000Y-158800000D03*
M02*
