G04 #@! TF.FileFunction,Copper,L1,Top,Signal*
%FSLAX46Y46*%
G04 Gerber Fmt 4.6, Leading zero omitted, Abs format (unit mm)*
G04 Created by KiCad (PCBNEW 4.0.2-stable) date 26.07.2016 22:42:36*
%MOMM*%
G01*
G04 APERTURE LIST*
%ADD10C,0.300000*%
%ADD11C,0.600000*%
%ADD12R,1.727200X1.727200*%
%ADD13O,1.727200X1.727200*%
%ADD14R,1.501140X2.999740*%
%ADD15R,1.800860X0.800100*%
%ADD16R,1.500000X1.300000*%
%ADD17R,1.060000X0.650000*%
%ADD18C,0.500000*%
%ADD19C,0.350000*%
%ADD20C,0.254000*%
G04 APERTURE END LIST*
D10*
D11*
X111850000Y-130050000D03*
X114900000Y-125900000D03*
X123400000Y-130750000D03*
X121450000Y-145200000D03*
X109550000Y-142450000D03*
X108550000Y-137450000D03*
X121900000Y-140300000D03*
X115200000Y-145000000D03*
X114800000Y-132000000D03*
X108000000Y-159250000D03*
X108250000Y-120250000D03*
X112100000Y-121100000D03*
X125000000Y-122600000D03*
X125600000Y-136400000D03*
X127900000Y-139600000D03*
X132900000Y-150800000D03*
X127600000Y-158500000D03*
X125800000Y-155800000D03*
X122000000Y-154400000D03*
X114800000Y-154400000D03*
D12*
X127960000Y-123750000D03*
D13*
X130500000Y-123750000D03*
X127960000Y-126290000D03*
X130500000Y-126290000D03*
X127960000Y-128830000D03*
X130500000Y-128830000D03*
X127960000Y-131370000D03*
X130500000Y-131370000D03*
X127960000Y-133910000D03*
X130500000Y-133910000D03*
D14*
X111900000Y-141800000D03*
X111900000Y-137802040D03*
D12*
X128060000Y-145350000D03*
D13*
X130600000Y-145350000D03*
X128060000Y-147890000D03*
X130600000Y-147890000D03*
X128060000Y-150430000D03*
X130600000Y-150430000D03*
X128060000Y-152970000D03*
X130600000Y-152970000D03*
X128060000Y-155510000D03*
X130600000Y-155510000D03*
D15*
X116998860Y-148800000D03*
X116998860Y-150700000D03*
X120001140Y-149750000D03*
X116998860Y-130800000D03*
X116998860Y-132700000D03*
X120001140Y-131750000D03*
X116998860Y-139800000D03*
X116998860Y-141700000D03*
X120001140Y-140750000D03*
X116998860Y-121800000D03*
X116998860Y-123700000D03*
X120001140Y-122750000D03*
D16*
X119850000Y-146750000D03*
X117150000Y-146750000D03*
X119850000Y-128750000D03*
X117150000Y-128750000D03*
X119850000Y-152750000D03*
X117150000Y-152750000D03*
X119850000Y-134750000D03*
X117150000Y-134750000D03*
X119850000Y-137750000D03*
X117150000Y-137750000D03*
X119850000Y-119750000D03*
X117150000Y-119750000D03*
X119850000Y-143750000D03*
X117150000Y-143750000D03*
X119850000Y-125750000D03*
X117150000Y-125750000D03*
D17*
X107150000Y-138550000D03*
X107150000Y-139500000D03*
X107150000Y-140450000D03*
X109350000Y-140450000D03*
X109350000Y-138550000D03*
D12*
X110000000Y-155600000D03*
D13*
X107460000Y-155600000D03*
X110000000Y-153060000D03*
X107460000Y-153060000D03*
X110000000Y-150520000D03*
X107460000Y-150520000D03*
X110000000Y-147980000D03*
X107460000Y-147980000D03*
X110000000Y-145440000D03*
X107460000Y-145440000D03*
D12*
X110000000Y-134000000D03*
D13*
X107460000Y-134000000D03*
X110000000Y-131460000D03*
X107460000Y-131460000D03*
X110000000Y-128920000D03*
X107460000Y-128920000D03*
X110000000Y-126380000D03*
X107460000Y-126380000D03*
X110000000Y-123840000D03*
X107460000Y-123840000D03*
D11*
X117200000Y-158800000D03*
X108250000Y-139500000D03*
X119500000Y-145750000D03*
X121750000Y-122750000D03*
X121750000Y-128250000D03*
X121750000Y-131500000D03*
X121250000Y-138500000D03*
X113000000Y-138750000D03*
X112000000Y-156500000D03*
X130250000Y-140000000D03*
X131500000Y-140000000D03*
X133000000Y-140250000D03*
X122500000Y-134250000D03*
X124750000Y-129750000D03*
X125000000Y-134000000D03*
X122750000Y-139000000D03*
X107150000Y-137000000D03*
X107000000Y-141500000D03*
X122500000Y-143000000D03*
X113400000Y-127700000D03*
X115800000Y-128350000D03*
X113250000Y-129500000D03*
D18*
X107150000Y-139500000D02*
X108250000Y-139500000D01*
X110250000Y-137250000D02*
X110250000Y-134250000D01*
X110250000Y-134250000D02*
X110000000Y-134000000D01*
X111900000Y-141800000D02*
X110450000Y-141800000D01*
X110450000Y-141800000D02*
X109750000Y-142500000D01*
X119500000Y-145750000D02*
X119500000Y-146400000D01*
X119500000Y-146400000D02*
X119850000Y-146750000D01*
X121750000Y-122750000D02*
X120001140Y-122750000D01*
X121750000Y-131500000D02*
X121750000Y-128250000D01*
X120001140Y-131750000D02*
X121500000Y-131750000D01*
X121500000Y-131750000D02*
X121750000Y-131500000D01*
X121250000Y-138500000D02*
X120600000Y-138500000D01*
X120600000Y-138500000D02*
X119850000Y-137750000D01*
X111900000Y-137802040D02*
X112052040Y-137802040D01*
X112052040Y-137802040D02*
X113000000Y-138750000D01*
D19*
X120001140Y-149750000D02*
X120001140Y-146901140D01*
X120001140Y-146901140D02*
X119850000Y-146750000D01*
X120001140Y-122750000D02*
X120001140Y-119901140D01*
X120001140Y-119901140D02*
X119850000Y-119750000D01*
X120001140Y-131750000D02*
X120001140Y-128901140D01*
X120001140Y-128901140D02*
X119850000Y-128750000D01*
X120001140Y-140750000D02*
X120001140Y-137901140D01*
X120001140Y-137901140D02*
X119850000Y-137750000D01*
D18*
X109350000Y-138550000D02*
X111152040Y-138550000D01*
X111152040Y-138550000D02*
X111900000Y-137802040D01*
D19*
X108750000Y-146730000D02*
X108750000Y-148563130D01*
X107460000Y-145440000D02*
X108750000Y-146730000D01*
X109436870Y-149250000D02*
X110750000Y-149250000D01*
X108750000Y-148563130D02*
X109436870Y-149250000D01*
X110750000Y-149250000D02*
X112000000Y-150500000D01*
X112000000Y-150500000D02*
X112000000Y-156500000D01*
X130500000Y-131370000D02*
X131721314Y-131370000D01*
X131721314Y-131370000D02*
X132399980Y-132048666D01*
X132399980Y-132048666D02*
X132399980Y-137850020D01*
X132399980Y-137850020D02*
X131750000Y-138500000D01*
X131750000Y-138500000D02*
X130250000Y-140000000D01*
X132949990Y-138550010D02*
X132949990Y-130250000D01*
X130500000Y-128830000D02*
X131721314Y-128830000D01*
X131721314Y-128830000D02*
X132949990Y-130058676D01*
X132949990Y-130058676D02*
X132949990Y-130250000D01*
X131500000Y-140000000D02*
X132949990Y-138550010D01*
X130500000Y-126290000D02*
X131721314Y-126290000D01*
X131721314Y-126290000D02*
X133500000Y-128068686D01*
X133500000Y-128068686D02*
X133500000Y-139750000D01*
X133500000Y-139750000D02*
X133000000Y-140250000D01*
X107460000Y-150520000D02*
X107460000Y-151226870D01*
D18*
X119850000Y-134750000D02*
X122000000Y-134750000D01*
X122000000Y-134750000D02*
X122500000Y-134250000D01*
X119850000Y-125750000D02*
X121100000Y-125750000D01*
X121100000Y-125750000D02*
X124450001Y-129100001D01*
X124450001Y-129100001D02*
X124450001Y-129450001D01*
X124750000Y-129750000D02*
X124450001Y-129450001D01*
X122750000Y-135750000D02*
X123250000Y-135750000D01*
X123250000Y-135750000D02*
X125000000Y-134000000D01*
X122750000Y-135750000D02*
X121750000Y-134750000D01*
X121750000Y-134750000D02*
X119850000Y-134750000D01*
X122750000Y-139000000D02*
X122750000Y-135750000D01*
X119850000Y-143750000D02*
X121100000Y-143750000D01*
X119850000Y-152750000D02*
X121100000Y-152750000D01*
X107150000Y-138550000D02*
X107150000Y-137000000D01*
X107150000Y-137000000D02*
X107150000Y-134310000D01*
X107150000Y-140450000D02*
X107150000Y-141350000D01*
X107150000Y-141350000D02*
X107000000Y-141500000D01*
X107150000Y-134310000D02*
X107460000Y-134000000D01*
X125330000Y-145420000D02*
X127960000Y-145420000D01*
X122750000Y-148000000D02*
X122750000Y-144250000D01*
X122750000Y-144250000D02*
X122500000Y-144000000D01*
X122500000Y-144000000D02*
X122500000Y-143000000D01*
X121750000Y-143750000D02*
X122500000Y-143000000D01*
X122750000Y-151100000D02*
X122750000Y-148000000D01*
X122750000Y-148000000D02*
X125330000Y-145420000D01*
X121100000Y-143750000D02*
X121750000Y-143750000D01*
X121100000Y-152750000D02*
X122750000Y-151100000D01*
D19*
X117150000Y-146750000D02*
X113750000Y-146750000D01*
X113750000Y-146750000D02*
X113100000Y-146100000D01*
X113100000Y-146100000D02*
X113100000Y-144850000D01*
X113100000Y-144850000D02*
X114750000Y-143200000D01*
X113949990Y-134199990D02*
X112448601Y-132698601D01*
X112448601Y-132698601D02*
X108698601Y-132698601D01*
X114750000Y-143200000D02*
X114750000Y-138000000D01*
X114750000Y-138000000D02*
X113949990Y-137199990D01*
X108698601Y-132698601D02*
X107460000Y-131460000D01*
X113949990Y-137199990D02*
X113949990Y-134199990D01*
X117150000Y-146750000D02*
X117150000Y-148648860D01*
X117150000Y-148648860D02*
X116998860Y-148800000D01*
X116998860Y-121800000D02*
X116998860Y-119901140D01*
X116998860Y-119901140D02*
X117150000Y-119750000D01*
X110000000Y-126380000D02*
X112418860Y-126380000D01*
X112418860Y-126380000D02*
X115748430Y-123050430D01*
X115748430Y-123050430D02*
X115748430Y-122550050D01*
X115748430Y-122550050D02*
X116498480Y-121800000D01*
X116498480Y-121800000D02*
X116998860Y-121800000D01*
X113400000Y-127700000D02*
X112950000Y-127700000D01*
X112950000Y-127700000D02*
X112931399Y-127681399D01*
X115800000Y-128350000D02*
X116750000Y-128350000D01*
X116750000Y-128350000D02*
X117150000Y-128750000D01*
X107460000Y-126380000D02*
X108681399Y-127601399D01*
X108681399Y-127681399D02*
X112931399Y-127681399D01*
X108681399Y-127601399D02*
X108681399Y-127681399D01*
X116998860Y-130800000D02*
X116998860Y-128901140D01*
X116998860Y-128901140D02*
X117150000Y-128750000D01*
X113250000Y-129500000D02*
X113250000Y-132450000D01*
X113250000Y-132450000D02*
X114500000Y-133700000D01*
X114500000Y-133700000D02*
X114500000Y-136500000D01*
X114500000Y-136500000D02*
X115750000Y-137750000D01*
X115750000Y-137750000D02*
X117150000Y-137750000D01*
X117150000Y-137750000D02*
X117150000Y-139648860D01*
X117150000Y-139648860D02*
X116998860Y-139800000D01*
X120900000Y-157500000D02*
X129793600Y-157500000D01*
X129793600Y-157500000D02*
X130500000Y-156793600D01*
X130500000Y-156793600D02*
X130500000Y-155580000D01*
X130500000Y-155580000D02*
X130272798Y-155580000D01*
X117150000Y-152750000D02*
X117150000Y-153750000D01*
X117150000Y-153750000D02*
X120900000Y-157500000D01*
X117150000Y-152750000D02*
X117150000Y-150851140D01*
X117150000Y-150851140D02*
X116998860Y-150700000D01*
X122000000Y-142000000D02*
X127960000Y-136040000D01*
X127960000Y-136040000D02*
X127960000Y-133910000D01*
X118549290Y-142000000D02*
X122000000Y-142000000D01*
X118249290Y-141700000D02*
X118549290Y-142000000D01*
X116998860Y-141700000D02*
X118249290Y-141700000D01*
X116998860Y-141700000D02*
X116998860Y-143598860D01*
X116998860Y-143598860D02*
X117150000Y-143750000D01*
X124000000Y-133250000D02*
X125880000Y-131370000D01*
X125880000Y-131370000D02*
X127960000Y-131370000D01*
X118799290Y-133250000D02*
X124000000Y-133250000D01*
X118249290Y-132700000D02*
X118799290Y-133250000D01*
X116998860Y-132700000D02*
X118249290Y-132700000D01*
X116998860Y-132700000D02*
X116998860Y-134598860D01*
X116998860Y-134598860D02*
X117150000Y-134750000D01*
X121000000Y-124000000D02*
X125830000Y-128830000D01*
X125830000Y-128830000D02*
X127960000Y-128830000D01*
X118549290Y-124000000D02*
X121000000Y-124000000D01*
X118249290Y-123700000D02*
X118549290Y-124000000D01*
X116998860Y-123700000D02*
X118249290Y-123700000D01*
X116998860Y-123700000D02*
X116998860Y-125598860D01*
X116998860Y-125598860D02*
X117150000Y-125750000D01*
D20*
G36*
X129440330Y-134999029D02*
X129926511Y-135323885D01*
X130500000Y-135437959D01*
X131073489Y-135323885D01*
X131559670Y-134999029D01*
X131589980Y-134953667D01*
X131589980Y-137514507D01*
X131177246Y-137927242D01*
X131177243Y-137927244D01*
X130021917Y-139082570D01*
X129721057Y-139206883D01*
X129457808Y-139469673D01*
X129315162Y-139813201D01*
X129314838Y-140185167D01*
X129456883Y-140528943D01*
X129719673Y-140792192D01*
X130063201Y-140934838D01*
X130435167Y-140935162D01*
X130778943Y-140793117D01*
X130874937Y-140697290D01*
X130969673Y-140792192D01*
X131313201Y-140934838D01*
X131685167Y-140935162D01*
X132028943Y-140793117D01*
X132159067Y-140663220D01*
X132206883Y-140778943D01*
X132469673Y-141042192D01*
X132813201Y-141184838D01*
X133185167Y-141185162D01*
X133528943Y-141043117D01*
X133790000Y-140782515D01*
X133790000Y-156430069D01*
X133450592Y-158136390D01*
X132523654Y-159523651D01*
X131136390Y-160450592D01*
X129430069Y-160790000D01*
X110819931Y-160790000D01*
X109113610Y-160450592D01*
X107726349Y-159523654D01*
X106799408Y-158136390D01*
X106526317Y-156763469D01*
X106857152Y-156984526D01*
X107430641Y-157098600D01*
X107489359Y-157098600D01*
X108062848Y-156984526D01*
X108528442Y-156673426D01*
X108533238Y-156698917D01*
X108672310Y-156915041D01*
X108884510Y-157060031D01*
X109136400Y-157111040D01*
X110863600Y-157111040D01*
X111098917Y-157066762D01*
X111196551Y-157003937D01*
X111206883Y-157028943D01*
X111469673Y-157292192D01*
X111813201Y-157434838D01*
X112185167Y-157435162D01*
X112528943Y-157293117D01*
X112792192Y-157030327D01*
X112934838Y-156686799D01*
X112935162Y-156314833D01*
X112810000Y-156011917D01*
X112810000Y-150500000D01*
X112748342Y-150190026D01*
X112661461Y-150060000D01*
X112572757Y-149927244D01*
X111327815Y-148682303D01*
X111413885Y-148553489D01*
X111527959Y-147980000D01*
X111413885Y-147406511D01*
X111089029Y-146920330D01*
X110774248Y-146710000D01*
X111089029Y-146499670D01*
X111413885Y-146013489D01*
X111527959Y-145440000D01*
X111413885Y-144866511D01*
X111089029Y-144380330D01*
X110602848Y-144055474D01*
X110029359Y-143941400D01*
X109970641Y-143941400D01*
X109397152Y-144055474D01*
X108910971Y-144380330D01*
X108730000Y-144651172D01*
X108549029Y-144380330D01*
X108062848Y-144055474D01*
X107489359Y-143941400D01*
X107430641Y-143941400D01*
X106857152Y-144055474D01*
X106460000Y-144320843D01*
X106460000Y-142282502D01*
X106469673Y-142292192D01*
X106813201Y-142434838D01*
X107185167Y-142435162D01*
X107528943Y-142293117D01*
X107736672Y-142085750D01*
X110514430Y-142085750D01*
X110514430Y-143426179D01*
X110611103Y-143659568D01*
X110789731Y-143838197D01*
X111023120Y-143934870D01*
X111614250Y-143934870D01*
X111773000Y-143776120D01*
X111773000Y-141927000D01*
X110673180Y-141927000D01*
X110514430Y-142085750D01*
X107736672Y-142085750D01*
X107792192Y-142030327D01*
X107878942Y-141821412D01*
X107967633Y-141688675D01*
X107993228Y-141560000D01*
X108035001Y-141350000D01*
X108035000Y-141349995D01*
X108035000Y-141301148D01*
X108131441Y-141239090D01*
X108251233Y-141063768D01*
X108355910Y-141226441D01*
X108568110Y-141371431D01*
X108820000Y-141422440D01*
X109880000Y-141422440D01*
X110115317Y-141378162D01*
X110331441Y-141239090D01*
X110476431Y-141026890D01*
X110514430Y-140839245D01*
X110514430Y-141514250D01*
X110673180Y-141673000D01*
X111773000Y-141673000D01*
X111773000Y-141653000D01*
X112027000Y-141653000D01*
X112027000Y-141673000D01*
X113126820Y-141673000D01*
X113285570Y-141514250D01*
X113285570Y-140173821D01*
X113188897Y-139940432D01*
X113048743Y-139800277D01*
X113102011Y-139766000D01*
X113157262Y-139685138D01*
X113185167Y-139685162D01*
X113528943Y-139543117D01*
X113792192Y-139280327D01*
X113934838Y-138936799D01*
X113935162Y-138564833D01*
X113793117Y-138221057D01*
X113530327Y-137957808D01*
X113409013Y-137907434D01*
X113298010Y-137796431D01*
X113298010Y-137654179D01*
X113362036Y-137750000D01*
X113377234Y-137772746D01*
X113940000Y-138335512D01*
X113940000Y-142864487D01*
X113219994Y-143584494D01*
X113285570Y-143426179D01*
X113285570Y-142085750D01*
X113126820Y-141927000D01*
X112027000Y-141927000D01*
X112027000Y-143776120D01*
X112185750Y-143934870D01*
X112776880Y-143934870D01*
X112935193Y-143869294D01*
X112527244Y-144277244D01*
X112351658Y-144540026D01*
X112290000Y-144850000D01*
X112290000Y-146100000D01*
X112351658Y-146409974D01*
X112440004Y-146542192D01*
X112527244Y-146672756D01*
X113177244Y-147322757D01*
X113440027Y-147498343D01*
X113577897Y-147525766D01*
X113750000Y-147560000D01*
X115782666Y-147560000D01*
X115796838Y-147635317D01*
X115896678Y-147790472D01*
X115863113Y-147796788D01*
X115646989Y-147935860D01*
X115501999Y-148148060D01*
X115450990Y-148399950D01*
X115450990Y-149200050D01*
X115495268Y-149435367D01*
X115634340Y-149651491D01*
X115779437Y-149750632D01*
X115646989Y-149835860D01*
X115501999Y-150048060D01*
X115450990Y-150299950D01*
X115450990Y-151100050D01*
X115495268Y-151335367D01*
X115634340Y-151551491D01*
X115846540Y-151696481D01*
X115899803Y-151707267D01*
X115803569Y-151848110D01*
X115752560Y-152100000D01*
X115752560Y-153400000D01*
X115796838Y-153635317D01*
X115935910Y-153851441D01*
X116148110Y-153996431D01*
X116399130Y-154047264D01*
X116401658Y-154059974D01*
X116505560Y-154215474D01*
X116577244Y-154322756D01*
X120327244Y-158072757D01*
X120590027Y-158248343D01*
X120723551Y-158274902D01*
X120900000Y-158310000D01*
X129793600Y-158310000D01*
X130103574Y-158248342D01*
X130366356Y-158072756D01*
X131072756Y-157366357D01*
X131177230Y-157210000D01*
X131248342Y-157103574D01*
X131301037Y-156838660D01*
X131659670Y-156599029D01*
X131984526Y-156112848D01*
X132098600Y-155539359D01*
X132098600Y-155480641D01*
X131984526Y-154907152D01*
X131659670Y-154420971D01*
X131388828Y-154240000D01*
X131659670Y-154059029D01*
X131984526Y-153572848D01*
X132098600Y-152999359D01*
X132098600Y-152940641D01*
X131984526Y-152367152D01*
X131659670Y-151880971D01*
X131388828Y-151700000D01*
X131659670Y-151519029D01*
X131984526Y-151032848D01*
X132098600Y-150459359D01*
X132098600Y-150400641D01*
X131984526Y-149827152D01*
X131659670Y-149340971D01*
X131388828Y-149160000D01*
X131659670Y-148979029D01*
X131984526Y-148492848D01*
X132098600Y-147919359D01*
X132098600Y-147860641D01*
X131984526Y-147287152D01*
X131659670Y-146800971D01*
X131388839Y-146620008D01*
X131806821Y-146238490D01*
X132054968Y-145709027D01*
X131934469Y-145477000D01*
X130727000Y-145477000D01*
X130727000Y-145497000D01*
X130473000Y-145497000D01*
X130473000Y-145477000D01*
X130453000Y-145477000D01*
X130453000Y-145223000D01*
X130473000Y-145223000D01*
X130473000Y-144016183D01*
X130727000Y-144016183D01*
X130727000Y-145223000D01*
X131934469Y-145223000D01*
X132054968Y-144990973D01*
X131806821Y-144461510D01*
X131374947Y-144067312D01*
X130959026Y-143895042D01*
X130727000Y-144016183D01*
X130473000Y-144016183D01*
X130240974Y-143895042D01*
X129825053Y-144067312D01*
X129540973Y-144326609D01*
X129526762Y-144251083D01*
X129387690Y-144034959D01*
X129175490Y-143889969D01*
X128923600Y-143838960D01*
X127196400Y-143838960D01*
X126961083Y-143883238D01*
X126744959Y-144022310D01*
X126599969Y-144234510D01*
X126548960Y-144486400D01*
X126548960Y-144535000D01*
X125330005Y-144535000D01*
X125330000Y-144534999D01*
X125060164Y-144588674D01*
X124991325Y-144602367D01*
X124704210Y-144794210D01*
X124704208Y-144794213D01*
X123635000Y-145863421D01*
X123635000Y-144250000D01*
X123567633Y-143911325D01*
X123385000Y-143637994D01*
X123385000Y-143306822D01*
X123434838Y-143186799D01*
X123435162Y-142814833D01*
X123293117Y-142471057D01*
X123030327Y-142207808D01*
X122964880Y-142180632D01*
X128532757Y-136612756D01*
X128708343Y-136349973D01*
X128736805Y-136206883D01*
X128770000Y-136040000D01*
X128770000Y-135165853D01*
X129019670Y-134999029D01*
X129230000Y-134684248D01*
X129440330Y-134999029D01*
X129440330Y-134999029D01*
G37*
X129440330Y-134999029D02*
X129926511Y-135323885D01*
X130500000Y-135437959D01*
X131073489Y-135323885D01*
X131559670Y-134999029D01*
X131589980Y-134953667D01*
X131589980Y-137514507D01*
X131177246Y-137927242D01*
X131177243Y-137927244D01*
X130021917Y-139082570D01*
X129721057Y-139206883D01*
X129457808Y-139469673D01*
X129315162Y-139813201D01*
X129314838Y-140185167D01*
X129456883Y-140528943D01*
X129719673Y-140792192D01*
X130063201Y-140934838D01*
X130435167Y-140935162D01*
X130778943Y-140793117D01*
X130874937Y-140697290D01*
X130969673Y-140792192D01*
X131313201Y-140934838D01*
X131685167Y-140935162D01*
X132028943Y-140793117D01*
X132159067Y-140663220D01*
X132206883Y-140778943D01*
X132469673Y-141042192D01*
X132813201Y-141184838D01*
X133185167Y-141185162D01*
X133528943Y-141043117D01*
X133790000Y-140782515D01*
X133790000Y-156430069D01*
X133450592Y-158136390D01*
X132523654Y-159523651D01*
X131136390Y-160450592D01*
X129430069Y-160790000D01*
X110819931Y-160790000D01*
X109113610Y-160450592D01*
X107726349Y-159523654D01*
X106799408Y-158136390D01*
X106526317Y-156763469D01*
X106857152Y-156984526D01*
X107430641Y-157098600D01*
X107489359Y-157098600D01*
X108062848Y-156984526D01*
X108528442Y-156673426D01*
X108533238Y-156698917D01*
X108672310Y-156915041D01*
X108884510Y-157060031D01*
X109136400Y-157111040D01*
X110863600Y-157111040D01*
X111098917Y-157066762D01*
X111196551Y-157003937D01*
X111206883Y-157028943D01*
X111469673Y-157292192D01*
X111813201Y-157434838D01*
X112185167Y-157435162D01*
X112528943Y-157293117D01*
X112792192Y-157030327D01*
X112934838Y-156686799D01*
X112935162Y-156314833D01*
X112810000Y-156011917D01*
X112810000Y-150500000D01*
X112748342Y-150190026D01*
X112661461Y-150060000D01*
X112572757Y-149927244D01*
X111327815Y-148682303D01*
X111413885Y-148553489D01*
X111527959Y-147980000D01*
X111413885Y-147406511D01*
X111089029Y-146920330D01*
X110774248Y-146710000D01*
X111089029Y-146499670D01*
X111413885Y-146013489D01*
X111527959Y-145440000D01*
X111413885Y-144866511D01*
X111089029Y-144380330D01*
X110602848Y-144055474D01*
X110029359Y-143941400D01*
X109970641Y-143941400D01*
X109397152Y-144055474D01*
X108910971Y-144380330D01*
X108730000Y-144651172D01*
X108549029Y-144380330D01*
X108062848Y-144055474D01*
X107489359Y-143941400D01*
X107430641Y-143941400D01*
X106857152Y-144055474D01*
X106460000Y-144320843D01*
X106460000Y-142282502D01*
X106469673Y-142292192D01*
X106813201Y-142434838D01*
X107185167Y-142435162D01*
X107528943Y-142293117D01*
X107736672Y-142085750D01*
X110514430Y-142085750D01*
X110514430Y-143426179D01*
X110611103Y-143659568D01*
X110789731Y-143838197D01*
X111023120Y-143934870D01*
X111614250Y-143934870D01*
X111773000Y-143776120D01*
X111773000Y-141927000D01*
X110673180Y-141927000D01*
X110514430Y-142085750D01*
X107736672Y-142085750D01*
X107792192Y-142030327D01*
X107878942Y-141821412D01*
X107967633Y-141688675D01*
X107993228Y-141560000D01*
X108035001Y-141350000D01*
X108035000Y-141349995D01*
X108035000Y-141301148D01*
X108131441Y-141239090D01*
X108251233Y-141063768D01*
X108355910Y-141226441D01*
X108568110Y-141371431D01*
X108820000Y-141422440D01*
X109880000Y-141422440D01*
X110115317Y-141378162D01*
X110331441Y-141239090D01*
X110476431Y-141026890D01*
X110514430Y-140839245D01*
X110514430Y-141514250D01*
X110673180Y-141673000D01*
X111773000Y-141673000D01*
X111773000Y-141653000D01*
X112027000Y-141653000D01*
X112027000Y-141673000D01*
X113126820Y-141673000D01*
X113285570Y-141514250D01*
X113285570Y-140173821D01*
X113188897Y-139940432D01*
X113048743Y-139800277D01*
X113102011Y-139766000D01*
X113157262Y-139685138D01*
X113185167Y-139685162D01*
X113528943Y-139543117D01*
X113792192Y-139280327D01*
X113934838Y-138936799D01*
X113935162Y-138564833D01*
X113793117Y-138221057D01*
X113530327Y-137957808D01*
X113409013Y-137907434D01*
X113298010Y-137796431D01*
X113298010Y-137654179D01*
X113362036Y-137750000D01*
X113377234Y-137772746D01*
X113940000Y-138335512D01*
X113940000Y-142864487D01*
X113219994Y-143584494D01*
X113285570Y-143426179D01*
X113285570Y-142085750D01*
X113126820Y-141927000D01*
X112027000Y-141927000D01*
X112027000Y-143776120D01*
X112185750Y-143934870D01*
X112776880Y-143934870D01*
X112935193Y-143869294D01*
X112527244Y-144277244D01*
X112351658Y-144540026D01*
X112290000Y-144850000D01*
X112290000Y-146100000D01*
X112351658Y-146409974D01*
X112440004Y-146542192D01*
X112527244Y-146672756D01*
X113177244Y-147322757D01*
X113440027Y-147498343D01*
X113577897Y-147525766D01*
X113750000Y-147560000D01*
X115782666Y-147560000D01*
X115796838Y-147635317D01*
X115896678Y-147790472D01*
X115863113Y-147796788D01*
X115646989Y-147935860D01*
X115501999Y-148148060D01*
X115450990Y-148399950D01*
X115450990Y-149200050D01*
X115495268Y-149435367D01*
X115634340Y-149651491D01*
X115779437Y-149750632D01*
X115646989Y-149835860D01*
X115501999Y-150048060D01*
X115450990Y-150299950D01*
X115450990Y-151100050D01*
X115495268Y-151335367D01*
X115634340Y-151551491D01*
X115846540Y-151696481D01*
X115899803Y-151707267D01*
X115803569Y-151848110D01*
X115752560Y-152100000D01*
X115752560Y-153400000D01*
X115796838Y-153635317D01*
X115935910Y-153851441D01*
X116148110Y-153996431D01*
X116399130Y-154047264D01*
X116401658Y-154059974D01*
X116505560Y-154215474D01*
X116577244Y-154322756D01*
X120327244Y-158072757D01*
X120590027Y-158248343D01*
X120723551Y-158274902D01*
X120900000Y-158310000D01*
X129793600Y-158310000D01*
X130103574Y-158248342D01*
X130366356Y-158072756D01*
X131072756Y-157366357D01*
X131177230Y-157210000D01*
X131248342Y-157103574D01*
X131301037Y-156838660D01*
X131659670Y-156599029D01*
X131984526Y-156112848D01*
X132098600Y-155539359D01*
X132098600Y-155480641D01*
X131984526Y-154907152D01*
X131659670Y-154420971D01*
X131388828Y-154240000D01*
X131659670Y-154059029D01*
X131984526Y-153572848D01*
X132098600Y-152999359D01*
X132098600Y-152940641D01*
X131984526Y-152367152D01*
X131659670Y-151880971D01*
X131388828Y-151700000D01*
X131659670Y-151519029D01*
X131984526Y-151032848D01*
X132098600Y-150459359D01*
X132098600Y-150400641D01*
X131984526Y-149827152D01*
X131659670Y-149340971D01*
X131388828Y-149160000D01*
X131659670Y-148979029D01*
X131984526Y-148492848D01*
X132098600Y-147919359D01*
X132098600Y-147860641D01*
X131984526Y-147287152D01*
X131659670Y-146800971D01*
X131388839Y-146620008D01*
X131806821Y-146238490D01*
X132054968Y-145709027D01*
X131934469Y-145477000D01*
X130727000Y-145477000D01*
X130727000Y-145497000D01*
X130473000Y-145497000D01*
X130473000Y-145477000D01*
X130453000Y-145477000D01*
X130453000Y-145223000D01*
X130473000Y-145223000D01*
X130473000Y-144016183D01*
X130727000Y-144016183D01*
X130727000Y-145223000D01*
X131934469Y-145223000D01*
X132054968Y-144990973D01*
X131806821Y-144461510D01*
X131374947Y-144067312D01*
X130959026Y-143895042D01*
X130727000Y-144016183D01*
X130473000Y-144016183D01*
X130240974Y-143895042D01*
X129825053Y-144067312D01*
X129540973Y-144326609D01*
X129526762Y-144251083D01*
X129387690Y-144034959D01*
X129175490Y-143889969D01*
X128923600Y-143838960D01*
X127196400Y-143838960D01*
X126961083Y-143883238D01*
X126744959Y-144022310D01*
X126599969Y-144234510D01*
X126548960Y-144486400D01*
X126548960Y-144535000D01*
X125330005Y-144535000D01*
X125330000Y-144534999D01*
X125060164Y-144588674D01*
X124991325Y-144602367D01*
X124704210Y-144794210D01*
X124704208Y-144794213D01*
X123635000Y-145863421D01*
X123635000Y-144250000D01*
X123567633Y-143911325D01*
X123385000Y-143637994D01*
X123385000Y-143306822D01*
X123434838Y-143186799D01*
X123435162Y-142814833D01*
X123293117Y-142471057D01*
X123030327Y-142207808D01*
X122964880Y-142180632D01*
X128532757Y-136612756D01*
X128708343Y-136349973D01*
X128736805Y-136206883D01*
X128770000Y-136040000D01*
X128770000Y-135165853D01*
X129019670Y-134999029D01*
X129230000Y-134684248D01*
X129440330Y-134999029D01*
G36*
X126593238Y-146448917D02*
X126732310Y-146665041D01*
X126944510Y-146810031D01*
X126988345Y-146818908D01*
X126675474Y-147287152D01*
X126561400Y-147860641D01*
X126561400Y-147919359D01*
X126675474Y-148492848D01*
X127000330Y-148979029D01*
X127271172Y-149160000D01*
X127000330Y-149340971D01*
X126675474Y-149827152D01*
X126561400Y-150400641D01*
X126561400Y-150459359D01*
X126675474Y-151032848D01*
X127000330Y-151519029D01*
X127271172Y-151700000D01*
X127000330Y-151880971D01*
X126675474Y-152367152D01*
X126561400Y-152940641D01*
X126561400Y-152999359D01*
X126675474Y-153572848D01*
X127000330Y-154059029D01*
X127271172Y-154240000D01*
X127000330Y-154420971D01*
X126675474Y-154907152D01*
X126561400Y-155480641D01*
X126561400Y-155539359D01*
X126675474Y-156112848D01*
X127000330Y-156599029D01*
X127136478Y-156690000D01*
X121235513Y-156690000D01*
X118375050Y-153829538D01*
X118496431Y-153651890D01*
X118499081Y-153638803D01*
X118635910Y-153851441D01*
X118848110Y-153996431D01*
X119100000Y-154047440D01*
X120600000Y-154047440D01*
X120835317Y-154003162D01*
X121051441Y-153864090D01*
X121196431Y-153651890D01*
X121204042Y-153614305D01*
X121382484Y-153578810D01*
X121438675Y-153567633D01*
X121725790Y-153375790D01*
X123375787Y-151725792D01*
X123375790Y-151725790D01*
X123567633Y-151438675D01*
X123635000Y-151100000D01*
X123635000Y-148366580D01*
X125696579Y-146305000D01*
X126566158Y-146305000D01*
X126593238Y-146448917D01*
X126593238Y-146448917D01*
G37*
X126593238Y-146448917D02*
X126732310Y-146665041D01*
X126944510Y-146810031D01*
X126988345Y-146818908D01*
X126675474Y-147287152D01*
X126561400Y-147860641D01*
X126561400Y-147919359D01*
X126675474Y-148492848D01*
X127000330Y-148979029D01*
X127271172Y-149160000D01*
X127000330Y-149340971D01*
X126675474Y-149827152D01*
X126561400Y-150400641D01*
X126561400Y-150459359D01*
X126675474Y-151032848D01*
X127000330Y-151519029D01*
X127271172Y-151700000D01*
X127000330Y-151880971D01*
X126675474Y-152367152D01*
X126561400Y-152940641D01*
X126561400Y-152999359D01*
X126675474Y-153572848D01*
X127000330Y-154059029D01*
X127271172Y-154240000D01*
X127000330Y-154420971D01*
X126675474Y-154907152D01*
X126561400Y-155480641D01*
X126561400Y-155539359D01*
X126675474Y-156112848D01*
X127000330Y-156599029D01*
X127136478Y-156690000D01*
X121235513Y-156690000D01*
X118375050Y-153829538D01*
X118496431Y-153651890D01*
X118499081Y-153638803D01*
X118635910Y-153851441D01*
X118848110Y-153996431D01*
X119100000Y-154047440D01*
X120600000Y-154047440D01*
X120835317Y-154003162D01*
X121051441Y-153864090D01*
X121196431Y-153651890D01*
X121204042Y-153614305D01*
X121382484Y-153578810D01*
X121438675Y-153567633D01*
X121725790Y-153375790D01*
X123375787Y-151725792D01*
X123375790Y-151725790D01*
X123567633Y-151438675D01*
X123635000Y-151100000D01*
X123635000Y-148366580D01*
X125696579Y-146305000D01*
X126566158Y-146305000D01*
X126593238Y-146448917D01*
G36*
X121865000Y-147999995D02*
X121864999Y-148000000D01*
X121865000Y-148000005D01*
X121865000Y-150733421D01*
X120996229Y-151602191D01*
X120851890Y-151503569D01*
X120600000Y-151452560D01*
X119100000Y-151452560D01*
X118864683Y-151496838D01*
X118648559Y-151635910D01*
X118503569Y-151848110D01*
X118500919Y-151861197D01*
X118364090Y-151648559D01*
X118293983Y-151600657D01*
X118350731Y-151564140D01*
X118495721Y-151351940D01*
X118546730Y-151100050D01*
X118546730Y-150461798D01*
X118636620Y-150601491D01*
X118848820Y-150746481D01*
X119100710Y-150797490D01*
X120901570Y-150797490D01*
X121136887Y-150753212D01*
X121353011Y-150614140D01*
X121498001Y-150401940D01*
X121549010Y-150150050D01*
X121549010Y-149349950D01*
X121504732Y-149114633D01*
X121365660Y-148898509D01*
X121153460Y-148753519D01*
X120901570Y-148702510D01*
X120811140Y-148702510D01*
X120811140Y-148007711D01*
X120835317Y-148003162D01*
X121051441Y-147864090D01*
X121196431Y-147651890D01*
X121247440Y-147400000D01*
X121247440Y-146100000D01*
X121203162Y-145864683D01*
X121064090Y-145648559D01*
X120851890Y-145503569D01*
X120600000Y-145452560D01*
X120388772Y-145452560D01*
X120293117Y-145221057D01*
X120119803Y-145047440D01*
X120600000Y-145047440D01*
X120835317Y-145003162D01*
X121051441Y-144864090D01*
X121196431Y-144651890D01*
X121199851Y-144635000D01*
X121749995Y-144635000D01*
X121750000Y-144635001D01*
X121865000Y-144612126D01*
X121865000Y-147999995D01*
X121865000Y-147999995D01*
G37*
X121865000Y-147999995D02*
X121864999Y-148000000D01*
X121865000Y-148000005D01*
X121865000Y-150733421D01*
X120996229Y-151602191D01*
X120851890Y-151503569D01*
X120600000Y-151452560D01*
X119100000Y-151452560D01*
X118864683Y-151496838D01*
X118648559Y-151635910D01*
X118503569Y-151848110D01*
X118500919Y-151861197D01*
X118364090Y-151648559D01*
X118293983Y-151600657D01*
X118350731Y-151564140D01*
X118495721Y-151351940D01*
X118546730Y-151100050D01*
X118546730Y-150461798D01*
X118636620Y-150601491D01*
X118848820Y-150746481D01*
X119100710Y-150797490D01*
X120901570Y-150797490D01*
X121136887Y-150753212D01*
X121353011Y-150614140D01*
X121498001Y-150401940D01*
X121549010Y-150150050D01*
X121549010Y-149349950D01*
X121504732Y-149114633D01*
X121365660Y-148898509D01*
X121153460Y-148753519D01*
X120901570Y-148702510D01*
X120811140Y-148702510D01*
X120811140Y-148007711D01*
X120835317Y-148003162D01*
X121051441Y-147864090D01*
X121196431Y-147651890D01*
X121247440Y-147400000D01*
X121247440Y-146100000D01*
X121203162Y-145864683D01*
X121064090Y-145648559D01*
X120851890Y-145503569D01*
X120600000Y-145452560D01*
X120388772Y-145452560D01*
X120293117Y-145221057D01*
X120119803Y-145047440D01*
X120600000Y-145047440D01*
X120835317Y-145003162D01*
X121051441Y-144864090D01*
X121196431Y-144651890D01*
X121199851Y-144635000D01*
X121749995Y-144635000D01*
X121750000Y-144635001D01*
X121865000Y-144612126D01*
X121865000Y-147999995D01*
G36*
X115634340Y-142551491D02*
X115846540Y-142696481D01*
X115899803Y-142707267D01*
X115803569Y-142848110D01*
X115752560Y-143100000D01*
X115752560Y-144400000D01*
X115796838Y-144635317D01*
X115935910Y-144851441D01*
X116148110Y-144996431D01*
X116400000Y-145047440D01*
X117900000Y-145047440D01*
X118135317Y-145003162D01*
X118351441Y-144864090D01*
X118496431Y-144651890D01*
X118499081Y-144638803D01*
X118635910Y-144851441D01*
X118848110Y-144996431D01*
X118917387Y-145010460D01*
X118707808Y-145219673D01*
X118565162Y-145563201D01*
X118564992Y-145758214D01*
X118503569Y-145848110D01*
X118500919Y-145861197D01*
X118364090Y-145648559D01*
X118151890Y-145503569D01*
X117900000Y-145452560D01*
X116400000Y-145452560D01*
X116164683Y-145496838D01*
X115948559Y-145635910D01*
X115803569Y-145848110D01*
X115784961Y-145940000D01*
X114085513Y-145940000D01*
X113910000Y-145764488D01*
X113910000Y-145185512D01*
X115322756Y-143772757D01*
X115438950Y-143598860D01*
X115498342Y-143509974D01*
X115560000Y-143200000D01*
X115560000Y-142435963D01*
X115634340Y-142551491D01*
X115634340Y-142551491D01*
G37*
X115634340Y-142551491D02*
X115846540Y-142696481D01*
X115899803Y-142707267D01*
X115803569Y-142848110D01*
X115752560Y-143100000D01*
X115752560Y-144400000D01*
X115796838Y-144635317D01*
X115935910Y-144851441D01*
X116148110Y-144996431D01*
X116400000Y-145047440D01*
X117900000Y-145047440D01*
X118135317Y-145003162D01*
X118351441Y-144864090D01*
X118496431Y-144651890D01*
X118499081Y-144638803D01*
X118635910Y-144851441D01*
X118848110Y-144996431D01*
X118917387Y-145010460D01*
X118707808Y-145219673D01*
X118565162Y-145563201D01*
X118564992Y-145758214D01*
X118503569Y-145848110D01*
X118500919Y-145861197D01*
X118364090Y-145648559D01*
X118151890Y-145503569D01*
X117900000Y-145452560D01*
X116400000Y-145452560D01*
X116164683Y-145496838D01*
X115948559Y-145635910D01*
X115803569Y-145848110D01*
X115784961Y-145940000D01*
X114085513Y-145940000D01*
X113910000Y-145764488D01*
X113910000Y-145185512D01*
X115322756Y-143772757D01*
X115438950Y-143598860D01*
X115498342Y-143509974D01*
X115560000Y-143200000D01*
X115560000Y-142435963D01*
X115634340Y-142551491D01*
G36*
X121956883Y-139528943D02*
X122219673Y-139792192D01*
X122563201Y-139934838D01*
X122919340Y-139935148D01*
X121664488Y-141190000D01*
X121540920Y-141190000D01*
X121549010Y-141150050D01*
X121549010Y-140349950D01*
X121504732Y-140114633D01*
X121365660Y-139898509D01*
X121153460Y-139753519D01*
X120901570Y-139702510D01*
X120811140Y-139702510D01*
X120811140Y-139385000D01*
X120943178Y-139385000D01*
X121063201Y-139434838D01*
X121435167Y-139435162D01*
X121778943Y-139293117D01*
X121835935Y-139236225D01*
X121956883Y-139528943D01*
X121956883Y-139528943D01*
G37*
X121956883Y-139528943D02*
X122219673Y-139792192D01*
X122563201Y-139934838D01*
X122919340Y-139935148D01*
X121664488Y-141190000D01*
X121540920Y-141190000D01*
X121549010Y-141150050D01*
X121549010Y-140349950D01*
X121504732Y-140114633D01*
X121365660Y-139898509D01*
X121153460Y-139753519D01*
X120901570Y-139702510D01*
X120811140Y-139702510D01*
X120811140Y-139385000D01*
X120943178Y-139385000D01*
X121063201Y-139434838D01*
X121435167Y-139435162D01*
X121778943Y-139293117D01*
X121835935Y-139236225D01*
X121956883Y-139528943D01*
G36*
X108355910Y-139326441D02*
X108568110Y-139471431D01*
X108705120Y-139499176D01*
X108584683Y-139521838D01*
X108368559Y-139660910D01*
X108296144Y-139766894D01*
X108156250Y-139627000D01*
X108075949Y-139627000D01*
X107931890Y-139528569D01*
X107794880Y-139500824D01*
X107915317Y-139478162D01*
X108078743Y-139373000D01*
X108156250Y-139373000D01*
X108295965Y-139233285D01*
X108355910Y-139326441D01*
X108355910Y-139326441D01*
G37*
X108355910Y-139326441D02*
X108568110Y-139471431D01*
X108705120Y-139499176D01*
X108584683Y-139521838D01*
X108368559Y-139660910D01*
X108296144Y-139766894D01*
X108156250Y-139627000D01*
X108075949Y-139627000D01*
X107931890Y-139528569D01*
X107794880Y-139500824D01*
X107915317Y-139478162D01*
X108078743Y-139373000D01*
X108156250Y-139373000D01*
X108295965Y-139233285D01*
X108355910Y-139326441D01*
G36*
X126900330Y-132459029D02*
X127171172Y-132640000D01*
X126900330Y-132820971D01*
X126575474Y-133307152D01*
X126461400Y-133880641D01*
X126461400Y-133939359D01*
X126575474Y-134512848D01*
X126900330Y-134999029D01*
X127150000Y-135165853D01*
X127150000Y-135704487D01*
X123684853Y-139169635D01*
X123685162Y-138814833D01*
X123635000Y-138693431D01*
X123635000Y-136536680D01*
X123875790Y-136375790D01*
X125408834Y-134842745D01*
X125528943Y-134793117D01*
X125792192Y-134530327D01*
X125934838Y-134186799D01*
X125935162Y-133814833D01*
X125793117Y-133471057D01*
X125530327Y-133207808D01*
X125288232Y-133107281D01*
X126215513Y-132180000D01*
X126713889Y-132180000D01*
X126900330Y-132459029D01*
X126900330Y-132459029D01*
G37*
X126900330Y-132459029D02*
X127171172Y-132640000D01*
X126900330Y-132820971D01*
X126575474Y-133307152D01*
X126461400Y-133880641D01*
X126461400Y-133939359D01*
X126575474Y-134512848D01*
X126900330Y-134999029D01*
X127150000Y-135165853D01*
X127150000Y-135704487D01*
X123684853Y-139169635D01*
X123685162Y-138814833D01*
X123635000Y-138693431D01*
X123635000Y-136536680D01*
X123875790Y-136375790D01*
X125408834Y-134842745D01*
X125528943Y-134793117D01*
X125792192Y-134530327D01*
X125934838Y-134186799D01*
X125935162Y-133814833D01*
X125793117Y-133471057D01*
X125530327Y-133207808D01*
X125288232Y-133107281D01*
X126215513Y-132180000D01*
X126713889Y-132180000D01*
X126900330Y-132459029D01*
G36*
X113139990Y-134535503D02*
X113139990Y-135890093D01*
X113114660Y-135850729D01*
X112902460Y-135705739D01*
X112650570Y-135654730D01*
X111149430Y-135654730D01*
X110914113Y-135699008D01*
X110697989Y-135838080D01*
X110552999Y-136050280D01*
X110501990Y-136302170D01*
X110501990Y-137665000D01*
X110185209Y-137665000D01*
X110131890Y-137628569D01*
X109880000Y-137577560D01*
X108820000Y-137577560D01*
X108584683Y-137621838D01*
X108368559Y-137760910D01*
X108248767Y-137936232D01*
X108144090Y-137773559D01*
X108035000Y-137699021D01*
X108035000Y-137306822D01*
X108084838Y-137186799D01*
X108085162Y-136814833D01*
X108035000Y-136693431D01*
X108035000Y-135390065D01*
X108062848Y-135384526D01*
X108534356Y-135069474D01*
X108598073Y-135223299D01*
X108776702Y-135401927D01*
X109010091Y-135498600D01*
X109714250Y-135498600D01*
X109873000Y-135339850D01*
X109873000Y-134127000D01*
X110127000Y-134127000D01*
X110127000Y-135339850D01*
X110285750Y-135498600D01*
X110989909Y-135498600D01*
X111223298Y-135401927D01*
X111401927Y-135223299D01*
X111498600Y-134989910D01*
X111498600Y-134285750D01*
X111339850Y-134127000D01*
X110127000Y-134127000D01*
X109873000Y-134127000D01*
X109853000Y-134127000D01*
X109853000Y-133873000D01*
X109873000Y-133873000D01*
X109873000Y-133853000D01*
X110127000Y-133853000D01*
X110127000Y-133873000D01*
X111339850Y-133873000D01*
X111498600Y-133714250D01*
X111498600Y-133508601D01*
X112113089Y-133508601D01*
X113139990Y-134535503D01*
X113139990Y-134535503D01*
G37*
X113139990Y-134535503D02*
X113139990Y-135890093D01*
X113114660Y-135850729D01*
X112902460Y-135705739D01*
X112650570Y-135654730D01*
X111149430Y-135654730D01*
X110914113Y-135699008D01*
X110697989Y-135838080D01*
X110552999Y-136050280D01*
X110501990Y-136302170D01*
X110501990Y-137665000D01*
X110185209Y-137665000D01*
X110131890Y-137628569D01*
X109880000Y-137577560D01*
X108820000Y-137577560D01*
X108584683Y-137621838D01*
X108368559Y-137760910D01*
X108248767Y-137936232D01*
X108144090Y-137773559D01*
X108035000Y-137699021D01*
X108035000Y-137306822D01*
X108084838Y-137186799D01*
X108085162Y-136814833D01*
X108035000Y-136693431D01*
X108035000Y-135390065D01*
X108062848Y-135384526D01*
X108534356Y-135069474D01*
X108598073Y-135223299D01*
X108776702Y-135401927D01*
X109010091Y-135498600D01*
X109714250Y-135498600D01*
X109873000Y-135339850D01*
X109873000Y-134127000D01*
X110127000Y-134127000D01*
X110127000Y-135339850D01*
X110285750Y-135498600D01*
X110989909Y-135498600D01*
X111223298Y-135401927D01*
X111401927Y-135223299D01*
X111498600Y-134989910D01*
X111498600Y-134285750D01*
X111339850Y-134127000D01*
X110127000Y-134127000D01*
X109873000Y-134127000D01*
X109853000Y-134127000D01*
X109853000Y-133873000D01*
X109873000Y-133873000D01*
X109873000Y-133853000D01*
X110127000Y-133853000D01*
X110127000Y-133873000D01*
X111339850Y-133873000D01*
X111498600Y-133714250D01*
X111498600Y-133508601D01*
X112113089Y-133508601D01*
X113139990Y-134535503D01*
G36*
X115634340Y-124551491D02*
X115846540Y-124696481D01*
X115899803Y-124707267D01*
X115803569Y-124848110D01*
X115752560Y-125100000D01*
X115752560Y-126400000D01*
X115796838Y-126635317D01*
X115935910Y-126851441D01*
X116148110Y-126996431D01*
X116400000Y-127047440D01*
X117900000Y-127047440D01*
X118135317Y-127003162D01*
X118351441Y-126864090D01*
X118496431Y-126651890D01*
X118499081Y-126638803D01*
X118635910Y-126851441D01*
X118848110Y-126996431D01*
X119100000Y-127047440D01*
X120600000Y-127047440D01*
X120835317Y-127003162D01*
X120997330Y-126898910D01*
X121457576Y-127359156D01*
X121221057Y-127456883D01*
X121043286Y-127634344D01*
X120851890Y-127503569D01*
X120600000Y-127452560D01*
X119100000Y-127452560D01*
X118864683Y-127496838D01*
X118648559Y-127635910D01*
X118503569Y-127848110D01*
X118500919Y-127861197D01*
X118364090Y-127648559D01*
X118151890Y-127503569D01*
X117900000Y-127452560D01*
X116400000Y-127452560D01*
X116177629Y-127494402D01*
X115986799Y-127415162D01*
X115614833Y-127414838D01*
X115271057Y-127556883D01*
X115007808Y-127819673D01*
X114865162Y-128163201D01*
X114864838Y-128535167D01*
X115006883Y-128878943D01*
X115269673Y-129142192D01*
X115613201Y-129284838D01*
X115752560Y-129284959D01*
X115752560Y-129400000D01*
X115796838Y-129635317D01*
X115896678Y-129790472D01*
X115863113Y-129796788D01*
X115646989Y-129935860D01*
X115501999Y-130148060D01*
X115450990Y-130399950D01*
X115450990Y-131200050D01*
X115495268Y-131435367D01*
X115634340Y-131651491D01*
X115779437Y-131750632D01*
X115646989Y-131835860D01*
X115501999Y-132048060D01*
X115450990Y-132299950D01*
X115450990Y-133100050D01*
X115495268Y-133335367D01*
X115634340Y-133551491D01*
X115846540Y-133696481D01*
X115899803Y-133707267D01*
X115803569Y-133848110D01*
X115752560Y-134100000D01*
X115752560Y-135400000D01*
X115796838Y-135635317D01*
X115935910Y-135851441D01*
X116148110Y-135996431D01*
X116400000Y-136047440D01*
X117900000Y-136047440D01*
X118135317Y-136003162D01*
X118351441Y-135864090D01*
X118496431Y-135651890D01*
X118499081Y-135638803D01*
X118635910Y-135851441D01*
X118848110Y-135996431D01*
X119100000Y-136047440D01*
X120600000Y-136047440D01*
X120835317Y-136003162D01*
X121051441Y-135864090D01*
X121196431Y-135651890D01*
X121199851Y-135635000D01*
X121383420Y-135635000D01*
X121865000Y-136116579D01*
X121865000Y-137792629D01*
X121780327Y-137707808D01*
X121436799Y-137565162D01*
X121247440Y-137564997D01*
X121247440Y-137100000D01*
X121203162Y-136864683D01*
X121064090Y-136648559D01*
X120851890Y-136503569D01*
X120600000Y-136452560D01*
X119100000Y-136452560D01*
X118864683Y-136496838D01*
X118648559Y-136635910D01*
X118503569Y-136848110D01*
X118500919Y-136861197D01*
X118364090Y-136648559D01*
X118151890Y-136503569D01*
X117900000Y-136452560D01*
X116400000Y-136452560D01*
X116164683Y-136496838D01*
X115948559Y-136635910D01*
X115880715Y-136735203D01*
X115310000Y-136164488D01*
X115310000Y-133700000D01*
X115248342Y-133390026D01*
X115154779Y-133250000D01*
X115072757Y-133127244D01*
X114060000Y-132114488D01*
X114060000Y-129987441D01*
X114184838Y-129686799D01*
X114185162Y-129314833D01*
X114043117Y-128971057D01*
X113780327Y-128707808D01*
X113595297Y-128630976D01*
X113928943Y-128493117D01*
X114192192Y-128230327D01*
X114334838Y-127886799D01*
X114335162Y-127514833D01*
X114193117Y-127171057D01*
X113930327Y-126907808D01*
X113586799Y-126765162D01*
X113214833Y-126764838D01*
X113154679Y-126789693D01*
X115539800Y-124404572D01*
X115634340Y-124551491D01*
X115634340Y-124551491D01*
G37*
X115634340Y-124551491D02*
X115846540Y-124696481D01*
X115899803Y-124707267D01*
X115803569Y-124848110D01*
X115752560Y-125100000D01*
X115752560Y-126400000D01*
X115796838Y-126635317D01*
X115935910Y-126851441D01*
X116148110Y-126996431D01*
X116400000Y-127047440D01*
X117900000Y-127047440D01*
X118135317Y-127003162D01*
X118351441Y-126864090D01*
X118496431Y-126651890D01*
X118499081Y-126638803D01*
X118635910Y-126851441D01*
X118848110Y-126996431D01*
X119100000Y-127047440D01*
X120600000Y-127047440D01*
X120835317Y-127003162D01*
X120997330Y-126898910D01*
X121457576Y-127359156D01*
X121221057Y-127456883D01*
X121043286Y-127634344D01*
X120851890Y-127503569D01*
X120600000Y-127452560D01*
X119100000Y-127452560D01*
X118864683Y-127496838D01*
X118648559Y-127635910D01*
X118503569Y-127848110D01*
X118500919Y-127861197D01*
X118364090Y-127648559D01*
X118151890Y-127503569D01*
X117900000Y-127452560D01*
X116400000Y-127452560D01*
X116177629Y-127494402D01*
X115986799Y-127415162D01*
X115614833Y-127414838D01*
X115271057Y-127556883D01*
X115007808Y-127819673D01*
X114865162Y-128163201D01*
X114864838Y-128535167D01*
X115006883Y-128878943D01*
X115269673Y-129142192D01*
X115613201Y-129284838D01*
X115752560Y-129284959D01*
X115752560Y-129400000D01*
X115796838Y-129635317D01*
X115896678Y-129790472D01*
X115863113Y-129796788D01*
X115646989Y-129935860D01*
X115501999Y-130148060D01*
X115450990Y-130399950D01*
X115450990Y-131200050D01*
X115495268Y-131435367D01*
X115634340Y-131651491D01*
X115779437Y-131750632D01*
X115646989Y-131835860D01*
X115501999Y-132048060D01*
X115450990Y-132299950D01*
X115450990Y-133100050D01*
X115495268Y-133335367D01*
X115634340Y-133551491D01*
X115846540Y-133696481D01*
X115899803Y-133707267D01*
X115803569Y-133848110D01*
X115752560Y-134100000D01*
X115752560Y-135400000D01*
X115796838Y-135635317D01*
X115935910Y-135851441D01*
X116148110Y-135996431D01*
X116400000Y-136047440D01*
X117900000Y-136047440D01*
X118135317Y-136003162D01*
X118351441Y-135864090D01*
X118496431Y-135651890D01*
X118499081Y-135638803D01*
X118635910Y-135851441D01*
X118848110Y-135996431D01*
X119100000Y-136047440D01*
X120600000Y-136047440D01*
X120835317Y-136003162D01*
X121051441Y-135864090D01*
X121196431Y-135651890D01*
X121199851Y-135635000D01*
X121383420Y-135635000D01*
X121865000Y-136116579D01*
X121865000Y-137792629D01*
X121780327Y-137707808D01*
X121436799Y-137565162D01*
X121247440Y-137564997D01*
X121247440Y-137100000D01*
X121203162Y-136864683D01*
X121064090Y-136648559D01*
X120851890Y-136503569D01*
X120600000Y-136452560D01*
X119100000Y-136452560D01*
X118864683Y-136496838D01*
X118648559Y-136635910D01*
X118503569Y-136848110D01*
X118500919Y-136861197D01*
X118364090Y-136648559D01*
X118151890Y-136503569D01*
X117900000Y-136452560D01*
X116400000Y-136452560D01*
X116164683Y-136496838D01*
X115948559Y-136635910D01*
X115880715Y-136735203D01*
X115310000Y-136164488D01*
X115310000Y-133700000D01*
X115248342Y-133390026D01*
X115154779Y-133250000D01*
X115072757Y-133127244D01*
X114060000Y-132114488D01*
X114060000Y-129987441D01*
X114184838Y-129686799D01*
X114185162Y-129314833D01*
X114043117Y-128971057D01*
X113780327Y-128707808D01*
X113595297Y-128630976D01*
X113928943Y-128493117D01*
X114192192Y-128230327D01*
X114334838Y-127886799D01*
X114335162Y-127514833D01*
X114193117Y-127171057D01*
X113930327Y-126907808D01*
X113586799Y-126765162D01*
X113214833Y-126764838D01*
X113154679Y-126789693D01*
X115539800Y-124404572D01*
X115634340Y-124551491D01*
G36*
X123569117Y-129470696D02*
X123611779Y-129685167D01*
X123632368Y-129788676D01*
X123763548Y-129985002D01*
X123824211Y-130075791D01*
X123907256Y-130158835D01*
X123956883Y-130278943D01*
X124219673Y-130542192D01*
X124563201Y-130684838D01*
X124935167Y-130685162D01*
X125278943Y-130543117D01*
X125542192Y-130280327D01*
X125684838Y-129936799D01*
X125685122Y-129611182D01*
X125830000Y-129640000D01*
X126713889Y-129640000D01*
X126900330Y-129919029D01*
X127171172Y-130100000D01*
X126900330Y-130280971D01*
X126713889Y-130560000D01*
X125880000Y-130560000D01*
X125570026Y-130621658D01*
X125479169Y-130682367D01*
X125307243Y-130797244D01*
X123664488Y-132440000D01*
X122029692Y-132440000D01*
X122125790Y-132375790D01*
X122158836Y-132342744D01*
X122278943Y-132293117D01*
X122542192Y-132030327D01*
X122684838Y-131686799D01*
X122685162Y-131314833D01*
X122635000Y-131193431D01*
X122635000Y-128556822D01*
X122640939Y-128542519D01*
X123569117Y-129470696D01*
X123569117Y-129470696D01*
G37*
X123569117Y-129470696D02*
X123611779Y-129685167D01*
X123632368Y-129788676D01*
X123763548Y-129985002D01*
X123824211Y-130075791D01*
X123907256Y-130158835D01*
X123956883Y-130278943D01*
X124219673Y-130542192D01*
X124563201Y-130684838D01*
X124935167Y-130685162D01*
X125278943Y-130543117D01*
X125542192Y-130280327D01*
X125684838Y-129936799D01*
X125685122Y-129611182D01*
X125830000Y-129640000D01*
X126713889Y-129640000D01*
X126900330Y-129919029D01*
X127171172Y-130100000D01*
X126900330Y-130280971D01*
X126713889Y-130560000D01*
X125880000Y-130560000D01*
X125570026Y-130621658D01*
X125479169Y-130682367D01*
X125307243Y-130797244D01*
X123664488Y-132440000D01*
X122029692Y-132440000D01*
X122125790Y-132375790D01*
X122158836Y-132342744D01*
X122278943Y-132293117D01*
X122542192Y-132030327D01*
X122684838Y-131686799D01*
X122685162Y-131314833D01*
X122635000Y-131193431D01*
X122635000Y-128556822D01*
X122640939Y-128542519D01*
X123569117Y-129470696D01*
G36*
X112878132Y-128495704D02*
X113054703Y-128569024D01*
X112721057Y-128706883D01*
X112457808Y-128969673D01*
X112315162Y-129313201D01*
X112314838Y-129685167D01*
X112440000Y-129988083D01*
X112440000Y-131888601D01*
X111442705Y-131888601D01*
X111527959Y-131460000D01*
X111413885Y-130886511D01*
X111089029Y-130400330D01*
X110774248Y-130190000D01*
X111089029Y-129979670D01*
X111413885Y-129493489D01*
X111527959Y-128920000D01*
X111442705Y-128491399D01*
X112856487Y-128491399D01*
X112878132Y-128495704D01*
X112878132Y-128495704D01*
G37*
X112878132Y-128495704D02*
X113054703Y-128569024D01*
X112721057Y-128706883D01*
X112457808Y-128969673D01*
X112315162Y-129313201D01*
X112314838Y-129685167D01*
X112440000Y-129988083D01*
X112440000Y-131888601D01*
X111442705Y-131888601D01*
X111527959Y-131460000D01*
X111413885Y-130886511D01*
X111089029Y-130400330D01*
X110774248Y-130190000D01*
X111089029Y-129979670D01*
X111413885Y-129493489D01*
X111527959Y-128920000D01*
X111442705Y-128491399D01*
X112856487Y-128491399D01*
X112878132Y-128495704D01*
G36*
X131136390Y-119049408D02*
X132523654Y-119976349D01*
X133450592Y-121363610D01*
X133790000Y-123069931D01*
X133790000Y-127213173D01*
X132294070Y-125717244D01*
X132165982Y-125631658D01*
X132031288Y-125541658D01*
X131749912Y-125485689D01*
X131559670Y-125200971D01*
X131288828Y-125020000D01*
X131559670Y-124839029D01*
X131884526Y-124352848D01*
X131998600Y-123779359D01*
X131998600Y-123720641D01*
X131884526Y-123147152D01*
X131559670Y-122660971D01*
X131073489Y-122336115D01*
X130500000Y-122222041D01*
X129926511Y-122336115D01*
X129440330Y-122660971D01*
X129431195Y-122674642D01*
X129426762Y-122651083D01*
X129287690Y-122434959D01*
X129075490Y-122289969D01*
X128823600Y-122238960D01*
X127096400Y-122238960D01*
X126861083Y-122283238D01*
X126644959Y-122422310D01*
X126499969Y-122634510D01*
X126448960Y-122886400D01*
X126448960Y-124613600D01*
X126493238Y-124848917D01*
X126632310Y-125065041D01*
X126844510Y-125210031D01*
X126888345Y-125218908D01*
X126575474Y-125687152D01*
X126461400Y-126260641D01*
X126461400Y-126319359D01*
X126575474Y-126892848D01*
X126900330Y-127379029D01*
X127171172Y-127560000D01*
X126900330Y-127740971D01*
X126713889Y-128020000D01*
X126165513Y-128020000D01*
X121830583Y-123685071D01*
X121935167Y-123685162D01*
X122278943Y-123543117D01*
X122542192Y-123280327D01*
X122684838Y-122936799D01*
X122685162Y-122564833D01*
X122543117Y-122221057D01*
X122280327Y-121957808D01*
X121936799Y-121815162D01*
X121564833Y-121814838D01*
X121443431Y-121865000D01*
X121316618Y-121865000D01*
X121153460Y-121753519D01*
X120901570Y-121702510D01*
X120811140Y-121702510D01*
X120811140Y-121007711D01*
X120835317Y-121003162D01*
X121051441Y-120864090D01*
X121196431Y-120651890D01*
X121247440Y-120400000D01*
X121247440Y-119100000D01*
X121203162Y-118864683D01*
X121103626Y-118710000D01*
X129430069Y-118710000D01*
X131136390Y-119049408D01*
X131136390Y-119049408D01*
G37*
X131136390Y-119049408D02*
X132523654Y-119976349D01*
X133450592Y-121363610D01*
X133790000Y-123069931D01*
X133790000Y-127213173D01*
X132294070Y-125717244D01*
X132165982Y-125631658D01*
X132031288Y-125541658D01*
X131749912Y-125485689D01*
X131559670Y-125200971D01*
X131288828Y-125020000D01*
X131559670Y-124839029D01*
X131884526Y-124352848D01*
X131998600Y-123779359D01*
X131998600Y-123720641D01*
X131884526Y-123147152D01*
X131559670Y-122660971D01*
X131073489Y-122336115D01*
X130500000Y-122222041D01*
X129926511Y-122336115D01*
X129440330Y-122660971D01*
X129431195Y-122674642D01*
X129426762Y-122651083D01*
X129287690Y-122434959D01*
X129075490Y-122289969D01*
X128823600Y-122238960D01*
X127096400Y-122238960D01*
X126861083Y-122283238D01*
X126644959Y-122422310D01*
X126499969Y-122634510D01*
X126448960Y-122886400D01*
X126448960Y-124613600D01*
X126493238Y-124848917D01*
X126632310Y-125065041D01*
X126844510Y-125210031D01*
X126888345Y-125218908D01*
X126575474Y-125687152D01*
X126461400Y-126260641D01*
X126461400Y-126319359D01*
X126575474Y-126892848D01*
X126900330Y-127379029D01*
X127171172Y-127560000D01*
X126900330Y-127740971D01*
X126713889Y-128020000D01*
X126165513Y-128020000D01*
X121830583Y-123685071D01*
X121935167Y-123685162D01*
X122278943Y-123543117D01*
X122542192Y-123280327D01*
X122684838Y-122936799D01*
X122685162Y-122564833D01*
X122543117Y-122221057D01*
X122280327Y-121957808D01*
X121936799Y-121815162D01*
X121564833Y-121814838D01*
X121443431Y-121865000D01*
X121316618Y-121865000D01*
X121153460Y-121753519D01*
X120901570Y-121702510D01*
X120811140Y-121702510D01*
X120811140Y-121007711D01*
X120835317Y-121003162D01*
X121051441Y-120864090D01*
X121196431Y-120651890D01*
X121247440Y-120400000D01*
X121247440Y-119100000D01*
X121203162Y-118864683D01*
X121103626Y-118710000D01*
X129430069Y-118710000D01*
X131136390Y-119049408D01*
G36*
X115803569Y-118848110D02*
X115752560Y-119100000D01*
X115752560Y-120400000D01*
X115796838Y-120635317D01*
X115896678Y-120790472D01*
X115863113Y-120796788D01*
X115646989Y-120935860D01*
X115501999Y-121148060D01*
X115450990Y-121399950D01*
X115450990Y-121701978D01*
X115175674Y-121977294D01*
X115000088Y-122240076D01*
X114938430Y-122550050D01*
X114938430Y-122714917D01*
X112083348Y-125570000D01*
X111255853Y-125570000D01*
X111089029Y-125320330D01*
X110774248Y-125110000D01*
X111089029Y-124899670D01*
X111413885Y-124413489D01*
X111527959Y-123840000D01*
X111413885Y-123266511D01*
X111089029Y-122780330D01*
X110602848Y-122455474D01*
X110029359Y-122341400D01*
X109970641Y-122341400D01*
X109397152Y-122455474D01*
X108910971Y-122780330D01*
X108730000Y-123051172D01*
X108549029Y-122780330D01*
X108062848Y-122455474D01*
X107489359Y-122341400D01*
X107430641Y-122341400D01*
X106857152Y-122455474D01*
X106540081Y-122667334D01*
X106799408Y-121363610D01*
X107726349Y-119976346D01*
X109113610Y-119049408D01*
X110819931Y-118710000D01*
X115897935Y-118710000D01*
X115803569Y-118848110D01*
X115803569Y-118848110D01*
G37*
X115803569Y-118848110D02*
X115752560Y-119100000D01*
X115752560Y-120400000D01*
X115796838Y-120635317D01*
X115896678Y-120790472D01*
X115863113Y-120796788D01*
X115646989Y-120935860D01*
X115501999Y-121148060D01*
X115450990Y-121399950D01*
X115450990Y-121701978D01*
X115175674Y-121977294D01*
X115000088Y-122240076D01*
X114938430Y-122550050D01*
X114938430Y-122714917D01*
X112083348Y-125570000D01*
X111255853Y-125570000D01*
X111089029Y-125320330D01*
X110774248Y-125110000D01*
X111089029Y-124899670D01*
X111413885Y-124413489D01*
X111527959Y-123840000D01*
X111413885Y-123266511D01*
X111089029Y-122780330D01*
X110602848Y-122455474D01*
X110029359Y-122341400D01*
X109970641Y-122341400D01*
X109397152Y-122455474D01*
X108910971Y-122780330D01*
X108730000Y-123051172D01*
X108549029Y-122780330D01*
X108062848Y-122455474D01*
X107489359Y-122341400D01*
X107430641Y-122341400D01*
X106857152Y-122455474D01*
X106540081Y-122667334D01*
X106799408Y-121363610D01*
X107726349Y-119976346D01*
X109113610Y-119049408D01*
X110819931Y-118710000D01*
X115897935Y-118710000D01*
X115803569Y-118848110D01*
M02*
