G04 #@! TF.FileFunction,Copper,L2,Bot,Signal*
%FSLAX46Y46*%
G04 Gerber Fmt 4.6, Leading zero omitted, Abs format (unit mm)*
G04 Created by KiCad (PCBNEW 4.0.2-stable) date 26.07.2016 22:42:36*
%MOMM*%
G01*
G04 APERTURE LIST*
%ADD10C,0.300000*%
%ADD11C,0.600000*%
%ADD12R,1.727200X1.727200*%
%ADD13O,1.727200X1.727200*%
%ADD14C,0.500000*%
%ADD15C,0.350000*%
%ADD16C,0.254000*%
G04 APERTURE END LIST*
D10*
D11*
X111850000Y-130050000D03*
X114900000Y-125900000D03*
X123400000Y-130750000D03*
X121450000Y-145200000D03*
X109550000Y-142450000D03*
X108550000Y-137450000D03*
X121900000Y-140300000D03*
X115200000Y-145000000D03*
X114800000Y-132000000D03*
X108000000Y-159250000D03*
X108250000Y-120250000D03*
X112100000Y-121100000D03*
X125000000Y-122600000D03*
X125600000Y-136400000D03*
X127900000Y-139600000D03*
X132900000Y-150800000D03*
X127600000Y-158500000D03*
X125800000Y-155800000D03*
X122000000Y-154400000D03*
X114800000Y-154400000D03*
D12*
X127960000Y-123750000D03*
D13*
X130500000Y-123750000D03*
X127960000Y-126290000D03*
X130500000Y-126290000D03*
X127960000Y-128830000D03*
X130500000Y-128830000D03*
X127960000Y-131370000D03*
X130500000Y-131370000D03*
X127960000Y-133910000D03*
X130500000Y-133910000D03*
D12*
X128060000Y-145350000D03*
D13*
X130600000Y-145350000D03*
X128060000Y-147890000D03*
X130600000Y-147890000D03*
X128060000Y-150430000D03*
X130600000Y-150430000D03*
X128060000Y-152970000D03*
X130600000Y-152970000D03*
X128060000Y-155510000D03*
X130600000Y-155510000D03*
D12*
X110000000Y-155600000D03*
D13*
X107460000Y-155600000D03*
X110000000Y-153060000D03*
X107460000Y-153060000D03*
X110000000Y-150520000D03*
X107460000Y-150520000D03*
X110000000Y-147980000D03*
X107460000Y-147980000D03*
X110000000Y-145440000D03*
X107460000Y-145440000D03*
D12*
X110000000Y-134000000D03*
D13*
X107460000Y-134000000D03*
X110000000Y-131460000D03*
X107460000Y-131460000D03*
X110000000Y-128920000D03*
X107460000Y-128920000D03*
X110000000Y-126380000D03*
X107460000Y-126380000D03*
X110000000Y-123840000D03*
X107460000Y-123840000D03*
D11*
X117200000Y-158800000D03*
X108250000Y-139500000D03*
X119500000Y-145750000D03*
X121750000Y-122750000D03*
X121750000Y-128250000D03*
X121750000Y-131500000D03*
X121250000Y-138500000D03*
X113000000Y-138750000D03*
X112000000Y-156500000D03*
X130250000Y-140000000D03*
X131500000Y-140000000D03*
X133000000Y-140250000D03*
X122500000Y-134250000D03*
X124750000Y-129750000D03*
X125000000Y-134000000D03*
X122750000Y-139000000D03*
X107150000Y-137000000D03*
X107000000Y-141500000D03*
X122500000Y-143000000D03*
X113400000Y-127700000D03*
X115800000Y-128350000D03*
X113250000Y-129500000D03*
D14*
X115200000Y-145000000D02*
X115200000Y-144100000D01*
X115200000Y-144100000D02*
X108550000Y-137450000D01*
X108250000Y-139500000D02*
X108250000Y-139250000D01*
X108250000Y-139250000D02*
X110250000Y-137250000D01*
X109750000Y-142500000D02*
X109750000Y-141000000D01*
X109750000Y-141000000D02*
X108250000Y-139500000D01*
X119500000Y-145250000D02*
X119500000Y-145750000D01*
X119000000Y-144750000D02*
X119500000Y-145250000D01*
X113000000Y-138750000D02*
X119000000Y-144750000D01*
X121750000Y-128250000D02*
X121750000Y-122750000D01*
X121750000Y-131500000D02*
X123500000Y-133250000D01*
X123500000Y-133250000D02*
X123500000Y-136250000D01*
X123500000Y-136250000D02*
X121250000Y-138500000D01*
X113000000Y-138750000D02*
X121000000Y-138750000D01*
X121000000Y-138750000D02*
X121250000Y-138500000D01*
D15*
X127096401Y-156443599D02*
X127960000Y-155580000D01*
X112299999Y-156799999D02*
X126740001Y-156799999D01*
X126740001Y-156799999D02*
X127096401Y-156443599D01*
X112000000Y-156500000D02*
X112299999Y-156799999D01*
X122544360Y-147149980D02*
X124399980Y-145294360D01*
X112931294Y-147149980D02*
X122544360Y-147149980D01*
X110000000Y-145440000D02*
X111221314Y-145440000D01*
X111221314Y-145440000D02*
X112931294Y-147149980D01*
X126794358Y-141149980D02*
X129100020Y-141149980D01*
X129100020Y-141149980D02*
X130250000Y-140000000D01*
X124399980Y-145294360D02*
X124399980Y-143544358D01*
X124399980Y-143544358D02*
X126794358Y-141149980D01*
X107460000Y-147980000D02*
X108698601Y-146741399D01*
X108698601Y-146741399D02*
X111241399Y-146741399D01*
X112199990Y-147699990D02*
X122772180Y-147699990D01*
X111241399Y-146741399D02*
X112199990Y-147699990D01*
X122772180Y-147699990D02*
X124949990Y-145522180D01*
X124949990Y-145522180D02*
X124949990Y-143772179D01*
X124949990Y-143772179D02*
X127022179Y-141699990D01*
X129750000Y-141699990D02*
X130772180Y-141699990D01*
X127022179Y-141699990D02*
X129750000Y-141699990D01*
X130772180Y-141699990D02*
X131500000Y-140972170D01*
X131500000Y-140972170D02*
X131500000Y-140000000D01*
X123000000Y-148250000D02*
X125500000Y-145750000D01*
X110000000Y-147980000D02*
X111221314Y-147980000D01*
X111221314Y-147980000D02*
X111491314Y-148250000D01*
X111491314Y-148250000D02*
X123000000Y-148250000D01*
X125500000Y-144000000D02*
X127250000Y-142250000D01*
X125500000Y-145750000D02*
X125500000Y-144000000D01*
X127250000Y-142250000D02*
X131000000Y-142250000D01*
X131000000Y-142250000D02*
X133000000Y-140250000D01*
X107460000Y-150520000D02*
X108730000Y-149250000D01*
X124000000Y-149250000D02*
X125290000Y-147960000D01*
X108730000Y-149250000D02*
X124000000Y-149250000D01*
X125290000Y-147960000D02*
X127960000Y-147960000D01*
X130600000Y-147890000D02*
X129340000Y-149150000D01*
X129340000Y-149150000D02*
X125600000Y-149150000D01*
X125600000Y-149150000D02*
X124230000Y-150520000D01*
X124230000Y-150520000D02*
X110000000Y-150520000D01*
X107460000Y-153060000D02*
X108761399Y-151758601D01*
X108761399Y-151758601D02*
X124963569Y-151758601D01*
X124963569Y-151758601D02*
X126222170Y-150500000D01*
X126222170Y-150500000D02*
X126738686Y-150500000D01*
X126738686Y-150500000D02*
X127960000Y-150500000D01*
X110000000Y-153060000D02*
X125940856Y-153060000D01*
X125940856Y-153060000D02*
X127300856Y-151700000D01*
X127300856Y-151700000D02*
X129330000Y-151700000D01*
X129330000Y-151700000D02*
X130600000Y-150430000D01*
X130500000Y-153040000D02*
X131721314Y-153040000D01*
X131721314Y-153040000D02*
X132750000Y-154068686D01*
X132750000Y-154068686D02*
X132750000Y-157500000D01*
X132750000Y-157500000D02*
X130250000Y-160000000D01*
X130250000Y-160000000D02*
X110638686Y-160000000D01*
X107460000Y-156821314D02*
X107460000Y-155600000D01*
X110638686Y-160000000D02*
X107460000Y-156821314D01*
X127960000Y-153040000D02*
X126738686Y-153040000D01*
X126738686Y-153040000D02*
X124178686Y-155600000D01*
X124178686Y-155600000D02*
X110000000Y-155600000D01*
D14*
X122750000Y-139000000D02*
X122750000Y-139424264D01*
X120075736Y-136250000D02*
X107900000Y-136250000D01*
X107900000Y-136250000D02*
X107150000Y-137000000D01*
X122500000Y-134250000D02*
X122075736Y-134250000D01*
X122075736Y-134250000D02*
X120075736Y-136250000D01*
X125000000Y-130000000D02*
X124750000Y-129750000D01*
X125000000Y-134000000D02*
X125000000Y-130000000D01*
X107000000Y-141500000D02*
X107000000Y-137150000D01*
X107000000Y-137150000D02*
X107150000Y-137000000D01*
X123200000Y-139874264D02*
X123200000Y-142300000D01*
X123200000Y-142300000D02*
X122500000Y-143000000D01*
X122750000Y-139424264D02*
X123200000Y-139874264D01*
D15*
X125750000Y-126290000D02*
X127960000Y-126290000D01*
X122790000Y-129250000D02*
X125750000Y-126290000D01*
X119350000Y-129250000D02*
X122790000Y-129250000D01*
X118000000Y-130600000D02*
X119350000Y-129250000D01*
X115000000Y-130600000D02*
X118000000Y-130600000D01*
X110000000Y-131460000D02*
X114140000Y-131460000D01*
X114140000Y-131460000D02*
X115000000Y-130600000D01*
X115150000Y-127700000D02*
X113400000Y-127700000D01*
X115800000Y-128350000D02*
X115150000Y-127700000D01*
X115750000Y-128400000D02*
X115800000Y-128350000D01*
X112500000Y-125118686D02*
X112500000Y-128750000D01*
X112500000Y-128750000D02*
X113250000Y-129500000D01*
X110000000Y-123840000D02*
X111221314Y-123840000D01*
X111221314Y-123840000D02*
X112500000Y-125118686D01*
X107460000Y-123840000D02*
X107460000Y-122618686D01*
X107460000Y-122618686D02*
X111078686Y-119000000D01*
X111078686Y-119000000D02*
X130000000Y-119000000D01*
X130000000Y-119000000D02*
X133500000Y-122500000D01*
X133500000Y-122500000D02*
X133500000Y-132500000D01*
X133500000Y-132500000D02*
X132090000Y-133910000D01*
X132090000Y-133910000D02*
X130500000Y-133910000D01*
D16*
G36*
X106655689Y-156849912D02*
X106711658Y-157131288D01*
X106819171Y-157292192D01*
X106887244Y-157394070D01*
X110065930Y-160572757D01*
X110209266Y-160668531D01*
X109113610Y-160450592D01*
X107726349Y-159523654D01*
X106799408Y-158136390D01*
X106526317Y-156763469D01*
X106655689Y-156849912D01*
X106655689Y-156849912D01*
G37*
X106655689Y-156849912D02*
X106711658Y-157131288D01*
X106819171Y-157292192D01*
X106887244Y-157394070D01*
X110065930Y-160572757D01*
X110209266Y-160668531D01*
X109113610Y-160450592D01*
X107726349Y-159523654D01*
X106799408Y-158136390D01*
X106526317Y-156763469D01*
X106655689Y-156849912D01*
G36*
X133790000Y-156430069D02*
X133450592Y-158136390D01*
X132523654Y-159523651D01*
X131136390Y-160450592D01*
X130897378Y-160498134D01*
X133322757Y-158072756D01*
X133428012Y-157915229D01*
X133498342Y-157809974D01*
X133560000Y-157500000D01*
X133560000Y-154068686D01*
X133520479Y-153870000D01*
X133498343Y-153758713D01*
X133322757Y-153495930D01*
X132294070Y-152467244D01*
X132144272Y-152367152D01*
X132031288Y-152291658D01*
X131919183Y-152269359D01*
X131659670Y-151880971D01*
X131388828Y-151700000D01*
X131659670Y-151519029D01*
X131984526Y-151032848D01*
X132098600Y-150459359D01*
X132098600Y-150400641D01*
X131984526Y-149827152D01*
X131659670Y-149340971D01*
X131388828Y-149160000D01*
X131659670Y-148979029D01*
X131984526Y-148492848D01*
X132098600Y-147919359D01*
X132098600Y-147860641D01*
X131984526Y-147287152D01*
X131659670Y-146800971D01*
X131388839Y-146620008D01*
X131806821Y-146238490D01*
X132054968Y-145709027D01*
X131934469Y-145477000D01*
X130727000Y-145477000D01*
X130727000Y-145497000D01*
X130473000Y-145497000D01*
X130473000Y-145477000D01*
X130453000Y-145477000D01*
X130453000Y-145223000D01*
X130473000Y-145223000D01*
X130473000Y-144016183D01*
X130727000Y-144016183D01*
X130727000Y-145223000D01*
X131934469Y-145223000D01*
X132054968Y-144990973D01*
X131806821Y-144461510D01*
X131374947Y-144067312D01*
X130959026Y-143895042D01*
X130727000Y-144016183D01*
X130473000Y-144016183D01*
X130240974Y-143895042D01*
X129825053Y-144067312D01*
X129540973Y-144326609D01*
X129526762Y-144251083D01*
X129387690Y-144034959D01*
X129175490Y-143889969D01*
X128923600Y-143838960D01*
X127196400Y-143838960D01*
X126961083Y-143883238D01*
X126744959Y-144022310D01*
X126599969Y-144234510D01*
X126548960Y-144486400D01*
X126548960Y-146213600D01*
X126593238Y-146448917D01*
X126732310Y-146665041D01*
X126944510Y-146810031D01*
X126988345Y-146818908D01*
X126767116Y-147150000D01*
X125290000Y-147150000D01*
X125234466Y-147161046D01*
X126072757Y-146322756D01*
X126224981Y-146094936D01*
X126248342Y-146059974D01*
X126310000Y-145750000D01*
X126310000Y-144335512D01*
X127585513Y-143060000D01*
X131000000Y-143060000D01*
X131309974Y-142998342D01*
X131572756Y-142822756D01*
X133228084Y-141167429D01*
X133528943Y-141043117D01*
X133790000Y-140782515D01*
X133790000Y-156430069D01*
X133790000Y-156430069D01*
G37*
X133790000Y-156430069D02*
X133450592Y-158136390D01*
X132523654Y-159523651D01*
X131136390Y-160450592D01*
X130897378Y-160498134D01*
X133322757Y-158072756D01*
X133428012Y-157915229D01*
X133498342Y-157809974D01*
X133560000Y-157500000D01*
X133560000Y-154068686D01*
X133520479Y-153870000D01*
X133498343Y-153758713D01*
X133322757Y-153495930D01*
X132294070Y-152467244D01*
X132144272Y-152367152D01*
X132031288Y-152291658D01*
X131919183Y-152269359D01*
X131659670Y-151880971D01*
X131388828Y-151700000D01*
X131659670Y-151519029D01*
X131984526Y-151032848D01*
X132098600Y-150459359D01*
X132098600Y-150400641D01*
X131984526Y-149827152D01*
X131659670Y-149340971D01*
X131388828Y-149160000D01*
X131659670Y-148979029D01*
X131984526Y-148492848D01*
X132098600Y-147919359D01*
X132098600Y-147860641D01*
X131984526Y-147287152D01*
X131659670Y-146800971D01*
X131388839Y-146620008D01*
X131806821Y-146238490D01*
X132054968Y-145709027D01*
X131934469Y-145477000D01*
X130727000Y-145477000D01*
X130727000Y-145497000D01*
X130473000Y-145497000D01*
X130473000Y-145477000D01*
X130453000Y-145477000D01*
X130453000Y-145223000D01*
X130473000Y-145223000D01*
X130473000Y-144016183D01*
X130727000Y-144016183D01*
X130727000Y-145223000D01*
X131934469Y-145223000D01*
X132054968Y-144990973D01*
X131806821Y-144461510D01*
X131374947Y-144067312D01*
X130959026Y-143895042D01*
X130727000Y-144016183D01*
X130473000Y-144016183D01*
X130240974Y-143895042D01*
X129825053Y-144067312D01*
X129540973Y-144326609D01*
X129526762Y-144251083D01*
X129387690Y-144034959D01*
X129175490Y-143889969D01*
X128923600Y-143838960D01*
X127196400Y-143838960D01*
X126961083Y-143883238D01*
X126744959Y-144022310D01*
X126599969Y-144234510D01*
X126548960Y-144486400D01*
X126548960Y-146213600D01*
X126593238Y-146448917D01*
X126732310Y-146665041D01*
X126944510Y-146810031D01*
X126988345Y-146818908D01*
X126767116Y-147150000D01*
X125290000Y-147150000D01*
X125234466Y-147161046D01*
X126072757Y-146322756D01*
X126224981Y-146094936D01*
X126248342Y-146059974D01*
X126310000Y-145750000D01*
X126310000Y-144335512D01*
X127585513Y-143060000D01*
X131000000Y-143060000D01*
X131309974Y-142998342D01*
X131572756Y-142822756D01*
X133228084Y-141167429D01*
X133528943Y-141043117D01*
X133790000Y-140782515D01*
X133790000Y-156430069D01*
G36*
X131940000Y-157164487D02*
X129914488Y-159190000D01*
X110974199Y-159190000D01*
X108757333Y-156973135D01*
X108884510Y-157060031D01*
X109136400Y-157111040D01*
X110863600Y-157111040D01*
X111098917Y-157066762D01*
X111196551Y-157003937D01*
X111206883Y-157028943D01*
X111469673Y-157292192D01*
X111813201Y-157434838D01*
X111820164Y-157434844D01*
X111990026Y-157548342D01*
X112299999Y-157609999D01*
X126740001Y-157609999D01*
X127049975Y-157548341D01*
X127312757Y-157372755D01*
X127669158Y-157016355D01*
X127669160Y-157016352D01*
X127715982Y-156969530D01*
X128060000Y-157037959D01*
X128633489Y-156923885D01*
X129119670Y-156599029D01*
X129330000Y-156284248D01*
X129540330Y-156599029D01*
X130026511Y-156923885D01*
X130600000Y-157037959D01*
X131173489Y-156923885D01*
X131659670Y-156599029D01*
X131940000Y-156179486D01*
X131940000Y-157164487D01*
X131940000Y-157164487D01*
G37*
X131940000Y-157164487D02*
X129914488Y-159190000D01*
X110974199Y-159190000D01*
X108757333Y-156973135D01*
X108884510Y-157060031D01*
X109136400Y-157111040D01*
X110863600Y-157111040D01*
X111098917Y-157066762D01*
X111196551Y-157003937D01*
X111206883Y-157028943D01*
X111469673Y-157292192D01*
X111813201Y-157434838D01*
X111820164Y-157434844D01*
X111990026Y-157548342D01*
X112299999Y-157609999D01*
X126740001Y-157609999D01*
X127049975Y-157548341D01*
X127312757Y-157372755D01*
X127669158Y-157016355D01*
X127669160Y-157016352D01*
X127715982Y-156969530D01*
X128060000Y-157037959D01*
X128633489Y-156923885D01*
X129119670Y-156599029D01*
X129330000Y-156284248D01*
X129540330Y-156599029D01*
X130026511Y-156923885D01*
X130600000Y-157037959D01*
X131173489Y-156923885D01*
X131659670Y-156599029D01*
X131940000Y-156179486D01*
X131940000Y-157164487D01*
G36*
X127000330Y-154059029D02*
X127271172Y-154240000D01*
X127000330Y-154420971D01*
X126675474Y-154907152D01*
X126561400Y-155480641D01*
X126561400Y-155539359D01*
X126610133Y-155784355D01*
X126523648Y-155870840D01*
X126523645Y-155870842D01*
X126404488Y-155989999D01*
X124934199Y-155989999D01*
X126946192Y-153978006D01*
X127000330Y-154059029D01*
X127000330Y-154059029D01*
G37*
X127000330Y-154059029D02*
X127271172Y-154240000D01*
X127000330Y-154420971D01*
X126675474Y-154907152D01*
X126561400Y-155480641D01*
X126561400Y-155539359D01*
X126610133Y-155784355D01*
X126523648Y-155870840D01*
X126523645Y-155870842D01*
X126404488Y-155989999D01*
X124934199Y-155989999D01*
X126946192Y-153978006D01*
X127000330Y-154059029D01*
G36*
X123843174Y-154790000D02*
X111511040Y-154790000D01*
X111511040Y-154736400D01*
X111466762Y-154501083D01*
X111327690Y-154284959D01*
X111115490Y-154139969D01*
X111071869Y-154131136D01*
X111089029Y-154119670D01*
X111255853Y-153870000D01*
X124763174Y-153870000D01*
X123843174Y-154790000D01*
X123843174Y-154790000D01*
G37*
X123843174Y-154790000D02*
X111511040Y-154790000D01*
X111511040Y-154736400D01*
X111466762Y-154501083D01*
X111327690Y-154284959D01*
X111115490Y-154139969D01*
X111071869Y-154131136D01*
X111089029Y-154119670D01*
X111255853Y-153870000D01*
X124763174Y-153870000D01*
X123843174Y-154790000D01*
G36*
X126900330Y-127379029D02*
X127171172Y-127560000D01*
X126900330Y-127740971D01*
X126575474Y-128227152D01*
X126461400Y-128800641D01*
X126461400Y-128859359D01*
X126575474Y-129432848D01*
X126900330Y-129919029D01*
X127171172Y-130100000D01*
X126900330Y-130280971D01*
X126575474Y-130767152D01*
X126461400Y-131340641D01*
X126461400Y-131399359D01*
X126575474Y-131972848D01*
X126900330Y-132459029D01*
X127171172Y-132640000D01*
X126900330Y-132820971D01*
X126575474Y-133307152D01*
X126461400Y-133880641D01*
X126461400Y-133939359D01*
X126575474Y-134512848D01*
X126900330Y-134999029D01*
X127386511Y-135323885D01*
X127960000Y-135437959D01*
X128533489Y-135323885D01*
X129019670Y-134999029D01*
X129230000Y-134684248D01*
X129440330Y-134999029D01*
X129926511Y-135323885D01*
X130500000Y-135437959D01*
X131073489Y-135323885D01*
X131559670Y-134999029D01*
X131746111Y-134720000D01*
X132090000Y-134720000D01*
X132399974Y-134658342D01*
X132662756Y-134482756D01*
X133790000Y-133355513D01*
X133790000Y-139717935D01*
X133530327Y-139457808D01*
X133186799Y-139315162D01*
X132814833Y-139314838D01*
X132471057Y-139456883D01*
X132340933Y-139586780D01*
X132293117Y-139471057D01*
X132030327Y-139207808D01*
X131686799Y-139065162D01*
X131314833Y-139064838D01*
X130971057Y-139206883D01*
X130875063Y-139302710D01*
X130780327Y-139207808D01*
X130436799Y-139065162D01*
X130064833Y-139064838D01*
X129721057Y-139206883D01*
X129457808Y-139469673D01*
X129332116Y-139772371D01*
X128764508Y-140339980D01*
X126794358Y-140339980D01*
X126622255Y-140374214D01*
X126484385Y-140401637D01*
X126221602Y-140577223D01*
X123827224Y-142971602D01*
X123651638Y-143234384D01*
X123589980Y-143544358D01*
X123589980Y-144958847D01*
X122208848Y-146339980D01*
X120232435Y-146339980D01*
X120292192Y-146280327D01*
X120434838Y-145936799D01*
X120435162Y-145564833D01*
X120385000Y-145443431D01*
X120385000Y-145250005D01*
X120385001Y-145250000D01*
X120317633Y-144911326D01*
X120317633Y-144911325D01*
X120125790Y-144624210D01*
X120125787Y-144624208D01*
X119625790Y-144124210D01*
X119625787Y-144124208D01*
X115136580Y-139635000D01*
X120999995Y-139635000D01*
X121000000Y-139635001D01*
X121282484Y-139578810D01*
X121338675Y-139567633D01*
X121625790Y-139375790D01*
X121658836Y-139342744D01*
X121778943Y-139293117D01*
X121835935Y-139236225D01*
X121865000Y-139306569D01*
X121865000Y-139424259D01*
X121864999Y-139424264D01*
X121888457Y-139542192D01*
X121932367Y-139762939D01*
X122006752Y-139874264D01*
X122124210Y-140050054D01*
X122315000Y-140240844D01*
X122315000Y-141933421D01*
X122091165Y-142157256D01*
X121971057Y-142206883D01*
X121707808Y-142469673D01*
X121565162Y-142813201D01*
X121564838Y-143185167D01*
X121706883Y-143528943D01*
X121969673Y-143792192D01*
X122313201Y-143934838D01*
X122685167Y-143935162D01*
X123028943Y-143793117D01*
X123292192Y-143530327D01*
X123342566Y-143409014D01*
X123825787Y-142925792D01*
X123825790Y-142925790D01*
X124017633Y-142638675D01*
X124085000Y-142300000D01*
X124085000Y-139874269D01*
X124085001Y-139874264D01*
X124017633Y-139535589D01*
X123974514Y-139471057D01*
X123825790Y-139248474D01*
X123825787Y-139248472D01*
X123684907Y-139107592D01*
X123685162Y-138814833D01*
X123543117Y-138471057D01*
X123280327Y-138207808D01*
X122936799Y-138065162D01*
X122936418Y-138065162D01*
X124125787Y-136875792D01*
X124125790Y-136875790D01*
X124253975Y-136683946D01*
X124317634Y-136588674D01*
X124385001Y-136250000D01*
X124385000Y-136249995D01*
X124385000Y-134707371D01*
X124469673Y-134792192D01*
X124813201Y-134934838D01*
X125185167Y-134935162D01*
X125528943Y-134793117D01*
X125792192Y-134530327D01*
X125934838Y-134186799D01*
X125935162Y-133814833D01*
X125885000Y-133693431D01*
X125885000Y-130000000D01*
X125817633Y-129661325D01*
X125625790Y-129374210D01*
X125625787Y-129374208D01*
X125592745Y-129341166D01*
X125543117Y-129221057D01*
X125280327Y-128957808D01*
X124936799Y-128815162D01*
X124564833Y-128814838D01*
X124233961Y-128951551D01*
X126085513Y-127100000D01*
X126713889Y-127100000D01*
X126900330Y-127379029D01*
X126900330Y-127379029D01*
G37*
X126900330Y-127379029D02*
X127171172Y-127560000D01*
X126900330Y-127740971D01*
X126575474Y-128227152D01*
X126461400Y-128800641D01*
X126461400Y-128859359D01*
X126575474Y-129432848D01*
X126900330Y-129919029D01*
X127171172Y-130100000D01*
X126900330Y-130280971D01*
X126575474Y-130767152D01*
X126461400Y-131340641D01*
X126461400Y-131399359D01*
X126575474Y-131972848D01*
X126900330Y-132459029D01*
X127171172Y-132640000D01*
X126900330Y-132820971D01*
X126575474Y-133307152D01*
X126461400Y-133880641D01*
X126461400Y-133939359D01*
X126575474Y-134512848D01*
X126900330Y-134999029D01*
X127386511Y-135323885D01*
X127960000Y-135437959D01*
X128533489Y-135323885D01*
X129019670Y-134999029D01*
X129230000Y-134684248D01*
X129440330Y-134999029D01*
X129926511Y-135323885D01*
X130500000Y-135437959D01*
X131073489Y-135323885D01*
X131559670Y-134999029D01*
X131746111Y-134720000D01*
X132090000Y-134720000D01*
X132399974Y-134658342D01*
X132662756Y-134482756D01*
X133790000Y-133355513D01*
X133790000Y-139717935D01*
X133530327Y-139457808D01*
X133186799Y-139315162D01*
X132814833Y-139314838D01*
X132471057Y-139456883D01*
X132340933Y-139586780D01*
X132293117Y-139471057D01*
X132030327Y-139207808D01*
X131686799Y-139065162D01*
X131314833Y-139064838D01*
X130971057Y-139206883D01*
X130875063Y-139302710D01*
X130780327Y-139207808D01*
X130436799Y-139065162D01*
X130064833Y-139064838D01*
X129721057Y-139206883D01*
X129457808Y-139469673D01*
X129332116Y-139772371D01*
X128764508Y-140339980D01*
X126794358Y-140339980D01*
X126622255Y-140374214D01*
X126484385Y-140401637D01*
X126221602Y-140577223D01*
X123827224Y-142971602D01*
X123651638Y-143234384D01*
X123589980Y-143544358D01*
X123589980Y-144958847D01*
X122208848Y-146339980D01*
X120232435Y-146339980D01*
X120292192Y-146280327D01*
X120434838Y-145936799D01*
X120435162Y-145564833D01*
X120385000Y-145443431D01*
X120385000Y-145250005D01*
X120385001Y-145250000D01*
X120317633Y-144911326D01*
X120317633Y-144911325D01*
X120125790Y-144624210D01*
X120125787Y-144624208D01*
X119625790Y-144124210D01*
X119625787Y-144124208D01*
X115136580Y-139635000D01*
X120999995Y-139635000D01*
X121000000Y-139635001D01*
X121282484Y-139578810D01*
X121338675Y-139567633D01*
X121625790Y-139375790D01*
X121658836Y-139342744D01*
X121778943Y-139293117D01*
X121835935Y-139236225D01*
X121865000Y-139306569D01*
X121865000Y-139424259D01*
X121864999Y-139424264D01*
X121888457Y-139542192D01*
X121932367Y-139762939D01*
X122006752Y-139874264D01*
X122124210Y-140050054D01*
X122315000Y-140240844D01*
X122315000Y-141933421D01*
X122091165Y-142157256D01*
X121971057Y-142206883D01*
X121707808Y-142469673D01*
X121565162Y-142813201D01*
X121564838Y-143185167D01*
X121706883Y-143528943D01*
X121969673Y-143792192D01*
X122313201Y-143934838D01*
X122685167Y-143935162D01*
X123028943Y-143793117D01*
X123292192Y-143530327D01*
X123342566Y-143409014D01*
X123825787Y-142925792D01*
X123825790Y-142925790D01*
X124017633Y-142638675D01*
X124085000Y-142300000D01*
X124085000Y-139874269D01*
X124085001Y-139874264D01*
X124017633Y-139535589D01*
X123974514Y-139471057D01*
X123825790Y-139248474D01*
X123825787Y-139248472D01*
X123684907Y-139107592D01*
X123685162Y-138814833D01*
X123543117Y-138471057D01*
X123280327Y-138207808D01*
X122936799Y-138065162D01*
X122936418Y-138065162D01*
X124125787Y-136875792D01*
X124125790Y-136875790D01*
X124253975Y-136683946D01*
X124317634Y-136588674D01*
X124385001Y-136250000D01*
X124385000Y-136249995D01*
X124385000Y-134707371D01*
X124469673Y-134792192D01*
X124813201Y-134934838D01*
X125185167Y-134935162D01*
X125528943Y-134793117D01*
X125792192Y-134530327D01*
X125934838Y-134186799D01*
X125935162Y-133814833D01*
X125885000Y-133693431D01*
X125885000Y-130000000D01*
X125817633Y-129661325D01*
X125625790Y-129374210D01*
X125625787Y-129374208D01*
X125592745Y-129341166D01*
X125543117Y-129221057D01*
X125280327Y-128957808D01*
X124936799Y-128815162D01*
X124564833Y-128814838D01*
X124233961Y-128951551D01*
X126085513Y-127100000D01*
X126713889Y-127100000D01*
X126900330Y-127379029D01*
G36*
X122615000Y-135185101D02*
X122615000Y-135883421D01*
X120841164Y-137657256D01*
X120721057Y-137706883D01*
X120562664Y-137865000D01*
X113306822Y-137865000D01*
X113186799Y-137815162D01*
X112814833Y-137814838D01*
X112471057Y-137956883D01*
X112207808Y-138219673D01*
X112065162Y-138563201D01*
X112064838Y-138935167D01*
X112206883Y-139278943D01*
X112469673Y-139542192D01*
X112590986Y-139592566D01*
X118374208Y-145375787D01*
X118374210Y-145375790D01*
X118565159Y-145566739D01*
X118564838Y-145935167D01*
X118706883Y-146278943D01*
X118767814Y-146339980D01*
X113266807Y-146339980D01*
X111794070Y-144867244D01*
X111708397Y-144809999D01*
X111531288Y-144691658D01*
X111261148Y-144637923D01*
X111089029Y-144380330D01*
X110602848Y-144055474D01*
X110029359Y-143941400D01*
X109970641Y-143941400D01*
X109397152Y-144055474D01*
X108910971Y-144380330D01*
X108730000Y-144651172D01*
X108549029Y-144380330D01*
X108062848Y-144055474D01*
X107489359Y-143941400D01*
X107430641Y-143941400D01*
X106857152Y-144055474D01*
X106460000Y-144320843D01*
X106460000Y-142282502D01*
X106469673Y-142292192D01*
X106813201Y-142434838D01*
X107185167Y-142435162D01*
X107528943Y-142293117D01*
X107792192Y-142030327D01*
X107934838Y-141686799D01*
X107935162Y-141314833D01*
X107885000Y-141193431D01*
X107885000Y-137587419D01*
X107942192Y-137530327D01*
X107992566Y-137409014D01*
X108266579Y-137135000D01*
X120075731Y-137135000D01*
X120075736Y-137135001D01*
X120358220Y-137078810D01*
X120414411Y-137067633D01*
X120701526Y-136875790D01*
X120701527Y-136875789D01*
X122392408Y-135184907D01*
X122615000Y-135185101D01*
X122615000Y-135185101D01*
G37*
X122615000Y-135185101D02*
X122615000Y-135883421D01*
X120841164Y-137657256D01*
X120721057Y-137706883D01*
X120562664Y-137865000D01*
X113306822Y-137865000D01*
X113186799Y-137815162D01*
X112814833Y-137814838D01*
X112471057Y-137956883D01*
X112207808Y-138219673D01*
X112065162Y-138563201D01*
X112064838Y-138935167D01*
X112206883Y-139278943D01*
X112469673Y-139542192D01*
X112590986Y-139592566D01*
X118374208Y-145375787D01*
X118374210Y-145375790D01*
X118565159Y-145566739D01*
X118564838Y-145935167D01*
X118706883Y-146278943D01*
X118767814Y-146339980D01*
X113266807Y-146339980D01*
X111794070Y-144867244D01*
X111708397Y-144809999D01*
X111531288Y-144691658D01*
X111261148Y-144637923D01*
X111089029Y-144380330D01*
X110602848Y-144055474D01*
X110029359Y-143941400D01*
X109970641Y-143941400D01*
X109397152Y-144055474D01*
X108910971Y-144380330D01*
X108730000Y-144651172D01*
X108549029Y-144380330D01*
X108062848Y-144055474D01*
X107489359Y-143941400D01*
X107430641Y-143941400D01*
X106857152Y-144055474D01*
X106460000Y-144320843D01*
X106460000Y-142282502D01*
X106469673Y-142292192D01*
X106813201Y-142434838D01*
X107185167Y-142435162D01*
X107528943Y-142293117D01*
X107792192Y-142030327D01*
X107934838Y-141686799D01*
X107935162Y-141314833D01*
X107885000Y-141193431D01*
X107885000Y-137587419D01*
X107942192Y-137530327D01*
X107992566Y-137409014D01*
X108266579Y-137135000D01*
X120075731Y-137135000D01*
X120075736Y-137135001D01*
X120358220Y-137078810D01*
X120414411Y-137067633D01*
X120701526Y-136875790D01*
X120701527Y-136875789D01*
X122392408Y-135184907D01*
X122615000Y-135185101D01*
G36*
X123815162Y-129563201D02*
X123814838Y-129935167D01*
X123956883Y-130278943D01*
X124115000Y-130437336D01*
X124115000Y-132613421D01*
X122592744Y-131091164D01*
X122543117Y-130971057D01*
X122280327Y-130707808D01*
X121936799Y-130565162D01*
X121564833Y-130564838D01*
X121221057Y-130706883D01*
X120957808Y-130969673D01*
X120815162Y-131313201D01*
X120814838Y-131685167D01*
X120956883Y-132028943D01*
X121219673Y-132292192D01*
X121340986Y-132342566D01*
X122313719Y-133315298D01*
X122193431Y-133365000D01*
X122075741Y-133365000D01*
X122075736Y-133364999D01*
X121766501Y-133426511D01*
X121737061Y-133432367D01*
X121449946Y-133624210D01*
X121449944Y-133624213D01*
X119709156Y-135365000D01*
X111260225Y-135365000D01*
X111401927Y-135223299D01*
X111498600Y-134989910D01*
X111498600Y-134285750D01*
X111339850Y-134127000D01*
X110127000Y-134127000D01*
X110127000Y-134147000D01*
X109873000Y-134147000D01*
X109873000Y-134127000D01*
X109853000Y-134127000D01*
X109853000Y-133873000D01*
X109873000Y-133873000D01*
X109873000Y-133853000D01*
X110127000Y-133853000D01*
X110127000Y-133873000D01*
X111339850Y-133873000D01*
X111498600Y-133714250D01*
X111498600Y-133010090D01*
X111401927Y-132776701D01*
X111223298Y-132598073D01*
X111067977Y-132533737D01*
X111089029Y-132519670D01*
X111255853Y-132270000D01*
X114140000Y-132270000D01*
X114449974Y-132208342D01*
X114712756Y-132032756D01*
X115335513Y-131410000D01*
X118000000Y-131410000D01*
X118309974Y-131348342D01*
X118572756Y-131172756D01*
X119685513Y-130060000D01*
X122790000Y-130060000D01*
X123099974Y-129998342D01*
X123362756Y-129822756D01*
X123952105Y-129233407D01*
X123815162Y-129563201D01*
X123815162Y-129563201D01*
G37*
X123815162Y-129563201D02*
X123814838Y-129935167D01*
X123956883Y-130278943D01*
X124115000Y-130437336D01*
X124115000Y-132613421D01*
X122592744Y-131091164D01*
X122543117Y-130971057D01*
X122280327Y-130707808D01*
X121936799Y-130565162D01*
X121564833Y-130564838D01*
X121221057Y-130706883D01*
X120957808Y-130969673D01*
X120815162Y-131313201D01*
X120814838Y-131685167D01*
X120956883Y-132028943D01*
X121219673Y-132292192D01*
X121340986Y-132342566D01*
X122313719Y-133315298D01*
X122193431Y-133365000D01*
X122075741Y-133365000D01*
X122075736Y-133364999D01*
X121766501Y-133426511D01*
X121737061Y-133432367D01*
X121449946Y-133624210D01*
X121449944Y-133624213D01*
X119709156Y-135365000D01*
X111260225Y-135365000D01*
X111401927Y-135223299D01*
X111498600Y-134989910D01*
X111498600Y-134285750D01*
X111339850Y-134127000D01*
X110127000Y-134127000D01*
X110127000Y-134147000D01*
X109873000Y-134147000D01*
X109873000Y-134127000D01*
X109853000Y-134127000D01*
X109853000Y-133873000D01*
X109873000Y-133873000D01*
X109873000Y-133853000D01*
X110127000Y-133853000D01*
X110127000Y-133873000D01*
X111339850Y-133873000D01*
X111498600Y-133714250D01*
X111498600Y-133010090D01*
X111401927Y-132776701D01*
X111223298Y-132598073D01*
X111067977Y-132533737D01*
X111089029Y-132519670D01*
X111255853Y-132270000D01*
X114140000Y-132270000D01*
X114449974Y-132208342D01*
X114712756Y-132032756D01*
X115335513Y-131410000D01*
X118000000Y-131410000D01*
X118309974Y-131348342D01*
X118572756Y-131172756D01*
X119685513Y-130060000D01*
X122790000Y-130060000D01*
X123099974Y-129998342D01*
X123362756Y-129822756D01*
X123952105Y-129233407D01*
X123815162Y-129563201D01*
G36*
X132690000Y-122835513D02*
X132690000Y-132164487D01*
X131754488Y-133100000D01*
X131746111Y-133100000D01*
X131559670Y-132820971D01*
X131288828Y-132640000D01*
X131559670Y-132459029D01*
X131884526Y-131972848D01*
X131998600Y-131399359D01*
X131998600Y-131340641D01*
X131884526Y-130767152D01*
X131559670Y-130280971D01*
X131288828Y-130100000D01*
X131559670Y-129919029D01*
X131884526Y-129432848D01*
X131998600Y-128859359D01*
X131998600Y-128800641D01*
X131884526Y-128227152D01*
X131559670Y-127740971D01*
X131288828Y-127560000D01*
X131559670Y-127379029D01*
X131884526Y-126892848D01*
X131998600Y-126319359D01*
X131998600Y-126260641D01*
X131884526Y-125687152D01*
X131559670Y-125200971D01*
X131288828Y-125020000D01*
X131559670Y-124839029D01*
X131884526Y-124352848D01*
X131998600Y-123779359D01*
X131998600Y-123720641D01*
X131884526Y-123147152D01*
X131559670Y-122660971D01*
X131073489Y-122336115D01*
X130500000Y-122222041D01*
X129926511Y-122336115D01*
X129440330Y-122660971D01*
X129431195Y-122674642D01*
X129426762Y-122651083D01*
X129287690Y-122434959D01*
X129075490Y-122289969D01*
X128823600Y-122238960D01*
X127096400Y-122238960D01*
X126861083Y-122283238D01*
X126644959Y-122422310D01*
X126499969Y-122634510D01*
X126448960Y-122886400D01*
X126448960Y-124613600D01*
X126493238Y-124848917D01*
X126632310Y-125065041D01*
X126844510Y-125210031D01*
X126888345Y-125218908D01*
X126713889Y-125480000D01*
X125750000Y-125480000D01*
X125440026Y-125541658D01*
X125308635Y-125629451D01*
X125177243Y-125717244D01*
X122685036Y-128209452D01*
X122685162Y-128064833D01*
X122635000Y-127943431D01*
X122635000Y-123056822D01*
X122684838Y-122936799D01*
X122685162Y-122564833D01*
X122543117Y-122221057D01*
X122280327Y-121957808D01*
X121936799Y-121815162D01*
X121564833Y-121814838D01*
X121221057Y-121956883D01*
X120957808Y-122219673D01*
X120815162Y-122563201D01*
X120814838Y-122935167D01*
X120865000Y-123056569D01*
X120865000Y-127943178D01*
X120815162Y-128063201D01*
X120814838Y-128435167D01*
X120816835Y-128440000D01*
X119350000Y-128440000D01*
X119040026Y-128501658D01*
X118945471Y-128564838D01*
X118777243Y-128677244D01*
X117664488Y-129790000D01*
X115000000Y-129790000D01*
X114690027Y-129851657D01*
X114427244Y-130027243D01*
X113804488Y-130650000D01*
X111255853Y-130650000D01*
X111089029Y-130400330D01*
X110774248Y-130190000D01*
X111089029Y-129979670D01*
X111413885Y-129493489D01*
X111527959Y-128920000D01*
X111413885Y-128346511D01*
X111089029Y-127860330D01*
X110774248Y-127650000D01*
X111089029Y-127439670D01*
X111413885Y-126953489D01*
X111527959Y-126380000D01*
X111413885Y-125806511D01*
X111089029Y-125320330D01*
X110774248Y-125110000D01*
X111089029Y-124899670D01*
X111107631Y-124871830D01*
X111690000Y-125454199D01*
X111690000Y-128750000D01*
X111751658Y-129059974D01*
X111838557Y-129190027D01*
X111927244Y-129322756D01*
X112332571Y-129728083D01*
X112456883Y-130028943D01*
X112719673Y-130292192D01*
X113063201Y-130434838D01*
X113435167Y-130435162D01*
X113778943Y-130293117D01*
X114042192Y-130030327D01*
X114184838Y-129686799D01*
X114185162Y-129314833D01*
X114043117Y-128971057D01*
X113780327Y-128707808D01*
X113595297Y-128630976D01*
X113888083Y-128510000D01*
X114814488Y-128510000D01*
X114882570Y-128578083D01*
X115006883Y-128878943D01*
X115269673Y-129142192D01*
X115613201Y-129284838D01*
X115985167Y-129285162D01*
X116328943Y-129143117D01*
X116592192Y-128880327D01*
X116734838Y-128536799D01*
X116735162Y-128164833D01*
X116593117Y-127821057D01*
X116330327Y-127557808D01*
X116027628Y-127432116D01*
X115722756Y-127127244D01*
X115459974Y-126951658D01*
X115150000Y-126890000D01*
X113887441Y-126890000D01*
X113586799Y-126765162D01*
X113310000Y-126764921D01*
X113310000Y-125118686D01*
X113248342Y-124808712D01*
X113101095Y-124588342D01*
X113072756Y-124545929D01*
X111794070Y-123267244D01*
X111765781Y-123248342D01*
X111531288Y-123091658D01*
X111261148Y-123037923D01*
X111089029Y-122780330D01*
X110602848Y-122455474D01*
X110029359Y-122341400D01*
X109970641Y-122341400D01*
X109397152Y-122455474D01*
X108910971Y-122780330D01*
X108730000Y-123051172D01*
X108549029Y-122780330D01*
X108485990Y-122738208D01*
X111414199Y-119810000D01*
X129664488Y-119810000D01*
X132690000Y-122835513D01*
X132690000Y-122835513D01*
G37*
X132690000Y-122835513D02*
X132690000Y-132164487D01*
X131754488Y-133100000D01*
X131746111Y-133100000D01*
X131559670Y-132820971D01*
X131288828Y-132640000D01*
X131559670Y-132459029D01*
X131884526Y-131972848D01*
X131998600Y-131399359D01*
X131998600Y-131340641D01*
X131884526Y-130767152D01*
X131559670Y-130280971D01*
X131288828Y-130100000D01*
X131559670Y-129919029D01*
X131884526Y-129432848D01*
X131998600Y-128859359D01*
X131998600Y-128800641D01*
X131884526Y-128227152D01*
X131559670Y-127740971D01*
X131288828Y-127560000D01*
X131559670Y-127379029D01*
X131884526Y-126892848D01*
X131998600Y-126319359D01*
X131998600Y-126260641D01*
X131884526Y-125687152D01*
X131559670Y-125200971D01*
X131288828Y-125020000D01*
X131559670Y-124839029D01*
X131884526Y-124352848D01*
X131998600Y-123779359D01*
X131998600Y-123720641D01*
X131884526Y-123147152D01*
X131559670Y-122660971D01*
X131073489Y-122336115D01*
X130500000Y-122222041D01*
X129926511Y-122336115D01*
X129440330Y-122660971D01*
X129431195Y-122674642D01*
X129426762Y-122651083D01*
X129287690Y-122434959D01*
X129075490Y-122289969D01*
X128823600Y-122238960D01*
X127096400Y-122238960D01*
X126861083Y-122283238D01*
X126644959Y-122422310D01*
X126499969Y-122634510D01*
X126448960Y-122886400D01*
X126448960Y-124613600D01*
X126493238Y-124848917D01*
X126632310Y-125065041D01*
X126844510Y-125210031D01*
X126888345Y-125218908D01*
X126713889Y-125480000D01*
X125750000Y-125480000D01*
X125440026Y-125541658D01*
X125308635Y-125629451D01*
X125177243Y-125717244D01*
X122685036Y-128209452D01*
X122685162Y-128064833D01*
X122635000Y-127943431D01*
X122635000Y-123056822D01*
X122684838Y-122936799D01*
X122685162Y-122564833D01*
X122543117Y-122221057D01*
X122280327Y-121957808D01*
X121936799Y-121815162D01*
X121564833Y-121814838D01*
X121221057Y-121956883D01*
X120957808Y-122219673D01*
X120815162Y-122563201D01*
X120814838Y-122935167D01*
X120865000Y-123056569D01*
X120865000Y-127943178D01*
X120815162Y-128063201D01*
X120814838Y-128435167D01*
X120816835Y-128440000D01*
X119350000Y-128440000D01*
X119040026Y-128501658D01*
X118945471Y-128564838D01*
X118777243Y-128677244D01*
X117664488Y-129790000D01*
X115000000Y-129790000D01*
X114690027Y-129851657D01*
X114427244Y-130027243D01*
X113804488Y-130650000D01*
X111255853Y-130650000D01*
X111089029Y-130400330D01*
X110774248Y-130190000D01*
X111089029Y-129979670D01*
X111413885Y-129493489D01*
X111527959Y-128920000D01*
X111413885Y-128346511D01*
X111089029Y-127860330D01*
X110774248Y-127650000D01*
X111089029Y-127439670D01*
X111413885Y-126953489D01*
X111527959Y-126380000D01*
X111413885Y-125806511D01*
X111089029Y-125320330D01*
X110774248Y-125110000D01*
X111089029Y-124899670D01*
X111107631Y-124871830D01*
X111690000Y-125454199D01*
X111690000Y-128750000D01*
X111751658Y-129059974D01*
X111838557Y-129190027D01*
X111927244Y-129322756D01*
X112332571Y-129728083D01*
X112456883Y-130028943D01*
X112719673Y-130292192D01*
X113063201Y-130434838D01*
X113435167Y-130435162D01*
X113778943Y-130293117D01*
X114042192Y-130030327D01*
X114184838Y-129686799D01*
X114185162Y-129314833D01*
X114043117Y-128971057D01*
X113780327Y-128707808D01*
X113595297Y-128630976D01*
X113888083Y-128510000D01*
X114814488Y-128510000D01*
X114882570Y-128578083D01*
X115006883Y-128878943D01*
X115269673Y-129142192D01*
X115613201Y-129284838D01*
X115985167Y-129285162D01*
X116328943Y-129143117D01*
X116592192Y-128880327D01*
X116734838Y-128536799D01*
X116735162Y-128164833D01*
X116593117Y-127821057D01*
X116330327Y-127557808D01*
X116027628Y-127432116D01*
X115722756Y-127127244D01*
X115459974Y-126951658D01*
X115150000Y-126890000D01*
X113887441Y-126890000D01*
X113586799Y-126765162D01*
X113310000Y-126764921D01*
X113310000Y-125118686D01*
X113248342Y-124808712D01*
X113101095Y-124588342D01*
X113072756Y-124545929D01*
X111794070Y-123267244D01*
X111765781Y-123248342D01*
X111531288Y-123091658D01*
X111261148Y-123037923D01*
X111089029Y-122780330D01*
X110602848Y-122455474D01*
X110029359Y-122341400D01*
X109970641Y-122341400D01*
X109397152Y-122455474D01*
X108910971Y-122780330D01*
X108730000Y-123051172D01*
X108549029Y-122780330D01*
X108485990Y-122738208D01*
X111414199Y-119810000D01*
X129664488Y-119810000D01*
X132690000Y-122835513D01*
G36*
X106887244Y-122045930D02*
X106711658Y-122308712D01*
X106655689Y-122590088D01*
X106540081Y-122667334D01*
X106799408Y-121363610D01*
X107726349Y-119976346D01*
X109113610Y-119049408D01*
X110074997Y-118858177D01*
X106887244Y-122045930D01*
X106887244Y-122045930D01*
G37*
X106887244Y-122045930D02*
X106711658Y-122308712D01*
X106655689Y-122590088D01*
X106540081Y-122667334D01*
X106799408Y-121363610D01*
X107726349Y-119976346D01*
X109113610Y-119049408D01*
X110074997Y-118858177D01*
X106887244Y-122045930D01*
M02*
