G04 #@! TF.FileFunction,Legend,Top*
%FSLAX46Y46*%
G04 Gerber Fmt 4.6, Leading zero omitted, Abs format (unit mm)*
G04 Created by KiCad (PCBNEW 4.0.2-stable) date 26.07.2016 22:42:36*
%MOMM*%
G01*
G04 APERTURE LIST*
%ADD10C,0.300000*%
%ADD11C,0.150000*%
G04 APERTURE END LIST*
D10*
D11*
X133780000Y-118670000D02*
X133780000Y-138990000D01*
X133230000Y-119210000D02*
X133230000Y-138430000D01*
X124680000Y-118670000D02*
X124680000Y-138990000D01*
X125230000Y-119210000D02*
X125230000Y-126580000D01*
X125230000Y-131080000D02*
X125230000Y-138430000D01*
X125230000Y-126580000D02*
X124680000Y-126580000D01*
X125230000Y-131080000D02*
X124680000Y-131080000D01*
X133780000Y-118670000D02*
X124680000Y-118670000D01*
X133230000Y-119210000D02*
X125230000Y-119210000D01*
X133780000Y-138990000D02*
X124680000Y-138990000D01*
X133230000Y-138430000D02*
X125230000Y-138430000D01*
X133780000Y-118670000D02*
X133230000Y-119210000D01*
X133780000Y-138990000D02*
X133230000Y-138430000D01*
X124680000Y-118670000D02*
X125230000Y-119210000D01*
X124680000Y-138990000D02*
X125230000Y-138430000D01*
X110701120Y-137200060D02*
X110701120Y-142401980D01*
X113098880Y-142401980D02*
X113098880Y-137200060D01*
X114198700Y-135201080D02*
X113098880Y-135201080D01*
X113698320Y-134601640D02*
X113698320Y-135800520D01*
X113098880Y-135805600D02*
X110701120Y-135805600D01*
X133880000Y-140270000D02*
X133880000Y-160590000D01*
X133330000Y-140810000D02*
X133330000Y-160030000D01*
X124780000Y-140270000D02*
X124780000Y-160590000D01*
X125330000Y-140810000D02*
X125330000Y-148180000D01*
X125330000Y-152680000D02*
X125330000Y-160030000D01*
X125330000Y-148180000D02*
X124780000Y-148180000D01*
X125330000Y-152680000D02*
X124780000Y-152680000D01*
X133880000Y-140270000D02*
X124780000Y-140270000D01*
X133330000Y-140810000D02*
X125330000Y-140810000D01*
X133880000Y-160590000D02*
X124780000Y-160590000D01*
X133330000Y-160030000D02*
X125330000Y-160030000D01*
X133880000Y-140270000D02*
X133330000Y-140810000D01*
X133880000Y-160590000D02*
X133330000Y-160030000D01*
X124780000Y-140270000D02*
X125330000Y-140810000D01*
X124780000Y-160590000D02*
X125330000Y-160030000D01*
X118449200Y-148250180D02*
X119150240Y-148250180D01*
X119150240Y-148250180D02*
X119150240Y-148499100D01*
X119150240Y-151049160D02*
X119150240Y-151249820D01*
X119150240Y-151249820D02*
X118449200Y-151249820D01*
X118449200Y-130250180D02*
X119150240Y-130250180D01*
X119150240Y-130250180D02*
X119150240Y-130499100D01*
X119150240Y-133049160D02*
X119150240Y-133249820D01*
X119150240Y-133249820D02*
X118449200Y-133249820D01*
X118449200Y-139250180D02*
X119150240Y-139250180D01*
X119150240Y-139250180D02*
X119150240Y-139499100D01*
X119150240Y-142049160D02*
X119150240Y-142249820D01*
X119150240Y-142249820D02*
X118449200Y-142249820D01*
X118449200Y-121250180D02*
X119150240Y-121250180D01*
X119150240Y-121250180D02*
X119150240Y-121499100D01*
X119150240Y-124049160D02*
X119150240Y-124249820D01*
X119150240Y-124249820D02*
X118449200Y-124249820D01*
X117900000Y-145875000D02*
X119100000Y-145875000D01*
X119100000Y-147625000D02*
X117900000Y-147625000D01*
X117900000Y-127875000D02*
X119100000Y-127875000D01*
X119100000Y-129625000D02*
X117900000Y-129625000D01*
X117900000Y-151875000D02*
X119100000Y-151875000D01*
X119100000Y-153625000D02*
X117900000Y-153625000D01*
X117900000Y-133875000D02*
X119100000Y-133875000D01*
X119100000Y-135625000D02*
X117900000Y-135625000D01*
X117900000Y-136875000D02*
X119100000Y-136875000D01*
X119100000Y-138625000D02*
X117900000Y-138625000D01*
X117900000Y-118875000D02*
X119100000Y-118875000D01*
X119100000Y-120625000D02*
X117900000Y-120625000D01*
X117900000Y-142875000D02*
X119100000Y-142875000D01*
X119100000Y-144625000D02*
X117900000Y-144625000D01*
X117900000Y-124875000D02*
X119100000Y-124875000D01*
X119100000Y-126625000D02*
X117900000Y-126625000D01*
X108050000Y-137800000D02*
G75*
G03X108050000Y-137800000I-100000J0D01*
G01*
X108500000Y-138050000D02*
X108000000Y-138050000D01*
X108500000Y-140950000D02*
X108500000Y-138050000D01*
X108000000Y-140950000D02*
X108500000Y-140950000D01*
X108000000Y-138050000D02*
X108000000Y-140950000D01*
X106190000Y-156870000D02*
X106190000Y-144170000D01*
X106190000Y-144170000D02*
X111270000Y-144170000D01*
X111270000Y-144170000D02*
X111270000Y-154330000D01*
X106190000Y-156870000D02*
X108730000Y-156870000D01*
X110000000Y-157150000D02*
X111550000Y-157150000D01*
X108730000Y-156870000D02*
X108730000Y-154330000D01*
X108730000Y-154330000D02*
X111270000Y-154330000D01*
X111550000Y-157150000D02*
X111550000Y-155600000D01*
X106190000Y-135270000D02*
X106190000Y-122570000D01*
X106190000Y-122570000D02*
X111270000Y-122570000D01*
X111270000Y-122570000D02*
X111270000Y-132730000D01*
X106190000Y-135270000D02*
X108730000Y-135270000D01*
X110000000Y-135550000D02*
X111550000Y-135550000D01*
X108730000Y-135270000D02*
X108730000Y-132730000D01*
X108730000Y-132730000D02*
X111270000Y-132730000D01*
X111550000Y-135550000D02*
X111550000Y-134000000D01*
X124052381Y-138938095D02*
X123052381Y-138938095D01*
X123052381Y-138557142D01*
X123100000Y-138461904D01*
X123147619Y-138414285D01*
X123242857Y-138366666D01*
X123385714Y-138366666D01*
X123480952Y-138414285D01*
X123528571Y-138461904D01*
X123576190Y-138557142D01*
X123576190Y-138938095D01*
X123385714Y-137509523D02*
X124052381Y-137509523D01*
X123004762Y-137747619D02*
X123719048Y-137985714D01*
X123719048Y-137366666D01*
X112433334Y-144757143D02*
X112385715Y-144804762D01*
X112242858Y-144852381D01*
X112147620Y-144852381D01*
X112004762Y-144804762D01*
X111909524Y-144709524D01*
X111861905Y-144614286D01*
X111814286Y-144423810D01*
X111814286Y-144280952D01*
X111861905Y-144090476D01*
X111909524Y-143995238D01*
X112004762Y-143900000D01*
X112147620Y-143852381D01*
X112242858Y-143852381D01*
X112385715Y-143900000D01*
X112433334Y-143947619D01*
X113385715Y-144852381D02*
X112814286Y-144852381D01*
X113100000Y-144852381D02*
X113100000Y-143852381D01*
X113004762Y-143995238D01*
X112909524Y-144090476D01*
X112814286Y-144138095D01*
X113772289Y-135582032D02*
X113772289Y-134820127D01*
X114153241Y-135201079D02*
X113391336Y-135201079D01*
X124052381Y-160538095D02*
X123052381Y-160538095D01*
X123052381Y-160157142D01*
X123100000Y-160061904D01*
X123147619Y-160014285D01*
X123242857Y-159966666D01*
X123385714Y-159966666D01*
X123480952Y-160014285D01*
X123528571Y-160061904D01*
X123576190Y-160157142D01*
X123576190Y-160538095D01*
X123052381Y-159633333D02*
X123052381Y-159014285D01*
X123433333Y-159347619D01*
X123433333Y-159204761D01*
X123480952Y-159109523D01*
X123528571Y-159061904D01*
X123623810Y-159014285D01*
X123861905Y-159014285D01*
X123957143Y-159061904D01*
X124004762Y-159109523D01*
X124052381Y-159204761D01*
X124052381Y-159490476D01*
X124004762Y-159585714D01*
X123957143Y-159633333D01*
X115547619Y-149845238D02*
X115500000Y-149940476D01*
X115404762Y-150035714D01*
X115261905Y-150178571D01*
X115214286Y-150273810D01*
X115214286Y-150369048D01*
X115452381Y-150321429D02*
X115404762Y-150416667D01*
X115309524Y-150511905D01*
X115119048Y-150559524D01*
X114785714Y-150559524D01*
X114595238Y-150511905D01*
X114500000Y-150416667D01*
X114452381Y-150321429D01*
X114452381Y-150130952D01*
X114500000Y-150035714D01*
X114595238Y-149940476D01*
X114785714Y-149892857D01*
X115119048Y-149892857D01*
X115309524Y-149940476D01*
X115404762Y-150035714D01*
X115452381Y-150130952D01*
X115452381Y-150321429D01*
X115452381Y-148940476D02*
X115452381Y-149511905D01*
X115452381Y-149226191D02*
X114452381Y-149226191D01*
X114595238Y-149321429D01*
X114690476Y-149416667D01*
X114738095Y-149511905D01*
X115547619Y-131895238D02*
X115500000Y-131990476D01*
X115404762Y-132085714D01*
X115261905Y-132228571D01*
X115214286Y-132323810D01*
X115214286Y-132419048D01*
X115452381Y-132371429D02*
X115404762Y-132466667D01*
X115309524Y-132561905D01*
X115119048Y-132609524D01*
X114785714Y-132609524D01*
X114595238Y-132561905D01*
X114500000Y-132466667D01*
X114452381Y-132371429D01*
X114452381Y-132180952D01*
X114500000Y-132085714D01*
X114595238Y-131990476D01*
X114785714Y-131942857D01*
X115119048Y-131942857D01*
X115309524Y-131990476D01*
X115404762Y-132085714D01*
X115452381Y-132180952D01*
X115452381Y-132371429D01*
X114547619Y-131561905D02*
X114500000Y-131514286D01*
X114452381Y-131419048D01*
X114452381Y-131180952D01*
X114500000Y-131085714D01*
X114547619Y-131038095D01*
X114642857Y-130990476D01*
X114738095Y-130990476D01*
X114880952Y-131038095D01*
X115452381Y-131609524D01*
X115452381Y-130990476D01*
X115547619Y-140845238D02*
X115500000Y-140940476D01*
X115404762Y-141035714D01*
X115261905Y-141178571D01*
X115214286Y-141273810D01*
X115214286Y-141369048D01*
X115452381Y-141321429D02*
X115404762Y-141416667D01*
X115309524Y-141511905D01*
X115119048Y-141559524D01*
X114785714Y-141559524D01*
X114595238Y-141511905D01*
X114500000Y-141416667D01*
X114452381Y-141321429D01*
X114452381Y-141130952D01*
X114500000Y-141035714D01*
X114595238Y-140940476D01*
X114785714Y-140892857D01*
X115119048Y-140892857D01*
X115309524Y-140940476D01*
X115404762Y-141035714D01*
X115452381Y-141130952D01*
X115452381Y-141321429D01*
X114452381Y-140559524D02*
X114452381Y-139940476D01*
X114833333Y-140273810D01*
X114833333Y-140130952D01*
X114880952Y-140035714D01*
X114928571Y-139988095D01*
X115023810Y-139940476D01*
X115261905Y-139940476D01*
X115357143Y-139988095D01*
X115404762Y-140035714D01*
X115452381Y-140130952D01*
X115452381Y-140416667D01*
X115404762Y-140511905D01*
X115357143Y-140559524D01*
X115547619Y-122895238D02*
X115500000Y-122990476D01*
X115404762Y-123085714D01*
X115261905Y-123228571D01*
X115214286Y-123323810D01*
X115214286Y-123419048D01*
X115452381Y-123371429D02*
X115404762Y-123466667D01*
X115309524Y-123561905D01*
X115119048Y-123609524D01*
X114785714Y-123609524D01*
X114595238Y-123561905D01*
X114500000Y-123466667D01*
X114452381Y-123371429D01*
X114452381Y-123180952D01*
X114500000Y-123085714D01*
X114595238Y-122990476D01*
X114785714Y-122942857D01*
X115119048Y-122942857D01*
X115309524Y-122990476D01*
X115404762Y-123085714D01*
X115452381Y-123180952D01*
X115452381Y-123371429D01*
X114785714Y-122085714D02*
X115452381Y-122085714D01*
X114404762Y-122323810D02*
X115119048Y-122561905D01*
X115119048Y-121942857D01*
X115452381Y-146966666D02*
X114976190Y-147300000D01*
X115452381Y-147538095D02*
X114452381Y-147538095D01*
X114452381Y-147157142D01*
X114500000Y-147061904D01*
X114547619Y-147014285D01*
X114642857Y-146966666D01*
X114785714Y-146966666D01*
X114880952Y-147014285D01*
X114928571Y-147061904D01*
X114976190Y-147157142D01*
X114976190Y-147538095D01*
X115452381Y-146014285D02*
X115452381Y-146585714D01*
X115452381Y-146300000D02*
X114452381Y-146300000D01*
X114595238Y-146395238D01*
X114690476Y-146490476D01*
X114738095Y-146585714D01*
X115452381Y-128966666D02*
X114976190Y-129300000D01*
X115452381Y-129538095D02*
X114452381Y-129538095D01*
X114452381Y-129157142D01*
X114500000Y-129061904D01*
X114547619Y-129014285D01*
X114642857Y-128966666D01*
X114785714Y-128966666D01*
X114880952Y-129014285D01*
X114928571Y-129061904D01*
X114976190Y-129157142D01*
X114976190Y-129538095D01*
X114547619Y-128585714D02*
X114500000Y-128538095D01*
X114452381Y-128442857D01*
X114452381Y-128204761D01*
X114500000Y-128109523D01*
X114547619Y-128061904D01*
X114642857Y-128014285D01*
X114738095Y-128014285D01*
X114880952Y-128061904D01*
X115452381Y-128633333D01*
X115452381Y-128014285D01*
X115452381Y-152966666D02*
X114976190Y-153300000D01*
X115452381Y-153538095D02*
X114452381Y-153538095D01*
X114452381Y-153157142D01*
X114500000Y-153061904D01*
X114547619Y-153014285D01*
X114642857Y-152966666D01*
X114785714Y-152966666D01*
X114880952Y-153014285D01*
X114928571Y-153061904D01*
X114976190Y-153157142D01*
X114976190Y-153538095D01*
X114452381Y-152633333D02*
X114452381Y-152014285D01*
X114833333Y-152347619D01*
X114833333Y-152204761D01*
X114880952Y-152109523D01*
X114928571Y-152061904D01*
X115023810Y-152014285D01*
X115261905Y-152014285D01*
X115357143Y-152061904D01*
X115404762Y-152109523D01*
X115452381Y-152204761D01*
X115452381Y-152490476D01*
X115404762Y-152585714D01*
X115357143Y-152633333D01*
X115452381Y-134966666D02*
X114976190Y-135300000D01*
X115452381Y-135538095D02*
X114452381Y-135538095D01*
X114452381Y-135157142D01*
X114500000Y-135061904D01*
X114547619Y-135014285D01*
X114642857Y-134966666D01*
X114785714Y-134966666D01*
X114880952Y-135014285D01*
X114928571Y-135061904D01*
X114976190Y-135157142D01*
X114976190Y-135538095D01*
X114785714Y-134109523D02*
X115452381Y-134109523D01*
X114404762Y-134347619D02*
X115119048Y-134585714D01*
X115119048Y-133966666D01*
X115452381Y-137966666D02*
X114976190Y-138300000D01*
X115452381Y-138538095D02*
X114452381Y-138538095D01*
X114452381Y-138157142D01*
X114500000Y-138061904D01*
X114547619Y-138014285D01*
X114642857Y-137966666D01*
X114785714Y-137966666D01*
X114880952Y-138014285D01*
X114928571Y-138061904D01*
X114976190Y-138157142D01*
X114976190Y-138538095D01*
X114452381Y-137061904D02*
X114452381Y-137538095D01*
X114928571Y-137585714D01*
X114880952Y-137538095D01*
X114833333Y-137442857D01*
X114833333Y-137204761D01*
X114880952Y-137109523D01*
X114928571Y-137061904D01*
X115023810Y-137014285D01*
X115261905Y-137014285D01*
X115357143Y-137061904D01*
X115404762Y-137109523D01*
X115452381Y-137204761D01*
X115452381Y-137442857D01*
X115404762Y-137538095D01*
X115357143Y-137585714D01*
X115452381Y-119966666D02*
X114976190Y-120300000D01*
X115452381Y-120538095D02*
X114452381Y-120538095D01*
X114452381Y-120157142D01*
X114500000Y-120061904D01*
X114547619Y-120014285D01*
X114642857Y-119966666D01*
X114785714Y-119966666D01*
X114880952Y-120014285D01*
X114928571Y-120061904D01*
X114976190Y-120157142D01*
X114976190Y-120538095D01*
X114452381Y-119109523D02*
X114452381Y-119300000D01*
X114500000Y-119395238D01*
X114547619Y-119442857D01*
X114690476Y-119538095D01*
X114880952Y-119585714D01*
X115261905Y-119585714D01*
X115357143Y-119538095D01*
X115404762Y-119490476D01*
X115452381Y-119395238D01*
X115452381Y-119204761D01*
X115404762Y-119109523D01*
X115357143Y-119061904D01*
X115261905Y-119014285D01*
X115023810Y-119014285D01*
X114928571Y-119061904D01*
X114880952Y-119109523D01*
X114833333Y-119204761D01*
X114833333Y-119395238D01*
X114880952Y-119490476D01*
X114928571Y-119538095D01*
X115023810Y-119585714D01*
X115452381Y-143966666D02*
X114976190Y-144300000D01*
X115452381Y-144538095D02*
X114452381Y-144538095D01*
X114452381Y-144157142D01*
X114500000Y-144061904D01*
X114547619Y-144014285D01*
X114642857Y-143966666D01*
X114785714Y-143966666D01*
X114880952Y-144014285D01*
X114928571Y-144061904D01*
X114976190Y-144157142D01*
X114976190Y-144538095D01*
X114452381Y-143633333D02*
X114452381Y-142966666D01*
X115452381Y-143395238D01*
X115452381Y-125966666D02*
X114976190Y-126300000D01*
X115452381Y-126538095D02*
X114452381Y-126538095D01*
X114452381Y-126157142D01*
X114500000Y-126061904D01*
X114547619Y-126014285D01*
X114642857Y-125966666D01*
X114785714Y-125966666D01*
X114880952Y-126014285D01*
X114928571Y-126061904D01*
X114976190Y-126157142D01*
X114976190Y-126538095D01*
X114880952Y-125395238D02*
X114833333Y-125490476D01*
X114785714Y-125538095D01*
X114690476Y-125585714D01*
X114642857Y-125585714D01*
X114547619Y-125538095D01*
X114500000Y-125490476D01*
X114452381Y-125395238D01*
X114452381Y-125204761D01*
X114500000Y-125109523D01*
X114547619Y-125061904D01*
X114642857Y-125014285D01*
X114690476Y-125014285D01*
X114785714Y-125061904D01*
X114833333Y-125109523D01*
X114880952Y-125204761D01*
X114880952Y-125395238D01*
X114928571Y-125490476D01*
X114976190Y-125538095D01*
X115071429Y-125585714D01*
X115261905Y-125585714D01*
X115357143Y-125538095D01*
X115404762Y-125490476D01*
X115452381Y-125395238D01*
X115452381Y-125204761D01*
X115404762Y-125109523D01*
X115357143Y-125061904D01*
X115261905Y-125014285D01*
X115071429Y-125014285D01*
X114976190Y-125061904D01*
X114928571Y-125109523D01*
X114880952Y-125204761D01*
X107038095Y-141652381D02*
X107038095Y-142461905D01*
X107085714Y-142557143D01*
X107133333Y-142604762D01*
X107228571Y-142652381D01*
X107419048Y-142652381D01*
X107514286Y-142604762D01*
X107561905Y-142557143D01*
X107609524Y-142461905D01*
X107609524Y-141652381D01*
X108609524Y-142652381D02*
X108038095Y-142652381D01*
X108323809Y-142652381D02*
X108323809Y-141652381D01*
X108228571Y-141795238D01*
X108133333Y-141890476D01*
X108038095Y-141938095D01*
X109261905Y-158652381D02*
X109261905Y-157652381D01*
X109642858Y-157652381D01*
X109738096Y-157700000D01*
X109785715Y-157747619D01*
X109833334Y-157842857D01*
X109833334Y-157985714D01*
X109785715Y-158080952D01*
X109738096Y-158128571D01*
X109642858Y-158176190D01*
X109261905Y-158176190D01*
X110785715Y-158652381D02*
X110214286Y-158652381D01*
X110500000Y-158652381D02*
X110500000Y-157652381D01*
X110404762Y-157795238D01*
X110309524Y-157890476D01*
X110214286Y-157938095D01*
X106261905Y-136852381D02*
X106261905Y-135852381D01*
X106642858Y-135852381D01*
X106738096Y-135900000D01*
X106785715Y-135947619D01*
X106833334Y-136042857D01*
X106833334Y-136185714D01*
X106785715Y-136280952D01*
X106738096Y-136328571D01*
X106642858Y-136376190D01*
X106261905Y-136376190D01*
X107214286Y-135947619D02*
X107261905Y-135900000D01*
X107357143Y-135852381D01*
X107595239Y-135852381D01*
X107690477Y-135900000D01*
X107738096Y-135947619D01*
X107785715Y-136042857D01*
X107785715Y-136138095D01*
X107738096Y-136280952D01*
X107166667Y-136852381D01*
X107785715Y-136852381D01*
M02*
