M48
;DRILL file {KiCad 4.0.2-stable} date 26.07.2016 22:42:40
;FORMAT={-:-/ absolute / metric / decimal}
FMAT,2
METRIC,TZ
T1C0.400
T2C1.016
%
G90
G05
M71
T1
X107.Y-141.5
X107.15Y-137.
X108.Y-159.25
X108.25Y-120.25
X108.25Y-139.5
X108.55Y-137.45
X109.55Y-142.45
X111.85Y-130.05
X112.Y-156.5
X112.1Y-121.1
X113.Y-138.75
X113.25Y-129.5
X113.4Y-127.7
X114.8Y-132.
X114.8Y-154.4
X114.9Y-125.9
X115.2Y-145.
X115.8Y-128.35
X117.2Y-158.8
X119.5Y-145.75
X121.25Y-138.5
X121.45Y-145.2
X121.75Y-122.75
X121.75Y-128.25
X121.75Y-131.5
X121.9Y-140.3
X122.Y-154.4
X122.5Y-134.25
X122.5Y-143.
X122.75Y-139.
X123.4Y-130.75
X124.75Y-129.75
X125.Y-122.6
X125.Y-134.
X125.6Y-136.4
X125.8Y-155.8
X127.6Y-158.5
X127.9Y-139.6
X130.25Y-140.
X131.5Y-140.
X132.9Y-150.8
X133.Y-140.25
T2
X107.46Y-123.84
X107.46Y-126.38
X107.46Y-128.92
X107.46Y-131.46
X107.46Y-134.
X107.46Y-145.44
X107.46Y-147.98
X107.46Y-150.52
X107.46Y-153.06
X107.46Y-155.6
X110.Y-123.84
X110.Y-126.38
X110.Y-128.92
X110.Y-131.46
X110.Y-134.
X110.Y-145.44
X110.Y-147.98
X110.Y-150.52
X110.Y-153.06
X110.Y-155.6
X127.96Y-123.75
X127.96Y-126.29
X127.96Y-128.83
X127.96Y-131.37
X127.96Y-133.91
X128.06Y-145.35
X128.06Y-147.89
X128.06Y-150.43
X128.06Y-152.97
X128.06Y-155.51
X130.5Y-123.75
X130.5Y-126.29
X130.5Y-128.83
X130.5Y-131.37
X130.5Y-133.91
X130.6Y-145.35
X130.6Y-147.89
X130.6Y-150.43
X130.6Y-152.97
X130.6Y-155.51
T0
M30
