G04 #@! TF.FileFunction,Legend,Bot*
%FSLAX46Y46*%
G04 Gerber Fmt 4.6, Leading zero omitted, Abs format (unit mm)*
G04 Created by KiCad (PCBNEW 4.0.2-stable) date 27.07.2016 15:24:31*
%MOMM*%
G01*
G04 APERTURE LIST*
%ADD10C,0.100000*%
%ADD11C,0.300000*%
%ADD12C,0.150000*%
%ADD13C,0.075000*%
%ADD14C,0.002540*%
G04 APERTURE END LIST*
D10*
D11*
X118028571Y-128500002D02*
X117314286Y-128000002D01*
X118028571Y-127642859D02*
X116528571Y-127642859D01*
X116528571Y-128214287D01*
X116600000Y-128357145D01*
X116671429Y-128428573D01*
X116814286Y-128500002D01*
X117028571Y-128500002D01*
X117171429Y-128428573D01*
X117242857Y-128357145D01*
X117314286Y-128214287D01*
X117314286Y-127642859D01*
X117957143Y-129714287D02*
X118028571Y-129571430D01*
X118028571Y-129285716D01*
X117957143Y-129142859D01*
X117814286Y-129071430D01*
X117242857Y-129071430D01*
X117100000Y-129142859D01*
X117028571Y-129285716D01*
X117028571Y-129571430D01*
X117100000Y-129714287D01*
X117242857Y-129785716D01*
X117385714Y-129785716D01*
X117528571Y-129071430D01*
X117957143Y-130357144D02*
X118028571Y-130571430D01*
X118028571Y-130928573D01*
X117957143Y-131071430D01*
X117885714Y-131142859D01*
X117742857Y-131214287D01*
X117600000Y-131214287D01*
X117457143Y-131142859D01*
X117385714Y-131071430D01*
X117314286Y-130928573D01*
X117242857Y-130642859D01*
X117171429Y-130500001D01*
X117100000Y-130428573D01*
X116957143Y-130357144D01*
X116814286Y-130357144D01*
X116671429Y-130428573D01*
X116600000Y-130500001D01*
X116528571Y-130642859D01*
X116528571Y-131000001D01*
X116600000Y-131214287D01*
X116528571Y-131642858D02*
X116528571Y-132500001D01*
X118028571Y-132071430D02*
X116528571Y-132071430D01*
X116528571Y-132857144D02*
X116528571Y-133785715D01*
X117100000Y-133285715D01*
X117100000Y-133500001D01*
X117171429Y-133642858D01*
X117242857Y-133714287D01*
X117385714Y-133785715D01*
X117742857Y-133785715D01*
X117885714Y-133714287D01*
X117957143Y-133642858D01*
X118028571Y-133500001D01*
X118028571Y-133071429D01*
X117957143Y-132928572D01*
X117885714Y-132857144D01*
X116671429Y-134357143D02*
X116600000Y-134428572D01*
X116528571Y-134571429D01*
X116528571Y-134928572D01*
X116600000Y-135071429D01*
X116671429Y-135142858D01*
X116814286Y-135214286D01*
X116957143Y-135214286D01*
X117171429Y-135142858D01*
X118028571Y-134285715D01*
X118028571Y-135214286D01*
X118028571Y-137714286D02*
X118028571Y-137000000D01*
X116528571Y-137000000D01*
X117885714Y-139071429D02*
X117957143Y-139000000D01*
X118028571Y-138785714D01*
X118028571Y-138642857D01*
X117957143Y-138428572D01*
X117814286Y-138285714D01*
X117671429Y-138214286D01*
X117385714Y-138142857D01*
X117171429Y-138142857D01*
X116885714Y-138214286D01*
X116742857Y-138285714D01*
X116600000Y-138428572D01*
X116528571Y-138642857D01*
X116528571Y-138785714D01*
X116600000Y-139000000D01*
X116671429Y-139071429D01*
X118028571Y-139714286D02*
X116528571Y-139714286D01*
X116528571Y-140071429D01*
X116600000Y-140285714D01*
X116742857Y-140428572D01*
X116885714Y-140500000D01*
X117171429Y-140571429D01*
X117385714Y-140571429D01*
X117671429Y-140500000D01*
X117814286Y-140428572D01*
X117957143Y-140285714D01*
X118028571Y-140071429D01*
X118028571Y-139714286D01*
X117600000Y-142285714D02*
X117600000Y-143000000D01*
X118028571Y-142142857D02*
X116528571Y-142642857D01*
X118028571Y-143142857D01*
X118028571Y-144285714D02*
X116528571Y-144285714D01*
X117957143Y-144285714D02*
X118028571Y-144142857D01*
X118028571Y-143857143D01*
X117957143Y-143714285D01*
X117885714Y-143642857D01*
X117742857Y-143571428D01*
X117314286Y-143571428D01*
X117171429Y-143642857D01*
X117100000Y-143714285D01*
X117028571Y-143857143D01*
X117028571Y-144142857D01*
X117100000Y-144285714D01*
X118028571Y-145642857D02*
X117242857Y-145642857D01*
X117100000Y-145571428D01*
X117028571Y-145428571D01*
X117028571Y-145142857D01*
X117100000Y-145000000D01*
X117957143Y-145642857D02*
X118028571Y-145500000D01*
X118028571Y-145142857D01*
X117957143Y-145000000D01*
X117814286Y-144928571D01*
X117671429Y-144928571D01*
X117528571Y-145000000D01*
X117457143Y-145142857D01*
X117457143Y-145500000D01*
X117385714Y-145642857D01*
X117028571Y-146357143D02*
X118528571Y-146357143D01*
X117100000Y-146357143D02*
X117028571Y-146500000D01*
X117028571Y-146785714D01*
X117100000Y-146928571D01*
X117171429Y-147000000D01*
X117314286Y-147071429D01*
X117742857Y-147071429D01*
X117885714Y-147000000D01*
X117957143Y-146928571D01*
X118028571Y-146785714D01*
X118028571Y-146500000D01*
X117957143Y-146357143D01*
X117028571Y-147500000D02*
X117028571Y-148071429D01*
X116528571Y-147714286D02*
X117814286Y-147714286D01*
X117957143Y-147785714D01*
X118028571Y-147928572D01*
X118028571Y-148071429D01*
X117957143Y-149142857D02*
X118028571Y-149000000D01*
X118028571Y-148714286D01*
X117957143Y-148571429D01*
X117814286Y-148500000D01*
X117242857Y-148500000D01*
X117100000Y-148571429D01*
X117028571Y-148714286D01*
X117028571Y-149000000D01*
X117100000Y-149142857D01*
X117242857Y-149214286D01*
X117385714Y-149214286D01*
X117528571Y-148500000D01*
X118028571Y-149857143D02*
X117028571Y-149857143D01*
X117314286Y-149857143D02*
X117171429Y-149928571D01*
X117100000Y-150000000D01*
X117028571Y-150142857D01*
X117028571Y-150285714D01*
X117028571Y-151714285D02*
X117028571Y-152285714D01*
X118028571Y-151928571D02*
X116742857Y-151928571D01*
X116600000Y-151999999D01*
X116528571Y-152142857D01*
X116528571Y-152285714D01*
X118028571Y-153000000D02*
X117957143Y-152857142D01*
X117885714Y-152785714D01*
X117742857Y-152714285D01*
X117314286Y-152714285D01*
X117171429Y-152785714D01*
X117100000Y-152857142D01*
X117028571Y-153000000D01*
X117028571Y-153214285D01*
X117100000Y-153357142D01*
X117171429Y-153428571D01*
X117314286Y-153500000D01*
X117742857Y-153500000D01*
X117885714Y-153428571D01*
X117957143Y-153357142D01*
X118028571Y-153214285D01*
X118028571Y-153000000D01*
X118028571Y-154142857D02*
X117028571Y-154142857D01*
X117314286Y-154142857D02*
X117171429Y-154214285D01*
X117100000Y-154285714D01*
X117028571Y-154428571D01*
X117028571Y-154571428D01*
X120428571Y-125714286D02*
X119714286Y-125214286D01*
X120428571Y-124857143D02*
X118928571Y-124857143D01*
X118928571Y-125428571D01*
X119000000Y-125571429D01*
X119071429Y-125642857D01*
X119214286Y-125714286D01*
X119428571Y-125714286D01*
X119571429Y-125642857D01*
X119642857Y-125571429D01*
X119714286Y-125428571D01*
X119714286Y-124857143D01*
X120357143Y-126928571D02*
X120428571Y-126785714D01*
X120428571Y-126500000D01*
X120357143Y-126357143D01*
X120214286Y-126285714D01*
X119642857Y-126285714D01*
X119500000Y-126357143D01*
X119428571Y-126500000D01*
X119428571Y-126785714D01*
X119500000Y-126928571D01*
X119642857Y-127000000D01*
X119785714Y-127000000D01*
X119928571Y-126285714D01*
X119428571Y-127642857D02*
X120928571Y-127642857D01*
X119500000Y-127642857D02*
X119428571Y-127785714D01*
X119428571Y-128071428D01*
X119500000Y-128214285D01*
X119571429Y-128285714D01*
X119714286Y-128357143D01*
X120142857Y-128357143D01*
X120285714Y-128285714D01*
X120357143Y-128214285D01*
X120428571Y-128071428D01*
X120428571Y-127785714D01*
X120357143Y-127642857D01*
X120428571Y-129857143D02*
X119714286Y-129357143D01*
X120428571Y-129000000D02*
X118928571Y-129000000D01*
X118928571Y-129571428D01*
X119000000Y-129714286D01*
X119071429Y-129785714D01*
X119214286Y-129857143D01*
X119428571Y-129857143D01*
X119571429Y-129785714D01*
X119642857Y-129714286D01*
X119714286Y-129571428D01*
X119714286Y-129000000D01*
X120428571Y-131142857D02*
X119642857Y-131142857D01*
X119500000Y-131071428D01*
X119428571Y-130928571D01*
X119428571Y-130642857D01*
X119500000Y-130500000D01*
X120357143Y-131142857D02*
X120428571Y-131000000D01*
X120428571Y-130642857D01*
X120357143Y-130500000D01*
X120214286Y-130428571D01*
X120071429Y-130428571D01*
X119928571Y-130500000D01*
X119857143Y-130642857D01*
X119857143Y-131000000D01*
X119785714Y-131142857D01*
X119428571Y-131857143D02*
X120928571Y-131857143D01*
X119500000Y-131857143D02*
X119428571Y-132000000D01*
X119428571Y-132285714D01*
X119500000Y-132428571D01*
X119571429Y-132500000D01*
X119714286Y-132571429D01*
X120142857Y-132571429D01*
X120285714Y-132500000D01*
X120357143Y-132428571D01*
X120428571Y-132285714D01*
X120428571Y-132000000D01*
X120357143Y-131857143D01*
X120428571Y-133214286D02*
X118928571Y-133214286D01*
X118928571Y-133571429D01*
X119000000Y-133785714D01*
X119142857Y-133928572D01*
X119285714Y-134000000D01*
X119571429Y-134071429D01*
X119785714Y-134071429D01*
X120071429Y-134000000D01*
X120214286Y-133928572D01*
X120357143Y-133785714D01*
X120428571Y-133571429D01*
X120428571Y-133214286D01*
X120428571Y-134714286D02*
X119428571Y-134714286D01*
X118928571Y-134714286D02*
X119000000Y-134642857D01*
X119071429Y-134714286D01*
X119000000Y-134785714D01*
X118928571Y-134714286D01*
X119071429Y-134714286D01*
X120357143Y-135357143D02*
X120428571Y-135500000D01*
X120428571Y-135785715D01*
X120357143Y-135928572D01*
X120214286Y-136000000D01*
X120142857Y-136000000D01*
X120000000Y-135928572D01*
X119928571Y-135785715D01*
X119928571Y-135571429D01*
X119857143Y-135428572D01*
X119714286Y-135357143D01*
X119642857Y-135357143D01*
X119500000Y-135428572D01*
X119428571Y-135571429D01*
X119428571Y-135785715D01*
X119500000Y-135928572D01*
X120357143Y-137285715D02*
X120428571Y-137142858D01*
X120428571Y-136857144D01*
X120357143Y-136714286D01*
X120285714Y-136642858D01*
X120142857Y-136571429D01*
X119714286Y-136571429D01*
X119571429Y-136642858D01*
X119500000Y-136714286D01*
X119428571Y-136857144D01*
X119428571Y-137142858D01*
X119500000Y-137285715D01*
X120428571Y-138142858D02*
X120357143Y-138000000D01*
X120285714Y-137928572D01*
X120142857Y-137857143D01*
X119714286Y-137857143D01*
X119571429Y-137928572D01*
X119500000Y-138000000D01*
X119428571Y-138142858D01*
X119428571Y-138357143D01*
X119500000Y-138500000D01*
X119571429Y-138571429D01*
X119714286Y-138642858D01*
X120142857Y-138642858D01*
X120285714Y-138571429D01*
X120357143Y-138500000D01*
X120428571Y-138357143D01*
X120428571Y-138142858D01*
X119428571Y-139928572D02*
X120428571Y-139928572D01*
X119428571Y-139285715D02*
X120214286Y-139285715D01*
X120357143Y-139357143D01*
X120428571Y-139500001D01*
X120428571Y-139714286D01*
X120357143Y-139857143D01*
X120285714Y-139928572D01*
X119428571Y-140642858D02*
X120428571Y-140642858D01*
X119571429Y-140642858D02*
X119500000Y-140714286D01*
X119428571Y-140857144D01*
X119428571Y-141071429D01*
X119500000Y-141214286D01*
X119642857Y-141285715D01*
X120428571Y-141285715D01*
X119428571Y-141785715D02*
X119428571Y-142357144D01*
X118928571Y-142000001D02*
X120214286Y-142000001D01*
X120357143Y-142071429D01*
X120428571Y-142214287D01*
X120428571Y-142357144D01*
X119642857Y-144500001D02*
X119642857Y-144000001D01*
X120428571Y-144000001D02*
X118928571Y-144000001D01*
X118928571Y-144714287D01*
X119428571Y-145928572D02*
X120428571Y-145928572D01*
X119428571Y-145285715D02*
X120214286Y-145285715D01*
X120357143Y-145357143D01*
X120428571Y-145500001D01*
X120428571Y-145714286D01*
X120357143Y-145857143D01*
X120285714Y-145928572D01*
X120428571Y-146857144D02*
X120357143Y-146714286D01*
X120214286Y-146642858D01*
X118928571Y-146642858D01*
X120428571Y-147642858D02*
X120357143Y-147500000D01*
X120214286Y-147428572D01*
X118928571Y-147428572D01*
X119000000Y-150142857D02*
X118928571Y-150000000D01*
X118928571Y-149785714D01*
X119000000Y-149571429D01*
X119142857Y-149428571D01*
X119285714Y-149357143D01*
X119571429Y-149285714D01*
X119785714Y-149285714D01*
X120071429Y-149357143D01*
X120214286Y-149428571D01*
X120357143Y-149571429D01*
X120428571Y-149785714D01*
X120428571Y-149928571D01*
X120357143Y-150142857D01*
X120285714Y-150214286D01*
X119785714Y-150214286D01*
X119785714Y-149928571D01*
X120428571Y-150857143D02*
X119428571Y-150857143D01*
X119714286Y-150857143D02*
X119571429Y-150928571D01*
X119500000Y-151000000D01*
X119428571Y-151142857D01*
X119428571Y-151285714D01*
X120428571Y-152428571D02*
X119642857Y-152428571D01*
X119500000Y-152357142D01*
X119428571Y-152214285D01*
X119428571Y-151928571D01*
X119500000Y-151785714D01*
X120357143Y-152428571D02*
X120428571Y-152285714D01*
X120428571Y-151928571D01*
X120357143Y-151785714D01*
X120214286Y-151714285D01*
X120071429Y-151714285D01*
X119928571Y-151785714D01*
X119857143Y-151928571D01*
X119857143Y-152285714D01*
X119785714Y-152428571D01*
X119428571Y-153142857D02*
X120928571Y-153142857D01*
X119500000Y-153142857D02*
X119428571Y-153285714D01*
X119428571Y-153571428D01*
X119500000Y-153714285D01*
X119571429Y-153785714D01*
X119714286Y-153857143D01*
X120142857Y-153857143D01*
X120285714Y-153785714D01*
X120357143Y-153714285D01*
X120428571Y-153571428D01*
X120428571Y-153285714D01*
X120357143Y-153142857D01*
X120428571Y-154500000D02*
X118928571Y-154500000D01*
X120428571Y-155142857D02*
X119642857Y-155142857D01*
X119500000Y-155071428D01*
X119428571Y-154928571D01*
X119428571Y-154714286D01*
X119500000Y-154571428D01*
X119571429Y-154500000D01*
X120428571Y-155857143D02*
X119428571Y-155857143D01*
X118928571Y-155857143D02*
X119000000Y-155785714D01*
X119071429Y-155857143D01*
X119000000Y-155928571D01*
X118928571Y-155857143D01*
X119071429Y-155857143D01*
X120357143Y-157214286D02*
X120428571Y-157071429D01*
X120428571Y-156785715D01*
X120357143Y-156642857D01*
X120285714Y-156571429D01*
X120142857Y-156500000D01*
X119714286Y-156500000D01*
X119571429Y-156571429D01*
X119500000Y-156642857D01*
X119428571Y-156785715D01*
X119428571Y-157071429D01*
X119500000Y-157214286D01*
X122757143Y-131857144D02*
X122828571Y-132071430D01*
X122828571Y-132428573D01*
X122757143Y-132571430D01*
X122685714Y-132642859D01*
X122542857Y-132714287D01*
X122400000Y-132714287D01*
X122257143Y-132642859D01*
X122185714Y-132571430D01*
X122114286Y-132428573D01*
X122042857Y-132142859D01*
X121971429Y-132000001D01*
X121900000Y-131928573D01*
X121757143Y-131857144D01*
X121614286Y-131857144D01*
X121471429Y-131928573D01*
X121400000Y-132000001D01*
X121328571Y-132142859D01*
X121328571Y-132500001D01*
X121400000Y-132714287D01*
X122828571Y-133357144D02*
X121828571Y-133357144D01*
X121971429Y-133357144D02*
X121900000Y-133428572D01*
X121828571Y-133571430D01*
X121828571Y-133785715D01*
X121900000Y-133928572D01*
X122042857Y-134000001D01*
X122828571Y-134000001D01*
X122042857Y-134000001D02*
X121900000Y-134071430D01*
X121828571Y-134214287D01*
X121828571Y-134428572D01*
X121900000Y-134571430D01*
X122042857Y-134642858D01*
X122828571Y-134642858D01*
X122828571Y-136000001D02*
X122042857Y-136000001D01*
X121900000Y-135928572D01*
X121828571Y-135785715D01*
X121828571Y-135500001D01*
X121900000Y-135357144D01*
X122757143Y-136000001D02*
X122828571Y-135857144D01*
X122828571Y-135500001D01*
X122757143Y-135357144D01*
X122614286Y-135285715D01*
X122471429Y-135285715D01*
X122328571Y-135357144D01*
X122257143Y-135500001D01*
X122257143Y-135857144D01*
X122185714Y-136000001D01*
X122828571Y-136714287D02*
X121828571Y-136714287D01*
X122114286Y-136714287D02*
X121971429Y-136785715D01*
X121900000Y-136857144D01*
X121828571Y-137000001D01*
X121828571Y-137142858D01*
X121828571Y-137428572D02*
X121828571Y-138000001D01*
X121328571Y-137642858D02*
X122614286Y-137642858D01*
X122757143Y-137714286D01*
X122828571Y-137857144D01*
X122828571Y-138000001D01*
X122685714Y-140500001D02*
X122757143Y-140428572D01*
X122828571Y-140214286D01*
X122828571Y-140071429D01*
X122757143Y-139857144D01*
X122614286Y-139714286D01*
X122471429Y-139642858D01*
X122185714Y-139571429D01*
X121971429Y-139571429D01*
X121685714Y-139642858D01*
X121542857Y-139714286D01*
X121400000Y-139857144D01*
X121328571Y-140071429D01*
X121328571Y-140214286D01*
X121400000Y-140428572D01*
X121471429Y-140500001D01*
X122828571Y-141357144D02*
X122757143Y-141214286D01*
X122685714Y-141142858D01*
X122542857Y-141071429D01*
X122114286Y-141071429D01*
X121971429Y-141142858D01*
X121900000Y-141214286D01*
X121828571Y-141357144D01*
X121828571Y-141571429D01*
X121900000Y-141714286D01*
X121971429Y-141785715D01*
X122114286Y-141857144D01*
X122542857Y-141857144D01*
X122685714Y-141785715D01*
X122757143Y-141714286D01*
X122828571Y-141571429D01*
X122828571Y-141357144D01*
X121828571Y-142500001D02*
X122828571Y-142500001D01*
X121971429Y-142500001D02*
X121900000Y-142571429D01*
X121828571Y-142714287D01*
X121828571Y-142928572D01*
X121900000Y-143071429D01*
X122042857Y-143142858D01*
X122828571Y-143142858D01*
X121828571Y-143642858D02*
X121828571Y-144214287D01*
X121328571Y-143857144D02*
X122614286Y-143857144D01*
X122757143Y-143928572D01*
X122828571Y-144071430D01*
X122828571Y-144214287D01*
X122828571Y-144714287D02*
X121828571Y-144714287D01*
X122114286Y-144714287D02*
X121971429Y-144785715D01*
X121900000Y-144857144D01*
X121828571Y-145000001D01*
X121828571Y-145142858D01*
X122828571Y-145857144D02*
X122757143Y-145714286D01*
X122685714Y-145642858D01*
X122542857Y-145571429D01*
X122114286Y-145571429D01*
X121971429Y-145642858D01*
X121900000Y-145714286D01*
X121828571Y-145857144D01*
X121828571Y-146071429D01*
X121900000Y-146214286D01*
X121971429Y-146285715D01*
X122114286Y-146357144D01*
X122542857Y-146357144D01*
X122685714Y-146285715D01*
X122757143Y-146214286D01*
X122828571Y-146071429D01*
X122828571Y-145857144D01*
X122828571Y-147214287D02*
X122757143Y-147071429D01*
X122614286Y-147000001D01*
X121328571Y-147000001D01*
X122828571Y-148000001D02*
X122757143Y-147857143D01*
X122614286Y-147785715D01*
X121328571Y-147785715D01*
X122757143Y-149142857D02*
X122828571Y-149000000D01*
X122828571Y-148714286D01*
X122757143Y-148571429D01*
X122614286Y-148500000D01*
X122042857Y-148500000D01*
X121900000Y-148571429D01*
X121828571Y-148714286D01*
X121828571Y-149000000D01*
X121900000Y-149142857D01*
X122042857Y-149214286D01*
X122185714Y-149214286D01*
X122328571Y-148500000D01*
X122828571Y-149857143D02*
X121828571Y-149857143D01*
X122114286Y-149857143D02*
X121971429Y-149928571D01*
X121900000Y-150000000D01*
X121828571Y-150142857D01*
X121828571Y-150285714D01*
D12*
X134500000Y-156500000D02*
X134500000Y-123000000D01*
X110750000Y-161500000D02*
X129500000Y-161500000D01*
X105750000Y-123000000D02*
X105750000Y-156500000D01*
X129500000Y-118000000D02*
X110750000Y-118000000D01*
X105750000Y-156500000D02*
G75*
G03X110750000Y-161500000I5000000J0D01*
G01*
X129500000Y-161500000D02*
G75*
G03X134500000Y-156500000I0J5000000D01*
G01*
X134500000Y-123000000D02*
G75*
G03X129500000Y-118000000I-5000000J0D01*
G01*
X110750000Y-118000000D02*
G75*
G03X105750000Y-123000000I0J-5000000D01*
G01*
D13*
X111670000Y-141660000D02*
X112130000Y-141660000D01*
X111670000Y-141750000D02*
X111670000Y-141800000D01*
X111700000Y-141700000D02*
X111670000Y-141750000D01*
X111720000Y-141680000D02*
X111700000Y-141700000D01*
X111790000Y-141660000D02*
X111720000Y-141680000D01*
X112130000Y-142100000D02*
X112100000Y-142150000D01*
X112130000Y-142000000D02*
X112130000Y-142100000D01*
X112100000Y-141960000D02*
X112130000Y-142000000D01*
X112030000Y-141940000D02*
X112100000Y-141960000D01*
X111760000Y-141940000D02*
X112030000Y-141940000D01*
X111700000Y-141970000D02*
X111760000Y-141940000D01*
X111670000Y-142010000D02*
X111700000Y-141970000D01*
X111670000Y-142110000D02*
X111670000Y-142010000D01*
X111710000Y-142150000D02*
X111670000Y-142110000D01*
X111780000Y-142170000D02*
X111710000Y-142150000D01*
X111900000Y-142170000D02*
X111780000Y-142170000D01*
X111900000Y-142170000D02*
X111900000Y-141940000D01*
X111760000Y-141420000D02*
X112130000Y-141420000D01*
X111700000Y-141390000D02*
X111760000Y-141420000D01*
X111670000Y-141350000D02*
X111700000Y-141390000D01*
X111670000Y-141250000D02*
X111670000Y-141350000D01*
X111700000Y-141200000D02*
X111670000Y-141250000D01*
X111860000Y-141260000D02*
X111890000Y-141210000D01*
X111860000Y-141380000D02*
X111860000Y-141260000D01*
X111830000Y-141420000D02*
X111860000Y-141380000D01*
X112130000Y-141370000D02*
X112090000Y-141420000D01*
X112130000Y-141250000D02*
X112130000Y-141370000D01*
X112090000Y-141200000D02*
X112130000Y-141250000D01*
X112030000Y-141180000D02*
X112090000Y-141200000D01*
X111960000Y-141180000D02*
X112030000Y-141180000D01*
X111890000Y-141210000D02*
X111960000Y-141180000D01*
X111670000Y-140630000D02*
X112130000Y-140730000D01*
X112130000Y-140730000D02*
X111790000Y-140820000D01*
X111790000Y-140820000D02*
X112130000Y-140920000D01*
X112130000Y-140920000D02*
X111670000Y-141020000D01*
X112100000Y-140440000D02*
X112130000Y-140400000D01*
X112130000Y-140400000D02*
X112130000Y-140290000D01*
X112130000Y-140290000D02*
X112100000Y-140250000D01*
X112100000Y-140250000D02*
X112070000Y-140230000D01*
X112070000Y-140230000D02*
X112000000Y-140200000D01*
X112000000Y-140200000D02*
X111800000Y-140200000D01*
X111800000Y-140200000D02*
X111730000Y-140230000D01*
X111730000Y-140230000D02*
X111700000Y-140250000D01*
X111700000Y-140250000D02*
X111660000Y-140310000D01*
X111660000Y-140310000D02*
X111660000Y-140380000D01*
X111660000Y-140380000D02*
X111700000Y-140440000D01*
X111430000Y-140440000D02*
X112130000Y-140440000D01*
X111790000Y-139920000D02*
X111720000Y-139940000D01*
X111720000Y-139940000D02*
X111700000Y-139960000D01*
X111700000Y-139960000D02*
X111670000Y-140010000D01*
X111670000Y-140010000D02*
X111670000Y-140060000D01*
X111670000Y-139920000D02*
X112130000Y-139920000D01*
X111890000Y-139470000D02*
X111960000Y-139440000D01*
X111960000Y-139440000D02*
X112030000Y-139440000D01*
X112030000Y-139440000D02*
X112090000Y-139460000D01*
X112090000Y-139460000D02*
X112130000Y-139510000D01*
X112130000Y-139510000D02*
X112130000Y-139630000D01*
X112130000Y-139630000D02*
X112090000Y-139680000D01*
X111830000Y-139680000D02*
X111860000Y-139640000D01*
X111860000Y-139640000D02*
X111860000Y-139520000D01*
X111860000Y-139520000D02*
X111890000Y-139470000D01*
X111700000Y-139460000D02*
X111670000Y-139510000D01*
X111670000Y-139510000D02*
X111670000Y-139610000D01*
X111670000Y-139610000D02*
X111700000Y-139650000D01*
X111700000Y-139650000D02*
X111760000Y-139680000D01*
X111760000Y-139680000D02*
X112130000Y-139680000D01*
X111740000Y-139010000D02*
X111700000Y-139030000D01*
X111700000Y-139030000D02*
X111670000Y-139080000D01*
X111670000Y-139080000D02*
X111670000Y-139160000D01*
X111670000Y-139160000D02*
X111700000Y-139200000D01*
X111700000Y-139200000D02*
X111760000Y-139220000D01*
X111760000Y-139220000D02*
X112130000Y-139220000D01*
X111430000Y-139010000D02*
X112130000Y-139010000D01*
X111900000Y-137960000D02*
X111900000Y-137730000D01*
X111730000Y-138180000D02*
X111700000Y-138200000D01*
X111700000Y-138200000D02*
X111670000Y-138240000D01*
X111670000Y-138240000D02*
X111670000Y-138330000D01*
X111670000Y-138330000D02*
X111700000Y-138370000D01*
X111700000Y-138370000D02*
X111760000Y-138390000D01*
X111760000Y-138390000D02*
X112130000Y-138390000D01*
X111670000Y-138180000D02*
X112130000Y-138180000D01*
X111900000Y-137960000D02*
X111780000Y-137960000D01*
X111780000Y-137960000D02*
X111710000Y-137940000D01*
X111710000Y-137940000D02*
X111670000Y-137900000D01*
X111670000Y-137900000D02*
X111670000Y-137800000D01*
X111670000Y-137800000D02*
X111700000Y-137760000D01*
X111700000Y-137760000D02*
X111760000Y-137730000D01*
X111760000Y-137730000D02*
X112030000Y-137730000D01*
X112030000Y-137730000D02*
X112100000Y-137750000D01*
X112100000Y-137750000D02*
X112130000Y-137790000D01*
X112130000Y-137790000D02*
X112130000Y-137890000D01*
X112130000Y-137890000D02*
X112100000Y-137940000D01*
X111700000Y-137300000D02*
X111670000Y-137340000D01*
X111670000Y-137340000D02*
X111670000Y-137440000D01*
X111670000Y-137440000D02*
X111700000Y-137480000D01*
X111700000Y-137480000D02*
X111730000Y-137510000D01*
X111730000Y-137510000D02*
X111790000Y-137530000D01*
X111790000Y-137530000D02*
X112010000Y-137530000D01*
X112010000Y-137530000D02*
X112070000Y-137510000D01*
X112070000Y-137510000D02*
X112100000Y-137490000D01*
X112100000Y-137490000D02*
X112130000Y-137450000D01*
X112130000Y-137450000D02*
X112130000Y-137350000D01*
X112130000Y-137350000D02*
X112100000Y-137300000D01*
X112370000Y-137300000D02*
X111670000Y-137300000D01*
X111670000Y-136990000D02*
X111670000Y-136910000D01*
X111670000Y-136910000D02*
X111700000Y-136870000D01*
X111700000Y-136870000D02*
X111730000Y-136850000D01*
X111730000Y-136850000D02*
X111800000Y-136820000D01*
X112130000Y-136910000D02*
X112130000Y-136990000D01*
X112130000Y-136990000D02*
X112100000Y-137040000D01*
X112100000Y-137040000D02*
X112070000Y-137060000D01*
X112070000Y-137060000D02*
X112000000Y-137080000D01*
X112000000Y-137080000D02*
X111800000Y-137080000D01*
X111800000Y-137080000D02*
X111740000Y-137060000D01*
X111740000Y-137060000D02*
X111710000Y-137040000D01*
X111710000Y-137040000D02*
X111670000Y-136990000D01*
X111800000Y-136820000D02*
X112000000Y-136820000D01*
X112000000Y-136820000D02*
X112060000Y-136840000D01*
X112060000Y-136840000D02*
X112090000Y-136860000D01*
X112090000Y-136860000D02*
X112130000Y-136910000D01*
D14*
G36*
X111295360Y-137986160D02*
X111280120Y-138011560D01*
X111244560Y-138069980D01*
X111188680Y-138153800D01*
X111122640Y-138252860D01*
X111056600Y-138351920D01*
X111003260Y-138433200D01*
X110965160Y-138489080D01*
X110952460Y-138514480D01*
X110957540Y-138527180D01*
X110980400Y-138572900D01*
X111015960Y-138641480D01*
X111036280Y-138682120D01*
X111061680Y-138743080D01*
X111069300Y-138776100D01*
X111059140Y-138781180D01*
X111010880Y-138804040D01*
X110929600Y-138839600D01*
X110820380Y-138885320D01*
X110693380Y-138941200D01*
X110558760Y-138997080D01*
X110419060Y-139055500D01*
X110284440Y-139111380D01*
X110165060Y-139159640D01*
X110068540Y-139200280D01*
X109999960Y-139225680D01*
X109972020Y-139235840D01*
X109964400Y-139233300D01*
X109933920Y-139200280D01*
X109893280Y-139146940D01*
X109796760Y-139027560D01*
X109651980Y-138910720D01*
X109486880Y-138839600D01*
X109301460Y-138816740D01*
X109131280Y-138837060D01*
X108968720Y-138903100D01*
X108821400Y-139017400D01*
X108712180Y-139157100D01*
X108643600Y-139319660D01*
X108620740Y-139500000D01*
X108641060Y-139672720D01*
X108707100Y-139840360D01*
X108818860Y-139987680D01*
X108889980Y-140051180D01*
X109039840Y-140137540D01*
X109197320Y-140185800D01*
X109237960Y-140190880D01*
X109413220Y-140183260D01*
X109583400Y-140132460D01*
X109733260Y-140038480D01*
X109857720Y-139908940D01*
X109867880Y-139893700D01*
X109913600Y-139835280D01*
X109944080Y-139794640D01*
X109969480Y-139764160D01*
X110507960Y-139987680D01*
X110591780Y-140023240D01*
X110739100Y-140084200D01*
X110866100Y-140137540D01*
X110967700Y-140180720D01*
X111033740Y-140211200D01*
X111061680Y-140223900D01*
X111064220Y-140223900D01*
X111066760Y-140244220D01*
X111051520Y-140284860D01*
X111015960Y-140361060D01*
X110990560Y-140409320D01*
X110962620Y-140467740D01*
X110952460Y-140493140D01*
X110965160Y-140516000D01*
X111000720Y-140569340D01*
X111054060Y-140650620D01*
X111117560Y-140747140D01*
X111181060Y-140838580D01*
X111236940Y-140922400D01*
X111275040Y-140983360D01*
X111292820Y-141013840D01*
X111292820Y-141018920D01*
X111277580Y-141044320D01*
X111236940Y-141092580D01*
X111168360Y-141166240D01*
X111064220Y-141270380D01*
X111048980Y-141285620D01*
X110962620Y-141371980D01*
X110888960Y-141440560D01*
X110838160Y-141486280D01*
X110815300Y-141504060D01*
X110815300Y-141504060D01*
X110784820Y-141488820D01*
X110723860Y-141450720D01*
X110637500Y-141394840D01*
X110538440Y-141326260D01*
X110279360Y-141148460D01*
X110035520Y-141244980D01*
X109959320Y-141275460D01*
X109870420Y-141313560D01*
X109804380Y-141341500D01*
X109776440Y-141356740D01*
X109766280Y-141382140D01*
X109751040Y-141450720D01*
X109730720Y-141547240D01*
X109710400Y-141661540D01*
X109690080Y-141773300D01*
X109669760Y-141872360D01*
X109657060Y-141943480D01*
X109649440Y-141976500D01*
X109644360Y-141984120D01*
X109629120Y-141991740D01*
X109596100Y-141994280D01*
X109535140Y-141996820D01*
X109441160Y-141999360D01*
X109301460Y-141999360D01*
X109286220Y-141999360D01*
X109156680Y-141996820D01*
X109050000Y-141994280D01*
X108983960Y-141991740D01*
X108956020Y-141986660D01*
X108956020Y-141986660D01*
X108948400Y-141956180D01*
X108933160Y-141885060D01*
X108915380Y-141786000D01*
X108892520Y-141666620D01*
X108889980Y-141659000D01*
X108867120Y-141542160D01*
X108846800Y-141443100D01*
X108831560Y-141371980D01*
X108821400Y-141344040D01*
X108813780Y-141336420D01*
X108768060Y-141313560D01*
X108694400Y-141280540D01*
X108605500Y-141239900D01*
X108511520Y-141201800D01*
X108427700Y-141168780D01*
X108366740Y-141145920D01*
X108338800Y-141138300D01*
X108336260Y-141140840D01*
X108308320Y-141158620D01*
X108247360Y-141199260D01*
X108163540Y-141255140D01*
X108061940Y-141323720D01*
X108054320Y-141328800D01*
X107955260Y-141397380D01*
X107868900Y-141453260D01*
X107810480Y-141488820D01*
X107782540Y-141504060D01*
X107780000Y-141504060D01*
X107749520Y-141481200D01*
X107693640Y-141430400D01*
X107617440Y-141356740D01*
X107528540Y-141270380D01*
X107503140Y-141242440D01*
X107406620Y-141143380D01*
X107345660Y-141077340D01*
X107312640Y-141034160D01*
X107305020Y-141013840D01*
X107305020Y-141013840D01*
X107322800Y-140983360D01*
X107363440Y-140919860D01*
X107421860Y-140836040D01*
X107490440Y-140734440D01*
X107495520Y-140726820D01*
X107564100Y-140627760D01*
X107619980Y-140543940D01*
X107660620Y-140485520D01*
X107675860Y-140457580D01*
X107675860Y-140455040D01*
X107663160Y-140414400D01*
X107637760Y-140343280D01*
X107604740Y-140254380D01*
X107566640Y-140162940D01*
X107531080Y-140079120D01*
X107503140Y-140015620D01*
X107485360Y-139985140D01*
X107485360Y-139985140D01*
X107449800Y-139974980D01*
X107373600Y-139957200D01*
X107272000Y-139936880D01*
X107150080Y-139911480D01*
X107129760Y-139908940D01*
X107010380Y-139886080D01*
X106911320Y-139868300D01*
X106842740Y-139853060D01*
X106814800Y-139845440D01*
X106812260Y-139830200D01*
X106807180Y-139771780D01*
X106804640Y-139682880D01*
X106804640Y-139573660D01*
X106804640Y-139461900D01*
X106807180Y-139352680D01*
X106809720Y-139258700D01*
X106814800Y-139190120D01*
X106819880Y-139162180D01*
X106822420Y-139162180D01*
X106860520Y-139152020D01*
X106934180Y-139134240D01*
X107038320Y-139113920D01*
X107160240Y-139091060D01*
X107183100Y-139085980D01*
X107299940Y-139063120D01*
X107399000Y-139042800D01*
X107465040Y-139030100D01*
X107492980Y-139022480D01*
X107498060Y-139009780D01*
X107518380Y-138961520D01*
X107551400Y-138882780D01*
X107592040Y-138783720D01*
X107683480Y-138555120D01*
X107492980Y-138273180D01*
X107475200Y-138247780D01*
X107406620Y-138146180D01*
X107350740Y-138064900D01*
X107312640Y-138006480D01*
X107299940Y-137983620D01*
X107299940Y-137981080D01*
X107325340Y-137953140D01*
X107378680Y-137897260D01*
X107452340Y-137821060D01*
X107538700Y-137732160D01*
X107604740Y-137668660D01*
X107683480Y-137589920D01*
X107736820Y-137541660D01*
X107769840Y-137513720D01*
X107790160Y-137506100D01*
X107805400Y-137508640D01*
X107833340Y-137526420D01*
X107894300Y-137567060D01*
X107980660Y-137625480D01*
X108079720Y-137694060D01*
X108163540Y-137749940D01*
X108257520Y-137810900D01*
X108323560Y-137849000D01*
X108356580Y-137864240D01*
X108369280Y-137859160D01*
X108425160Y-137841380D01*
X108508980Y-137805820D01*
X108608040Y-137765180D01*
X108829020Y-137666120D01*
X108856960Y-137521340D01*
X108874740Y-137432440D01*
X108897600Y-137310520D01*
X108920460Y-137191140D01*
X108956020Y-137008260D01*
X109631660Y-137000640D01*
X109644360Y-137028580D01*
X109651980Y-137056520D01*
X109667220Y-137125100D01*
X109687540Y-137221620D01*
X109707860Y-137338460D01*
X109725640Y-137434980D01*
X109745960Y-137534040D01*
X109758660Y-137605160D01*
X109766280Y-137635640D01*
X109776440Y-137645800D01*
X109824700Y-137668660D01*
X109900900Y-137704220D01*
X109992340Y-137744860D01*
X110086320Y-137782960D01*
X110175220Y-137818520D01*
X110241260Y-137841380D01*
X110274280Y-137851540D01*
X110302220Y-137838840D01*
X110360640Y-137800740D01*
X110441920Y-137747400D01*
X110540980Y-137678820D01*
X110637500Y-137612780D01*
X110721320Y-137554360D01*
X110782280Y-137516260D01*
X110810220Y-137498480D01*
X110828000Y-137508640D01*
X110876260Y-137546740D01*
X110952460Y-137620400D01*
X111061680Y-137732160D01*
X111079460Y-137749940D01*
X111163280Y-137836300D01*
X111231860Y-137909960D01*
X111277580Y-137963300D01*
X111295360Y-137986160D01*
X111295360Y-137986160D01*
G37*
X111295360Y-137986160D02*
X111280120Y-138011560D01*
X111244560Y-138069980D01*
X111188680Y-138153800D01*
X111122640Y-138252860D01*
X111056600Y-138351920D01*
X111003260Y-138433200D01*
X110965160Y-138489080D01*
X110952460Y-138514480D01*
X110957540Y-138527180D01*
X110980400Y-138572900D01*
X111015960Y-138641480D01*
X111036280Y-138682120D01*
X111061680Y-138743080D01*
X111069300Y-138776100D01*
X111059140Y-138781180D01*
X111010880Y-138804040D01*
X110929600Y-138839600D01*
X110820380Y-138885320D01*
X110693380Y-138941200D01*
X110558760Y-138997080D01*
X110419060Y-139055500D01*
X110284440Y-139111380D01*
X110165060Y-139159640D01*
X110068540Y-139200280D01*
X109999960Y-139225680D01*
X109972020Y-139235840D01*
X109964400Y-139233300D01*
X109933920Y-139200280D01*
X109893280Y-139146940D01*
X109796760Y-139027560D01*
X109651980Y-138910720D01*
X109486880Y-138839600D01*
X109301460Y-138816740D01*
X109131280Y-138837060D01*
X108968720Y-138903100D01*
X108821400Y-139017400D01*
X108712180Y-139157100D01*
X108643600Y-139319660D01*
X108620740Y-139500000D01*
X108641060Y-139672720D01*
X108707100Y-139840360D01*
X108818860Y-139987680D01*
X108889980Y-140051180D01*
X109039840Y-140137540D01*
X109197320Y-140185800D01*
X109237960Y-140190880D01*
X109413220Y-140183260D01*
X109583400Y-140132460D01*
X109733260Y-140038480D01*
X109857720Y-139908940D01*
X109867880Y-139893700D01*
X109913600Y-139835280D01*
X109944080Y-139794640D01*
X109969480Y-139764160D01*
X110507960Y-139987680D01*
X110591780Y-140023240D01*
X110739100Y-140084200D01*
X110866100Y-140137540D01*
X110967700Y-140180720D01*
X111033740Y-140211200D01*
X111061680Y-140223900D01*
X111064220Y-140223900D01*
X111066760Y-140244220D01*
X111051520Y-140284860D01*
X111015960Y-140361060D01*
X110990560Y-140409320D01*
X110962620Y-140467740D01*
X110952460Y-140493140D01*
X110965160Y-140516000D01*
X111000720Y-140569340D01*
X111054060Y-140650620D01*
X111117560Y-140747140D01*
X111181060Y-140838580D01*
X111236940Y-140922400D01*
X111275040Y-140983360D01*
X111292820Y-141013840D01*
X111292820Y-141018920D01*
X111277580Y-141044320D01*
X111236940Y-141092580D01*
X111168360Y-141166240D01*
X111064220Y-141270380D01*
X111048980Y-141285620D01*
X110962620Y-141371980D01*
X110888960Y-141440560D01*
X110838160Y-141486280D01*
X110815300Y-141504060D01*
X110815300Y-141504060D01*
X110784820Y-141488820D01*
X110723860Y-141450720D01*
X110637500Y-141394840D01*
X110538440Y-141326260D01*
X110279360Y-141148460D01*
X110035520Y-141244980D01*
X109959320Y-141275460D01*
X109870420Y-141313560D01*
X109804380Y-141341500D01*
X109776440Y-141356740D01*
X109766280Y-141382140D01*
X109751040Y-141450720D01*
X109730720Y-141547240D01*
X109710400Y-141661540D01*
X109690080Y-141773300D01*
X109669760Y-141872360D01*
X109657060Y-141943480D01*
X109649440Y-141976500D01*
X109644360Y-141984120D01*
X109629120Y-141991740D01*
X109596100Y-141994280D01*
X109535140Y-141996820D01*
X109441160Y-141999360D01*
X109301460Y-141999360D01*
X109286220Y-141999360D01*
X109156680Y-141996820D01*
X109050000Y-141994280D01*
X108983960Y-141991740D01*
X108956020Y-141986660D01*
X108956020Y-141986660D01*
X108948400Y-141956180D01*
X108933160Y-141885060D01*
X108915380Y-141786000D01*
X108892520Y-141666620D01*
X108889980Y-141659000D01*
X108867120Y-141542160D01*
X108846800Y-141443100D01*
X108831560Y-141371980D01*
X108821400Y-141344040D01*
X108813780Y-141336420D01*
X108768060Y-141313560D01*
X108694400Y-141280540D01*
X108605500Y-141239900D01*
X108511520Y-141201800D01*
X108427700Y-141168780D01*
X108366740Y-141145920D01*
X108338800Y-141138300D01*
X108336260Y-141140840D01*
X108308320Y-141158620D01*
X108247360Y-141199260D01*
X108163540Y-141255140D01*
X108061940Y-141323720D01*
X108054320Y-141328800D01*
X107955260Y-141397380D01*
X107868900Y-141453260D01*
X107810480Y-141488820D01*
X107782540Y-141504060D01*
X107780000Y-141504060D01*
X107749520Y-141481200D01*
X107693640Y-141430400D01*
X107617440Y-141356740D01*
X107528540Y-141270380D01*
X107503140Y-141242440D01*
X107406620Y-141143380D01*
X107345660Y-141077340D01*
X107312640Y-141034160D01*
X107305020Y-141013840D01*
X107305020Y-141013840D01*
X107322800Y-140983360D01*
X107363440Y-140919860D01*
X107421860Y-140836040D01*
X107490440Y-140734440D01*
X107495520Y-140726820D01*
X107564100Y-140627760D01*
X107619980Y-140543940D01*
X107660620Y-140485520D01*
X107675860Y-140457580D01*
X107675860Y-140455040D01*
X107663160Y-140414400D01*
X107637760Y-140343280D01*
X107604740Y-140254380D01*
X107566640Y-140162940D01*
X107531080Y-140079120D01*
X107503140Y-140015620D01*
X107485360Y-139985140D01*
X107485360Y-139985140D01*
X107449800Y-139974980D01*
X107373600Y-139957200D01*
X107272000Y-139936880D01*
X107150080Y-139911480D01*
X107129760Y-139908940D01*
X107010380Y-139886080D01*
X106911320Y-139868300D01*
X106842740Y-139853060D01*
X106814800Y-139845440D01*
X106812260Y-139830200D01*
X106807180Y-139771780D01*
X106804640Y-139682880D01*
X106804640Y-139573660D01*
X106804640Y-139461900D01*
X106807180Y-139352680D01*
X106809720Y-139258700D01*
X106814800Y-139190120D01*
X106819880Y-139162180D01*
X106822420Y-139162180D01*
X106860520Y-139152020D01*
X106934180Y-139134240D01*
X107038320Y-139113920D01*
X107160240Y-139091060D01*
X107183100Y-139085980D01*
X107299940Y-139063120D01*
X107399000Y-139042800D01*
X107465040Y-139030100D01*
X107492980Y-139022480D01*
X107498060Y-139009780D01*
X107518380Y-138961520D01*
X107551400Y-138882780D01*
X107592040Y-138783720D01*
X107683480Y-138555120D01*
X107492980Y-138273180D01*
X107475200Y-138247780D01*
X107406620Y-138146180D01*
X107350740Y-138064900D01*
X107312640Y-138006480D01*
X107299940Y-137983620D01*
X107299940Y-137981080D01*
X107325340Y-137953140D01*
X107378680Y-137897260D01*
X107452340Y-137821060D01*
X107538700Y-137732160D01*
X107604740Y-137668660D01*
X107683480Y-137589920D01*
X107736820Y-137541660D01*
X107769840Y-137513720D01*
X107790160Y-137506100D01*
X107805400Y-137508640D01*
X107833340Y-137526420D01*
X107894300Y-137567060D01*
X107980660Y-137625480D01*
X108079720Y-137694060D01*
X108163540Y-137749940D01*
X108257520Y-137810900D01*
X108323560Y-137849000D01*
X108356580Y-137864240D01*
X108369280Y-137859160D01*
X108425160Y-137841380D01*
X108508980Y-137805820D01*
X108608040Y-137765180D01*
X108829020Y-137666120D01*
X108856960Y-137521340D01*
X108874740Y-137432440D01*
X108897600Y-137310520D01*
X108920460Y-137191140D01*
X108956020Y-137008260D01*
X109631660Y-137000640D01*
X109644360Y-137028580D01*
X109651980Y-137056520D01*
X109667220Y-137125100D01*
X109687540Y-137221620D01*
X109707860Y-137338460D01*
X109725640Y-137434980D01*
X109745960Y-137534040D01*
X109758660Y-137605160D01*
X109766280Y-137635640D01*
X109776440Y-137645800D01*
X109824700Y-137668660D01*
X109900900Y-137704220D01*
X109992340Y-137744860D01*
X110086320Y-137782960D01*
X110175220Y-137818520D01*
X110241260Y-137841380D01*
X110274280Y-137851540D01*
X110302220Y-137838840D01*
X110360640Y-137800740D01*
X110441920Y-137747400D01*
X110540980Y-137678820D01*
X110637500Y-137612780D01*
X110721320Y-137554360D01*
X110782280Y-137516260D01*
X110810220Y-137498480D01*
X110828000Y-137508640D01*
X110876260Y-137546740D01*
X110952460Y-137620400D01*
X111061680Y-137732160D01*
X111079460Y-137749940D01*
X111163280Y-137836300D01*
X111231860Y-137909960D01*
X111277580Y-137963300D01*
X111295360Y-137986160D01*
M02*
