G04 #@! TF.FileFunction,Legend,Top*
%FSLAX46Y46*%
G04 Gerber Fmt 4.6, Leading zero omitted, Abs format (unit mm)*
G04 Created by KiCad (PCBNEW 4.0.2-stable) date 22.05.2016 01:25:54*
%MOMM*%
G01*
G04 APERTURE LIST*
%ADD10C,0.100000*%
%ADD11C,0.200000*%
%ADD12C,0.381000*%
%ADD13C,0.254000*%
%ADD14C,0.150000*%
%ADD15C,0.198120*%
%ADD16C,0.175000*%
%ADD17C,0.300000*%
%ADD18C,0.304800*%
%ADD19C,0.195580*%
G04 APERTURE END LIST*
D10*
D11*
X118202381Y-103185714D02*
X117202381Y-103185714D01*
X117916667Y-102852380D01*
X117202381Y-102519047D01*
X118202381Y-102519047D01*
X118154762Y-102090476D02*
X118202381Y-101947619D01*
X118202381Y-101709523D01*
X118154762Y-101614285D01*
X118107143Y-101566666D01*
X118011905Y-101519047D01*
X117916667Y-101519047D01*
X117821429Y-101566666D01*
X117773810Y-101614285D01*
X117726190Y-101709523D01*
X117678571Y-101900000D01*
X117630952Y-101995238D01*
X117583333Y-102042857D01*
X117488095Y-102090476D01*
X117392857Y-102090476D01*
X117297619Y-102042857D01*
X117250000Y-101995238D01*
X117202381Y-101900000D01*
X117202381Y-101661904D01*
X117250000Y-101519047D01*
X118202381Y-100566666D02*
X118202381Y-101138095D01*
X118202381Y-100852381D02*
X117202381Y-100852381D01*
X117345238Y-100947619D01*
X117440476Y-101042857D01*
X117488095Y-101138095D01*
D12*
X126100000Y-80000000D02*
X126100000Y-79600000D01*
X122600000Y-80000000D02*
X122600000Y-79600000D01*
X119100000Y-80000000D02*
X119100000Y-79600000D01*
X129600000Y-81100000D02*
X115600000Y-81100000D01*
X129600000Y-80000000D02*
X115600000Y-80000000D01*
X129600000Y-87200000D02*
X129600000Y-79600000D01*
X115600000Y-79600000D02*
X115600000Y-87200000D01*
X115600000Y-87200000D02*
X129600000Y-87200000D01*
D13*
X119900540Y-91500540D02*
X119900540Y-98099460D01*
X119900540Y-98099460D02*
X124800200Y-98099460D01*
X124800200Y-98099460D02*
X126499460Y-96400200D01*
X126499460Y-96400200D02*
X126499460Y-93199800D01*
X126499460Y-93199800D02*
X124800200Y-91500540D01*
X124800200Y-91500540D02*
X119900540Y-91500540D01*
D14*
X125130000Y-87730000D02*
X117510000Y-87730000D01*
X125130000Y-90270000D02*
X117510000Y-90270000D01*
X127950000Y-90550000D02*
X126400000Y-90550000D01*
X117510000Y-87730000D02*
X117510000Y-90270000D01*
X125130000Y-90270000D02*
X125130000Y-87730000D01*
X126400000Y-87450000D02*
X127950000Y-87450000D01*
X127950000Y-87450000D02*
X127950000Y-90550000D01*
X123200000Y-100375000D02*
X122000000Y-100375000D01*
X122000000Y-98625000D02*
X123200000Y-98625000D01*
D13*
X114980000Y-111360000D02*
X114980000Y-91040000D01*
X114980000Y-91040000D02*
X130220000Y-91040000D01*
X130220000Y-91040000D02*
X130220000Y-111360000D01*
X130220000Y-111360000D02*
X114980000Y-111360000D01*
D15*
X120500000Y-108410000D02*
X120500000Y-100790000D01*
X125700000Y-100790000D02*
X125700000Y-108410000D01*
X120500000Y-108410000D02*
X125700000Y-108410000D01*
X125700000Y-100790000D02*
X120500000Y-100790000D01*
D14*
D16*
X121972619Y-86584524D02*
X121972619Y-85734524D01*
X122296428Y-85734524D01*
X122377381Y-85775000D01*
X122417857Y-85815476D01*
X122458333Y-85896429D01*
X122458333Y-86017857D01*
X122417857Y-86098810D01*
X122377381Y-86139286D01*
X122296428Y-86179762D01*
X121972619Y-86179762D01*
X122782143Y-85815476D02*
X122822619Y-85775000D01*
X122903571Y-85734524D01*
X123105952Y-85734524D01*
X123186905Y-85775000D01*
X123227381Y-85815476D01*
X123267857Y-85896429D01*
X123267857Y-85977381D01*
X123227381Y-86098810D01*
X122741667Y-86584524D01*
X123267857Y-86584524D01*
D17*
D16*
X119203571Y-96641667D02*
X119244048Y-96682143D01*
X119284524Y-96803572D01*
X119284524Y-96884524D01*
X119244048Y-97005952D01*
X119163095Y-97086905D01*
X119082143Y-97127381D01*
X118920238Y-97167857D01*
X118798810Y-97167857D01*
X118636905Y-97127381D01*
X118555952Y-97086905D01*
X118475000Y-97005952D01*
X118434524Y-96884524D01*
X118434524Y-96803572D01*
X118475000Y-96682143D01*
X118515476Y-96641667D01*
X119284524Y-95832143D02*
X119284524Y-96317857D01*
X119284524Y-96075000D02*
X118434524Y-96075000D01*
X118555952Y-96155952D01*
X118636905Y-96236905D01*
X118677381Y-96317857D01*
X117084524Y-89727381D02*
X116234524Y-89727381D01*
X116234524Y-89403572D01*
X116275000Y-89322619D01*
X116315476Y-89282143D01*
X116396429Y-89241667D01*
X116517857Y-89241667D01*
X116598810Y-89282143D01*
X116639286Y-89322619D01*
X116679762Y-89403572D01*
X116679762Y-89727381D01*
X116517857Y-88513095D02*
X117084524Y-88513095D01*
X116194048Y-88715476D02*
X116801190Y-88917857D01*
X116801190Y-88391667D01*
X126584524Y-99641667D02*
X126179762Y-99925000D01*
X126584524Y-100127381D02*
X125734524Y-100127381D01*
X125734524Y-99803572D01*
X125775000Y-99722619D01*
X125815476Y-99682143D01*
X125896429Y-99641667D01*
X126017857Y-99641667D01*
X126098810Y-99682143D01*
X126139286Y-99722619D01*
X126179762Y-99803572D01*
X126179762Y-100127381D01*
X126584524Y-98832143D02*
X126584524Y-99317857D01*
X126584524Y-99075000D02*
X125734524Y-99075000D01*
X125855952Y-99155952D01*
X125936905Y-99236905D01*
X125977381Y-99317857D01*
D18*
D16*
X127534524Y-109227381D02*
X126684524Y-109227381D01*
X126684524Y-108903572D01*
X126725000Y-108822619D01*
X126765476Y-108782143D01*
X126846429Y-108741667D01*
X126967857Y-108741667D01*
X127048810Y-108782143D01*
X127089286Y-108822619D01*
X127129762Y-108903572D01*
X127129762Y-109227381D01*
X126684524Y-108013095D02*
X126684524Y-108175000D01*
X126725000Y-108255952D01*
X126765476Y-108296429D01*
X126886905Y-108377381D01*
X127048810Y-108417857D01*
X127372619Y-108417857D01*
X127453571Y-108377381D01*
X127494048Y-108336905D01*
X127534524Y-108255952D01*
X127534524Y-108094048D01*
X127494048Y-108013095D01*
X127453571Y-107972619D01*
X127372619Y-107932143D01*
X127170238Y-107932143D01*
X127089286Y-107972619D01*
X127048810Y-108013095D01*
X127008333Y-108094048D01*
X127008333Y-108255952D01*
X127048810Y-108336905D01*
X127089286Y-108377381D01*
X127170238Y-108417857D01*
D19*
D14*
X122985715Y-102552381D02*
X122414286Y-102552381D01*
X122700000Y-102552381D02*
X122700000Y-101552381D01*
X122604762Y-101695238D01*
X122509524Y-101790476D01*
X122414286Y-101838095D01*
M02*
