M48
;DRILL file {KiCad 4.0.1-stable} date 07.03.2016 23:09:19
;FORMAT={-:-/ absolute / metric / decimal}
FMAT,2
METRIC,TZ
T1C0.400
T2C0.813
T3C1.016
T4C1.097
T5C3.500
%
G90
G05
M71
T1
X114.95Y-104.15
X121.5Y-87.
X122.85Y-100.975
X123.Y-87.
X124.5Y-87.
X126.Y-87.
X127.45Y-98.95
X127.5Y-87.
X129.Y-87.
X133.1Y-100.35
X143.5Y-80.
X143.5Y-81.5
X144.5Y-100.975
X144.7Y-94.9
X145.Y-80.
X145.Y-81.5
X146.5Y-80.
X146.5Y-81.5
T2
X106.11Y-89.65
X106.11Y-102.35
X108.65Y-89.65
X108.65Y-102.35
X111.19Y-89.65
X111.19Y-102.35
X113.73Y-89.65
X113.73Y-102.35
X116.27Y-89.65
X116.27Y-102.35
X118.81Y-89.65
X118.81Y-102.35
X121.35Y-89.65
X121.35Y-102.35
X123.89Y-89.65
X123.89Y-102.35
X128.11Y-89.65
X128.11Y-102.35
X130.65Y-89.65
X130.65Y-102.35
X133.19Y-89.65
X133.19Y-102.35
X135.73Y-89.65
X135.73Y-102.35
X138.27Y-89.65
X138.27Y-102.35
X140.81Y-89.65
X140.81Y-102.35
X143.35Y-89.65
X143.35Y-102.35
X145.89Y-89.65
X145.89Y-102.35
T3
X111.2Y-86.4
X113.74Y-86.4
X114.54Y-106.4
X114.54Y-108.94
X115.4Y-96.46
X115.4Y-99.
X116.28Y-86.4
X117.08Y-106.4
X117.08Y-108.94
X117.94Y-96.46
X117.94Y-99.
X118.82Y-86.4
X119.62Y-106.4
X119.62Y-108.94
X120.48Y-96.46
X120.48Y-99.
X122.16Y-106.4
X122.16Y-108.94
X124.7Y-106.4
X124.7Y-108.94
X127.24Y-106.4
X127.24Y-108.94
X129.78Y-106.4
X129.78Y-108.94
X132.32Y-106.4
X132.32Y-108.94
X133.2Y-86.4
X134.86Y-106.4
X134.86Y-108.94
X135.74Y-86.4
X137.4Y-96.46
X137.4Y-99.
X137.4Y-106.4
X137.4Y-108.94
X138.28Y-86.4
X139.94Y-96.46
X139.94Y-99.
X140.82Y-86.4
X142.48Y-96.46
X142.48Y-99.
T4
X111.19Y-81.35
X113.73Y-81.35
X116.27Y-81.35
X118.81Y-81.35
X133.19Y-81.35
X135.73Y-81.35
X138.27Y-81.35
X140.81Y-81.35
T5
X125.8Y-82.9
T0
M30
