M48
;DRILL file {KiCad 4.0.2-stable} date 16.05.2016 20:43:23
;FORMAT={-:-/ absolute / metric / decimal}
FMAT,2
METRIC,TZ
T1C0.400
T2C0.600
T3C0.813
T4C1.016
T5C1.200
%
G90
G05
M71
T1
X115.7Y-80.2
X115.7Y-81.58
X115.7Y-87.1
X115.7Y-88.48
X115.7Y-89.86
X117.08Y-80.2
X117.15Y-96.1
X117.15Y-98.65
X117.9Y-105.9
X118.46Y-80.2
X118.46Y-110.56
X119.84Y-80.2
X119.84Y-110.56
X121.22Y-80.2
X121.22Y-110.56
X121.3Y-109.5
X122.6Y-80.2
X122.6Y-110.56
X122.625Y-90.625
X123.98Y-80.2
X123.98Y-110.56
X125.36Y-80.2
X125.36Y-110.56
X126.425Y-90.625
X126.74Y-80.2
X126.74Y-110.56
X127.44Y-105.86
X128.12Y-80.2
X129.5Y-80.2
X129.5Y-81.58
X129.5Y-82.96
X129.5Y-85.72
X129.5Y-87.1
X129.5Y-88.48
X129.5Y-89.86
T2
X119.Y-92.2
T3
X116.25Y-92.31
X116.25Y-94.85
X116.25Y-97.39
X116.25Y-99.93
X116.25Y-102.47
X116.25Y-105.01
X116.25Y-107.55
X116.25Y-110.09
X128.95Y-92.31
X128.95Y-94.85
X128.95Y-97.39
X128.95Y-99.93
X128.95Y-102.47
X128.95Y-105.01
X128.95Y-107.55
X128.95Y-110.09
T4
X118.78Y-89.
X121.32Y-89.
X123.86Y-89.
X126.4Y-89.
T5
X117.35Y-84.1
X120.85Y-84.1
X124.35Y-84.1
X127.85Y-84.1
T0
M30
