G04 #@! TF.FileFunction,Soldermask,Top*
%FSLAX46Y46*%
G04 Gerber Fmt 4.6, Leading zero omitted, Abs format (unit mm)*
G04 Created by KiCad (PCBNEW 4.0.1-stable) date 07.03.2016 23:09:15*
%MOMM*%
G01*
G04 APERTURE LIST*
%ADD10C,0.100000*%
%ADD11O,2.398980X2.398980*%
%ADD12R,2.398980X2.398980*%
%ADD13R,2.127200X2.432000*%
%ADD14O,2.127200X2.432000*%
%ADD15R,2.127200X2.127200*%
%ADD16O,2.127200X2.127200*%
%ADD17R,1.700000X1.900000*%
%ADD18R,1.924000X1.924000*%
%ADD19C,1.924000*%
%ADD20C,5.400000*%
%ADD21R,3.498800X1.299160*%
G04 APERTURE END LIST*
D10*
D11*
X140810000Y-81350000D03*
D12*
X133190000Y-81350000D03*
D11*
X135730000Y-81350000D03*
X138270000Y-81350000D03*
X118810000Y-81350000D03*
D12*
X111190000Y-81350000D03*
D11*
X113730000Y-81350000D03*
X116270000Y-81350000D03*
D13*
X133200000Y-86400000D03*
D14*
X135740000Y-86400000D03*
X138280000Y-86400000D03*
X140820000Y-86400000D03*
D13*
X111200000Y-86400000D03*
D14*
X113740000Y-86400000D03*
X116280000Y-86400000D03*
X118820000Y-86400000D03*
D15*
X137400000Y-99000000D03*
D16*
X137400000Y-96460000D03*
X139940000Y-99000000D03*
X139940000Y-96460000D03*
X142480000Y-99000000D03*
X142480000Y-96460000D03*
D15*
X115400000Y-99000000D03*
D16*
X115400000Y-96460000D03*
X117940000Y-99000000D03*
X117940000Y-96460000D03*
X120480000Y-99000000D03*
X120480000Y-96460000D03*
D17*
X145600000Y-99350000D03*
X145600000Y-96650000D03*
X123600000Y-99350000D03*
X123600000Y-96650000D03*
D18*
X145890000Y-89650000D03*
D19*
X143350000Y-89650000D03*
X140810000Y-89650000D03*
X138270000Y-89650000D03*
X135730000Y-89650000D03*
X133190000Y-89650000D03*
D18*
X130650000Y-89650000D03*
D19*
X128110000Y-89650000D03*
X128110000Y-102350000D03*
X130650000Y-102350000D03*
X133190000Y-102350000D03*
X135730000Y-102350000D03*
X138270000Y-102350000D03*
X140810000Y-102350000D03*
X143350000Y-102350000D03*
X145890000Y-102350000D03*
D18*
X123890000Y-89650000D03*
D19*
X121350000Y-89650000D03*
X118810000Y-89650000D03*
X116270000Y-89650000D03*
X113730000Y-89650000D03*
X111190000Y-89650000D03*
D18*
X108650000Y-89650000D03*
D19*
X106110000Y-89650000D03*
X106110000Y-102350000D03*
X108650000Y-102350000D03*
X111190000Y-102350000D03*
X113730000Y-102350000D03*
X116270000Y-102350000D03*
X118810000Y-102350000D03*
X121350000Y-102350000D03*
X123890000Y-102350000D03*
D20*
X125800000Y-82900000D03*
D21*
X106748900Y-95200000D03*
X111651100Y-95200000D03*
X128748900Y-95200000D03*
X133651100Y-95200000D03*
D15*
X137400000Y-106400000D03*
D16*
X137400000Y-108940000D03*
X134860000Y-106400000D03*
X134860000Y-108940000D03*
X132320000Y-106400000D03*
X132320000Y-108940000D03*
X129780000Y-106400000D03*
X129780000Y-108940000D03*
X127240000Y-106400000D03*
X127240000Y-108940000D03*
X124700000Y-106400000D03*
X124700000Y-108940000D03*
X122160000Y-106400000D03*
X122160000Y-108940000D03*
X119620000Y-106400000D03*
X119620000Y-108940000D03*
X117080000Y-106400000D03*
X117080000Y-108940000D03*
X114540000Y-106400000D03*
X114540000Y-108940000D03*
M02*
