G04 #@! TF.FileFunction,Copper,L1,Top,Signal*
%FSLAX46Y46*%
G04 Gerber Fmt 4.6, Leading zero omitted, Abs format (unit mm)*
G04 Created by KiCad (PCBNEW 4.0.1-stable) date 07.03.2016 23:09:15*
%MOMM*%
G01*
G04 APERTURE LIST*
%ADD10C,0.100000*%
%ADD11C,0.600000*%
%ADD12O,1.998980X1.998980*%
%ADD13R,1.998980X1.998980*%
%ADD14R,1.727200X2.032000*%
%ADD15O,1.727200X2.032000*%
%ADD16R,1.727200X1.727200*%
%ADD17O,1.727200X1.727200*%
%ADD18R,1.300000X1.500000*%
%ADD19R,1.524000X1.524000*%
%ADD20C,1.524000*%
%ADD21C,5.000000*%
%ADD22R,3.098800X0.899160*%
%ADD23C,2.000000*%
%ADD24C,1.500000*%
%ADD25C,1.000000*%
%ADD26C,0.250000*%
%ADD27C,0.254000*%
G04 APERTURE END LIST*
D10*
D11*
X144700000Y-94900000D03*
X133100000Y-100350000D03*
X114950000Y-104150000D03*
X127450000Y-98950000D03*
X146500000Y-81500000D03*
X145000000Y-81500000D03*
X143500000Y-81500000D03*
X146500000Y-80000000D03*
X145000000Y-80000000D03*
X143500000Y-80000000D03*
X129000000Y-87000000D03*
X127500000Y-87000000D03*
X126000000Y-87000000D03*
X124500000Y-87000000D03*
X123000000Y-87000000D03*
D12*
X140810000Y-81350000D03*
D13*
X133190000Y-81350000D03*
D12*
X135730000Y-81350000D03*
X138270000Y-81350000D03*
X118810000Y-81350000D03*
D13*
X111190000Y-81350000D03*
D12*
X113730000Y-81350000D03*
X116270000Y-81350000D03*
D14*
X133200000Y-86400000D03*
D15*
X135740000Y-86400000D03*
X138280000Y-86400000D03*
X140820000Y-86400000D03*
D14*
X111200000Y-86400000D03*
D15*
X113740000Y-86400000D03*
X116280000Y-86400000D03*
X118820000Y-86400000D03*
D16*
X137400000Y-99000000D03*
D17*
X137400000Y-96460000D03*
X139940000Y-99000000D03*
X139940000Y-96460000D03*
X142480000Y-99000000D03*
X142480000Y-96460000D03*
D16*
X115400000Y-99000000D03*
D17*
X115400000Y-96460000D03*
X117940000Y-99000000D03*
X117940000Y-96460000D03*
X120480000Y-99000000D03*
X120480000Y-96460000D03*
D18*
X145600000Y-99350000D03*
X145600000Y-96650000D03*
X123600000Y-99350000D03*
X123600000Y-96650000D03*
D19*
X145890000Y-89650000D03*
D20*
X143350000Y-89650000D03*
X140810000Y-89650000D03*
X138270000Y-89650000D03*
X135730000Y-89650000D03*
X133190000Y-89650000D03*
D19*
X130650000Y-89650000D03*
D20*
X128110000Y-89650000D03*
X128110000Y-102350000D03*
X130650000Y-102350000D03*
X133190000Y-102350000D03*
X135730000Y-102350000D03*
X138270000Y-102350000D03*
X140810000Y-102350000D03*
X143350000Y-102350000D03*
X145890000Y-102350000D03*
D19*
X123890000Y-89650000D03*
D20*
X121350000Y-89650000D03*
X118810000Y-89650000D03*
X116270000Y-89650000D03*
X113730000Y-89650000D03*
X111190000Y-89650000D03*
D19*
X108650000Y-89650000D03*
D20*
X106110000Y-89650000D03*
X106110000Y-102350000D03*
X108650000Y-102350000D03*
X111190000Y-102350000D03*
X113730000Y-102350000D03*
X116270000Y-102350000D03*
X118810000Y-102350000D03*
X121350000Y-102350000D03*
X123890000Y-102350000D03*
D21*
X125800000Y-82900000D03*
D22*
X106748900Y-95200000D03*
X111651100Y-95200000D03*
X128748900Y-95200000D03*
X133651100Y-95200000D03*
D11*
X121500000Y-87000000D03*
D16*
X137400000Y-106400000D03*
D17*
X137400000Y-108940000D03*
X134860000Y-106400000D03*
X134860000Y-108940000D03*
X132320000Y-106400000D03*
X132320000Y-108940000D03*
X129780000Y-106400000D03*
X129780000Y-108940000D03*
X127240000Y-106400000D03*
X127240000Y-108940000D03*
X124700000Y-106400000D03*
X124700000Y-108940000D03*
X122160000Y-106400000D03*
X122160000Y-108940000D03*
X119620000Y-106400000D03*
X119620000Y-108940000D03*
X117080000Y-106400000D03*
X117080000Y-108940000D03*
X114540000Y-106400000D03*
X114540000Y-108940000D03*
D11*
X144500000Y-100975000D03*
X122850000Y-100975000D03*
D23*
X127240000Y-108940000D02*
X126350000Y-108940000D01*
X124700000Y-108940000D02*
X126350000Y-108940000D01*
X122160000Y-108940000D02*
X124700000Y-108940000D01*
X119620000Y-108940000D02*
X122160000Y-108940000D01*
X117080000Y-108940000D02*
X119620000Y-108940000D01*
X114540000Y-108940000D02*
X117080000Y-108940000D01*
X126700000Y-92600000D02*
X126700000Y-93151100D01*
X126700000Y-93151100D02*
X128748900Y-95200000D01*
X128110000Y-89650000D02*
X128110000Y-91190000D01*
X128110000Y-91190000D02*
X126700000Y-92600000D01*
X126700000Y-92600000D02*
X104100000Y-92600000D01*
D24*
X106748900Y-95200000D02*
X105400000Y-95200000D01*
X105400000Y-95200000D02*
X104100000Y-96500000D01*
D23*
X104100000Y-92600000D02*
X104100000Y-91660000D01*
X104100000Y-91660000D02*
X106110000Y-89650000D01*
X114540000Y-108940000D02*
X107540000Y-108940000D01*
X107540000Y-108940000D02*
X104100000Y-105500000D01*
X104100000Y-105500000D02*
X104100000Y-96500000D01*
X104100000Y-96500000D02*
X104100000Y-92600000D01*
X104100000Y-92600000D02*
X104100000Y-92500000D01*
D25*
X129780000Y-108940000D02*
X127240000Y-106400000D01*
D23*
X117080000Y-106400000D02*
X114540000Y-106400000D01*
X119620000Y-106400000D02*
X117080000Y-106400000D01*
X122160000Y-106400000D02*
X119620000Y-106400000D01*
X124700000Y-106400000D02*
X122160000Y-106400000D01*
X127240000Y-106400000D02*
X126000000Y-106400000D01*
X126000000Y-106400000D02*
X124700000Y-106400000D01*
D25*
X146400000Y-93400000D02*
X144700000Y-93400000D01*
X144700000Y-93400000D02*
X143350000Y-92050000D01*
X143350000Y-92050000D02*
X143350000Y-89650000D01*
X137400000Y-108940000D02*
X143560000Y-108940000D01*
X143560000Y-108940000D02*
X147400000Y-105100000D01*
X147400000Y-105100000D02*
X147400000Y-94400000D01*
X147400000Y-94400000D02*
X146400000Y-93400000D01*
D26*
X131100000Y-105500000D02*
X131100000Y-105300000D01*
X131100000Y-105300000D02*
X128150000Y-102350000D01*
X128150000Y-102350000D02*
X128110000Y-102350000D01*
X131100000Y-105500000D02*
X131100000Y-107720000D01*
X131100000Y-107720000D02*
X132320000Y-108940000D01*
X121350000Y-102850000D02*
X121350000Y-102350000D01*
X134860000Y-108940000D02*
X134960000Y-108940000D01*
X134960000Y-108940000D02*
X136200000Y-107700000D01*
X136200000Y-107700000D02*
X136200000Y-105000000D01*
X136200000Y-105000000D02*
X137300000Y-103900000D01*
X137300000Y-103900000D02*
X141800000Y-103900000D01*
X141800000Y-103900000D02*
X143350000Y-102350000D01*
X134860000Y-108940000D02*
X135360000Y-108940000D01*
X137400000Y-106400000D02*
X140600000Y-106400000D01*
X140600000Y-106400000D02*
X143000000Y-104000000D01*
X143000000Y-104000000D02*
X144240000Y-104000000D01*
X144240000Y-104000000D02*
X145890000Y-102350000D01*
D24*
X140810000Y-89650000D02*
X140810000Y-86410000D01*
X140810000Y-86410000D02*
X140820000Y-86400000D01*
X140810000Y-81200000D02*
X140810000Y-86390000D01*
X140810000Y-86390000D02*
X140820000Y-86400000D01*
X133200000Y-86400000D02*
X133200000Y-89640000D01*
X133200000Y-89640000D02*
X133190000Y-89650000D01*
X133200000Y-86400000D02*
X133200000Y-81210000D01*
X133200000Y-81210000D02*
X133190000Y-81200000D01*
X135730000Y-89650000D02*
X135730000Y-86410000D01*
X135730000Y-86410000D02*
X135740000Y-86400000D01*
X135730000Y-81200000D02*
X135730000Y-86390000D01*
X135730000Y-86390000D02*
X135740000Y-86400000D01*
X138280000Y-86400000D02*
X138280000Y-89640000D01*
X138280000Y-89640000D02*
X138270000Y-89650000D01*
X138280000Y-86400000D02*
X138280000Y-81210000D01*
X138280000Y-81210000D02*
X138270000Y-81200000D01*
X118820000Y-86400000D02*
X118820000Y-81210000D01*
X118820000Y-81210000D02*
X118810000Y-81200000D01*
X118810000Y-89650000D02*
X118810000Y-86410000D01*
X118810000Y-86410000D02*
X118820000Y-86400000D01*
X111200000Y-86400000D02*
X111200000Y-89640000D01*
X111200000Y-89640000D02*
X111190000Y-89650000D01*
X111190000Y-81200000D02*
X111190000Y-86390000D01*
X111190000Y-86390000D02*
X111200000Y-86400000D01*
X113740000Y-86400000D02*
X113740000Y-81210000D01*
X113740000Y-81210000D02*
X113730000Y-81200000D01*
X113730000Y-89650000D02*
X113730000Y-86410000D01*
X113730000Y-86410000D02*
X113740000Y-86400000D01*
X116270000Y-89650000D02*
X116270000Y-86410000D01*
X116270000Y-86410000D02*
X116280000Y-86400000D01*
X116270000Y-81200000D02*
X116270000Y-86390000D01*
X116270000Y-86390000D02*
X116280000Y-86400000D01*
D26*
X130650000Y-102350000D02*
X130650000Y-101250000D01*
X130650000Y-101250000D02*
X132900000Y-99000000D01*
X132900000Y-99000000D02*
X137400000Y-99000000D01*
X145600000Y-99350000D02*
X145600000Y-99875000D01*
X145600000Y-99875000D02*
X144500000Y-100975000D01*
X133190000Y-102350000D02*
X133190000Y-102010000D01*
X133190000Y-102010000D02*
X134700000Y-100500000D01*
X134700000Y-100500000D02*
X138440000Y-100500000D01*
X138440000Y-100500000D02*
X139940000Y-99000000D01*
X108650000Y-102350000D02*
X108850000Y-102350000D01*
X108850000Y-102350000D02*
X112200000Y-99000000D01*
X112200000Y-99000000D02*
X115400000Y-99000000D01*
X123600000Y-99350000D02*
X123600000Y-100225000D01*
X123600000Y-100225000D02*
X122850000Y-100975000D01*
X111190000Y-102350000D02*
X111190000Y-102110000D01*
X111190000Y-102110000D02*
X112300000Y-101000000D01*
X112300000Y-101000000D02*
X115940000Y-101000000D01*
X115940000Y-101000000D02*
X117940000Y-99000000D01*
D27*
G36*
X130153000Y-108567000D02*
X130173000Y-108567000D01*
X130173000Y-109313000D01*
X130153000Y-109313000D01*
X130153000Y-109333000D01*
X129407000Y-109333000D01*
X129407000Y-109313000D01*
X129387000Y-109313000D01*
X129387000Y-108567000D01*
X129407000Y-108567000D01*
X129407000Y-108547000D01*
X130153000Y-108547000D01*
X130153000Y-108567000D01*
X130153000Y-108567000D01*
G37*
X130153000Y-108567000D02*
X130173000Y-108567000D01*
X130173000Y-109313000D01*
X130153000Y-109313000D01*
X130153000Y-109333000D01*
X129407000Y-109333000D01*
X129407000Y-109313000D01*
X129387000Y-109313000D01*
X129387000Y-108567000D01*
X129407000Y-108567000D01*
X129407000Y-108547000D01*
X130153000Y-108547000D01*
X130153000Y-108567000D01*
G36*
X147768000Y-93174181D02*
X147196909Y-92603091D01*
X146831284Y-92358788D01*
X146400000Y-92273000D01*
X145166819Y-92273000D01*
X144477000Y-91583182D01*
X144477000Y-90487596D01*
X144493000Y-90471624D01*
X144493000Y-90538310D01*
X144589673Y-90771699D01*
X144768302Y-90950327D01*
X145001691Y-91047000D01*
X145358250Y-91047000D01*
X145517000Y-90888250D01*
X145517000Y-90023000D01*
X146263000Y-90023000D01*
X146263000Y-90888250D01*
X146421750Y-91047000D01*
X146778309Y-91047000D01*
X147011698Y-90950327D01*
X147190327Y-90771699D01*
X147287000Y-90538310D01*
X147287000Y-90181750D01*
X147128250Y-90023000D01*
X146263000Y-90023000D01*
X145517000Y-90023000D01*
X145497000Y-90023000D01*
X145497000Y-89277000D01*
X145517000Y-89277000D01*
X145517000Y-88411750D01*
X146263000Y-88411750D01*
X146263000Y-89277000D01*
X147128250Y-89277000D01*
X147287000Y-89118250D01*
X147287000Y-88761690D01*
X147190327Y-88528301D01*
X147011698Y-88349673D01*
X146778309Y-88253000D01*
X146421750Y-88253000D01*
X146263000Y-88411750D01*
X145517000Y-88411750D01*
X145358250Y-88253000D01*
X145001691Y-88253000D01*
X144768302Y-88349673D01*
X144589673Y-88528301D01*
X144493000Y-88761690D01*
X144493000Y-88828938D01*
X144137833Y-88473150D01*
X143627501Y-88261242D01*
X143074923Y-88260760D01*
X142564223Y-88471777D01*
X142187000Y-88848341D01*
X142187000Y-87170184D01*
X142197135Y-87155016D01*
X142310600Y-86584588D01*
X142310600Y-86215412D01*
X142197135Y-85644984D01*
X142187000Y-85629816D01*
X142187000Y-82208215D01*
X142344546Y-81972431D01*
X142468355Y-81350000D01*
X142344546Y-80727569D01*
X141991967Y-80199898D01*
X141464296Y-79847319D01*
X140841865Y-79723510D01*
X140778135Y-79723510D01*
X140155704Y-79847319D01*
X139628033Y-80199898D01*
X139540000Y-80331649D01*
X139451967Y-80199898D01*
X138924296Y-79847319D01*
X138301865Y-79723510D01*
X138238135Y-79723510D01*
X137615704Y-79847319D01*
X137088033Y-80199898D01*
X137000000Y-80331649D01*
X136911967Y-80199898D01*
X136384296Y-79847319D01*
X135761865Y-79723510D01*
X135698135Y-79723510D01*
X135075704Y-79847319D01*
X134750569Y-80064568D01*
X134647733Y-79904757D01*
X134438207Y-79761593D01*
X134189490Y-79711227D01*
X132190510Y-79711227D01*
X131958158Y-79754947D01*
X131744757Y-79892267D01*
X131601593Y-80101793D01*
X131551227Y-80350510D01*
X131551227Y-82349490D01*
X131594947Y-82581842D01*
X131732267Y-82795243D01*
X131823000Y-82857239D01*
X131823000Y-85024761D01*
X131747483Y-85135283D01*
X131697117Y-85384000D01*
X131697117Y-87416000D01*
X131740837Y-87648352D01*
X131823000Y-87776037D01*
X131823000Y-88400975D01*
X131771698Y-88349673D01*
X131538309Y-88253000D01*
X131181750Y-88253000D01*
X131023000Y-88411750D01*
X131023000Y-89277000D01*
X131043000Y-89277000D01*
X131043000Y-90023000D01*
X131023000Y-90023000D01*
X131023000Y-90888250D01*
X131181750Y-91047000D01*
X131538309Y-91047000D01*
X131771698Y-90950327D01*
X131950327Y-90771699D01*
X132047000Y-90538310D01*
X132047000Y-90471062D01*
X132402167Y-90826850D01*
X132912499Y-91038758D01*
X133465077Y-91039240D01*
X133975777Y-90828223D01*
X134366850Y-90437833D01*
X134459967Y-90213581D01*
X134551777Y-90435777D01*
X134942167Y-90826850D01*
X135452499Y-91038758D01*
X136005077Y-91039240D01*
X136515777Y-90828223D01*
X136906850Y-90437833D01*
X136999967Y-90213581D01*
X137091777Y-90435777D01*
X137482167Y-90826850D01*
X137992499Y-91038758D01*
X138545077Y-91039240D01*
X139055777Y-90828223D01*
X139446850Y-90437833D01*
X139539967Y-90213581D01*
X139631777Y-90435777D01*
X140022167Y-90826850D01*
X140532499Y-91038758D01*
X141085077Y-91039240D01*
X141595777Y-90828223D01*
X141986850Y-90437833D01*
X142079967Y-90213581D01*
X142171777Y-90435777D01*
X142223000Y-90487090D01*
X142223000Y-92050000D01*
X142308788Y-92481284D01*
X142553091Y-92846909D01*
X143903090Y-94196909D01*
X144064362Y-94304667D01*
X144268716Y-94441212D01*
X144700000Y-94527000D01*
X145933182Y-94527000D01*
X146273000Y-94866819D01*
X146273000Y-95265000D01*
X146083750Y-95265000D01*
X145925000Y-95423750D01*
X145925000Y-96277000D01*
X145993000Y-96277000D01*
X145993000Y-97023000D01*
X145925000Y-97023000D01*
X145925000Y-97043000D01*
X145275000Y-97043000D01*
X145275000Y-97023000D01*
X144473750Y-97023000D01*
X144315000Y-97181750D01*
X144315000Y-97526309D01*
X144411673Y-97759698D01*
X144590301Y-97938327D01*
X144739829Y-98000263D01*
X144717648Y-98004437D01*
X144504247Y-98141757D01*
X144361083Y-98351283D01*
X144310717Y-98600000D01*
X144310717Y-100050194D01*
X143975583Y-100188669D01*
X143714586Y-100449211D01*
X143573161Y-100789799D01*
X143573011Y-100961194D01*
X143074923Y-100960760D01*
X142564223Y-101171777D01*
X142173150Y-101562167D01*
X142080033Y-101786419D01*
X141988223Y-101564223D01*
X141597833Y-101173150D01*
X141087501Y-100961242D01*
X140534923Y-100960760D01*
X140024223Y-101171777D01*
X139633150Y-101562167D01*
X139540033Y-101786419D01*
X139448223Y-101564223D01*
X139057833Y-101173150D01*
X138874220Y-101096907D01*
X138971744Y-101031744D01*
X139559393Y-100444096D01*
X139940000Y-100519803D01*
X140510428Y-100406338D01*
X140994013Y-100083216D01*
X141210000Y-99759969D01*
X141425987Y-100083216D01*
X141909572Y-100406338D01*
X142480000Y-100519803D01*
X143050428Y-100406338D01*
X143534013Y-100083216D01*
X143857135Y-99599631D01*
X143970600Y-99029203D01*
X143970600Y-98970797D01*
X143857135Y-98400369D01*
X143534013Y-97916784D01*
X143254472Y-97730000D01*
X143534013Y-97543216D01*
X143857135Y-97059631D01*
X143970600Y-96489203D01*
X143970600Y-96430797D01*
X143857135Y-95860369D01*
X143799219Y-95773691D01*
X144315000Y-95773691D01*
X144315000Y-96118250D01*
X144473750Y-96277000D01*
X145275000Y-96277000D01*
X145275000Y-95423750D01*
X145116250Y-95265000D01*
X144823690Y-95265000D01*
X144590301Y-95361673D01*
X144411673Y-95540302D01*
X144315000Y-95773691D01*
X143799219Y-95773691D01*
X143534013Y-95376784D01*
X143050428Y-95053662D01*
X142480000Y-94940197D01*
X141909572Y-95053662D01*
X141425987Y-95376784D01*
X141210000Y-95700031D01*
X140994013Y-95376784D01*
X140510428Y-95053662D01*
X139940000Y-94940197D01*
X139369572Y-95053662D01*
X138885987Y-95376784D01*
X138670000Y-95700031D01*
X138454013Y-95376784D01*
X137970428Y-95053662D01*
X137400000Y-94940197D01*
X136829572Y-95053662D01*
X136345987Y-95376784D01*
X136022865Y-95860369D01*
X135909400Y-96430797D01*
X135909400Y-96489203D01*
X136022865Y-97059631D01*
X136339891Y-97534093D01*
X136304048Y-97540837D01*
X136090647Y-97678157D01*
X135947483Y-97887683D01*
X135897117Y-98136400D01*
X135897117Y-98248000D01*
X132900000Y-98248000D01*
X132612223Y-98305242D01*
X132368256Y-98468255D01*
X130118256Y-100718256D01*
X129955243Y-100962222D01*
X129917978Y-101149566D01*
X129864223Y-101171777D01*
X129473150Y-101562167D01*
X129380033Y-101786419D01*
X129288223Y-101564223D01*
X128897833Y-101173150D01*
X128387501Y-100961242D01*
X127834923Y-100960760D01*
X127324223Y-101171777D01*
X126933150Y-101562167D01*
X126721242Y-102072499D01*
X126720760Y-102625077D01*
X126931777Y-103135777D01*
X127322167Y-103526850D01*
X127832499Y-103738758D01*
X128385077Y-103739240D01*
X128449240Y-103712728D01*
X129643801Y-104907289D01*
X129209572Y-104993662D01*
X128725987Y-105316784D01*
X128505823Y-105646281D01*
X128282687Y-105323576D01*
X127835463Y-105024782D01*
X127613000Y-105113117D01*
X127613000Y-106027000D01*
X127633000Y-106027000D01*
X127633000Y-106773000D01*
X127613000Y-106773000D01*
X127613000Y-106793000D01*
X126867000Y-106793000D01*
X126867000Y-106773000D01*
X125073000Y-106773000D01*
X125073000Y-106793000D01*
X124327000Y-106793000D01*
X124327000Y-106773000D01*
X122533000Y-106773000D01*
X122533000Y-106793000D01*
X121787000Y-106793000D01*
X121787000Y-106773000D01*
X119993000Y-106773000D01*
X119993000Y-106793000D01*
X119247000Y-106793000D01*
X119247000Y-106773000D01*
X117453000Y-106773000D01*
X117453000Y-106793000D01*
X116707000Y-106793000D01*
X116707000Y-106773000D01*
X114913000Y-106773000D01*
X114913000Y-106793000D01*
X114167000Y-106793000D01*
X114167000Y-106773000D01*
X113247283Y-106773000D01*
X113164753Y-106995467D01*
X113384313Y-107313000D01*
X108213925Y-107313000D01*
X106705459Y-105804533D01*
X113164753Y-105804533D01*
X113247283Y-106027000D01*
X114167000Y-106027000D01*
X114167000Y-105113117D01*
X114913000Y-105113117D01*
X114913000Y-106027000D01*
X116707000Y-106027000D01*
X116707000Y-105113117D01*
X117453000Y-105113117D01*
X117453000Y-106027000D01*
X119247000Y-106027000D01*
X119247000Y-105113117D01*
X119993000Y-105113117D01*
X119993000Y-106027000D01*
X121787000Y-106027000D01*
X121787000Y-105113117D01*
X122533000Y-105113117D01*
X122533000Y-106027000D01*
X124327000Y-106027000D01*
X124327000Y-105113117D01*
X125073000Y-105113117D01*
X125073000Y-106027000D01*
X126867000Y-106027000D01*
X126867000Y-105113117D01*
X126644537Y-105024782D01*
X126197313Y-105323576D01*
X125970000Y-105652322D01*
X125742687Y-105323576D01*
X125295463Y-105024782D01*
X125073000Y-105113117D01*
X124327000Y-105113117D01*
X124104537Y-105024782D01*
X123657313Y-105323576D01*
X123430000Y-105652322D01*
X123202687Y-105323576D01*
X122755463Y-105024782D01*
X122533000Y-105113117D01*
X121787000Y-105113117D01*
X121564537Y-105024782D01*
X121117313Y-105323576D01*
X120890000Y-105652322D01*
X120662687Y-105323576D01*
X120215463Y-105024782D01*
X119993000Y-105113117D01*
X119247000Y-105113117D01*
X119024537Y-105024782D01*
X118577313Y-105323576D01*
X118350000Y-105652322D01*
X118122687Y-105323576D01*
X117675463Y-105024782D01*
X117453000Y-105113117D01*
X116707000Y-105113117D01*
X116484537Y-105024782D01*
X116037313Y-105323576D01*
X115810000Y-105652322D01*
X115582687Y-105323576D01*
X115135463Y-105024782D01*
X114913000Y-105113117D01*
X114167000Y-105113117D01*
X113944537Y-105024782D01*
X113497313Y-105323576D01*
X113164753Y-105804533D01*
X106705459Y-105804533D01*
X105727000Y-104826074D01*
X105727000Y-103694951D01*
X105832499Y-103738758D01*
X106385077Y-103739240D01*
X106895777Y-103528223D01*
X107286850Y-103137833D01*
X107379967Y-102913581D01*
X107471777Y-103135777D01*
X107862167Y-103526850D01*
X108372499Y-103738758D01*
X108925077Y-103739240D01*
X109435777Y-103528223D01*
X109826850Y-103137833D01*
X109919967Y-102913581D01*
X110011777Y-103135777D01*
X110402167Y-103526850D01*
X110912499Y-103738758D01*
X111465077Y-103739240D01*
X111975777Y-103528223D01*
X112366850Y-103137833D01*
X112459967Y-102913581D01*
X112551777Y-103135777D01*
X112942167Y-103526850D01*
X113452499Y-103738758D01*
X114005077Y-103739240D01*
X114515777Y-103528223D01*
X114906850Y-103137833D01*
X114999967Y-102913581D01*
X115091777Y-103135777D01*
X115482167Y-103526850D01*
X115992499Y-103738758D01*
X116545077Y-103739240D01*
X117055777Y-103528223D01*
X117446850Y-103137833D01*
X117539967Y-102913581D01*
X117631777Y-103135777D01*
X118022167Y-103526850D01*
X118532499Y-103738758D01*
X119085077Y-103739240D01*
X119595777Y-103528223D01*
X119986850Y-103137833D01*
X120079967Y-102913581D01*
X120171777Y-103135777D01*
X120562167Y-103526850D01*
X121072499Y-103738758D01*
X121625077Y-103739240D01*
X122135777Y-103528223D01*
X122526850Y-103137833D01*
X122619967Y-102913581D01*
X122711777Y-103135777D01*
X123102167Y-103526850D01*
X123612499Y-103738758D01*
X124165077Y-103739240D01*
X124675777Y-103528223D01*
X125066850Y-103137833D01*
X125278758Y-102627501D01*
X125279240Y-102074923D01*
X125068223Y-101564223D01*
X124677833Y-101173150D01*
X124167501Y-100961242D01*
X123927455Y-100961033D01*
X124131744Y-100756744D01*
X124143411Y-100739283D01*
X124250000Y-100739283D01*
X124482352Y-100695563D01*
X124695753Y-100558243D01*
X124838917Y-100348717D01*
X124889283Y-100100000D01*
X124889283Y-98600000D01*
X124845563Y-98367648D01*
X124708243Y-98154247D01*
X124498717Y-98011083D01*
X124455284Y-98002288D01*
X124609699Y-97938327D01*
X124788327Y-97759698D01*
X124885000Y-97526309D01*
X124885000Y-97181750D01*
X124726250Y-97023000D01*
X123925000Y-97023000D01*
X123925000Y-97043000D01*
X123275000Y-97043000D01*
X123275000Y-97023000D01*
X122473750Y-97023000D01*
X122315000Y-97181750D01*
X122315000Y-97526309D01*
X122411673Y-97759698D01*
X122590301Y-97938327D01*
X122739829Y-98000263D01*
X122717648Y-98004437D01*
X122504247Y-98141757D01*
X122361083Y-98351283D01*
X122310717Y-98600000D01*
X122310717Y-100100000D01*
X122327270Y-100187972D01*
X122325583Y-100188669D01*
X122064586Y-100449211D01*
X121923161Y-100789799D01*
X121922904Y-101083904D01*
X121627501Y-100961242D01*
X121074923Y-100960760D01*
X120564223Y-101171777D01*
X120173150Y-101562167D01*
X120080033Y-101786419D01*
X119988223Y-101564223D01*
X119597833Y-101173150D01*
X119087501Y-100961242D01*
X118534923Y-100960760D01*
X118024223Y-101171777D01*
X117633150Y-101562167D01*
X117540033Y-101786419D01*
X117448223Y-101564223D01*
X117057833Y-101173150D01*
X116897086Y-101106402D01*
X117559392Y-100444096D01*
X117940000Y-100519803D01*
X118510428Y-100406338D01*
X118994013Y-100083216D01*
X119210000Y-99759969D01*
X119425987Y-100083216D01*
X119909572Y-100406338D01*
X120480000Y-100519803D01*
X121050428Y-100406338D01*
X121534013Y-100083216D01*
X121857135Y-99599631D01*
X121970600Y-99029203D01*
X121970600Y-98970797D01*
X121857135Y-98400369D01*
X121534013Y-97916784D01*
X121254472Y-97730000D01*
X121534013Y-97543216D01*
X121857135Y-97059631D01*
X121970600Y-96489203D01*
X121970600Y-96430797D01*
X121857135Y-95860369D01*
X121799219Y-95773691D01*
X122315000Y-95773691D01*
X122315000Y-96118250D01*
X122473750Y-96277000D01*
X123275000Y-96277000D01*
X123275000Y-95423750D01*
X123925000Y-95423750D01*
X123925000Y-96277000D01*
X124726250Y-96277000D01*
X124885000Y-96118250D01*
X124885000Y-95773691D01*
X124788327Y-95540302D01*
X124609699Y-95361673D01*
X124376310Y-95265000D01*
X124083750Y-95265000D01*
X123925000Y-95423750D01*
X123275000Y-95423750D01*
X123116250Y-95265000D01*
X122823690Y-95265000D01*
X122590301Y-95361673D01*
X122411673Y-95540302D01*
X122315000Y-95773691D01*
X121799219Y-95773691D01*
X121534013Y-95376784D01*
X121050428Y-95053662D01*
X120480000Y-94940197D01*
X119909572Y-95053662D01*
X119425987Y-95376784D01*
X119210000Y-95700031D01*
X118994013Y-95376784D01*
X118510428Y-95053662D01*
X117940000Y-94940197D01*
X117369572Y-95053662D01*
X116885987Y-95376784D01*
X116670000Y-95700031D01*
X116454013Y-95376784D01*
X115970428Y-95053662D01*
X115400000Y-94940197D01*
X114829572Y-95053662D01*
X114345987Y-95376784D01*
X114022865Y-95860369D01*
X113909400Y-96430797D01*
X113909400Y-96489203D01*
X114022865Y-97059631D01*
X114339891Y-97534093D01*
X114304048Y-97540837D01*
X114090647Y-97678157D01*
X113947483Y-97887683D01*
X113897117Y-98136400D01*
X113897117Y-98248000D01*
X112200000Y-98248000D01*
X111912227Y-98305242D01*
X111912222Y-98305243D01*
X111668255Y-98468256D01*
X109102573Y-101033938D01*
X108927501Y-100961242D01*
X108374923Y-100960760D01*
X107864223Y-101171777D01*
X107473150Y-101562167D01*
X107380033Y-101786419D01*
X107288223Y-101564223D01*
X106897833Y-101173150D01*
X106387501Y-100961242D01*
X105834923Y-100960760D01*
X105727000Y-101005353D01*
X105727000Y-96820372D01*
X105970372Y-96577000D01*
X106748900Y-96577000D01*
X107275855Y-96472182D01*
X107550211Y-96288863D01*
X108298300Y-96288863D01*
X108530652Y-96245143D01*
X108744053Y-96107823D01*
X108887217Y-95898297D01*
X108937583Y-95649580D01*
X108937583Y-95583540D01*
X109466700Y-95583540D01*
X109466700Y-95775890D01*
X109563373Y-96009279D01*
X109742002Y-96187907D01*
X109975391Y-96284580D01*
X111119350Y-96284580D01*
X111278100Y-96125830D01*
X111278100Y-95424790D01*
X112024100Y-95424790D01*
X112024100Y-96125830D01*
X112182850Y-96284580D01*
X113326809Y-96284580D01*
X113560198Y-96187907D01*
X113738827Y-96009279D01*
X113835500Y-95775890D01*
X113835500Y-95583540D01*
X113676750Y-95424790D01*
X112024100Y-95424790D01*
X111278100Y-95424790D01*
X109625450Y-95424790D01*
X109466700Y-95583540D01*
X108937583Y-95583540D01*
X108937583Y-94750420D01*
X108893863Y-94518068D01*
X108756543Y-94304667D01*
X108642874Y-94227000D01*
X109727095Y-94227000D01*
X109563373Y-94390721D01*
X109466700Y-94624110D01*
X109466700Y-94816460D01*
X109625450Y-94975210D01*
X111278100Y-94975210D01*
X111278100Y-94807000D01*
X112024100Y-94807000D01*
X112024100Y-94975210D01*
X113676750Y-94975210D01*
X113835500Y-94816460D01*
X113835500Y-94624110D01*
X113738827Y-94390721D01*
X113575105Y-94227000D01*
X125499716Y-94227000D01*
X125549537Y-94301563D01*
X126560217Y-95312243D01*
X126560217Y-95649580D01*
X126603937Y-95881932D01*
X126741257Y-96095333D01*
X126950783Y-96238497D01*
X127199500Y-96288863D01*
X127536837Y-96288863D01*
X127598437Y-96350463D01*
X128126274Y-96703152D01*
X128748900Y-96827000D01*
X129371526Y-96703152D01*
X129899363Y-96350463D01*
X129940523Y-96288863D01*
X130298300Y-96288863D01*
X130530652Y-96245143D01*
X130744053Y-96107823D01*
X130887217Y-95898297D01*
X130937583Y-95649580D01*
X130937583Y-95583540D01*
X131466700Y-95583540D01*
X131466700Y-95775890D01*
X131563373Y-96009279D01*
X131742002Y-96187907D01*
X131975391Y-96284580D01*
X133119350Y-96284580D01*
X133278100Y-96125830D01*
X133278100Y-95424790D01*
X134024100Y-95424790D01*
X134024100Y-96125830D01*
X134182850Y-96284580D01*
X135326809Y-96284580D01*
X135560198Y-96187907D01*
X135738827Y-96009279D01*
X135835500Y-95775890D01*
X135835500Y-95583540D01*
X135676750Y-95424790D01*
X134024100Y-95424790D01*
X133278100Y-95424790D01*
X131625450Y-95424790D01*
X131466700Y-95583540D01*
X130937583Y-95583540D01*
X130937583Y-94750420D01*
X130913817Y-94624110D01*
X131466700Y-94624110D01*
X131466700Y-94816460D01*
X131625450Y-94975210D01*
X133278100Y-94975210D01*
X133278100Y-94274170D01*
X134024100Y-94274170D01*
X134024100Y-94975210D01*
X135676750Y-94975210D01*
X135835500Y-94816460D01*
X135835500Y-94624110D01*
X135738827Y-94390721D01*
X135560198Y-94212093D01*
X135326809Y-94115420D01*
X134182850Y-94115420D01*
X134024100Y-94274170D01*
X133278100Y-94274170D01*
X133119350Y-94115420D01*
X131975391Y-94115420D01*
X131742002Y-94212093D01*
X131563373Y-94390721D01*
X131466700Y-94624110D01*
X130913817Y-94624110D01*
X130893863Y-94518068D01*
X130756543Y-94304667D01*
X130547017Y-94161503D01*
X130298300Y-94111137D01*
X129940523Y-94111137D01*
X129899363Y-94049537D01*
X128725376Y-92875550D01*
X129260463Y-92340463D01*
X129613152Y-91812626D01*
X129737000Y-91190000D01*
X129737000Y-91036773D01*
X129761691Y-91047000D01*
X130118250Y-91047000D01*
X130277000Y-90888250D01*
X130277000Y-90023000D01*
X130257000Y-90023000D01*
X130257000Y-89277000D01*
X130277000Y-89277000D01*
X130277000Y-88411750D01*
X130118250Y-88253000D01*
X129761691Y-88253000D01*
X129528302Y-88349673D01*
X129349673Y-88528301D01*
X129322889Y-88592964D01*
X129260463Y-88499537D01*
X128732626Y-88146848D01*
X128110000Y-88023000D01*
X127487374Y-88146848D01*
X126959537Y-88499537D01*
X126606848Y-89027374D01*
X126483000Y-89650000D01*
X126483000Y-90516074D01*
X126026074Y-90973000D01*
X124956961Y-90973000D01*
X125011698Y-90950327D01*
X125190327Y-90771699D01*
X125287000Y-90538310D01*
X125287000Y-90181750D01*
X125128250Y-90023000D01*
X124263000Y-90023000D01*
X124263000Y-90043000D01*
X123517000Y-90043000D01*
X123517000Y-90023000D01*
X123497000Y-90023000D01*
X123497000Y-89277000D01*
X123517000Y-89277000D01*
X123517000Y-88411750D01*
X124263000Y-88411750D01*
X124263000Y-89277000D01*
X125128250Y-89277000D01*
X125287000Y-89118250D01*
X125287000Y-88761690D01*
X125190327Y-88528301D01*
X125011698Y-88349673D01*
X124778309Y-88253000D01*
X124421750Y-88253000D01*
X124263000Y-88411750D01*
X123517000Y-88411750D01*
X123358250Y-88253000D01*
X123001691Y-88253000D01*
X122768302Y-88349673D01*
X122589673Y-88528301D01*
X122493000Y-88761690D01*
X122493000Y-88828938D01*
X122137833Y-88473150D01*
X121627501Y-88261242D01*
X121074923Y-88260760D01*
X120564223Y-88471777D01*
X120187000Y-88848341D01*
X120187000Y-87170184D01*
X120197135Y-87155016D01*
X120310600Y-86584588D01*
X120310600Y-86215412D01*
X120197135Y-85644984D01*
X120197000Y-85644782D01*
X120197000Y-83519270D01*
X122672458Y-83519270D01*
X123147512Y-84668989D01*
X124026384Y-85549396D01*
X125175272Y-86026456D01*
X126419270Y-86027542D01*
X127568989Y-85552488D01*
X128449396Y-84673616D01*
X128926456Y-83524728D01*
X128927542Y-82280730D01*
X128452488Y-81131011D01*
X127573616Y-80250604D01*
X126424728Y-79773544D01*
X125180730Y-79772458D01*
X124031011Y-80247512D01*
X123150604Y-81126384D01*
X122673544Y-82275272D01*
X122672458Y-83519270D01*
X120197000Y-83519270D01*
X120197000Y-82193249D01*
X120344546Y-81972431D01*
X120468355Y-81350000D01*
X120344546Y-80727569D01*
X119991967Y-80199898D01*
X119464296Y-79847319D01*
X118841865Y-79723510D01*
X118778135Y-79723510D01*
X118155704Y-79847319D01*
X117628033Y-80199898D01*
X117540000Y-80331649D01*
X117451967Y-80199898D01*
X116924296Y-79847319D01*
X116301865Y-79723510D01*
X116238135Y-79723510D01*
X115615704Y-79847319D01*
X115088033Y-80199898D01*
X115000000Y-80331649D01*
X114911967Y-80199898D01*
X114384296Y-79847319D01*
X113761865Y-79723510D01*
X113698135Y-79723510D01*
X113075704Y-79847319D01*
X112750569Y-80064568D01*
X112647733Y-79904757D01*
X112438207Y-79761593D01*
X112189490Y-79711227D01*
X110190510Y-79711227D01*
X109958158Y-79754947D01*
X109744757Y-79892267D01*
X109601593Y-80101793D01*
X109551227Y-80350510D01*
X109551227Y-82349490D01*
X109594947Y-82581842D01*
X109732267Y-82795243D01*
X109813000Y-82850406D01*
X109813000Y-85039396D01*
X109747483Y-85135283D01*
X109697117Y-85384000D01*
X109697117Y-87416000D01*
X109740837Y-87648352D01*
X109823000Y-87776037D01*
X109823000Y-88400975D01*
X109771698Y-88349673D01*
X109538309Y-88253000D01*
X109181750Y-88253000D01*
X109023000Y-88411750D01*
X109023000Y-89277000D01*
X109043000Y-89277000D01*
X109043000Y-90023000D01*
X109023000Y-90023000D01*
X109023000Y-90043000D01*
X108277000Y-90043000D01*
X108277000Y-90023000D01*
X108257000Y-90023000D01*
X108257000Y-89277000D01*
X108277000Y-89277000D01*
X108277000Y-88411750D01*
X108118250Y-88253000D01*
X107761691Y-88253000D01*
X107528302Y-88349673D01*
X107349673Y-88528301D01*
X107322889Y-88592964D01*
X107260463Y-88499537D01*
X106732626Y-88146848D01*
X106110000Y-88023000D01*
X105487374Y-88146848D01*
X104959537Y-88499537D01*
X103032000Y-90427074D01*
X103032000Y-78632000D01*
X147768000Y-78632000D01*
X147768000Y-93174181D01*
X147768000Y-93174181D01*
G37*
X147768000Y-93174181D02*
X147196909Y-92603091D01*
X146831284Y-92358788D01*
X146400000Y-92273000D01*
X145166819Y-92273000D01*
X144477000Y-91583182D01*
X144477000Y-90487596D01*
X144493000Y-90471624D01*
X144493000Y-90538310D01*
X144589673Y-90771699D01*
X144768302Y-90950327D01*
X145001691Y-91047000D01*
X145358250Y-91047000D01*
X145517000Y-90888250D01*
X145517000Y-90023000D01*
X146263000Y-90023000D01*
X146263000Y-90888250D01*
X146421750Y-91047000D01*
X146778309Y-91047000D01*
X147011698Y-90950327D01*
X147190327Y-90771699D01*
X147287000Y-90538310D01*
X147287000Y-90181750D01*
X147128250Y-90023000D01*
X146263000Y-90023000D01*
X145517000Y-90023000D01*
X145497000Y-90023000D01*
X145497000Y-89277000D01*
X145517000Y-89277000D01*
X145517000Y-88411750D01*
X146263000Y-88411750D01*
X146263000Y-89277000D01*
X147128250Y-89277000D01*
X147287000Y-89118250D01*
X147287000Y-88761690D01*
X147190327Y-88528301D01*
X147011698Y-88349673D01*
X146778309Y-88253000D01*
X146421750Y-88253000D01*
X146263000Y-88411750D01*
X145517000Y-88411750D01*
X145358250Y-88253000D01*
X145001691Y-88253000D01*
X144768302Y-88349673D01*
X144589673Y-88528301D01*
X144493000Y-88761690D01*
X144493000Y-88828938D01*
X144137833Y-88473150D01*
X143627501Y-88261242D01*
X143074923Y-88260760D01*
X142564223Y-88471777D01*
X142187000Y-88848341D01*
X142187000Y-87170184D01*
X142197135Y-87155016D01*
X142310600Y-86584588D01*
X142310600Y-86215412D01*
X142197135Y-85644984D01*
X142187000Y-85629816D01*
X142187000Y-82208215D01*
X142344546Y-81972431D01*
X142468355Y-81350000D01*
X142344546Y-80727569D01*
X141991967Y-80199898D01*
X141464296Y-79847319D01*
X140841865Y-79723510D01*
X140778135Y-79723510D01*
X140155704Y-79847319D01*
X139628033Y-80199898D01*
X139540000Y-80331649D01*
X139451967Y-80199898D01*
X138924296Y-79847319D01*
X138301865Y-79723510D01*
X138238135Y-79723510D01*
X137615704Y-79847319D01*
X137088033Y-80199898D01*
X137000000Y-80331649D01*
X136911967Y-80199898D01*
X136384296Y-79847319D01*
X135761865Y-79723510D01*
X135698135Y-79723510D01*
X135075704Y-79847319D01*
X134750569Y-80064568D01*
X134647733Y-79904757D01*
X134438207Y-79761593D01*
X134189490Y-79711227D01*
X132190510Y-79711227D01*
X131958158Y-79754947D01*
X131744757Y-79892267D01*
X131601593Y-80101793D01*
X131551227Y-80350510D01*
X131551227Y-82349490D01*
X131594947Y-82581842D01*
X131732267Y-82795243D01*
X131823000Y-82857239D01*
X131823000Y-85024761D01*
X131747483Y-85135283D01*
X131697117Y-85384000D01*
X131697117Y-87416000D01*
X131740837Y-87648352D01*
X131823000Y-87776037D01*
X131823000Y-88400975D01*
X131771698Y-88349673D01*
X131538309Y-88253000D01*
X131181750Y-88253000D01*
X131023000Y-88411750D01*
X131023000Y-89277000D01*
X131043000Y-89277000D01*
X131043000Y-90023000D01*
X131023000Y-90023000D01*
X131023000Y-90888250D01*
X131181750Y-91047000D01*
X131538309Y-91047000D01*
X131771698Y-90950327D01*
X131950327Y-90771699D01*
X132047000Y-90538310D01*
X132047000Y-90471062D01*
X132402167Y-90826850D01*
X132912499Y-91038758D01*
X133465077Y-91039240D01*
X133975777Y-90828223D01*
X134366850Y-90437833D01*
X134459967Y-90213581D01*
X134551777Y-90435777D01*
X134942167Y-90826850D01*
X135452499Y-91038758D01*
X136005077Y-91039240D01*
X136515777Y-90828223D01*
X136906850Y-90437833D01*
X136999967Y-90213581D01*
X137091777Y-90435777D01*
X137482167Y-90826850D01*
X137992499Y-91038758D01*
X138545077Y-91039240D01*
X139055777Y-90828223D01*
X139446850Y-90437833D01*
X139539967Y-90213581D01*
X139631777Y-90435777D01*
X140022167Y-90826850D01*
X140532499Y-91038758D01*
X141085077Y-91039240D01*
X141595777Y-90828223D01*
X141986850Y-90437833D01*
X142079967Y-90213581D01*
X142171777Y-90435777D01*
X142223000Y-90487090D01*
X142223000Y-92050000D01*
X142308788Y-92481284D01*
X142553091Y-92846909D01*
X143903090Y-94196909D01*
X144064362Y-94304667D01*
X144268716Y-94441212D01*
X144700000Y-94527000D01*
X145933182Y-94527000D01*
X146273000Y-94866819D01*
X146273000Y-95265000D01*
X146083750Y-95265000D01*
X145925000Y-95423750D01*
X145925000Y-96277000D01*
X145993000Y-96277000D01*
X145993000Y-97023000D01*
X145925000Y-97023000D01*
X145925000Y-97043000D01*
X145275000Y-97043000D01*
X145275000Y-97023000D01*
X144473750Y-97023000D01*
X144315000Y-97181750D01*
X144315000Y-97526309D01*
X144411673Y-97759698D01*
X144590301Y-97938327D01*
X144739829Y-98000263D01*
X144717648Y-98004437D01*
X144504247Y-98141757D01*
X144361083Y-98351283D01*
X144310717Y-98600000D01*
X144310717Y-100050194D01*
X143975583Y-100188669D01*
X143714586Y-100449211D01*
X143573161Y-100789799D01*
X143573011Y-100961194D01*
X143074923Y-100960760D01*
X142564223Y-101171777D01*
X142173150Y-101562167D01*
X142080033Y-101786419D01*
X141988223Y-101564223D01*
X141597833Y-101173150D01*
X141087501Y-100961242D01*
X140534923Y-100960760D01*
X140024223Y-101171777D01*
X139633150Y-101562167D01*
X139540033Y-101786419D01*
X139448223Y-101564223D01*
X139057833Y-101173150D01*
X138874220Y-101096907D01*
X138971744Y-101031744D01*
X139559393Y-100444096D01*
X139940000Y-100519803D01*
X140510428Y-100406338D01*
X140994013Y-100083216D01*
X141210000Y-99759969D01*
X141425987Y-100083216D01*
X141909572Y-100406338D01*
X142480000Y-100519803D01*
X143050428Y-100406338D01*
X143534013Y-100083216D01*
X143857135Y-99599631D01*
X143970600Y-99029203D01*
X143970600Y-98970797D01*
X143857135Y-98400369D01*
X143534013Y-97916784D01*
X143254472Y-97730000D01*
X143534013Y-97543216D01*
X143857135Y-97059631D01*
X143970600Y-96489203D01*
X143970600Y-96430797D01*
X143857135Y-95860369D01*
X143799219Y-95773691D01*
X144315000Y-95773691D01*
X144315000Y-96118250D01*
X144473750Y-96277000D01*
X145275000Y-96277000D01*
X145275000Y-95423750D01*
X145116250Y-95265000D01*
X144823690Y-95265000D01*
X144590301Y-95361673D01*
X144411673Y-95540302D01*
X144315000Y-95773691D01*
X143799219Y-95773691D01*
X143534013Y-95376784D01*
X143050428Y-95053662D01*
X142480000Y-94940197D01*
X141909572Y-95053662D01*
X141425987Y-95376784D01*
X141210000Y-95700031D01*
X140994013Y-95376784D01*
X140510428Y-95053662D01*
X139940000Y-94940197D01*
X139369572Y-95053662D01*
X138885987Y-95376784D01*
X138670000Y-95700031D01*
X138454013Y-95376784D01*
X137970428Y-95053662D01*
X137400000Y-94940197D01*
X136829572Y-95053662D01*
X136345987Y-95376784D01*
X136022865Y-95860369D01*
X135909400Y-96430797D01*
X135909400Y-96489203D01*
X136022865Y-97059631D01*
X136339891Y-97534093D01*
X136304048Y-97540837D01*
X136090647Y-97678157D01*
X135947483Y-97887683D01*
X135897117Y-98136400D01*
X135897117Y-98248000D01*
X132900000Y-98248000D01*
X132612223Y-98305242D01*
X132368256Y-98468255D01*
X130118256Y-100718256D01*
X129955243Y-100962222D01*
X129917978Y-101149566D01*
X129864223Y-101171777D01*
X129473150Y-101562167D01*
X129380033Y-101786419D01*
X129288223Y-101564223D01*
X128897833Y-101173150D01*
X128387501Y-100961242D01*
X127834923Y-100960760D01*
X127324223Y-101171777D01*
X126933150Y-101562167D01*
X126721242Y-102072499D01*
X126720760Y-102625077D01*
X126931777Y-103135777D01*
X127322167Y-103526850D01*
X127832499Y-103738758D01*
X128385077Y-103739240D01*
X128449240Y-103712728D01*
X129643801Y-104907289D01*
X129209572Y-104993662D01*
X128725987Y-105316784D01*
X128505823Y-105646281D01*
X128282687Y-105323576D01*
X127835463Y-105024782D01*
X127613000Y-105113117D01*
X127613000Y-106027000D01*
X127633000Y-106027000D01*
X127633000Y-106773000D01*
X127613000Y-106773000D01*
X127613000Y-106793000D01*
X126867000Y-106793000D01*
X126867000Y-106773000D01*
X125073000Y-106773000D01*
X125073000Y-106793000D01*
X124327000Y-106793000D01*
X124327000Y-106773000D01*
X122533000Y-106773000D01*
X122533000Y-106793000D01*
X121787000Y-106793000D01*
X121787000Y-106773000D01*
X119993000Y-106773000D01*
X119993000Y-106793000D01*
X119247000Y-106793000D01*
X119247000Y-106773000D01*
X117453000Y-106773000D01*
X117453000Y-106793000D01*
X116707000Y-106793000D01*
X116707000Y-106773000D01*
X114913000Y-106773000D01*
X114913000Y-106793000D01*
X114167000Y-106793000D01*
X114167000Y-106773000D01*
X113247283Y-106773000D01*
X113164753Y-106995467D01*
X113384313Y-107313000D01*
X108213925Y-107313000D01*
X106705459Y-105804533D01*
X113164753Y-105804533D01*
X113247283Y-106027000D01*
X114167000Y-106027000D01*
X114167000Y-105113117D01*
X114913000Y-105113117D01*
X114913000Y-106027000D01*
X116707000Y-106027000D01*
X116707000Y-105113117D01*
X117453000Y-105113117D01*
X117453000Y-106027000D01*
X119247000Y-106027000D01*
X119247000Y-105113117D01*
X119993000Y-105113117D01*
X119993000Y-106027000D01*
X121787000Y-106027000D01*
X121787000Y-105113117D01*
X122533000Y-105113117D01*
X122533000Y-106027000D01*
X124327000Y-106027000D01*
X124327000Y-105113117D01*
X125073000Y-105113117D01*
X125073000Y-106027000D01*
X126867000Y-106027000D01*
X126867000Y-105113117D01*
X126644537Y-105024782D01*
X126197313Y-105323576D01*
X125970000Y-105652322D01*
X125742687Y-105323576D01*
X125295463Y-105024782D01*
X125073000Y-105113117D01*
X124327000Y-105113117D01*
X124104537Y-105024782D01*
X123657313Y-105323576D01*
X123430000Y-105652322D01*
X123202687Y-105323576D01*
X122755463Y-105024782D01*
X122533000Y-105113117D01*
X121787000Y-105113117D01*
X121564537Y-105024782D01*
X121117313Y-105323576D01*
X120890000Y-105652322D01*
X120662687Y-105323576D01*
X120215463Y-105024782D01*
X119993000Y-105113117D01*
X119247000Y-105113117D01*
X119024537Y-105024782D01*
X118577313Y-105323576D01*
X118350000Y-105652322D01*
X118122687Y-105323576D01*
X117675463Y-105024782D01*
X117453000Y-105113117D01*
X116707000Y-105113117D01*
X116484537Y-105024782D01*
X116037313Y-105323576D01*
X115810000Y-105652322D01*
X115582687Y-105323576D01*
X115135463Y-105024782D01*
X114913000Y-105113117D01*
X114167000Y-105113117D01*
X113944537Y-105024782D01*
X113497313Y-105323576D01*
X113164753Y-105804533D01*
X106705459Y-105804533D01*
X105727000Y-104826074D01*
X105727000Y-103694951D01*
X105832499Y-103738758D01*
X106385077Y-103739240D01*
X106895777Y-103528223D01*
X107286850Y-103137833D01*
X107379967Y-102913581D01*
X107471777Y-103135777D01*
X107862167Y-103526850D01*
X108372499Y-103738758D01*
X108925077Y-103739240D01*
X109435777Y-103528223D01*
X109826850Y-103137833D01*
X109919967Y-102913581D01*
X110011777Y-103135777D01*
X110402167Y-103526850D01*
X110912499Y-103738758D01*
X111465077Y-103739240D01*
X111975777Y-103528223D01*
X112366850Y-103137833D01*
X112459967Y-102913581D01*
X112551777Y-103135777D01*
X112942167Y-103526850D01*
X113452499Y-103738758D01*
X114005077Y-103739240D01*
X114515777Y-103528223D01*
X114906850Y-103137833D01*
X114999967Y-102913581D01*
X115091777Y-103135777D01*
X115482167Y-103526850D01*
X115992499Y-103738758D01*
X116545077Y-103739240D01*
X117055777Y-103528223D01*
X117446850Y-103137833D01*
X117539967Y-102913581D01*
X117631777Y-103135777D01*
X118022167Y-103526850D01*
X118532499Y-103738758D01*
X119085077Y-103739240D01*
X119595777Y-103528223D01*
X119986850Y-103137833D01*
X120079967Y-102913581D01*
X120171777Y-103135777D01*
X120562167Y-103526850D01*
X121072499Y-103738758D01*
X121625077Y-103739240D01*
X122135777Y-103528223D01*
X122526850Y-103137833D01*
X122619967Y-102913581D01*
X122711777Y-103135777D01*
X123102167Y-103526850D01*
X123612499Y-103738758D01*
X124165077Y-103739240D01*
X124675777Y-103528223D01*
X125066850Y-103137833D01*
X125278758Y-102627501D01*
X125279240Y-102074923D01*
X125068223Y-101564223D01*
X124677833Y-101173150D01*
X124167501Y-100961242D01*
X123927455Y-100961033D01*
X124131744Y-100756744D01*
X124143411Y-100739283D01*
X124250000Y-100739283D01*
X124482352Y-100695563D01*
X124695753Y-100558243D01*
X124838917Y-100348717D01*
X124889283Y-100100000D01*
X124889283Y-98600000D01*
X124845563Y-98367648D01*
X124708243Y-98154247D01*
X124498717Y-98011083D01*
X124455284Y-98002288D01*
X124609699Y-97938327D01*
X124788327Y-97759698D01*
X124885000Y-97526309D01*
X124885000Y-97181750D01*
X124726250Y-97023000D01*
X123925000Y-97023000D01*
X123925000Y-97043000D01*
X123275000Y-97043000D01*
X123275000Y-97023000D01*
X122473750Y-97023000D01*
X122315000Y-97181750D01*
X122315000Y-97526309D01*
X122411673Y-97759698D01*
X122590301Y-97938327D01*
X122739829Y-98000263D01*
X122717648Y-98004437D01*
X122504247Y-98141757D01*
X122361083Y-98351283D01*
X122310717Y-98600000D01*
X122310717Y-100100000D01*
X122327270Y-100187972D01*
X122325583Y-100188669D01*
X122064586Y-100449211D01*
X121923161Y-100789799D01*
X121922904Y-101083904D01*
X121627501Y-100961242D01*
X121074923Y-100960760D01*
X120564223Y-101171777D01*
X120173150Y-101562167D01*
X120080033Y-101786419D01*
X119988223Y-101564223D01*
X119597833Y-101173150D01*
X119087501Y-100961242D01*
X118534923Y-100960760D01*
X118024223Y-101171777D01*
X117633150Y-101562167D01*
X117540033Y-101786419D01*
X117448223Y-101564223D01*
X117057833Y-101173150D01*
X116897086Y-101106402D01*
X117559392Y-100444096D01*
X117940000Y-100519803D01*
X118510428Y-100406338D01*
X118994013Y-100083216D01*
X119210000Y-99759969D01*
X119425987Y-100083216D01*
X119909572Y-100406338D01*
X120480000Y-100519803D01*
X121050428Y-100406338D01*
X121534013Y-100083216D01*
X121857135Y-99599631D01*
X121970600Y-99029203D01*
X121970600Y-98970797D01*
X121857135Y-98400369D01*
X121534013Y-97916784D01*
X121254472Y-97730000D01*
X121534013Y-97543216D01*
X121857135Y-97059631D01*
X121970600Y-96489203D01*
X121970600Y-96430797D01*
X121857135Y-95860369D01*
X121799219Y-95773691D01*
X122315000Y-95773691D01*
X122315000Y-96118250D01*
X122473750Y-96277000D01*
X123275000Y-96277000D01*
X123275000Y-95423750D01*
X123925000Y-95423750D01*
X123925000Y-96277000D01*
X124726250Y-96277000D01*
X124885000Y-96118250D01*
X124885000Y-95773691D01*
X124788327Y-95540302D01*
X124609699Y-95361673D01*
X124376310Y-95265000D01*
X124083750Y-95265000D01*
X123925000Y-95423750D01*
X123275000Y-95423750D01*
X123116250Y-95265000D01*
X122823690Y-95265000D01*
X122590301Y-95361673D01*
X122411673Y-95540302D01*
X122315000Y-95773691D01*
X121799219Y-95773691D01*
X121534013Y-95376784D01*
X121050428Y-95053662D01*
X120480000Y-94940197D01*
X119909572Y-95053662D01*
X119425987Y-95376784D01*
X119210000Y-95700031D01*
X118994013Y-95376784D01*
X118510428Y-95053662D01*
X117940000Y-94940197D01*
X117369572Y-95053662D01*
X116885987Y-95376784D01*
X116670000Y-95700031D01*
X116454013Y-95376784D01*
X115970428Y-95053662D01*
X115400000Y-94940197D01*
X114829572Y-95053662D01*
X114345987Y-95376784D01*
X114022865Y-95860369D01*
X113909400Y-96430797D01*
X113909400Y-96489203D01*
X114022865Y-97059631D01*
X114339891Y-97534093D01*
X114304048Y-97540837D01*
X114090647Y-97678157D01*
X113947483Y-97887683D01*
X113897117Y-98136400D01*
X113897117Y-98248000D01*
X112200000Y-98248000D01*
X111912227Y-98305242D01*
X111912222Y-98305243D01*
X111668255Y-98468256D01*
X109102573Y-101033938D01*
X108927501Y-100961242D01*
X108374923Y-100960760D01*
X107864223Y-101171777D01*
X107473150Y-101562167D01*
X107380033Y-101786419D01*
X107288223Y-101564223D01*
X106897833Y-101173150D01*
X106387501Y-100961242D01*
X105834923Y-100960760D01*
X105727000Y-101005353D01*
X105727000Y-96820372D01*
X105970372Y-96577000D01*
X106748900Y-96577000D01*
X107275855Y-96472182D01*
X107550211Y-96288863D01*
X108298300Y-96288863D01*
X108530652Y-96245143D01*
X108744053Y-96107823D01*
X108887217Y-95898297D01*
X108937583Y-95649580D01*
X108937583Y-95583540D01*
X109466700Y-95583540D01*
X109466700Y-95775890D01*
X109563373Y-96009279D01*
X109742002Y-96187907D01*
X109975391Y-96284580D01*
X111119350Y-96284580D01*
X111278100Y-96125830D01*
X111278100Y-95424790D01*
X112024100Y-95424790D01*
X112024100Y-96125830D01*
X112182850Y-96284580D01*
X113326809Y-96284580D01*
X113560198Y-96187907D01*
X113738827Y-96009279D01*
X113835500Y-95775890D01*
X113835500Y-95583540D01*
X113676750Y-95424790D01*
X112024100Y-95424790D01*
X111278100Y-95424790D01*
X109625450Y-95424790D01*
X109466700Y-95583540D01*
X108937583Y-95583540D01*
X108937583Y-94750420D01*
X108893863Y-94518068D01*
X108756543Y-94304667D01*
X108642874Y-94227000D01*
X109727095Y-94227000D01*
X109563373Y-94390721D01*
X109466700Y-94624110D01*
X109466700Y-94816460D01*
X109625450Y-94975210D01*
X111278100Y-94975210D01*
X111278100Y-94807000D01*
X112024100Y-94807000D01*
X112024100Y-94975210D01*
X113676750Y-94975210D01*
X113835500Y-94816460D01*
X113835500Y-94624110D01*
X113738827Y-94390721D01*
X113575105Y-94227000D01*
X125499716Y-94227000D01*
X125549537Y-94301563D01*
X126560217Y-95312243D01*
X126560217Y-95649580D01*
X126603937Y-95881932D01*
X126741257Y-96095333D01*
X126950783Y-96238497D01*
X127199500Y-96288863D01*
X127536837Y-96288863D01*
X127598437Y-96350463D01*
X128126274Y-96703152D01*
X128748900Y-96827000D01*
X129371526Y-96703152D01*
X129899363Y-96350463D01*
X129940523Y-96288863D01*
X130298300Y-96288863D01*
X130530652Y-96245143D01*
X130744053Y-96107823D01*
X130887217Y-95898297D01*
X130937583Y-95649580D01*
X130937583Y-95583540D01*
X131466700Y-95583540D01*
X131466700Y-95775890D01*
X131563373Y-96009279D01*
X131742002Y-96187907D01*
X131975391Y-96284580D01*
X133119350Y-96284580D01*
X133278100Y-96125830D01*
X133278100Y-95424790D01*
X134024100Y-95424790D01*
X134024100Y-96125830D01*
X134182850Y-96284580D01*
X135326809Y-96284580D01*
X135560198Y-96187907D01*
X135738827Y-96009279D01*
X135835500Y-95775890D01*
X135835500Y-95583540D01*
X135676750Y-95424790D01*
X134024100Y-95424790D01*
X133278100Y-95424790D01*
X131625450Y-95424790D01*
X131466700Y-95583540D01*
X130937583Y-95583540D01*
X130937583Y-94750420D01*
X130913817Y-94624110D01*
X131466700Y-94624110D01*
X131466700Y-94816460D01*
X131625450Y-94975210D01*
X133278100Y-94975210D01*
X133278100Y-94274170D01*
X134024100Y-94274170D01*
X134024100Y-94975210D01*
X135676750Y-94975210D01*
X135835500Y-94816460D01*
X135835500Y-94624110D01*
X135738827Y-94390721D01*
X135560198Y-94212093D01*
X135326809Y-94115420D01*
X134182850Y-94115420D01*
X134024100Y-94274170D01*
X133278100Y-94274170D01*
X133119350Y-94115420D01*
X131975391Y-94115420D01*
X131742002Y-94212093D01*
X131563373Y-94390721D01*
X131466700Y-94624110D01*
X130913817Y-94624110D01*
X130893863Y-94518068D01*
X130756543Y-94304667D01*
X130547017Y-94161503D01*
X130298300Y-94111137D01*
X129940523Y-94111137D01*
X129899363Y-94049537D01*
X128725376Y-92875550D01*
X129260463Y-92340463D01*
X129613152Y-91812626D01*
X129737000Y-91190000D01*
X129737000Y-91036773D01*
X129761691Y-91047000D01*
X130118250Y-91047000D01*
X130277000Y-90888250D01*
X130277000Y-90023000D01*
X130257000Y-90023000D01*
X130257000Y-89277000D01*
X130277000Y-89277000D01*
X130277000Y-88411750D01*
X130118250Y-88253000D01*
X129761691Y-88253000D01*
X129528302Y-88349673D01*
X129349673Y-88528301D01*
X129322889Y-88592964D01*
X129260463Y-88499537D01*
X128732626Y-88146848D01*
X128110000Y-88023000D01*
X127487374Y-88146848D01*
X126959537Y-88499537D01*
X126606848Y-89027374D01*
X126483000Y-89650000D01*
X126483000Y-90516074D01*
X126026074Y-90973000D01*
X124956961Y-90973000D01*
X125011698Y-90950327D01*
X125190327Y-90771699D01*
X125287000Y-90538310D01*
X125287000Y-90181750D01*
X125128250Y-90023000D01*
X124263000Y-90023000D01*
X124263000Y-90043000D01*
X123517000Y-90043000D01*
X123517000Y-90023000D01*
X123497000Y-90023000D01*
X123497000Y-89277000D01*
X123517000Y-89277000D01*
X123517000Y-88411750D01*
X124263000Y-88411750D01*
X124263000Y-89277000D01*
X125128250Y-89277000D01*
X125287000Y-89118250D01*
X125287000Y-88761690D01*
X125190327Y-88528301D01*
X125011698Y-88349673D01*
X124778309Y-88253000D01*
X124421750Y-88253000D01*
X124263000Y-88411750D01*
X123517000Y-88411750D01*
X123358250Y-88253000D01*
X123001691Y-88253000D01*
X122768302Y-88349673D01*
X122589673Y-88528301D01*
X122493000Y-88761690D01*
X122493000Y-88828938D01*
X122137833Y-88473150D01*
X121627501Y-88261242D01*
X121074923Y-88260760D01*
X120564223Y-88471777D01*
X120187000Y-88848341D01*
X120187000Y-87170184D01*
X120197135Y-87155016D01*
X120310600Y-86584588D01*
X120310600Y-86215412D01*
X120197135Y-85644984D01*
X120197000Y-85644782D01*
X120197000Y-83519270D01*
X122672458Y-83519270D01*
X123147512Y-84668989D01*
X124026384Y-85549396D01*
X125175272Y-86026456D01*
X126419270Y-86027542D01*
X127568989Y-85552488D01*
X128449396Y-84673616D01*
X128926456Y-83524728D01*
X128927542Y-82280730D01*
X128452488Y-81131011D01*
X127573616Y-80250604D01*
X126424728Y-79773544D01*
X125180730Y-79772458D01*
X124031011Y-80247512D01*
X123150604Y-81126384D01*
X122673544Y-82275272D01*
X122672458Y-83519270D01*
X120197000Y-83519270D01*
X120197000Y-82193249D01*
X120344546Y-81972431D01*
X120468355Y-81350000D01*
X120344546Y-80727569D01*
X119991967Y-80199898D01*
X119464296Y-79847319D01*
X118841865Y-79723510D01*
X118778135Y-79723510D01*
X118155704Y-79847319D01*
X117628033Y-80199898D01*
X117540000Y-80331649D01*
X117451967Y-80199898D01*
X116924296Y-79847319D01*
X116301865Y-79723510D01*
X116238135Y-79723510D01*
X115615704Y-79847319D01*
X115088033Y-80199898D01*
X115000000Y-80331649D01*
X114911967Y-80199898D01*
X114384296Y-79847319D01*
X113761865Y-79723510D01*
X113698135Y-79723510D01*
X113075704Y-79847319D01*
X112750569Y-80064568D01*
X112647733Y-79904757D01*
X112438207Y-79761593D01*
X112189490Y-79711227D01*
X110190510Y-79711227D01*
X109958158Y-79754947D01*
X109744757Y-79892267D01*
X109601593Y-80101793D01*
X109551227Y-80350510D01*
X109551227Y-82349490D01*
X109594947Y-82581842D01*
X109732267Y-82795243D01*
X109813000Y-82850406D01*
X109813000Y-85039396D01*
X109747483Y-85135283D01*
X109697117Y-85384000D01*
X109697117Y-87416000D01*
X109740837Y-87648352D01*
X109823000Y-87776037D01*
X109823000Y-88400975D01*
X109771698Y-88349673D01*
X109538309Y-88253000D01*
X109181750Y-88253000D01*
X109023000Y-88411750D01*
X109023000Y-89277000D01*
X109043000Y-89277000D01*
X109043000Y-90023000D01*
X109023000Y-90023000D01*
X109023000Y-90043000D01*
X108277000Y-90043000D01*
X108277000Y-90023000D01*
X108257000Y-90023000D01*
X108257000Y-89277000D01*
X108277000Y-89277000D01*
X108277000Y-88411750D01*
X108118250Y-88253000D01*
X107761691Y-88253000D01*
X107528302Y-88349673D01*
X107349673Y-88528301D01*
X107322889Y-88592964D01*
X107260463Y-88499537D01*
X106732626Y-88146848D01*
X106110000Y-88023000D01*
X105487374Y-88146848D01*
X104959537Y-88499537D01*
X103032000Y-90427074D01*
X103032000Y-78632000D01*
X147768000Y-78632000D01*
X147768000Y-93174181D01*
G36*
X134412222Y-99805243D02*
X134168255Y-99968256D01*
X133175524Y-100960987D01*
X132914923Y-100960760D01*
X132404223Y-101171777D01*
X132013150Y-101562167D01*
X131920033Y-101786419D01*
X131828223Y-101564223D01*
X131613932Y-101349557D01*
X133211489Y-99752000D01*
X134679891Y-99752000D01*
X134412222Y-99805243D01*
X134412222Y-99805243D01*
G37*
X134412222Y-99805243D02*
X134168255Y-99968256D01*
X133175524Y-100960987D01*
X132914923Y-100960760D01*
X132404223Y-101171777D01*
X132013150Y-101562167D01*
X131920033Y-101786419D01*
X131828223Y-101564223D01*
X131613932Y-101349557D01*
X133211489Y-99752000D01*
X134679891Y-99752000D01*
X134412222Y-99805243D01*
M02*
