G04 #@! TF.FileFunction,Soldermask,Top*
%FSLAX46Y46*%
G04 Gerber Fmt 4.6, Leading zero omitted, Abs format (unit mm)*
G04 Created by KiCad (PCBNEW 4.0.2-stable) date 16.05.2016 20:43:21*
%MOMM*%
G01*
G04 APERTURE LIST*
%ADD10C,0.100000*%
%ADD11C,0.502000*%
%ADD12C,2.800000*%
%ADD13R,2.800000X2.800000*%
%ADD14R,3.498800X1.299160*%
%ADD15R,2.127200X2.432000*%
%ADD16O,2.127200X2.432000*%
%ADD17R,1.900000X1.700000*%
%ADD18R,1.924000X1.924000*%
%ADD19C,1.924000*%
%ADD20R,3.850000X1.420000*%
G04 APERTURE END LIST*
D10*
D11*
X126425000Y-90625000D03*
X122625000Y-90625000D03*
X117150000Y-96100000D03*
X117150000Y-98650000D03*
X127440000Y-105860000D03*
X126740000Y-110560000D03*
X125360000Y-110560000D03*
X123980000Y-110560000D03*
X122600000Y-110560000D03*
X121220000Y-110560000D03*
X119840000Y-110560000D03*
X118460000Y-110560000D03*
X129500000Y-89860000D03*
X129500000Y-88480000D03*
X129500000Y-87100000D03*
X129500000Y-85720000D03*
X129500000Y-82960000D03*
X129500000Y-81580000D03*
X115700000Y-89860000D03*
X115700000Y-88480000D03*
X115700000Y-87100000D03*
X115700000Y-81580000D03*
X129500000Y-80200000D03*
X128120000Y-80200000D03*
X126740000Y-80200000D03*
X125360000Y-80200000D03*
X123980000Y-80200000D03*
X122600000Y-80200000D03*
X121220000Y-80200000D03*
X119840000Y-80200000D03*
X118460000Y-80200000D03*
X117080000Y-80200000D03*
D12*
X120850000Y-84100000D03*
D13*
X117350000Y-84100000D03*
D12*
X124350000Y-84100000D03*
X127850000Y-84100000D03*
D14*
X125651100Y-94800000D03*
X120748900Y-94800000D03*
D15*
X126400000Y-89000000D03*
D16*
X123860000Y-89000000D03*
X121320000Y-89000000D03*
X118780000Y-89000000D03*
D17*
X121250000Y-99500000D03*
X123950000Y-99500000D03*
D18*
X128950000Y-110090000D03*
D19*
X128950000Y-107550000D03*
X128950000Y-105010000D03*
X128950000Y-102470000D03*
X128950000Y-99930000D03*
X128950000Y-97390000D03*
D18*
X128950000Y-94850000D03*
D19*
X128950000Y-92310000D03*
X116250000Y-92310000D03*
X116250000Y-94850000D03*
X116250000Y-97390000D03*
X116250000Y-99930000D03*
X116250000Y-102470000D03*
X116250000Y-105010000D03*
X116250000Y-107550000D03*
X116250000Y-110090000D03*
D20*
X125825000Y-107140000D03*
X120375000Y-107140000D03*
X120375000Y-102060000D03*
X125825000Y-102060000D03*
X120375000Y-104600000D03*
X125825000Y-104600000D03*
D11*
X115700000Y-80200000D03*
M02*
