G04 #@! TF.FileFunction,Legend,Top*
%FSLAX46Y46*%
G04 Gerber Fmt 4.6, Leading zero omitted, Abs format (unit mm)*
G04 Created by KiCad (PCBNEW 4.0.2-stable) date 22.05.2016 21:35:43*
%MOMM*%
G01*
G04 APERTURE LIST*
%ADD10C,0.100000*%
%ADD11C,0.381000*%
%ADD12C,0.150000*%
%ADD13C,0.127000*%
%ADD14C,0.175000*%
%ADD15C,0.300000*%
%ADD16C,0.119380*%
G04 APERTURE END LIST*
D10*
X169650000Y-61450000D02*
X169550000Y-61350000D01*
X169650000Y-61950000D02*
X169050000Y-61350000D01*
X169050000Y-61850000D02*
X169650000Y-62450000D01*
X169050000Y-62350000D02*
X169650000Y-62950000D01*
X169050000Y-62850000D02*
X169650000Y-63450000D01*
X169050000Y-63350000D02*
X169650000Y-63950000D01*
X169050000Y-63850000D02*
X169650000Y-64450000D01*
X169050000Y-64350000D02*
X169650000Y-64950000D01*
X169050000Y-64850000D02*
X169650000Y-65450000D01*
X173050000Y-61850000D02*
X172550000Y-61350000D01*
X172450000Y-61750000D02*
X173050000Y-62350000D01*
X172450000Y-62250000D02*
X173050000Y-62850000D01*
X172450000Y-62750000D02*
X173050000Y-63350000D01*
X172450000Y-63250000D02*
X173050000Y-63850000D01*
X172450000Y-63750000D02*
X173050000Y-64350000D01*
X172450000Y-64250000D02*
X173050000Y-64850000D01*
X172450000Y-64750000D02*
X173050000Y-65350000D01*
X173050000Y-65850000D02*
X172450000Y-65250000D01*
X173050000Y-66350000D02*
X172450000Y-65750000D01*
X173050000Y-66850000D02*
X172150000Y-65950000D01*
X173050000Y-67350000D02*
X171650000Y-65950000D01*
X171150000Y-65950000D02*
X173050000Y-67850000D01*
X172350000Y-67650000D02*
X170650000Y-65950000D01*
X171850000Y-67650000D02*
X170150000Y-65950000D01*
X169050000Y-65350000D02*
X169650000Y-65950000D01*
X169650000Y-65950000D02*
X171350000Y-67650000D01*
X172450000Y-67750000D02*
X173050000Y-68350000D01*
X172450000Y-68250000D02*
X173050000Y-68850000D01*
X172450000Y-68750000D02*
X173050000Y-69350000D01*
X172450000Y-69250000D02*
X173050000Y-69850000D01*
X172450000Y-69750000D02*
X173050000Y-70350000D01*
X172450000Y-70250000D02*
X173050000Y-70850000D01*
X172450000Y-70750000D02*
X173050000Y-71350000D01*
X172450000Y-71250000D02*
X173050000Y-71850000D01*
X169050000Y-65850000D02*
X170850000Y-67650000D01*
X169050000Y-66350000D02*
X170350000Y-67650000D01*
X169050000Y-66850000D02*
X169850000Y-67650000D01*
X169050000Y-67350000D02*
X169650000Y-67950000D01*
X169050000Y-67850000D02*
X169650000Y-68450000D01*
X169050000Y-68350000D02*
X169650000Y-68950000D01*
X173050000Y-72350000D02*
X172450000Y-71750000D01*
X169050000Y-68850000D02*
X169650000Y-69450000D01*
X169050000Y-69350000D02*
X169650000Y-69950000D01*
X169050000Y-69850000D02*
X169650000Y-70450000D01*
X169050000Y-70350000D02*
X169650000Y-70950000D01*
X169050000Y-70850000D02*
X169650000Y-71450000D01*
X169050000Y-71350000D02*
X169650000Y-71950000D01*
X169050000Y-71850000D02*
X169550000Y-72350000D01*
X169650000Y-61350000D02*
X169450000Y-61350000D01*
X172650000Y-61350000D02*
X172450000Y-61350000D01*
X172650000Y-72350000D02*
X172450000Y-72350000D01*
X169450000Y-72350000D02*
X169650000Y-72350000D01*
X172650000Y-72350000D02*
X173050000Y-72350000D01*
X173050000Y-72350000D02*
X173050000Y-61350000D01*
X173050000Y-61350000D02*
X172650000Y-61350000D01*
X169450000Y-72350000D02*
X169050000Y-72350000D01*
X169050000Y-72350000D02*
X169050000Y-61350000D01*
X169050000Y-61350000D02*
X169450000Y-61350000D01*
X169650000Y-65950000D02*
X169650000Y-59450000D01*
X169650000Y-59450000D02*
X172450000Y-59450000D01*
X172450000Y-59450000D02*
X172450000Y-65950000D01*
X172450000Y-65950000D02*
X169650000Y-65950000D01*
X169650000Y-74150000D02*
X169650000Y-67650000D01*
X169650000Y-67650000D02*
X172450000Y-67650000D01*
X172450000Y-67650000D02*
X172450000Y-74150000D01*
X172450000Y-74150000D02*
X169650000Y-74150000D01*
D11*
X184000000Y-58300000D02*
X184000000Y-57800000D01*
X183500000Y-62300000D02*
G75*
G03X183500000Y-62300000I-2000000J0D01*
G01*
X188500000Y-62300000D02*
G75*
G03X188500000Y-62300000I-2000000J0D01*
G01*
X189000000Y-59800000D02*
X179000000Y-59800000D01*
X189000000Y-64700000D02*
X179000000Y-64700000D01*
X189000000Y-58300000D02*
X179000000Y-58300000D01*
X189000000Y-57800000D02*
X179000000Y-57800000D01*
X179000000Y-57800000D02*
X179000000Y-67600000D01*
X179000000Y-67600000D02*
X189000000Y-67600000D01*
X189000000Y-67600000D02*
X189000000Y-57800000D01*
X168700000Y-79850000D02*
X168200000Y-79850000D01*
X174700000Y-82350000D02*
G75*
G03X174700000Y-82350000I-2000000J0D01*
G01*
X174700000Y-77350000D02*
G75*
G03X174700000Y-77350000I-2000000J0D01*
G01*
X170200000Y-74850000D02*
X170200000Y-84850000D01*
X175100000Y-74850000D02*
X175100000Y-84850000D01*
X168700000Y-74850000D02*
X168700000Y-84850000D01*
X168200000Y-74850000D02*
X168200000Y-84850000D01*
X168200000Y-84850000D02*
X178000000Y-84850000D01*
X178000000Y-84850000D02*
X178000000Y-74850000D01*
X178000000Y-74850000D02*
X168200000Y-74850000D01*
D12*
X193050000Y-71200000D02*
X194050000Y-71200000D01*
X194050000Y-69500000D02*
X193050000Y-69500000D01*
X191800000Y-88150000D02*
X194500000Y-88150000D01*
X191800000Y-86650000D02*
X194500000Y-86650000D01*
X193300000Y-87550000D02*
X193300000Y-87300000D01*
X193300000Y-87300000D02*
X193150000Y-87450000D01*
X193050000Y-87050000D02*
X193050000Y-87750000D01*
X193400000Y-87400000D02*
X193750000Y-87400000D01*
X193050000Y-87400000D02*
X193400000Y-87050000D01*
X193400000Y-87050000D02*
X193400000Y-87750000D01*
X193400000Y-87750000D02*
X193050000Y-87400000D01*
D13*
X176300000Y-60438000D02*
X176300000Y-60234800D01*
X178205000Y-58914000D02*
X178205000Y-63486000D01*
X178205000Y-63486000D02*
X177570000Y-63486000D01*
X174395000Y-61860400D02*
X178205000Y-61860400D01*
X174395000Y-62190600D02*
X178205000Y-62190600D01*
X175030000Y-58914000D02*
X174395000Y-58914000D01*
X174395000Y-58914000D02*
X174395000Y-63486000D01*
X174395000Y-63486000D02*
X175030000Y-63486000D01*
X177570000Y-58914000D02*
X178205000Y-58914000D01*
X176300000Y-61073000D02*
X176774980Y-60438000D01*
X176774980Y-60438000D02*
X176300000Y-60438000D01*
X176300000Y-60438000D02*
X175825020Y-60438000D01*
X175825020Y-60438000D02*
X176300000Y-61073000D01*
X176300000Y-61073000D02*
X176617500Y-61073000D01*
X176617500Y-61073000D02*
X176774980Y-60915520D01*
X176300000Y-61073000D02*
X175982500Y-61073000D01*
X175982500Y-61073000D02*
X175825020Y-61230480D01*
X176300000Y-61073000D02*
X176300000Y-62182980D01*
X177050000Y-71362000D02*
X177050000Y-71565200D01*
X175145000Y-72886000D02*
X175145000Y-68314000D01*
X175145000Y-68314000D02*
X175780000Y-68314000D01*
X178955000Y-69939600D02*
X175145000Y-69939600D01*
X178955000Y-69609400D02*
X175145000Y-69609400D01*
X178320000Y-72886000D02*
X178955000Y-72886000D01*
X178955000Y-72886000D02*
X178955000Y-68314000D01*
X178955000Y-68314000D02*
X178320000Y-68314000D01*
X175780000Y-72886000D02*
X175145000Y-72886000D01*
X177050000Y-70727000D02*
X176575020Y-71362000D01*
X176575020Y-71362000D02*
X177050000Y-71362000D01*
X177050000Y-71362000D02*
X177524980Y-71362000D01*
X177524980Y-71362000D02*
X177050000Y-70727000D01*
X177050000Y-70727000D02*
X176732500Y-70727000D01*
X176732500Y-70727000D02*
X176575020Y-70884480D01*
X177050000Y-70727000D02*
X177367500Y-70727000D01*
X177367500Y-70727000D02*
X177524980Y-70569520D01*
X177050000Y-70727000D02*
X177050000Y-69617020D01*
D11*
X193300000Y-58700000D02*
X193300000Y-58300000D01*
X196800000Y-59800000D02*
X189800000Y-59800000D01*
X196800000Y-58700000D02*
X189800000Y-58700000D01*
X196800000Y-65900000D02*
X196800000Y-58300000D01*
X189800000Y-58300000D02*
X189800000Y-65900000D01*
X189800000Y-65900000D02*
X196800000Y-65900000D01*
D12*
X193570000Y-66330000D02*
X196110000Y-66330000D01*
X190750000Y-66050000D02*
X192300000Y-66050000D01*
X193570000Y-66330000D02*
X193570000Y-68870000D01*
X192300000Y-69150000D02*
X190750000Y-69150000D01*
X190750000Y-69150000D02*
X190750000Y-66050000D01*
X193570000Y-68870000D02*
X196110000Y-68870000D01*
X196110000Y-68870000D02*
X196110000Y-66330000D01*
X177100840Y-89450240D02*
X177149100Y-89450240D01*
X179899820Y-88749200D02*
X179899820Y-89450240D01*
X179899820Y-89450240D02*
X179650900Y-89450240D01*
X177100840Y-89450240D02*
X176900180Y-89450240D01*
X176900180Y-89450240D02*
X176900180Y-88749200D01*
D10*
X195450000Y-74000000D02*
X195350000Y-74100000D01*
X196450000Y-74000000D02*
X195350000Y-75100000D01*
X179550000Y-74900000D02*
X180450000Y-74000000D01*
X180750000Y-74700000D02*
X179550000Y-75900000D01*
X179550000Y-76900000D02*
X180750000Y-75700000D01*
X180750000Y-76700000D02*
X179550000Y-77900000D01*
X179550000Y-78900000D02*
X180750000Y-77700000D01*
X179550000Y-79900000D02*
X180750000Y-78700000D01*
X180550000Y-79900000D02*
X180750000Y-79700000D01*
X180550000Y-79900000D02*
X179550000Y-80900000D01*
X181450000Y-80000000D02*
X181550000Y-79900000D01*
X181450000Y-80000000D02*
X179550000Y-81900000D01*
X182450000Y-80000000D02*
X179550000Y-82900000D01*
X183450000Y-80000000D02*
X179550000Y-83900000D01*
X184450000Y-80000000D02*
X179550000Y-84900000D01*
X179550000Y-85900000D02*
X185450000Y-80000000D01*
X180450000Y-86000000D02*
X186450000Y-80000000D01*
X181450000Y-86000000D02*
X186250000Y-81200000D01*
X182450000Y-86000000D02*
X186150000Y-82300000D01*
X186550000Y-82900000D02*
X183450000Y-86000000D01*
X189450000Y-80000000D02*
X189350000Y-80100000D01*
X189750000Y-80700000D02*
X190450000Y-80000000D01*
X184450000Y-86000000D02*
X187050000Y-83400000D01*
X187950000Y-83500000D02*
X185450000Y-86000000D01*
X191450000Y-80000000D02*
X189950000Y-81500000D01*
X196550000Y-74900000D02*
X195350000Y-76100000D01*
X195350000Y-77100000D02*
X196550000Y-75900000D01*
X187450000Y-86000000D02*
X186450000Y-86000000D01*
X186450000Y-86000000D02*
X192450000Y-80000000D01*
X187450000Y-86000000D02*
X186450000Y-86000000D01*
X189550000Y-85900000D02*
X189450000Y-86000000D01*
X189450000Y-86000000D02*
X188450000Y-86000000D01*
X188450000Y-86000000D02*
X188550000Y-85900000D01*
X193550000Y-79900000D02*
X187450000Y-86000000D01*
X195350000Y-79100000D02*
X196550000Y-77900000D01*
X196550000Y-77900000D02*
X196550000Y-76900000D01*
X196550000Y-76900000D02*
X195350000Y-78100000D01*
X193550000Y-86000000D02*
X192550000Y-86000000D01*
X192550000Y-86000000D02*
X196550000Y-82000000D01*
X196550000Y-82000000D02*
X196550000Y-81000000D01*
X196550000Y-81000000D02*
X191550000Y-86000000D01*
X191550000Y-86000000D02*
X190550000Y-86000000D01*
X190550000Y-86000000D02*
X196550000Y-80000000D01*
X196550000Y-80000000D02*
X196550000Y-79000000D01*
X196550000Y-79000000D02*
X189550000Y-85900000D01*
X188550000Y-85900000D02*
X194550000Y-79900000D01*
X196550000Y-86000000D02*
X196550000Y-85000000D01*
X196550000Y-85000000D02*
X195550000Y-86000000D01*
X195550000Y-86000000D02*
X194550000Y-86000000D01*
X194550000Y-86000000D02*
X196550000Y-84000000D01*
X196550000Y-84000000D02*
X196550000Y-83000000D01*
X196550000Y-83000000D02*
X193550000Y-86000000D01*
X196550000Y-81900000D02*
X196550000Y-80900000D01*
X182650000Y-79600000D02*
X181050000Y-79600000D01*
X181050000Y-79600000D02*
X181050000Y-74000000D01*
X181050000Y-74000000D02*
X179550000Y-74000000D01*
X179550000Y-74000000D02*
X179550000Y-86000000D01*
X179550000Y-86000000D02*
X188050000Y-86000000D01*
X188050000Y-86000000D02*
X196550000Y-86000000D01*
X196550000Y-86000000D02*
X196550000Y-76600000D01*
X196550000Y-76600000D02*
X196550000Y-74000000D01*
X196550000Y-74000000D02*
X195050000Y-74000000D01*
X195050000Y-74000000D02*
X195050000Y-79600000D01*
X195050000Y-79600000D02*
X193350000Y-79600000D01*
D12*
X182716000Y-78505000D02*
X184621000Y-78505000D01*
X187161000Y-78505000D02*
X186399000Y-78505000D01*
X189574000Y-78505000D02*
X189701000Y-78505000D01*
X189574000Y-78505000D02*
X188939000Y-78505000D01*
X193384000Y-78505000D02*
X191606000Y-78505000D01*
X193384000Y-74822000D02*
X191733000Y-74822000D01*
X189066000Y-74695000D02*
X189701000Y-74695000D01*
X186526000Y-74695000D02*
X187161000Y-74695000D01*
X182716000Y-74822000D02*
X184367000Y-74822000D01*
X189574000Y-79648000D02*
X189574000Y-78505000D01*
X186526000Y-79648000D02*
X186526000Y-78505000D01*
X182716000Y-78505000D02*
X182716000Y-74822000D01*
X193384000Y-74822000D02*
X193384000Y-78505000D01*
X182716000Y-79648000D02*
X182716000Y-78505000D01*
X193384000Y-78505000D02*
X193384000Y-79648000D01*
X188050000Y-79648000D02*
X193384000Y-79648000D01*
X188050000Y-79648000D02*
X182716000Y-79648000D01*
X192850000Y-71725000D02*
X194050000Y-71725000D01*
X194050000Y-73475000D02*
X192850000Y-73475000D01*
X175475000Y-88000000D02*
X175475000Y-89200000D01*
X173725000Y-89200000D02*
X173725000Y-88000000D01*
X184800000Y-91075000D02*
X183600000Y-91075000D01*
X183600000Y-89325000D02*
X184800000Y-89325000D01*
X184800000Y-88275000D02*
X183600000Y-88275000D01*
X183600000Y-86525000D02*
X184800000Y-86525000D01*
X192800000Y-89125000D02*
X194000000Y-89125000D01*
X194000000Y-90875000D02*
X192800000Y-90875000D01*
D14*
X170816667Y-58739286D02*
X170533334Y-58739286D01*
X170533334Y-59184524D02*
X170533334Y-58334524D01*
X170938096Y-58334524D01*
X171707143Y-59184524D02*
X171221429Y-59184524D01*
X171464286Y-59184524D02*
X171464286Y-58334524D01*
X171383334Y-58455952D01*
X171302381Y-58536905D01*
X171221429Y-58577381D01*
X183642619Y-66864524D02*
X183642619Y-66014524D01*
X183966428Y-66014524D01*
X184047381Y-66055000D01*
X184087857Y-66095476D01*
X184128333Y-66176429D01*
X184128333Y-66297857D01*
X184087857Y-66378810D01*
X184047381Y-66419286D01*
X183966428Y-66459762D01*
X183642619Y-66459762D01*
X184897381Y-66014524D02*
X184492619Y-66014524D01*
X184452143Y-66419286D01*
X184492619Y-66378810D01*
X184573571Y-66338333D01*
X184775952Y-66338333D01*
X184856905Y-66378810D01*
X184897381Y-66419286D01*
X184937857Y-66500238D01*
X184937857Y-66702619D01*
X184897381Y-66783571D01*
X184856905Y-66824048D01*
X184775952Y-66864524D01*
X184573571Y-66864524D01*
X184492619Y-66824048D01*
X184452143Y-66783571D01*
D15*
D14*
X179234524Y-80577381D02*
X178384524Y-80577381D01*
X178384524Y-80253572D01*
X178425000Y-80172619D01*
X178465476Y-80132143D01*
X178546429Y-80091667D01*
X178667857Y-80091667D01*
X178748810Y-80132143D01*
X178789286Y-80172619D01*
X178829762Y-80253572D01*
X178829762Y-80577381D01*
X179234524Y-79282143D02*
X179234524Y-79767857D01*
X179234524Y-79525000D02*
X178384524Y-79525000D01*
X178505952Y-79605952D01*
X178586905Y-79686905D01*
X178627381Y-79767857D01*
D15*
D12*
D14*
X190843571Y-70471667D02*
X190884048Y-70512143D01*
X190924524Y-70633572D01*
X190924524Y-70714524D01*
X190884048Y-70835952D01*
X190803095Y-70916905D01*
X190722143Y-70957381D01*
X190560238Y-70997857D01*
X190438810Y-70997857D01*
X190276905Y-70957381D01*
X190195952Y-70916905D01*
X190115000Y-70835952D01*
X190074524Y-70714524D01*
X190074524Y-70633572D01*
X190115000Y-70512143D01*
X190155476Y-70471667D01*
X190924524Y-69662143D02*
X190924524Y-70147857D01*
X190924524Y-69905000D02*
X190074524Y-69905000D01*
X190195952Y-69985952D01*
X190276905Y-70066905D01*
X190317381Y-70147857D01*
X190834524Y-87977381D02*
X189984524Y-87977381D01*
X189984524Y-87775000D01*
X190025000Y-87653572D01*
X190105952Y-87572619D01*
X190186905Y-87532143D01*
X190348810Y-87491667D01*
X190470238Y-87491667D01*
X190632143Y-87532143D01*
X190713095Y-87572619D01*
X190794048Y-87653572D01*
X190834524Y-87775000D01*
X190834524Y-87977381D01*
X190834524Y-86682143D02*
X190834524Y-87167857D01*
X190834524Y-86925000D02*
X189984524Y-86925000D01*
X190105952Y-87005952D01*
X190186905Y-87086905D01*
X190227381Y-87167857D01*
X174584524Y-65327381D02*
X173734524Y-65327381D01*
X173734524Y-65125000D01*
X173775000Y-65003572D01*
X173855952Y-64922619D01*
X173936905Y-64882143D01*
X174098810Y-64841667D01*
X174220238Y-64841667D01*
X174382143Y-64882143D01*
X174463095Y-64922619D01*
X174544048Y-65003572D01*
X174584524Y-65125000D01*
X174584524Y-65327381D01*
X173815476Y-64517857D02*
X173775000Y-64477381D01*
X173734524Y-64396429D01*
X173734524Y-64194048D01*
X173775000Y-64113095D01*
X173815476Y-64072619D01*
X173896429Y-64032143D01*
X173977381Y-64032143D01*
X174098810Y-64072619D01*
X174584524Y-64558333D01*
X174584524Y-64032143D01*
D16*
D14*
X174584524Y-71227381D02*
X173734524Y-71227381D01*
X173734524Y-71025000D01*
X173775000Y-70903572D01*
X173855952Y-70822619D01*
X173936905Y-70782143D01*
X174098810Y-70741667D01*
X174220238Y-70741667D01*
X174382143Y-70782143D01*
X174463095Y-70822619D01*
X174544048Y-70903572D01*
X174584524Y-71025000D01*
X174584524Y-71227381D01*
X173734524Y-70458333D02*
X173734524Y-69932143D01*
X174058333Y-70215476D01*
X174058333Y-70094048D01*
X174098810Y-70013095D01*
X174139286Y-69972619D01*
X174220238Y-69932143D01*
X174422619Y-69932143D01*
X174503571Y-69972619D01*
X174544048Y-70013095D01*
X174584524Y-70094048D01*
X174584524Y-70336905D01*
X174544048Y-70417857D01*
X174503571Y-70458333D01*
D16*
D14*
X193372619Y-61124524D02*
X193372619Y-60274524D01*
X193696428Y-60274524D01*
X193777381Y-60315000D01*
X193817857Y-60355476D01*
X193858333Y-60436429D01*
X193858333Y-60557857D01*
X193817857Y-60638810D01*
X193777381Y-60679286D01*
X193696428Y-60719762D01*
X193372619Y-60719762D01*
X194141667Y-60274524D02*
X194667857Y-60274524D01*
X194384524Y-60598333D01*
X194505952Y-60598333D01*
X194586905Y-60638810D01*
X194627381Y-60679286D01*
X194667857Y-60760238D01*
X194667857Y-60962619D01*
X194627381Y-61043571D01*
X194586905Y-61084048D01*
X194505952Y-61124524D01*
X194263095Y-61124524D01*
X194182143Y-61084048D01*
X194141667Y-61043571D01*
D15*
D14*
X190334524Y-68477381D02*
X189484524Y-68477381D01*
X189484524Y-68153572D01*
X189525000Y-68072619D01*
X189565476Y-68032143D01*
X189646429Y-67991667D01*
X189767857Y-67991667D01*
X189848810Y-68032143D01*
X189889286Y-68072619D01*
X189929762Y-68153572D01*
X189929762Y-68477381D01*
X189767857Y-67263095D02*
X190334524Y-67263095D01*
X189444048Y-67465476D02*
X190051190Y-67667857D01*
X190051190Y-67141667D01*
X178319048Y-92165476D02*
X178238095Y-92125000D01*
X178157143Y-92044048D01*
X178035714Y-91922619D01*
X177954762Y-91882143D01*
X177873810Y-91882143D01*
X177914286Y-92084524D02*
X177833333Y-92044048D01*
X177752381Y-91963095D01*
X177711905Y-91801190D01*
X177711905Y-91517857D01*
X177752381Y-91355952D01*
X177833333Y-91275000D01*
X177914286Y-91234524D01*
X178076190Y-91234524D01*
X178157143Y-91275000D01*
X178238095Y-91355952D01*
X178278571Y-91517857D01*
X178278571Y-91801190D01*
X178238095Y-91963095D01*
X178157143Y-92044048D01*
X178076190Y-92084524D01*
X177914286Y-92084524D01*
X179088095Y-92084524D02*
X178602381Y-92084524D01*
X178845238Y-92084524D02*
X178845238Y-91234524D01*
X178764286Y-91355952D01*
X178683333Y-91436905D01*
X178602381Y-91477381D01*
D12*
X187954762Y-82227619D02*
X187859524Y-82180000D01*
X187764286Y-82084762D01*
X187621429Y-81941905D01*
X187526190Y-81894286D01*
X187430952Y-81894286D01*
X187478571Y-82132381D02*
X187383333Y-82084762D01*
X187288095Y-81989524D01*
X187240476Y-81799048D01*
X187240476Y-81465714D01*
X187288095Y-81275238D01*
X187383333Y-81180000D01*
X187478571Y-81132381D01*
X187669048Y-81132381D01*
X187764286Y-81180000D01*
X187859524Y-81275238D01*
X187907143Y-81465714D01*
X187907143Y-81799048D01*
X187859524Y-81989524D01*
X187764286Y-82084762D01*
X187669048Y-82132381D01*
X187478571Y-82132381D01*
X188288095Y-81227619D02*
X188335714Y-81180000D01*
X188430952Y-81132381D01*
X188669048Y-81132381D01*
X188764286Y-81180000D01*
X188811905Y-81227619D01*
X188859524Y-81322857D01*
X188859524Y-81418095D01*
X188811905Y-81560952D01*
X188240476Y-82132381D01*
X188859524Y-82132381D01*
D14*
X190784524Y-72641667D02*
X190379762Y-72925000D01*
X190784524Y-73127381D02*
X189934524Y-73127381D01*
X189934524Y-72803572D01*
X189975000Y-72722619D01*
X190015476Y-72682143D01*
X190096429Y-72641667D01*
X190217857Y-72641667D01*
X190298810Y-72682143D01*
X190339286Y-72722619D01*
X190379762Y-72803572D01*
X190379762Y-73127381D01*
X190784524Y-71832143D02*
X190784524Y-72317857D01*
X190784524Y-72075000D02*
X189934524Y-72075000D01*
X190055952Y-72155952D01*
X190136905Y-72236905D01*
X190177381Y-72317857D01*
X174458333Y-92084524D02*
X174175000Y-91679762D01*
X173972619Y-92084524D02*
X173972619Y-91234524D01*
X174296428Y-91234524D01*
X174377381Y-91275000D01*
X174417857Y-91315476D01*
X174458333Y-91396429D01*
X174458333Y-91517857D01*
X174417857Y-91598810D01*
X174377381Y-91639286D01*
X174296428Y-91679762D01*
X173972619Y-91679762D01*
X174782143Y-91315476D02*
X174822619Y-91275000D01*
X174903571Y-91234524D01*
X175105952Y-91234524D01*
X175186905Y-91275000D01*
X175227381Y-91315476D01*
X175267857Y-91396429D01*
X175267857Y-91477381D01*
X175227381Y-91598810D01*
X174741667Y-92084524D01*
X175267857Y-92084524D01*
X182708333Y-92234524D02*
X182425000Y-91829762D01*
X182222619Y-92234524D02*
X182222619Y-91384524D01*
X182546428Y-91384524D01*
X182627381Y-91425000D01*
X182667857Y-91465476D01*
X182708333Y-91546429D01*
X182708333Y-91667857D01*
X182667857Y-91748810D01*
X182627381Y-91789286D01*
X182546428Y-91829762D01*
X182222619Y-91829762D01*
X182991667Y-91384524D02*
X183517857Y-91384524D01*
X183234524Y-91708333D01*
X183355952Y-91708333D01*
X183436905Y-91748810D01*
X183477381Y-91789286D01*
X183517857Y-91870238D01*
X183517857Y-92072619D01*
X183477381Y-92153571D01*
X183436905Y-92194048D01*
X183355952Y-92234524D01*
X183113095Y-92234524D01*
X183032143Y-92194048D01*
X182991667Y-92153571D01*
X187684524Y-87541667D02*
X187279762Y-87825000D01*
X187684524Y-88027381D02*
X186834524Y-88027381D01*
X186834524Y-87703572D01*
X186875000Y-87622619D01*
X186915476Y-87582143D01*
X186996429Y-87541667D01*
X187117857Y-87541667D01*
X187198810Y-87582143D01*
X187239286Y-87622619D01*
X187279762Y-87703572D01*
X187279762Y-88027381D01*
X187117857Y-86813095D02*
X187684524Y-86813095D01*
X186794048Y-87015476D02*
X187401190Y-87217857D01*
X187401190Y-86691667D01*
X190884524Y-90141667D02*
X190479762Y-90425000D01*
X190884524Y-90627381D02*
X190034524Y-90627381D01*
X190034524Y-90303572D01*
X190075000Y-90222619D01*
X190115476Y-90182143D01*
X190196429Y-90141667D01*
X190317857Y-90141667D01*
X190398810Y-90182143D01*
X190439286Y-90222619D01*
X190479762Y-90303572D01*
X190479762Y-90627381D01*
X190034524Y-89372619D02*
X190034524Y-89777381D01*
X190439286Y-89817857D01*
X190398810Y-89777381D01*
X190358333Y-89696429D01*
X190358333Y-89494048D01*
X190398810Y-89413095D01*
X190439286Y-89372619D01*
X190520238Y-89332143D01*
X190722619Y-89332143D01*
X190803571Y-89372619D01*
X190844048Y-89413095D01*
X190884524Y-89494048D01*
X190884524Y-89696429D01*
X190844048Y-89777381D01*
X190803571Y-89817857D01*
D12*
M02*
