M48
;DRILL file {KiCad 4.0.1-stable} date 07.03.2016 23:08:03
;FORMAT={-:-/ absolute / metric / decimal}
FMAT,2
METRIC,TZ
T1C0.400
T2C1.001
T3C1.016
T4C1.097
T5C1.300
T6C1.400
T7C3.500
%
G90
G05
M71
T1
X114.8Y-108.1
X114.8Y-109.6
X114.8Y-111.1
X116.3Y-108.1
X116.3Y-109.6
X116.3Y-111.1
X117.8Y-108.1
X117.8Y-109.6
X117.8Y-111.1
X122.8Y-141.1
X122.8Y-142.6
X122.8Y-144.1
X122.8Y-145.6
X122.8Y-147.1
X122.8Y-148.6
X122.8Y-150.1
X122.8Y-151.6
X124.3Y-141.1
X124.3Y-142.6
X124.3Y-144.1
X124.3Y-145.6
X124.3Y-147.1
X124.3Y-148.6
X124.3Y-150.1
X124.3Y-151.6
X125.8Y-141.1
X125.8Y-142.6
X125.8Y-144.1
X125.8Y-145.6
X125.8Y-147.1
X125.8Y-148.6
X125.8Y-150.1
X125.8Y-151.6
X127.3Y-147.1
X127.3Y-148.6
X127.3Y-150.1
X127.3Y-151.6
X128.8Y-147.1
X128.8Y-148.6
X128.8Y-150.1
X128.8Y-151.6
X130.3Y-147.1
X130.3Y-148.6
X130.3Y-150.1
X130.3Y-151.6
X134.3Y-111.6
X134.3Y-113.1
X134.3Y-114.6
X136.4Y-138.2
X137.3Y-124.6
X137.9Y-120.4
X138.3Y-122.1
X138.4Y-145.
X139.2Y-130.8
X141.2Y-137.6
X141.5Y-143.8
T2
X127.06Y-120.8
X129.6Y-120.8
X132.14Y-120.8
T3
X132.38Y-150.
X132.38Y-152.54
X134.92Y-150.
X134.92Y-152.54
X137.4Y-117.2
X137.46Y-150.
X137.46Y-152.54
X139.94Y-117.2
X140.Y-150.
X140.Y-152.54
T4
X137.13Y-109.4
X139.67Y-109.4
T5
X117.15Y-146.15
X117.15Y-151.15
X126.1Y-110.4
X131.1Y-110.4
T7
X131.Y-134.
T6
X117.55Y-121.55G85X117.55Y-117.65
G05
X117.55Y-131.05G85X117.55Y-127.15
G05
T0
M30
