G04 #@! TF.FileFunction,Copper,L1,Top,Signal*
%FSLAX46Y46*%
G04 Gerber Fmt 4.6, Leading zero omitted, Abs format (unit mm)*
G04 Created by KiCad (PCBNEW 4.0.2-stable) date 22.05.2016 21:35:43*
%MOMM*%
G01*
G04 APERTURE LIST*
%ADD10C,0.100000*%
%ADD11C,2.200000*%
%ADD12C,2.500000*%
%ADD13C,0.500000*%
%ADD14R,1.500000X1.250000*%
%ADD15R,1.198880X1.198880*%
%ADD16R,2.199640X1.600200*%
%ADD17C,2.400000*%
%ADD18R,2.400000X2.400000*%
%ADD19R,2.032000X2.032000*%
%ADD20O,2.032000X2.032000*%
%ADD21R,0.800100X1.400000*%
%ADD22O,1.699260X3.500120*%
%ADD23C,3.200000*%
%ADD24R,1.500000X1.300000*%
%ADD25R,1.300000X1.500000*%
%ADD26C,0.800000*%
%ADD27C,0.500000*%
%ADD28C,0.300000*%
%ADD29C,0.254000*%
G04 APERTURE END LIST*
D10*
D11*
X171050000Y-69100000D03*
X171050000Y-72800000D03*
X171050000Y-64600000D03*
X171050000Y-60900000D03*
D12*
X186500000Y-62400000D03*
X181500000Y-62400000D03*
X172800000Y-77350000D03*
X172800000Y-82350000D03*
D13*
X180682000Y-88850000D03*
X196400000Y-92800000D03*
X195288000Y-92800000D03*
X194176000Y-92800000D03*
X183056000Y-92800000D03*
X181944000Y-92800000D03*
X180832000Y-92800000D03*
X179720000Y-92800000D03*
X178608000Y-92800000D03*
X177496000Y-92800000D03*
X176384000Y-92800000D03*
X175272000Y-92800000D03*
X174160000Y-92800000D03*
X173048000Y-92800000D03*
X171936000Y-92800000D03*
X170824000Y-92800000D03*
X169712000Y-92800000D03*
X196400000Y-91660000D03*
X196400000Y-90520000D03*
X196400000Y-89380000D03*
X196400000Y-88240000D03*
X196400000Y-87100000D03*
X196400000Y-85960000D03*
X196400000Y-84820000D03*
X196400000Y-83680000D03*
X196400000Y-82540000D03*
X196400000Y-81400000D03*
X196400000Y-80260000D03*
X196400000Y-79120000D03*
X196400000Y-77980000D03*
X196400000Y-76840000D03*
X196400000Y-75700000D03*
X196400000Y-74560000D03*
X196400000Y-73420000D03*
X196400000Y-72280000D03*
X196400000Y-71140000D03*
X196400000Y-70000000D03*
X196400000Y-68860000D03*
X196400000Y-66580000D03*
X196400000Y-65440000D03*
X196400000Y-64300000D03*
X196400000Y-60880000D03*
X196400000Y-59740000D03*
X168600000Y-92800000D03*
X168600000Y-91660000D03*
X168600000Y-90520000D03*
X168600000Y-89380000D03*
X168600000Y-88240000D03*
X168600000Y-87100000D03*
X168600000Y-85960000D03*
X168600000Y-84820000D03*
X168600000Y-83680000D03*
X168600000Y-82540000D03*
X168600000Y-81400000D03*
X196400000Y-58600000D03*
X195288000Y-58600000D03*
X194176000Y-58600000D03*
X193064000Y-58600000D03*
X191952000Y-58600000D03*
X190840000Y-58600000D03*
X189728000Y-58600000D03*
D14*
X194800000Y-70350000D03*
X192300000Y-70350000D03*
D15*
X194449020Y-87400000D03*
X192350980Y-87400000D03*
D16*
X176300000Y-59300080D03*
X176300000Y-63099920D03*
X177050000Y-72499920D03*
X177050000Y-68700080D03*
D17*
X195050000Y-62800000D03*
D18*
X191550000Y-62800000D03*
D19*
X192300000Y-67600000D03*
D20*
X194840000Y-67600000D03*
D21*
X179350000Y-87500000D03*
X177450000Y-87500000D03*
X178400000Y-90100000D03*
D22*
X188050000Y-76600000D03*
X190590000Y-76600000D03*
X185510000Y-76600000D03*
D23*
X188050000Y-81600000D03*
D24*
X194800000Y-72600000D03*
X192100000Y-72600000D03*
D25*
X174600000Y-89950000D03*
X174600000Y-87250000D03*
D24*
X182850000Y-90200000D03*
X185550000Y-90200000D03*
X182850000Y-87400000D03*
X185550000Y-87400000D03*
X194750000Y-90000000D03*
X192050000Y-90000000D03*
D13*
X168600000Y-58600000D03*
D26*
X194300000Y-74900000D03*
X184400000Y-92000000D03*
X190800000Y-81925000D03*
X193450000Y-77175000D03*
X183825000Y-84975000D03*
X180850000Y-86625000D03*
X192550000Y-78625000D03*
D27*
X195050000Y-62800000D02*
X195050000Y-67390000D01*
X195050000Y-67390000D02*
X194840000Y-67600000D01*
X194840000Y-67600000D02*
X194840000Y-70310000D01*
X194840000Y-70310000D02*
X194800000Y-70350000D01*
X194900000Y-72600000D02*
X194900000Y-70450000D01*
X194900000Y-70450000D02*
X194800000Y-70350000D01*
X194900000Y-74300000D02*
X194900000Y-72600000D01*
X194300000Y-74900000D02*
X194900000Y-74300000D01*
D28*
X194750000Y-87700980D02*
X194449020Y-87400000D01*
X194750000Y-90000000D02*
X194750000Y-87700980D01*
X192050000Y-90000000D02*
X185750000Y-90000000D01*
X185750000Y-90000000D02*
X185550000Y-90200000D01*
X185550000Y-90200000D02*
X185550000Y-90850000D01*
X185550000Y-90850000D02*
X184400000Y-92000000D01*
X190800000Y-81925000D02*
X190675000Y-81925000D01*
X190675000Y-81925000D02*
X188600000Y-84000000D01*
X192200000Y-72600000D02*
X192200000Y-74950000D01*
X192200000Y-74950000D02*
X193450000Y-76200000D01*
X193450000Y-76200000D02*
X193450000Y-77175000D01*
X184800000Y-84000000D02*
X183825000Y-84975000D01*
X188600000Y-84000000D02*
X184800000Y-84000000D01*
X174600000Y-87250000D02*
X174600000Y-87000000D01*
X174600000Y-87000000D02*
X176625000Y-84975000D01*
X176625000Y-84975000D02*
X183825000Y-84975000D01*
X179350000Y-87500000D02*
X179975000Y-87500000D01*
X179975000Y-87500000D02*
X180850000Y-86625000D01*
X174600000Y-89950000D02*
X176000000Y-89950000D01*
X179350000Y-88575000D02*
X179350000Y-87500000D01*
X179150000Y-88775000D02*
X179350000Y-88575000D01*
X177175000Y-88775000D02*
X179150000Y-88775000D01*
X176000000Y-89950000D02*
X177175000Y-88775000D01*
X182850000Y-90200000D02*
X178500000Y-90200000D01*
X178500000Y-90200000D02*
X178400000Y-90100000D01*
X182850000Y-87400000D02*
X182850000Y-90200000D01*
X190590000Y-76600000D02*
X190590000Y-79515000D01*
X187650000Y-87400000D02*
X185550000Y-87400000D01*
X191875000Y-83175000D02*
X187650000Y-87400000D01*
X191875000Y-80800000D02*
X191875000Y-83175000D01*
X190590000Y-79515000D02*
X191875000Y-80800000D01*
X192550000Y-78625000D02*
X193925000Y-80000000D01*
X193925000Y-80000000D02*
X193925000Y-81075000D01*
X192350980Y-86499020D02*
X192350980Y-87400000D01*
X193925000Y-84925000D02*
X192350980Y-86499020D01*
X193925000Y-81075000D02*
X193925000Y-84925000D01*
D29*
G36*
X169520508Y-58058059D02*
X169362710Y-58162710D01*
X168562710Y-58962710D01*
X168460581Y-59114420D01*
X168423000Y-59300000D01*
X168423000Y-66400000D01*
X168452261Y-66555506D01*
X168423000Y-66700000D01*
X168423000Y-79700000D01*
X168455622Y-79873369D01*
X168558083Y-80032598D01*
X168714420Y-80139419D01*
X168900000Y-80177000D01*
X178900000Y-80177000D01*
X179073369Y-80144378D01*
X179232598Y-80041917D01*
X179339419Y-79885580D01*
X179377000Y-79700000D01*
X179377000Y-77708758D01*
X184032302Y-77708758D01*
X184224509Y-78258391D01*
X184612420Y-78692631D01*
X184867879Y-78839013D01*
X185085185Y-78756412D01*
X185085185Y-77475030D01*
X184176655Y-77475030D01*
X184032302Y-77708758D01*
X179377000Y-77708758D01*
X179377000Y-74800000D01*
X179344378Y-74626631D01*
X179241917Y-74467402D01*
X179085580Y-74360581D01*
X178900000Y-74323000D01*
X175950180Y-74323000D01*
X175950180Y-73935020D01*
X176341340Y-73935020D01*
X176500090Y-73776270D01*
X176500090Y-72899970D01*
X177599910Y-72899970D01*
X177599910Y-73776270D01*
X177758660Y-73935020D01*
X178276130Y-73935020D01*
X178509519Y-73838347D01*
X178688147Y-73659718D01*
X178784820Y-73426329D01*
X178784820Y-73058720D01*
X178626070Y-72899970D01*
X177599910Y-72899970D01*
X176500090Y-72899970D01*
X175950180Y-72899970D01*
X175950180Y-72099870D01*
X176500090Y-72099870D01*
X176500090Y-71223570D01*
X177599910Y-71223570D01*
X177599910Y-72099870D01*
X178626070Y-72099870D01*
X178784820Y-71941120D01*
X178784820Y-71573511D01*
X178688147Y-71340122D01*
X178509519Y-71161493D01*
X178276130Y-71064820D01*
X177758660Y-71064820D01*
X177599910Y-71223570D01*
X176500090Y-71223570D01*
X176341340Y-71064820D01*
X175950180Y-71064820D01*
X175950180Y-70877000D01*
X178900000Y-70877000D01*
X178923285Y-70872619D01*
X178922398Y-71888584D01*
X179450624Y-73166989D01*
X180427866Y-74145938D01*
X181705348Y-74676395D01*
X183088584Y-74677602D01*
X183136998Y-74657598D01*
X183136998Y-74849940D01*
X184306398Y-74849940D01*
X184224509Y-74941609D01*
X184032302Y-75491242D01*
X184176655Y-75724970D01*
X185085185Y-75724970D01*
X185085185Y-74849940D01*
X185934815Y-74849940D01*
X185934815Y-75724970D01*
X186323000Y-75724970D01*
X186323000Y-77475030D01*
X185934815Y-77475030D01*
X185934815Y-78756412D01*
X186152121Y-78839013D01*
X186323000Y-78741097D01*
X186323000Y-79200000D01*
X186355622Y-79373369D01*
X186458083Y-79532598D01*
X186614420Y-79639419D01*
X186800000Y-79677000D01*
X187396025Y-79677000D01*
X186903297Y-79880591D01*
X186332595Y-80450298D01*
X186023353Y-81195036D01*
X186022649Y-82001426D01*
X186330591Y-82746703D01*
X186900298Y-83317405D01*
X187154599Y-83423000D01*
X184800000Y-83423000D01*
X184579192Y-83466922D01*
X184391999Y-83591999D01*
X184391997Y-83592002D01*
X183835989Y-84148009D01*
X183661221Y-84147857D01*
X183357154Y-84273495D01*
X183232431Y-84398000D01*
X176625000Y-84398000D01*
X176404191Y-84441922D01*
X176329213Y-84492021D01*
X176216999Y-84566999D01*
X176216997Y-84567002D01*
X174719363Y-86064635D01*
X173950000Y-86064635D01*
X173791763Y-86094409D01*
X173646433Y-86187927D01*
X173548936Y-86330619D01*
X173514635Y-86500000D01*
X173514635Y-88000000D01*
X173544409Y-88158237D01*
X173637927Y-88303567D01*
X173780619Y-88401064D01*
X173950000Y-88435365D01*
X175076998Y-88435365D01*
X175076998Y-88764635D01*
X173950000Y-88764635D01*
X173791763Y-88794409D01*
X173646433Y-88887927D01*
X173548936Y-89030619D01*
X173514635Y-89200000D01*
X173514635Y-90700000D01*
X173544409Y-90858237D01*
X173637927Y-91003567D01*
X173780619Y-91101064D01*
X173950000Y-91135365D01*
X175250000Y-91135365D01*
X175408237Y-91105591D01*
X175553567Y-91012073D01*
X175651064Y-90869381D01*
X175685365Y-90700000D01*
X175685365Y-90527000D01*
X175999995Y-90527000D01*
X176000000Y-90527001D01*
X176220808Y-90483078D01*
X176408001Y-90358001D01*
X177414002Y-89352000D01*
X177574305Y-89352000D01*
X177564585Y-89400000D01*
X177564585Y-90800000D01*
X177594359Y-90958237D01*
X177687877Y-91103567D01*
X177830569Y-91201064D01*
X177999950Y-91235365D01*
X178800050Y-91235365D01*
X178958287Y-91205591D01*
X179103617Y-91112073D01*
X179201114Y-90969381D01*
X179235415Y-90800000D01*
X179235415Y-90777000D01*
X181664635Y-90777000D01*
X181664635Y-90850000D01*
X181694409Y-91008237D01*
X181787927Y-91153567D01*
X181930619Y-91251064D01*
X182100000Y-91285365D01*
X183600000Y-91285365D01*
X183758237Y-91255591D01*
X183903567Y-91162073D01*
X184001064Y-91019381D01*
X184035365Y-90850000D01*
X184035365Y-89550000D01*
X184005591Y-89391763D01*
X183912073Y-89246433D01*
X183769381Y-89148936D01*
X183600000Y-89114635D01*
X183427000Y-89114635D01*
X183427000Y-88485365D01*
X183600000Y-88485365D01*
X183758237Y-88455591D01*
X183903567Y-88362073D01*
X184001064Y-88219381D01*
X184035365Y-88050000D01*
X184035365Y-86750000D01*
X184005591Y-86591763D01*
X183912073Y-86446433D01*
X183769381Y-86348936D01*
X183600000Y-86314635D01*
X182100000Y-86314635D01*
X181941763Y-86344409D01*
X181796433Y-86437927D01*
X181698936Y-86580619D01*
X181676944Y-86689217D01*
X181677143Y-86461221D01*
X181551505Y-86157154D01*
X181319070Y-85924312D01*
X181015222Y-85798144D01*
X180686221Y-85797857D01*
X180382154Y-85923495D01*
X180149312Y-86155930D01*
X180023144Y-86459778D01*
X180023135Y-86469794D01*
X179919431Y-86398936D01*
X179750050Y-86364635D01*
X178949950Y-86364635D01*
X178791713Y-86394409D01*
X178646383Y-86487927D01*
X178548886Y-86630619D01*
X178514585Y-86800000D01*
X178514585Y-88198000D01*
X178485050Y-88198000D01*
X178485050Y-88008750D01*
X178326300Y-87850000D01*
X177650025Y-87850000D01*
X177650025Y-88198000D01*
X177249975Y-88198000D01*
X177249975Y-87850000D01*
X176573700Y-87850000D01*
X176414950Y-88008750D01*
X176414950Y-88200000D01*
X175630143Y-88200000D01*
X175651064Y-88169381D01*
X175685365Y-88000000D01*
X175685365Y-86730637D01*
X175742311Y-86673690D01*
X176414950Y-86673690D01*
X176414950Y-86991250D01*
X176573700Y-87150000D01*
X177249975Y-87150000D01*
X177249975Y-86323750D01*
X177650025Y-86323750D01*
X177650025Y-87150000D01*
X178326300Y-87150000D01*
X178485050Y-86991250D01*
X178485050Y-86673690D01*
X178388377Y-86440301D01*
X178209748Y-86261673D01*
X177976359Y-86165000D01*
X177808775Y-86165000D01*
X177650025Y-86323750D01*
X177249975Y-86323750D01*
X177091225Y-86165000D01*
X176923641Y-86165000D01*
X176690252Y-86261673D01*
X176511623Y-86440301D01*
X176414950Y-86673690D01*
X175742311Y-86673690D01*
X176864001Y-85552000D01*
X183232458Y-85552000D01*
X183355930Y-85675688D01*
X183659778Y-85801856D01*
X183988779Y-85802143D01*
X184292846Y-85676505D01*
X184525688Y-85444070D01*
X184651856Y-85140222D01*
X184652010Y-84963992D01*
X185039001Y-84577000D01*
X188599995Y-84577000D01*
X188600000Y-84577001D01*
X188820808Y-84533078D01*
X189008001Y-84408001D01*
X190664120Y-82751882D01*
X190963779Y-82752143D01*
X191267846Y-82626505D01*
X191298000Y-82596404D01*
X191298000Y-82935999D01*
X187410998Y-86823000D01*
X186735365Y-86823000D01*
X186735365Y-86750000D01*
X186705591Y-86591763D01*
X186612073Y-86446433D01*
X186469381Y-86348936D01*
X186300000Y-86314635D01*
X184800000Y-86314635D01*
X184641763Y-86344409D01*
X184496433Y-86437927D01*
X184398936Y-86580619D01*
X184364635Y-86750000D01*
X184364635Y-88050000D01*
X184394409Y-88208237D01*
X184487927Y-88353567D01*
X184630619Y-88451064D01*
X184800000Y-88485365D01*
X186300000Y-88485365D01*
X186458237Y-88455591D01*
X186603567Y-88362073D01*
X186701064Y-88219381D01*
X186735365Y-88050000D01*
X186735365Y-87977000D01*
X187649995Y-87977000D01*
X187650000Y-87977001D01*
X187870808Y-87933078D01*
X188058001Y-87808001D01*
X189065441Y-86800560D01*
X191316175Y-86800560D01*
X191316175Y-87999440D01*
X191345949Y-88157677D01*
X191439467Y-88303007D01*
X191582159Y-88400504D01*
X191751540Y-88434805D01*
X192950420Y-88434805D01*
X193108657Y-88405031D01*
X193253987Y-88311513D01*
X193351484Y-88168821D01*
X193385785Y-87999440D01*
X193385785Y-86800560D01*
X193414215Y-86800560D01*
X193414215Y-87999440D01*
X193443989Y-88157677D01*
X193537507Y-88303007D01*
X193680199Y-88400504D01*
X193849580Y-88434805D01*
X194173000Y-88434805D01*
X194173000Y-88914635D01*
X194000000Y-88914635D01*
X193841763Y-88944409D01*
X193696433Y-89037927D01*
X193598936Y-89180619D01*
X193564635Y-89350000D01*
X193564635Y-90650000D01*
X193594409Y-90808237D01*
X193687927Y-90953567D01*
X193830619Y-91051064D01*
X194000000Y-91085365D01*
X195500000Y-91085365D01*
X195658237Y-91055591D01*
X195803567Y-90962073D01*
X195901064Y-90819381D01*
X195935365Y-90650000D01*
X195935365Y-89350000D01*
X195905591Y-89191763D01*
X195812073Y-89046433D01*
X195669381Y-88948936D01*
X195500000Y-88914635D01*
X195327000Y-88914635D01*
X195327000Y-88327618D01*
X195352027Y-88311513D01*
X195449524Y-88168821D01*
X195483825Y-87999440D01*
X195483825Y-86800560D01*
X195454051Y-86642323D01*
X195360533Y-86496993D01*
X195217841Y-86399496D01*
X195048460Y-86365195D01*
X193849580Y-86365195D01*
X193691343Y-86394969D01*
X193546013Y-86488487D01*
X193448516Y-86631179D01*
X193414215Y-86800560D01*
X193385785Y-86800560D01*
X193356011Y-86642323D01*
X193262493Y-86496993D01*
X193206956Y-86459046D01*
X194332998Y-85333003D01*
X194333001Y-85333001D01*
X194424669Y-85195809D01*
X194458078Y-85145809D01*
X194502000Y-84925000D01*
X194502000Y-80000005D01*
X194502001Y-80000000D01*
X194458078Y-79779192D01*
X194367999Y-79644378D01*
X194333001Y-79591999D01*
X194332998Y-79591997D01*
X193376991Y-78635989D01*
X193377143Y-78461221D01*
X193251505Y-78157154D01*
X193019070Y-77924312D01*
X192715222Y-77798144D01*
X192386221Y-77797857D01*
X192082154Y-77923495D01*
X191849312Y-78155930D01*
X191723144Y-78459778D01*
X191722857Y-78788779D01*
X191848495Y-79092846D01*
X192080930Y-79325688D01*
X192384778Y-79451856D01*
X192561008Y-79452010D01*
X193348000Y-80239001D01*
X193348000Y-84685999D01*
X191942979Y-86091019D01*
X191817902Y-86278212D01*
X191800599Y-86365195D01*
X191751540Y-86365195D01*
X191593303Y-86394969D01*
X191447973Y-86488487D01*
X191350476Y-86631179D01*
X191316175Y-86800560D01*
X189065441Y-86800560D01*
X192282998Y-83583003D01*
X192283001Y-83583001D01*
X192408078Y-83395808D01*
X192452000Y-83175000D01*
X192452000Y-80800000D01*
X192408078Y-80579191D01*
X192353828Y-80498000D01*
X192283001Y-80391999D01*
X192282998Y-80391997D01*
X191167000Y-79275998D01*
X191167000Y-78663429D01*
X191492714Y-78445795D01*
X191769452Y-78031626D01*
X191866630Y-77543081D01*
X191866630Y-75656919D01*
X191810939Y-75376941D01*
X192873000Y-76439002D01*
X192873000Y-76582458D01*
X192749312Y-76705930D01*
X192623144Y-77009778D01*
X192622857Y-77338779D01*
X192748495Y-77642846D01*
X192980930Y-77875688D01*
X193284778Y-78001856D01*
X193613779Y-78002143D01*
X193917846Y-77876505D01*
X194150688Y-77644070D01*
X194276856Y-77340222D01*
X194277143Y-77011221D01*
X194151505Y-76707154D01*
X194027000Y-76582431D01*
X194027000Y-76200005D01*
X194027001Y-76200000D01*
X193983078Y-75979192D01*
X193858001Y-75791999D01*
X192777000Y-74710998D01*
X192777000Y-73685365D01*
X192850000Y-73685365D01*
X193008237Y-73655591D01*
X193153567Y-73562073D01*
X193251064Y-73419381D01*
X193285365Y-73250000D01*
X193285365Y-72723002D01*
X193614635Y-72723002D01*
X193614635Y-73250000D01*
X193644409Y-73408237D01*
X193737927Y-73553567D01*
X193880619Y-73651064D01*
X194050000Y-73685365D01*
X194223000Y-73685365D01*
X194223000Y-74019578D01*
X194169692Y-74072886D01*
X194136221Y-74072857D01*
X193832154Y-74198495D01*
X193599312Y-74430930D01*
X193473144Y-74734778D01*
X193472857Y-75063779D01*
X193598495Y-75367846D01*
X193830930Y-75600688D01*
X194134778Y-75726856D01*
X194463779Y-75727143D01*
X194767846Y-75601505D01*
X195000688Y-75369070D01*
X195126856Y-75065222D01*
X195126886Y-75030536D01*
X195378711Y-74778711D01*
X195408066Y-74734778D01*
X195525466Y-74559077D01*
X195577000Y-74300000D01*
X195577000Y-73680285D01*
X195708237Y-73655591D01*
X195853567Y-73562073D01*
X195951064Y-73419381D01*
X195985365Y-73250000D01*
X195985365Y-71950000D01*
X195955591Y-71791763D01*
X195862073Y-71646433D01*
X195719381Y-71548936D01*
X195577000Y-71520103D01*
X195577000Y-71405285D01*
X195708237Y-71380591D01*
X195853567Y-71287073D01*
X195951064Y-71144381D01*
X195985365Y-70975000D01*
X195985365Y-69725000D01*
X195955591Y-69566763D01*
X195862073Y-69421433D01*
X195719381Y-69323936D01*
X195550000Y-69289635D01*
X195517000Y-69289635D01*
X195517000Y-68878047D01*
X195860355Y-68648625D01*
X196173158Y-68180482D01*
X196283000Y-67628270D01*
X196283000Y-67571730D01*
X196173158Y-67019518D01*
X195860355Y-66551375D01*
X195727000Y-66462270D01*
X195727000Y-64280686D01*
X195970418Y-64180108D01*
X196428499Y-63722825D01*
X196676717Y-63125050D01*
X196677282Y-62477789D01*
X196430108Y-61879582D01*
X195972825Y-61421501D01*
X195375050Y-61173283D01*
X194727789Y-61172718D01*
X194129582Y-61419892D01*
X193671501Y-61877175D01*
X193423283Y-62474950D01*
X193422718Y-63122211D01*
X193669892Y-63720418D01*
X194127175Y-64178499D01*
X194373000Y-64280575D01*
X194373000Y-66221622D01*
X194287788Y-66238572D01*
X193951000Y-66463606D01*
X193951000Y-65226998D01*
X193316000Y-65226998D01*
X193316000Y-65949000D01*
X192966750Y-65949000D01*
X192808000Y-66107750D01*
X192808000Y-67092000D01*
X193316000Y-67092000D01*
X193316000Y-67976998D01*
X193050000Y-67976998D01*
X193050000Y-68108000D01*
X192808000Y-68108000D01*
X192808000Y-69092250D01*
X192819750Y-69104000D01*
X192675000Y-69248750D01*
X192675000Y-70037500D01*
X193050000Y-70037500D01*
X193050000Y-70662500D01*
X192675000Y-70662500D01*
X192675000Y-70975000D01*
X191925000Y-70975000D01*
X191925000Y-70662500D01*
X191073750Y-70662500D01*
X190915000Y-70821250D01*
X190915000Y-70975000D01*
X190577000Y-70975000D01*
X190577000Y-68266750D01*
X190649000Y-68266750D01*
X190649000Y-68742309D01*
X190745673Y-68975698D01*
X190924301Y-69154327D01*
X191135264Y-69241711D01*
X191011673Y-69365301D01*
X190915000Y-69598690D01*
X190915000Y-69878750D01*
X191073750Y-70037500D01*
X191925000Y-70037500D01*
X191925000Y-69248750D01*
X191780250Y-69104000D01*
X191792000Y-69092250D01*
X191792000Y-68108000D01*
X190807750Y-68108000D01*
X190649000Y-68266750D01*
X190577000Y-68266750D01*
X190577000Y-66457691D01*
X190649000Y-66457691D01*
X190649000Y-66933250D01*
X190807750Y-67092000D01*
X191792000Y-67092000D01*
X191792000Y-66107750D01*
X191633250Y-65949000D01*
X191157690Y-65949000D01*
X190924301Y-66045673D01*
X190745673Y-66224302D01*
X190649000Y-66457691D01*
X190577000Y-66457691D01*
X190577000Y-64900000D01*
X190541941Y-64720508D01*
X190485232Y-64635000D01*
X190791250Y-64635000D01*
X190950000Y-64476250D01*
X190950000Y-63400000D01*
X192150000Y-63400000D01*
X192150000Y-64476250D01*
X192308750Y-64635000D01*
X192876309Y-64635000D01*
X193109698Y-64538327D01*
X193288327Y-64359699D01*
X193385000Y-64126310D01*
X193385000Y-63558750D01*
X193226250Y-63400000D01*
X192150000Y-63400000D01*
X190950000Y-63400000D01*
X190350000Y-63400000D01*
X190350000Y-62200000D01*
X190950000Y-62200000D01*
X190950000Y-61123750D01*
X192150000Y-61123750D01*
X192150000Y-62200000D01*
X193226250Y-62200000D01*
X193385000Y-62041250D01*
X193385000Y-61473690D01*
X193288327Y-61240301D01*
X193109698Y-61061673D01*
X192876309Y-60965000D01*
X192308750Y-60965000D01*
X192150000Y-61123750D01*
X190950000Y-61123750D01*
X190791250Y-60965000D01*
X190350000Y-60965000D01*
X190350000Y-60426998D01*
X189877000Y-60426998D01*
X189877000Y-59600000D01*
X189841941Y-59420508D01*
X189737290Y-59262710D01*
X188637290Y-58162710D01*
X188485580Y-58060581D01*
X188344443Y-58032000D01*
X196357453Y-58032000D01*
X196614125Y-58083055D01*
X196795652Y-58204348D01*
X196916945Y-58385875D01*
X196968000Y-58642546D01*
X196968000Y-92757454D01*
X196916945Y-93014125D01*
X196795652Y-93195652D01*
X196614125Y-93316945D01*
X196357453Y-93368000D01*
X168642546Y-93368000D01*
X168385875Y-93316945D01*
X168204348Y-93195652D01*
X168083055Y-93014125D01*
X168032000Y-92757453D01*
X168032000Y-92163779D01*
X183572857Y-92163779D01*
X183698495Y-92467846D01*
X183930930Y-92700688D01*
X184234778Y-92826856D01*
X184563779Y-92827143D01*
X184867846Y-92701505D01*
X185100688Y-92469070D01*
X185226856Y-92165222D01*
X185227010Y-91988992D01*
X185930636Y-91285365D01*
X186300000Y-91285365D01*
X186458237Y-91255591D01*
X186603567Y-91162073D01*
X186701064Y-91019381D01*
X186735365Y-90850000D01*
X186735365Y-90577000D01*
X190864635Y-90577000D01*
X190864635Y-90650000D01*
X190894409Y-90808237D01*
X190987927Y-90953567D01*
X191130619Y-91051064D01*
X191300000Y-91085365D01*
X192800000Y-91085365D01*
X192958237Y-91055591D01*
X193103567Y-90962073D01*
X193201064Y-90819381D01*
X193235365Y-90650000D01*
X193235365Y-89350000D01*
X193205591Y-89191763D01*
X193112073Y-89046433D01*
X192969381Y-88948936D01*
X192800000Y-88914635D01*
X191300000Y-88914635D01*
X191141763Y-88944409D01*
X190996433Y-89037927D01*
X190898936Y-89180619D01*
X190864635Y-89350000D01*
X190864635Y-89423000D01*
X186711469Y-89423000D01*
X186705591Y-89391763D01*
X186612073Y-89246433D01*
X186469381Y-89148936D01*
X186300000Y-89114635D01*
X184800000Y-89114635D01*
X184641763Y-89144409D01*
X184496433Y-89237927D01*
X184398936Y-89380619D01*
X184364635Y-89550000D01*
X184364635Y-90850000D01*
X184394409Y-91008237D01*
X184465415Y-91118583D01*
X184410989Y-91173009D01*
X184236221Y-91172857D01*
X183932154Y-91298495D01*
X183699312Y-91530930D01*
X183573144Y-91834778D01*
X183572857Y-92163779D01*
X168032000Y-92163779D01*
X168032000Y-83957741D01*
X172076143Y-83957741D01*
X172237356Y-84187727D01*
X172983452Y-84263153D01*
X173362644Y-84187727D01*
X173523857Y-83957741D01*
X172800000Y-83233883D01*
X172076143Y-83957741D01*
X168032000Y-83957741D01*
X168032000Y-82533452D01*
X170886847Y-82533452D01*
X170962273Y-82912644D01*
X171192259Y-83073857D01*
X171916117Y-82350000D01*
X173683883Y-82350000D01*
X174407741Y-83073857D01*
X174637727Y-82912644D01*
X174713153Y-82166548D01*
X174637727Y-81787356D01*
X174407741Y-81626143D01*
X173683883Y-82350000D01*
X171916117Y-82350000D01*
X171192259Y-81626143D01*
X170962273Y-81787356D01*
X170886847Y-82533452D01*
X168032000Y-82533452D01*
X168032000Y-80742259D01*
X172076143Y-80742259D01*
X172800000Y-81466117D01*
X173523857Y-80742259D01*
X173362644Y-80512273D01*
X172616548Y-80436847D01*
X172237356Y-80512273D01*
X172076143Y-80742259D01*
X168032000Y-80742259D01*
X168032000Y-58642547D01*
X168083055Y-58385875D01*
X168204348Y-58204348D01*
X168385875Y-58083055D01*
X168642546Y-58032000D01*
X169653923Y-58032000D01*
X169520508Y-58058059D01*
X169520508Y-58058059D01*
G37*
X169520508Y-58058059D02*
X169362710Y-58162710D01*
X168562710Y-58962710D01*
X168460581Y-59114420D01*
X168423000Y-59300000D01*
X168423000Y-66400000D01*
X168452261Y-66555506D01*
X168423000Y-66700000D01*
X168423000Y-79700000D01*
X168455622Y-79873369D01*
X168558083Y-80032598D01*
X168714420Y-80139419D01*
X168900000Y-80177000D01*
X178900000Y-80177000D01*
X179073369Y-80144378D01*
X179232598Y-80041917D01*
X179339419Y-79885580D01*
X179377000Y-79700000D01*
X179377000Y-77708758D01*
X184032302Y-77708758D01*
X184224509Y-78258391D01*
X184612420Y-78692631D01*
X184867879Y-78839013D01*
X185085185Y-78756412D01*
X185085185Y-77475030D01*
X184176655Y-77475030D01*
X184032302Y-77708758D01*
X179377000Y-77708758D01*
X179377000Y-74800000D01*
X179344378Y-74626631D01*
X179241917Y-74467402D01*
X179085580Y-74360581D01*
X178900000Y-74323000D01*
X175950180Y-74323000D01*
X175950180Y-73935020D01*
X176341340Y-73935020D01*
X176500090Y-73776270D01*
X176500090Y-72899970D01*
X177599910Y-72899970D01*
X177599910Y-73776270D01*
X177758660Y-73935020D01*
X178276130Y-73935020D01*
X178509519Y-73838347D01*
X178688147Y-73659718D01*
X178784820Y-73426329D01*
X178784820Y-73058720D01*
X178626070Y-72899970D01*
X177599910Y-72899970D01*
X176500090Y-72899970D01*
X175950180Y-72899970D01*
X175950180Y-72099870D01*
X176500090Y-72099870D01*
X176500090Y-71223570D01*
X177599910Y-71223570D01*
X177599910Y-72099870D01*
X178626070Y-72099870D01*
X178784820Y-71941120D01*
X178784820Y-71573511D01*
X178688147Y-71340122D01*
X178509519Y-71161493D01*
X178276130Y-71064820D01*
X177758660Y-71064820D01*
X177599910Y-71223570D01*
X176500090Y-71223570D01*
X176341340Y-71064820D01*
X175950180Y-71064820D01*
X175950180Y-70877000D01*
X178900000Y-70877000D01*
X178923285Y-70872619D01*
X178922398Y-71888584D01*
X179450624Y-73166989D01*
X180427866Y-74145938D01*
X181705348Y-74676395D01*
X183088584Y-74677602D01*
X183136998Y-74657598D01*
X183136998Y-74849940D01*
X184306398Y-74849940D01*
X184224509Y-74941609D01*
X184032302Y-75491242D01*
X184176655Y-75724970D01*
X185085185Y-75724970D01*
X185085185Y-74849940D01*
X185934815Y-74849940D01*
X185934815Y-75724970D01*
X186323000Y-75724970D01*
X186323000Y-77475030D01*
X185934815Y-77475030D01*
X185934815Y-78756412D01*
X186152121Y-78839013D01*
X186323000Y-78741097D01*
X186323000Y-79200000D01*
X186355622Y-79373369D01*
X186458083Y-79532598D01*
X186614420Y-79639419D01*
X186800000Y-79677000D01*
X187396025Y-79677000D01*
X186903297Y-79880591D01*
X186332595Y-80450298D01*
X186023353Y-81195036D01*
X186022649Y-82001426D01*
X186330591Y-82746703D01*
X186900298Y-83317405D01*
X187154599Y-83423000D01*
X184800000Y-83423000D01*
X184579192Y-83466922D01*
X184391999Y-83591999D01*
X184391997Y-83592002D01*
X183835989Y-84148009D01*
X183661221Y-84147857D01*
X183357154Y-84273495D01*
X183232431Y-84398000D01*
X176625000Y-84398000D01*
X176404191Y-84441922D01*
X176329213Y-84492021D01*
X176216999Y-84566999D01*
X176216997Y-84567002D01*
X174719363Y-86064635D01*
X173950000Y-86064635D01*
X173791763Y-86094409D01*
X173646433Y-86187927D01*
X173548936Y-86330619D01*
X173514635Y-86500000D01*
X173514635Y-88000000D01*
X173544409Y-88158237D01*
X173637927Y-88303567D01*
X173780619Y-88401064D01*
X173950000Y-88435365D01*
X175076998Y-88435365D01*
X175076998Y-88764635D01*
X173950000Y-88764635D01*
X173791763Y-88794409D01*
X173646433Y-88887927D01*
X173548936Y-89030619D01*
X173514635Y-89200000D01*
X173514635Y-90700000D01*
X173544409Y-90858237D01*
X173637927Y-91003567D01*
X173780619Y-91101064D01*
X173950000Y-91135365D01*
X175250000Y-91135365D01*
X175408237Y-91105591D01*
X175553567Y-91012073D01*
X175651064Y-90869381D01*
X175685365Y-90700000D01*
X175685365Y-90527000D01*
X175999995Y-90527000D01*
X176000000Y-90527001D01*
X176220808Y-90483078D01*
X176408001Y-90358001D01*
X177414002Y-89352000D01*
X177574305Y-89352000D01*
X177564585Y-89400000D01*
X177564585Y-90800000D01*
X177594359Y-90958237D01*
X177687877Y-91103567D01*
X177830569Y-91201064D01*
X177999950Y-91235365D01*
X178800050Y-91235365D01*
X178958287Y-91205591D01*
X179103617Y-91112073D01*
X179201114Y-90969381D01*
X179235415Y-90800000D01*
X179235415Y-90777000D01*
X181664635Y-90777000D01*
X181664635Y-90850000D01*
X181694409Y-91008237D01*
X181787927Y-91153567D01*
X181930619Y-91251064D01*
X182100000Y-91285365D01*
X183600000Y-91285365D01*
X183758237Y-91255591D01*
X183903567Y-91162073D01*
X184001064Y-91019381D01*
X184035365Y-90850000D01*
X184035365Y-89550000D01*
X184005591Y-89391763D01*
X183912073Y-89246433D01*
X183769381Y-89148936D01*
X183600000Y-89114635D01*
X183427000Y-89114635D01*
X183427000Y-88485365D01*
X183600000Y-88485365D01*
X183758237Y-88455591D01*
X183903567Y-88362073D01*
X184001064Y-88219381D01*
X184035365Y-88050000D01*
X184035365Y-86750000D01*
X184005591Y-86591763D01*
X183912073Y-86446433D01*
X183769381Y-86348936D01*
X183600000Y-86314635D01*
X182100000Y-86314635D01*
X181941763Y-86344409D01*
X181796433Y-86437927D01*
X181698936Y-86580619D01*
X181676944Y-86689217D01*
X181677143Y-86461221D01*
X181551505Y-86157154D01*
X181319070Y-85924312D01*
X181015222Y-85798144D01*
X180686221Y-85797857D01*
X180382154Y-85923495D01*
X180149312Y-86155930D01*
X180023144Y-86459778D01*
X180023135Y-86469794D01*
X179919431Y-86398936D01*
X179750050Y-86364635D01*
X178949950Y-86364635D01*
X178791713Y-86394409D01*
X178646383Y-86487927D01*
X178548886Y-86630619D01*
X178514585Y-86800000D01*
X178514585Y-88198000D01*
X178485050Y-88198000D01*
X178485050Y-88008750D01*
X178326300Y-87850000D01*
X177650025Y-87850000D01*
X177650025Y-88198000D01*
X177249975Y-88198000D01*
X177249975Y-87850000D01*
X176573700Y-87850000D01*
X176414950Y-88008750D01*
X176414950Y-88200000D01*
X175630143Y-88200000D01*
X175651064Y-88169381D01*
X175685365Y-88000000D01*
X175685365Y-86730637D01*
X175742311Y-86673690D01*
X176414950Y-86673690D01*
X176414950Y-86991250D01*
X176573700Y-87150000D01*
X177249975Y-87150000D01*
X177249975Y-86323750D01*
X177650025Y-86323750D01*
X177650025Y-87150000D01*
X178326300Y-87150000D01*
X178485050Y-86991250D01*
X178485050Y-86673690D01*
X178388377Y-86440301D01*
X178209748Y-86261673D01*
X177976359Y-86165000D01*
X177808775Y-86165000D01*
X177650025Y-86323750D01*
X177249975Y-86323750D01*
X177091225Y-86165000D01*
X176923641Y-86165000D01*
X176690252Y-86261673D01*
X176511623Y-86440301D01*
X176414950Y-86673690D01*
X175742311Y-86673690D01*
X176864001Y-85552000D01*
X183232458Y-85552000D01*
X183355930Y-85675688D01*
X183659778Y-85801856D01*
X183988779Y-85802143D01*
X184292846Y-85676505D01*
X184525688Y-85444070D01*
X184651856Y-85140222D01*
X184652010Y-84963992D01*
X185039001Y-84577000D01*
X188599995Y-84577000D01*
X188600000Y-84577001D01*
X188820808Y-84533078D01*
X189008001Y-84408001D01*
X190664120Y-82751882D01*
X190963779Y-82752143D01*
X191267846Y-82626505D01*
X191298000Y-82596404D01*
X191298000Y-82935999D01*
X187410998Y-86823000D01*
X186735365Y-86823000D01*
X186735365Y-86750000D01*
X186705591Y-86591763D01*
X186612073Y-86446433D01*
X186469381Y-86348936D01*
X186300000Y-86314635D01*
X184800000Y-86314635D01*
X184641763Y-86344409D01*
X184496433Y-86437927D01*
X184398936Y-86580619D01*
X184364635Y-86750000D01*
X184364635Y-88050000D01*
X184394409Y-88208237D01*
X184487927Y-88353567D01*
X184630619Y-88451064D01*
X184800000Y-88485365D01*
X186300000Y-88485365D01*
X186458237Y-88455591D01*
X186603567Y-88362073D01*
X186701064Y-88219381D01*
X186735365Y-88050000D01*
X186735365Y-87977000D01*
X187649995Y-87977000D01*
X187650000Y-87977001D01*
X187870808Y-87933078D01*
X188058001Y-87808001D01*
X189065441Y-86800560D01*
X191316175Y-86800560D01*
X191316175Y-87999440D01*
X191345949Y-88157677D01*
X191439467Y-88303007D01*
X191582159Y-88400504D01*
X191751540Y-88434805D01*
X192950420Y-88434805D01*
X193108657Y-88405031D01*
X193253987Y-88311513D01*
X193351484Y-88168821D01*
X193385785Y-87999440D01*
X193385785Y-86800560D01*
X193414215Y-86800560D01*
X193414215Y-87999440D01*
X193443989Y-88157677D01*
X193537507Y-88303007D01*
X193680199Y-88400504D01*
X193849580Y-88434805D01*
X194173000Y-88434805D01*
X194173000Y-88914635D01*
X194000000Y-88914635D01*
X193841763Y-88944409D01*
X193696433Y-89037927D01*
X193598936Y-89180619D01*
X193564635Y-89350000D01*
X193564635Y-90650000D01*
X193594409Y-90808237D01*
X193687927Y-90953567D01*
X193830619Y-91051064D01*
X194000000Y-91085365D01*
X195500000Y-91085365D01*
X195658237Y-91055591D01*
X195803567Y-90962073D01*
X195901064Y-90819381D01*
X195935365Y-90650000D01*
X195935365Y-89350000D01*
X195905591Y-89191763D01*
X195812073Y-89046433D01*
X195669381Y-88948936D01*
X195500000Y-88914635D01*
X195327000Y-88914635D01*
X195327000Y-88327618D01*
X195352027Y-88311513D01*
X195449524Y-88168821D01*
X195483825Y-87999440D01*
X195483825Y-86800560D01*
X195454051Y-86642323D01*
X195360533Y-86496993D01*
X195217841Y-86399496D01*
X195048460Y-86365195D01*
X193849580Y-86365195D01*
X193691343Y-86394969D01*
X193546013Y-86488487D01*
X193448516Y-86631179D01*
X193414215Y-86800560D01*
X193385785Y-86800560D01*
X193356011Y-86642323D01*
X193262493Y-86496993D01*
X193206956Y-86459046D01*
X194332998Y-85333003D01*
X194333001Y-85333001D01*
X194424669Y-85195809D01*
X194458078Y-85145809D01*
X194502000Y-84925000D01*
X194502000Y-80000005D01*
X194502001Y-80000000D01*
X194458078Y-79779192D01*
X194367999Y-79644378D01*
X194333001Y-79591999D01*
X194332998Y-79591997D01*
X193376991Y-78635989D01*
X193377143Y-78461221D01*
X193251505Y-78157154D01*
X193019070Y-77924312D01*
X192715222Y-77798144D01*
X192386221Y-77797857D01*
X192082154Y-77923495D01*
X191849312Y-78155930D01*
X191723144Y-78459778D01*
X191722857Y-78788779D01*
X191848495Y-79092846D01*
X192080930Y-79325688D01*
X192384778Y-79451856D01*
X192561008Y-79452010D01*
X193348000Y-80239001D01*
X193348000Y-84685999D01*
X191942979Y-86091019D01*
X191817902Y-86278212D01*
X191800599Y-86365195D01*
X191751540Y-86365195D01*
X191593303Y-86394969D01*
X191447973Y-86488487D01*
X191350476Y-86631179D01*
X191316175Y-86800560D01*
X189065441Y-86800560D01*
X192282998Y-83583003D01*
X192283001Y-83583001D01*
X192408078Y-83395808D01*
X192452000Y-83175000D01*
X192452000Y-80800000D01*
X192408078Y-80579191D01*
X192353828Y-80498000D01*
X192283001Y-80391999D01*
X192282998Y-80391997D01*
X191167000Y-79275998D01*
X191167000Y-78663429D01*
X191492714Y-78445795D01*
X191769452Y-78031626D01*
X191866630Y-77543081D01*
X191866630Y-75656919D01*
X191810939Y-75376941D01*
X192873000Y-76439002D01*
X192873000Y-76582458D01*
X192749312Y-76705930D01*
X192623144Y-77009778D01*
X192622857Y-77338779D01*
X192748495Y-77642846D01*
X192980930Y-77875688D01*
X193284778Y-78001856D01*
X193613779Y-78002143D01*
X193917846Y-77876505D01*
X194150688Y-77644070D01*
X194276856Y-77340222D01*
X194277143Y-77011221D01*
X194151505Y-76707154D01*
X194027000Y-76582431D01*
X194027000Y-76200005D01*
X194027001Y-76200000D01*
X193983078Y-75979192D01*
X193858001Y-75791999D01*
X192777000Y-74710998D01*
X192777000Y-73685365D01*
X192850000Y-73685365D01*
X193008237Y-73655591D01*
X193153567Y-73562073D01*
X193251064Y-73419381D01*
X193285365Y-73250000D01*
X193285365Y-72723002D01*
X193614635Y-72723002D01*
X193614635Y-73250000D01*
X193644409Y-73408237D01*
X193737927Y-73553567D01*
X193880619Y-73651064D01*
X194050000Y-73685365D01*
X194223000Y-73685365D01*
X194223000Y-74019578D01*
X194169692Y-74072886D01*
X194136221Y-74072857D01*
X193832154Y-74198495D01*
X193599312Y-74430930D01*
X193473144Y-74734778D01*
X193472857Y-75063779D01*
X193598495Y-75367846D01*
X193830930Y-75600688D01*
X194134778Y-75726856D01*
X194463779Y-75727143D01*
X194767846Y-75601505D01*
X195000688Y-75369070D01*
X195126856Y-75065222D01*
X195126886Y-75030536D01*
X195378711Y-74778711D01*
X195408066Y-74734778D01*
X195525466Y-74559077D01*
X195577000Y-74300000D01*
X195577000Y-73680285D01*
X195708237Y-73655591D01*
X195853567Y-73562073D01*
X195951064Y-73419381D01*
X195985365Y-73250000D01*
X195985365Y-71950000D01*
X195955591Y-71791763D01*
X195862073Y-71646433D01*
X195719381Y-71548936D01*
X195577000Y-71520103D01*
X195577000Y-71405285D01*
X195708237Y-71380591D01*
X195853567Y-71287073D01*
X195951064Y-71144381D01*
X195985365Y-70975000D01*
X195985365Y-69725000D01*
X195955591Y-69566763D01*
X195862073Y-69421433D01*
X195719381Y-69323936D01*
X195550000Y-69289635D01*
X195517000Y-69289635D01*
X195517000Y-68878047D01*
X195860355Y-68648625D01*
X196173158Y-68180482D01*
X196283000Y-67628270D01*
X196283000Y-67571730D01*
X196173158Y-67019518D01*
X195860355Y-66551375D01*
X195727000Y-66462270D01*
X195727000Y-64280686D01*
X195970418Y-64180108D01*
X196428499Y-63722825D01*
X196676717Y-63125050D01*
X196677282Y-62477789D01*
X196430108Y-61879582D01*
X195972825Y-61421501D01*
X195375050Y-61173283D01*
X194727789Y-61172718D01*
X194129582Y-61419892D01*
X193671501Y-61877175D01*
X193423283Y-62474950D01*
X193422718Y-63122211D01*
X193669892Y-63720418D01*
X194127175Y-64178499D01*
X194373000Y-64280575D01*
X194373000Y-66221622D01*
X194287788Y-66238572D01*
X193951000Y-66463606D01*
X193951000Y-65226998D01*
X193316000Y-65226998D01*
X193316000Y-65949000D01*
X192966750Y-65949000D01*
X192808000Y-66107750D01*
X192808000Y-67092000D01*
X193316000Y-67092000D01*
X193316000Y-67976998D01*
X193050000Y-67976998D01*
X193050000Y-68108000D01*
X192808000Y-68108000D01*
X192808000Y-69092250D01*
X192819750Y-69104000D01*
X192675000Y-69248750D01*
X192675000Y-70037500D01*
X193050000Y-70037500D01*
X193050000Y-70662500D01*
X192675000Y-70662500D01*
X192675000Y-70975000D01*
X191925000Y-70975000D01*
X191925000Y-70662500D01*
X191073750Y-70662500D01*
X190915000Y-70821250D01*
X190915000Y-70975000D01*
X190577000Y-70975000D01*
X190577000Y-68266750D01*
X190649000Y-68266750D01*
X190649000Y-68742309D01*
X190745673Y-68975698D01*
X190924301Y-69154327D01*
X191135264Y-69241711D01*
X191011673Y-69365301D01*
X190915000Y-69598690D01*
X190915000Y-69878750D01*
X191073750Y-70037500D01*
X191925000Y-70037500D01*
X191925000Y-69248750D01*
X191780250Y-69104000D01*
X191792000Y-69092250D01*
X191792000Y-68108000D01*
X190807750Y-68108000D01*
X190649000Y-68266750D01*
X190577000Y-68266750D01*
X190577000Y-66457691D01*
X190649000Y-66457691D01*
X190649000Y-66933250D01*
X190807750Y-67092000D01*
X191792000Y-67092000D01*
X191792000Y-66107750D01*
X191633250Y-65949000D01*
X191157690Y-65949000D01*
X190924301Y-66045673D01*
X190745673Y-66224302D01*
X190649000Y-66457691D01*
X190577000Y-66457691D01*
X190577000Y-64900000D01*
X190541941Y-64720508D01*
X190485232Y-64635000D01*
X190791250Y-64635000D01*
X190950000Y-64476250D01*
X190950000Y-63400000D01*
X192150000Y-63400000D01*
X192150000Y-64476250D01*
X192308750Y-64635000D01*
X192876309Y-64635000D01*
X193109698Y-64538327D01*
X193288327Y-64359699D01*
X193385000Y-64126310D01*
X193385000Y-63558750D01*
X193226250Y-63400000D01*
X192150000Y-63400000D01*
X190950000Y-63400000D01*
X190350000Y-63400000D01*
X190350000Y-62200000D01*
X190950000Y-62200000D01*
X190950000Y-61123750D01*
X192150000Y-61123750D01*
X192150000Y-62200000D01*
X193226250Y-62200000D01*
X193385000Y-62041250D01*
X193385000Y-61473690D01*
X193288327Y-61240301D01*
X193109698Y-61061673D01*
X192876309Y-60965000D01*
X192308750Y-60965000D01*
X192150000Y-61123750D01*
X190950000Y-61123750D01*
X190791250Y-60965000D01*
X190350000Y-60965000D01*
X190350000Y-60426998D01*
X189877000Y-60426998D01*
X189877000Y-59600000D01*
X189841941Y-59420508D01*
X189737290Y-59262710D01*
X188637290Y-58162710D01*
X188485580Y-58060581D01*
X188344443Y-58032000D01*
X196357453Y-58032000D01*
X196614125Y-58083055D01*
X196795652Y-58204348D01*
X196916945Y-58385875D01*
X196968000Y-58642546D01*
X196968000Y-92757454D01*
X196916945Y-93014125D01*
X196795652Y-93195652D01*
X196614125Y-93316945D01*
X196357453Y-93368000D01*
X168642546Y-93368000D01*
X168385875Y-93316945D01*
X168204348Y-93195652D01*
X168083055Y-93014125D01*
X168032000Y-92757453D01*
X168032000Y-92163779D01*
X183572857Y-92163779D01*
X183698495Y-92467846D01*
X183930930Y-92700688D01*
X184234778Y-92826856D01*
X184563779Y-92827143D01*
X184867846Y-92701505D01*
X185100688Y-92469070D01*
X185226856Y-92165222D01*
X185227010Y-91988992D01*
X185930636Y-91285365D01*
X186300000Y-91285365D01*
X186458237Y-91255591D01*
X186603567Y-91162073D01*
X186701064Y-91019381D01*
X186735365Y-90850000D01*
X186735365Y-90577000D01*
X190864635Y-90577000D01*
X190864635Y-90650000D01*
X190894409Y-90808237D01*
X190987927Y-90953567D01*
X191130619Y-91051064D01*
X191300000Y-91085365D01*
X192800000Y-91085365D01*
X192958237Y-91055591D01*
X193103567Y-90962073D01*
X193201064Y-90819381D01*
X193235365Y-90650000D01*
X193235365Y-89350000D01*
X193205591Y-89191763D01*
X193112073Y-89046433D01*
X192969381Y-88948936D01*
X192800000Y-88914635D01*
X191300000Y-88914635D01*
X191141763Y-88944409D01*
X190996433Y-89037927D01*
X190898936Y-89180619D01*
X190864635Y-89350000D01*
X190864635Y-89423000D01*
X186711469Y-89423000D01*
X186705591Y-89391763D01*
X186612073Y-89246433D01*
X186469381Y-89148936D01*
X186300000Y-89114635D01*
X184800000Y-89114635D01*
X184641763Y-89144409D01*
X184496433Y-89237927D01*
X184398936Y-89380619D01*
X184364635Y-89550000D01*
X184364635Y-90850000D01*
X184394409Y-91008237D01*
X184465415Y-91118583D01*
X184410989Y-91173009D01*
X184236221Y-91172857D01*
X183932154Y-91298495D01*
X183699312Y-91530930D01*
X183573144Y-91834778D01*
X183572857Y-92163779D01*
X168032000Y-92163779D01*
X168032000Y-83957741D01*
X172076143Y-83957741D01*
X172237356Y-84187727D01*
X172983452Y-84263153D01*
X173362644Y-84187727D01*
X173523857Y-83957741D01*
X172800000Y-83233883D01*
X172076143Y-83957741D01*
X168032000Y-83957741D01*
X168032000Y-82533452D01*
X170886847Y-82533452D01*
X170962273Y-82912644D01*
X171192259Y-83073857D01*
X171916117Y-82350000D01*
X173683883Y-82350000D01*
X174407741Y-83073857D01*
X174637727Y-82912644D01*
X174713153Y-82166548D01*
X174637727Y-81787356D01*
X174407741Y-81626143D01*
X173683883Y-82350000D01*
X171916117Y-82350000D01*
X171192259Y-81626143D01*
X170962273Y-81787356D01*
X170886847Y-82533452D01*
X168032000Y-82533452D01*
X168032000Y-80742259D01*
X172076143Y-80742259D01*
X172800000Y-81466117D01*
X173523857Y-80742259D01*
X173362644Y-80512273D01*
X172616548Y-80436847D01*
X172237356Y-80512273D01*
X172076143Y-80742259D01*
X168032000Y-80742259D01*
X168032000Y-58642547D01*
X168083055Y-58385875D01*
X168204348Y-58204348D01*
X168385875Y-58083055D01*
X168642546Y-58032000D01*
X169653923Y-58032000D01*
X169520508Y-58058059D01*
G36*
X181664635Y-88050000D02*
X181694409Y-88208237D01*
X181787927Y-88353567D01*
X181930619Y-88451064D01*
X182100000Y-88485365D01*
X182273000Y-88485365D01*
X182273000Y-89114635D01*
X182100000Y-89114635D01*
X181941763Y-89144409D01*
X181796433Y-89237927D01*
X181698936Y-89380619D01*
X181664635Y-89550000D01*
X181664635Y-89623000D01*
X179235415Y-89623000D01*
X179235415Y-89400000D01*
X179223628Y-89337355D01*
X179370808Y-89308078D01*
X179558001Y-89183001D01*
X179757998Y-88983003D01*
X179758001Y-88983001D01*
X179883078Y-88795808D01*
X179914993Y-88635365D01*
X179922770Y-88596272D01*
X180053617Y-88512073D01*
X180151114Y-88369381D01*
X180185415Y-88200000D01*
X180185415Y-88035145D01*
X180195808Y-88033078D01*
X180383001Y-87908001D01*
X180839011Y-87451991D01*
X181013779Y-87452143D01*
X181317846Y-87326505D01*
X181550688Y-87094070D01*
X181664635Y-86819654D01*
X181664635Y-88050000D01*
X181664635Y-88050000D01*
G37*
X181664635Y-88050000D02*
X181694409Y-88208237D01*
X181787927Y-88353567D01*
X181930619Y-88451064D01*
X182100000Y-88485365D01*
X182273000Y-88485365D01*
X182273000Y-89114635D01*
X182100000Y-89114635D01*
X181941763Y-89144409D01*
X181796433Y-89237927D01*
X181698936Y-89380619D01*
X181664635Y-89550000D01*
X181664635Y-89623000D01*
X179235415Y-89623000D01*
X179235415Y-89400000D01*
X179223628Y-89337355D01*
X179370808Y-89308078D01*
X179558001Y-89183001D01*
X179757998Y-88983003D01*
X179758001Y-88983001D01*
X179883078Y-88795808D01*
X179914993Y-88635365D01*
X179922770Y-88596272D01*
X180053617Y-88512073D01*
X180151114Y-88369381D01*
X180185415Y-88200000D01*
X180185415Y-88035145D01*
X180195808Y-88033078D01*
X180383001Y-87908001D01*
X180839011Y-87451991D01*
X181013779Y-87452143D01*
X181317846Y-87326505D01*
X181550688Y-87094070D01*
X181664635Y-86819654D01*
X181664635Y-88050000D01*
G36*
X174773000Y-74000000D02*
X174783006Y-74049410D01*
X174810197Y-74089803D01*
X175610197Y-74889803D01*
X175652211Y-74917666D01*
X175700000Y-74927000D01*
X178773000Y-74927000D01*
X178773000Y-79573000D01*
X169027000Y-79573000D01*
X169027000Y-78957741D01*
X172076143Y-78957741D01*
X172237356Y-79187727D01*
X172983452Y-79263153D01*
X173362644Y-79187727D01*
X173523857Y-78957741D01*
X172800000Y-78233883D01*
X172076143Y-78957741D01*
X169027000Y-78957741D01*
X169027000Y-77533452D01*
X170886847Y-77533452D01*
X170962273Y-77912644D01*
X171192259Y-78073857D01*
X171916117Y-77350000D01*
X173683883Y-77350000D01*
X174407741Y-78073857D01*
X174637727Y-77912644D01*
X174713153Y-77166548D01*
X174637727Y-76787356D01*
X174407741Y-76626143D01*
X173683883Y-77350000D01*
X171916117Y-77350000D01*
X171192259Y-76626143D01*
X170962273Y-76787356D01*
X170886847Y-77533452D01*
X169027000Y-77533452D01*
X169027000Y-75742259D01*
X172076143Y-75742259D01*
X172800000Y-76466117D01*
X173523857Y-75742259D01*
X173362644Y-75512273D01*
X172616548Y-75436847D01*
X172237356Y-75512273D01*
X172076143Y-75742259D01*
X169027000Y-75742259D01*
X169027000Y-74259043D01*
X170368774Y-74259043D01*
X170506706Y-74483497D01*
X171192308Y-74563258D01*
X171593294Y-74483497D01*
X171731226Y-74259043D01*
X171050000Y-73577817D01*
X170368774Y-74259043D01*
X169027000Y-74259043D01*
X169027000Y-72942308D01*
X169286742Y-72942308D01*
X169366503Y-73343294D01*
X169590957Y-73481226D01*
X170272183Y-72800000D01*
X171827817Y-72800000D01*
X172509043Y-73481226D01*
X172733497Y-73343294D01*
X172813258Y-72657692D01*
X172733497Y-72256706D01*
X172509043Y-72118774D01*
X171827817Y-72800000D01*
X170272183Y-72800000D01*
X169590957Y-72118774D01*
X169366503Y-72256706D01*
X169286742Y-72942308D01*
X169027000Y-72942308D01*
X169027000Y-71340957D01*
X170368774Y-71340957D01*
X171050000Y-72022183D01*
X171731226Y-71340957D01*
X171593294Y-71116503D01*
X170907692Y-71036742D01*
X170506706Y-71116503D01*
X170368774Y-71340957D01*
X169027000Y-71340957D01*
X169027000Y-70559043D01*
X170368774Y-70559043D01*
X170506706Y-70783497D01*
X171192308Y-70863258D01*
X171593294Y-70783497D01*
X171731226Y-70559043D01*
X171050000Y-69877817D01*
X170368774Y-70559043D01*
X169027000Y-70559043D01*
X169027000Y-69242308D01*
X169286742Y-69242308D01*
X169366503Y-69643294D01*
X169590957Y-69781226D01*
X170272183Y-69100000D01*
X171827817Y-69100000D01*
X172509043Y-69781226D01*
X172733497Y-69643294D01*
X172813258Y-68957692D01*
X172733497Y-68556706D01*
X172509043Y-68418774D01*
X171827817Y-69100000D01*
X170272183Y-69100000D01*
X169590957Y-68418774D01*
X169366503Y-68556706D01*
X169286742Y-69242308D01*
X169027000Y-69242308D01*
X169027000Y-67640957D01*
X170368774Y-67640957D01*
X171050000Y-68322183D01*
X171731226Y-67640957D01*
X171593294Y-67416503D01*
X170907692Y-67336742D01*
X170506706Y-67416503D01*
X170368774Y-67640957D01*
X169027000Y-67640957D01*
X169027000Y-66877000D01*
X174773000Y-66877000D01*
X174773000Y-74000000D01*
X174773000Y-74000000D01*
G37*
X174773000Y-74000000D02*
X174783006Y-74049410D01*
X174810197Y-74089803D01*
X175610197Y-74889803D01*
X175652211Y-74917666D01*
X175700000Y-74927000D01*
X178773000Y-74927000D01*
X178773000Y-79573000D01*
X169027000Y-79573000D01*
X169027000Y-78957741D01*
X172076143Y-78957741D01*
X172237356Y-79187727D01*
X172983452Y-79263153D01*
X173362644Y-79187727D01*
X173523857Y-78957741D01*
X172800000Y-78233883D01*
X172076143Y-78957741D01*
X169027000Y-78957741D01*
X169027000Y-77533452D01*
X170886847Y-77533452D01*
X170962273Y-77912644D01*
X171192259Y-78073857D01*
X171916117Y-77350000D01*
X173683883Y-77350000D01*
X174407741Y-78073857D01*
X174637727Y-77912644D01*
X174713153Y-77166548D01*
X174637727Y-76787356D01*
X174407741Y-76626143D01*
X173683883Y-77350000D01*
X171916117Y-77350000D01*
X171192259Y-76626143D01*
X170962273Y-76787356D01*
X170886847Y-77533452D01*
X169027000Y-77533452D01*
X169027000Y-75742259D01*
X172076143Y-75742259D01*
X172800000Y-76466117D01*
X173523857Y-75742259D01*
X173362644Y-75512273D01*
X172616548Y-75436847D01*
X172237356Y-75512273D01*
X172076143Y-75742259D01*
X169027000Y-75742259D01*
X169027000Y-74259043D01*
X170368774Y-74259043D01*
X170506706Y-74483497D01*
X171192308Y-74563258D01*
X171593294Y-74483497D01*
X171731226Y-74259043D01*
X171050000Y-73577817D01*
X170368774Y-74259043D01*
X169027000Y-74259043D01*
X169027000Y-72942308D01*
X169286742Y-72942308D01*
X169366503Y-73343294D01*
X169590957Y-73481226D01*
X170272183Y-72800000D01*
X171827817Y-72800000D01*
X172509043Y-73481226D01*
X172733497Y-73343294D01*
X172813258Y-72657692D01*
X172733497Y-72256706D01*
X172509043Y-72118774D01*
X171827817Y-72800000D01*
X170272183Y-72800000D01*
X169590957Y-72118774D01*
X169366503Y-72256706D01*
X169286742Y-72942308D01*
X169027000Y-72942308D01*
X169027000Y-71340957D01*
X170368774Y-71340957D01*
X171050000Y-72022183D01*
X171731226Y-71340957D01*
X171593294Y-71116503D01*
X170907692Y-71036742D01*
X170506706Y-71116503D01*
X170368774Y-71340957D01*
X169027000Y-71340957D01*
X169027000Y-70559043D01*
X170368774Y-70559043D01*
X170506706Y-70783497D01*
X171192308Y-70863258D01*
X171593294Y-70783497D01*
X171731226Y-70559043D01*
X171050000Y-69877817D01*
X170368774Y-70559043D01*
X169027000Y-70559043D01*
X169027000Y-69242308D01*
X169286742Y-69242308D01*
X169366503Y-69643294D01*
X169590957Y-69781226D01*
X170272183Y-69100000D01*
X171827817Y-69100000D01*
X172509043Y-69781226D01*
X172733497Y-69643294D01*
X172813258Y-68957692D01*
X172733497Y-68556706D01*
X172509043Y-68418774D01*
X171827817Y-69100000D01*
X170272183Y-69100000D01*
X169590957Y-68418774D01*
X169366503Y-68556706D01*
X169286742Y-69242308D01*
X169027000Y-69242308D01*
X169027000Y-67640957D01*
X170368774Y-67640957D01*
X171050000Y-68322183D01*
X171731226Y-67640957D01*
X171593294Y-67416503D01*
X170907692Y-67336742D01*
X170506706Y-67416503D01*
X170368774Y-67640957D01*
X169027000Y-67640957D01*
X169027000Y-66877000D01*
X174773000Y-66877000D01*
X174773000Y-74000000D01*
G36*
X174423000Y-60400000D02*
X174455622Y-60573369D01*
X174558083Y-60732598D01*
X174573000Y-60742790D01*
X174573000Y-60800000D01*
X174583006Y-60849410D01*
X174611447Y-60891035D01*
X174653841Y-60918315D01*
X174700000Y-60927000D01*
X177900000Y-60927000D01*
X177949410Y-60916994D01*
X177991035Y-60888553D01*
X178018315Y-60846159D01*
X178027000Y-60800000D01*
X178027000Y-60745519D01*
X178032598Y-60741917D01*
X178139419Y-60585580D01*
X178177000Y-60400000D01*
X178177000Y-60327000D01*
X183473000Y-60327000D01*
X183473000Y-67573000D01*
X180600000Y-67573000D01*
X180550590Y-67583006D01*
X180510197Y-67610197D01*
X178810197Y-69310197D01*
X178782334Y-69352211D01*
X178773000Y-69400000D01*
X178773000Y-70273000D01*
X175427000Y-70273000D01*
X175427000Y-66400000D01*
X175416994Y-66350590D01*
X175388553Y-66308965D01*
X175346159Y-66281685D01*
X175300000Y-66273000D01*
X169027000Y-66273000D01*
X169027000Y-59352606D01*
X169752606Y-58627000D01*
X174423000Y-58627000D01*
X174423000Y-60400000D01*
X174423000Y-60400000D01*
G37*
X174423000Y-60400000D02*
X174455622Y-60573369D01*
X174558083Y-60732598D01*
X174573000Y-60742790D01*
X174573000Y-60800000D01*
X174583006Y-60849410D01*
X174611447Y-60891035D01*
X174653841Y-60918315D01*
X174700000Y-60927000D01*
X177900000Y-60927000D01*
X177949410Y-60916994D01*
X177991035Y-60888553D01*
X178018315Y-60846159D01*
X178027000Y-60800000D01*
X178027000Y-60745519D01*
X178032598Y-60741917D01*
X178139419Y-60585580D01*
X178177000Y-60400000D01*
X178177000Y-60327000D01*
X183473000Y-60327000D01*
X183473000Y-67573000D01*
X180600000Y-67573000D01*
X180550590Y-67583006D01*
X180510197Y-67610197D01*
X178810197Y-69310197D01*
X178782334Y-69352211D01*
X178773000Y-69400000D01*
X178773000Y-70273000D01*
X175427000Y-70273000D01*
X175427000Y-66400000D01*
X175416994Y-66350590D01*
X175388553Y-66308965D01*
X175346159Y-66281685D01*
X175300000Y-66273000D01*
X169027000Y-66273000D01*
X169027000Y-59352606D01*
X169752606Y-58627000D01*
X174423000Y-58627000D01*
X174423000Y-60400000D01*
G36*
X189273000Y-59652606D02*
X189273000Y-64200000D01*
X189283006Y-64249410D01*
X189310197Y-64289803D01*
X189973000Y-64952606D01*
X189973000Y-73947394D01*
X189210197Y-74710197D01*
X189182334Y-74752211D01*
X189173000Y-74800000D01*
X189173000Y-79073000D01*
X186927000Y-79073000D01*
X186927000Y-74900000D01*
X186916994Y-74850590D01*
X186889803Y-74810197D01*
X186027000Y-73947394D01*
X186027000Y-69600000D01*
X186016994Y-69550590D01*
X185989803Y-69510197D01*
X184227000Y-67747394D01*
X184227000Y-59800000D01*
X184216994Y-59750590D01*
X184188553Y-59708965D01*
X184146159Y-59681685D01*
X184100000Y-59673000D01*
X177700000Y-59673000D01*
X177650590Y-59683006D01*
X177608965Y-59711447D01*
X177581685Y-59753841D01*
X177573000Y-59800000D01*
X177573000Y-60273000D01*
X175027000Y-60273000D01*
X175027000Y-58627000D01*
X188247394Y-58627000D01*
X189273000Y-59652606D01*
X189273000Y-59652606D01*
G37*
X189273000Y-59652606D02*
X189273000Y-64200000D01*
X189283006Y-64249410D01*
X189310197Y-64289803D01*
X189973000Y-64952606D01*
X189973000Y-73947394D01*
X189210197Y-74710197D01*
X189182334Y-74752211D01*
X189173000Y-74800000D01*
X189173000Y-79073000D01*
X186927000Y-79073000D01*
X186927000Y-74900000D01*
X186916994Y-74850590D01*
X186889803Y-74810197D01*
X186027000Y-73947394D01*
X186027000Y-69600000D01*
X186016994Y-69550590D01*
X185989803Y-69510197D01*
X184227000Y-67747394D01*
X184227000Y-59800000D01*
X184216994Y-59750590D01*
X184188553Y-59708965D01*
X184146159Y-59681685D01*
X184100000Y-59673000D01*
X177700000Y-59673000D01*
X177650590Y-59683006D01*
X177608965Y-59711447D01*
X177581685Y-59753841D01*
X177573000Y-59800000D01*
X177573000Y-60273000D01*
X175027000Y-60273000D01*
X175027000Y-58627000D01*
X188247394Y-58627000D01*
X189273000Y-59652606D01*
M02*
