M48
;DRILL file {KiCad 4.0.2-stable} date 22.05.2016 21:35:46
;FORMAT={-:-/ absolute / metric / decimal}
FMAT,2
METRIC,TZ
T1C0.400
T2C1.001
T3C1.016
T4C1.200
T5C1.300
T6C1.650
%
G90
G05
M71
T1
X168.6Y-58.6
X168.6Y-81.4
X168.6Y-82.54
X168.6Y-83.68
X168.6Y-84.82
X168.6Y-85.96
X168.6Y-87.1
X168.6Y-88.24
X168.6Y-89.38
X168.6Y-90.52
X168.6Y-91.66
X168.6Y-92.8
X169.712Y-92.8
X170.824Y-92.8
X171.936Y-92.8
X173.048Y-92.8
X174.16Y-92.8
X175.272Y-92.8
X176.384Y-92.8
X177.496Y-92.8
X178.608Y-92.8
X179.72Y-92.8
X180.682Y-88.85
X180.832Y-92.8
X180.85Y-86.625
X181.944Y-92.8
X183.056Y-92.8
X183.825Y-84.975
X184.4Y-92.
X189.728Y-58.6
X190.8Y-81.925
X190.84Y-58.6
X191.952Y-58.6
X192.55Y-78.625
X193.064Y-58.6
X193.45Y-77.175
X194.176Y-58.6
X194.176Y-92.8
X194.3Y-74.9
X195.288Y-58.6
X195.288Y-92.8
X196.4Y-58.6
X196.4Y-59.74
X196.4Y-60.88
X196.4Y-64.3
X196.4Y-65.44
X196.4Y-66.58
X196.4Y-68.86
X196.4Y-70.
X196.4Y-71.14
X196.4Y-72.28
X196.4Y-73.42
X196.4Y-74.56
X196.4Y-75.7
X196.4Y-76.84
X196.4Y-77.98
X196.4Y-79.12
X196.4Y-80.26
X196.4Y-81.4
X196.4Y-82.54
X196.4Y-83.68
X196.4Y-84.82
X196.4Y-85.96
X196.4Y-87.1
X196.4Y-88.24
X196.4Y-89.38
X196.4Y-90.52
X196.4Y-91.66
X196.4Y-92.8
T2
X185.51Y-76.6
X188.05Y-76.6
X190.59Y-76.6
T3
X192.3Y-67.6
X194.84Y-67.6
T4
X191.55Y-62.8
X195.05Y-62.8
T5
X172.8Y-77.35
X172.8Y-82.35
X181.5Y-62.4
X186.5Y-62.4
T6
X171.05Y-60.9
X171.05Y-64.6
X171.05Y-69.1
X171.05Y-72.8
T0
M30
