G04 #@! TF.FileFunction,Legend,Bot*
%FSLAX46Y46*%
G04 Gerber Fmt 4.6, Leading zero omitted, Abs format (unit mm)*
G04 Created by KiCad (PCBNEW 4.0.2-stable) date 16.05.2016 20:40:08*
%MOMM*%
G01*
G04 APERTURE LIST*
%ADD10C,0.100000*%
%ADD11C,0.198120*%
%ADD12C,0.175000*%
%ADD13C,0.195580*%
%ADD14C,0.150000*%
G04 APERTURE END LIST*
D10*
D11*
X185390000Y-91000000D02*
X193010000Y-91000000D01*
X193010000Y-85800000D02*
X185390000Y-85800000D01*
X185390000Y-91000000D02*
X185390000Y-85800000D01*
X193010000Y-85800000D02*
X193010000Y-91000000D01*
X194450000Y-90510000D02*
X194890000Y-90510000D01*
X195340000Y-89450000D02*
X195210000Y-89370000D01*
X195210000Y-89370000D02*
X195050000Y-89240000D01*
X195050000Y-89240000D02*
X194910000Y-89070000D01*
X194910000Y-89070000D02*
X194880000Y-88980000D01*
X194880000Y-88980000D02*
X194880000Y-90510000D01*
X194880000Y-90510000D02*
X195320000Y-90510000D01*
X193890000Y-89800000D02*
X193890000Y-89600000D01*
X193990000Y-89600000D02*
X193990000Y-89800000D01*
X194090000Y-89900000D02*
X194090000Y-89500000D01*
X194190000Y-89500000D02*
X194190000Y-89900000D01*
X194290000Y-90000000D02*
X194290000Y-89400000D01*
X193590000Y-89700000D02*
X194390000Y-90100000D01*
X194390000Y-90100000D02*
X194390000Y-89300000D01*
X194390000Y-89300000D02*
X193590000Y-89700000D01*
X193400000Y-74200000D02*
X193400000Y-69000000D01*
X193400000Y-69000000D02*
X188200000Y-69000000D01*
X188200000Y-69000000D02*
X188200000Y-74200000D01*
X188200000Y-74200000D02*
X193400000Y-74200000D01*
D12*
X189827381Y-85184524D02*
X189827381Y-84334524D01*
X189503572Y-84334524D01*
X189422619Y-84375000D01*
X189382143Y-84415476D01*
X189341667Y-84496429D01*
X189341667Y-84617857D01*
X189382143Y-84698810D01*
X189422619Y-84739286D01*
X189503572Y-84779762D01*
X189827381Y-84779762D01*
X189017857Y-84415476D02*
X188977381Y-84375000D01*
X188896429Y-84334524D01*
X188694048Y-84334524D01*
X188613095Y-84375000D01*
X188572619Y-84415476D01*
X188532143Y-84496429D01*
X188532143Y-84577381D01*
X188572619Y-84698810D01*
X189058333Y-85184524D01*
X188532143Y-85184524D01*
D13*
X193206426Y-94255600D02*
X193253840Y-94303013D01*
X193396080Y-94350427D01*
X193490906Y-94350427D01*
X193633146Y-94303013D01*
X193727973Y-94208187D01*
X193775386Y-94113360D01*
X193822800Y-93923707D01*
X193822800Y-93781467D01*
X193775386Y-93591813D01*
X193727973Y-93496987D01*
X193633146Y-93402160D01*
X193490906Y-93354747D01*
X193396080Y-93354747D01*
X193253840Y-93402160D01*
X193206426Y-93449573D01*
X192590053Y-93354747D02*
X192400400Y-93354747D01*
X192305573Y-93402160D01*
X192210746Y-93496987D01*
X192163333Y-93686640D01*
X192163333Y-94018533D01*
X192210746Y-94208187D01*
X192305573Y-94303013D01*
X192400400Y-94350427D01*
X192590053Y-94350427D01*
X192684880Y-94303013D01*
X192779706Y-94208187D01*
X192827120Y-94018533D01*
X192827120Y-93686640D01*
X192779706Y-93496987D01*
X192684880Y-93402160D01*
X192590053Y-93354747D01*
X191736613Y-94350427D02*
X191736613Y-93354747D01*
X191167653Y-94350427D01*
X191167653Y-93354747D01*
X190693520Y-94350427D02*
X190693520Y-93354747D01*
X190124560Y-94350427D01*
X190124560Y-93354747D01*
X189887494Y-94445253D02*
X189128881Y-94445253D01*
X188702161Y-93354747D02*
X188607334Y-93354747D01*
X188512508Y-93402160D01*
X188465094Y-93449573D01*
X188417681Y-93544400D01*
X188370268Y-93734053D01*
X188370268Y-93971120D01*
X188417681Y-94160773D01*
X188465094Y-94255600D01*
X188512508Y-94303013D01*
X188607334Y-94350427D01*
X188702161Y-94350427D01*
X188796988Y-94303013D01*
X188844401Y-94255600D01*
X188891814Y-94160773D01*
X188939228Y-93971120D01*
X188939228Y-93734053D01*
X188891814Y-93544400D01*
X188844401Y-93449573D01*
X188796988Y-93402160D01*
X188702161Y-93354747D01*
X187990961Y-93449573D02*
X187943547Y-93402160D01*
X187848721Y-93354747D01*
X187611654Y-93354747D01*
X187516827Y-93402160D01*
X187469414Y-93449573D01*
X187422001Y-93544400D01*
X187422001Y-93639227D01*
X187469414Y-93781467D01*
X188038374Y-94350427D01*
X187422001Y-94350427D01*
X187090107Y-93354747D02*
X186426320Y-94350427D01*
X186426320Y-93354747D02*
X187090107Y-94350427D01*
X185857360Y-93354747D02*
X185762533Y-93354747D01*
X185667707Y-93402160D01*
X185620293Y-93449573D01*
X185572880Y-93544400D01*
X185525467Y-93734053D01*
X185525467Y-93971120D01*
X185572880Y-94160773D01*
X185620293Y-94255600D01*
X185667707Y-94303013D01*
X185762533Y-94350427D01*
X185857360Y-94350427D01*
X185952187Y-94303013D01*
X185999600Y-94255600D01*
X186047013Y-94160773D01*
X186094427Y-93971120D01*
X186094427Y-93734053D01*
X186047013Y-93544400D01*
X185999600Y-93449573D01*
X185952187Y-93402160D01*
X185857360Y-93354747D01*
X185193573Y-93354747D02*
X184577200Y-93354747D01*
X184909093Y-93734053D01*
X184766853Y-93734053D01*
X184672026Y-93781467D01*
X184624613Y-93828880D01*
X184577200Y-93923707D01*
X184577200Y-94160773D01*
X184624613Y-94255600D01*
X184672026Y-94303013D01*
X184766853Y-94350427D01*
X185051333Y-94350427D01*
X185146160Y-94303013D01*
X185193573Y-94255600D01*
D11*
X196451576Y-70863218D02*
X195453356Y-70863218D01*
X195453356Y-71243493D01*
X195500890Y-71338561D01*
X195548424Y-71386096D01*
X195643493Y-71433630D01*
X195786096Y-71433630D01*
X195881164Y-71386096D01*
X195928699Y-71338561D01*
X195976233Y-71243493D01*
X195976233Y-70863218D01*
X195453356Y-72289247D02*
X195453356Y-72099110D01*
X195500890Y-72004041D01*
X195548424Y-71956507D01*
X195691027Y-71861438D01*
X195881164Y-71813904D01*
X196261439Y-71813904D01*
X196356507Y-71861438D01*
X196404041Y-71908973D01*
X196451576Y-72004041D01*
X196451576Y-72194178D01*
X196404041Y-72289247D01*
X196356507Y-72336781D01*
X196261439Y-72384316D01*
X196023767Y-72384316D01*
X195928699Y-72336781D01*
X195881164Y-72289247D01*
X195833630Y-72194178D01*
X195833630Y-72004041D01*
X195881164Y-71908973D01*
X195928699Y-71861438D01*
X196023767Y-71813904D01*
D13*
X185655600Y-67593574D02*
X185703013Y-67546160D01*
X185750427Y-67403920D01*
X185750427Y-67309094D01*
X185703013Y-67166854D01*
X185608187Y-67072027D01*
X185513360Y-67024614D01*
X185323707Y-66977200D01*
X185181467Y-66977200D01*
X184991813Y-67024614D01*
X184896987Y-67072027D01*
X184802160Y-67166854D01*
X184754747Y-67309094D01*
X184754747Y-67403920D01*
X184802160Y-67546160D01*
X184849573Y-67593574D01*
X184754747Y-68209947D02*
X184754747Y-68399600D01*
X184802160Y-68494427D01*
X184896987Y-68589254D01*
X185086640Y-68636667D01*
X185418533Y-68636667D01*
X185608187Y-68589254D01*
X185703013Y-68494427D01*
X185750427Y-68399600D01*
X185750427Y-68209947D01*
X185703013Y-68115120D01*
X185608187Y-68020294D01*
X185418533Y-67972880D01*
X185086640Y-67972880D01*
X184896987Y-68020294D01*
X184802160Y-68115120D01*
X184754747Y-68209947D01*
X185750427Y-69063387D02*
X184754747Y-69063387D01*
X185750427Y-69632347D01*
X184754747Y-69632347D01*
X185750427Y-70106480D02*
X184754747Y-70106480D01*
X185750427Y-70675440D01*
X184754747Y-70675440D01*
X185845253Y-70912506D02*
X185845253Y-71671119D01*
X184754747Y-72097839D02*
X184754747Y-72192666D01*
X184802160Y-72287492D01*
X184849573Y-72334906D01*
X184944400Y-72382319D01*
X185134053Y-72429732D01*
X185371120Y-72429732D01*
X185560773Y-72382319D01*
X185655600Y-72334906D01*
X185703013Y-72287492D01*
X185750427Y-72192666D01*
X185750427Y-72097839D01*
X185703013Y-72003012D01*
X185655600Y-71955599D01*
X185560773Y-71908186D01*
X185371120Y-71860772D01*
X185134053Y-71860772D01*
X184944400Y-71908186D01*
X184849573Y-71955599D01*
X184802160Y-72003012D01*
X184754747Y-72097839D01*
X184849573Y-72809039D02*
X184802160Y-72856453D01*
X184754747Y-72951279D01*
X184754747Y-73188346D01*
X184802160Y-73283173D01*
X184849573Y-73330586D01*
X184944400Y-73377999D01*
X185039227Y-73377999D01*
X185181467Y-73330586D01*
X185750427Y-72761626D01*
X185750427Y-73377999D01*
X184754747Y-73709893D02*
X185750427Y-74373680D01*
X184754747Y-74373680D02*
X185750427Y-73709893D01*
X184754747Y-74942640D02*
X184754747Y-75037467D01*
X184802160Y-75132293D01*
X184849573Y-75179707D01*
X184944400Y-75227120D01*
X185134053Y-75274533D01*
X185371120Y-75274533D01*
X185560773Y-75227120D01*
X185655600Y-75179707D01*
X185703013Y-75132293D01*
X185750427Y-75037467D01*
X185750427Y-74942640D01*
X185703013Y-74847813D01*
X185655600Y-74800400D01*
X185560773Y-74752987D01*
X185371120Y-74705573D01*
X185134053Y-74705573D01*
X184944400Y-74752987D01*
X184849573Y-74800400D01*
X184802160Y-74847813D01*
X184754747Y-74942640D01*
X184849573Y-75653840D02*
X184802160Y-75701254D01*
X184754747Y-75796080D01*
X184754747Y-76033147D01*
X184802160Y-76127974D01*
X184849573Y-76175387D01*
X184944400Y-76222800D01*
X185039227Y-76222800D01*
X185181467Y-76175387D01*
X185750427Y-75606427D01*
X185750427Y-76222800D01*
D14*
X190114285Y-73252381D02*
X190685714Y-73252381D01*
X190400000Y-73252381D02*
X190400000Y-72252381D01*
X190495238Y-72395238D01*
X190590476Y-72490476D01*
X190685714Y-72538095D01*
M02*
