G04 #@! TF.FileFunction,Copper,L2,Bot,Signal*
%FSLAX46Y46*%
G04 Gerber Fmt 4.6, Leading zero omitted, Abs format (unit mm)*
G04 Created by KiCad (PCBNEW 4.0.1-stable) date 07.03.2016 23:08:01*
%MOMM*%
G01*
G04 APERTURE LIST*
%ADD10C,0.100000*%
%ADD11C,0.600000*%
%ADD12O,4.000000X6.500000*%
%ADD13C,2.500000*%
%ADD14O,1.998980X1.998980*%
%ADD15R,1.998980X1.998980*%
%ADD16R,2.032000X2.032000*%
%ADD17O,2.032000X2.032000*%
%ADD18O,1.699260X3.500120*%
%ADD19C,5.000000*%
%ADD20R,1.727200X1.727200*%
%ADD21O,1.727200X1.727200*%
%ADD22C,0.500000*%
%ADD23C,5.000000*%
%ADD24C,2.500000*%
%ADD25C,0.254000*%
G04 APERTURE END LIST*
D10*
D11*
X138400000Y-145000000D03*
X141500000Y-143800000D03*
X130300000Y-151600000D03*
X128800000Y-151600000D03*
X127300000Y-151600000D03*
X130300000Y-150100000D03*
X128800000Y-150100000D03*
X127300000Y-150100000D03*
X130300000Y-148600000D03*
X128800000Y-148600000D03*
X127300000Y-148600000D03*
X130300000Y-147100000D03*
X128800000Y-147100000D03*
X127300000Y-147100000D03*
X137300000Y-124600000D03*
X138300000Y-122100000D03*
X137900000Y-120400000D03*
X117800000Y-111100000D03*
X116300000Y-111100000D03*
X114800000Y-111100000D03*
X117800000Y-109600000D03*
X116300000Y-109600000D03*
X114800000Y-109600000D03*
X117800000Y-108100000D03*
X116300000Y-108100000D03*
X114800000Y-108100000D03*
X134300000Y-114600000D03*
X134300000Y-113100000D03*
X134300000Y-111600000D03*
X125800000Y-151600000D03*
X124300000Y-151600000D03*
X122800000Y-151600000D03*
X125800000Y-150100000D03*
X124300000Y-150100000D03*
X122800000Y-150100000D03*
X125800000Y-148600000D03*
X124300000Y-148600000D03*
X122800000Y-148600000D03*
X125800000Y-147100000D03*
X124300000Y-147100000D03*
X122800000Y-147100000D03*
X125800000Y-145600000D03*
X124300000Y-145600000D03*
X122800000Y-145600000D03*
X125800000Y-144100000D03*
X124300000Y-144100000D03*
X122800000Y-144100000D03*
X125800000Y-142600000D03*
X124300000Y-142600000D03*
X122800000Y-142600000D03*
X125800000Y-141100000D03*
X124300000Y-141100000D03*
D12*
X117550000Y-129100000D03*
X117550000Y-119600000D03*
D13*
X117150000Y-146150000D03*
X117150000Y-151150000D03*
D14*
X139670000Y-109400000D03*
D15*
X137130000Y-109400000D03*
D16*
X137400000Y-117200000D03*
D17*
X139940000Y-117200000D03*
D13*
X131100000Y-110400000D03*
X126100000Y-110400000D03*
D18*
X129600000Y-120800000D03*
X132140000Y-120800000D03*
X127060000Y-120800000D03*
D19*
X131000000Y-134000000D03*
D11*
X122800000Y-141100000D03*
D20*
X140000000Y-150000000D03*
D21*
X140000000Y-152540000D03*
X137460000Y-150000000D03*
X137460000Y-152540000D03*
X134920000Y-150000000D03*
X134920000Y-152540000D03*
X132380000Y-150000000D03*
X132380000Y-152540000D03*
D11*
X139200000Y-130800000D03*
X141200000Y-137600000D03*
X136400000Y-138200000D03*
D22*
X139940000Y-117200000D02*
X139940000Y-109670000D01*
X139940000Y-109670000D02*
X139670000Y-109400000D01*
X139200000Y-130800000D02*
X134400000Y-135600000D01*
X141260000Y-152540000D02*
X140000000Y-152540000D01*
X142000000Y-151800000D02*
X141260000Y-152540000D01*
X142000000Y-148400000D02*
X142000000Y-151800000D01*
X141400000Y-147800000D02*
X142000000Y-148400000D01*
X137200000Y-147800000D02*
X141400000Y-147800000D01*
X134400000Y-145000000D02*
X137200000Y-147800000D01*
X134400000Y-135600000D02*
X134400000Y-145000000D01*
X139940000Y-117200000D02*
X139940000Y-130060000D01*
X139940000Y-130060000D02*
X139200000Y-130800000D01*
X140000000Y-152540000D02*
X140660000Y-152540000D01*
D23*
X126100000Y-110400000D02*
X117550000Y-118950000D01*
X117550000Y-118950000D02*
X117550000Y-119600000D01*
D24*
X129600000Y-120800000D02*
X129600000Y-114750000D01*
X129600000Y-114750000D02*
X131100000Y-113250000D01*
X131100000Y-113250000D02*
X131100000Y-110400000D01*
D22*
X141000000Y-137800000D02*
X141200000Y-137600000D01*
X136800000Y-137800000D02*
X141000000Y-137800000D01*
X136400000Y-138200000D02*
X136800000Y-137800000D01*
D25*
G36*
X142368000Y-147244892D02*
X142161554Y-147038446D01*
X141812150Y-146804982D01*
X141400000Y-146723000D01*
X137646108Y-146723000D01*
X135477000Y-144553892D01*
X135477000Y-138870599D01*
X135760772Y-139154867D01*
X136174842Y-139326804D01*
X136623191Y-139327195D01*
X137037560Y-139155981D01*
X137317029Y-138877000D01*
X141000000Y-138877000D01*
X141412150Y-138795018D01*
X141660246Y-138629246D01*
X141837560Y-138555981D01*
X142154867Y-138239228D01*
X142326804Y-137825158D01*
X142327195Y-137376809D01*
X142155981Y-136962440D01*
X141839228Y-136645133D01*
X141425158Y-136473196D01*
X140976809Y-136472805D01*
X140562440Y-136644019D01*
X140483321Y-136723000D01*
X136800000Y-136723000D01*
X136387850Y-136804982D01*
X136038446Y-137038446D01*
X135882467Y-137194425D01*
X135762440Y-137244019D01*
X135477000Y-137528961D01*
X135477000Y-136046108D01*
X139717533Y-131805575D01*
X139837560Y-131755981D01*
X140154867Y-131439228D01*
X140205274Y-131317834D01*
X140701554Y-130821554D01*
X140935018Y-130472150D01*
X141017000Y-130060000D01*
X141017000Y-118690446D01*
X141243198Y-118539305D01*
X141642710Y-117941393D01*
X141783000Y-117236107D01*
X141783000Y-117163893D01*
X141642710Y-116458607D01*
X141243198Y-115860695D01*
X141017000Y-115709554D01*
X141017000Y-110662049D01*
X141393240Y-110098967D01*
X141532273Y-109400000D01*
X141393240Y-108701033D01*
X140997306Y-108108477D01*
X140404750Y-107712543D01*
X139705783Y-107573510D01*
X139634217Y-107573510D01*
X138935250Y-107712543D01*
X138578153Y-107951148D01*
X138489188Y-107862183D01*
X138255799Y-107765510D01*
X137661750Y-107765510D01*
X137503000Y-107924260D01*
X137503000Y-109027000D01*
X137523000Y-109027000D01*
X137523000Y-109773000D01*
X137503000Y-109773000D01*
X137503000Y-110875740D01*
X137661750Y-111034490D01*
X138255799Y-111034490D01*
X138489188Y-110937817D01*
X138578153Y-110848852D01*
X138863000Y-111039181D01*
X138863000Y-115709554D01*
X138848961Y-115718935D01*
X138775699Y-115645673D01*
X138542310Y-115549000D01*
X137931750Y-115549000D01*
X137773000Y-115707750D01*
X137773000Y-116827000D01*
X137793000Y-116827000D01*
X137793000Y-117573000D01*
X137773000Y-117573000D01*
X137773000Y-118692250D01*
X137931750Y-118851000D01*
X138542310Y-118851000D01*
X138775699Y-118754327D01*
X138848961Y-118681065D01*
X138863000Y-118690446D01*
X138863000Y-129613892D01*
X138682467Y-129794425D01*
X138562440Y-129844019D01*
X138245133Y-130160772D01*
X138194726Y-130282166D01*
X134326870Y-134150022D01*
X134327576Y-133341122D01*
X133822138Y-132117868D01*
X132887055Y-131181151D01*
X131664685Y-130673579D01*
X130341122Y-130672424D01*
X129117868Y-131177862D01*
X128181151Y-132112945D01*
X127673579Y-133335315D01*
X127672424Y-134658878D01*
X128177862Y-135882132D01*
X129112945Y-136818849D01*
X130335315Y-137326421D01*
X131658878Y-137327576D01*
X132882132Y-136822138D01*
X133323000Y-136382039D01*
X133323000Y-145000000D01*
X133404982Y-145412150D01*
X133638446Y-145761554D01*
X136438446Y-148561554D01*
X136508567Y-148608407D01*
X136264565Y-148771444D01*
X136190000Y-148883038D01*
X136115435Y-148771444D01*
X135566965Y-148404968D01*
X134920000Y-148276279D01*
X134273035Y-148404968D01*
X133724565Y-148771444D01*
X133524514Y-149070841D01*
X133422687Y-148923576D01*
X132975463Y-148624782D01*
X132753000Y-148713117D01*
X132753000Y-149627000D01*
X132773000Y-149627000D01*
X132773000Y-150373000D01*
X132753000Y-150373000D01*
X132753000Y-152167000D01*
X132773000Y-152167000D01*
X132773000Y-152913000D01*
X132753000Y-152913000D01*
X132753000Y-152933000D01*
X132007000Y-152933000D01*
X132007000Y-152913000D01*
X131087283Y-152913000D01*
X131004753Y-153135467D01*
X131337313Y-153616424D01*
X131564186Y-153768000D01*
X113032000Y-153768000D01*
X113032000Y-152632289D01*
X116195213Y-152632289D01*
X116343561Y-152894553D01*
X117072559Y-153070368D01*
X117813347Y-152953824D01*
X117956439Y-152894553D01*
X118104787Y-152632289D01*
X117150000Y-151677502D01*
X116195213Y-152632289D01*
X113032000Y-152632289D01*
X113032000Y-151072559D01*
X115229632Y-151072559D01*
X115346176Y-151813347D01*
X115405447Y-151956439D01*
X115667711Y-152104787D01*
X116622498Y-151150000D01*
X117677502Y-151150000D01*
X118632289Y-152104787D01*
X118894553Y-151956439D01*
X119070368Y-151227441D01*
X118970944Y-150595467D01*
X131004753Y-150595467D01*
X131337313Y-151076424D01*
X131627051Y-151270000D01*
X131337313Y-151463576D01*
X131004753Y-151944533D01*
X131087283Y-152167000D01*
X132007000Y-152167000D01*
X132007000Y-150373000D01*
X131087283Y-150373000D01*
X131004753Y-150595467D01*
X118970944Y-150595467D01*
X118953824Y-150486653D01*
X118894553Y-150343561D01*
X118632289Y-150195213D01*
X117677502Y-151150000D01*
X116622498Y-151150000D01*
X115667711Y-150195213D01*
X115405447Y-150343561D01*
X115229632Y-151072559D01*
X113032000Y-151072559D01*
X113032000Y-149667711D01*
X116195213Y-149667711D01*
X117150000Y-150622498D01*
X118104787Y-149667711D01*
X117956439Y-149405447D01*
X117952650Y-149404533D01*
X131004753Y-149404533D01*
X131087283Y-149627000D01*
X132007000Y-149627000D01*
X132007000Y-148713117D01*
X131784537Y-148624782D01*
X131337313Y-148923576D01*
X131004753Y-149404533D01*
X117952650Y-149404533D01*
X117227441Y-149229632D01*
X116486653Y-149346176D01*
X116343561Y-149405447D01*
X116195213Y-149667711D01*
X113032000Y-149667711D01*
X113032000Y-146561328D01*
X115072640Y-146561328D01*
X115388178Y-147324989D01*
X115971938Y-147909768D01*
X116735047Y-148226639D01*
X117561328Y-148227360D01*
X118324989Y-147911822D01*
X118909768Y-147328062D01*
X119226639Y-146564953D01*
X119227360Y-145738672D01*
X118911822Y-144975011D01*
X118328062Y-144390232D01*
X117564953Y-144073361D01*
X116738672Y-144072640D01*
X115975011Y-144388178D01*
X115390232Y-144971938D01*
X115073361Y-145735047D01*
X115072640Y-146561328D01*
X113032000Y-146561328D01*
X113032000Y-127770127D01*
X114723000Y-127770127D01*
X114723000Y-130429873D01*
X114938193Y-131511719D01*
X115551009Y-132428864D01*
X116468154Y-133041680D01*
X117550000Y-133256873D01*
X118631846Y-133041680D01*
X119548991Y-132428864D01*
X120161807Y-131511719D01*
X120377000Y-130429873D01*
X120377000Y-127770127D01*
X120161807Y-126688281D01*
X119548991Y-125771136D01*
X118631846Y-125158320D01*
X117550000Y-124943127D01*
X116468154Y-125158320D01*
X115551009Y-125771136D01*
X114938193Y-126688281D01*
X114723000Y-127770127D01*
X113032000Y-127770127D01*
X113032000Y-118950000D01*
X114223000Y-118950000D01*
X114223000Y-119600000D01*
X114476253Y-120873188D01*
X114811536Y-121374975D01*
X114938193Y-122011719D01*
X115551009Y-122928864D01*
X116468154Y-123541680D01*
X117550000Y-123756873D01*
X118631846Y-123541680D01*
X119548991Y-122928864D01*
X120161807Y-122011719D01*
X120288464Y-121374975D01*
X120423419Y-121173000D01*
X125575370Y-121173000D01*
X125575370Y-122073430D01*
X125831122Y-122613180D01*
X126273959Y-123013972D01*
X126466794Y-123061398D01*
X126687000Y-122972762D01*
X126687000Y-121173000D01*
X125575370Y-121173000D01*
X120423419Y-121173000D01*
X120623747Y-120873188D01*
X120696214Y-120508874D01*
X121678518Y-119526570D01*
X125575370Y-119526570D01*
X125575370Y-120427000D01*
X126687000Y-120427000D01*
X126687000Y-118627238D01*
X126466794Y-118538602D01*
X126273959Y-118586028D01*
X125831122Y-118986820D01*
X125575370Y-119526570D01*
X121678518Y-119526570D01*
X128452544Y-112752544D01*
X129023000Y-111898796D01*
X129023000Y-112389678D01*
X128131339Y-113281339D01*
X127681102Y-113955166D01*
X127681102Y-113955167D01*
X127523000Y-114750000D01*
X127523000Y-118591012D01*
X127433000Y-118627238D01*
X127433000Y-120427000D01*
X127453000Y-120427000D01*
X127453000Y-121173000D01*
X127433000Y-121173000D01*
X127433000Y-122972762D01*
X127653206Y-123061398D01*
X127846041Y-123013972D01*
X128232512Y-122664194D01*
X128414444Y-122936474D01*
X128958381Y-123299922D01*
X129600000Y-123427548D01*
X130241619Y-123299922D01*
X130785556Y-122936474D01*
X130870000Y-122810095D01*
X130954444Y-122936474D01*
X131498381Y-123299922D01*
X132140000Y-123427548D01*
X132781619Y-123299922D01*
X133325556Y-122936474D01*
X133689004Y-122392537D01*
X133816630Y-121750918D01*
X133816630Y-119849082D01*
X133689004Y-119207463D01*
X133325556Y-118663526D01*
X132781619Y-118300078D01*
X132140000Y-118172452D01*
X131677000Y-118264548D01*
X131677000Y-117731750D01*
X135749000Y-117731750D01*
X135749000Y-118342309D01*
X135845673Y-118575698D01*
X136024301Y-118754327D01*
X136257690Y-118851000D01*
X136868250Y-118851000D01*
X137027000Y-118692250D01*
X137027000Y-117573000D01*
X135907750Y-117573000D01*
X135749000Y-117731750D01*
X131677000Y-117731750D01*
X131677000Y-116057691D01*
X135749000Y-116057691D01*
X135749000Y-116668250D01*
X135907750Y-116827000D01*
X137027000Y-116827000D01*
X137027000Y-115707750D01*
X136868250Y-115549000D01*
X136257690Y-115549000D01*
X136024301Y-115645673D01*
X135845673Y-115824302D01*
X135749000Y-116057691D01*
X131677000Y-116057691D01*
X131677000Y-115610322D01*
X132568661Y-114718661D01*
X133018897Y-114044834D01*
X133018898Y-114044833D01*
X133177000Y-113250000D01*
X133177000Y-110401239D01*
X133177360Y-109988672D01*
X133153841Y-109931750D01*
X135495510Y-109931750D01*
X135495510Y-110525800D01*
X135592183Y-110759189D01*
X135770812Y-110937817D01*
X136004201Y-111034490D01*
X136598250Y-111034490D01*
X136757000Y-110875740D01*
X136757000Y-109773000D01*
X135654260Y-109773000D01*
X135495510Y-109931750D01*
X133153841Y-109931750D01*
X132861822Y-109225011D01*
X132278062Y-108640232D01*
X131514953Y-108323361D01*
X130688672Y-108322640D01*
X129925011Y-108638178D01*
X129340232Y-109221938D01*
X129240462Y-109462211D01*
X129173747Y-109126812D01*
X128604050Y-108274200D01*
X135495510Y-108274200D01*
X135495510Y-108868250D01*
X135654260Y-109027000D01*
X136757000Y-109027000D01*
X136757000Y-107924260D01*
X136598250Y-107765510D01*
X136004201Y-107765510D01*
X135770812Y-107862183D01*
X135592183Y-108040811D01*
X135495510Y-108274200D01*
X128604050Y-108274200D01*
X128452544Y-108047456D01*
X127373188Y-107326253D01*
X126100000Y-107073000D01*
X124826813Y-107326253D01*
X123747456Y-108047456D01*
X115197456Y-116597456D01*
X114476253Y-117676812D01*
X114223000Y-118950000D01*
X113032000Y-118950000D01*
X113032000Y-106232000D01*
X142368000Y-106232000D01*
X142368000Y-147244892D01*
X142368000Y-147244892D01*
G37*
X142368000Y-147244892D02*
X142161554Y-147038446D01*
X141812150Y-146804982D01*
X141400000Y-146723000D01*
X137646108Y-146723000D01*
X135477000Y-144553892D01*
X135477000Y-138870599D01*
X135760772Y-139154867D01*
X136174842Y-139326804D01*
X136623191Y-139327195D01*
X137037560Y-139155981D01*
X137317029Y-138877000D01*
X141000000Y-138877000D01*
X141412150Y-138795018D01*
X141660246Y-138629246D01*
X141837560Y-138555981D01*
X142154867Y-138239228D01*
X142326804Y-137825158D01*
X142327195Y-137376809D01*
X142155981Y-136962440D01*
X141839228Y-136645133D01*
X141425158Y-136473196D01*
X140976809Y-136472805D01*
X140562440Y-136644019D01*
X140483321Y-136723000D01*
X136800000Y-136723000D01*
X136387850Y-136804982D01*
X136038446Y-137038446D01*
X135882467Y-137194425D01*
X135762440Y-137244019D01*
X135477000Y-137528961D01*
X135477000Y-136046108D01*
X139717533Y-131805575D01*
X139837560Y-131755981D01*
X140154867Y-131439228D01*
X140205274Y-131317834D01*
X140701554Y-130821554D01*
X140935018Y-130472150D01*
X141017000Y-130060000D01*
X141017000Y-118690446D01*
X141243198Y-118539305D01*
X141642710Y-117941393D01*
X141783000Y-117236107D01*
X141783000Y-117163893D01*
X141642710Y-116458607D01*
X141243198Y-115860695D01*
X141017000Y-115709554D01*
X141017000Y-110662049D01*
X141393240Y-110098967D01*
X141532273Y-109400000D01*
X141393240Y-108701033D01*
X140997306Y-108108477D01*
X140404750Y-107712543D01*
X139705783Y-107573510D01*
X139634217Y-107573510D01*
X138935250Y-107712543D01*
X138578153Y-107951148D01*
X138489188Y-107862183D01*
X138255799Y-107765510D01*
X137661750Y-107765510D01*
X137503000Y-107924260D01*
X137503000Y-109027000D01*
X137523000Y-109027000D01*
X137523000Y-109773000D01*
X137503000Y-109773000D01*
X137503000Y-110875740D01*
X137661750Y-111034490D01*
X138255799Y-111034490D01*
X138489188Y-110937817D01*
X138578153Y-110848852D01*
X138863000Y-111039181D01*
X138863000Y-115709554D01*
X138848961Y-115718935D01*
X138775699Y-115645673D01*
X138542310Y-115549000D01*
X137931750Y-115549000D01*
X137773000Y-115707750D01*
X137773000Y-116827000D01*
X137793000Y-116827000D01*
X137793000Y-117573000D01*
X137773000Y-117573000D01*
X137773000Y-118692250D01*
X137931750Y-118851000D01*
X138542310Y-118851000D01*
X138775699Y-118754327D01*
X138848961Y-118681065D01*
X138863000Y-118690446D01*
X138863000Y-129613892D01*
X138682467Y-129794425D01*
X138562440Y-129844019D01*
X138245133Y-130160772D01*
X138194726Y-130282166D01*
X134326870Y-134150022D01*
X134327576Y-133341122D01*
X133822138Y-132117868D01*
X132887055Y-131181151D01*
X131664685Y-130673579D01*
X130341122Y-130672424D01*
X129117868Y-131177862D01*
X128181151Y-132112945D01*
X127673579Y-133335315D01*
X127672424Y-134658878D01*
X128177862Y-135882132D01*
X129112945Y-136818849D01*
X130335315Y-137326421D01*
X131658878Y-137327576D01*
X132882132Y-136822138D01*
X133323000Y-136382039D01*
X133323000Y-145000000D01*
X133404982Y-145412150D01*
X133638446Y-145761554D01*
X136438446Y-148561554D01*
X136508567Y-148608407D01*
X136264565Y-148771444D01*
X136190000Y-148883038D01*
X136115435Y-148771444D01*
X135566965Y-148404968D01*
X134920000Y-148276279D01*
X134273035Y-148404968D01*
X133724565Y-148771444D01*
X133524514Y-149070841D01*
X133422687Y-148923576D01*
X132975463Y-148624782D01*
X132753000Y-148713117D01*
X132753000Y-149627000D01*
X132773000Y-149627000D01*
X132773000Y-150373000D01*
X132753000Y-150373000D01*
X132753000Y-152167000D01*
X132773000Y-152167000D01*
X132773000Y-152913000D01*
X132753000Y-152913000D01*
X132753000Y-152933000D01*
X132007000Y-152933000D01*
X132007000Y-152913000D01*
X131087283Y-152913000D01*
X131004753Y-153135467D01*
X131337313Y-153616424D01*
X131564186Y-153768000D01*
X113032000Y-153768000D01*
X113032000Y-152632289D01*
X116195213Y-152632289D01*
X116343561Y-152894553D01*
X117072559Y-153070368D01*
X117813347Y-152953824D01*
X117956439Y-152894553D01*
X118104787Y-152632289D01*
X117150000Y-151677502D01*
X116195213Y-152632289D01*
X113032000Y-152632289D01*
X113032000Y-151072559D01*
X115229632Y-151072559D01*
X115346176Y-151813347D01*
X115405447Y-151956439D01*
X115667711Y-152104787D01*
X116622498Y-151150000D01*
X117677502Y-151150000D01*
X118632289Y-152104787D01*
X118894553Y-151956439D01*
X119070368Y-151227441D01*
X118970944Y-150595467D01*
X131004753Y-150595467D01*
X131337313Y-151076424D01*
X131627051Y-151270000D01*
X131337313Y-151463576D01*
X131004753Y-151944533D01*
X131087283Y-152167000D01*
X132007000Y-152167000D01*
X132007000Y-150373000D01*
X131087283Y-150373000D01*
X131004753Y-150595467D01*
X118970944Y-150595467D01*
X118953824Y-150486653D01*
X118894553Y-150343561D01*
X118632289Y-150195213D01*
X117677502Y-151150000D01*
X116622498Y-151150000D01*
X115667711Y-150195213D01*
X115405447Y-150343561D01*
X115229632Y-151072559D01*
X113032000Y-151072559D01*
X113032000Y-149667711D01*
X116195213Y-149667711D01*
X117150000Y-150622498D01*
X118104787Y-149667711D01*
X117956439Y-149405447D01*
X117952650Y-149404533D01*
X131004753Y-149404533D01*
X131087283Y-149627000D01*
X132007000Y-149627000D01*
X132007000Y-148713117D01*
X131784537Y-148624782D01*
X131337313Y-148923576D01*
X131004753Y-149404533D01*
X117952650Y-149404533D01*
X117227441Y-149229632D01*
X116486653Y-149346176D01*
X116343561Y-149405447D01*
X116195213Y-149667711D01*
X113032000Y-149667711D01*
X113032000Y-146561328D01*
X115072640Y-146561328D01*
X115388178Y-147324989D01*
X115971938Y-147909768D01*
X116735047Y-148226639D01*
X117561328Y-148227360D01*
X118324989Y-147911822D01*
X118909768Y-147328062D01*
X119226639Y-146564953D01*
X119227360Y-145738672D01*
X118911822Y-144975011D01*
X118328062Y-144390232D01*
X117564953Y-144073361D01*
X116738672Y-144072640D01*
X115975011Y-144388178D01*
X115390232Y-144971938D01*
X115073361Y-145735047D01*
X115072640Y-146561328D01*
X113032000Y-146561328D01*
X113032000Y-127770127D01*
X114723000Y-127770127D01*
X114723000Y-130429873D01*
X114938193Y-131511719D01*
X115551009Y-132428864D01*
X116468154Y-133041680D01*
X117550000Y-133256873D01*
X118631846Y-133041680D01*
X119548991Y-132428864D01*
X120161807Y-131511719D01*
X120377000Y-130429873D01*
X120377000Y-127770127D01*
X120161807Y-126688281D01*
X119548991Y-125771136D01*
X118631846Y-125158320D01*
X117550000Y-124943127D01*
X116468154Y-125158320D01*
X115551009Y-125771136D01*
X114938193Y-126688281D01*
X114723000Y-127770127D01*
X113032000Y-127770127D01*
X113032000Y-118950000D01*
X114223000Y-118950000D01*
X114223000Y-119600000D01*
X114476253Y-120873188D01*
X114811536Y-121374975D01*
X114938193Y-122011719D01*
X115551009Y-122928864D01*
X116468154Y-123541680D01*
X117550000Y-123756873D01*
X118631846Y-123541680D01*
X119548991Y-122928864D01*
X120161807Y-122011719D01*
X120288464Y-121374975D01*
X120423419Y-121173000D01*
X125575370Y-121173000D01*
X125575370Y-122073430D01*
X125831122Y-122613180D01*
X126273959Y-123013972D01*
X126466794Y-123061398D01*
X126687000Y-122972762D01*
X126687000Y-121173000D01*
X125575370Y-121173000D01*
X120423419Y-121173000D01*
X120623747Y-120873188D01*
X120696214Y-120508874D01*
X121678518Y-119526570D01*
X125575370Y-119526570D01*
X125575370Y-120427000D01*
X126687000Y-120427000D01*
X126687000Y-118627238D01*
X126466794Y-118538602D01*
X126273959Y-118586028D01*
X125831122Y-118986820D01*
X125575370Y-119526570D01*
X121678518Y-119526570D01*
X128452544Y-112752544D01*
X129023000Y-111898796D01*
X129023000Y-112389678D01*
X128131339Y-113281339D01*
X127681102Y-113955166D01*
X127681102Y-113955167D01*
X127523000Y-114750000D01*
X127523000Y-118591012D01*
X127433000Y-118627238D01*
X127433000Y-120427000D01*
X127453000Y-120427000D01*
X127453000Y-121173000D01*
X127433000Y-121173000D01*
X127433000Y-122972762D01*
X127653206Y-123061398D01*
X127846041Y-123013972D01*
X128232512Y-122664194D01*
X128414444Y-122936474D01*
X128958381Y-123299922D01*
X129600000Y-123427548D01*
X130241619Y-123299922D01*
X130785556Y-122936474D01*
X130870000Y-122810095D01*
X130954444Y-122936474D01*
X131498381Y-123299922D01*
X132140000Y-123427548D01*
X132781619Y-123299922D01*
X133325556Y-122936474D01*
X133689004Y-122392537D01*
X133816630Y-121750918D01*
X133816630Y-119849082D01*
X133689004Y-119207463D01*
X133325556Y-118663526D01*
X132781619Y-118300078D01*
X132140000Y-118172452D01*
X131677000Y-118264548D01*
X131677000Y-117731750D01*
X135749000Y-117731750D01*
X135749000Y-118342309D01*
X135845673Y-118575698D01*
X136024301Y-118754327D01*
X136257690Y-118851000D01*
X136868250Y-118851000D01*
X137027000Y-118692250D01*
X137027000Y-117573000D01*
X135907750Y-117573000D01*
X135749000Y-117731750D01*
X131677000Y-117731750D01*
X131677000Y-116057691D01*
X135749000Y-116057691D01*
X135749000Y-116668250D01*
X135907750Y-116827000D01*
X137027000Y-116827000D01*
X137027000Y-115707750D01*
X136868250Y-115549000D01*
X136257690Y-115549000D01*
X136024301Y-115645673D01*
X135845673Y-115824302D01*
X135749000Y-116057691D01*
X131677000Y-116057691D01*
X131677000Y-115610322D01*
X132568661Y-114718661D01*
X133018897Y-114044834D01*
X133018898Y-114044833D01*
X133177000Y-113250000D01*
X133177000Y-110401239D01*
X133177360Y-109988672D01*
X133153841Y-109931750D01*
X135495510Y-109931750D01*
X135495510Y-110525800D01*
X135592183Y-110759189D01*
X135770812Y-110937817D01*
X136004201Y-111034490D01*
X136598250Y-111034490D01*
X136757000Y-110875740D01*
X136757000Y-109773000D01*
X135654260Y-109773000D01*
X135495510Y-109931750D01*
X133153841Y-109931750D01*
X132861822Y-109225011D01*
X132278062Y-108640232D01*
X131514953Y-108323361D01*
X130688672Y-108322640D01*
X129925011Y-108638178D01*
X129340232Y-109221938D01*
X129240462Y-109462211D01*
X129173747Y-109126812D01*
X128604050Y-108274200D01*
X135495510Y-108274200D01*
X135495510Y-108868250D01*
X135654260Y-109027000D01*
X136757000Y-109027000D01*
X136757000Y-107924260D01*
X136598250Y-107765510D01*
X136004201Y-107765510D01*
X135770812Y-107862183D01*
X135592183Y-108040811D01*
X135495510Y-108274200D01*
X128604050Y-108274200D01*
X128452544Y-108047456D01*
X127373188Y-107326253D01*
X126100000Y-107073000D01*
X124826813Y-107326253D01*
X123747456Y-108047456D01*
X115197456Y-116597456D01*
X114476253Y-117676812D01*
X114223000Y-118950000D01*
X113032000Y-118950000D01*
X113032000Y-106232000D01*
X142368000Y-106232000D01*
X142368000Y-147244892D01*
M02*
