G04 #@! TF.FileFunction,Soldermask,Top*
%FSLAX46Y46*%
G04 Gerber Fmt 4.6, Leading zero omitted, Abs format (unit mm)*
G04 Created by KiCad (PCBNEW 4.0.1-stable) date 07.03.2016 23:08:01*
%MOMM*%
G01*
G04 APERTURE LIST*
%ADD10C,0.100000*%
%ADD11R,2.200860X1.997660*%
%ADD12R,2.000200X2.599640*%
%ADD13O,4.400000X6.900000*%
%ADD14C,2.900000*%
%ADD15O,2.398980X2.398980*%
%ADD16R,2.398980X2.398980*%
%ADD17R,2.432000X2.432000*%
%ADD18O,2.432000X2.432000*%
%ADD19O,2.099260X3.900120*%
%ADD20R,2.099260X1.649680*%
%ADD21R,2.100000X2.400000*%
%ADD22R,2.400000X2.100000*%
%ADD23C,5.400000*%
%ADD24R,1.800000X1.200100*%
%ADD25R,2.127200X2.127200*%
%ADD26O,2.127200X2.127200*%
G04 APERTURE END LIST*
D10*
D11*
X126400000Y-135619860D03*
X126400000Y-132780140D03*
D12*
X124300080Y-127200000D03*
X128099920Y-127200000D03*
D13*
X117550000Y-129100000D03*
X117550000Y-119600000D03*
D14*
X117150000Y-146150000D03*
X117150000Y-151150000D03*
D15*
X139670000Y-109400000D03*
D16*
X137130000Y-109400000D03*
D17*
X137400000Y-117200000D03*
D18*
X139940000Y-117200000D03*
D14*
X131100000Y-110400000D03*
X126100000Y-110400000D03*
D19*
X129600000Y-120800000D03*
X132140000Y-120800000D03*
X127060000Y-120800000D03*
D20*
X141400000Y-128375460D03*
X141400000Y-124824540D03*
D21*
X141400000Y-132000000D03*
X141400000Y-136000000D03*
D22*
X140200000Y-140400000D03*
X136200000Y-140400000D03*
D21*
X132800000Y-138400000D03*
X132800000Y-142400000D03*
D22*
X135600000Y-129400000D03*
X131600000Y-129400000D03*
D21*
X128400000Y-140000000D03*
X128400000Y-144000000D03*
D23*
X131000000Y-134000000D03*
D24*
X138000000Y-134750000D03*
X138000000Y-132850000D03*
X135400000Y-133800000D03*
D25*
X140000000Y-150000000D03*
D26*
X140000000Y-152540000D03*
X137460000Y-150000000D03*
X137460000Y-152540000D03*
X134920000Y-150000000D03*
X134920000Y-152540000D03*
X132380000Y-150000000D03*
X132380000Y-152540000D03*
M02*
