G04 #@! TF.FileFunction,Copper,L2,Bot,Signal*
%FSLAX46Y46*%
G04 Gerber Fmt 4.6, Leading zero omitted, Abs format (unit mm)*
G04 Created by KiCad (PCBNEW 4.0.2-stable) date 22.05.2016 21:35:43*
%MOMM*%
G01*
G04 APERTURE LIST*
%ADD10C,0.100000*%
%ADD11C,2.200000*%
%ADD12C,2.500000*%
%ADD13C,0.500000*%
%ADD14R,1.020000X3.450000*%
%ADD15C,2.400000*%
%ADD16R,2.400000X2.400000*%
%ADD17R,2.032000X2.032000*%
%ADD18O,2.032000X2.032000*%
%ADD19O,1.699260X3.500120*%
%ADD20C,3.200000*%
%ADD21R,3.450000X1.020000*%
%ADD22C,0.800000*%
%ADD23C,0.500000*%
%ADD24C,0.300000*%
%ADD25C,0.254000*%
G04 APERTURE END LIST*
D10*
D11*
X171050000Y-69100000D03*
X171050000Y-72800000D03*
X171050000Y-64600000D03*
X171050000Y-60900000D03*
D12*
X186500000Y-62400000D03*
X181500000Y-62400000D03*
X172800000Y-77350000D03*
X172800000Y-82350000D03*
D13*
X180682000Y-88850000D03*
X196400000Y-92800000D03*
X195288000Y-92800000D03*
X194176000Y-92800000D03*
X183056000Y-92800000D03*
X181944000Y-92800000D03*
X180832000Y-92800000D03*
X179720000Y-92800000D03*
X178608000Y-92800000D03*
X177496000Y-92800000D03*
X176384000Y-92800000D03*
X175272000Y-92800000D03*
X174160000Y-92800000D03*
X173048000Y-92800000D03*
X171936000Y-92800000D03*
X170824000Y-92800000D03*
X169712000Y-92800000D03*
X196400000Y-91660000D03*
X196400000Y-90520000D03*
X196400000Y-89380000D03*
X196400000Y-88240000D03*
X196400000Y-87100000D03*
X196400000Y-85960000D03*
X196400000Y-84820000D03*
X196400000Y-83680000D03*
X196400000Y-82540000D03*
X196400000Y-81400000D03*
X196400000Y-80260000D03*
X196400000Y-79120000D03*
X196400000Y-77980000D03*
X196400000Y-76840000D03*
X196400000Y-75700000D03*
X196400000Y-74560000D03*
X196400000Y-73420000D03*
X196400000Y-72280000D03*
X196400000Y-71140000D03*
X196400000Y-70000000D03*
X196400000Y-68860000D03*
X196400000Y-66580000D03*
X196400000Y-65440000D03*
X196400000Y-64300000D03*
X196400000Y-60880000D03*
X196400000Y-59740000D03*
X168600000Y-92800000D03*
X168600000Y-91660000D03*
X168600000Y-90520000D03*
X168600000Y-89380000D03*
X168600000Y-88240000D03*
X168600000Y-87100000D03*
X168600000Y-85960000D03*
X168600000Y-84820000D03*
X168600000Y-83680000D03*
X168600000Y-82540000D03*
X168600000Y-81400000D03*
X196400000Y-58600000D03*
X195288000Y-58600000D03*
X194176000Y-58600000D03*
X193064000Y-58600000D03*
X191952000Y-58600000D03*
X190840000Y-58600000D03*
X189728000Y-58600000D03*
D14*
X186660000Y-85675000D03*
X186660000Y-91125000D03*
X191740000Y-91125000D03*
X191740000Y-85675000D03*
X189200000Y-91125000D03*
X189200000Y-85675000D03*
D15*
X195050000Y-62800000D03*
D16*
X191550000Y-62800000D03*
D17*
X192300000Y-67600000D03*
D18*
X194840000Y-67600000D03*
D19*
X188050000Y-76600000D03*
X190590000Y-76600000D03*
X185510000Y-76600000D03*
D20*
X188050000Y-81600000D03*
D13*
X168600000Y-58600000D03*
D21*
X188075000Y-72870000D03*
X193525000Y-72870000D03*
X188075000Y-70330000D03*
X193525000Y-70330000D03*
D22*
X194300000Y-74900000D03*
X184400000Y-92000000D03*
X190800000Y-81925000D03*
X193450000Y-77175000D03*
X183825000Y-84975000D03*
X180850000Y-86625000D03*
X192550000Y-78625000D03*
D23*
X191740000Y-85675000D02*
X192400000Y-85675000D01*
X195150000Y-75750000D02*
X194300000Y-74900000D01*
X195150000Y-82925000D02*
X195150000Y-75750000D01*
X192400000Y-85675000D02*
X195150000Y-82925000D01*
D24*
X184400000Y-92000000D02*
X185275000Y-91125000D01*
X185275000Y-91125000D02*
X186660000Y-91125000D01*
X190800000Y-81925000D02*
X192600000Y-81925000D01*
X193450000Y-79325000D02*
X193450000Y-77175000D01*
X193450000Y-81075000D02*
X193450000Y-79325000D01*
X192600000Y-81925000D02*
X193450000Y-81075000D01*
X190850000Y-81925000D02*
X190800000Y-81925000D01*
X193450000Y-77175000D02*
X193525000Y-77250000D01*
X183825000Y-84975000D02*
X183925000Y-85075000D01*
X183925000Y-85075000D02*
X186060000Y-85075000D01*
X186060000Y-85075000D02*
X186660000Y-85675000D01*
X188350000Y-88225000D02*
X189200000Y-87375000D01*
X182450000Y-88225000D02*
X188350000Y-88225000D01*
X180850000Y-86625000D02*
X182450000Y-88225000D01*
X189200000Y-87375000D02*
X189200000Y-85675000D01*
X188050000Y-76600000D02*
X188050000Y-77375000D01*
X188050000Y-77375000D02*
X190500000Y-79825000D01*
X190500000Y-79825000D02*
X191350000Y-79825000D01*
X191350000Y-79825000D02*
X192550000Y-78625000D01*
D25*
G36*
X169520508Y-58058059D02*
X169362710Y-58162710D01*
X168562710Y-58962710D01*
X168460581Y-59114420D01*
X168423000Y-59300000D01*
X168423000Y-66400000D01*
X168452261Y-66555506D01*
X168423000Y-66700000D01*
X168423000Y-79700000D01*
X168455622Y-79873369D01*
X168558083Y-80032598D01*
X168714420Y-80139419D01*
X168900000Y-80177000D01*
X178900000Y-80177000D01*
X179073369Y-80144378D01*
X179232598Y-80041917D01*
X179339419Y-79885580D01*
X179377000Y-79700000D01*
X179377000Y-77708758D01*
X184032302Y-77708758D01*
X184224509Y-78258391D01*
X184612420Y-78692631D01*
X184867879Y-78839013D01*
X185085185Y-78756412D01*
X185085185Y-77475030D01*
X184176655Y-77475030D01*
X184032302Y-77708758D01*
X179377000Y-77708758D01*
X179377000Y-72988805D01*
X179450624Y-73166989D01*
X180427866Y-74145938D01*
X181705348Y-74676395D01*
X183088584Y-74677602D01*
X183136998Y-74657598D01*
X183136998Y-74849940D01*
X184306398Y-74849940D01*
X184224509Y-74941609D01*
X184032302Y-75491242D01*
X184176655Y-75724970D01*
X185085185Y-75724970D01*
X185085185Y-74849940D01*
X185934815Y-74849940D01*
X185934815Y-75724970D01*
X186323000Y-75724970D01*
X186323000Y-77475030D01*
X185934815Y-77475030D01*
X185934815Y-78756412D01*
X186152121Y-78839013D01*
X186323000Y-78741097D01*
X186323000Y-79200000D01*
X186355622Y-79373369D01*
X186458083Y-79532598D01*
X186614420Y-79639419D01*
X186800000Y-79677000D01*
X187396025Y-79677000D01*
X186903297Y-79880591D01*
X186332595Y-80450298D01*
X186023353Y-81195036D01*
X186022649Y-82001426D01*
X186330591Y-82746703D01*
X186900298Y-83317405D01*
X187645036Y-83626647D01*
X188402934Y-83627309D01*
X188386433Y-83637927D01*
X188288936Y-83780619D01*
X188254635Y-83950000D01*
X188254635Y-87400000D01*
X188271162Y-87487836D01*
X188110998Y-87648000D01*
X187517346Y-87648000D01*
X187571064Y-87569381D01*
X187605365Y-87400000D01*
X187605365Y-83950000D01*
X187575591Y-83791763D01*
X187482073Y-83646433D01*
X187339381Y-83548936D01*
X187170000Y-83514635D01*
X186150000Y-83514635D01*
X185991763Y-83544409D01*
X185846433Y-83637927D01*
X185748936Y-83780619D01*
X185714635Y-83950000D01*
X185714635Y-84498000D01*
X184517367Y-84498000D01*
X184294070Y-84274312D01*
X183990222Y-84148144D01*
X183661221Y-84147857D01*
X183357154Y-84273495D01*
X183124312Y-84505930D01*
X182998144Y-84809778D01*
X182997857Y-85138779D01*
X183123495Y-85442846D01*
X183355930Y-85675688D01*
X183659778Y-85801856D01*
X183988779Y-85802143D01*
X184292846Y-85676505D01*
X184317394Y-85652000D01*
X185714635Y-85652000D01*
X185714635Y-87400000D01*
X185744409Y-87558237D01*
X185802170Y-87648000D01*
X182689001Y-87648000D01*
X181676991Y-86635989D01*
X181677143Y-86461221D01*
X181551505Y-86157154D01*
X181319070Y-85924312D01*
X181015222Y-85798144D01*
X180686221Y-85797857D01*
X180382154Y-85923495D01*
X180149312Y-86155930D01*
X180023144Y-86459778D01*
X180022857Y-86788779D01*
X180148495Y-87092846D01*
X180380930Y-87325688D01*
X180684778Y-87451856D01*
X180861008Y-87452010D01*
X182041997Y-88632998D01*
X182041999Y-88633001D01*
X182229192Y-88758078D01*
X182450000Y-88802001D01*
X182450005Y-88802000D01*
X188349995Y-88802000D01*
X188350000Y-88802001D01*
X188570808Y-88758078D01*
X188758001Y-88633001D01*
X189555636Y-87835365D01*
X189710000Y-87835365D01*
X189868237Y-87805591D01*
X190013567Y-87712073D01*
X190111064Y-87569381D01*
X190145365Y-87400000D01*
X190145365Y-83950000D01*
X190794635Y-83950000D01*
X190794635Y-87400000D01*
X190824409Y-87558237D01*
X190917927Y-87703567D01*
X191060619Y-87801064D01*
X191230000Y-87835365D01*
X192250000Y-87835365D01*
X192408237Y-87805591D01*
X192553567Y-87712073D01*
X192651064Y-87569381D01*
X192685365Y-87400000D01*
X192685365Y-86282901D01*
X192878711Y-86153711D01*
X195628711Y-83403712D01*
X195702089Y-83293894D01*
X195775466Y-83184077D01*
X195827000Y-82925000D01*
X195827000Y-75750000D01*
X195808485Y-75656919D01*
X195775467Y-75490924D01*
X195628712Y-75271289D01*
X195127114Y-74769691D01*
X195127143Y-74736221D01*
X195001505Y-74432154D01*
X194769070Y-74199312D01*
X194465222Y-74073144D01*
X194136221Y-74072857D01*
X193832154Y-74198495D01*
X193599312Y-74430930D01*
X193473144Y-74734778D01*
X193472857Y-75063779D01*
X193598495Y-75367846D01*
X193830930Y-75600688D01*
X194134778Y-75726856D01*
X194169464Y-75726886D01*
X194473000Y-76030423D01*
X194473000Y-82644577D01*
X192685365Y-84432213D01*
X192685365Y-83950000D01*
X192655591Y-83791763D01*
X192562073Y-83646433D01*
X192419381Y-83548936D01*
X192250000Y-83514635D01*
X191230000Y-83514635D01*
X191071763Y-83544409D01*
X190926433Y-83637927D01*
X190828936Y-83780619D01*
X190794635Y-83950000D01*
X190145365Y-83950000D01*
X190115591Y-83791763D01*
X190022073Y-83646433D01*
X189879381Y-83548936D01*
X189710000Y-83514635D01*
X188724220Y-83514635D01*
X189196703Y-83319409D01*
X189767405Y-82749702D01*
X190007265Y-82172054D01*
X190098495Y-82392846D01*
X190330930Y-82625688D01*
X190634778Y-82751856D01*
X190963779Y-82752143D01*
X191267846Y-82626505D01*
X191392569Y-82502000D01*
X192599995Y-82502000D01*
X192600000Y-82502001D01*
X192820808Y-82458078D01*
X193008001Y-82333001D01*
X193857998Y-81483003D01*
X193858001Y-81483001D01*
X193983078Y-81295808D01*
X193997462Y-81223495D01*
X194027001Y-81075000D01*
X194027000Y-81074995D01*
X194027000Y-77767542D01*
X194150688Y-77644070D01*
X194276856Y-77340222D01*
X194277143Y-77011221D01*
X194151505Y-76707154D01*
X193919070Y-76474312D01*
X193615222Y-76348144D01*
X193286221Y-76347857D01*
X192982154Y-76473495D01*
X192749312Y-76705930D01*
X192623144Y-77009778D01*
X192622857Y-77338779D01*
X192748495Y-77642846D01*
X192873000Y-77767569D01*
X192873000Y-77863659D01*
X192715222Y-77798144D01*
X192386221Y-77797857D01*
X192082154Y-77923495D01*
X191849312Y-78155930D01*
X191723144Y-78459778D01*
X191722990Y-78636008D01*
X191110998Y-79248000D01*
X190739001Y-79248000D01*
X190241364Y-78750363D01*
X190590000Y-78819711D01*
X191078545Y-78722533D01*
X191492714Y-78445795D01*
X191769452Y-78031626D01*
X191866630Y-77543081D01*
X191866630Y-75656919D01*
X191769452Y-75168374D01*
X191492714Y-74754205D01*
X191078545Y-74477467D01*
X190590000Y-74380289D01*
X190345696Y-74428884D01*
X190437290Y-74337290D01*
X190539419Y-74185580D01*
X190577000Y-74000000D01*
X190577000Y-73283750D01*
X191165000Y-73283750D01*
X191165000Y-73506309D01*
X191261673Y-73739698D01*
X191440301Y-73918327D01*
X191673690Y-74015000D01*
X192503750Y-74015000D01*
X192662500Y-73856250D01*
X192662500Y-73125000D01*
X194387500Y-73125000D01*
X194387500Y-73856250D01*
X194546250Y-74015000D01*
X195376310Y-74015000D01*
X195609699Y-73918327D01*
X195788327Y-73739698D01*
X195885000Y-73506309D01*
X195885000Y-73283750D01*
X195726250Y-73125000D01*
X194387500Y-73125000D01*
X192662500Y-73125000D01*
X191323750Y-73125000D01*
X191165000Y-73283750D01*
X190577000Y-73283750D01*
X190577000Y-72233691D01*
X191165000Y-72233691D01*
X191165000Y-72456250D01*
X191323750Y-72615000D01*
X192662500Y-72615000D01*
X192662500Y-71883750D01*
X194387500Y-71883750D01*
X194387500Y-72615000D01*
X195726250Y-72615000D01*
X195885000Y-72456250D01*
X195885000Y-72233691D01*
X195788327Y-72000302D01*
X195609699Y-71821673D01*
X195376310Y-71725000D01*
X194546250Y-71725000D01*
X194387500Y-71883750D01*
X192662500Y-71883750D01*
X192503750Y-71725000D01*
X191673690Y-71725000D01*
X191440301Y-71821673D01*
X191261673Y-72000302D01*
X191165000Y-72233691D01*
X190577000Y-72233691D01*
X190577000Y-70743750D01*
X191165000Y-70743750D01*
X191165000Y-70966309D01*
X191261673Y-71199698D01*
X191440301Y-71378327D01*
X191673690Y-71475000D01*
X192503750Y-71475000D01*
X192662500Y-71316250D01*
X192662500Y-70585000D01*
X194387500Y-70585000D01*
X194387500Y-71316250D01*
X194546250Y-71475000D01*
X195376310Y-71475000D01*
X195609699Y-71378327D01*
X195788327Y-71199698D01*
X195885000Y-70966309D01*
X195885000Y-70743750D01*
X195726250Y-70585000D01*
X194387500Y-70585000D01*
X192662500Y-70585000D01*
X191323750Y-70585000D01*
X191165000Y-70743750D01*
X190577000Y-70743750D01*
X190577000Y-69251000D01*
X191151998Y-69251000D01*
X191151998Y-69820000D01*
X191165000Y-69820000D01*
X191165000Y-69916250D01*
X191323750Y-70075000D01*
X192662500Y-70075000D01*
X192662500Y-69820000D01*
X193316000Y-69820000D01*
X193316000Y-69973002D01*
X193951000Y-69973002D01*
X193951000Y-69820000D01*
X194387500Y-69820000D01*
X194387500Y-70075000D01*
X195726250Y-70075000D01*
X195885000Y-69916250D01*
X195885000Y-69820000D01*
X195898002Y-69820000D01*
X195898002Y-69185000D01*
X194673002Y-69185000D01*
X194673002Y-69038052D01*
X194840000Y-69071270D01*
X195392212Y-68961428D01*
X195860355Y-68648625D01*
X196173158Y-68180482D01*
X196283000Y-67628270D01*
X196283000Y-67571730D01*
X196173158Y-67019518D01*
X195860355Y-66551375D01*
X195392212Y-66238572D01*
X194840000Y-66128730D01*
X194287788Y-66238572D01*
X193951000Y-66463606D01*
X193951000Y-65226998D01*
X193316000Y-65226998D01*
X193316000Y-65949000D01*
X192966750Y-65949000D01*
X192808000Y-66107750D01*
X192808000Y-67092000D01*
X193316000Y-67092000D01*
X193316000Y-68108000D01*
X192808000Y-68108000D01*
X192808000Y-68616000D01*
X191792000Y-68616000D01*
X191792000Y-68108000D01*
X190807750Y-68108000D01*
X190649000Y-68266750D01*
X190649000Y-68616000D01*
X190577000Y-68616000D01*
X190577000Y-66457691D01*
X190649000Y-66457691D01*
X190649000Y-66933250D01*
X190807750Y-67092000D01*
X191792000Y-67092000D01*
X191792000Y-66107750D01*
X191633250Y-65949000D01*
X191157690Y-65949000D01*
X190924301Y-66045673D01*
X190745673Y-66224302D01*
X190649000Y-66457691D01*
X190577000Y-66457691D01*
X190577000Y-64900000D01*
X190541941Y-64720508D01*
X190485232Y-64635000D01*
X190791250Y-64635000D01*
X190950000Y-64476250D01*
X190950000Y-63400000D01*
X192150000Y-63400000D01*
X192150000Y-64476250D01*
X192308750Y-64635000D01*
X192876309Y-64635000D01*
X193109698Y-64538327D01*
X193288327Y-64359699D01*
X193385000Y-64126310D01*
X193385000Y-63558750D01*
X193226250Y-63400000D01*
X192150000Y-63400000D01*
X190950000Y-63400000D01*
X190350000Y-63400000D01*
X190350000Y-63122211D01*
X193422718Y-63122211D01*
X193669892Y-63720418D01*
X194127175Y-64178499D01*
X194724950Y-64426717D01*
X195372211Y-64427282D01*
X195970418Y-64180108D01*
X196428499Y-63722825D01*
X196676717Y-63125050D01*
X196677282Y-62477789D01*
X196430108Y-61879582D01*
X195972825Y-61421501D01*
X195375050Y-61173283D01*
X194727789Y-61172718D01*
X194129582Y-61419892D01*
X193671501Y-61877175D01*
X193423283Y-62474950D01*
X193422718Y-63122211D01*
X190350000Y-63122211D01*
X190350000Y-62200000D01*
X190950000Y-62200000D01*
X190950000Y-61123750D01*
X192150000Y-61123750D01*
X192150000Y-62200000D01*
X193226250Y-62200000D01*
X193385000Y-62041250D01*
X193385000Y-61473690D01*
X193288327Y-61240301D01*
X193109698Y-61061673D01*
X192876309Y-60965000D01*
X192308750Y-60965000D01*
X192150000Y-61123750D01*
X190950000Y-61123750D01*
X190791250Y-60965000D01*
X190350000Y-60965000D01*
X190350000Y-60426998D01*
X189877000Y-60426998D01*
X189877000Y-59600000D01*
X189841941Y-59420508D01*
X189737290Y-59262710D01*
X188637290Y-58162710D01*
X188485580Y-58060581D01*
X188344443Y-58032000D01*
X196357453Y-58032000D01*
X196614125Y-58083055D01*
X196795652Y-58204348D01*
X196916945Y-58385875D01*
X196968000Y-58642546D01*
X196968000Y-92757454D01*
X196916945Y-93014125D01*
X196795652Y-93195652D01*
X196614125Y-93316945D01*
X196357453Y-93368000D01*
X194113002Y-93368000D01*
X194113002Y-92850000D01*
X192885000Y-92850000D01*
X192885000Y-92146250D01*
X192726250Y-91987500D01*
X191995000Y-91987500D01*
X191995000Y-92850000D01*
X191485000Y-92850000D01*
X191485000Y-91987500D01*
X190753750Y-91987500D01*
X190595000Y-92146250D01*
X190595000Y-92850000D01*
X190345000Y-92850000D01*
X190345000Y-92146250D01*
X190186250Y-91987500D01*
X189455000Y-91987500D01*
X189455000Y-92850000D01*
X188945000Y-92850000D01*
X188945000Y-91987500D01*
X188213750Y-91987500D01*
X188055000Y-92146250D01*
X188055000Y-92850000D01*
X187605365Y-92850000D01*
X187605365Y-89400000D01*
X187581599Y-89273690D01*
X188055000Y-89273690D01*
X188055000Y-90103750D01*
X188213750Y-90262500D01*
X188945000Y-90262500D01*
X188945000Y-88923750D01*
X189455000Y-88923750D01*
X189455000Y-90262500D01*
X190186250Y-90262500D01*
X190345000Y-90103750D01*
X190345000Y-89273690D01*
X190595000Y-89273690D01*
X190595000Y-90103750D01*
X190753750Y-90262500D01*
X191485000Y-90262500D01*
X191485000Y-88923750D01*
X191995000Y-88923750D01*
X191995000Y-90262500D01*
X192726250Y-90262500D01*
X192885000Y-90103750D01*
X192885000Y-89273690D01*
X192788327Y-89040301D01*
X192609698Y-88861673D01*
X192376309Y-88765000D01*
X192153750Y-88765000D01*
X191995000Y-88923750D01*
X191485000Y-88923750D01*
X191326250Y-88765000D01*
X191103691Y-88765000D01*
X190870302Y-88861673D01*
X190691673Y-89040301D01*
X190595000Y-89273690D01*
X190345000Y-89273690D01*
X190248327Y-89040301D01*
X190069698Y-88861673D01*
X189836309Y-88765000D01*
X189613750Y-88765000D01*
X189455000Y-88923750D01*
X188945000Y-88923750D01*
X188786250Y-88765000D01*
X188563691Y-88765000D01*
X188330302Y-88861673D01*
X188151673Y-89040301D01*
X188055000Y-89273690D01*
X187581599Y-89273690D01*
X187575591Y-89241763D01*
X187482073Y-89096433D01*
X187339381Y-88998936D01*
X187170000Y-88964635D01*
X186150000Y-88964635D01*
X185991763Y-88994409D01*
X185846433Y-89087927D01*
X185748936Y-89230619D01*
X185714635Y-89400000D01*
X185714635Y-90548000D01*
X185275005Y-90548000D01*
X185275000Y-90547999D01*
X185054192Y-90591922D01*
X184866999Y-90716999D01*
X184410989Y-91173009D01*
X184236221Y-91172857D01*
X183932154Y-91298495D01*
X183699312Y-91530930D01*
X183573144Y-91834778D01*
X183572857Y-92163779D01*
X183698495Y-92467846D01*
X183930930Y-92700688D01*
X184234778Y-92826856D01*
X184563779Y-92827143D01*
X184867846Y-92701505D01*
X185100688Y-92469070D01*
X185226856Y-92165222D01*
X185227010Y-91988992D01*
X185514002Y-91702000D01*
X185714635Y-91702000D01*
X185714635Y-92850000D01*
X185744409Y-93008237D01*
X185837927Y-93153567D01*
X185980619Y-93251064D01*
X186150000Y-93285365D01*
X186826998Y-93285365D01*
X186826998Y-93368000D01*
X168642546Y-93368000D01*
X168385875Y-93316945D01*
X168204348Y-93195652D01*
X168083055Y-93014125D01*
X168032000Y-92757453D01*
X168032000Y-83957741D01*
X172076143Y-83957741D01*
X172237356Y-84187727D01*
X172983452Y-84263153D01*
X173362644Y-84187727D01*
X173523857Y-83957741D01*
X172800000Y-83233883D01*
X172076143Y-83957741D01*
X168032000Y-83957741D01*
X168032000Y-82533452D01*
X170886847Y-82533452D01*
X170962273Y-82912644D01*
X171192259Y-83073857D01*
X171916117Y-82350000D01*
X173683883Y-82350000D01*
X174407741Y-83073857D01*
X174637727Y-82912644D01*
X174713153Y-82166548D01*
X174637727Y-81787356D01*
X174407741Y-81626143D01*
X173683883Y-82350000D01*
X171916117Y-82350000D01*
X171192259Y-81626143D01*
X170962273Y-81787356D01*
X170886847Y-82533452D01*
X168032000Y-82533452D01*
X168032000Y-80742259D01*
X172076143Y-80742259D01*
X172800000Y-81466117D01*
X173523857Y-80742259D01*
X173362644Y-80512273D01*
X172616548Y-80436847D01*
X172237356Y-80512273D01*
X172076143Y-80742259D01*
X168032000Y-80742259D01*
X168032000Y-58642547D01*
X168083055Y-58385875D01*
X168204348Y-58204348D01*
X168385875Y-58083055D01*
X168642546Y-58032000D01*
X169653923Y-58032000D01*
X169520508Y-58058059D01*
X169520508Y-58058059D01*
G37*
X169520508Y-58058059D02*
X169362710Y-58162710D01*
X168562710Y-58962710D01*
X168460581Y-59114420D01*
X168423000Y-59300000D01*
X168423000Y-66400000D01*
X168452261Y-66555506D01*
X168423000Y-66700000D01*
X168423000Y-79700000D01*
X168455622Y-79873369D01*
X168558083Y-80032598D01*
X168714420Y-80139419D01*
X168900000Y-80177000D01*
X178900000Y-80177000D01*
X179073369Y-80144378D01*
X179232598Y-80041917D01*
X179339419Y-79885580D01*
X179377000Y-79700000D01*
X179377000Y-77708758D01*
X184032302Y-77708758D01*
X184224509Y-78258391D01*
X184612420Y-78692631D01*
X184867879Y-78839013D01*
X185085185Y-78756412D01*
X185085185Y-77475030D01*
X184176655Y-77475030D01*
X184032302Y-77708758D01*
X179377000Y-77708758D01*
X179377000Y-72988805D01*
X179450624Y-73166989D01*
X180427866Y-74145938D01*
X181705348Y-74676395D01*
X183088584Y-74677602D01*
X183136998Y-74657598D01*
X183136998Y-74849940D01*
X184306398Y-74849940D01*
X184224509Y-74941609D01*
X184032302Y-75491242D01*
X184176655Y-75724970D01*
X185085185Y-75724970D01*
X185085185Y-74849940D01*
X185934815Y-74849940D01*
X185934815Y-75724970D01*
X186323000Y-75724970D01*
X186323000Y-77475030D01*
X185934815Y-77475030D01*
X185934815Y-78756412D01*
X186152121Y-78839013D01*
X186323000Y-78741097D01*
X186323000Y-79200000D01*
X186355622Y-79373369D01*
X186458083Y-79532598D01*
X186614420Y-79639419D01*
X186800000Y-79677000D01*
X187396025Y-79677000D01*
X186903297Y-79880591D01*
X186332595Y-80450298D01*
X186023353Y-81195036D01*
X186022649Y-82001426D01*
X186330591Y-82746703D01*
X186900298Y-83317405D01*
X187645036Y-83626647D01*
X188402934Y-83627309D01*
X188386433Y-83637927D01*
X188288936Y-83780619D01*
X188254635Y-83950000D01*
X188254635Y-87400000D01*
X188271162Y-87487836D01*
X188110998Y-87648000D01*
X187517346Y-87648000D01*
X187571064Y-87569381D01*
X187605365Y-87400000D01*
X187605365Y-83950000D01*
X187575591Y-83791763D01*
X187482073Y-83646433D01*
X187339381Y-83548936D01*
X187170000Y-83514635D01*
X186150000Y-83514635D01*
X185991763Y-83544409D01*
X185846433Y-83637927D01*
X185748936Y-83780619D01*
X185714635Y-83950000D01*
X185714635Y-84498000D01*
X184517367Y-84498000D01*
X184294070Y-84274312D01*
X183990222Y-84148144D01*
X183661221Y-84147857D01*
X183357154Y-84273495D01*
X183124312Y-84505930D01*
X182998144Y-84809778D01*
X182997857Y-85138779D01*
X183123495Y-85442846D01*
X183355930Y-85675688D01*
X183659778Y-85801856D01*
X183988779Y-85802143D01*
X184292846Y-85676505D01*
X184317394Y-85652000D01*
X185714635Y-85652000D01*
X185714635Y-87400000D01*
X185744409Y-87558237D01*
X185802170Y-87648000D01*
X182689001Y-87648000D01*
X181676991Y-86635989D01*
X181677143Y-86461221D01*
X181551505Y-86157154D01*
X181319070Y-85924312D01*
X181015222Y-85798144D01*
X180686221Y-85797857D01*
X180382154Y-85923495D01*
X180149312Y-86155930D01*
X180023144Y-86459778D01*
X180022857Y-86788779D01*
X180148495Y-87092846D01*
X180380930Y-87325688D01*
X180684778Y-87451856D01*
X180861008Y-87452010D01*
X182041997Y-88632998D01*
X182041999Y-88633001D01*
X182229192Y-88758078D01*
X182450000Y-88802001D01*
X182450005Y-88802000D01*
X188349995Y-88802000D01*
X188350000Y-88802001D01*
X188570808Y-88758078D01*
X188758001Y-88633001D01*
X189555636Y-87835365D01*
X189710000Y-87835365D01*
X189868237Y-87805591D01*
X190013567Y-87712073D01*
X190111064Y-87569381D01*
X190145365Y-87400000D01*
X190145365Y-83950000D01*
X190794635Y-83950000D01*
X190794635Y-87400000D01*
X190824409Y-87558237D01*
X190917927Y-87703567D01*
X191060619Y-87801064D01*
X191230000Y-87835365D01*
X192250000Y-87835365D01*
X192408237Y-87805591D01*
X192553567Y-87712073D01*
X192651064Y-87569381D01*
X192685365Y-87400000D01*
X192685365Y-86282901D01*
X192878711Y-86153711D01*
X195628711Y-83403712D01*
X195702089Y-83293894D01*
X195775466Y-83184077D01*
X195827000Y-82925000D01*
X195827000Y-75750000D01*
X195808485Y-75656919D01*
X195775467Y-75490924D01*
X195628712Y-75271289D01*
X195127114Y-74769691D01*
X195127143Y-74736221D01*
X195001505Y-74432154D01*
X194769070Y-74199312D01*
X194465222Y-74073144D01*
X194136221Y-74072857D01*
X193832154Y-74198495D01*
X193599312Y-74430930D01*
X193473144Y-74734778D01*
X193472857Y-75063779D01*
X193598495Y-75367846D01*
X193830930Y-75600688D01*
X194134778Y-75726856D01*
X194169464Y-75726886D01*
X194473000Y-76030423D01*
X194473000Y-82644577D01*
X192685365Y-84432213D01*
X192685365Y-83950000D01*
X192655591Y-83791763D01*
X192562073Y-83646433D01*
X192419381Y-83548936D01*
X192250000Y-83514635D01*
X191230000Y-83514635D01*
X191071763Y-83544409D01*
X190926433Y-83637927D01*
X190828936Y-83780619D01*
X190794635Y-83950000D01*
X190145365Y-83950000D01*
X190115591Y-83791763D01*
X190022073Y-83646433D01*
X189879381Y-83548936D01*
X189710000Y-83514635D01*
X188724220Y-83514635D01*
X189196703Y-83319409D01*
X189767405Y-82749702D01*
X190007265Y-82172054D01*
X190098495Y-82392846D01*
X190330930Y-82625688D01*
X190634778Y-82751856D01*
X190963779Y-82752143D01*
X191267846Y-82626505D01*
X191392569Y-82502000D01*
X192599995Y-82502000D01*
X192600000Y-82502001D01*
X192820808Y-82458078D01*
X193008001Y-82333001D01*
X193857998Y-81483003D01*
X193858001Y-81483001D01*
X193983078Y-81295808D01*
X193997462Y-81223495D01*
X194027001Y-81075000D01*
X194027000Y-81074995D01*
X194027000Y-77767542D01*
X194150688Y-77644070D01*
X194276856Y-77340222D01*
X194277143Y-77011221D01*
X194151505Y-76707154D01*
X193919070Y-76474312D01*
X193615222Y-76348144D01*
X193286221Y-76347857D01*
X192982154Y-76473495D01*
X192749312Y-76705930D01*
X192623144Y-77009778D01*
X192622857Y-77338779D01*
X192748495Y-77642846D01*
X192873000Y-77767569D01*
X192873000Y-77863659D01*
X192715222Y-77798144D01*
X192386221Y-77797857D01*
X192082154Y-77923495D01*
X191849312Y-78155930D01*
X191723144Y-78459778D01*
X191722990Y-78636008D01*
X191110998Y-79248000D01*
X190739001Y-79248000D01*
X190241364Y-78750363D01*
X190590000Y-78819711D01*
X191078545Y-78722533D01*
X191492714Y-78445795D01*
X191769452Y-78031626D01*
X191866630Y-77543081D01*
X191866630Y-75656919D01*
X191769452Y-75168374D01*
X191492714Y-74754205D01*
X191078545Y-74477467D01*
X190590000Y-74380289D01*
X190345696Y-74428884D01*
X190437290Y-74337290D01*
X190539419Y-74185580D01*
X190577000Y-74000000D01*
X190577000Y-73283750D01*
X191165000Y-73283750D01*
X191165000Y-73506309D01*
X191261673Y-73739698D01*
X191440301Y-73918327D01*
X191673690Y-74015000D01*
X192503750Y-74015000D01*
X192662500Y-73856250D01*
X192662500Y-73125000D01*
X194387500Y-73125000D01*
X194387500Y-73856250D01*
X194546250Y-74015000D01*
X195376310Y-74015000D01*
X195609699Y-73918327D01*
X195788327Y-73739698D01*
X195885000Y-73506309D01*
X195885000Y-73283750D01*
X195726250Y-73125000D01*
X194387500Y-73125000D01*
X192662500Y-73125000D01*
X191323750Y-73125000D01*
X191165000Y-73283750D01*
X190577000Y-73283750D01*
X190577000Y-72233691D01*
X191165000Y-72233691D01*
X191165000Y-72456250D01*
X191323750Y-72615000D01*
X192662500Y-72615000D01*
X192662500Y-71883750D01*
X194387500Y-71883750D01*
X194387500Y-72615000D01*
X195726250Y-72615000D01*
X195885000Y-72456250D01*
X195885000Y-72233691D01*
X195788327Y-72000302D01*
X195609699Y-71821673D01*
X195376310Y-71725000D01*
X194546250Y-71725000D01*
X194387500Y-71883750D01*
X192662500Y-71883750D01*
X192503750Y-71725000D01*
X191673690Y-71725000D01*
X191440301Y-71821673D01*
X191261673Y-72000302D01*
X191165000Y-72233691D01*
X190577000Y-72233691D01*
X190577000Y-70743750D01*
X191165000Y-70743750D01*
X191165000Y-70966309D01*
X191261673Y-71199698D01*
X191440301Y-71378327D01*
X191673690Y-71475000D01*
X192503750Y-71475000D01*
X192662500Y-71316250D01*
X192662500Y-70585000D01*
X194387500Y-70585000D01*
X194387500Y-71316250D01*
X194546250Y-71475000D01*
X195376310Y-71475000D01*
X195609699Y-71378327D01*
X195788327Y-71199698D01*
X195885000Y-70966309D01*
X195885000Y-70743750D01*
X195726250Y-70585000D01*
X194387500Y-70585000D01*
X192662500Y-70585000D01*
X191323750Y-70585000D01*
X191165000Y-70743750D01*
X190577000Y-70743750D01*
X190577000Y-69251000D01*
X191151998Y-69251000D01*
X191151998Y-69820000D01*
X191165000Y-69820000D01*
X191165000Y-69916250D01*
X191323750Y-70075000D01*
X192662500Y-70075000D01*
X192662500Y-69820000D01*
X193316000Y-69820000D01*
X193316000Y-69973002D01*
X193951000Y-69973002D01*
X193951000Y-69820000D01*
X194387500Y-69820000D01*
X194387500Y-70075000D01*
X195726250Y-70075000D01*
X195885000Y-69916250D01*
X195885000Y-69820000D01*
X195898002Y-69820000D01*
X195898002Y-69185000D01*
X194673002Y-69185000D01*
X194673002Y-69038052D01*
X194840000Y-69071270D01*
X195392212Y-68961428D01*
X195860355Y-68648625D01*
X196173158Y-68180482D01*
X196283000Y-67628270D01*
X196283000Y-67571730D01*
X196173158Y-67019518D01*
X195860355Y-66551375D01*
X195392212Y-66238572D01*
X194840000Y-66128730D01*
X194287788Y-66238572D01*
X193951000Y-66463606D01*
X193951000Y-65226998D01*
X193316000Y-65226998D01*
X193316000Y-65949000D01*
X192966750Y-65949000D01*
X192808000Y-66107750D01*
X192808000Y-67092000D01*
X193316000Y-67092000D01*
X193316000Y-68108000D01*
X192808000Y-68108000D01*
X192808000Y-68616000D01*
X191792000Y-68616000D01*
X191792000Y-68108000D01*
X190807750Y-68108000D01*
X190649000Y-68266750D01*
X190649000Y-68616000D01*
X190577000Y-68616000D01*
X190577000Y-66457691D01*
X190649000Y-66457691D01*
X190649000Y-66933250D01*
X190807750Y-67092000D01*
X191792000Y-67092000D01*
X191792000Y-66107750D01*
X191633250Y-65949000D01*
X191157690Y-65949000D01*
X190924301Y-66045673D01*
X190745673Y-66224302D01*
X190649000Y-66457691D01*
X190577000Y-66457691D01*
X190577000Y-64900000D01*
X190541941Y-64720508D01*
X190485232Y-64635000D01*
X190791250Y-64635000D01*
X190950000Y-64476250D01*
X190950000Y-63400000D01*
X192150000Y-63400000D01*
X192150000Y-64476250D01*
X192308750Y-64635000D01*
X192876309Y-64635000D01*
X193109698Y-64538327D01*
X193288327Y-64359699D01*
X193385000Y-64126310D01*
X193385000Y-63558750D01*
X193226250Y-63400000D01*
X192150000Y-63400000D01*
X190950000Y-63400000D01*
X190350000Y-63400000D01*
X190350000Y-63122211D01*
X193422718Y-63122211D01*
X193669892Y-63720418D01*
X194127175Y-64178499D01*
X194724950Y-64426717D01*
X195372211Y-64427282D01*
X195970418Y-64180108D01*
X196428499Y-63722825D01*
X196676717Y-63125050D01*
X196677282Y-62477789D01*
X196430108Y-61879582D01*
X195972825Y-61421501D01*
X195375050Y-61173283D01*
X194727789Y-61172718D01*
X194129582Y-61419892D01*
X193671501Y-61877175D01*
X193423283Y-62474950D01*
X193422718Y-63122211D01*
X190350000Y-63122211D01*
X190350000Y-62200000D01*
X190950000Y-62200000D01*
X190950000Y-61123750D01*
X192150000Y-61123750D01*
X192150000Y-62200000D01*
X193226250Y-62200000D01*
X193385000Y-62041250D01*
X193385000Y-61473690D01*
X193288327Y-61240301D01*
X193109698Y-61061673D01*
X192876309Y-60965000D01*
X192308750Y-60965000D01*
X192150000Y-61123750D01*
X190950000Y-61123750D01*
X190791250Y-60965000D01*
X190350000Y-60965000D01*
X190350000Y-60426998D01*
X189877000Y-60426998D01*
X189877000Y-59600000D01*
X189841941Y-59420508D01*
X189737290Y-59262710D01*
X188637290Y-58162710D01*
X188485580Y-58060581D01*
X188344443Y-58032000D01*
X196357453Y-58032000D01*
X196614125Y-58083055D01*
X196795652Y-58204348D01*
X196916945Y-58385875D01*
X196968000Y-58642546D01*
X196968000Y-92757454D01*
X196916945Y-93014125D01*
X196795652Y-93195652D01*
X196614125Y-93316945D01*
X196357453Y-93368000D01*
X194113002Y-93368000D01*
X194113002Y-92850000D01*
X192885000Y-92850000D01*
X192885000Y-92146250D01*
X192726250Y-91987500D01*
X191995000Y-91987500D01*
X191995000Y-92850000D01*
X191485000Y-92850000D01*
X191485000Y-91987500D01*
X190753750Y-91987500D01*
X190595000Y-92146250D01*
X190595000Y-92850000D01*
X190345000Y-92850000D01*
X190345000Y-92146250D01*
X190186250Y-91987500D01*
X189455000Y-91987500D01*
X189455000Y-92850000D01*
X188945000Y-92850000D01*
X188945000Y-91987500D01*
X188213750Y-91987500D01*
X188055000Y-92146250D01*
X188055000Y-92850000D01*
X187605365Y-92850000D01*
X187605365Y-89400000D01*
X187581599Y-89273690D01*
X188055000Y-89273690D01*
X188055000Y-90103750D01*
X188213750Y-90262500D01*
X188945000Y-90262500D01*
X188945000Y-88923750D01*
X189455000Y-88923750D01*
X189455000Y-90262500D01*
X190186250Y-90262500D01*
X190345000Y-90103750D01*
X190345000Y-89273690D01*
X190595000Y-89273690D01*
X190595000Y-90103750D01*
X190753750Y-90262500D01*
X191485000Y-90262500D01*
X191485000Y-88923750D01*
X191995000Y-88923750D01*
X191995000Y-90262500D01*
X192726250Y-90262500D01*
X192885000Y-90103750D01*
X192885000Y-89273690D01*
X192788327Y-89040301D01*
X192609698Y-88861673D01*
X192376309Y-88765000D01*
X192153750Y-88765000D01*
X191995000Y-88923750D01*
X191485000Y-88923750D01*
X191326250Y-88765000D01*
X191103691Y-88765000D01*
X190870302Y-88861673D01*
X190691673Y-89040301D01*
X190595000Y-89273690D01*
X190345000Y-89273690D01*
X190248327Y-89040301D01*
X190069698Y-88861673D01*
X189836309Y-88765000D01*
X189613750Y-88765000D01*
X189455000Y-88923750D01*
X188945000Y-88923750D01*
X188786250Y-88765000D01*
X188563691Y-88765000D01*
X188330302Y-88861673D01*
X188151673Y-89040301D01*
X188055000Y-89273690D01*
X187581599Y-89273690D01*
X187575591Y-89241763D01*
X187482073Y-89096433D01*
X187339381Y-88998936D01*
X187170000Y-88964635D01*
X186150000Y-88964635D01*
X185991763Y-88994409D01*
X185846433Y-89087927D01*
X185748936Y-89230619D01*
X185714635Y-89400000D01*
X185714635Y-90548000D01*
X185275005Y-90548000D01*
X185275000Y-90547999D01*
X185054192Y-90591922D01*
X184866999Y-90716999D01*
X184410989Y-91173009D01*
X184236221Y-91172857D01*
X183932154Y-91298495D01*
X183699312Y-91530930D01*
X183573144Y-91834778D01*
X183572857Y-92163779D01*
X183698495Y-92467846D01*
X183930930Y-92700688D01*
X184234778Y-92826856D01*
X184563779Y-92827143D01*
X184867846Y-92701505D01*
X185100688Y-92469070D01*
X185226856Y-92165222D01*
X185227010Y-91988992D01*
X185514002Y-91702000D01*
X185714635Y-91702000D01*
X185714635Y-92850000D01*
X185744409Y-93008237D01*
X185837927Y-93153567D01*
X185980619Y-93251064D01*
X186150000Y-93285365D01*
X186826998Y-93285365D01*
X186826998Y-93368000D01*
X168642546Y-93368000D01*
X168385875Y-93316945D01*
X168204348Y-93195652D01*
X168083055Y-93014125D01*
X168032000Y-92757453D01*
X168032000Y-83957741D01*
X172076143Y-83957741D01*
X172237356Y-84187727D01*
X172983452Y-84263153D01*
X173362644Y-84187727D01*
X173523857Y-83957741D01*
X172800000Y-83233883D01*
X172076143Y-83957741D01*
X168032000Y-83957741D01*
X168032000Y-82533452D01*
X170886847Y-82533452D01*
X170962273Y-82912644D01*
X171192259Y-83073857D01*
X171916117Y-82350000D01*
X173683883Y-82350000D01*
X174407741Y-83073857D01*
X174637727Y-82912644D01*
X174713153Y-82166548D01*
X174637727Y-81787356D01*
X174407741Y-81626143D01*
X173683883Y-82350000D01*
X171916117Y-82350000D01*
X171192259Y-81626143D01*
X170962273Y-81787356D01*
X170886847Y-82533452D01*
X168032000Y-82533452D01*
X168032000Y-80742259D01*
X172076143Y-80742259D01*
X172800000Y-81466117D01*
X173523857Y-80742259D01*
X173362644Y-80512273D01*
X172616548Y-80436847D01*
X172237356Y-80512273D01*
X172076143Y-80742259D01*
X168032000Y-80742259D01*
X168032000Y-58642547D01*
X168083055Y-58385875D01*
X168204348Y-58204348D01*
X168385875Y-58083055D01*
X168642546Y-58032000D01*
X169653923Y-58032000D01*
X169520508Y-58058059D01*
G36*
X178773000Y-79573000D02*
X169027000Y-79573000D01*
X169027000Y-78957741D01*
X172076143Y-78957741D01*
X172237356Y-79187727D01*
X172983452Y-79263153D01*
X173362644Y-79187727D01*
X173523857Y-78957741D01*
X172800000Y-78233883D01*
X172076143Y-78957741D01*
X169027000Y-78957741D01*
X169027000Y-77533452D01*
X170886847Y-77533452D01*
X170962273Y-77912644D01*
X171192259Y-78073857D01*
X171916117Y-77350000D01*
X173683883Y-77350000D01*
X174407741Y-78073857D01*
X174637727Y-77912644D01*
X174713153Y-77166548D01*
X174637727Y-76787356D01*
X174407741Y-76626143D01*
X173683883Y-77350000D01*
X171916117Y-77350000D01*
X171192259Y-76626143D01*
X170962273Y-76787356D01*
X170886847Y-77533452D01*
X169027000Y-77533452D01*
X169027000Y-75742259D01*
X172076143Y-75742259D01*
X172800000Y-76466117D01*
X173523857Y-75742259D01*
X173362644Y-75512273D01*
X172616548Y-75436847D01*
X172237356Y-75512273D01*
X172076143Y-75742259D01*
X169027000Y-75742259D01*
X169027000Y-74259043D01*
X170368774Y-74259043D01*
X170506706Y-74483497D01*
X171192308Y-74563258D01*
X171593294Y-74483497D01*
X171731226Y-74259043D01*
X171050000Y-73577817D01*
X170368774Y-74259043D01*
X169027000Y-74259043D01*
X169027000Y-72942308D01*
X169286742Y-72942308D01*
X169366503Y-73343294D01*
X169590957Y-73481226D01*
X170272183Y-72800000D01*
X171827817Y-72800000D01*
X172509043Y-73481226D01*
X172733497Y-73343294D01*
X172813258Y-72657692D01*
X172733497Y-72256706D01*
X172509043Y-72118774D01*
X171827817Y-72800000D01*
X170272183Y-72800000D01*
X169590957Y-72118774D01*
X169366503Y-72256706D01*
X169286742Y-72942308D01*
X169027000Y-72942308D01*
X169027000Y-71340957D01*
X170368774Y-71340957D01*
X171050000Y-72022183D01*
X171731226Y-71340957D01*
X171593294Y-71116503D01*
X170907692Y-71036742D01*
X170506706Y-71116503D01*
X170368774Y-71340957D01*
X169027000Y-71340957D01*
X169027000Y-70559043D01*
X170368774Y-70559043D01*
X170506706Y-70783497D01*
X171192308Y-70863258D01*
X171593294Y-70783497D01*
X171731226Y-70559043D01*
X171050000Y-69877817D01*
X170368774Y-70559043D01*
X169027000Y-70559043D01*
X169027000Y-69242308D01*
X169286742Y-69242308D01*
X169366503Y-69643294D01*
X169590957Y-69781226D01*
X170272183Y-69100000D01*
X171827817Y-69100000D01*
X172509043Y-69781226D01*
X172733497Y-69643294D01*
X172813258Y-68957692D01*
X172733497Y-68556706D01*
X172509043Y-68418774D01*
X171827817Y-69100000D01*
X170272183Y-69100000D01*
X169590957Y-68418774D01*
X169366503Y-68556706D01*
X169286742Y-69242308D01*
X169027000Y-69242308D01*
X169027000Y-67640957D01*
X170368774Y-67640957D01*
X171050000Y-68322183D01*
X171731226Y-67640957D01*
X171593294Y-67416503D01*
X170907692Y-67336742D01*
X170506706Y-67416503D01*
X170368774Y-67640957D01*
X169027000Y-67640957D01*
X169027000Y-66877000D01*
X178773000Y-66877000D01*
X178773000Y-79573000D01*
X178773000Y-79573000D01*
G37*
X178773000Y-79573000D02*
X169027000Y-79573000D01*
X169027000Y-78957741D01*
X172076143Y-78957741D01*
X172237356Y-79187727D01*
X172983452Y-79263153D01*
X173362644Y-79187727D01*
X173523857Y-78957741D01*
X172800000Y-78233883D01*
X172076143Y-78957741D01*
X169027000Y-78957741D01*
X169027000Y-77533452D01*
X170886847Y-77533452D01*
X170962273Y-77912644D01*
X171192259Y-78073857D01*
X171916117Y-77350000D01*
X173683883Y-77350000D01*
X174407741Y-78073857D01*
X174637727Y-77912644D01*
X174713153Y-77166548D01*
X174637727Y-76787356D01*
X174407741Y-76626143D01*
X173683883Y-77350000D01*
X171916117Y-77350000D01*
X171192259Y-76626143D01*
X170962273Y-76787356D01*
X170886847Y-77533452D01*
X169027000Y-77533452D01*
X169027000Y-75742259D01*
X172076143Y-75742259D01*
X172800000Y-76466117D01*
X173523857Y-75742259D01*
X173362644Y-75512273D01*
X172616548Y-75436847D01*
X172237356Y-75512273D01*
X172076143Y-75742259D01*
X169027000Y-75742259D01*
X169027000Y-74259043D01*
X170368774Y-74259043D01*
X170506706Y-74483497D01*
X171192308Y-74563258D01*
X171593294Y-74483497D01*
X171731226Y-74259043D01*
X171050000Y-73577817D01*
X170368774Y-74259043D01*
X169027000Y-74259043D01*
X169027000Y-72942308D01*
X169286742Y-72942308D01*
X169366503Y-73343294D01*
X169590957Y-73481226D01*
X170272183Y-72800000D01*
X171827817Y-72800000D01*
X172509043Y-73481226D01*
X172733497Y-73343294D01*
X172813258Y-72657692D01*
X172733497Y-72256706D01*
X172509043Y-72118774D01*
X171827817Y-72800000D01*
X170272183Y-72800000D01*
X169590957Y-72118774D01*
X169366503Y-72256706D01*
X169286742Y-72942308D01*
X169027000Y-72942308D01*
X169027000Y-71340957D01*
X170368774Y-71340957D01*
X171050000Y-72022183D01*
X171731226Y-71340957D01*
X171593294Y-71116503D01*
X170907692Y-71036742D01*
X170506706Y-71116503D01*
X170368774Y-71340957D01*
X169027000Y-71340957D01*
X169027000Y-70559043D01*
X170368774Y-70559043D01*
X170506706Y-70783497D01*
X171192308Y-70863258D01*
X171593294Y-70783497D01*
X171731226Y-70559043D01*
X171050000Y-69877817D01*
X170368774Y-70559043D01*
X169027000Y-70559043D01*
X169027000Y-69242308D01*
X169286742Y-69242308D01*
X169366503Y-69643294D01*
X169590957Y-69781226D01*
X170272183Y-69100000D01*
X171827817Y-69100000D01*
X172509043Y-69781226D01*
X172733497Y-69643294D01*
X172813258Y-68957692D01*
X172733497Y-68556706D01*
X172509043Y-68418774D01*
X171827817Y-69100000D01*
X170272183Y-69100000D01*
X169590957Y-68418774D01*
X169366503Y-68556706D01*
X169286742Y-69242308D01*
X169027000Y-69242308D01*
X169027000Y-67640957D01*
X170368774Y-67640957D01*
X171050000Y-68322183D01*
X171731226Y-67640957D01*
X171593294Y-67416503D01*
X170907692Y-67336742D01*
X170506706Y-67416503D01*
X170368774Y-67640957D01*
X169027000Y-67640957D01*
X169027000Y-66877000D01*
X178773000Y-66877000D01*
X178773000Y-79573000D01*
G36*
X183473000Y-67573000D02*
X180652606Y-67573000D01*
X179389803Y-66310197D01*
X179347789Y-66282334D01*
X179300000Y-66273000D01*
X171599745Y-66273000D01*
X171731226Y-66059043D01*
X171050000Y-65377817D01*
X170368774Y-66059043D01*
X170500255Y-66273000D01*
X169027000Y-66273000D01*
X169027000Y-64742308D01*
X169286742Y-64742308D01*
X169366503Y-65143294D01*
X169590957Y-65281226D01*
X170272183Y-64600000D01*
X171827817Y-64600000D01*
X172509043Y-65281226D01*
X172733497Y-65143294D01*
X172813258Y-64457692D01*
X172733497Y-64056706D01*
X172653818Y-64007741D01*
X180776143Y-64007741D01*
X180937356Y-64237727D01*
X181683452Y-64313153D01*
X182062644Y-64237727D01*
X182223857Y-64007741D01*
X181500000Y-63283883D01*
X180776143Y-64007741D01*
X172653818Y-64007741D01*
X172509043Y-63918774D01*
X171827817Y-64600000D01*
X170272183Y-64600000D01*
X169590957Y-63918774D01*
X169366503Y-64056706D01*
X169286742Y-64742308D01*
X169027000Y-64742308D01*
X169027000Y-63140957D01*
X170368774Y-63140957D01*
X171050000Y-63822183D01*
X171731226Y-63140957D01*
X171593294Y-62916503D01*
X170907692Y-62836742D01*
X170506706Y-62916503D01*
X170368774Y-63140957D01*
X169027000Y-63140957D01*
X169027000Y-62359043D01*
X170368774Y-62359043D01*
X170506706Y-62583497D01*
X171192308Y-62663258D01*
X171593294Y-62583497D01*
X171593321Y-62583452D01*
X179586847Y-62583452D01*
X179662273Y-62962644D01*
X179892259Y-63123857D01*
X180616117Y-62400000D01*
X182383883Y-62400000D01*
X183107741Y-63123857D01*
X183337727Y-62962644D01*
X183413153Y-62216548D01*
X183337727Y-61837356D01*
X183107741Y-61676143D01*
X182383883Y-62400000D01*
X180616117Y-62400000D01*
X179892259Y-61676143D01*
X179662273Y-61837356D01*
X179586847Y-62583452D01*
X171593321Y-62583452D01*
X171731226Y-62359043D01*
X171050000Y-61677817D01*
X170368774Y-62359043D01*
X169027000Y-62359043D01*
X169027000Y-61042308D01*
X169286742Y-61042308D01*
X169366503Y-61443294D01*
X169590957Y-61581226D01*
X170272183Y-60900000D01*
X171827817Y-60900000D01*
X172509043Y-61581226D01*
X172733497Y-61443294D01*
X172809236Y-60792259D01*
X180776143Y-60792259D01*
X181500000Y-61516117D01*
X182223857Y-60792259D01*
X182062644Y-60562273D01*
X181316548Y-60486847D01*
X180937356Y-60562273D01*
X180776143Y-60792259D01*
X172809236Y-60792259D01*
X172813258Y-60757692D01*
X172733497Y-60356706D01*
X172509043Y-60218774D01*
X171827817Y-60900000D01*
X170272183Y-60900000D01*
X169590957Y-60218774D01*
X169366503Y-60356706D01*
X169286742Y-61042308D01*
X169027000Y-61042308D01*
X169027000Y-59440957D01*
X170368774Y-59440957D01*
X171050000Y-60122183D01*
X171731226Y-59440957D01*
X171593294Y-59216503D01*
X170907692Y-59136742D01*
X170506706Y-59216503D01*
X170368774Y-59440957D01*
X169027000Y-59440957D01*
X169027000Y-59352606D01*
X169752606Y-58627000D01*
X183473000Y-58627000D01*
X183473000Y-67573000D01*
X183473000Y-67573000D01*
G37*
X183473000Y-67573000D02*
X180652606Y-67573000D01*
X179389803Y-66310197D01*
X179347789Y-66282334D01*
X179300000Y-66273000D01*
X171599745Y-66273000D01*
X171731226Y-66059043D01*
X171050000Y-65377817D01*
X170368774Y-66059043D01*
X170500255Y-66273000D01*
X169027000Y-66273000D01*
X169027000Y-64742308D01*
X169286742Y-64742308D01*
X169366503Y-65143294D01*
X169590957Y-65281226D01*
X170272183Y-64600000D01*
X171827817Y-64600000D01*
X172509043Y-65281226D01*
X172733497Y-65143294D01*
X172813258Y-64457692D01*
X172733497Y-64056706D01*
X172653818Y-64007741D01*
X180776143Y-64007741D01*
X180937356Y-64237727D01*
X181683452Y-64313153D01*
X182062644Y-64237727D01*
X182223857Y-64007741D01*
X181500000Y-63283883D01*
X180776143Y-64007741D01*
X172653818Y-64007741D01*
X172509043Y-63918774D01*
X171827817Y-64600000D01*
X170272183Y-64600000D01*
X169590957Y-63918774D01*
X169366503Y-64056706D01*
X169286742Y-64742308D01*
X169027000Y-64742308D01*
X169027000Y-63140957D01*
X170368774Y-63140957D01*
X171050000Y-63822183D01*
X171731226Y-63140957D01*
X171593294Y-62916503D01*
X170907692Y-62836742D01*
X170506706Y-62916503D01*
X170368774Y-63140957D01*
X169027000Y-63140957D01*
X169027000Y-62359043D01*
X170368774Y-62359043D01*
X170506706Y-62583497D01*
X171192308Y-62663258D01*
X171593294Y-62583497D01*
X171593321Y-62583452D01*
X179586847Y-62583452D01*
X179662273Y-62962644D01*
X179892259Y-63123857D01*
X180616117Y-62400000D01*
X182383883Y-62400000D01*
X183107741Y-63123857D01*
X183337727Y-62962644D01*
X183413153Y-62216548D01*
X183337727Y-61837356D01*
X183107741Y-61676143D01*
X182383883Y-62400000D01*
X180616117Y-62400000D01*
X179892259Y-61676143D01*
X179662273Y-61837356D01*
X179586847Y-62583452D01*
X171593321Y-62583452D01*
X171731226Y-62359043D01*
X171050000Y-61677817D01*
X170368774Y-62359043D01*
X169027000Y-62359043D01*
X169027000Y-61042308D01*
X169286742Y-61042308D01*
X169366503Y-61443294D01*
X169590957Y-61581226D01*
X170272183Y-60900000D01*
X171827817Y-60900000D01*
X172509043Y-61581226D01*
X172733497Y-61443294D01*
X172809236Y-60792259D01*
X180776143Y-60792259D01*
X181500000Y-61516117D01*
X182223857Y-60792259D01*
X182062644Y-60562273D01*
X181316548Y-60486847D01*
X180937356Y-60562273D01*
X180776143Y-60792259D01*
X172809236Y-60792259D01*
X172813258Y-60757692D01*
X172733497Y-60356706D01*
X172509043Y-60218774D01*
X171827817Y-60900000D01*
X170272183Y-60900000D01*
X169590957Y-60218774D01*
X169366503Y-60356706D01*
X169286742Y-61042308D01*
X169027000Y-61042308D01*
X169027000Y-59440957D01*
X170368774Y-59440957D01*
X171050000Y-60122183D01*
X171731226Y-59440957D01*
X171593294Y-59216503D01*
X170907692Y-59136742D01*
X170506706Y-59216503D01*
X170368774Y-59440957D01*
X169027000Y-59440957D01*
X169027000Y-59352606D01*
X169752606Y-58627000D01*
X183473000Y-58627000D01*
X183473000Y-67573000D01*
G36*
X189273000Y-59652606D02*
X189273000Y-64200000D01*
X189283006Y-64249410D01*
X189310197Y-64289803D01*
X189973000Y-64952606D01*
X189973000Y-73947394D01*
X189210197Y-74710197D01*
X189182334Y-74752211D01*
X189173000Y-74800000D01*
X189173000Y-79073000D01*
X186927000Y-79073000D01*
X186927000Y-74900000D01*
X186916994Y-74850590D01*
X186889803Y-74810197D01*
X186027000Y-73947394D01*
X186027000Y-69600000D01*
X186016994Y-69550590D01*
X185989803Y-69510197D01*
X184227000Y-67747394D01*
X184227000Y-58627000D01*
X188247394Y-58627000D01*
X189273000Y-59652606D01*
X189273000Y-59652606D01*
G37*
X189273000Y-59652606D02*
X189273000Y-64200000D01*
X189283006Y-64249410D01*
X189310197Y-64289803D01*
X189973000Y-64952606D01*
X189973000Y-73947394D01*
X189210197Y-74710197D01*
X189182334Y-74752211D01*
X189173000Y-74800000D01*
X189173000Y-79073000D01*
X186927000Y-79073000D01*
X186927000Y-74900000D01*
X186916994Y-74850590D01*
X186889803Y-74810197D01*
X186027000Y-73947394D01*
X186027000Y-69600000D01*
X186016994Y-69550590D01*
X185989803Y-69510197D01*
X184227000Y-67747394D01*
X184227000Y-58627000D01*
X188247394Y-58627000D01*
X189273000Y-59652606D01*
M02*
