G04 #@! TF.FileFunction,Legend,Bot*
%FSLAX46Y46*%
G04 Gerber Fmt 4.6, Leading zero omitted, Abs format (unit mm)*
G04 Created by KiCad (PCBNEW 4.0.2-stable) date 22.05.2016 21:35:43*
%MOMM*%
G01*
G04 APERTURE LIST*
%ADD10C,0.100000*%
%ADD11C,0.198120*%
%ADD12C,0.175000*%
%ADD13C,0.195580*%
%ADD14C,0.150000*%
G04 APERTURE END LIST*
D10*
D11*
X185390000Y-91000000D02*
X193010000Y-91000000D01*
X193010000Y-85800000D02*
X185390000Y-85800000D01*
X185390000Y-91000000D02*
X185390000Y-85800000D01*
X193010000Y-85800000D02*
X193010000Y-91000000D01*
X194450000Y-90510000D02*
X194890000Y-90510000D01*
X195340000Y-89450000D02*
X195210000Y-89370000D01*
X195210000Y-89370000D02*
X195050000Y-89240000D01*
X195050000Y-89240000D02*
X194910000Y-89070000D01*
X194910000Y-89070000D02*
X194880000Y-88980000D01*
X194880000Y-88980000D02*
X194880000Y-90510000D01*
X194880000Y-90510000D02*
X195320000Y-90510000D01*
X193890000Y-89800000D02*
X193890000Y-89600000D01*
X193990000Y-89600000D02*
X193990000Y-89800000D01*
X194090000Y-89900000D02*
X194090000Y-89500000D01*
X194190000Y-89500000D02*
X194190000Y-89900000D01*
X194290000Y-90000000D02*
X194290000Y-89400000D01*
X193590000Y-89700000D02*
X194390000Y-90100000D01*
X194390000Y-90100000D02*
X194390000Y-89300000D01*
X194390000Y-89300000D02*
X193590000Y-89700000D01*
X193400000Y-74200000D02*
X193400000Y-69000000D01*
X193400000Y-69000000D02*
X188200000Y-69000000D01*
X188200000Y-69000000D02*
X188200000Y-74200000D01*
X188200000Y-74200000D02*
X193400000Y-74200000D01*
D12*
X189827381Y-85184524D02*
X189827381Y-84334524D01*
X189503572Y-84334524D01*
X189422619Y-84375000D01*
X189382143Y-84415476D01*
X189341667Y-84496429D01*
X189341667Y-84617857D01*
X189382143Y-84698810D01*
X189422619Y-84739286D01*
X189503572Y-84779762D01*
X189827381Y-84779762D01*
X189017857Y-84415476D02*
X188977381Y-84375000D01*
X188896429Y-84334524D01*
X188694048Y-84334524D01*
X188613095Y-84375000D01*
X188572619Y-84415476D01*
X188532143Y-84496429D01*
X188532143Y-84577381D01*
X188572619Y-84698810D01*
X189058333Y-85184524D01*
X188532143Y-85184524D01*
D13*
D11*
X196451576Y-70863218D02*
X195453356Y-70863218D01*
X195453356Y-71243493D01*
X195500890Y-71338561D01*
X195548424Y-71386096D01*
X195643493Y-71433630D01*
X195786096Y-71433630D01*
X195881164Y-71386096D01*
X195928699Y-71338561D01*
X195976233Y-71243493D01*
X195976233Y-70863218D01*
X195453356Y-72289247D02*
X195453356Y-72099110D01*
X195500890Y-72004041D01*
X195548424Y-71956507D01*
X195691027Y-71861438D01*
X195881164Y-71813904D01*
X196261439Y-71813904D01*
X196356507Y-71861438D01*
X196404041Y-71908973D01*
X196451576Y-72004041D01*
X196451576Y-72194178D01*
X196404041Y-72289247D01*
X196356507Y-72336781D01*
X196261439Y-72384316D01*
X196023767Y-72384316D01*
X195928699Y-72336781D01*
X195881164Y-72289247D01*
X195833630Y-72194178D01*
X195833630Y-72004041D01*
X195881164Y-71908973D01*
X195928699Y-71861438D01*
X196023767Y-71813904D01*
D13*
D14*
X190114285Y-73252381D02*
X190685714Y-73252381D01*
X190400000Y-73252381D02*
X190400000Y-72252381D01*
X190495238Y-72395238D01*
X190590476Y-72490476D01*
X190685714Y-72538095D01*
M02*
