%TF.GenerationSoftware,KiCad,Pcbnew,4.0.2-stable*%
%TF.CreationDate,2016-07-27T18:07:16+02:00*%
%TF.ProjectId,combined,636F6D62696E65642E6B696361645F70,rev?*%
%TF.FileFunction,Soldermask,Top*%
%FSLAX46Y46*%
G04 Gerber Fmt 4.6, Leading zero omitted, Abs format (unit mm)*
G04 Created by KiCad (PCBNEW 4.0.2-stable) date 27.07.2016 18:07:16*
%MOMM*%
G01*
G04 APERTURE LIST*
%ADD10C,0.100000*%
%ADD11C,0.010000*%
%ADD12C,0.150000*%
%ADD13C,1.400000*%
%ADD14C,1.000000*%
%ADD15R,2.127200X2.127200*%
%ADD16O,2.127200X2.127200*%
%ADD17R,1.901140X3.399740*%
%ADD18R,2.200860X1.200100*%
%ADD19R,1.900000X1.700000*%
%ADD20R,1.460000X1.050000*%
%ADD21R,1.900000X1.400000*%
%ADD22R,2.600000X1.600000*%
%ADD23C,1.900000*%
%ADD24R,2.200860X1.997660*%
%ADD25R,1.700000X1.900000*%
%ADD26R,1.050000X1.460000*%
G04 APERTURE END LIST*
D10*
D11*
X112250000Y-119300000D02*
X112250000Y-109000000D01*
X109250000Y-106500000D02*
X109250000Y-119300000D01*
X112250000Y-124350000D02*
X112250000Y-142500000D01*
X109250000Y-141500000D02*
X109250000Y-124350000D01*
X110750000Y-122850000D02*
G75*
G03X109250000Y-124350000I0J-1500000D01*
G01*
X112250000Y-124350000D02*
G75*
G03X110750000Y-122850000I-1500000J0D01*
G01*
X110750000Y-120800000D02*
G75*
G03X112250000Y-119300000I0J1500000D01*
G01*
X109250000Y-119300000D02*
G75*
G03X110750000Y-120800000I1500000J0D01*
G01*
D12*
X141000000Y-142500000D02*
X141000000Y-109000000D01*
X117250000Y-147500000D02*
X136000000Y-147500000D01*
X136000000Y-104000000D02*
X117250000Y-104000000D01*
X112250000Y-142500000D02*
G75*
G03X117250000Y-147500000I5000000J0D01*
G01*
X136000000Y-147500000D02*
G75*
G03X141000000Y-142500000I0J5000000D01*
G01*
X141000000Y-109000000D02*
G75*
G03X136000000Y-104000000I-5000000J0D01*
G01*
X117250000Y-104000000D02*
G75*
G03X112250000Y-109000000I0J-5000000D01*
G01*
D11*
X78750000Y-104000000D02*
X106750000Y-104000000D01*
X76250000Y-141500000D02*
X76250000Y-106500000D01*
X106750000Y-144000000D02*
X78750000Y-144000000D01*
X76250000Y-141500000D02*
G75*
G03X78750000Y-144000000I2500000J0D01*
G01*
X106750000Y-144000000D02*
G75*
G03X109250000Y-141500000I0J2500000D01*
G01*
X109250000Y-106500000D02*
G75*
G03X106750000Y-104000000I-2500000J0D01*
G01*
X78750000Y-104000000D02*
G75*
G03X76250000Y-106500000I0J-2500000D01*
G01*
D13*
X112250000Y-121750000D03*
X109250000Y-121800000D03*
D14*
X118350000Y-116050000D03*
X121400000Y-111900000D03*
X129900000Y-116750000D03*
X127950000Y-131200000D03*
X116050000Y-128450000D03*
X115050000Y-123450000D03*
X128400000Y-126300000D03*
X121700000Y-131000000D03*
X121300000Y-118000000D03*
X114500000Y-145250000D03*
X114750000Y-106250000D03*
X118600000Y-107100000D03*
X131500000Y-108600000D03*
X132100000Y-122400000D03*
X134400000Y-125600000D03*
X139400000Y-136800000D03*
X134100000Y-144500000D03*
X132300000Y-141800000D03*
X128500000Y-140400000D03*
X121300000Y-140400000D03*
D15*
X134460000Y-109750000D03*
D16*
X137000000Y-109750000D03*
X134460000Y-112290000D03*
X137000000Y-112290000D03*
X134460000Y-114830000D03*
X137000000Y-114830000D03*
X134460000Y-117370000D03*
X137000000Y-117370000D03*
X134460000Y-119910000D03*
X137000000Y-119910000D03*
D17*
X118400000Y-127800000D03*
X118400000Y-123802040D03*
D15*
X134560000Y-131350000D03*
D16*
X137100000Y-131350000D03*
X134560000Y-133890000D03*
X137100000Y-133890000D03*
X134560000Y-136430000D03*
X137100000Y-136430000D03*
X134560000Y-138970000D03*
X137100000Y-138970000D03*
X134560000Y-141510000D03*
X137100000Y-141510000D03*
D18*
X123498860Y-134800000D03*
X123498860Y-136700000D03*
X126501140Y-135750000D03*
X123498860Y-116800000D03*
X123498860Y-118700000D03*
X126501140Y-117750000D03*
X123498860Y-125800000D03*
X123498860Y-127700000D03*
X126501140Y-126750000D03*
X123498860Y-107800000D03*
X123498860Y-109700000D03*
X126501140Y-108750000D03*
D19*
X126350000Y-132750000D03*
X123650000Y-132750000D03*
X126350000Y-114750000D03*
X123650000Y-114750000D03*
X126350000Y-138750000D03*
X123650000Y-138750000D03*
X126350000Y-120750000D03*
X123650000Y-120750000D03*
X126350000Y-123750000D03*
X123650000Y-123750000D03*
X126350000Y-105750000D03*
X123650000Y-105750000D03*
X126350000Y-129750000D03*
X123650000Y-129750000D03*
X126350000Y-111750000D03*
X123650000Y-111750000D03*
D20*
X113650000Y-124550000D03*
X113650000Y-125500000D03*
X113650000Y-126450000D03*
X115850000Y-126450000D03*
X115850000Y-124550000D03*
D15*
X116500000Y-141600000D03*
D16*
X113960000Y-141600000D03*
X116500000Y-139060000D03*
X113960000Y-139060000D03*
X116500000Y-136520000D03*
X113960000Y-136520000D03*
X116500000Y-133980000D03*
X113960000Y-133980000D03*
X116500000Y-131440000D03*
X113960000Y-131440000D03*
D15*
X116500000Y-120000000D03*
D16*
X113960000Y-120000000D03*
X116500000Y-117460000D03*
X113960000Y-117460000D03*
X116500000Y-114920000D03*
X113960000Y-114920000D03*
X116500000Y-112380000D03*
X113960000Y-112380000D03*
X116500000Y-109840000D03*
X113960000Y-109840000D03*
D14*
X123700000Y-144800000D03*
X95100000Y-134950000D03*
X89250000Y-138250000D03*
X102400000Y-135900000D03*
X104300000Y-141750000D03*
X90700000Y-122150000D03*
D17*
X79500000Y-106001020D03*
X79500000Y-109998980D03*
D21*
X106500000Y-134125000D03*
X106500000Y-131625000D03*
X106500000Y-128325000D03*
X106500000Y-126625000D03*
X106500000Y-124125000D03*
X106500000Y-121625000D03*
X106500000Y-119200000D03*
X106500000Y-117500000D03*
X106500000Y-136625000D03*
X106500000Y-129975000D03*
X106500000Y-114150000D03*
D22*
X85500000Y-141650000D03*
X84300000Y-113650000D03*
D23*
X82200000Y-139350000D03*
X82200000Y-115150000D03*
D24*
X90000000Y-108169860D03*
X90000000Y-105330140D03*
D15*
X93500000Y-108250000D03*
D16*
X93500000Y-105710000D03*
X96040000Y-108250000D03*
X96040000Y-105710000D03*
X98580000Y-108250000D03*
X98580000Y-105710000D03*
X101120000Y-108250000D03*
X101120000Y-105710000D03*
X103660000Y-108250000D03*
X103660000Y-105710000D03*
D25*
X87000000Y-105400000D03*
X87000000Y-108100000D03*
D26*
X84450000Y-106900000D03*
X83500000Y-106900000D03*
X82550000Y-106900000D03*
X82550000Y-109100000D03*
X84450000Y-109100000D03*
D23*
X102300000Y-139600000D03*
X102300000Y-115400000D03*
D14*
X93700000Y-140850000D03*
M02*
