M48
;DRILL file {KiCad 4.0.2-stable} date 27.07.2016 16:29:27
;FORMAT={-:-/ absolute / metric / decimal}
FMAT,2
METRIC,TZ
T1C0.400
T2C1.016
%
G90
G05
M71
T1
X81.5Y-126.75
X83.75Y-105.75
X85.Y-104.75
X89.25Y-138.25
X90.7Y-122.15
X91.5Y-132.75
X93.7Y-140.85
X95.1Y-134.95
X98.5Y-121.85
X101.5Y-117.
X101.75Y-128.75
X102.25Y-124.
X102.4Y-135.9
X103.Y-119.25
X103.25Y-126.25
X103.75Y-121.5
X104.3Y-141.75
X113.5Y-127.5
X113.65Y-123.
X114.5Y-145.25
X114.75Y-106.25
X114.75Y-125.5
X115.05Y-123.45
X116.05Y-128.45
X118.35Y-116.05
X118.5Y-142.5
X118.6Y-107.1
X119.5Y-124.75
X119.75Y-115.5
X119.9Y-113.7
X121.3Y-118.
X121.3Y-140.4
X121.4Y-111.9
X121.7Y-131.
X122.3Y-114.35
X123.7Y-144.8
X126.Y-131.75
X127.75Y-124.5
X127.95Y-131.2
X128.25Y-108.75
X128.25Y-114.25
X128.25Y-117.5
X128.4Y-126.3
X128.5Y-140.4
X129.Y-120.25
X129.Y-129.
X129.25Y-125.
X129.9Y-116.75
X131.25Y-115.75
X131.5Y-108.6
X131.5Y-120.
X132.1Y-122.4
X132.3Y-141.8
X134.1Y-144.5
X134.4Y-125.6
X136.75Y-126.
X138.Y-126.
X139.4Y-136.8
X139.5Y-126.25
T2
X93.5Y-105.71
X93.5Y-108.25
X96.04Y-105.71
X96.04Y-108.25
X98.58Y-105.71
X98.58Y-108.25
X101.12Y-105.71
X101.12Y-108.25
X103.66Y-105.71
X103.66Y-108.25
X113.96Y-109.84
X113.96Y-112.38
X113.96Y-114.92
X113.96Y-117.46
X113.96Y-120.
X113.96Y-131.44
X113.96Y-133.98
X113.96Y-136.52
X113.96Y-139.06
X113.96Y-141.6
X116.5Y-109.84
X116.5Y-112.38
X116.5Y-114.92
X116.5Y-117.46
X116.5Y-120.
X116.5Y-131.44
X116.5Y-133.98
X116.5Y-136.52
X116.5Y-139.06
X116.5Y-141.6
X134.46Y-109.75
X134.46Y-112.29
X134.46Y-114.83
X134.46Y-117.37
X134.46Y-119.91
X134.56Y-131.35
X134.56Y-133.89
X134.56Y-136.43
X134.56Y-138.97
X134.56Y-141.51
X137.Y-109.75
X137.Y-112.29
X137.Y-114.83
X137.Y-117.37
X137.Y-119.91
X137.1Y-131.35
X137.1Y-133.89
X137.1Y-136.43
X137.1Y-138.97
X137.1Y-141.51
T0
M30
