%TF.GenerationSoftware,KiCad,Pcbnew,4.0.1-stable*%
%TF.CreationDate,2016-03-09T21:47:33+01:00*%
%TF.ProjectId,combined,636F6D62696E65642E6B696361645F70,Rev. A*%
%TF.FileFunction,Soldermask,Bot*%
%FSLAX46Y46*%
G04 Gerber Fmt 4.6, Leading zero omitted, Abs format (unit mm)*
G04 Created by KiCad (PCBNEW 4.0.1-stable) date 09.03.2016 21:47:33*
%MOMM*%
G01*
G04 APERTURE LIST*
%ADD10C,0.100000*%
%ADD11C,0.010000*%
%ADD12O,2.398980X2.398980*%
%ADD13R,2.398980X2.398980*%
%ADD14R,2.127200X2.432000*%
%ADD15O,2.127200X2.432000*%
%ADD16C,5.400000*%
%ADD17R,2.127200X2.127200*%
%ADD18O,2.127200X2.127200*%
%ADD19O,4.400000X6.900000*%
%ADD20C,2.900000*%
%ADD21R,2.432000X2.432000*%
%ADD22O,2.432000X2.432000*%
%ADD23O,2.099260X3.900120*%
%ADD24C,2.800000*%
%ADD25R,1.924000X1.924000*%
%ADD26C,1.924000*%
G04 APERTURE END LIST*
D10*
D11*
X219670000Y-105415000D02*
X219670000Y-125300000D01*
X217670000Y-105415000D02*
X217670000Y-125310000D01*
X219670000Y-96760000D02*
X219670000Y-100415000D01*
X217670000Y-100415000D02*
X217670000Y-96770000D01*
X219670000Y-105415000D02*
G75*
G03X218670000Y-104415000I-1000000J0D01*
G01*
X218670000Y-104415000D02*
G75*
G03X217670000Y-105415000I0J-1000000D01*
G01*
X218670000Y-101415000D02*
G75*
G03X219670000Y-100415000I0J1000000D01*
G01*
X217670000Y-100415000D02*
G75*
G03X218670000Y-101415000I1000000J0D01*
G01*
X193180000Y-109280000D02*
X193180000Y-96770000D01*
X193180000Y-115280000D02*
G75*
G03X192180000Y-114280000I-1000000J0D01*
G01*
X192180000Y-114280000D02*
G75*
G03X191180000Y-115280000I0J-1000000D01*
G01*
X193180000Y-115280000D02*
X193180000Y-125310000D01*
X191180000Y-115280000D02*
X191180000Y-125310000D01*
X192180000Y-110280000D02*
G75*
G03X193180000Y-109280000I0J1000000D01*
G01*
X191180000Y-109280000D02*
X191180000Y-87905000D01*
X191180000Y-109280000D02*
G75*
G03X192180000Y-110280000I1000000J0D01*
G01*
X192180000Y-86905000D02*
X192185000Y-86905000D01*
X192180000Y-86905000D02*
G75*
G03X191180000Y-87905000I0J-1000000D01*
G01*
X193185000Y-87905000D02*
G75*
G03X192185000Y-86905000I-1000000J0D01*
G01*
X193185000Y-94810000D02*
X193185000Y-87905000D01*
X191180000Y-81925000D02*
X191180000Y-77110000D01*
X191180000Y-81925000D02*
G75*
G03X192180000Y-82925000I1000000J0D01*
G01*
X192185000Y-82925000D02*
X192180000Y-82925000D01*
X192185000Y-82925000D02*
G75*
G03X193185000Y-81925000I0J1000000D01*
G01*
X193185000Y-77115000D02*
X193185000Y-81925000D01*
X208180000Y-51180000D02*
X208180000Y-47170000D01*
X207180000Y-52180000D02*
G75*
G03X208180000Y-51180000I0J1000000D01*
G01*
X207180000Y-52180000D02*
X207170000Y-52180000D01*
X206170000Y-51180000D02*
G75*
G03X207170000Y-52180000I1000000J0D01*
G01*
X206170000Y-42310000D02*
X206170000Y-51180000D01*
X208180000Y-57110000D02*
X208180000Y-74090000D01*
X207170000Y-56110000D02*
X207180000Y-56110000D01*
X208180000Y-57110000D02*
G75*
G03X207180000Y-56110000I-1000000J0D01*
G01*
X207170000Y-56110000D02*
G75*
G03X206170000Y-57110000I0J-1000000D01*
G01*
X206170000Y-57110000D02*
X206170000Y-74110000D01*
X203670000Y-76610000D02*
X221390000Y-76610000D01*
X174670000Y-76610000D02*
X190680000Y-76610000D01*
X173670000Y-75610000D02*
G75*
G03X174670000Y-76610000I1000000J0D01*
G01*
X174670000Y-74610000D02*
G75*
G03X173670000Y-75610000I0J-1000000D01*
G01*
X174670000Y-74610000D02*
X195670000Y-74610000D01*
X202670000Y-75610000D02*
G75*
G03X203670000Y-76610000I1000000J0D01*
G01*
X203670000Y-74610000D02*
G75*
G03X202670000Y-75610000I0J-1000000D01*
G01*
X196670000Y-75610000D02*
G75*
G03X195670000Y-74610000I-1000000J0D01*
G01*
X195670000Y-76610000D02*
G75*
G03X196670000Y-75610000I0J1000000D01*
G01*
X205670000Y-74610000D02*
X203670000Y-74610000D01*
X193680000Y-76610000D02*
X195670000Y-76610000D01*
X168670000Y-76610000D02*
X160680000Y-76610000D01*
X168670000Y-76610000D02*
G75*
G03X169670000Y-75610000I0J1000000D01*
G01*
X169670000Y-75610000D02*
G75*
G03X168670000Y-74610000I-1000000J0D01*
G01*
X160670000Y-74610000D02*
X168670000Y-74610000D01*
X208680000Y-74585000D02*
X237270000Y-74585000D01*
X237770000Y-47175000D02*
X237770000Y-74085000D01*
X208680000Y-46675000D02*
X237270000Y-46675000D01*
X208180000Y-74085000D02*
G75*
G03X208680000Y-74585000I500000J0D01*
G01*
X208680000Y-46675000D02*
G75*
G03X208180000Y-47175000I0J-500000D01*
G01*
X237770000Y-47175000D02*
G75*
G03X237270000Y-46675000I-500000J0D01*
G01*
X237270000Y-74585000D02*
G75*
G03X237770000Y-74085000I0J500000D01*
G01*
X190680000Y-125810000D02*
G75*
G03X191180000Y-125310000I0J500000D01*
G01*
X160180000Y-125310000D02*
G75*
G03X160680000Y-125810000I500000J0D01*
G01*
X160680000Y-76610000D02*
G75*
G03X160180000Y-77110000I0J-500000D01*
G01*
X191180000Y-77110000D02*
G75*
G03X190680000Y-76610000I-500000J0D01*
G01*
X160180000Y-125310000D02*
X160180000Y-77110000D01*
X190680000Y-125810000D02*
X160680000Y-125810000D01*
X193180000Y-125310000D02*
G75*
G03X193680000Y-125810000I500000J0D01*
G01*
X193680000Y-96270000D02*
G75*
G03X193180000Y-96770000I0J-500000D01*
G01*
X217670000Y-96770000D02*
G75*
G03X217170000Y-96270000I-500000J0D01*
G01*
X217170000Y-125810000D02*
G75*
G03X217670000Y-125310000I0J500000D01*
G01*
X193680000Y-125810000D02*
X217170000Y-125810000D01*
X217170000Y-96270000D02*
X193680000Y-96270000D01*
X221385000Y-95310000D02*
G75*
G03X221885000Y-94810000I0J500000D01*
G01*
X221885000Y-77110000D02*
G75*
G03X221385000Y-76610000I-500000J0D01*
G01*
X193685000Y-76610000D02*
G75*
G03X193185000Y-77110000I0J-500000D01*
G01*
X193185000Y-94810000D02*
G75*
G03X193685000Y-95310000I500000J0D01*
G01*
X221385000Y-95310000D02*
X193685000Y-95310000D01*
X221885000Y-77110000D02*
X221885000Y-94810000D01*
X219670000Y-125300000D02*
G75*
G03X220170000Y-125800000I500000J0D01*
G01*
X220170000Y-96260000D02*
G75*
G03X219670000Y-96760000I0J-500000D01*
G01*
X244160000Y-96760000D02*
G75*
G03X243660000Y-96260000I-500000J0D01*
G01*
X243660000Y-125800000D02*
G75*
G03X244160000Y-125300000I0J500000D01*
G01*
X220170000Y-125800000D02*
X243660000Y-125800000D01*
X243660000Y-96260000D02*
X220170000Y-96260000D01*
X244160000Y-125300000D02*
X244160000Y-96760000D01*
X160670000Y-41810000D02*
G75*
G03X160170000Y-42310000I0J-500000D01*
G01*
X206170000Y-42310000D02*
G75*
G03X205670000Y-41810000I-500000J0D01*
G01*
X205670000Y-74610000D02*
G75*
G03X206170000Y-74110000I0J500000D01*
G01*
X160170000Y-74110000D02*
G75*
G03X160670000Y-74610000I500000J0D01*
G01*
X160170000Y-42310000D02*
X160170000Y-74110000D01*
X205670000Y-41810000D02*
X160670000Y-41810000D01*
D12*
X229210000Y-50005000D03*
D13*
X221590000Y-50005000D03*
D12*
X224130000Y-50005000D03*
X226670000Y-50005000D03*
X218360000Y-50005000D03*
D13*
X210740000Y-50005000D03*
D12*
X213280000Y-50005000D03*
X215820000Y-50005000D03*
D14*
X211100000Y-54805000D03*
D15*
X213640000Y-54805000D03*
X216180000Y-54805000D03*
X218720000Y-54805000D03*
X221260000Y-54805000D03*
X223800000Y-54805000D03*
X226340000Y-54805000D03*
X228880000Y-54805000D03*
D16*
X234070000Y-52955000D03*
D17*
X228700000Y-69855000D03*
D18*
X228700000Y-72395000D03*
X226160000Y-69855000D03*
X226160000Y-72395000D03*
X223620000Y-69855000D03*
X223620000Y-72395000D03*
X221080000Y-69855000D03*
X221080000Y-72395000D03*
X218540000Y-69855000D03*
X218540000Y-72395000D03*
X216000000Y-69855000D03*
X216000000Y-72395000D03*
X213460000Y-69855000D03*
X213460000Y-72395000D03*
D19*
X165530000Y-100310000D03*
X165530000Y-90810000D03*
D20*
X165130000Y-117360000D03*
X165130000Y-122360000D03*
D12*
X187650000Y-80610000D03*
D13*
X185110000Y-80610000D03*
D21*
X185380000Y-88410000D03*
D22*
X187920000Y-88410000D03*
D20*
X179080000Y-81610000D03*
X174080000Y-81610000D03*
D23*
X177580000Y-92010000D03*
X180120000Y-92010000D03*
X175040000Y-92010000D03*
D16*
X178980000Y-105210000D03*
D17*
X187980000Y-121210000D03*
D18*
X187980000Y-123750000D03*
X185440000Y-121210000D03*
X185440000Y-123750000D03*
X182900000Y-121210000D03*
X182900000Y-123750000D03*
X180360000Y-121210000D03*
X180360000Y-123750000D03*
D21*
X215790000Y-106460000D03*
D22*
X213250000Y-106460000D03*
D23*
X201330000Y-110730000D03*
X203870000Y-110730000D03*
X198790000Y-110730000D03*
D12*
X213195000Y-99585000D03*
D13*
X215735000Y-99585000D03*
D20*
X198790000Y-101760000D03*
X203790000Y-101760000D03*
D16*
X209290000Y-110210000D03*
D17*
X215780000Y-121270000D03*
D18*
X215780000Y-123810000D03*
X213240000Y-121270000D03*
X213240000Y-123810000D03*
X210700000Y-121270000D03*
X210700000Y-123810000D03*
X208160000Y-121270000D03*
X208160000Y-123810000D03*
X205620000Y-121270000D03*
X205620000Y-123810000D03*
X203080000Y-121270000D03*
X203080000Y-123810000D03*
X200540000Y-121270000D03*
X200540000Y-123810000D03*
X198000000Y-121270000D03*
X198000000Y-123810000D03*
D24*
X197385000Y-90785000D03*
X205385000Y-90785000D03*
D17*
X220185000Y-88260000D03*
D18*
X217645000Y-88260000D03*
X220185000Y-85720000D03*
X217645000Y-85720000D03*
X220185000Y-83180000D03*
X217645000Y-83180000D03*
X220185000Y-80640000D03*
X217645000Y-80640000D03*
X220185000Y-78100000D03*
X217645000Y-78100000D03*
D21*
X242280000Y-106450000D03*
D22*
X239740000Y-106450000D03*
D23*
X227820000Y-110720000D03*
X230360000Y-110720000D03*
X225280000Y-110720000D03*
D12*
X239685000Y-99575000D03*
D13*
X242225000Y-99575000D03*
D20*
X225280000Y-101750000D03*
X230280000Y-101750000D03*
D16*
X235780000Y-110200000D03*
D17*
X242270000Y-121260000D03*
D18*
X242270000Y-123800000D03*
X239730000Y-121260000D03*
X239730000Y-123800000D03*
X237190000Y-121260000D03*
X237190000Y-123800000D03*
X234650000Y-121260000D03*
X234650000Y-123800000D03*
X232110000Y-121260000D03*
X232110000Y-123800000D03*
X229570000Y-121260000D03*
X229570000Y-123800000D03*
X227030000Y-121260000D03*
X227030000Y-123800000D03*
X224490000Y-121260000D03*
X224490000Y-123800000D03*
D12*
X198580000Y-45160000D03*
D13*
X190960000Y-45160000D03*
D12*
X193500000Y-45160000D03*
X196040000Y-45160000D03*
X176580000Y-45160000D03*
D13*
X168960000Y-45160000D03*
D12*
X171500000Y-45160000D03*
X174040000Y-45160000D03*
D14*
X190970000Y-50210000D03*
D15*
X193510000Y-50210000D03*
X196050000Y-50210000D03*
X198590000Y-50210000D03*
D14*
X168970000Y-50210000D03*
D15*
X171510000Y-50210000D03*
X174050000Y-50210000D03*
X176590000Y-50210000D03*
D17*
X195170000Y-62810000D03*
D18*
X195170000Y-60270000D03*
X197710000Y-62810000D03*
X197710000Y-60270000D03*
X200250000Y-62810000D03*
X200250000Y-60270000D03*
D17*
X173170000Y-62810000D03*
D18*
X173170000Y-60270000D03*
X175710000Y-62810000D03*
X175710000Y-60270000D03*
X178250000Y-62810000D03*
X178250000Y-60270000D03*
D25*
X203660000Y-53460000D03*
D26*
X201120000Y-53460000D03*
X198580000Y-53460000D03*
X196040000Y-53460000D03*
X193500000Y-53460000D03*
X190960000Y-53460000D03*
D25*
X188420000Y-53460000D03*
D26*
X185880000Y-53460000D03*
X185880000Y-66160000D03*
X188420000Y-66160000D03*
X190960000Y-66160000D03*
X193500000Y-66160000D03*
X196040000Y-66160000D03*
X198580000Y-66160000D03*
X201120000Y-66160000D03*
X203660000Y-66160000D03*
D25*
X181660000Y-53460000D03*
D26*
X179120000Y-53460000D03*
X176580000Y-53460000D03*
X174040000Y-53460000D03*
X171500000Y-53460000D03*
X168960000Y-53460000D03*
D25*
X166420000Y-53460000D03*
D26*
X163880000Y-53460000D03*
X163880000Y-66160000D03*
X166420000Y-66160000D03*
X168960000Y-66160000D03*
X171500000Y-66160000D03*
X174040000Y-66160000D03*
X176580000Y-66160000D03*
X179120000Y-66160000D03*
X181660000Y-66160000D03*
D16*
X183570000Y-46710000D03*
D17*
X195170000Y-70210000D03*
D18*
X195170000Y-72750000D03*
X192630000Y-70210000D03*
X192630000Y-72750000D03*
X190090000Y-70210000D03*
X190090000Y-72750000D03*
X187550000Y-70210000D03*
X187550000Y-72750000D03*
X185010000Y-70210000D03*
X185010000Y-72750000D03*
X182470000Y-70210000D03*
X182470000Y-72750000D03*
X179930000Y-70210000D03*
X179930000Y-72750000D03*
X177390000Y-70210000D03*
X177390000Y-72750000D03*
X174850000Y-70210000D03*
X174850000Y-72750000D03*
X172310000Y-70210000D03*
X172310000Y-72750000D03*
M02*
