M48
;DRILL file {KiCad 4.0.1-stable} date 09.03.2016 21:47:14
;FORMAT={-:-/ absolute / metric / decimal}
FMAT,2
METRIC,TZ
T1C0.400
T2C0.500
T3C0.813
T4C1.001
T5C1.016
T6C1.097
T7C1.300
T8C1.400
T9C2.200
T10C3.500
%
G90
G05
M71
T1
X162.78Y-79.31
X162.78Y-80.81
X162.78Y-82.31
X164.28Y-79.31
X164.28Y-80.81
X164.28Y-82.31
X165.78Y-79.31
X165.78Y-80.81
X165.78Y-82.31
X170.78Y-112.31
X170.78Y-113.81
X170.78Y-115.31
X170.78Y-116.81
X170.78Y-118.31
X170.78Y-119.81
X170.78Y-121.31
X170.78Y-122.81
X172.28Y-112.31
X172.28Y-113.81
X172.28Y-115.31
X172.28Y-116.81
X172.28Y-118.31
X172.28Y-119.81
X172.28Y-121.31
X172.28Y-122.81
X172.72Y-67.96
X173.78Y-112.31
X173.78Y-113.81
X173.78Y-115.31
X173.78Y-116.81
X173.78Y-118.31
X173.78Y-119.81
X173.78Y-121.31
X173.78Y-122.81
X175.28Y-118.31
X175.28Y-119.81
X175.28Y-121.31
X175.28Y-122.81
X176.78Y-118.31
X176.78Y-119.81
X176.78Y-121.31
X176.78Y-122.81
X178.28Y-118.31
X178.28Y-119.81
X178.28Y-121.31
X178.28Y-122.81
X179.27Y-50.81
X180.62Y-64.785
X180.77Y-50.81
X182.27Y-50.81
X182.28Y-82.81
X182.28Y-84.31
X182.28Y-85.81
X183.77Y-50.81
X184.38Y-109.41
X185.22Y-62.76
X185.27Y-50.81
X185.28Y-95.81
X185.88Y-91.61
X186.28Y-93.31
X186.38Y-116.21
X186.77Y-50.81
X187.18Y-102.01
X189.18Y-108.81
X189.48Y-115.01
X190.87Y-64.16
X196.79Y-98.21
X197.79Y-105.21
X197.79Y-106.71
X198.29Y-98.21
X199.185Y-82.91
X199.29Y-105.21
X199.29Y-106.71
X199.79Y-98.21
X200.085Y-88.61
X200.085Y-90.61
X200.085Y-92.61
X200.785Y-83.71
X200.79Y-105.21
X201.27Y-43.81
X201.27Y-45.31
X201.285Y-82.21
X201.29Y-98.21
X202.085Y-88.61
X202.085Y-90.61
X202.085Y-92.61
X202.27Y-64.785
X202.47Y-58.71
X202.77Y-43.81
X202.77Y-45.31
X202.79Y-98.21
X203.385Y-83.31
X204.27Y-43.81
X204.27Y-45.31
X204.29Y-98.21
X205.79Y-98.21
X205.835Y-77.86
X206.835Y-80.76
X207.085Y-82.31
X207.185Y-87.21
X207.29Y-98.21
X207.29Y-116.31
X207.685Y-84.61
X207.835Y-77.86
X208.79Y-98.21
X209.05Y-68.955
X209.45Y-70.005
X209.45Y-71.505
X209.45Y-73.005
X209.47Y-58.735
X210.19Y-114.51
X210.19Y-117.81
X210.29Y-98.21
X210.95Y-70.005
X210.95Y-71.505
X210.95Y-73.005
X211.99Y-112.71
X211.99Y-120.01
X212.35Y-51.83
X212.585Y-91.71
X212.585Y-93.11
X213.7Y-57.455
X213.89Y-114.11
X213.97Y-63.655
X213.98Y-65.735
X213.99Y-116.71
X214.16Y-48.055
X214.585Y-90.71
X214.585Y-92.11
X214.69Y-110.91
X214.775Y-51.93
X214.79Y-102.21
X216.29Y-102.21
X216.29Y-103.71
X216.585Y-91.11
X216.585Y-93.11
X217.55Y-51.98
X219.7Y-47.985
X219.925Y-51.98
X220.05Y-60.945
X220.06Y-64.485
X222.49Y-68.055
X222.65Y-51.98
X223.28Y-98.2
X224.28Y-105.2
X224.28Y-106.7
X224.78Y-98.2
X225.02Y-67.335
X225.2Y-51.855
X225.34Y-47.905
X225.78Y-105.2
X225.78Y-106.7
X226.15Y-60.335
X226.28Y-98.2
X227.28Y-105.2
X227.42Y-58.615
X227.78Y-98.2
X228.075Y-51.805
X229.28Y-98.2
X230.65Y-57.105
X230.69Y-58.825
X230.78Y-98.2
X232.28Y-98.2
X232.5Y-69.155
X233.78Y-98.2
X233.78Y-116.3
X234.1Y-65.605
X235.28Y-98.2
X235.5Y-69.155
X235.7Y-65.705
X236.68Y-114.5
X236.68Y-117.8
X236.78Y-98.2
X238.48Y-112.7
X238.48Y-120.
X240.38Y-114.1
X240.48Y-116.7
X241.18Y-110.9
X241.28Y-102.2
X242.78Y-102.2
X242.78Y-103.7
T2
X169.67Y-74.36
X169.67Y-76.86
X170.67Y-74.36
X170.67Y-76.86
X171.67Y-74.36
X171.67Y-76.86
X172.67Y-74.36
X172.67Y-76.86
X173.67Y-74.36
X173.67Y-76.86
X190.93Y-82.925
X190.93Y-83.925
X190.93Y-84.925
X190.93Y-85.925
X190.93Y-86.925
X190.93Y-110.28
X190.93Y-111.28
X190.93Y-112.28
X190.93Y-113.28
X190.93Y-114.28
X193.43Y-110.28
X193.43Y-111.28
X193.43Y-112.28
X193.43Y-113.28
X193.43Y-114.28
X193.435Y-82.905
X193.435Y-83.905
X193.435Y-84.905
X193.435Y-85.905
X193.435Y-86.905
X196.67Y-74.36
X196.67Y-76.83
X197.67Y-74.36
X197.67Y-76.83
X198.67Y-74.36
X198.67Y-76.83
X199.67Y-74.36
X199.67Y-76.83
X200.67Y-74.36
X200.67Y-76.83
X201.67Y-74.36
X201.67Y-76.83
X202.67Y-74.36
X202.67Y-76.83
X205.92Y-52.18
X205.92Y-53.18
X205.92Y-54.18
X205.92Y-55.18
X205.92Y-56.18
X208.35Y-52.18
X208.35Y-53.18
X208.35Y-54.18
X208.35Y-55.18
X208.35Y-56.18
X217.42Y-101.415
X217.42Y-102.415
X217.42Y-103.415
X217.42Y-104.415
X219.92Y-101.415
X219.92Y-102.415
X219.92Y-103.415
X219.92Y-104.415
T3
X163.88Y-53.46
X163.88Y-66.16
X166.42Y-53.46
X166.42Y-66.16
X168.96Y-53.46
X168.96Y-66.16
X171.5Y-53.46
X171.5Y-66.16
X174.04Y-53.46
X174.04Y-66.16
X176.58Y-53.46
X176.58Y-66.16
X179.12Y-53.46
X179.12Y-66.16
X181.66Y-53.46
X181.66Y-66.16
X185.88Y-53.46
X185.88Y-66.16
X188.42Y-53.46
X188.42Y-66.16
X190.96Y-53.46
X190.96Y-66.16
X193.5Y-53.46
X193.5Y-66.16
X196.04Y-53.46
X196.04Y-66.16
X198.58Y-53.46
X198.58Y-66.16
X201.12Y-53.46
X201.12Y-66.16
X203.66Y-53.46
X203.66Y-66.16
T4
X175.04Y-92.01
X177.58Y-92.01
X180.12Y-92.01
X198.79Y-110.73
X201.33Y-110.73
X203.87Y-110.73
X225.28Y-110.72
X227.82Y-110.72
X230.36Y-110.72
T5
X168.97Y-50.21
X171.51Y-50.21
X172.31Y-70.21
X172.31Y-72.75
X173.17Y-60.27
X173.17Y-62.81
X174.05Y-50.21
X174.85Y-70.21
X174.85Y-72.75
X175.71Y-60.27
X175.71Y-62.81
X176.59Y-50.21
X177.39Y-70.21
X177.39Y-72.75
X178.25Y-60.27
X178.25Y-62.81
X179.93Y-70.21
X179.93Y-72.75
X180.36Y-121.21
X180.36Y-123.75
X182.47Y-70.21
X182.47Y-72.75
X182.9Y-121.21
X182.9Y-123.75
X185.01Y-70.21
X185.01Y-72.75
X185.38Y-88.41
X185.44Y-121.21
X185.44Y-123.75
X187.55Y-70.21
X187.55Y-72.75
X187.92Y-88.41
X187.98Y-121.21
X187.98Y-123.75
X190.09Y-70.21
X190.09Y-72.75
X190.97Y-50.21
X192.63Y-70.21
X192.63Y-72.75
X193.51Y-50.21
X195.17Y-60.27
X195.17Y-62.81
X195.17Y-70.21
X195.17Y-72.75
X196.05Y-50.21
X197.71Y-60.27
X197.71Y-62.81
X198.Y-121.27
X198.Y-123.81
X198.59Y-50.21
X200.25Y-60.27
X200.25Y-62.81
X200.54Y-121.27
X200.54Y-123.81
X203.08Y-121.27
X203.08Y-123.81
X205.62Y-121.27
X205.62Y-123.81
X208.16Y-121.27
X208.16Y-123.81
X210.7Y-121.27
X210.7Y-123.81
X211.1Y-54.805
X213.24Y-121.27
X213.24Y-123.81
X213.25Y-106.46
X213.46Y-69.855
X213.46Y-72.395
X213.64Y-54.805
X215.78Y-121.27
X215.78Y-123.81
X215.79Y-106.46
X216.Y-69.855
X216.Y-72.395
X216.18Y-54.805
X217.645Y-78.1
X217.645Y-80.64
X217.645Y-83.18
X217.645Y-85.72
X217.645Y-88.26
X218.54Y-69.855
X218.54Y-72.395
X218.72Y-54.805
X220.185Y-78.1
X220.185Y-80.64
X220.185Y-83.18
X220.185Y-85.72
X220.185Y-88.26
X221.08Y-69.855
X221.08Y-72.395
X221.26Y-54.805
X223.62Y-69.855
X223.62Y-72.395
X223.8Y-54.805
X224.49Y-121.26
X224.49Y-123.8
X226.16Y-69.855
X226.16Y-72.395
X226.34Y-54.805
X227.03Y-121.26
X227.03Y-123.8
X228.7Y-69.855
X228.7Y-72.395
X228.88Y-54.805
X229.57Y-121.26
X229.57Y-123.8
X232.11Y-121.26
X232.11Y-123.8
X234.65Y-121.26
X234.65Y-123.8
X237.19Y-121.26
X237.19Y-123.8
X239.73Y-121.26
X239.73Y-123.8
X239.74Y-106.45
X242.27Y-121.26
X242.27Y-123.8
X242.28Y-106.45
T6
X168.96Y-45.16
X171.5Y-45.16
X174.04Y-45.16
X176.58Y-45.16
X185.11Y-80.61
X187.65Y-80.61
X190.96Y-45.16
X193.5Y-45.16
X196.04Y-45.16
X198.58Y-45.16
X210.74Y-50.005
X213.195Y-99.585
X213.28Y-50.005
X215.735Y-99.585
X215.82Y-50.005
X218.36Y-50.005
X221.59Y-50.005
X224.13Y-50.005
X226.67Y-50.005
X229.21Y-50.005
X239.685Y-99.575
X242.225Y-99.575
T7
X165.13Y-117.36
X165.13Y-122.36
X174.08Y-81.61
X179.08Y-81.61
X198.79Y-101.76
X203.79Y-101.76
X225.28Y-101.75
X230.28Y-101.75
T9
X197.385Y-90.785
X205.385Y-90.785
T10
X178.98Y-105.21
X183.57Y-46.71
X209.29Y-110.21
X234.07Y-52.955
X235.78Y-110.2
T8
X165.53Y-92.76G85X165.53Y-88.86
G05
X165.53Y-102.26G85X165.53Y-98.36
G05
T0
M30
