%TF.GenerationSoftware,KiCad,Pcbnew,4.0.2-stable*%
%TF.CreationDate,2016-07-27T18:07:16+02:00*%
%TF.ProjectId,combined,636F6D62696E65642E6B696361645F70,rev?*%
%TF.FileFunction,Copper,L1,Top,Signal*%
%FSLAX46Y46*%
G04 Gerber Fmt 4.6, Leading zero omitted, Abs format (unit mm)*
G04 Created by KiCad (PCBNEW 4.0.2-stable) date 27.07.2016 18:07:16*
%MOMM*%
G01*
G04 APERTURE LIST*
%ADD10C,0.100000*%
%ADD11C,0.010000*%
%ADD12C,0.150000*%
%ADD13C,0.600000*%
%ADD14R,1.727200X1.727200*%
%ADD15O,1.727200X1.727200*%
%ADD16R,1.501140X2.999740*%
%ADD17R,1.800860X0.800100*%
%ADD18R,1.500000X1.300000*%
%ADD19R,1.060000X0.650000*%
%ADD20R,1.500000X1.000000*%
%ADD21R,2.200000X1.200000*%
%ADD22R,1.800860X1.597660*%
%ADD23R,1.300000X1.500000*%
%ADD24R,0.650000X1.060000*%
%ADD25C,0.500000*%
%ADD26C,0.350000*%
%ADD27C,0.300000*%
%ADD28C,0.254000*%
G04 APERTURE END LIST*
D10*
D11*
X112250000Y-119300000D02*
X112250000Y-109000000D01*
X109250000Y-106500000D02*
X109250000Y-119300000D01*
X112250000Y-124350000D02*
X112250000Y-142500000D01*
X109250000Y-141500000D02*
X109250000Y-124350000D01*
X110750000Y-122850000D02*
G75*
G03X109250000Y-124350000I0J-1500000D01*
G01*
X112250000Y-124350000D02*
G75*
G03X110750000Y-122850000I-1500000J0D01*
G01*
X110750000Y-120800000D02*
G75*
G03X112250000Y-119300000I0J1500000D01*
G01*
X109250000Y-119300000D02*
G75*
G03X110750000Y-120800000I1500000J0D01*
G01*
D12*
X141000000Y-142500000D02*
X141000000Y-109000000D01*
X117250000Y-147500000D02*
X136000000Y-147500000D01*
X136000000Y-104000000D02*
X117250000Y-104000000D01*
X112250000Y-142500000D02*
G75*
G03X117250000Y-147500000I5000000J0D01*
G01*
X136000000Y-147500000D02*
G75*
G03X141000000Y-142500000I0J5000000D01*
G01*
X141000000Y-109000000D02*
G75*
G03X136000000Y-104000000I-5000000J0D01*
G01*
X117250000Y-104000000D02*
G75*
G03X112250000Y-109000000I0J-5000000D01*
G01*
D11*
X78750000Y-104000000D02*
X106750000Y-104000000D01*
X76250000Y-141500000D02*
X76250000Y-106500000D01*
X106750000Y-144000000D02*
X78750000Y-144000000D01*
X76250000Y-141500000D02*
G75*
G03X78750000Y-144000000I2500000J0D01*
G01*
X106750000Y-144000000D02*
G75*
G03X109250000Y-141500000I0J2500000D01*
G01*
X109250000Y-106500000D02*
G75*
G03X106750000Y-104000000I-2500000J0D01*
G01*
X78750000Y-104000000D02*
G75*
G03X76250000Y-106500000I0J-2500000D01*
G01*
D13*
X118350000Y-116050000D03*
X121400000Y-111900000D03*
X129900000Y-116750000D03*
X127950000Y-131200000D03*
X116050000Y-128450000D03*
X115050000Y-123450000D03*
X128400000Y-126300000D03*
X121700000Y-131000000D03*
X121300000Y-118000000D03*
X114500000Y-145250000D03*
X114750000Y-106250000D03*
X118600000Y-107100000D03*
X131500000Y-108600000D03*
X132100000Y-122400000D03*
X134400000Y-125600000D03*
X139400000Y-136800000D03*
X134100000Y-144500000D03*
X132300000Y-141800000D03*
X128500000Y-140400000D03*
X121300000Y-140400000D03*
D14*
X134460000Y-109750000D03*
D15*
X137000000Y-109750000D03*
X134460000Y-112290000D03*
X137000000Y-112290000D03*
X134460000Y-114830000D03*
X137000000Y-114830000D03*
X134460000Y-117370000D03*
X137000000Y-117370000D03*
X134460000Y-119910000D03*
X137000000Y-119910000D03*
D16*
X118400000Y-127800000D03*
X118400000Y-123802040D03*
D14*
X134560000Y-131350000D03*
D15*
X137100000Y-131350000D03*
X134560000Y-133890000D03*
X137100000Y-133890000D03*
X134560000Y-136430000D03*
X137100000Y-136430000D03*
X134560000Y-138970000D03*
X137100000Y-138970000D03*
X134560000Y-141510000D03*
X137100000Y-141510000D03*
D17*
X123498860Y-134800000D03*
X123498860Y-136700000D03*
X126501140Y-135750000D03*
X123498860Y-116800000D03*
X123498860Y-118700000D03*
X126501140Y-117750000D03*
X123498860Y-125800000D03*
X123498860Y-127700000D03*
X126501140Y-126750000D03*
X123498860Y-107800000D03*
X123498860Y-109700000D03*
X126501140Y-108750000D03*
D18*
X126350000Y-132750000D03*
X123650000Y-132750000D03*
X126350000Y-114750000D03*
X123650000Y-114750000D03*
X126350000Y-138750000D03*
X123650000Y-138750000D03*
X126350000Y-120750000D03*
X123650000Y-120750000D03*
X126350000Y-123750000D03*
X123650000Y-123750000D03*
X126350000Y-105750000D03*
X123650000Y-105750000D03*
X126350000Y-129750000D03*
X123650000Y-129750000D03*
X126350000Y-111750000D03*
X123650000Y-111750000D03*
D19*
X113650000Y-124550000D03*
X113650000Y-125500000D03*
X113650000Y-126450000D03*
X115850000Y-126450000D03*
X115850000Y-124550000D03*
D14*
X116500000Y-141600000D03*
D15*
X113960000Y-141600000D03*
X116500000Y-139060000D03*
X113960000Y-139060000D03*
X116500000Y-136520000D03*
X113960000Y-136520000D03*
X116500000Y-133980000D03*
X113960000Y-133980000D03*
X116500000Y-131440000D03*
X113960000Y-131440000D03*
D14*
X116500000Y-120000000D03*
D15*
X113960000Y-120000000D03*
X116500000Y-117460000D03*
X113960000Y-117460000D03*
X116500000Y-114920000D03*
X113960000Y-114920000D03*
X116500000Y-112380000D03*
X113960000Y-112380000D03*
X116500000Y-109840000D03*
X113960000Y-109840000D03*
D13*
X123700000Y-144800000D03*
X95100000Y-134950000D03*
X89250000Y-138250000D03*
X102400000Y-135900000D03*
X104300000Y-141750000D03*
X90700000Y-122150000D03*
D16*
X79500000Y-106001020D03*
X79500000Y-109998980D03*
D20*
X106500000Y-134125000D03*
X106500000Y-131625000D03*
X106500000Y-128325000D03*
X106500000Y-126625000D03*
X106500000Y-124125000D03*
X106500000Y-121625000D03*
X106500000Y-119200000D03*
X106500000Y-117500000D03*
X106500000Y-136625000D03*
X106500000Y-129975000D03*
X106500000Y-114150000D03*
D21*
X85500000Y-141650000D03*
X84300000Y-113650000D03*
D22*
X90000000Y-108169860D03*
X90000000Y-105330140D03*
D14*
X93500000Y-108250000D03*
D15*
X93500000Y-105710000D03*
X96040000Y-108250000D03*
X96040000Y-105710000D03*
X98580000Y-108250000D03*
X98580000Y-105710000D03*
X101120000Y-108250000D03*
X101120000Y-105710000D03*
X103660000Y-108250000D03*
X103660000Y-105710000D03*
D23*
X87000000Y-105400000D03*
X87000000Y-108100000D03*
D24*
X84450000Y-106900000D03*
X83500000Y-106900000D03*
X82550000Y-106900000D03*
X82550000Y-109100000D03*
X84450000Y-109100000D03*
D13*
X93700000Y-140850000D03*
X114750000Y-125500000D03*
X98500000Y-121850000D03*
X103750000Y-121500000D03*
X83750000Y-105750000D03*
X126000000Y-131750000D03*
X128250000Y-108750000D03*
X128250000Y-114250000D03*
X128250000Y-117500000D03*
X127750000Y-124500000D03*
X119500000Y-124750000D03*
X103250000Y-126250000D03*
X81500000Y-126750000D03*
X118500000Y-142500000D03*
X136750000Y-126000000D03*
X138000000Y-126000000D03*
X139500000Y-126250000D03*
X129000000Y-120250000D03*
X131250000Y-115750000D03*
X131500000Y-120000000D03*
X129250000Y-125000000D03*
X113650000Y-123000000D03*
X113500000Y-127500000D03*
X129000000Y-129000000D03*
X85000000Y-104750000D03*
X119900000Y-113700000D03*
X122300000Y-114350000D03*
X119750000Y-115500000D03*
X91500000Y-132750000D03*
X101750000Y-128750000D03*
X102250000Y-124000000D03*
X101500000Y-117000000D03*
X103000000Y-119250000D03*
D25*
X113650000Y-125500000D02*
X114750000Y-125500000D01*
X116750000Y-123250000D02*
X116750000Y-120250000D01*
X116750000Y-120250000D02*
X116500000Y-120000000D01*
X118400000Y-127800000D02*
X116950000Y-127800000D01*
X116950000Y-127800000D02*
X116250000Y-128500000D01*
X106500000Y-121625000D02*
X103875000Y-121625000D01*
X103875000Y-121625000D02*
X103750000Y-121500000D01*
X83500000Y-106900000D02*
X83500000Y-106000000D01*
X83500000Y-106000000D02*
X83750000Y-105750000D01*
X126000000Y-131750000D02*
X126000000Y-132400000D01*
X126000000Y-132400000D02*
X126350000Y-132750000D01*
X128250000Y-108750000D02*
X126501140Y-108750000D01*
X128250000Y-117500000D02*
X128250000Y-114250000D01*
X126501140Y-117750000D02*
X128000000Y-117750000D01*
X128000000Y-117750000D02*
X128250000Y-117500000D01*
X127750000Y-124500000D02*
X127100000Y-124500000D01*
X127100000Y-124500000D02*
X126350000Y-123750000D01*
X118400000Y-123802040D02*
X118552040Y-123802040D01*
X118552040Y-123802040D02*
X119500000Y-124750000D01*
D26*
X126501140Y-135750000D02*
X126501140Y-132901140D01*
X126501140Y-132901140D02*
X126350000Y-132750000D01*
X126501140Y-108750000D02*
X126501140Y-105901140D01*
X126501140Y-105901140D02*
X126350000Y-105750000D01*
X126501140Y-117750000D02*
X126501140Y-114901140D01*
X126501140Y-114901140D02*
X126350000Y-114750000D01*
X126501140Y-126750000D02*
X126501140Y-123901140D01*
X126501140Y-123901140D02*
X126350000Y-123750000D01*
D25*
X115850000Y-124550000D02*
X117652040Y-124550000D01*
X117652040Y-124550000D02*
X118400000Y-123802040D01*
X106500000Y-126625000D02*
X103625000Y-126625000D01*
X103625000Y-126625000D02*
X103250000Y-126250000D01*
X80250000Y-125000000D02*
X81500000Y-126250000D01*
X81500000Y-126250000D02*
X81500000Y-126750000D01*
X80250000Y-113750000D02*
X80250000Y-125000000D01*
X81251590Y-112748410D02*
X80250000Y-113750000D01*
X81251590Y-110500000D02*
X81251590Y-112748410D01*
D26*
X85500000Y-107000000D02*
X85500000Y-107845000D01*
X85500000Y-107845000D02*
X84450000Y-108895000D01*
X84450000Y-108895000D02*
X84450000Y-109100000D01*
X87000000Y-105500000D02*
X85500000Y-107000000D01*
D25*
X84080000Y-110500000D02*
X81251590Y-110500000D01*
X81251590Y-110500000D02*
X80750570Y-109998980D01*
X80750570Y-109998980D02*
X79500000Y-109998980D01*
X84450000Y-109100000D02*
X84450000Y-110130000D01*
X84450000Y-110130000D02*
X84080000Y-110500000D01*
D27*
X87000000Y-105500000D02*
X87000000Y-105400000D01*
D26*
X115250000Y-132730000D02*
X115250000Y-134563130D01*
X113960000Y-131440000D02*
X115250000Y-132730000D01*
X115936870Y-135250000D02*
X117250000Y-135250000D01*
X115250000Y-134563130D02*
X115936870Y-135250000D01*
X117250000Y-135250000D02*
X118500000Y-136500000D01*
X118500000Y-136500000D02*
X118500000Y-142500000D01*
X137000000Y-117370000D02*
X138221314Y-117370000D01*
X138221314Y-117370000D02*
X138899980Y-118048666D01*
X138899980Y-118048666D02*
X138899980Y-123850020D01*
X138899980Y-123850020D02*
X138250000Y-124500000D01*
X138250000Y-124500000D02*
X136750000Y-126000000D01*
X139449990Y-124550010D02*
X139449990Y-116250000D01*
X137000000Y-114830000D02*
X138221314Y-114830000D01*
X138221314Y-114830000D02*
X139449990Y-116058676D01*
X139449990Y-116058676D02*
X139449990Y-116250000D01*
X138000000Y-126000000D02*
X139449990Y-124550010D01*
X137000000Y-112290000D02*
X138221314Y-112290000D01*
X138221314Y-112290000D02*
X140000000Y-114068686D01*
X140000000Y-114068686D02*
X140000000Y-125750000D01*
X140000000Y-125750000D02*
X139500000Y-126250000D01*
X113960000Y-136520000D02*
X113960000Y-137226870D01*
D25*
X126350000Y-120750000D02*
X128500000Y-120750000D01*
X128500000Y-120750000D02*
X129000000Y-120250000D01*
X126350000Y-111750000D02*
X127600000Y-111750000D01*
X127600000Y-111750000D02*
X130950001Y-115100001D01*
X130950001Y-115100001D02*
X130950001Y-115450001D01*
X131250000Y-115750000D02*
X130950001Y-115450001D01*
X129250000Y-121750000D02*
X129750000Y-121750000D01*
X129750000Y-121750000D02*
X131500000Y-120000000D01*
X129250000Y-121750000D02*
X128250000Y-120750000D01*
X128250000Y-120750000D02*
X126350000Y-120750000D01*
X129250000Y-125000000D02*
X129250000Y-121750000D01*
X126350000Y-129750000D02*
X127600000Y-129750000D01*
X126350000Y-138750000D02*
X127600000Y-138750000D01*
X113650000Y-124550000D02*
X113650000Y-123000000D01*
X113650000Y-123000000D02*
X113650000Y-120310000D01*
X113650000Y-126450000D02*
X113650000Y-127350000D01*
X113650000Y-127350000D02*
X113500000Y-127500000D01*
X113650000Y-120310000D02*
X113960000Y-120000000D01*
X131830000Y-131420000D02*
X134460000Y-131420000D01*
X129250000Y-134000000D02*
X129250000Y-130250000D01*
X129250000Y-130250000D02*
X129000000Y-130000000D01*
X129000000Y-130000000D02*
X129000000Y-129000000D01*
X128250000Y-129750000D02*
X129000000Y-129000000D01*
X129250000Y-137100000D02*
X129250000Y-134000000D01*
X129250000Y-134000000D02*
X131830000Y-131420000D01*
X127600000Y-129750000D02*
X128250000Y-129750000D01*
X127600000Y-138750000D02*
X129250000Y-137100000D01*
X85000000Y-104750000D02*
X83250000Y-104750000D01*
X83250000Y-104750000D02*
X82550000Y-105450000D01*
X82550000Y-105450000D02*
X82550000Y-106900000D01*
X85000000Y-104750000D02*
X85000000Y-106350000D01*
X85000000Y-106350000D02*
X84450000Y-106900000D01*
D27*
X84500000Y-106850000D02*
X84450000Y-106900000D01*
D26*
X123650000Y-132750000D02*
X120250000Y-132750000D01*
X120250000Y-132750000D02*
X119600000Y-132100000D01*
X119600000Y-132100000D02*
X119600000Y-130850000D01*
X119600000Y-130850000D02*
X121250000Y-129200000D01*
X120449990Y-120199990D02*
X118948601Y-118698601D01*
X118948601Y-118698601D02*
X115198601Y-118698601D01*
X121250000Y-129200000D02*
X121250000Y-124000000D01*
X121250000Y-124000000D02*
X120449990Y-123199990D01*
X115198601Y-118698601D02*
X113960000Y-117460000D01*
X120449990Y-123199990D02*
X120449990Y-120199990D01*
X123650000Y-132750000D02*
X123650000Y-134648860D01*
X123650000Y-134648860D02*
X123498860Y-134800000D01*
X123498860Y-107800000D02*
X123498860Y-105901140D01*
X123498860Y-105901140D02*
X123650000Y-105750000D01*
X116500000Y-112380000D02*
X118918860Y-112380000D01*
X118918860Y-112380000D02*
X122248430Y-109050430D01*
X122248430Y-109050430D02*
X122248430Y-108550050D01*
X122248430Y-108550050D02*
X122998480Y-107800000D01*
X122998480Y-107800000D02*
X123498860Y-107800000D01*
X119900000Y-113700000D02*
X119450000Y-113700000D01*
X119450000Y-113700000D02*
X119431399Y-113681399D01*
X122300000Y-114350000D02*
X123250000Y-114350000D01*
X123250000Y-114350000D02*
X123650000Y-114750000D01*
X113960000Y-112380000D02*
X115181399Y-113601399D01*
X115181399Y-113681399D02*
X119431399Y-113681399D01*
X115181399Y-113601399D02*
X115181399Y-113681399D01*
X123498860Y-116800000D02*
X123498860Y-114901140D01*
X123498860Y-114901140D02*
X123650000Y-114750000D01*
X119750000Y-115500000D02*
X119750000Y-118450000D01*
X119750000Y-118450000D02*
X121000000Y-119700000D01*
X121000000Y-119700000D02*
X121000000Y-122500000D01*
X121000000Y-122500000D02*
X122250000Y-123750000D01*
X122250000Y-123750000D02*
X123650000Y-123750000D01*
X123650000Y-123750000D02*
X123650000Y-125648860D01*
X123650000Y-125648860D02*
X123498860Y-125800000D01*
X127400000Y-143500000D02*
X136293600Y-143500000D01*
X136293600Y-143500000D02*
X137000000Y-142793600D01*
X137000000Y-142793600D02*
X137000000Y-141580000D01*
X137000000Y-141580000D02*
X136772798Y-141580000D01*
X123650000Y-138750000D02*
X123650000Y-139750000D01*
X123650000Y-139750000D02*
X127400000Y-143500000D01*
X123650000Y-138750000D02*
X123650000Y-136851140D01*
X123650000Y-136851140D02*
X123498860Y-136700000D01*
X128500000Y-128000000D02*
X134460000Y-122040000D01*
X134460000Y-122040000D02*
X134460000Y-119910000D01*
X125049290Y-128000000D02*
X128500000Y-128000000D01*
X124749290Y-127700000D02*
X125049290Y-128000000D01*
X123498860Y-127700000D02*
X124749290Y-127700000D01*
X123498860Y-127700000D02*
X123498860Y-129598860D01*
X123498860Y-129598860D02*
X123650000Y-129750000D01*
X130500000Y-119250000D02*
X132380000Y-117370000D01*
X132380000Y-117370000D02*
X134460000Y-117370000D01*
X125299290Y-119250000D02*
X130500000Y-119250000D01*
X124749290Y-118700000D02*
X125299290Y-119250000D01*
X123498860Y-118700000D02*
X124749290Y-118700000D01*
X123498860Y-118700000D02*
X123498860Y-120598860D01*
X123498860Y-120598860D02*
X123650000Y-120750000D01*
X127500000Y-110000000D02*
X132330000Y-114830000D01*
X132330000Y-114830000D02*
X134460000Y-114830000D01*
X125049290Y-110000000D02*
X127500000Y-110000000D01*
X124749290Y-109700000D02*
X125049290Y-110000000D01*
X123498860Y-109700000D02*
X124749290Y-109700000D01*
X123498860Y-109700000D02*
X123498860Y-111598860D01*
X123498860Y-111598860D02*
X123650000Y-111750000D01*
X102125000Y-131625000D02*
X92625000Y-131625000D01*
X92625000Y-131625000D02*
X91500000Y-132750000D01*
X99000000Y-128500000D02*
X102125000Y-131625000D01*
X102125000Y-131625000D02*
X106500000Y-131625000D01*
X99000000Y-126500000D02*
X99000000Y-128500000D01*
X97250000Y-124750000D02*
X99000000Y-126500000D01*
X97250000Y-111413130D02*
X97250000Y-124750000D01*
X101120000Y-105710000D02*
X101120000Y-106416870D01*
X101120000Y-106416870D02*
X99818601Y-107718269D01*
X99818601Y-107718269D02*
X99818601Y-108844529D01*
X99818601Y-108844529D02*
X97250000Y-111413130D01*
X102825000Y-128325000D02*
X102175000Y-128325000D01*
X102175000Y-128325000D02*
X101750000Y-128750000D01*
D25*
X106500000Y-128325000D02*
X102825000Y-128325000D01*
X102825000Y-128325000D02*
X100250000Y-125750000D01*
X100250000Y-125750000D02*
X100250000Y-110341314D01*
X100250000Y-110341314D02*
X101120000Y-109471314D01*
X101120000Y-109471314D02*
X101120000Y-108250000D01*
X102250000Y-124000000D02*
X106375000Y-124000000D01*
X106375000Y-124000000D02*
X106500000Y-124125000D01*
D26*
X103000000Y-119250000D02*
X103000000Y-118500000D01*
X103000000Y-118500000D02*
X101500000Y-117000000D01*
D25*
X103000000Y-119250000D02*
X106450000Y-119250000D01*
X106450000Y-119250000D02*
X106500000Y-119200000D01*
X87000000Y-108100000D02*
X89930140Y-108100000D01*
X89930140Y-108100000D02*
X90000000Y-108169860D01*
D27*
X87069860Y-108169860D02*
X87000000Y-108100000D01*
D28*
G36*
X135940330Y-120999029D02*
X136426511Y-121323885D01*
X137000000Y-121437959D01*
X137573489Y-121323885D01*
X138059670Y-120999029D01*
X138089980Y-120953667D01*
X138089980Y-123514507D01*
X137677246Y-123927242D01*
X137677243Y-123927244D01*
X136521917Y-125082570D01*
X136221057Y-125206883D01*
X135957808Y-125469673D01*
X135815162Y-125813201D01*
X135814838Y-126185167D01*
X135956883Y-126528943D01*
X136219673Y-126792192D01*
X136563201Y-126934838D01*
X136935167Y-126935162D01*
X137278943Y-126793117D01*
X137374937Y-126697290D01*
X137469673Y-126792192D01*
X137813201Y-126934838D01*
X138185167Y-126935162D01*
X138528943Y-126793117D01*
X138659067Y-126663220D01*
X138706883Y-126778943D01*
X138969673Y-127042192D01*
X139313201Y-127184838D01*
X139685167Y-127185162D01*
X140028943Y-127043117D01*
X140290000Y-126782515D01*
X140290000Y-142430069D01*
X139950592Y-144136390D01*
X139023654Y-145523651D01*
X137636390Y-146450592D01*
X135930069Y-146790000D01*
X117319931Y-146790000D01*
X115613610Y-146450592D01*
X114226349Y-145523654D01*
X113299408Y-144136390D01*
X113026317Y-142763469D01*
X113357152Y-142984526D01*
X113930641Y-143098600D01*
X113989359Y-143098600D01*
X114562848Y-142984526D01*
X115028442Y-142673426D01*
X115033238Y-142698917D01*
X115172310Y-142915041D01*
X115384510Y-143060031D01*
X115636400Y-143111040D01*
X117363600Y-143111040D01*
X117598917Y-143066762D01*
X117696551Y-143003937D01*
X117706883Y-143028943D01*
X117969673Y-143292192D01*
X118313201Y-143434838D01*
X118685167Y-143435162D01*
X119028943Y-143293117D01*
X119292192Y-143030327D01*
X119434838Y-142686799D01*
X119435162Y-142314833D01*
X119310000Y-142011917D01*
X119310000Y-136500000D01*
X119248342Y-136190026D01*
X119161461Y-136060000D01*
X119072757Y-135927244D01*
X117827815Y-134682303D01*
X117913885Y-134553489D01*
X118027959Y-133980000D01*
X117913885Y-133406511D01*
X117589029Y-132920330D01*
X117274248Y-132710000D01*
X117589029Y-132499670D01*
X117913885Y-132013489D01*
X118027959Y-131440000D01*
X117913885Y-130866511D01*
X117589029Y-130380330D01*
X117102848Y-130055474D01*
X116529359Y-129941400D01*
X116470641Y-129941400D01*
X115897152Y-130055474D01*
X115410971Y-130380330D01*
X115230000Y-130651172D01*
X115049029Y-130380330D01*
X114562848Y-130055474D01*
X113989359Y-129941400D01*
X113930641Y-129941400D01*
X113357152Y-130055474D01*
X112890000Y-130367615D01*
X112890000Y-128212380D01*
X112969673Y-128292192D01*
X113313201Y-128434838D01*
X113685167Y-128435162D01*
X114028943Y-128293117D01*
X114236672Y-128085750D01*
X117014430Y-128085750D01*
X117014430Y-129426179D01*
X117111103Y-129659568D01*
X117289731Y-129838197D01*
X117523120Y-129934870D01*
X118114250Y-129934870D01*
X118273000Y-129776120D01*
X118273000Y-127927000D01*
X117173180Y-127927000D01*
X117014430Y-128085750D01*
X114236672Y-128085750D01*
X114292192Y-128030327D01*
X114378942Y-127821412D01*
X114467633Y-127688675D01*
X114489958Y-127576441D01*
X114535001Y-127350000D01*
X114535000Y-127349995D01*
X114535000Y-127301148D01*
X114631441Y-127239090D01*
X114751233Y-127063768D01*
X114855910Y-127226441D01*
X115068110Y-127371431D01*
X115320000Y-127422440D01*
X116380000Y-127422440D01*
X116615317Y-127378162D01*
X116831441Y-127239090D01*
X116976431Y-127026890D01*
X117014430Y-126839245D01*
X117014430Y-127514250D01*
X117173180Y-127673000D01*
X118273000Y-127673000D01*
X118273000Y-127653000D01*
X118527000Y-127653000D01*
X118527000Y-127673000D01*
X119626820Y-127673000D01*
X119785570Y-127514250D01*
X119785570Y-126173821D01*
X119688897Y-125940432D01*
X119548743Y-125800277D01*
X119602011Y-125766000D01*
X119657262Y-125685138D01*
X119685167Y-125685162D01*
X120028943Y-125543117D01*
X120292192Y-125280327D01*
X120434838Y-124936799D01*
X120435162Y-124564833D01*
X120293117Y-124221057D01*
X120030327Y-123957808D01*
X119909013Y-123907434D01*
X119798010Y-123796431D01*
X119798010Y-123654179D01*
X119862036Y-123750000D01*
X119877234Y-123772746D01*
X120440000Y-124335512D01*
X120440000Y-128864487D01*
X119719994Y-129584494D01*
X119785570Y-129426179D01*
X119785570Y-128085750D01*
X119626820Y-127927000D01*
X118527000Y-127927000D01*
X118527000Y-129776120D01*
X118685750Y-129934870D01*
X119276880Y-129934870D01*
X119435193Y-129869294D01*
X119027244Y-130277244D01*
X118851658Y-130540026D01*
X118790000Y-130850000D01*
X118790000Y-132100000D01*
X118851658Y-132409974D01*
X118955132Y-132564833D01*
X119027244Y-132672756D01*
X119677244Y-133322757D01*
X119940027Y-133498343D01*
X120077897Y-133525766D01*
X120250000Y-133560000D01*
X122282666Y-133560000D01*
X122296838Y-133635317D01*
X122396678Y-133790472D01*
X122363113Y-133796788D01*
X122146989Y-133935860D01*
X122001999Y-134148060D01*
X121950990Y-134399950D01*
X121950990Y-135200050D01*
X121995268Y-135435367D01*
X122134340Y-135651491D01*
X122279437Y-135750632D01*
X122146989Y-135835860D01*
X122001999Y-136048060D01*
X121950990Y-136299950D01*
X121950990Y-137100050D01*
X121995268Y-137335367D01*
X122134340Y-137551491D01*
X122346540Y-137696481D01*
X122399803Y-137707267D01*
X122303569Y-137848110D01*
X122252560Y-138100000D01*
X122252560Y-139400000D01*
X122296838Y-139635317D01*
X122435910Y-139851441D01*
X122648110Y-139996431D01*
X122899130Y-140047264D01*
X122901658Y-140059974D01*
X123005560Y-140215474D01*
X123077244Y-140322756D01*
X126827244Y-144072757D01*
X127090027Y-144248343D01*
X127223551Y-144274902D01*
X127400000Y-144310000D01*
X136293600Y-144310000D01*
X136603574Y-144248342D01*
X136866356Y-144072756D01*
X137572756Y-143366357D01*
X137677230Y-143210000D01*
X137748342Y-143103574D01*
X137801037Y-142838660D01*
X138159670Y-142599029D01*
X138484526Y-142112848D01*
X138598600Y-141539359D01*
X138598600Y-141480641D01*
X138484526Y-140907152D01*
X138159670Y-140420971D01*
X137888828Y-140240000D01*
X138159670Y-140059029D01*
X138484526Y-139572848D01*
X138598600Y-138999359D01*
X138598600Y-138940641D01*
X138484526Y-138367152D01*
X138159670Y-137880971D01*
X137888828Y-137700000D01*
X138159670Y-137519029D01*
X138484526Y-137032848D01*
X138598600Y-136459359D01*
X138598600Y-136400641D01*
X138484526Y-135827152D01*
X138159670Y-135340971D01*
X137888828Y-135160000D01*
X138159670Y-134979029D01*
X138484526Y-134492848D01*
X138598600Y-133919359D01*
X138598600Y-133860641D01*
X138484526Y-133287152D01*
X138159670Y-132800971D01*
X137888839Y-132620008D01*
X138306821Y-132238490D01*
X138554968Y-131709027D01*
X138434469Y-131477000D01*
X137227000Y-131477000D01*
X137227000Y-131497000D01*
X136973000Y-131497000D01*
X136973000Y-131477000D01*
X136953000Y-131477000D01*
X136953000Y-131223000D01*
X136973000Y-131223000D01*
X136973000Y-130016183D01*
X137227000Y-130016183D01*
X137227000Y-131223000D01*
X138434469Y-131223000D01*
X138554968Y-130990973D01*
X138306821Y-130461510D01*
X137874947Y-130067312D01*
X137459026Y-129895042D01*
X137227000Y-130016183D01*
X136973000Y-130016183D01*
X136740974Y-129895042D01*
X136325053Y-130067312D01*
X136040973Y-130326609D01*
X136026762Y-130251083D01*
X135887690Y-130034959D01*
X135675490Y-129889969D01*
X135423600Y-129838960D01*
X133696400Y-129838960D01*
X133461083Y-129883238D01*
X133244959Y-130022310D01*
X133099969Y-130234510D01*
X133048960Y-130486400D01*
X133048960Y-130535000D01*
X131830005Y-130535000D01*
X131830000Y-130534999D01*
X131560164Y-130588674D01*
X131491325Y-130602367D01*
X131204210Y-130794210D01*
X131204208Y-130794213D01*
X130135000Y-131863421D01*
X130135000Y-130250000D01*
X130067633Y-129911325D01*
X129885000Y-129637994D01*
X129885000Y-129306822D01*
X129934838Y-129186799D01*
X129935162Y-128814833D01*
X129793117Y-128471057D01*
X129530327Y-128207808D01*
X129464880Y-128180632D01*
X135032757Y-122612756D01*
X135208343Y-122349973D01*
X135236805Y-122206883D01*
X135270000Y-122040000D01*
X135270000Y-121165853D01*
X135519670Y-120999029D01*
X135730000Y-120684248D01*
X135940330Y-120999029D01*
X135940330Y-120999029D01*
G37*
X135940330Y-120999029D02*
X136426511Y-121323885D01*
X137000000Y-121437959D01*
X137573489Y-121323885D01*
X138059670Y-120999029D01*
X138089980Y-120953667D01*
X138089980Y-123514507D01*
X137677246Y-123927242D01*
X137677243Y-123927244D01*
X136521917Y-125082570D01*
X136221057Y-125206883D01*
X135957808Y-125469673D01*
X135815162Y-125813201D01*
X135814838Y-126185167D01*
X135956883Y-126528943D01*
X136219673Y-126792192D01*
X136563201Y-126934838D01*
X136935167Y-126935162D01*
X137278943Y-126793117D01*
X137374937Y-126697290D01*
X137469673Y-126792192D01*
X137813201Y-126934838D01*
X138185167Y-126935162D01*
X138528943Y-126793117D01*
X138659067Y-126663220D01*
X138706883Y-126778943D01*
X138969673Y-127042192D01*
X139313201Y-127184838D01*
X139685167Y-127185162D01*
X140028943Y-127043117D01*
X140290000Y-126782515D01*
X140290000Y-142430069D01*
X139950592Y-144136390D01*
X139023654Y-145523651D01*
X137636390Y-146450592D01*
X135930069Y-146790000D01*
X117319931Y-146790000D01*
X115613610Y-146450592D01*
X114226349Y-145523654D01*
X113299408Y-144136390D01*
X113026317Y-142763469D01*
X113357152Y-142984526D01*
X113930641Y-143098600D01*
X113989359Y-143098600D01*
X114562848Y-142984526D01*
X115028442Y-142673426D01*
X115033238Y-142698917D01*
X115172310Y-142915041D01*
X115384510Y-143060031D01*
X115636400Y-143111040D01*
X117363600Y-143111040D01*
X117598917Y-143066762D01*
X117696551Y-143003937D01*
X117706883Y-143028943D01*
X117969673Y-143292192D01*
X118313201Y-143434838D01*
X118685167Y-143435162D01*
X119028943Y-143293117D01*
X119292192Y-143030327D01*
X119434838Y-142686799D01*
X119435162Y-142314833D01*
X119310000Y-142011917D01*
X119310000Y-136500000D01*
X119248342Y-136190026D01*
X119161461Y-136060000D01*
X119072757Y-135927244D01*
X117827815Y-134682303D01*
X117913885Y-134553489D01*
X118027959Y-133980000D01*
X117913885Y-133406511D01*
X117589029Y-132920330D01*
X117274248Y-132710000D01*
X117589029Y-132499670D01*
X117913885Y-132013489D01*
X118027959Y-131440000D01*
X117913885Y-130866511D01*
X117589029Y-130380330D01*
X117102848Y-130055474D01*
X116529359Y-129941400D01*
X116470641Y-129941400D01*
X115897152Y-130055474D01*
X115410971Y-130380330D01*
X115230000Y-130651172D01*
X115049029Y-130380330D01*
X114562848Y-130055474D01*
X113989359Y-129941400D01*
X113930641Y-129941400D01*
X113357152Y-130055474D01*
X112890000Y-130367615D01*
X112890000Y-128212380D01*
X112969673Y-128292192D01*
X113313201Y-128434838D01*
X113685167Y-128435162D01*
X114028943Y-128293117D01*
X114236672Y-128085750D01*
X117014430Y-128085750D01*
X117014430Y-129426179D01*
X117111103Y-129659568D01*
X117289731Y-129838197D01*
X117523120Y-129934870D01*
X118114250Y-129934870D01*
X118273000Y-129776120D01*
X118273000Y-127927000D01*
X117173180Y-127927000D01*
X117014430Y-128085750D01*
X114236672Y-128085750D01*
X114292192Y-128030327D01*
X114378942Y-127821412D01*
X114467633Y-127688675D01*
X114489958Y-127576441D01*
X114535001Y-127350000D01*
X114535000Y-127349995D01*
X114535000Y-127301148D01*
X114631441Y-127239090D01*
X114751233Y-127063768D01*
X114855910Y-127226441D01*
X115068110Y-127371431D01*
X115320000Y-127422440D01*
X116380000Y-127422440D01*
X116615317Y-127378162D01*
X116831441Y-127239090D01*
X116976431Y-127026890D01*
X117014430Y-126839245D01*
X117014430Y-127514250D01*
X117173180Y-127673000D01*
X118273000Y-127673000D01*
X118273000Y-127653000D01*
X118527000Y-127653000D01*
X118527000Y-127673000D01*
X119626820Y-127673000D01*
X119785570Y-127514250D01*
X119785570Y-126173821D01*
X119688897Y-125940432D01*
X119548743Y-125800277D01*
X119602011Y-125766000D01*
X119657262Y-125685138D01*
X119685167Y-125685162D01*
X120028943Y-125543117D01*
X120292192Y-125280327D01*
X120434838Y-124936799D01*
X120435162Y-124564833D01*
X120293117Y-124221057D01*
X120030327Y-123957808D01*
X119909013Y-123907434D01*
X119798010Y-123796431D01*
X119798010Y-123654179D01*
X119862036Y-123750000D01*
X119877234Y-123772746D01*
X120440000Y-124335512D01*
X120440000Y-128864487D01*
X119719994Y-129584494D01*
X119785570Y-129426179D01*
X119785570Y-128085750D01*
X119626820Y-127927000D01*
X118527000Y-127927000D01*
X118527000Y-129776120D01*
X118685750Y-129934870D01*
X119276880Y-129934870D01*
X119435193Y-129869294D01*
X119027244Y-130277244D01*
X118851658Y-130540026D01*
X118790000Y-130850000D01*
X118790000Y-132100000D01*
X118851658Y-132409974D01*
X118955132Y-132564833D01*
X119027244Y-132672756D01*
X119677244Y-133322757D01*
X119940027Y-133498343D01*
X120077897Y-133525766D01*
X120250000Y-133560000D01*
X122282666Y-133560000D01*
X122296838Y-133635317D01*
X122396678Y-133790472D01*
X122363113Y-133796788D01*
X122146989Y-133935860D01*
X122001999Y-134148060D01*
X121950990Y-134399950D01*
X121950990Y-135200050D01*
X121995268Y-135435367D01*
X122134340Y-135651491D01*
X122279437Y-135750632D01*
X122146989Y-135835860D01*
X122001999Y-136048060D01*
X121950990Y-136299950D01*
X121950990Y-137100050D01*
X121995268Y-137335367D01*
X122134340Y-137551491D01*
X122346540Y-137696481D01*
X122399803Y-137707267D01*
X122303569Y-137848110D01*
X122252560Y-138100000D01*
X122252560Y-139400000D01*
X122296838Y-139635317D01*
X122435910Y-139851441D01*
X122648110Y-139996431D01*
X122899130Y-140047264D01*
X122901658Y-140059974D01*
X123005560Y-140215474D01*
X123077244Y-140322756D01*
X126827244Y-144072757D01*
X127090027Y-144248343D01*
X127223551Y-144274902D01*
X127400000Y-144310000D01*
X136293600Y-144310000D01*
X136603574Y-144248342D01*
X136866356Y-144072756D01*
X137572756Y-143366357D01*
X137677230Y-143210000D01*
X137748342Y-143103574D01*
X137801037Y-142838660D01*
X138159670Y-142599029D01*
X138484526Y-142112848D01*
X138598600Y-141539359D01*
X138598600Y-141480641D01*
X138484526Y-140907152D01*
X138159670Y-140420971D01*
X137888828Y-140240000D01*
X138159670Y-140059029D01*
X138484526Y-139572848D01*
X138598600Y-138999359D01*
X138598600Y-138940641D01*
X138484526Y-138367152D01*
X138159670Y-137880971D01*
X137888828Y-137700000D01*
X138159670Y-137519029D01*
X138484526Y-137032848D01*
X138598600Y-136459359D01*
X138598600Y-136400641D01*
X138484526Y-135827152D01*
X138159670Y-135340971D01*
X137888828Y-135160000D01*
X138159670Y-134979029D01*
X138484526Y-134492848D01*
X138598600Y-133919359D01*
X138598600Y-133860641D01*
X138484526Y-133287152D01*
X138159670Y-132800971D01*
X137888839Y-132620008D01*
X138306821Y-132238490D01*
X138554968Y-131709027D01*
X138434469Y-131477000D01*
X137227000Y-131477000D01*
X137227000Y-131497000D01*
X136973000Y-131497000D01*
X136973000Y-131477000D01*
X136953000Y-131477000D01*
X136953000Y-131223000D01*
X136973000Y-131223000D01*
X136973000Y-130016183D01*
X137227000Y-130016183D01*
X137227000Y-131223000D01*
X138434469Y-131223000D01*
X138554968Y-130990973D01*
X138306821Y-130461510D01*
X137874947Y-130067312D01*
X137459026Y-129895042D01*
X137227000Y-130016183D01*
X136973000Y-130016183D01*
X136740974Y-129895042D01*
X136325053Y-130067312D01*
X136040973Y-130326609D01*
X136026762Y-130251083D01*
X135887690Y-130034959D01*
X135675490Y-129889969D01*
X135423600Y-129838960D01*
X133696400Y-129838960D01*
X133461083Y-129883238D01*
X133244959Y-130022310D01*
X133099969Y-130234510D01*
X133048960Y-130486400D01*
X133048960Y-130535000D01*
X131830005Y-130535000D01*
X131830000Y-130534999D01*
X131560164Y-130588674D01*
X131491325Y-130602367D01*
X131204210Y-130794210D01*
X131204208Y-130794213D01*
X130135000Y-131863421D01*
X130135000Y-130250000D01*
X130067633Y-129911325D01*
X129885000Y-129637994D01*
X129885000Y-129306822D01*
X129934838Y-129186799D01*
X129935162Y-128814833D01*
X129793117Y-128471057D01*
X129530327Y-128207808D01*
X129464880Y-128180632D01*
X135032757Y-122612756D01*
X135208343Y-122349973D01*
X135236805Y-122206883D01*
X135270000Y-122040000D01*
X135270000Y-121165853D01*
X135519670Y-120999029D01*
X135730000Y-120684248D01*
X135940330Y-120999029D01*
G36*
X81924210Y-104824210D02*
X81732367Y-105111325D01*
X81721190Y-105167516D01*
X81664999Y-105450000D01*
X81665000Y-105450005D01*
X81665000Y-106064791D01*
X81628569Y-106118110D01*
X81577560Y-106370000D01*
X81577560Y-107430000D01*
X81621838Y-107665317D01*
X81760910Y-107881441D01*
X81936232Y-108001233D01*
X81773559Y-108105910D01*
X81628569Y-108318110D01*
X81577560Y-108570000D01*
X81577560Y-109574390D01*
X81376360Y-109373190D01*
X81325234Y-109339029D01*
X81089245Y-109181347D01*
X81033054Y-109170170D01*
X80898010Y-109143307D01*
X80898010Y-108499110D01*
X80853732Y-108263793D01*
X80714660Y-108047669D01*
X80647622Y-108001864D01*
X80788897Y-107860588D01*
X80885570Y-107627199D01*
X80885570Y-106286770D01*
X80726820Y-106128020D01*
X79627000Y-106128020D01*
X79627000Y-106148020D01*
X79373000Y-106148020D01*
X79373000Y-106128020D01*
X78273180Y-106128020D01*
X78114430Y-106286770D01*
X78114430Y-107627199D01*
X78211103Y-107860588D01*
X78351257Y-108000743D01*
X78297989Y-108035020D01*
X78152999Y-108247220D01*
X78101990Y-108499110D01*
X78101990Y-111498850D01*
X78146268Y-111734167D01*
X78285340Y-111950291D01*
X78497540Y-112095281D01*
X78749430Y-112146290D01*
X80250570Y-112146290D01*
X80366590Y-112124459D01*
X80366590Y-112381831D01*
X79624210Y-113124210D01*
X79432367Y-113411325D01*
X79426729Y-113439670D01*
X79364999Y-113750000D01*
X79365000Y-113750005D01*
X79365000Y-124999995D01*
X79364999Y-125000000D01*
X79420761Y-125280327D01*
X79432367Y-125338675D01*
X79568352Y-125542192D01*
X79624210Y-125625790D01*
X80565159Y-126566738D01*
X80564838Y-126935167D01*
X80706883Y-127278943D01*
X80969673Y-127542192D01*
X81313201Y-127684838D01*
X81685167Y-127685162D01*
X82028943Y-127543117D01*
X82292192Y-127280327D01*
X82434838Y-126936799D01*
X82435162Y-126564833D01*
X82385000Y-126443431D01*
X82385000Y-126250005D01*
X82385001Y-126250000D01*
X82326695Y-125956883D01*
X82317633Y-125911325D01*
X82125790Y-125624210D01*
X82125787Y-125624208D01*
X81135000Y-124633420D01*
X81135000Y-116043538D01*
X81414436Y-116323461D01*
X81923298Y-116534759D01*
X82474285Y-116535240D01*
X82983515Y-116324831D01*
X83373461Y-115935564D01*
X83584759Y-115426702D01*
X83585240Y-114875715D01*
X83374831Y-114366485D01*
X82985564Y-113976539D01*
X82476702Y-113765241D01*
X81925715Y-113764760D01*
X81416485Y-113975169D01*
X81135000Y-114256164D01*
X81135000Y-114116580D01*
X81877377Y-113374202D01*
X81877380Y-113374200D01*
X82069223Y-113087085D01*
X82080848Y-113028642D01*
X82136591Y-112748410D01*
X82136590Y-112748405D01*
X82136590Y-111385000D01*
X84079995Y-111385000D01*
X84080000Y-111385001D01*
X84405116Y-111320330D01*
X84418675Y-111317633D01*
X84705790Y-111125790D01*
X84705791Y-111125789D01*
X85075787Y-110755792D01*
X85075790Y-110755790D01*
X85267633Y-110468675D01*
X85299201Y-110309973D01*
X85335001Y-110130000D01*
X85335000Y-110129995D01*
X85335000Y-109935209D01*
X85371431Y-109881890D01*
X85422440Y-109630000D01*
X85422440Y-109068072D01*
X85702560Y-108787953D01*
X85702560Y-108850000D01*
X85746838Y-109085317D01*
X85885910Y-109301441D01*
X86098110Y-109446431D01*
X86350000Y-109497440D01*
X87650000Y-109497440D01*
X87885317Y-109453162D01*
X88101441Y-109314090D01*
X88246431Y-109101890D01*
X88270102Y-108985000D01*
X88455199Y-108985000D01*
X88496408Y-109204007D01*
X88635480Y-109420131D01*
X88847680Y-109565121D01*
X89099570Y-109616130D01*
X90900430Y-109616130D01*
X91135747Y-109571852D01*
X91351871Y-109432780D01*
X91496861Y-109220580D01*
X91547870Y-108968690D01*
X91547870Y-108535750D01*
X92001400Y-108535750D01*
X92001400Y-109239909D01*
X92098073Y-109473298D01*
X92276701Y-109651927D01*
X92510090Y-109748600D01*
X93214250Y-109748600D01*
X93373000Y-109589850D01*
X93373000Y-108377000D01*
X92160150Y-108377000D01*
X92001400Y-108535750D01*
X91547870Y-108535750D01*
X91547870Y-107371030D01*
X91503592Y-107135713D01*
X91364520Y-106919589D01*
X91152320Y-106774599D01*
X91050741Y-106754029D01*
X91260129Y-106667297D01*
X91438757Y-106488668D01*
X91535430Y-106255279D01*
X91535430Y-105615890D01*
X91376680Y-105457140D01*
X90127000Y-105457140D01*
X90127000Y-105477140D01*
X89873000Y-105477140D01*
X89873000Y-105457140D01*
X88623320Y-105457140D01*
X88464570Y-105615890D01*
X88464570Y-106255279D01*
X88561243Y-106488668D01*
X88739871Y-106667297D01*
X88945681Y-106752546D01*
X88864253Y-106767868D01*
X88648129Y-106906940D01*
X88503139Y-107119140D01*
X88483727Y-107215000D01*
X88272038Y-107215000D01*
X88253162Y-107114683D01*
X88114090Y-106898559D01*
X87901890Y-106753569D01*
X87888803Y-106750919D01*
X88101441Y-106614090D01*
X88246431Y-106401890D01*
X88297440Y-106150000D01*
X88297440Y-104650000D01*
X88295558Y-104640000D01*
X88464570Y-104640000D01*
X88464570Y-105044390D01*
X88623320Y-105203140D01*
X89873000Y-105203140D01*
X89873000Y-105183140D01*
X90127000Y-105183140D01*
X90127000Y-105203140D01*
X91376680Y-105203140D01*
X91535430Y-105044390D01*
X91535430Y-104640000D01*
X92427615Y-104640000D01*
X92115474Y-105107152D01*
X92001400Y-105680641D01*
X92001400Y-105739359D01*
X92115474Y-106312848D01*
X92430526Y-106784356D01*
X92276701Y-106848073D01*
X92098073Y-107026702D01*
X92001400Y-107260091D01*
X92001400Y-107964250D01*
X92160150Y-108123000D01*
X93373000Y-108123000D01*
X93373000Y-108103000D01*
X93627000Y-108103000D01*
X93627000Y-108123000D01*
X93647000Y-108123000D01*
X93647000Y-108377000D01*
X93627000Y-108377000D01*
X93627000Y-109589850D01*
X93785750Y-109748600D01*
X94489910Y-109748600D01*
X94723299Y-109651927D01*
X94901927Y-109473298D01*
X94966263Y-109317977D01*
X94980330Y-109339029D01*
X95466511Y-109663885D01*
X96040000Y-109777959D01*
X96613489Y-109663885D01*
X97099670Y-109339029D01*
X97310000Y-109024248D01*
X97520330Y-109339029D01*
X97914927Y-109602690D01*
X96677244Y-110840374D01*
X96501658Y-111103156D01*
X96440000Y-111413130D01*
X96440000Y-124750000D01*
X96501658Y-125059974D01*
X96609541Y-125221431D01*
X96677244Y-125322756D01*
X98190000Y-126835513D01*
X98190000Y-128500000D01*
X98251658Y-128809974D01*
X98427244Y-129072756D01*
X100169487Y-130815000D01*
X92625000Y-130815000D01*
X92315026Y-130876658D01*
X92231652Y-130932367D01*
X92052243Y-131052244D01*
X91271917Y-131832570D01*
X90971057Y-131956883D01*
X90707808Y-132219673D01*
X90565162Y-132563201D01*
X90564838Y-132935167D01*
X90706883Y-133278943D01*
X90969673Y-133542192D01*
X91313201Y-133684838D01*
X91685167Y-133685162D01*
X91830770Y-133625000D01*
X105102560Y-133625000D01*
X105102560Y-134625000D01*
X105146838Y-134860317D01*
X105285910Y-135076441D01*
X105498110Y-135221431D01*
X105750000Y-135272440D01*
X107250000Y-135272440D01*
X107485317Y-135228162D01*
X107701441Y-135089090D01*
X107846431Y-134876890D01*
X107897440Y-134625000D01*
X107897440Y-133625000D01*
X107853162Y-133389683D01*
X107714090Y-133173559D01*
X107501890Y-133028569D01*
X107250000Y-132977560D01*
X105750000Y-132977560D01*
X105514683Y-133021838D01*
X105298559Y-133160910D01*
X105153569Y-133373110D01*
X105102560Y-133625000D01*
X91830770Y-133625000D01*
X92028943Y-133543117D01*
X92292192Y-133280327D01*
X92417884Y-132977628D01*
X92960513Y-132435000D01*
X105194895Y-132435000D01*
X105285910Y-132576441D01*
X105498110Y-132721431D01*
X105750000Y-132772440D01*
X107250000Y-132772440D01*
X107485317Y-132728162D01*
X107701441Y-132589090D01*
X107846431Y-132376890D01*
X107897440Y-132125000D01*
X107897440Y-131125000D01*
X107853162Y-130889683D01*
X107714090Y-130673559D01*
X107501890Y-130528569D01*
X107250000Y-130477560D01*
X105750000Y-130477560D01*
X105514683Y-130521838D01*
X105298559Y-130660910D01*
X105193274Y-130815000D01*
X102460513Y-130815000D01*
X99810000Y-128164488D01*
X99810000Y-126561580D01*
X101213173Y-127964753D01*
X100957808Y-128219673D01*
X100815162Y-128563201D01*
X100814838Y-128935167D01*
X100956883Y-129278943D01*
X101219673Y-129542192D01*
X101563201Y-129684838D01*
X101935167Y-129685162D01*
X102278943Y-129543117D01*
X102542192Y-129280327D01*
X102590743Y-129163403D01*
X102825000Y-129210001D01*
X102825005Y-129210000D01*
X105243156Y-129210000D01*
X105285910Y-129276441D01*
X105498110Y-129421431D01*
X105750000Y-129472440D01*
X107250000Y-129472440D01*
X107485317Y-129428162D01*
X107701441Y-129289090D01*
X107846431Y-129076890D01*
X107897440Y-128825000D01*
X107897440Y-127825000D01*
X107853162Y-127589683D01*
X107779380Y-127475022D01*
X107846431Y-127376890D01*
X107897440Y-127125000D01*
X107897440Y-126125000D01*
X107853162Y-125889683D01*
X107714090Y-125673559D01*
X107501890Y-125528569D01*
X107250000Y-125477560D01*
X105750000Y-125477560D01*
X105514683Y-125521838D01*
X105298559Y-125660910D01*
X105244519Y-125740000D01*
X104050944Y-125740000D01*
X104043117Y-125721057D01*
X103780327Y-125457808D01*
X103436799Y-125315162D01*
X103064833Y-125314838D01*
X102721057Y-125456883D01*
X102457808Y-125719673D01*
X102315162Y-126063201D01*
X102314838Y-126435167D01*
X102405031Y-126653452D01*
X101135000Y-125383420D01*
X101135000Y-124185167D01*
X101314838Y-124185167D01*
X101456883Y-124528943D01*
X101719673Y-124792192D01*
X102063201Y-124934838D01*
X102435167Y-124935162D01*
X102556569Y-124885000D01*
X105162721Y-124885000D01*
X105285910Y-125076441D01*
X105498110Y-125221431D01*
X105750000Y-125272440D01*
X107250000Y-125272440D01*
X107485317Y-125228162D01*
X107701441Y-125089090D01*
X107846431Y-124876890D01*
X107897440Y-124625000D01*
X107897440Y-123625000D01*
X107853162Y-123389683D01*
X107714090Y-123173559D01*
X107501890Y-123028569D01*
X107250000Y-122977560D01*
X105750000Y-122977560D01*
X105514683Y-123021838D01*
X105369905Y-123115000D01*
X102556822Y-123115000D01*
X102436799Y-123065162D01*
X102064833Y-123064838D01*
X101721057Y-123206883D01*
X101457808Y-123469673D01*
X101315162Y-123813201D01*
X101314838Y-124185167D01*
X101135000Y-124185167D01*
X101135000Y-117860842D01*
X101272372Y-117917884D01*
X102168595Y-118814108D01*
X102065162Y-119063201D01*
X102064838Y-119435167D01*
X102206883Y-119778943D01*
X102469673Y-120042192D01*
X102813201Y-120184838D01*
X103185167Y-120185162D01*
X103306569Y-120135000D01*
X105275331Y-120135000D01*
X105285910Y-120151441D01*
X105498110Y-120296431D01*
X105750000Y-120347440D01*
X107250000Y-120347440D01*
X107485317Y-120303162D01*
X107701441Y-120164090D01*
X107846431Y-119951890D01*
X107897440Y-119700000D01*
X107897440Y-118700000D01*
X107853162Y-118464683D01*
X107779380Y-118350022D01*
X107846431Y-118251890D01*
X107897440Y-118000000D01*
X107897440Y-117000000D01*
X107853162Y-116764683D01*
X107714090Y-116548559D01*
X107501890Y-116403569D01*
X107250000Y-116352560D01*
X105750000Y-116352560D01*
X105514683Y-116396838D01*
X105298559Y-116535910D01*
X105153569Y-116748110D01*
X105102560Y-117000000D01*
X105102560Y-118000000D01*
X105146838Y-118235317D01*
X105220620Y-118349978D01*
X105210356Y-118365000D01*
X103783147Y-118365000D01*
X103748342Y-118190026D01*
X103641634Y-118030327D01*
X103572756Y-117927243D01*
X102430627Y-116785115D01*
X102574285Y-116785240D01*
X103083515Y-116574831D01*
X103473461Y-116185564D01*
X103684759Y-115676702D01*
X103685240Y-115125715D01*
X103474831Y-114616485D01*
X103085564Y-114226539D01*
X102576702Y-114015241D01*
X102025715Y-114014760D01*
X101516485Y-114225169D01*
X101135000Y-114605990D01*
X101135000Y-110707894D01*
X101745787Y-110097106D01*
X101745790Y-110097104D01*
X101937633Y-109809989D01*
X101963019Y-109682367D01*
X102005001Y-109471314D01*
X102005000Y-109471309D01*
X102005000Y-109455740D01*
X102179670Y-109339029D01*
X102390000Y-109024248D01*
X102600330Y-109339029D01*
X103086511Y-109663885D01*
X103660000Y-109777959D01*
X104233489Y-109663885D01*
X104719670Y-109339029D01*
X105044526Y-108852848D01*
X105158600Y-108279359D01*
X105158600Y-108220641D01*
X105044526Y-107647152D01*
X104719670Y-107160971D01*
X104448828Y-106980000D01*
X104719670Y-106799029D01*
X105044526Y-106312848D01*
X105158600Y-105739359D01*
X105158600Y-105680641D01*
X105044526Y-105107152D01*
X104732385Y-104640000D01*
X106686963Y-104640000D01*
X107456995Y-104793169D01*
X108056353Y-105193647D01*
X108456832Y-105793006D01*
X108610000Y-106563037D01*
X108610000Y-119300000D01*
X108622297Y-119361821D01*
X108622297Y-119424858D01*
X108736479Y-119998882D01*
X108736479Y-119998883D01*
X108832040Y-120229590D01*
X109122897Y-120664888D01*
X109025225Y-120664803D01*
X108607914Y-120837233D01*
X108288355Y-121156235D01*
X108115197Y-121573244D01*
X108114803Y-122024775D01*
X108287233Y-122442086D01*
X108606235Y-122761645D01*
X109023244Y-122934803D01*
X109156434Y-122934919D01*
X108832040Y-123420410D01*
X108736479Y-123651117D01*
X108622297Y-124225142D01*
X108622297Y-124288179D01*
X108610000Y-124350000D01*
X108610000Y-141436963D01*
X108456832Y-142206994D01*
X108056353Y-142806353D01*
X107456995Y-143206831D01*
X106686963Y-143360000D01*
X78813037Y-143360000D01*
X78043006Y-143206832D01*
X77443647Y-142806353D01*
X77043169Y-142206995D01*
X76890000Y-141436963D01*
X76890000Y-139624285D01*
X80814760Y-139624285D01*
X81025169Y-140133515D01*
X81414436Y-140523461D01*
X81923298Y-140734759D01*
X82474285Y-140735240D01*
X82983515Y-140524831D01*
X83373461Y-140135564D01*
X83481953Y-139874285D01*
X100914760Y-139874285D01*
X101125169Y-140383515D01*
X101514436Y-140773461D01*
X102023298Y-140984759D01*
X102574285Y-140985240D01*
X103083515Y-140774831D01*
X103473461Y-140385564D01*
X103684759Y-139876702D01*
X103685240Y-139325715D01*
X103474831Y-138816485D01*
X103085564Y-138426539D01*
X102576702Y-138215241D01*
X102025715Y-138214760D01*
X101516485Y-138425169D01*
X101126539Y-138814436D01*
X100915241Y-139323298D01*
X100914760Y-139874285D01*
X83481953Y-139874285D01*
X83584759Y-139626702D01*
X83585240Y-139075715D01*
X83374831Y-138566485D01*
X82985564Y-138176539D01*
X82476702Y-137965241D01*
X81925715Y-137964760D01*
X81416485Y-138175169D01*
X81026539Y-138564436D01*
X80815241Y-139073298D01*
X80814760Y-139624285D01*
X76890000Y-139624285D01*
X76890000Y-136125000D01*
X105102560Y-136125000D01*
X105102560Y-137125000D01*
X105146838Y-137360317D01*
X105285910Y-137576441D01*
X105498110Y-137721431D01*
X105750000Y-137772440D01*
X107250000Y-137772440D01*
X107485317Y-137728162D01*
X107701441Y-137589090D01*
X107846431Y-137376890D01*
X107897440Y-137125000D01*
X107897440Y-136125000D01*
X107853162Y-135889683D01*
X107714090Y-135673559D01*
X107501890Y-135528569D01*
X107250000Y-135477560D01*
X105750000Y-135477560D01*
X105514683Y-135521838D01*
X105298559Y-135660910D01*
X105153569Y-135873110D01*
X105102560Y-136125000D01*
X76890000Y-136125000D01*
X76890000Y-106563037D01*
X77043169Y-105793005D01*
X77443647Y-105193647D01*
X78043006Y-104793168D01*
X78114430Y-104778961D01*
X78114430Y-105715270D01*
X78273180Y-105874020D01*
X79373000Y-105874020D01*
X79373000Y-105854020D01*
X79627000Y-105854020D01*
X79627000Y-105874020D01*
X80726820Y-105874020D01*
X80885570Y-105715270D01*
X80885570Y-104640000D01*
X82108420Y-104640000D01*
X81924210Y-104824210D01*
X81924210Y-104824210D01*
G37*
X81924210Y-104824210D02*
X81732367Y-105111325D01*
X81721190Y-105167516D01*
X81664999Y-105450000D01*
X81665000Y-105450005D01*
X81665000Y-106064791D01*
X81628569Y-106118110D01*
X81577560Y-106370000D01*
X81577560Y-107430000D01*
X81621838Y-107665317D01*
X81760910Y-107881441D01*
X81936232Y-108001233D01*
X81773559Y-108105910D01*
X81628569Y-108318110D01*
X81577560Y-108570000D01*
X81577560Y-109574390D01*
X81376360Y-109373190D01*
X81325234Y-109339029D01*
X81089245Y-109181347D01*
X81033054Y-109170170D01*
X80898010Y-109143307D01*
X80898010Y-108499110D01*
X80853732Y-108263793D01*
X80714660Y-108047669D01*
X80647622Y-108001864D01*
X80788897Y-107860588D01*
X80885570Y-107627199D01*
X80885570Y-106286770D01*
X80726820Y-106128020D01*
X79627000Y-106128020D01*
X79627000Y-106148020D01*
X79373000Y-106148020D01*
X79373000Y-106128020D01*
X78273180Y-106128020D01*
X78114430Y-106286770D01*
X78114430Y-107627199D01*
X78211103Y-107860588D01*
X78351257Y-108000743D01*
X78297989Y-108035020D01*
X78152999Y-108247220D01*
X78101990Y-108499110D01*
X78101990Y-111498850D01*
X78146268Y-111734167D01*
X78285340Y-111950291D01*
X78497540Y-112095281D01*
X78749430Y-112146290D01*
X80250570Y-112146290D01*
X80366590Y-112124459D01*
X80366590Y-112381831D01*
X79624210Y-113124210D01*
X79432367Y-113411325D01*
X79426729Y-113439670D01*
X79364999Y-113750000D01*
X79365000Y-113750005D01*
X79365000Y-124999995D01*
X79364999Y-125000000D01*
X79420761Y-125280327D01*
X79432367Y-125338675D01*
X79568352Y-125542192D01*
X79624210Y-125625790D01*
X80565159Y-126566738D01*
X80564838Y-126935167D01*
X80706883Y-127278943D01*
X80969673Y-127542192D01*
X81313201Y-127684838D01*
X81685167Y-127685162D01*
X82028943Y-127543117D01*
X82292192Y-127280327D01*
X82434838Y-126936799D01*
X82435162Y-126564833D01*
X82385000Y-126443431D01*
X82385000Y-126250005D01*
X82385001Y-126250000D01*
X82326695Y-125956883D01*
X82317633Y-125911325D01*
X82125790Y-125624210D01*
X82125787Y-125624208D01*
X81135000Y-124633420D01*
X81135000Y-116043538D01*
X81414436Y-116323461D01*
X81923298Y-116534759D01*
X82474285Y-116535240D01*
X82983515Y-116324831D01*
X83373461Y-115935564D01*
X83584759Y-115426702D01*
X83585240Y-114875715D01*
X83374831Y-114366485D01*
X82985564Y-113976539D01*
X82476702Y-113765241D01*
X81925715Y-113764760D01*
X81416485Y-113975169D01*
X81135000Y-114256164D01*
X81135000Y-114116580D01*
X81877377Y-113374202D01*
X81877380Y-113374200D01*
X82069223Y-113087085D01*
X82080848Y-113028642D01*
X82136591Y-112748410D01*
X82136590Y-112748405D01*
X82136590Y-111385000D01*
X84079995Y-111385000D01*
X84080000Y-111385001D01*
X84405116Y-111320330D01*
X84418675Y-111317633D01*
X84705790Y-111125790D01*
X84705791Y-111125789D01*
X85075787Y-110755792D01*
X85075790Y-110755790D01*
X85267633Y-110468675D01*
X85299201Y-110309973D01*
X85335001Y-110130000D01*
X85335000Y-110129995D01*
X85335000Y-109935209D01*
X85371431Y-109881890D01*
X85422440Y-109630000D01*
X85422440Y-109068072D01*
X85702560Y-108787953D01*
X85702560Y-108850000D01*
X85746838Y-109085317D01*
X85885910Y-109301441D01*
X86098110Y-109446431D01*
X86350000Y-109497440D01*
X87650000Y-109497440D01*
X87885317Y-109453162D01*
X88101441Y-109314090D01*
X88246431Y-109101890D01*
X88270102Y-108985000D01*
X88455199Y-108985000D01*
X88496408Y-109204007D01*
X88635480Y-109420131D01*
X88847680Y-109565121D01*
X89099570Y-109616130D01*
X90900430Y-109616130D01*
X91135747Y-109571852D01*
X91351871Y-109432780D01*
X91496861Y-109220580D01*
X91547870Y-108968690D01*
X91547870Y-108535750D01*
X92001400Y-108535750D01*
X92001400Y-109239909D01*
X92098073Y-109473298D01*
X92276701Y-109651927D01*
X92510090Y-109748600D01*
X93214250Y-109748600D01*
X93373000Y-109589850D01*
X93373000Y-108377000D01*
X92160150Y-108377000D01*
X92001400Y-108535750D01*
X91547870Y-108535750D01*
X91547870Y-107371030D01*
X91503592Y-107135713D01*
X91364520Y-106919589D01*
X91152320Y-106774599D01*
X91050741Y-106754029D01*
X91260129Y-106667297D01*
X91438757Y-106488668D01*
X91535430Y-106255279D01*
X91535430Y-105615890D01*
X91376680Y-105457140D01*
X90127000Y-105457140D01*
X90127000Y-105477140D01*
X89873000Y-105477140D01*
X89873000Y-105457140D01*
X88623320Y-105457140D01*
X88464570Y-105615890D01*
X88464570Y-106255279D01*
X88561243Y-106488668D01*
X88739871Y-106667297D01*
X88945681Y-106752546D01*
X88864253Y-106767868D01*
X88648129Y-106906940D01*
X88503139Y-107119140D01*
X88483727Y-107215000D01*
X88272038Y-107215000D01*
X88253162Y-107114683D01*
X88114090Y-106898559D01*
X87901890Y-106753569D01*
X87888803Y-106750919D01*
X88101441Y-106614090D01*
X88246431Y-106401890D01*
X88297440Y-106150000D01*
X88297440Y-104650000D01*
X88295558Y-104640000D01*
X88464570Y-104640000D01*
X88464570Y-105044390D01*
X88623320Y-105203140D01*
X89873000Y-105203140D01*
X89873000Y-105183140D01*
X90127000Y-105183140D01*
X90127000Y-105203140D01*
X91376680Y-105203140D01*
X91535430Y-105044390D01*
X91535430Y-104640000D01*
X92427615Y-104640000D01*
X92115474Y-105107152D01*
X92001400Y-105680641D01*
X92001400Y-105739359D01*
X92115474Y-106312848D01*
X92430526Y-106784356D01*
X92276701Y-106848073D01*
X92098073Y-107026702D01*
X92001400Y-107260091D01*
X92001400Y-107964250D01*
X92160150Y-108123000D01*
X93373000Y-108123000D01*
X93373000Y-108103000D01*
X93627000Y-108103000D01*
X93627000Y-108123000D01*
X93647000Y-108123000D01*
X93647000Y-108377000D01*
X93627000Y-108377000D01*
X93627000Y-109589850D01*
X93785750Y-109748600D01*
X94489910Y-109748600D01*
X94723299Y-109651927D01*
X94901927Y-109473298D01*
X94966263Y-109317977D01*
X94980330Y-109339029D01*
X95466511Y-109663885D01*
X96040000Y-109777959D01*
X96613489Y-109663885D01*
X97099670Y-109339029D01*
X97310000Y-109024248D01*
X97520330Y-109339029D01*
X97914927Y-109602690D01*
X96677244Y-110840374D01*
X96501658Y-111103156D01*
X96440000Y-111413130D01*
X96440000Y-124750000D01*
X96501658Y-125059974D01*
X96609541Y-125221431D01*
X96677244Y-125322756D01*
X98190000Y-126835513D01*
X98190000Y-128500000D01*
X98251658Y-128809974D01*
X98427244Y-129072756D01*
X100169487Y-130815000D01*
X92625000Y-130815000D01*
X92315026Y-130876658D01*
X92231652Y-130932367D01*
X92052243Y-131052244D01*
X91271917Y-131832570D01*
X90971057Y-131956883D01*
X90707808Y-132219673D01*
X90565162Y-132563201D01*
X90564838Y-132935167D01*
X90706883Y-133278943D01*
X90969673Y-133542192D01*
X91313201Y-133684838D01*
X91685167Y-133685162D01*
X91830770Y-133625000D01*
X105102560Y-133625000D01*
X105102560Y-134625000D01*
X105146838Y-134860317D01*
X105285910Y-135076441D01*
X105498110Y-135221431D01*
X105750000Y-135272440D01*
X107250000Y-135272440D01*
X107485317Y-135228162D01*
X107701441Y-135089090D01*
X107846431Y-134876890D01*
X107897440Y-134625000D01*
X107897440Y-133625000D01*
X107853162Y-133389683D01*
X107714090Y-133173559D01*
X107501890Y-133028569D01*
X107250000Y-132977560D01*
X105750000Y-132977560D01*
X105514683Y-133021838D01*
X105298559Y-133160910D01*
X105153569Y-133373110D01*
X105102560Y-133625000D01*
X91830770Y-133625000D01*
X92028943Y-133543117D01*
X92292192Y-133280327D01*
X92417884Y-132977628D01*
X92960513Y-132435000D01*
X105194895Y-132435000D01*
X105285910Y-132576441D01*
X105498110Y-132721431D01*
X105750000Y-132772440D01*
X107250000Y-132772440D01*
X107485317Y-132728162D01*
X107701441Y-132589090D01*
X107846431Y-132376890D01*
X107897440Y-132125000D01*
X107897440Y-131125000D01*
X107853162Y-130889683D01*
X107714090Y-130673559D01*
X107501890Y-130528569D01*
X107250000Y-130477560D01*
X105750000Y-130477560D01*
X105514683Y-130521838D01*
X105298559Y-130660910D01*
X105193274Y-130815000D01*
X102460513Y-130815000D01*
X99810000Y-128164488D01*
X99810000Y-126561580D01*
X101213173Y-127964753D01*
X100957808Y-128219673D01*
X100815162Y-128563201D01*
X100814838Y-128935167D01*
X100956883Y-129278943D01*
X101219673Y-129542192D01*
X101563201Y-129684838D01*
X101935167Y-129685162D01*
X102278943Y-129543117D01*
X102542192Y-129280327D01*
X102590743Y-129163403D01*
X102825000Y-129210001D01*
X102825005Y-129210000D01*
X105243156Y-129210000D01*
X105285910Y-129276441D01*
X105498110Y-129421431D01*
X105750000Y-129472440D01*
X107250000Y-129472440D01*
X107485317Y-129428162D01*
X107701441Y-129289090D01*
X107846431Y-129076890D01*
X107897440Y-128825000D01*
X107897440Y-127825000D01*
X107853162Y-127589683D01*
X107779380Y-127475022D01*
X107846431Y-127376890D01*
X107897440Y-127125000D01*
X107897440Y-126125000D01*
X107853162Y-125889683D01*
X107714090Y-125673559D01*
X107501890Y-125528569D01*
X107250000Y-125477560D01*
X105750000Y-125477560D01*
X105514683Y-125521838D01*
X105298559Y-125660910D01*
X105244519Y-125740000D01*
X104050944Y-125740000D01*
X104043117Y-125721057D01*
X103780327Y-125457808D01*
X103436799Y-125315162D01*
X103064833Y-125314838D01*
X102721057Y-125456883D01*
X102457808Y-125719673D01*
X102315162Y-126063201D01*
X102314838Y-126435167D01*
X102405031Y-126653452D01*
X101135000Y-125383420D01*
X101135000Y-124185167D01*
X101314838Y-124185167D01*
X101456883Y-124528943D01*
X101719673Y-124792192D01*
X102063201Y-124934838D01*
X102435167Y-124935162D01*
X102556569Y-124885000D01*
X105162721Y-124885000D01*
X105285910Y-125076441D01*
X105498110Y-125221431D01*
X105750000Y-125272440D01*
X107250000Y-125272440D01*
X107485317Y-125228162D01*
X107701441Y-125089090D01*
X107846431Y-124876890D01*
X107897440Y-124625000D01*
X107897440Y-123625000D01*
X107853162Y-123389683D01*
X107714090Y-123173559D01*
X107501890Y-123028569D01*
X107250000Y-122977560D01*
X105750000Y-122977560D01*
X105514683Y-123021838D01*
X105369905Y-123115000D01*
X102556822Y-123115000D01*
X102436799Y-123065162D01*
X102064833Y-123064838D01*
X101721057Y-123206883D01*
X101457808Y-123469673D01*
X101315162Y-123813201D01*
X101314838Y-124185167D01*
X101135000Y-124185167D01*
X101135000Y-117860842D01*
X101272372Y-117917884D01*
X102168595Y-118814108D01*
X102065162Y-119063201D01*
X102064838Y-119435167D01*
X102206883Y-119778943D01*
X102469673Y-120042192D01*
X102813201Y-120184838D01*
X103185167Y-120185162D01*
X103306569Y-120135000D01*
X105275331Y-120135000D01*
X105285910Y-120151441D01*
X105498110Y-120296431D01*
X105750000Y-120347440D01*
X107250000Y-120347440D01*
X107485317Y-120303162D01*
X107701441Y-120164090D01*
X107846431Y-119951890D01*
X107897440Y-119700000D01*
X107897440Y-118700000D01*
X107853162Y-118464683D01*
X107779380Y-118350022D01*
X107846431Y-118251890D01*
X107897440Y-118000000D01*
X107897440Y-117000000D01*
X107853162Y-116764683D01*
X107714090Y-116548559D01*
X107501890Y-116403569D01*
X107250000Y-116352560D01*
X105750000Y-116352560D01*
X105514683Y-116396838D01*
X105298559Y-116535910D01*
X105153569Y-116748110D01*
X105102560Y-117000000D01*
X105102560Y-118000000D01*
X105146838Y-118235317D01*
X105220620Y-118349978D01*
X105210356Y-118365000D01*
X103783147Y-118365000D01*
X103748342Y-118190026D01*
X103641634Y-118030327D01*
X103572756Y-117927243D01*
X102430627Y-116785115D01*
X102574285Y-116785240D01*
X103083515Y-116574831D01*
X103473461Y-116185564D01*
X103684759Y-115676702D01*
X103685240Y-115125715D01*
X103474831Y-114616485D01*
X103085564Y-114226539D01*
X102576702Y-114015241D01*
X102025715Y-114014760D01*
X101516485Y-114225169D01*
X101135000Y-114605990D01*
X101135000Y-110707894D01*
X101745787Y-110097106D01*
X101745790Y-110097104D01*
X101937633Y-109809989D01*
X101963019Y-109682367D01*
X102005001Y-109471314D01*
X102005000Y-109471309D01*
X102005000Y-109455740D01*
X102179670Y-109339029D01*
X102390000Y-109024248D01*
X102600330Y-109339029D01*
X103086511Y-109663885D01*
X103660000Y-109777959D01*
X104233489Y-109663885D01*
X104719670Y-109339029D01*
X105044526Y-108852848D01*
X105158600Y-108279359D01*
X105158600Y-108220641D01*
X105044526Y-107647152D01*
X104719670Y-107160971D01*
X104448828Y-106980000D01*
X104719670Y-106799029D01*
X105044526Y-106312848D01*
X105158600Y-105739359D01*
X105158600Y-105680641D01*
X105044526Y-105107152D01*
X104732385Y-104640000D01*
X106686963Y-104640000D01*
X107456995Y-104793169D01*
X108056353Y-105193647D01*
X108456832Y-105793006D01*
X108610000Y-106563037D01*
X108610000Y-119300000D01*
X108622297Y-119361821D01*
X108622297Y-119424858D01*
X108736479Y-119998882D01*
X108736479Y-119998883D01*
X108832040Y-120229590D01*
X109122897Y-120664888D01*
X109025225Y-120664803D01*
X108607914Y-120837233D01*
X108288355Y-121156235D01*
X108115197Y-121573244D01*
X108114803Y-122024775D01*
X108287233Y-122442086D01*
X108606235Y-122761645D01*
X109023244Y-122934803D01*
X109156434Y-122934919D01*
X108832040Y-123420410D01*
X108736479Y-123651117D01*
X108622297Y-124225142D01*
X108622297Y-124288179D01*
X108610000Y-124350000D01*
X108610000Y-141436963D01*
X108456832Y-142206994D01*
X108056353Y-142806353D01*
X107456995Y-143206831D01*
X106686963Y-143360000D01*
X78813037Y-143360000D01*
X78043006Y-143206832D01*
X77443647Y-142806353D01*
X77043169Y-142206995D01*
X76890000Y-141436963D01*
X76890000Y-139624285D01*
X80814760Y-139624285D01*
X81025169Y-140133515D01*
X81414436Y-140523461D01*
X81923298Y-140734759D01*
X82474285Y-140735240D01*
X82983515Y-140524831D01*
X83373461Y-140135564D01*
X83481953Y-139874285D01*
X100914760Y-139874285D01*
X101125169Y-140383515D01*
X101514436Y-140773461D01*
X102023298Y-140984759D01*
X102574285Y-140985240D01*
X103083515Y-140774831D01*
X103473461Y-140385564D01*
X103684759Y-139876702D01*
X103685240Y-139325715D01*
X103474831Y-138816485D01*
X103085564Y-138426539D01*
X102576702Y-138215241D01*
X102025715Y-138214760D01*
X101516485Y-138425169D01*
X101126539Y-138814436D01*
X100915241Y-139323298D01*
X100914760Y-139874285D01*
X83481953Y-139874285D01*
X83584759Y-139626702D01*
X83585240Y-139075715D01*
X83374831Y-138566485D01*
X82985564Y-138176539D01*
X82476702Y-137965241D01*
X81925715Y-137964760D01*
X81416485Y-138175169D01*
X81026539Y-138564436D01*
X80815241Y-139073298D01*
X80814760Y-139624285D01*
X76890000Y-139624285D01*
X76890000Y-136125000D01*
X105102560Y-136125000D01*
X105102560Y-137125000D01*
X105146838Y-137360317D01*
X105285910Y-137576441D01*
X105498110Y-137721431D01*
X105750000Y-137772440D01*
X107250000Y-137772440D01*
X107485317Y-137728162D01*
X107701441Y-137589090D01*
X107846431Y-137376890D01*
X107897440Y-137125000D01*
X107897440Y-136125000D01*
X107853162Y-135889683D01*
X107714090Y-135673559D01*
X107501890Y-135528569D01*
X107250000Y-135477560D01*
X105750000Y-135477560D01*
X105514683Y-135521838D01*
X105298559Y-135660910D01*
X105153569Y-135873110D01*
X105102560Y-136125000D01*
X76890000Y-136125000D01*
X76890000Y-106563037D01*
X77043169Y-105793005D01*
X77443647Y-105193647D01*
X78043006Y-104793168D01*
X78114430Y-104778961D01*
X78114430Y-105715270D01*
X78273180Y-105874020D01*
X79373000Y-105874020D01*
X79373000Y-105854020D01*
X79627000Y-105854020D01*
X79627000Y-105874020D01*
X80726820Y-105874020D01*
X80885570Y-105715270D01*
X80885570Y-104640000D01*
X82108420Y-104640000D01*
X81924210Y-104824210D01*
G36*
X133093238Y-132448917D02*
X133232310Y-132665041D01*
X133444510Y-132810031D01*
X133488345Y-132818908D01*
X133175474Y-133287152D01*
X133061400Y-133860641D01*
X133061400Y-133919359D01*
X133175474Y-134492848D01*
X133500330Y-134979029D01*
X133771172Y-135160000D01*
X133500330Y-135340971D01*
X133175474Y-135827152D01*
X133061400Y-136400641D01*
X133061400Y-136459359D01*
X133175474Y-137032848D01*
X133500330Y-137519029D01*
X133771172Y-137700000D01*
X133500330Y-137880971D01*
X133175474Y-138367152D01*
X133061400Y-138940641D01*
X133061400Y-138999359D01*
X133175474Y-139572848D01*
X133500330Y-140059029D01*
X133771172Y-140240000D01*
X133500330Y-140420971D01*
X133175474Y-140907152D01*
X133061400Y-141480641D01*
X133061400Y-141539359D01*
X133175474Y-142112848D01*
X133500330Y-142599029D01*
X133636478Y-142690000D01*
X127735513Y-142690000D01*
X124875050Y-139829538D01*
X124996431Y-139651890D01*
X124999081Y-139638803D01*
X125135910Y-139851441D01*
X125348110Y-139996431D01*
X125600000Y-140047440D01*
X127100000Y-140047440D01*
X127335317Y-140003162D01*
X127551441Y-139864090D01*
X127696431Y-139651890D01*
X127704042Y-139614305D01*
X127882484Y-139578810D01*
X127938675Y-139567633D01*
X128225790Y-139375790D01*
X129875787Y-137725792D01*
X129875790Y-137725790D01*
X130067633Y-137438675D01*
X130135000Y-137100000D01*
X130135000Y-134366580D01*
X132196579Y-132305000D01*
X133066158Y-132305000D01*
X133093238Y-132448917D01*
X133093238Y-132448917D01*
G37*
X133093238Y-132448917D02*
X133232310Y-132665041D01*
X133444510Y-132810031D01*
X133488345Y-132818908D01*
X133175474Y-133287152D01*
X133061400Y-133860641D01*
X133061400Y-133919359D01*
X133175474Y-134492848D01*
X133500330Y-134979029D01*
X133771172Y-135160000D01*
X133500330Y-135340971D01*
X133175474Y-135827152D01*
X133061400Y-136400641D01*
X133061400Y-136459359D01*
X133175474Y-137032848D01*
X133500330Y-137519029D01*
X133771172Y-137700000D01*
X133500330Y-137880971D01*
X133175474Y-138367152D01*
X133061400Y-138940641D01*
X133061400Y-138999359D01*
X133175474Y-139572848D01*
X133500330Y-140059029D01*
X133771172Y-140240000D01*
X133500330Y-140420971D01*
X133175474Y-140907152D01*
X133061400Y-141480641D01*
X133061400Y-141539359D01*
X133175474Y-142112848D01*
X133500330Y-142599029D01*
X133636478Y-142690000D01*
X127735513Y-142690000D01*
X124875050Y-139829538D01*
X124996431Y-139651890D01*
X124999081Y-139638803D01*
X125135910Y-139851441D01*
X125348110Y-139996431D01*
X125600000Y-140047440D01*
X127100000Y-140047440D01*
X127335317Y-140003162D01*
X127551441Y-139864090D01*
X127696431Y-139651890D01*
X127704042Y-139614305D01*
X127882484Y-139578810D01*
X127938675Y-139567633D01*
X128225790Y-139375790D01*
X129875787Y-137725792D01*
X129875790Y-137725790D01*
X130067633Y-137438675D01*
X130135000Y-137100000D01*
X130135000Y-134366580D01*
X132196579Y-132305000D01*
X133066158Y-132305000D01*
X133093238Y-132448917D01*
G36*
X128365000Y-133999995D02*
X128364999Y-134000000D01*
X128365000Y-134000005D01*
X128365000Y-136733421D01*
X127496229Y-137602191D01*
X127351890Y-137503569D01*
X127100000Y-137452560D01*
X125600000Y-137452560D01*
X125364683Y-137496838D01*
X125148559Y-137635910D01*
X125003569Y-137848110D01*
X125000919Y-137861197D01*
X124864090Y-137648559D01*
X124793983Y-137600657D01*
X124850731Y-137564140D01*
X124995721Y-137351940D01*
X125046730Y-137100050D01*
X125046730Y-136461798D01*
X125136620Y-136601491D01*
X125348820Y-136746481D01*
X125600710Y-136797490D01*
X127401570Y-136797490D01*
X127636887Y-136753212D01*
X127853011Y-136614140D01*
X127998001Y-136401940D01*
X128049010Y-136150050D01*
X128049010Y-135349950D01*
X128004732Y-135114633D01*
X127865660Y-134898509D01*
X127653460Y-134753519D01*
X127401570Y-134702510D01*
X127311140Y-134702510D01*
X127311140Y-134007711D01*
X127335317Y-134003162D01*
X127551441Y-133864090D01*
X127696431Y-133651890D01*
X127747440Y-133400000D01*
X127747440Y-132100000D01*
X127703162Y-131864683D01*
X127564090Y-131648559D01*
X127351890Y-131503569D01*
X127100000Y-131452560D01*
X126888772Y-131452560D01*
X126793117Y-131221057D01*
X126619803Y-131047440D01*
X127100000Y-131047440D01*
X127335317Y-131003162D01*
X127551441Y-130864090D01*
X127696431Y-130651890D01*
X127699851Y-130635000D01*
X128249995Y-130635000D01*
X128250000Y-130635001D01*
X128365000Y-130612126D01*
X128365000Y-133999995D01*
X128365000Y-133999995D01*
G37*
X128365000Y-133999995D02*
X128364999Y-134000000D01*
X128365000Y-134000005D01*
X128365000Y-136733421D01*
X127496229Y-137602191D01*
X127351890Y-137503569D01*
X127100000Y-137452560D01*
X125600000Y-137452560D01*
X125364683Y-137496838D01*
X125148559Y-137635910D01*
X125003569Y-137848110D01*
X125000919Y-137861197D01*
X124864090Y-137648559D01*
X124793983Y-137600657D01*
X124850731Y-137564140D01*
X124995721Y-137351940D01*
X125046730Y-137100050D01*
X125046730Y-136461798D01*
X125136620Y-136601491D01*
X125348820Y-136746481D01*
X125600710Y-136797490D01*
X127401570Y-136797490D01*
X127636887Y-136753212D01*
X127853011Y-136614140D01*
X127998001Y-136401940D01*
X128049010Y-136150050D01*
X128049010Y-135349950D01*
X128004732Y-135114633D01*
X127865660Y-134898509D01*
X127653460Y-134753519D01*
X127401570Y-134702510D01*
X127311140Y-134702510D01*
X127311140Y-134007711D01*
X127335317Y-134003162D01*
X127551441Y-133864090D01*
X127696431Y-133651890D01*
X127747440Y-133400000D01*
X127747440Y-132100000D01*
X127703162Y-131864683D01*
X127564090Y-131648559D01*
X127351890Y-131503569D01*
X127100000Y-131452560D01*
X126888772Y-131452560D01*
X126793117Y-131221057D01*
X126619803Y-131047440D01*
X127100000Y-131047440D01*
X127335317Y-131003162D01*
X127551441Y-130864090D01*
X127696431Y-130651890D01*
X127699851Y-130635000D01*
X128249995Y-130635000D01*
X128250000Y-130635001D01*
X128365000Y-130612126D01*
X128365000Y-133999995D01*
G36*
X122134340Y-128551491D02*
X122346540Y-128696481D01*
X122399803Y-128707267D01*
X122303569Y-128848110D01*
X122252560Y-129100000D01*
X122252560Y-130400000D01*
X122296838Y-130635317D01*
X122435910Y-130851441D01*
X122648110Y-130996431D01*
X122900000Y-131047440D01*
X124400000Y-131047440D01*
X124635317Y-131003162D01*
X124851441Y-130864090D01*
X124996431Y-130651890D01*
X124999081Y-130638803D01*
X125135910Y-130851441D01*
X125348110Y-130996431D01*
X125417387Y-131010460D01*
X125207808Y-131219673D01*
X125065162Y-131563201D01*
X125064992Y-131758214D01*
X125003569Y-131848110D01*
X125000919Y-131861197D01*
X124864090Y-131648559D01*
X124651890Y-131503569D01*
X124400000Y-131452560D01*
X122900000Y-131452560D01*
X122664683Y-131496838D01*
X122448559Y-131635910D01*
X122303569Y-131848110D01*
X122284961Y-131940000D01*
X120585513Y-131940000D01*
X120410000Y-131764488D01*
X120410000Y-131185512D01*
X121822756Y-129772757D01*
X121976196Y-129543117D01*
X121998342Y-129509974D01*
X122060000Y-129200000D01*
X122060000Y-128435963D01*
X122134340Y-128551491D01*
X122134340Y-128551491D01*
G37*
X122134340Y-128551491D02*
X122346540Y-128696481D01*
X122399803Y-128707267D01*
X122303569Y-128848110D01*
X122252560Y-129100000D01*
X122252560Y-130400000D01*
X122296838Y-130635317D01*
X122435910Y-130851441D01*
X122648110Y-130996431D01*
X122900000Y-131047440D01*
X124400000Y-131047440D01*
X124635317Y-131003162D01*
X124851441Y-130864090D01*
X124996431Y-130651890D01*
X124999081Y-130638803D01*
X125135910Y-130851441D01*
X125348110Y-130996431D01*
X125417387Y-131010460D01*
X125207808Y-131219673D01*
X125065162Y-131563201D01*
X125064992Y-131758214D01*
X125003569Y-131848110D01*
X125000919Y-131861197D01*
X124864090Y-131648559D01*
X124651890Y-131503569D01*
X124400000Y-131452560D01*
X122900000Y-131452560D01*
X122664683Y-131496838D01*
X122448559Y-131635910D01*
X122303569Y-131848110D01*
X122284961Y-131940000D01*
X120585513Y-131940000D01*
X120410000Y-131764488D01*
X120410000Y-131185512D01*
X121822756Y-129772757D01*
X121976196Y-129543117D01*
X121998342Y-129509974D01*
X122060000Y-129200000D01*
X122060000Y-128435963D01*
X122134340Y-128551491D01*
G36*
X128456883Y-125528943D02*
X128719673Y-125792192D01*
X129063201Y-125934838D01*
X129419340Y-125935148D01*
X128164488Y-127190000D01*
X128040920Y-127190000D01*
X128049010Y-127150050D01*
X128049010Y-126349950D01*
X128004732Y-126114633D01*
X127865660Y-125898509D01*
X127653460Y-125753519D01*
X127401570Y-125702510D01*
X127311140Y-125702510D01*
X127311140Y-125385000D01*
X127443178Y-125385000D01*
X127563201Y-125434838D01*
X127935167Y-125435162D01*
X128278943Y-125293117D01*
X128335935Y-125236225D01*
X128456883Y-125528943D01*
X128456883Y-125528943D01*
G37*
X128456883Y-125528943D02*
X128719673Y-125792192D01*
X129063201Y-125934838D01*
X129419340Y-125935148D01*
X128164488Y-127190000D01*
X128040920Y-127190000D01*
X128049010Y-127150050D01*
X128049010Y-126349950D01*
X128004732Y-126114633D01*
X127865660Y-125898509D01*
X127653460Y-125753519D01*
X127401570Y-125702510D01*
X127311140Y-125702510D01*
X127311140Y-125385000D01*
X127443178Y-125385000D01*
X127563201Y-125434838D01*
X127935167Y-125435162D01*
X128278943Y-125293117D01*
X128335935Y-125236225D01*
X128456883Y-125528943D01*
G36*
X114855910Y-125326441D02*
X115068110Y-125471431D01*
X115205120Y-125499176D01*
X115084683Y-125521838D01*
X114868559Y-125660910D01*
X114796144Y-125766894D01*
X114656250Y-125627000D01*
X114575949Y-125627000D01*
X114431890Y-125528569D01*
X114294880Y-125500824D01*
X114415317Y-125478162D01*
X114578743Y-125373000D01*
X114656250Y-125373000D01*
X114795965Y-125233285D01*
X114855910Y-125326441D01*
X114855910Y-125326441D01*
G37*
X114855910Y-125326441D02*
X115068110Y-125471431D01*
X115205120Y-125499176D01*
X115084683Y-125521838D01*
X114868559Y-125660910D01*
X114796144Y-125766894D01*
X114656250Y-125627000D01*
X114575949Y-125627000D01*
X114431890Y-125528569D01*
X114294880Y-125500824D01*
X114415317Y-125478162D01*
X114578743Y-125373000D01*
X114656250Y-125373000D01*
X114795965Y-125233285D01*
X114855910Y-125326441D01*
G36*
X99365000Y-125719487D02*
X98060000Y-124414488D01*
X98060000Y-111748642D01*
X99365000Y-110443643D01*
X99365000Y-125719487D01*
X99365000Y-125719487D01*
G37*
X99365000Y-125719487D02*
X98060000Y-124414488D01*
X98060000Y-111748642D01*
X99365000Y-110443643D01*
X99365000Y-125719487D01*
G36*
X133400330Y-118459029D02*
X133671172Y-118640000D01*
X133400330Y-118820971D01*
X133075474Y-119307152D01*
X132961400Y-119880641D01*
X132961400Y-119939359D01*
X133075474Y-120512848D01*
X133400330Y-120999029D01*
X133650000Y-121165853D01*
X133650000Y-121704487D01*
X130184853Y-125169635D01*
X130185162Y-124814833D01*
X130135000Y-124693431D01*
X130135000Y-122536680D01*
X130375790Y-122375790D01*
X131908834Y-120842745D01*
X132028943Y-120793117D01*
X132292192Y-120530327D01*
X132434838Y-120186799D01*
X132435162Y-119814833D01*
X132293117Y-119471057D01*
X132030327Y-119207808D01*
X131788232Y-119107281D01*
X132715513Y-118180000D01*
X133213889Y-118180000D01*
X133400330Y-118459029D01*
X133400330Y-118459029D01*
G37*
X133400330Y-118459029D02*
X133671172Y-118640000D01*
X133400330Y-118820971D01*
X133075474Y-119307152D01*
X132961400Y-119880641D01*
X132961400Y-119939359D01*
X133075474Y-120512848D01*
X133400330Y-120999029D01*
X133650000Y-121165853D01*
X133650000Y-121704487D01*
X130184853Y-125169635D01*
X130185162Y-124814833D01*
X130135000Y-124693431D01*
X130135000Y-122536680D01*
X130375790Y-122375790D01*
X131908834Y-120842745D01*
X132028943Y-120793117D01*
X132292192Y-120530327D01*
X132434838Y-120186799D01*
X132435162Y-119814833D01*
X132293117Y-119471057D01*
X132030327Y-119207808D01*
X131788232Y-119107281D01*
X132715513Y-118180000D01*
X133213889Y-118180000D01*
X133400330Y-118459029D01*
G36*
X119639990Y-120535503D02*
X119639990Y-121890093D01*
X119614660Y-121850729D01*
X119402460Y-121705739D01*
X119150570Y-121654730D01*
X117649430Y-121654730D01*
X117414113Y-121699008D01*
X117197989Y-121838080D01*
X117052999Y-122050280D01*
X117001990Y-122302170D01*
X117001990Y-123665000D01*
X116685209Y-123665000D01*
X116631890Y-123628569D01*
X116380000Y-123577560D01*
X115320000Y-123577560D01*
X115084683Y-123621838D01*
X114868559Y-123760910D01*
X114748767Y-123936232D01*
X114644090Y-123773559D01*
X114535000Y-123699021D01*
X114535000Y-123306822D01*
X114584838Y-123186799D01*
X114585162Y-122814833D01*
X114535000Y-122693431D01*
X114535000Y-121390065D01*
X114562848Y-121384526D01*
X115034356Y-121069474D01*
X115098073Y-121223299D01*
X115276702Y-121401927D01*
X115510091Y-121498600D01*
X116214250Y-121498600D01*
X116373000Y-121339850D01*
X116373000Y-120127000D01*
X116627000Y-120127000D01*
X116627000Y-121339850D01*
X116785750Y-121498600D01*
X117489909Y-121498600D01*
X117723298Y-121401927D01*
X117901927Y-121223299D01*
X117998600Y-120989910D01*
X117998600Y-120285750D01*
X117839850Y-120127000D01*
X116627000Y-120127000D01*
X116373000Y-120127000D01*
X116353000Y-120127000D01*
X116353000Y-119873000D01*
X116373000Y-119873000D01*
X116373000Y-119853000D01*
X116627000Y-119853000D01*
X116627000Y-119873000D01*
X117839850Y-119873000D01*
X117998600Y-119714250D01*
X117998600Y-119508601D01*
X118613089Y-119508601D01*
X119639990Y-120535503D01*
X119639990Y-120535503D01*
G37*
X119639990Y-120535503D02*
X119639990Y-121890093D01*
X119614660Y-121850729D01*
X119402460Y-121705739D01*
X119150570Y-121654730D01*
X117649430Y-121654730D01*
X117414113Y-121699008D01*
X117197989Y-121838080D01*
X117052999Y-122050280D01*
X117001990Y-122302170D01*
X117001990Y-123665000D01*
X116685209Y-123665000D01*
X116631890Y-123628569D01*
X116380000Y-123577560D01*
X115320000Y-123577560D01*
X115084683Y-123621838D01*
X114868559Y-123760910D01*
X114748767Y-123936232D01*
X114644090Y-123773559D01*
X114535000Y-123699021D01*
X114535000Y-123306822D01*
X114584838Y-123186799D01*
X114585162Y-122814833D01*
X114535000Y-122693431D01*
X114535000Y-121390065D01*
X114562848Y-121384526D01*
X115034356Y-121069474D01*
X115098073Y-121223299D01*
X115276702Y-121401927D01*
X115510091Y-121498600D01*
X116214250Y-121498600D01*
X116373000Y-121339850D01*
X116373000Y-120127000D01*
X116627000Y-120127000D01*
X116627000Y-121339850D01*
X116785750Y-121498600D01*
X117489909Y-121498600D01*
X117723298Y-121401927D01*
X117901927Y-121223299D01*
X117998600Y-120989910D01*
X117998600Y-120285750D01*
X117839850Y-120127000D01*
X116627000Y-120127000D01*
X116373000Y-120127000D01*
X116353000Y-120127000D01*
X116353000Y-119873000D01*
X116373000Y-119873000D01*
X116373000Y-119853000D01*
X116627000Y-119853000D01*
X116627000Y-119873000D01*
X117839850Y-119873000D01*
X117998600Y-119714250D01*
X117998600Y-119508601D01*
X118613089Y-119508601D01*
X119639990Y-120535503D01*
G36*
X122134340Y-110551491D02*
X122346540Y-110696481D01*
X122399803Y-110707267D01*
X122303569Y-110848110D01*
X122252560Y-111100000D01*
X122252560Y-112400000D01*
X122296838Y-112635317D01*
X122435910Y-112851441D01*
X122648110Y-112996431D01*
X122900000Y-113047440D01*
X124400000Y-113047440D01*
X124635317Y-113003162D01*
X124851441Y-112864090D01*
X124996431Y-112651890D01*
X124999081Y-112638803D01*
X125135910Y-112851441D01*
X125348110Y-112996431D01*
X125600000Y-113047440D01*
X127100000Y-113047440D01*
X127335317Y-113003162D01*
X127497330Y-112898910D01*
X127957576Y-113359156D01*
X127721057Y-113456883D01*
X127543286Y-113634344D01*
X127351890Y-113503569D01*
X127100000Y-113452560D01*
X125600000Y-113452560D01*
X125364683Y-113496838D01*
X125148559Y-113635910D01*
X125003569Y-113848110D01*
X125000919Y-113861197D01*
X124864090Y-113648559D01*
X124651890Y-113503569D01*
X124400000Y-113452560D01*
X122900000Y-113452560D01*
X122677629Y-113494402D01*
X122486799Y-113415162D01*
X122114833Y-113414838D01*
X121771057Y-113556883D01*
X121507808Y-113819673D01*
X121365162Y-114163201D01*
X121364838Y-114535167D01*
X121506883Y-114878943D01*
X121769673Y-115142192D01*
X122113201Y-115284838D01*
X122252560Y-115284959D01*
X122252560Y-115400000D01*
X122296838Y-115635317D01*
X122396678Y-115790472D01*
X122363113Y-115796788D01*
X122146989Y-115935860D01*
X122001999Y-116148060D01*
X121950990Y-116399950D01*
X121950990Y-117200050D01*
X121995268Y-117435367D01*
X122134340Y-117651491D01*
X122279437Y-117750632D01*
X122146989Y-117835860D01*
X122001999Y-118048060D01*
X121950990Y-118299950D01*
X121950990Y-119100050D01*
X121995268Y-119335367D01*
X122134340Y-119551491D01*
X122346540Y-119696481D01*
X122399803Y-119707267D01*
X122303569Y-119848110D01*
X122252560Y-120100000D01*
X122252560Y-121400000D01*
X122296838Y-121635317D01*
X122435910Y-121851441D01*
X122648110Y-121996431D01*
X122900000Y-122047440D01*
X124400000Y-122047440D01*
X124635317Y-122003162D01*
X124851441Y-121864090D01*
X124996431Y-121651890D01*
X124999081Y-121638803D01*
X125135910Y-121851441D01*
X125348110Y-121996431D01*
X125600000Y-122047440D01*
X127100000Y-122047440D01*
X127335317Y-122003162D01*
X127551441Y-121864090D01*
X127696431Y-121651890D01*
X127699851Y-121635000D01*
X127883420Y-121635000D01*
X128365000Y-122116579D01*
X128365000Y-123792629D01*
X128280327Y-123707808D01*
X127936799Y-123565162D01*
X127747440Y-123564997D01*
X127747440Y-123100000D01*
X127703162Y-122864683D01*
X127564090Y-122648559D01*
X127351890Y-122503569D01*
X127100000Y-122452560D01*
X125600000Y-122452560D01*
X125364683Y-122496838D01*
X125148559Y-122635910D01*
X125003569Y-122848110D01*
X125000919Y-122861197D01*
X124864090Y-122648559D01*
X124651890Y-122503569D01*
X124400000Y-122452560D01*
X122900000Y-122452560D01*
X122664683Y-122496838D01*
X122448559Y-122635910D01*
X122380715Y-122735203D01*
X121810000Y-122164488D01*
X121810000Y-119700000D01*
X121748342Y-119390026D01*
X121654779Y-119250000D01*
X121572757Y-119127244D01*
X120560000Y-118114488D01*
X120560000Y-115987441D01*
X120684838Y-115686799D01*
X120685162Y-115314833D01*
X120543117Y-114971057D01*
X120280327Y-114707808D01*
X120095297Y-114630976D01*
X120428943Y-114493117D01*
X120692192Y-114230327D01*
X120834838Y-113886799D01*
X120835162Y-113514833D01*
X120693117Y-113171057D01*
X120430327Y-112907808D01*
X120086799Y-112765162D01*
X119714833Y-112764838D01*
X119654679Y-112789693D01*
X122039800Y-110404572D01*
X122134340Y-110551491D01*
X122134340Y-110551491D01*
G37*
X122134340Y-110551491D02*
X122346540Y-110696481D01*
X122399803Y-110707267D01*
X122303569Y-110848110D01*
X122252560Y-111100000D01*
X122252560Y-112400000D01*
X122296838Y-112635317D01*
X122435910Y-112851441D01*
X122648110Y-112996431D01*
X122900000Y-113047440D01*
X124400000Y-113047440D01*
X124635317Y-113003162D01*
X124851441Y-112864090D01*
X124996431Y-112651890D01*
X124999081Y-112638803D01*
X125135910Y-112851441D01*
X125348110Y-112996431D01*
X125600000Y-113047440D01*
X127100000Y-113047440D01*
X127335317Y-113003162D01*
X127497330Y-112898910D01*
X127957576Y-113359156D01*
X127721057Y-113456883D01*
X127543286Y-113634344D01*
X127351890Y-113503569D01*
X127100000Y-113452560D01*
X125600000Y-113452560D01*
X125364683Y-113496838D01*
X125148559Y-113635910D01*
X125003569Y-113848110D01*
X125000919Y-113861197D01*
X124864090Y-113648559D01*
X124651890Y-113503569D01*
X124400000Y-113452560D01*
X122900000Y-113452560D01*
X122677629Y-113494402D01*
X122486799Y-113415162D01*
X122114833Y-113414838D01*
X121771057Y-113556883D01*
X121507808Y-113819673D01*
X121365162Y-114163201D01*
X121364838Y-114535167D01*
X121506883Y-114878943D01*
X121769673Y-115142192D01*
X122113201Y-115284838D01*
X122252560Y-115284959D01*
X122252560Y-115400000D01*
X122296838Y-115635317D01*
X122396678Y-115790472D01*
X122363113Y-115796788D01*
X122146989Y-115935860D01*
X122001999Y-116148060D01*
X121950990Y-116399950D01*
X121950990Y-117200050D01*
X121995268Y-117435367D01*
X122134340Y-117651491D01*
X122279437Y-117750632D01*
X122146989Y-117835860D01*
X122001999Y-118048060D01*
X121950990Y-118299950D01*
X121950990Y-119100050D01*
X121995268Y-119335367D01*
X122134340Y-119551491D01*
X122346540Y-119696481D01*
X122399803Y-119707267D01*
X122303569Y-119848110D01*
X122252560Y-120100000D01*
X122252560Y-121400000D01*
X122296838Y-121635317D01*
X122435910Y-121851441D01*
X122648110Y-121996431D01*
X122900000Y-122047440D01*
X124400000Y-122047440D01*
X124635317Y-122003162D01*
X124851441Y-121864090D01*
X124996431Y-121651890D01*
X124999081Y-121638803D01*
X125135910Y-121851441D01*
X125348110Y-121996431D01*
X125600000Y-122047440D01*
X127100000Y-122047440D01*
X127335317Y-122003162D01*
X127551441Y-121864090D01*
X127696431Y-121651890D01*
X127699851Y-121635000D01*
X127883420Y-121635000D01*
X128365000Y-122116579D01*
X128365000Y-123792629D01*
X128280327Y-123707808D01*
X127936799Y-123565162D01*
X127747440Y-123564997D01*
X127747440Y-123100000D01*
X127703162Y-122864683D01*
X127564090Y-122648559D01*
X127351890Y-122503569D01*
X127100000Y-122452560D01*
X125600000Y-122452560D01*
X125364683Y-122496838D01*
X125148559Y-122635910D01*
X125003569Y-122848110D01*
X125000919Y-122861197D01*
X124864090Y-122648559D01*
X124651890Y-122503569D01*
X124400000Y-122452560D01*
X122900000Y-122452560D01*
X122664683Y-122496838D01*
X122448559Y-122635910D01*
X122380715Y-122735203D01*
X121810000Y-122164488D01*
X121810000Y-119700000D01*
X121748342Y-119390026D01*
X121654779Y-119250000D01*
X121572757Y-119127244D01*
X120560000Y-118114488D01*
X120560000Y-115987441D01*
X120684838Y-115686799D01*
X120685162Y-115314833D01*
X120543117Y-114971057D01*
X120280327Y-114707808D01*
X120095297Y-114630976D01*
X120428943Y-114493117D01*
X120692192Y-114230327D01*
X120834838Y-113886799D01*
X120835162Y-113514833D01*
X120693117Y-113171057D01*
X120430327Y-112907808D01*
X120086799Y-112765162D01*
X119714833Y-112764838D01*
X119654679Y-112789693D01*
X122039800Y-110404572D01*
X122134340Y-110551491D01*
G36*
X130069117Y-115470696D02*
X130111779Y-115685167D01*
X130132368Y-115788676D01*
X130317109Y-116065162D01*
X130324211Y-116075791D01*
X130407256Y-116158835D01*
X130456883Y-116278943D01*
X130719673Y-116542192D01*
X131063201Y-116684838D01*
X131435167Y-116685162D01*
X131778943Y-116543117D01*
X132042192Y-116280327D01*
X132184838Y-115936799D01*
X132185122Y-115611182D01*
X132330000Y-115640000D01*
X133213889Y-115640000D01*
X133400330Y-115919029D01*
X133671172Y-116100000D01*
X133400330Y-116280971D01*
X133213889Y-116560000D01*
X132380000Y-116560000D01*
X132070026Y-116621658D01*
X131979169Y-116682367D01*
X131807243Y-116797244D01*
X130164488Y-118440000D01*
X128529692Y-118440000D01*
X128625790Y-118375790D01*
X128658836Y-118342744D01*
X128778943Y-118293117D01*
X129042192Y-118030327D01*
X129184838Y-117686799D01*
X129185162Y-117314833D01*
X129135000Y-117193431D01*
X129135000Y-114556822D01*
X129140939Y-114542519D01*
X130069117Y-115470696D01*
X130069117Y-115470696D01*
G37*
X130069117Y-115470696D02*
X130111779Y-115685167D01*
X130132368Y-115788676D01*
X130317109Y-116065162D01*
X130324211Y-116075791D01*
X130407256Y-116158835D01*
X130456883Y-116278943D01*
X130719673Y-116542192D01*
X131063201Y-116684838D01*
X131435167Y-116685162D01*
X131778943Y-116543117D01*
X132042192Y-116280327D01*
X132184838Y-115936799D01*
X132185122Y-115611182D01*
X132330000Y-115640000D01*
X133213889Y-115640000D01*
X133400330Y-115919029D01*
X133671172Y-116100000D01*
X133400330Y-116280971D01*
X133213889Y-116560000D01*
X132380000Y-116560000D01*
X132070026Y-116621658D01*
X131979169Y-116682367D01*
X131807243Y-116797244D01*
X130164488Y-118440000D01*
X128529692Y-118440000D01*
X128625790Y-118375790D01*
X128658836Y-118342744D01*
X128778943Y-118293117D01*
X129042192Y-118030327D01*
X129184838Y-117686799D01*
X129185162Y-117314833D01*
X129135000Y-117193431D01*
X129135000Y-114556822D01*
X129140939Y-114542519D01*
X130069117Y-115470696D01*
G36*
X119378132Y-114495704D02*
X119554703Y-114569024D01*
X119221057Y-114706883D01*
X118957808Y-114969673D01*
X118815162Y-115313201D01*
X118814838Y-115685167D01*
X118940000Y-115988083D01*
X118940000Y-117888601D01*
X117942705Y-117888601D01*
X118027959Y-117460000D01*
X117913885Y-116886511D01*
X117589029Y-116400330D01*
X117274248Y-116190000D01*
X117589029Y-115979670D01*
X117913885Y-115493489D01*
X118027959Y-114920000D01*
X117942705Y-114491399D01*
X119356487Y-114491399D01*
X119378132Y-114495704D01*
X119378132Y-114495704D01*
G37*
X119378132Y-114495704D02*
X119554703Y-114569024D01*
X119221057Y-114706883D01*
X118957808Y-114969673D01*
X118815162Y-115313201D01*
X118814838Y-115685167D01*
X118940000Y-115988083D01*
X118940000Y-117888601D01*
X117942705Y-117888601D01*
X118027959Y-117460000D01*
X117913885Y-116886511D01*
X117589029Y-116400330D01*
X117274248Y-116190000D01*
X117589029Y-115979670D01*
X117913885Y-115493489D01*
X118027959Y-114920000D01*
X117942705Y-114491399D01*
X119356487Y-114491399D01*
X119378132Y-114495704D01*
G36*
X137636390Y-105049408D02*
X139023654Y-105976349D01*
X139950592Y-107363610D01*
X140290000Y-109069931D01*
X140290000Y-113213173D01*
X138794070Y-111717244D01*
X138665982Y-111631658D01*
X138531288Y-111541658D01*
X138249912Y-111485689D01*
X138059670Y-111200971D01*
X137788828Y-111020000D01*
X138059670Y-110839029D01*
X138384526Y-110352848D01*
X138498600Y-109779359D01*
X138498600Y-109720641D01*
X138384526Y-109147152D01*
X138059670Y-108660971D01*
X137573489Y-108336115D01*
X137000000Y-108222041D01*
X136426511Y-108336115D01*
X135940330Y-108660971D01*
X135931195Y-108674642D01*
X135926762Y-108651083D01*
X135787690Y-108434959D01*
X135575490Y-108289969D01*
X135323600Y-108238960D01*
X133596400Y-108238960D01*
X133361083Y-108283238D01*
X133144959Y-108422310D01*
X132999969Y-108634510D01*
X132948960Y-108886400D01*
X132948960Y-110613600D01*
X132993238Y-110848917D01*
X133132310Y-111065041D01*
X133344510Y-111210031D01*
X133388345Y-111218908D01*
X133075474Y-111687152D01*
X132961400Y-112260641D01*
X132961400Y-112319359D01*
X133075474Y-112892848D01*
X133400330Y-113379029D01*
X133671172Y-113560000D01*
X133400330Y-113740971D01*
X133213889Y-114020000D01*
X132665513Y-114020000D01*
X128330583Y-109685071D01*
X128435167Y-109685162D01*
X128778943Y-109543117D01*
X129042192Y-109280327D01*
X129184838Y-108936799D01*
X129185162Y-108564833D01*
X129043117Y-108221057D01*
X128780327Y-107957808D01*
X128436799Y-107815162D01*
X128064833Y-107814838D01*
X127943431Y-107865000D01*
X127816618Y-107865000D01*
X127653460Y-107753519D01*
X127401570Y-107702510D01*
X127311140Y-107702510D01*
X127311140Y-107007711D01*
X127335317Y-107003162D01*
X127551441Y-106864090D01*
X127696431Y-106651890D01*
X127747440Y-106400000D01*
X127747440Y-105100000D01*
X127703162Y-104864683D01*
X127603626Y-104710000D01*
X135930069Y-104710000D01*
X137636390Y-105049408D01*
X137636390Y-105049408D01*
G37*
X137636390Y-105049408D02*
X139023654Y-105976349D01*
X139950592Y-107363610D01*
X140290000Y-109069931D01*
X140290000Y-113213173D01*
X138794070Y-111717244D01*
X138665982Y-111631658D01*
X138531288Y-111541658D01*
X138249912Y-111485689D01*
X138059670Y-111200971D01*
X137788828Y-111020000D01*
X138059670Y-110839029D01*
X138384526Y-110352848D01*
X138498600Y-109779359D01*
X138498600Y-109720641D01*
X138384526Y-109147152D01*
X138059670Y-108660971D01*
X137573489Y-108336115D01*
X137000000Y-108222041D01*
X136426511Y-108336115D01*
X135940330Y-108660971D01*
X135931195Y-108674642D01*
X135926762Y-108651083D01*
X135787690Y-108434959D01*
X135575490Y-108289969D01*
X135323600Y-108238960D01*
X133596400Y-108238960D01*
X133361083Y-108283238D01*
X133144959Y-108422310D01*
X132999969Y-108634510D01*
X132948960Y-108886400D01*
X132948960Y-110613600D01*
X132993238Y-110848917D01*
X133132310Y-111065041D01*
X133344510Y-111210031D01*
X133388345Y-111218908D01*
X133075474Y-111687152D01*
X132961400Y-112260641D01*
X132961400Y-112319359D01*
X133075474Y-112892848D01*
X133400330Y-113379029D01*
X133671172Y-113560000D01*
X133400330Y-113740971D01*
X133213889Y-114020000D01*
X132665513Y-114020000D01*
X128330583Y-109685071D01*
X128435167Y-109685162D01*
X128778943Y-109543117D01*
X129042192Y-109280327D01*
X129184838Y-108936799D01*
X129185162Y-108564833D01*
X129043117Y-108221057D01*
X128780327Y-107957808D01*
X128436799Y-107815162D01*
X128064833Y-107814838D01*
X127943431Y-107865000D01*
X127816618Y-107865000D01*
X127653460Y-107753519D01*
X127401570Y-107702510D01*
X127311140Y-107702510D01*
X127311140Y-107007711D01*
X127335317Y-107003162D01*
X127551441Y-106864090D01*
X127696431Y-106651890D01*
X127747440Y-106400000D01*
X127747440Y-105100000D01*
X127703162Y-104864683D01*
X127603626Y-104710000D01*
X135930069Y-104710000D01*
X137636390Y-105049408D01*
G36*
X122303569Y-104848110D02*
X122252560Y-105100000D01*
X122252560Y-106400000D01*
X122296838Y-106635317D01*
X122396678Y-106790472D01*
X122363113Y-106796788D01*
X122146989Y-106935860D01*
X122001999Y-107148060D01*
X121950990Y-107399950D01*
X121950990Y-107701978D01*
X121675674Y-107977294D01*
X121500088Y-108240076D01*
X121438430Y-108550050D01*
X121438430Y-108714917D01*
X118583348Y-111570000D01*
X117755853Y-111570000D01*
X117589029Y-111320330D01*
X117274248Y-111110000D01*
X117589029Y-110899670D01*
X117913885Y-110413489D01*
X118027959Y-109840000D01*
X117913885Y-109266511D01*
X117589029Y-108780330D01*
X117102848Y-108455474D01*
X116529359Y-108341400D01*
X116470641Y-108341400D01*
X115897152Y-108455474D01*
X115410971Y-108780330D01*
X115230000Y-109051172D01*
X115049029Y-108780330D01*
X114562848Y-108455474D01*
X113989359Y-108341400D01*
X113930641Y-108341400D01*
X113357152Y-108455474D01*
X113040081Y-108667334D01*
X113299408Y-107363610D01*
X114226349Y-105976346D01*
X115613610Y-105049408D01*
X117319931Y-104710000D01*
X122397935Y-104710000D01*
X122303569Y-104848110D01*
X122303569Y-104848110D01*
G37*
X122303569Y-104848110D02*
X122252560Y-105100000D01*
X122252560Y-106400000D01*
X122296838Y-106635317D01*
X122396678Y-106790472D01*
X122363113Y-106796788D01*
X122146989Y-106935860D01*
X122001999Y-107148060D01*
X121950990Y-107399950D01*
X121950990Y-107701978D01*
X121675674Y-107977294D01*
X121500088Y-108240076D01*
X121438430Y-108550050D01*
X121438430Y-108714917D01*
X118583348Y-111570000D01*
X117755853Y-111570000D01*
X117589029Y-111320330D01*
X117274248Y-111110000D01*
X117589029Y-110899670D01*
X117913885Y-110413489D01*
X118027959Y-109840000D01*
X117913885Y-109266511D01*
X117589029Y-108780330D01*
X117102848Y-108455474D01*
X116529359Y-108341400D01*
X116470641Y-108341400D01*
X115897152Y-108455474D01*
X115410971Y-108780330D01*
X115230000Y-109051172D01*
X115049029Y-108780330D01*
X114562848Y-108455474D01*
X113989359Y-108341400D01*
X113930641Y-108341400D01*
X113357152Y-108455474D01*
X113040081Y-108667334D01*
X113299408Y-107363610D01*
X114226349Y-105976346D01*
X115613610Y-105049408D01*
X117319931Y-104710000D01*
X122397935Y-104710000D01*
X122303569Y-104848110D01*
G36*
X84115000Y-105724442D02*
X83984914Y-105748919D01*
X83951310Y-105735000D01*
X83785750Y-105735000D01*
X83627002Y-105893748D01*
X83627002Y-105735000D01*
X83516580Y-105735000D01*
X83616579Y-105635000D01*
X84115000Y-105635000D01*
X84115000Y-105724442D01*
X84115000Y-105724442D01*
G37*
X84115000Y-105724442D02*
X83984914Y-105748919D01*
X83951310Y-105735000D01*
X83785750Y-105735000D01*
X83627002Y-105893748D01*
X83627002Y-105735000D01*
X83516580Y-105735000D01*
X83616579Y-105635000D01*
X84115000Y-105635000D01*
X84115000Y-105724442D01*
M02*
