G04 #@! TF.FileFunction,Copper,L1,Top,Signal*
%FSLAX46Y46*%
G04 Gerber Fmt 4.6, Leading zero omitted, Abs format (unit mm)*
G04 Created by KiCad (PCBNEW 4.0.1-stable) date 08.03.2016 22:55:35*
%MOMM*%
G01*
G04 APERTURE LIST*
%ADD10C,0.100000*%
%ADD11C,0.600000*%
%ADD12O,1.998980X1.998980*%
%ADD13R,1.998980X1.998980*%
%ADD14R,0.800100X1.400000*%
%ADD15R,1.300000X1.500000*%
%ADD16R,1.727200X2.032000*%
%ADD17O,1.727200X2.032000*%
%ADD18C,5.000000*%
%ADD19R,1.727200X1.727200*%
%ADD20O,1.727200X1.727200*%
%ADD21C,0.500000*%
%ADD22C,1.000000*%
%ADD23C,2.000000*%
%ADD24C,1.500000*%
%ADD25C,2.500000*%
%ADD26C,5.000000*%
%ADD27C,0.635000*%
%ADD28C,0.250000*%
G04 APERTURE END LIST*
D10*
D11*
X160000000Y-102600000D03*
X158650000Y-96975000D03*
X161075000Y-97075000D03*
X163850000Y-97125000D03*
X166225000Y-97125000D03*
X168950000Y-97125000D03*
X171500000Y-97000000D03*
X174375000Y-96950000D03*
X157250000Y-118150000D03*
X155750000Y-118150000D03*
X157250000Y-116650000D03*
X155750000Y-116650000D03*
X157250000Y-115150000D03*
X155750000Y-115150000D03*
X182000000Y-110850000D03*
X180400000Y-110750000D03*
X171640000Y-93050000D03*
X166000000Y-93130000D03*
X160460000Y-93200000D03*
X178800000Y-114300000D03*
X181800000Y-114300000D03*
X155770000Y-103880000D03*
X160280000Y-110880000D03*
X166360000Y-109630000D03*
X173720000Y-103760000D03*
X176950000Y-102250000D03*
D12*
X175510000Y-95150000D03*
D13*
X167890000Y-95150000D03*
D12*
X170430000Y-95150000D03*
X172970000Y-95150000D03*
X164660000Y-95150000D03*
D13*
X157040000Y-95150000D03*
D12*
X159580000Y-95150000D03*
X162120000Y-95150000D03*
D14*
X162400000Y-105725000D03*
X164300000Y-105725000D03*
X163350000Y-103125000D03*
X174600000Y-105750000D03*
X176500000Y-105750000D03*
X175550000Y-103150000D03*
X168500000Y-105725000D03*
X170400000Y-105725000D03*
X169450000Y-103125000D03*
X156300000Y-105725000D03*
X158200000Y-105725000D03*
X157250000Y-103125000D03*
D15*
X162050000Y-110925000D03*
X162050000Y-108225000D03*
X174250000Y-110925000D03*
X174250000Y-108225000D03*
X164650000Y-110925000D03*
X164650000Y-108225000D03*
X176850000Y-110925000D03*
X176850000Y-108225000D03*
X168150000Y-110925000D03*
X168150000Y-108225000D03*
X155950000Y-110925000D03*
X155950000Y-108225000D03*
X170750000Y-110925000D03*
X170750000Y-108225000D03*
X158550000Y-110925000D03*
X158550000Y-108225000D03*
D16*
X157400000Y-99950000D03*
D17*
X159940000Y-99950000D03*
X162480000Y-99950000D03*
X165020000Y-99950000D03*
X167560000Y-99950000D03*
X170100000Y-99950000D03*
X172640000Y-99950000D03*
X175180000Y-99950000D03*
D11*
X155350000Y-114100000D03*
D18*
X180370000Y-98100000D03*
D19*
X175000000Y-115000000D03*
D20*
X175000000Y-117540000D03*
X172460000Y-115000000D03*
X172460000Y-117540000D03*
X169920000Y-115000000D03*
X169920000Y-117540000D03*
X167380000Y-115000000D03*
X167380000Y-117540000D03*
X164840000Y-115000000D03*
X164840000Y-117540000D03*
X162300000Y-115000000D03*
X162300000Y-117540000D03*
X159760000Y-115000000D03*
X159760000Y-117540000D03*
D11*
X130750000Y-53950000D03*
X132750000Y-60750000D03*
X127950000Y-61350000D03*
X146500000Y-109975000D03*
X124850000Y-109975000D03*
X160600000Y-45900000D03*
X160700000Y-48500000D03*
X156900000Y-46300000D03*
X154000000Y-48100000D03*
X161400000Y-42700000D03*
X185400000Y-35700000D03*
X158700000Y-44500000D03*
X158700000Y-51800000D03*
X156900000Y-49600000D03*
X185800000Y-38300000D03*
X186900000Y-36200000D03*
X186200000Y-34100000D03*
X186800000Y-42000000D03*
X186600000Y-77900000D03*
X186700000Y-80500000D03*
X182900000Y-78300000D03*
X180000000Y-80100000D03*
X187400000Y-74700000D03*
X184700000Y-76500000D03*
X184700000Y-83800000D03*
X182900000Y-81600000D03*
X160270000Y-108800000D03*
X176990000Y-103970000D03*
X166350000Y-106090000D03*
X172450000Y-105480000D03*
X168790000Y-113200000D03*
X171320000Y-112480000D03*
D21*
X132950000Y-55374540D02*
X132950000Y-51525460D01*
X130750000Y-53950000D02*
X132174540Y-55374540D01*
X132174540Y-55374540D02*
X132950000Y-55374540D01*
D22*
X131780000Y-117940000D02*
X129240000Y-115400000D01*
D23*
X119080000Y-115400000D02*
X116540000Y-115400000D01*
X121620000Y-115400000D02*
X119080000Y-115400000D01*
X124160000Y-115400000D02*
X121620000Y-115400000D01*
X126700000Y-115400000D02*
X124160000Y-115400000D01*
X129240000Y-115400000D02*
X128000000Y-115400000D01*
X128000000Y-115400000D02*
X126700000Y-115400000D01*
D21*
X117950000Y-58769860D02*
X117950000Y-61374540D01*
X117950000Y-61374540D02*
X119950000Y-63374540D01*
X123150000Y-52550000D02*
X121330140Y-52550000D01*
X121330140Y-52550000D02*
X117950000Y-55930140D01*
X123150000Y-52550000D02*
X123690000Y-52010000D01*
X123690000Y-52010000D02*
X123690000Y-43950000D01*
D23*
X115850080Y-50350000D02*
X109100000Y-43599920D01*
X109100000Y-43599920D02*
X109100000Y-42750000D01*
X129240000Y-117940000D02*
X128350000Y-117940000D01*
X126700000Y-117940000D02*
X128350000Y-117940000D01*
X124160000Y-117940000D02*
X126700000Y-117940000D01*
X121620000Y-117940000D02*
X124160000Y-117940000D01*
X119080000Y-117940000D02*
X121620000Y-117940000D01*
X116540000Y-117940000D02*
X119080000Y-117940000D01*
X128700000Y-101600000D02*
X128700000Y-102151100D01*
X128700000Y-102151100D02*
X130748900Y-104200000D01*
X130110000Y-98650000D02*
X130110000Y-100190000D01*
X130110000Y-100190000D02*
X128700000Y-101600000D01*
X128700000Y-101600000D02*
X106100000Y-101600000D01*
D24*
X108748900Y-104200000D02*
X107400000Y-104200000D01*
X107400000Y-104200000D02*
X106100000Y-105500000D01*
D23*
X106100000Y-101600000D02*
X106100000Y-100660000D01*
X106100000Y-100660000D02*
X108110000Y-98650000D01*
X116540000Y-117940000D02*
X109540000Y-117940000D01*
X109540000Y-117940000D02*
X106100000Y-114500000D01*
X106100000Y-114500000D02*
X106100000Y-105500000D01*
X106100000Y-105500000D02*
X106100000Y-101600000D01*
X106100000Y-101600000D02*
X106100000Y-101500000D01*
D25*
X121150000Y-43950000D02*
X121150000Y-37900000D01*
X121150000Y-37900000D02*
X122650000Y-36400000D01*
X122650000Y-36400000D02*
X122650000Y-33550000D01*
X119649920Y-50350000D02*
X121150000Y-48849920D01*
X121150000Y-48849920D02*
X121150000Y-43950000D01*
D26*
X108700000Y-69300000D02*
X108700000Y-52650000D01*
X108700000Y-52650000D02*
X109100000Y-52250000D01*
D21*
X126470000Y-75690000D02*
X126470000Y-73150000D01*
X119950000Y-66925460D02*
X122750000Y-66925460D01*
X122750000Y-66925460D02*
X124350000Y-65325460D01*
D27*
X126470000Y-73150000D02*
X126470000Y-67445460D01*
X126470000Y-67445460D02*
X124350000Y-65325460D01*
D28*
X126470000Y-73150000D02*
X126350000Y-73030000D01*
D21*
X129010000Y-75690000D02*
X129010000Y-73150000D01*
X127974540Y-63550000D02*
X127974540Y-61574540D01*
X132950000Y-60550000D02*
X132950000Y-58925460D01*
X132750000Y-60750000D02*
X132950000Y-60550000D01*
X127950000Y-61550000D02*
X127950000Y-61350000D01*
X127974540Y-61574540D02*
X127950000Y-61550000D01*
D27*
X127974540Y-63550000D02*
X127974540Y-70974540D01*
X129010000Y-72010000D02*
X129010000Y-73150000D01*
X127974540Y-70974540D02*
X129010000Y-72010000D01*
D28*
X129010000Y-75690000D02*
X129010000Y-75610000D01*
D22*
X148400000Y-102400000D02*
X146700000Y-102400000D01*
X146700000Y-102400000D02*
X145350000Y-101050000D01*
X145350000Y-101050000D02*
X145350000Y-98650000D01*
X139400000Y-117940000D02*
X145560000Y-117940000D01*
X145560000Y-117940000D02*
X149400000Y-114100000D01*
X149400000Y-114100000D02*
X149400000Y-103400000D01*
X149400000Y-103400000D02*
X148400000Y-102400000D01*
D21*
X129550000Y-59750000D02*
X129550000Y-57900000D01*
X131525460Y-61725460D02*
X129550000Y-59750000D01*
X131525460Y-63550000D02*
X131525460Y-61725460D01*
X131550000Y-73150000D02*
X131550000Y-63574540D01*
X131550000Y-63574540D02*
X131525460Y-63550000D01*
D27*
X131550000Y-63574540D02*
X131525460Y-63550000D01*
D28*
X131550000Y-63574540D02*
X131525460Y-63550000D01*
D21*
X126951780Y-56950000D02*
X126951780Y-58948220D01*
X126951780Y-58948220D02*
X124350000Y-61550000D01*
X126951780Y-56950000D02*
X126951780Y-52748220D01*
X126951780Y-52748220D02*
X127150000Y-52550000D01*
X126951780Y-52576320D02*
X126925460Y-52550000D01*
D28*
X133100000Y-114500000D02*
X133100000Y-114300000D01*
X133100000Y-114300000D02*
X130150000Y-111350000D01*
X130150000Y-111350000D02*
X130110000Y-111350000D01*
X133100000Y-114500000D02*
X133100000Y-116720000D01*
X133100000Y-116720000D02*
X134320000Y-117940000D01*
X123350000Y-111850000D02*
X123350000Y-111350000D01*
X136860000Y-117940000D02*
X136960000Y-117940000D01*
X136960000Y-117940000D02*
X138200000Y-116700000D01*
X138200000Y-116700000D02*
X138200000Y-114000000D01*
X138200000Y-114000000D02*
X139300000Y-112900000D01*
X139300000Y-112900000D02*
X143800000Y-112900000D01*
X143800000Y-112900000D02*
X145350000Y-111350000D01*
X136860000Y-117940000D02*
X137360000Y-117940000D01*
X139400000Y-115400000D02*
X142600000Y-115400000D01*
X142600000Y-115400000D02*
X145000000Y-113000000D01*
X145000000Y-113000000D02*
X146240000Y-113000000D01*
X146240000Y-113000000D02*
X147890000Y-111350000D01*
D24*
X142810000Y-98650000D02*
X142810000Y-95410000D01*
X142810000Y-95410000D02*
X142820000Y-95400000D01*
X142810000Y-90200000D02*
X142810000Y-95390000D01*
X142810000Y-95390000D02*
X142820000Y-95400000D01*
X135200000Y-95400000D02*
X135200000Y-98640000D01*
X135200000Y-98640000D02*
X135190000Y-98650000D01*
X135200000Y-95400000D02*
X135200000Y-90210000D01*
X135200000Y-90210000D02*
X135190000Y-90200000D01*
X137730000Y-98650000D02*
X137730000Y-95410000D01*
X137730000Y-95410000D02*
X137740000Y-95400000D01*
X137730000Y-90200000D02*
X137730000Y-95390000D01*
X137730000Y-95390000D02*
X137740000Y-95400000D01*
X140280000Y-95400000D02*
X140280000Y-98640000D01*
X140280000Y-98640000D02*
X140270000Y-98650000D01*
X140280000Y-95400000D02*
X140280000Y-90210000D01*
X140280000Y-90210000D02*
X140270000Y-90200000D01*
X120820000Y-95400000D02*
X120820000Y-90210000D01*
X120820000Y-90210000D02*
X120810000Y-90200000D01*
X120810000Y-98650000D02*
X120810000Y-95410000D01*
X120810000Y-95410000D02*
X120820000Y-95400000D01*
X113200000Y-95400000D02*
X113200000Y-98640000D01*
X113200000Y-98640000D02*
X113190000Y-98650000D01*
X113190000Y-90200000D02*
X113190000Y-95390000D01*
X113190000Y-95390000D02*
X113200000Y-95400000D01*
X115740000Y-95400000D02*
X115740000Y-90210000D01*
X115740000Y-90210000D02*
X115730000Y-90200000D01*
X115730000Y-98650000D02*
X115730000Y-95410000D01*
X115730000Y-95410000D02*
X115740000Y-95400000D01*
X118270000Y-98650000D02*
X118270000Y-95410000D01*
X118270000Y-95410000D02*
X118280000Y-95400000D01*
X118270000Y-90200000D02*
X118270000Y-95390000D01*
X118270000Y-95390000D02*
X118280000Y-95400000D01*
D28*
X132650000Y-111350000D02*
X132650000Y-110250000D01*
X132650000Y-110250000D02*
X134900000Y-108000000D01*
X134900000Y-108000000D02*
X139400000Y-108000000D01*
X147600000Y-108350000D02*
X147600000Y-108875000D01*
X147600000Y-108875000D02*
X146500000Y-109975000D01*
X135190000Y-111350000D02*
X135190000Y-111010000D01*
X135190000Y-111010000D02*
X136700000Y-109500000D01*
X136700000Y-109500000D02*
X140440000Y-109500000D01*
X140440000Y-109500000D02*
X141940000Y-108000000D01*
X110650000Y-111350000D02*
X110850000Y-111350000D01*
X110850000Y-111350000D02*
X114200000Y-108000000D01*
X114200000Y-108000000D02*
X117400000Y-108000000D01*
X125600000Y-108350000D02*
X125600000Y-109225000D01*
X125600000Y-109225000D02*
X124850000Y-109975000D01*
X113190000Y-111350000D02*
X113190000Y-111110000D01*
X113190000Y-111110000D02*
X114300000Y-110000000D01*
X114300000Y-110000000D02*
X117940000Y-110000000D01*
X117940000Y-110000000D02*
X119940000Y-108000000D01*
X162750000Y-44000000D02*
X162400000Y-44000000D01*
X162400000Y-44000000D02*
X160600000Y-45800000D01*
X160600000Y-45800000D02*
X160600000Y-45900000D01*
X159950000Y-49750760D02*
X159950000Y-49250000D01*
X159950000Y-49250000D02*
X160700000Y-48500000D01*
X149250000Y-49419860D02*
X152430140Y-49419860D01*
X152430140Y-49419860D02*
X152500000Y-49350000D01*
X189750000Y-46400000D02*
X189750000Y-48930140D01*
X189750000Y-48930140D02*
X190019860Y-49200000D01*
X175250000Y-81419860D02*
X178430140Y-81419860D01*
X178430140Y-81419860D02*
X178500000Y-81350000D01*
D21*
X150580000Y-42520000D02*
X150580000Y-41070000D01*
X150580000Y-41070000D02*
X154150000Y-37500000D01*
X150580000Y-42520000D02*
X150580000Y-41320000D01*
X149250000Y-46580140D02*
X149250000Y-46350000D01*
X149250000Y-46350000D02*
X150580000Y-45020000D01*
X150580000Y-45020000D02*
X150580000Y-42520000D01*
X176580000Y-74520000D02*
X176580000Y-73070000D01*
X176580000Y-73070000D02*
X180150000Y-69500000D01*
X176580000Y-74520000D02*
X176580000Y-73320000D01*
X175250000Y-78580140D02*
X175250000Y-78350000D01*
X175250000Y-78350000D02*
X176580000Y-77020000D01*
X176580000Y-77020000D02*
X176580000Y-74520000D01*
D24*
X145270000Y-50479920D02*
X142229920Y-50479920D01*
X142229920Y-50479920D02*
X142000000Y-50250000D01*
X145500000Y-33250000D02*
X144000000Y-33250000D01*
X144000000Y-33250000D02*
X142000000Y-35250000D01*
X142000000Y-35250000D02*
X142000000Y-50250000D01*
X142000000Y-50250000D02*
X142000000Y-54250000D01*
X142000000Y-54250000D02*
X143350000Y-55600000D01*
X143350000Y-55600000D02*
X144710000Y-55600000D01*
X144710000Y-55600000D02*
X147250000Y-55600000D01*
X152330000Y-55600000D02*
X152330000Y-53060000D01*
X149790000Y-55600000D02*
X152330000Y-55600000D01*
X147250000Y-55600000D02*
X149790000Y-55600000D01*
X144710000Y-55600000D02*
X147250000Y-55600000D01*
X145270000Y-46680080D02*
X145569920Y-46680080D01*
X145569920Y-46680080D02*
X148040000Y-44210000D01*
X148040000Y-44210000D02*
X148040000Y-42520000D01*
X148040000Y-42520000D02*
X148040000Y-39460000D01*
X148040000Y-39460000D02*
X150500000Y-37000000D01*
X150500000Y-37000000D02*
X150500000Y-33250000D01*
X171270000Y-78680080D02*
X171569920Y-78680080D01*
X171569920Y-78680080D02*
X174040000Y-76210000D01*
X174040000Y-76210000D02*
X174040000Y-74520000D01*
X174040000Y-74520000D02*
X174040000Y-71460000D01*
X174040000Y-71460000D02*
X176500000Y-69000000D01*
X176500000Y-69000000D02*
X176500000Y-65250000D01*
D28*
X159000000Y-49300000D02*
X159000000Y-49050000D01*
X159000000Y-50800000D02*
X159000000Y-49300000D01*
X159950000Y-51750000D02*
X159000000Y-50800000D01*
X159950000Y-53060000D02*
X159950000Y-51750000D01*
X156800000Y-46400000D02*
X156800000Y-47100000D01*
X156900000Y-46300000D02*
X156800000Y-46400000D01*
X154000000Y-48100000D02*
X152550000Y-46650000D01*
X156800000Y-47313602D02*
X156800000Y-47100000D01*
X158193199Y-48706801D02*
X156800000Y-47313602D01*
X158656801Y-48706801D02*
X158193199Y-48706801D01*
X159000000Y-49050000D02*
X158656801Y-48706801D01*
X152500000Y-46650000D02*
X152550000Y-46650000D01*
X159950000Y-53060000D02*
X159950000Y-52400000D01*
X159950000Y-52400000D02*
X162750000Y-49600000D01*
X159950000Y-55600000D02*
X159950000Y-53060000D01*
X162850000Y-42600000D02*
X162850000Y-41250000D01*
X161400000Y-42700000D02*
X162750000Y-42700000D01*
X162750000Y-42700000D02*
X162850000Y-42600000D01*
X157410000Y-53060000D02*
X157410000Y-51260000D01*
X157410000Y-51260000D02*
X155500000Y-49350000D01*
X186100000Y-35000000D02*
X189100000Y-35000000D01*
X185400000Y-35700000D02*
X186100000Y-35000000D01*
X184250000Y-46400000D02*
X187050000Y-46400000D01*
X184350000Y-49400000D02*
X184350000Y-46500000D01*
X184350000Y-46500000D02*
X184250000Y-46400000D01*
X183340000Y-52660000D02*
X183340000Y-50410000D01*
X183340000Y-50410000D02*
X184350000Y-49400000D01*
D21*
X152700000Y-40700000D02*
X154600000Y-38800000D01*
X159000000Y-46000000D02*
X158200000Y-45200000D01*
X158200000Y-45200000D02*
X153800000Y-45200000D01*
X153800000Y-45200000D02*
X152700000Y-44100000D01*
X152700000Y-44100000D02*
X152700000Y-40700000D01*
X159000000Y-47751780D02*
X159000000Y-46000000D01*
X155550000Y-38800000D02*
X156850000Y-37500000D01*
X154600000Y-38800000D02*
X155550000Y-38800000D01*
D28*
X162750000Y-46900000D02*
X159851780Y-46900000D01*
X159851780Y-46900000D02*
X159000000Y-47751780D01*
D21*
X178700000Y-72700000D02*
X180600000Y-70800000D01*
X185000000Y-78000000D02*
X184200000Y-77200000D01*
X184200000Y-77200000D02*
X179800000Y-77200000D01*
X179800000Y-77200000D02*
X178700000Y-76100000D01*
X178700000Y-76100000D02*
X178700000Y-72700000D01*
X185000000Y-79751780D02*
X185000000Y-78000000D01*
X181550000Y-70800000D02*
X182850000Y-69500000D01*
X180600000Y-70800000D02*
X181550000Y-70800000D01*
D28*
X188750000Y-78900000D02*
X185851780Y-78900000D01*
X185851780Y-78900000D02*
X185000000Y-79751780D01*
X154870000Y-53060000D02*
X156110000Y-54300000D01*
X158700000Y-44500000D02*
X159750000Y-44500000D01*
X158700000Y-53600000D02*
X158700000Y-51800000D01*
X158000000Y-54300000D02*
X158700000Y-53600000D01*
X156110000Y-54300000D02*
X158000000Y-54300000D01*
X159750000Y-44500000D02*
X160250000Y-44000000D01*
X159960000Y-38250000D02*
X159960000Y-31330000D01*
X159960000Y-31330000D02*
X159930000Y-31300000D01*
X159910000Y-31320000D02*
X159930000Y-31300000D01*
X160250000Y-44000000D02*
X160250000Y-41350000D01*
X160250000Y-41350000D02*
X160150000Y-41250000D01*
X160150000Y-41250000D02*
X160150000Y-38440000D01*
X160150000Y-38440000D02*
X159960000Y-38250000D01*
X156900000Y-49600000D02*
X157899240Y-49600000D01*
X157899240Y-49600000D02*
X158050000Y-49750760D01*
X158050000Y-49750760D02*
X158050000Y-49200000D01*
X158050000Y-49200000D02*
X155500000Y-46650000D01*
X154870000Y-55600000D02*
X154900000Y-55600000D01*
X185930000Y-52560000D02*
X184690000Y-53800000D01*
X184690000Y-53800000D02*
X182500000Y-53800000D01*
X182500000Y-53800000D02*
X182100000Y-53400000D01*
X186900000Y-37200000D02*
X189100000Y-37200000D01*
X185800000Y-38300000D02*
X186900000Y-37200000D01*
X185880000Y-52660000D02*
X185840000Y-52660000D01*
X182100000Y-53400000D02*
X182100000Y-49850000D01*
X182100000Y-49850000D02*
X181650000Y-49400000D01*
X186900000Y-36200000D02*
X187000000Y-36100000D01*
X187000000Y-36100000D02*
X189100000Y-36100000D01*
X186400000Y-33900000D02*
X189100000Y-33900000D01*
X186200000Y-34100000D02*
X186400000Y-33900000D01*
X186800000Y-42000000D02*
X185600000Y-40800000D01*
X185600000Y-40800000D02*
X185300000Y-40500000D01*
X185300000Y-40500000D02*
X184300000Y-39500000D01*
X184300000Y-39500000D02*
X184300000Y-33900000D01*
X184300000Y-33900000D02*
X186500000Y-31700000D01*
X186500000Y-31700000D02*
X189100000Y-31700000D01*
X188750000Y-76000000D02*
X188400000Y-76000000D01*
X188400000Y-76000000D02*
X186600000Y-77800000D01*
X186600000Y-77800000D02*
X186600000Y-77900000D01*
X185950000Y-81750760D02*
X185950000Y-81250000D01*
X185950000Y-81250000D02*
X186700000Y-80500000D01*
D24*
X171270000Y-82479920D02*
X168229920Y-82479920D01*
X168229920Y-82479920D02*
X168000000Y-82250000D01*
X171500000Y-65250000D02*
X170000000Y-65250000D01*
X170000000Y-65250000D02*
X168000000Y-67250000D01*
X168000000Y-67250000D02*
X168000000Y-82250000D01*
X168000000Y-82250000D02*
X168000000Y-86250000D01*
X168000000Y-86250000D02*
X169350000Y-87600000D01*
X169350000Y-87600000D02*
X170710000Y-87600000D01*
X170710000Y-87600000D02*
X173250000Y-87600000D01*
X178330000Y-87600000D02*
X178330000Y-85060000D01*
X175790000Y-87600000D02*
X178330000Y-87600000D01*
X173250000Y-87600000D02*
X175790000Y-87600000D01*
X170710000Y-87600000D02*
X173250000Y-87600000D01*
D28*
X185000000Y-81300000D02*
X185000000Y-81050000D01*
X185000000Y-82800000D02*
X185000000Y-81300000D01*
X185950000Y-83750000D02*
X185000000Y-82800000D01*
X185950000Y-85060000D02*
X185950000Y-83750000D01*
X182800000Y-78400000D02*
X182800000Y-79100000D01*
X182900000Y-78300000D02*
X182800000Y-78400000D01*
X180000000Y-80100000D02*
X178550000Y-78650000D01*
X182800000Y-79313602D02*
X182800000Y-79100000D01*
X184193199Y-80706801D02*
X182800000Y-79313602D01*
X184656801Y-80706801D02*
X184193199Y-80706801D01*
X185000000Y-81050000D02*
X184656801Y-80706801D01*
X178500000Y-78650000D02*
X178550000Y-78650000D01*
X185950000Y-85060000D02*
X185950000Y-84400000D01*
X185950000Y-84400000D02*
X188750000Y-81600000D01*
X185950000Y-87600000D02*
X185950000Y-85060000D01*
X188850000Y-74600000D02*
X188850000Y-73250000D01*
X187400000Y-74700000D02*
X188750000Y-74700000D01*
X188750000Y-74700000D02*
X188850000Y-74600000D01*
X183410000Y-85060000D02*
X183410000Y-83260000D01*
X183410000Y-83260000D02*
X181500000Y-81350000D01*
X180870000Y-85060000D02*
X182110000Y-86300000D01*
X184700000Y-76500000D02*
X185750000Y-76500000D01*
X184700000Y-85600000D02*
X184700000Y-83800000D01*
X184000000Y-86300000D02*
X184700000Y-85600000D01*
X182110000Y-86300000D02*
X184000000Y-86300000D01*
X185750000Y-76500000D02*
X186250000Y-76000000D01*
X185960000Y-70250000D02*
X185960000Y-63330000D01*
X185960000Y-63330000D02*
X185930000Y-63300000D01*
X185910000Y-63320000D02*
X185930000Y-63300000D01*
X186250000Y-76000000D02*
X186250000Y-73350000D01*
X186250000Y-73350000D02*
X186150000Y-73250000D01*
X186150000Y-73250000D02*
X186150000Y-70440000D01*
X186150000Y-70440000D02*
X185960000Y-70250000D01*
X182900000Y-81600000D02*
X183899240Y-81600000D01*
X183899240Y-81600000D02*
X184050000Y-81750760D01*
X184050000Y-81750760D02*
X184050000Y-81200000D01*
X184050000Y-81200000D02*
X181500000Y-78650000D01*
X180870000Y-87600000D02*
X180900000Y-87600000D01*
D21*
X158550000Y-108225000D02*
X159695000Y-108225000D01*
X159695000Y-108225000D02*
X160270000Y-108800000D01*
X176500000Y-105750000D02*
X176500000Y-104460000D01*
X176500000Y-104460000D02*
X176990000Y-103970000D01*
X164650000Y-108225000D02*
X165475000Y-108225000D01*
X165475000Y-108225000D02*
X166350000Y-107350000D01*
X166350000Y-107350000D02*
X166350000Y-106090000D01*
X172450000Y-105480000D02*
X172205000Y-105725000D01*
X172205000Y-105725000D02*
X170400000Y-105725000D01*
X176850000Y-108225000D02*
X176850000Y-106100000D01*
X176850000Y-106100000D02*
X176500000Y-105750000D01*
D28*
X172460000Y-115000000D02*
X170660000Y-113200000D01*
X162050000Y-112030000D02*
X162050000Y-110925000D01*
X162520000Y-112500000D02*
X162050000Y-112030000D01*
X169200000Y-112500000D02*
X162520000Y-112500000D01*
X169900000Y-113200000D02*
X169200000Y-112500000D01*
X170660000Y-113200000D02*
X169900000Y-113200000D01*
X168760000Y-113230000D02*
X168790000Y-113200000D01*
X157400000Y-113230000D02*
X168760000Y-113230000D01*
X155950000Y-111780000D02*
X157400000Y-113230000D01*
X155950000Y-110925000D02*
X155950000Y-111780000D01*
X174250000Y-110925000D02*
X174250000Y-114250000D01*
X174250000Y-114250000D02*
X175000000Y-115000000D01*
X171320000Y-112480000D02*
X171080000Y-112240000D01*
X171080000Y-112240000D02*
X169760000Y-112240000D01*
X169760000Y-112240000D02*
X168445000Y-110925000D01*
X168445000Y-110925000D02*
X168150000Y-110925000D01*
D21*
X165020000Y-99950000D02*
X165020000Y-101455000D01*
X165020000Y-101455000D02*
X163350000Y-103125000D01*
X175180000Y-99950000D02*
X175180000Y-102780000D01*
X175180000Y-102780000D02*
X175550000Y-103150000D01*
X170100000Y-99950000D02*
X170100000Y-102475000D01*
X170100000Y-102475000D02*
X169450000Y-103125000D01*
X159940000Y-99950000D02*
X159940000Y-100435000D01*
X159940000Y-100435000D02*
X157250000Y-103125000D01*
D28*
X162050000Y-108225000D02*
X162050000Y-106075000D01*
X162050000Y-106075000D02*
X162400000Y-105725000D01*
X164650000Y-110925000D02*
X164650000Y-110825000D01*
X164650000Y-110825000D02*
X162050000Y-108225000D01*
X174250000Y-108225000D02*
X174250000Y-106100000D01*
X174250000Y-106100000D02*
X174600000Y-105750000D01*
X176850000Y-110925000D02*
X176850000Y-110825000D01*
X176850000Y-110825000D02*
X174250000Y-108225000D01*
X168150000Y-108225000D02*
X168150000Y-106075000D01*
X168150000Y-106075000D02*
X168500000Y-105725000D01*
X170750000Y-110925000D02*
X170750000Y-110825000D01*
X170750000Y-110825000D02*
X168150000Y-108225000D01*
X155950000Y-106075000D02*
X156300000Y-105725000D01*
X155950000Y-108225000D02*
X155950000Y-106075000D01*
X158550000Y-110925000D02*
X158550000Y-110825000D01*
X158550000Y-110825000D02*
X155950000Y-108225000D01*
M02*
