%TF.GenerationSoftware,KiCad,Pcbnew,4.0.2-stable*%
%TF.CreationDate,2016-07-27T18:07:16+02:00*%
%TF.ProjectId,combined,636F6D62696E65642E6B696361645F70,rev?*%
%TF.FileFunction,Legend,Top*%
%FSLAX46Y46*%
G04 Gerber Fmt 4.6, Leading zero omitted, Abs format (unit mm)*
G04 Created by KiCad (PCBNEW 4.0.2-stable) date 27.07.2016 18:07:16*
%MOMM*%
G01*
G04 APERTURE LIST*
%ADD10C,0.100000*%
%ADD11C,0.010000*%
%ADD12C,0.300000*%
%ADD13C,0.150000*%
%ADD14C,0.075000*%
%ADD15C,0.002540*%
G04 APERTURE END LIST*
D10*
D11*
X112250000Y-119300000D02*
X112250000Y-109000000D01*
X109250000Y-106500000D02*
X109250000Y-119300000D01*
X112250000Y-124350000D02*
X112250000Y-142500000D01*
X109250000Y-141500000D02*
X109250000Y-124350000D01*
X110750000Y-122850000D02*
G75*
G03X109250000Y-124350000I0J-1500000D01*
G01*
X112250000Y-124350000D02*
G75*
G03X110750000Y-122850000I-1500000J0D01*
G01*
X110750000Y-120800000D02*
G75*
G03X112250000Y-119300000I0J1500000D01*
G01*
X109250000Y-119300000D02*
G75*
G03X110750000Y-120800000I1500000J0D01*
G01*
D12*
X129836857Y-139439428D02*
X129836857Y-138939428D01*
X130622571Y-138725142D02*
X130622571Y-139439428D01*
X129122571Y-139439428D01*
X129122571Y-138725142D01*
X129122571Y-138225142D02*
X130622571Y-137225142D01*
X129122571Y-137225142D02*
X130622571Y-138225142D01*
X130622571Y-136653714D02*
X129122571Y-136653714D01*
X129122571Y-136082286D01*
X129194000Y-135939428D01*
X129265429Y-135868000D01*
X129408286Y-135796571D01*
X129622571Y-135796571D01*
X129765429Y-135868000D01*
X129836857Y-135939428D01*
X129908286Y-136082286D01*
X129908286Y-136653714D01*
X129265429Y-134082286D02*
X129194000Y-134010857D01*
X129122571Y-133868000D01*
X129122571Y-133510857D01*
X129194000Y-133368000D01*
X129265429Y-133296571D01*
X129408286Y-133225143D01*
X129551143Y-133225143D01*
X129765429Y-133296571D01*
X130622571Y-134153714D01*
X130622571Y-133225143D01*
X129328857Y-117595428D02*
X129328857Y-117095428D01*
X130114571Y-116881142D02*
X130114571Y-117595428D01*
X128614571Y-117595428D01*
X128614571Y-116881142D01*
X128614571Y-116381142D02*
X130114571Y-115381142D01*
X128614571Y-115381142D02*
X130114571Y-116381142D01*
X130114571Y-114809714D02*
X128614571Y-114809714D01*
X128614571Y-114238286D01*
X128686000Y-114095428D01*
X128757429Y-114024000D01*
X128900286Y-113952571D01*
X129114571Y-113952571D01*
X129257429Y-114024000D01*
X129328857Y-114095428D01*
X129400286Y-114238286D01*
X129400286Y-114809714D01*
X130114571Y-111381143D02*
X130114571Y-112238286D01*
X130114571Y-111809714D02*
X128614571Y-111809714D01*
X128828857Y-111952571D01*
X128971714Y-112095429D01*
X129043143Y-112238286D01*
D13*
X141000000Y-142500000D02*
X141000000Y-109000000D01*
X117250000Y-147500000D02*
X136000000Y-147500000D01*
X136000000Y-104000000D02*
X117250000Y-104000000D01*
X112250000Y-142500000D02*
G75*
G03X117250000Y-147500000I5000000J0D01*
G01*
X136000000Y-147500000D02*
G75*
G03X141000000Y-142500000I0J5000000D01*
G01*
X141000000Y-109000000D02*
G75*
G03X136000000Y-104000000I-5000000J0D01*
G01*
X117250000Y-104000000D02*
G75*
G03X112250000Y-109000000I0J-5000000D01*
G01*
D12*
X91958571Y-131622570D02*
X91244286Y-132122570D01*
X91958571Y-132479713D02*
X90458571Y-132479713D01*
X90458571Y-131908285D01*
X90530000Y-131765427D01*
X90601429Y-131693999D01*
X90744286Y-131622570D01*
X90958571Y-131622570D01*
X91101429Y-131693999D01*
X91172857Y-131765427D01*
X91244286Y-131908285D01*
X91244286Y-132479713D01*
X91887143Y-130408285D02*
X91958571Y-130551142D01*
X91958571Y-130836856D01*
X91887143Y-130979713D01*
X91744286Y-131051142D01*
X91172857Y-131051142D01*
X91030000Y-130979713D01*
X90958571Y-130836856D01*
X90958571Y-130551142D01*
X91030000Y-130408285D01*
X91172857Y-130336856D01*
X91315714Y-130336856D01*
X91458571Y-131051142D01*
X91887143Y-129765428D02*
X91958571Y-129551142D01*
X91958571Y-129193999D01*
X91887143Y-129051142D01*
X91815714Y-128979713D01*
X91672857Y-128908285D01*
X91530000Y-128908285D01*
X91387143Y-128979713D01*
X91315714Y-129051142D01*
X91244286Y-129193999D01*
X91172857Y-129479713D01*
X91101429Y-129622571D01*
X91030000Y-129693999D01*
X90887143Y-129765428D01*
X90744286Y-129765428D01*
X90601429Y-129693999D01*
X90530000Y-129622571D01*
X90458571Y-129479713D01*
X90458571Y-129122571D01*
X90530000Y-128908285D01*
X90458571Y-128479714D02*
X90458571Y-127622571D01*
X91958571Y-128051142D02*
X90458571Y-128051142D01*
X90458571Y-127265428D02*
X90458571Y-126336857D01*
X91030000Y-126836857D01*
X91030000Y-126622571D01*
X91101429Y-126479714D01*
X91172857Y-126408285D01*
X91315714Y-126336857D01*
X91672857Y-126336857D01*
X91815714Y-126408285D01*
X91887143Y-126479714D01*
X91958571Y-126622571D01*
X91958571Y-127051143D01*
X91887143Y-127194000D01*
X91815714Y-127265428D01*
X90601429Y-125765429D02*
X90530000Y-125694000D01*
X90458571Y-125551143D01*
X90458571Y-125194000D01*
X90530000Y-125051143D01*
X90601429Y-124979714D01*
X90744286Y-124908286D01*
X90887143Y-124908286D01*
X91101429Y-124979714D01*
X91958571Y-125836857D01*
X91958571Y-124908286D01*
X91887143Y-123194001D02*
X91958571Y-122979715D01*
X91958571Y-122622572D01*
X91887143Y-122479715D01*
X91815714Y-122408286D01*
X91672857Y-122336858D01*
X91530000Y-122336858D01*
X91387143Y-122408286D01*
X91315714Y-122479715D01*
X91244286Y-122622572D01*
X91172857Y-122908286D01*
X91101429Y-123051144D01*
X91030000Y-123122572D01*
X90887143Y-123194001D01*
X90744286Y-123194001D01*
X90601429Y-123122572D01*
X90530000Y-123051144D01*
X90458571Y-122908286D01*
X90458571Y-122551144D01*
X90530000Y-122336858D01*
X91958571Y-121694001D02*
X90458571Y-121694001D01*
X90458571Y-121336858D01*
X90530000Y-121122573D01*
X90672857Y-120979715D01*
X90815714Y-120908287D01*
X91101429Y-120836858D01*
X91315714Y-120836858D01*
X91601429Y-120908287D01*
X91744286Y-120979715D01*
X91887143Y-121122573D01*
X91958571Y-121336858D01*
X91958571Y-121694001D01*
X94215714Y-132836856D02*
X94287143Y-132908285D01*
X94358571Y-133122571D01*
X94358571Y-133265428D01*
X94287143Y-133479713D01*
X94144286Y-133622571D01*
X94001429Y-133693999D01*
X93715714Y-133765428D01*
X93501429Y-133765428D01*
X93215714Y-133693999D01*
X93072857Y-133622571D01*
X92930000Y-133479713D01*
X92858571Y-133265428D01*
X92858571Y-133122571D01*
X92930000Y-132908285D01*
X93001429Y-132836856D01*
X94358571Y-131551142D02*
X93572857Y-131551142D01*
X93430000Y-131622571D01*
X93358571Y-131765428D01*
X93358571Y-132051142D01*
X93430000Y-132193999D01*
X94287143Y-131551142D02*
X94358571Y-131693999D01*
X94358571Y-132051142D01*
X94287143Y-132193999D01*
X94144286Y-132265428D01*
X94001429Y-132265428D01*
X93858571Y-132193999D01*
X93787143Y-132051142D01*
X93787143Y-131693999D01*
X93715714Y-131551142D01*
X94358571Y-130836856D02*
X93358571Y-130836856D01*
X93644286Y-130836856D02*
X93501429Y-130765428D01*
X93430000Y-130693999D01*
X93358571Y-130551142D01*
X93358571Y-130408285D01*
X94358571Y-129265428D02*
X92858571Y-129265428D01*
X94287143Y-129265428D02*
X94358571Y-129408285D01*
X94358571Y-129693999D01*
X94287143Y-129836857D01*
X94215714Y-129908285D01*
X94072857Y-129979714D01*
X93644286Y-129979714D01*
X93501429Y-129908285D01*
X93430000Y-129836857D01*
X93358571Y-129693999D01*
X93358571Y-129408285D01*
X93430000Y-129265428D01*
X93930000Y-127479714D02*
X93930000Y-126765428D01*
X94358571Y-127622571D02*
X92858571Y-127122571D01*
X94358571Y-126622571D01*
X94358571Y-125479714D02*
X92858571Y-125479714D01*
X94287143Y-125479714D02*
X94358571Y-125622571D01*
X94358571Y-125908285D01*
X94287143Y-126051143D01*
X94215714Y-126122571D01*
X94072857Y-126194000D01*
X93644286Y-126194000D01*
X93501429Y-126122571D01*
X93430000Y-126051143D01*
X93358571Y-125908285D01*
X93358571Y-125622571D01*
X93430000Y-125479714D01*
X94358571Y-124122571D02*
X93572857Y-124122571D01*
X93430000Y-124194000D01*
X93358571Y-124336857D01*
X93358571Y-124622571D01*
X93430000Y-124765428D01*
X94287143Y-124122571D02*
X94358571Y-124265428D01*
X94358571Y-124622571D01*
X94287143Y-124765428D01*
X94144286Y-124836857D01*
X94001429Y-124836857D01*
X93858571Y-124765428D01*
X93787143Y-124622571D01*
X93787143Y-124265428D01*
X93715714Y-124122571D01*
X93358571Y-123408285D02*
X94858571Y-123408285D01*
X93430000Y-123408285D02*
X93358571Y-123265428D01*
X93358571Y-122979714D01*
X93430000Y-122836857D01*
X93501429Y-122765428D01*
X93644286Y-122693999D01*
X94072857Y-122693999D01*
X94215714Y-122765428D01*
X94287143Y-122836857D01*
X94358571Y-122979714D01*
X94358571Y-123265428D01*
X94287143Y-123408285D01*
X93358571Y-122265428D02*
X93358571Y-121693999D01*
X92858571Y-122051142D02*
X94144286Y-122051142D01*
X94287143Y-121979714D01*
X94358571Y-121836856D01*
X94358571Y-121693999D01*
X94287143Y-120622571D02*
X94358571Y-120765428D01*
X94358571Y-121051142D01*
X94287143Y-121193999D01*
X94144286Y-121265428D01*
X93572857Y-121265428D01*
X93430000Y-121193999D01*
X93358571Y-121051142D01*
X93358571Y-120765428D01*
X93430000Y-120622571D01*
X93572857Y-120551142D01*
X93715714Y-120551142D01*
X93858571Y-121265428D01*
X94358571Y-119908285D02*
X93358571Y-119908285D01*
X93644286Y-119908285D02*
X93501429Y-119836857D01*
X93430000Y-119765428D01*
X93358571Y-119622571D01*
X93358571Y-119479714D01*
D11*
X78750000Y-104000000D02*
X106750000Y-104000000D01*
X76250000Y-141500000D02*
X76250000Y-106500000D01*
X106750000Y-144000000D02*
X78750000Y-144000000D01*
X76250000Y-141500000D02*
G75*
G03X78750000Y-144000000I2500000J0D01*
G01*
X106750000Y-144000000D02*
G75*
G03X109250000Y-141500000I0J2500000D01*
G01*
X109250000Y-106500000D02*
G75*
G03X106750000Y-104000000I-2500000J0D01*
G01*
X78750000Y-104000000D02*
G75*
G03X76250000Y-106500000I0J-2500000D01*
G01*
D13*
X140280000Y-104670000D02*
X140280000Y-124990000D01*
X139730000Y-105210000D02*
X139730000Y-124430000D01*
X131180000Y-104670000D02*
X131180000Y-124990000D01*
X131730000Y-105210000D02*
X131730000Y-112580000D01*
X131730000Y-117080000D02*
X131730000Y-124430000D01*
X131730000Y-112580000D02*
X131180000Y-112580000D01*
X131730000Y-117080000D02*
X131180000Y-117080000D01*
X140280000Y-104670000D02*
X131180000Y-104670000D01*
X139730000Y-105210000D02*
X131730000Y-105210000D01*
X140280000Y-124990000D02*
X131180000Y-124990000D01*
X139730000Y-124430000D02*
X131730000Y-124430000D01*
X140280000Y-104670000D02*
X139730000Y-105210000D01*
X140280000Y-124990000D02*
X139730000Y-124430000D01*
X131180000Y-104670000D02*
X131730000Y-105210000D01*
X131180000Y-124990000D02*
X131730000Y-124430000D01*
X117201120Y-123200060D02*
X117201120Y-128401980D01*
X119598880Y-128401980D02*
X119598880Y-123200060D01*
X120698700Y-121201080D02*
X119598880Y-121201080D01*
X120198320Y-120601640D02*
X120198320Y-121800520D01*
X119598880Y-121805600D02*
X117201120Y-121805600D01*
X140380000Y-126270000D02*
X140380000Y-146590000D01*
X139830000Y-126810000D02*
X139830000Y-146030000D01*
X131280000Y-126270000D02*
X131280000Y-146590000D01*
X131830000Y-126810000D02*
X131830000Y-134180000D01*
X131830000Y-138680000D02*
X131830000Y-146030000D01*
X131830000Y-134180000D02*
X131280000Y-134180000D01*
X131830000Y-138680000D02*
X131280000Y-138680000D01*
X140380000Y-126270000D02*
X131280000Y-126270000D01*
X139830000Y-126810000D02*
X131830000Y-126810000D01*
X140380000Y-146590000D02*
X131280000Y-146590000D01*
X139830000Y-146030000D02*
X131830000Y-146030000D01*
X140380000Y-126270000D02*
X139830000Y-126810000D01*
X140380000Y-146590000D02*
X139830000Y-146030000D01*
X131280000Y-126270000D02*
X131830000Y-126810000D01*
X131280000Y-146590000D02*
X131830000Y-146030000D01*
X124949200Y-134250180D02*
X125650240Y-134250180D01*
X125650240Y-134250180D02*
X125650240Y-134499100D01*
X125650240Y-137049160D02*
X125650240Y-137249820D01*
X125650240Y-137249820D02*
X124949200Y-137249820D01*
X124949200Y-116250180D02*
X125650240Y-116250180D01*
X125650240Y-116250180D02*
X125650240Y-116499100D01*
X125650240Y-119049160D02*
X125650240Y-119249820D01*
X125650240Y-119249820D02*
X124949200Y-119249820D01*
X124949200Y-125250180D02*
X125650240Y-125250180D01*
X125650240Y-125250180D02*
X125650240Y-125499100D01*
X125650240Y-128049160D02*
X125650240Y-128249820D01*
X125650240Y-128249820D02*
X124949200Y-128249820D01*
X124949200Y-107250180D02*
X125650240Y-107250180D01*
X125650240Y-107250180D02*
X125650240Y-107499100D01*
X125650240Y-110049160D02*
X125650240Y-110249820D01*
X125650240Y-110249820D02*
X124949200Y-110249820D01*
X124400000Y-131875000D02*
X125600000Y-131875000D01*
X125600000Y-133625000D02*
X124400000Y-133625000D01*
X124400000Y-113875000D02*
X125600000Y-113875000D01*
X125600000Y-115625000D02*
X124400000Y-115625000D01*
X124400000Y-137875000D02*
X125600000Y-137875000D01*
X125600000Y-139625000D02*
X124400000Y-139625000D01*
X124400000Y-119875000D02*
X125600000Y-119875000D01*
X125600000Y-121625000D02*
X124400000Y-121625000D01*
X124400000Y-122875000D02*
X125600000Y-122875000D01*
X125600000Y-124625000D02*
X124400000Y-124625000D01*
X124400000Y-104875000D02*
X125600000Y-104875000D01*
X125600000Y-106625000D02*
X124400000Y-106625000D01*
X124400000Y-128875000D02*
X125600000Y-128875000D01*
X125600000Y-130625000D02*
X124400000Y-130625000D01*
X124400000Y-110875000D02*
X125600000Y-110875000D01*
X125600000Y-112625000D02*
X124400000Y-112625000D01*
X114550000Y-123800000D02*
G75*
G03X114550000Y-123800000I-100000J0D01*
G01*
X115000000Y-124050000D02*
X114500000Y-124050000D01*
X115000000Y-126950000D02*
X115000000Y-124050000D01*
X114500000Y-126950000D02*
X115000000Y-126950000D01*
X114500000Y-124050000D02*
X114500000Y-126950000D01*
X112690000Y-142870000D02*
X112690000Y-130170000D01*
X112690000Y-130170000D02*
X117770000Y-130170000D01*
X117770000Y-130170000D02*
X117770000Y-140330000D01*
X112690000Y-142870000D02*
X115230000Y-142870000D01*
X116500000Y-143150000D02*
X118050000Y-143150000D01*
X115230000Y-142870000D02*
X115230000Y-140330000D01*
X115230000Y-140330000D02*
X117770000Y-140330000D01*
X118050000Y-143150000D02*
X118050000Y-141600000D01*
X112690000Y-121270000D02*
X112690000Y-108570000D01*
X112690000Y-108570000D02*
X117770000Y-108570000D01*
X117770000Y-108570000D02*
X117770000Y-118730000D01*
X112690000Y-121270000D02*
X115230000Y-121270000D01*
X116500000Y-121550000D02*
X118050000Y-121550000D01*
X115230000Y-121270000D02*
X115230000Y-118730000D01*
X115230000Y-118730000D02*
X117770000Y-118730000D01*
X118050000Y-121550000D02*
X118050000Y-120000000D01*
X80698880Y-110600960D02*
X80698880Y-105399040D01*
X78301120Y-105399040D02*
X78301120Y-110600960D01*
X77201300Y-112599940D02*
X78301120Y-112599940D01*
X77701680Y-113199380D02*
X77701680Y-112000500D01*
X78301120Y-111995420D02*
X80698880Y-111995420D01*
X106500000Y-135150000D02*
X106500000Y-135650000D01*
X106500000Y-132650000D02*
X106500000Y-133150000D01*
X106500000Y-125150000D02*
X106500000Y-125650000D01*
X106500000Y-122650000D02*
X106500000Y-123150000D01*
X106500000Y-120250000D02*
X106500000Y-120650000D01*
X106500000Y-115150000D02*
X106500000Y-116550000D01*
X85900000Y-113250000D02*
X106500000Y-113250000D01*
X87100000Y-142150000D02*
X106500000Y-142150000D01*
X106500000Y-142150000D02*
X106500000Y-137650000D01*
X76700000Y-142150000D02*
X76700000Y-113250000D01*
X76700000Y-113250000D02*
X82700000Y-113250000D01*
X76700000Y-142150000D02*
X83900000Y-142150000D01*
X88950000Y-104600000D02*
X88950000Y-108200000D01*
X91050000Y-104600000D02*
X91050000Y-108200000D01*
X90300000Y-106650000D02*
X89700000Y-106650000D01*
X89700000Y-106650000D02*
X90000000Y-106350000D01*
X90000000Y-106350000D02*
X90200000Y-106550000D01*
X90200000Y-106550000D02*
X89950000Y-106550000D01*
X89950000Y-106550000D02*
X90000000Y-106500000D01*
X90500000Y-106250000D02*
X89500000Y-106250000D01*
X90000000Y-106750000D02*
X90000000Y-107250000D01*
X90000000Y-106250000D02*
X90500000Y-106750000D01*
X90500000Y-106750000D02*
X89500000Y-106750000D01*
X89500000Y-106750000D02*
X90000000Y-106250000D01*
X92230000Y-104440000D02*
X104930000Y-104440000D01*
X104930000Y-104440000D02*
X104930000Y-109520000D01*
X104930000Y-109520000D02*
X94770000Y-109520000D01*
X92230000Y-104440000D02*
X92230000Y-106980000D01*
X91950000Y-108250000D02*
X91950000Y-109800000D01*
X92230000Y-106980000D02*
X94770000Y-106980000D01*
X94770000Y-106980000D02*
X94770000Y-109520000D01*
X91950000Y-109800000D02*
X93500000Y-109800000D01*
X86125000Y-107350000D02*
X86125000Y-106150000D01*
X87875000Y-106150000D02*
X87875000Y-107350000D01*
X85300000Y-107700000D02*
G75*
G03X85300000Y-107700000I-100000J0D01*
G01*
X84950000Y-108250000D02*
X84950000Y-107750000D01*
X82050000Y-108250000D02*
X84950000Y-108250000D01*
X82050000Y-107750000D02*
X82050000Y-108250000D01*
X84950000Y-107750000D02*
X82050000Y-107750000D01*
D14*
X87988000Y-124534000D02*
X88448000Y-124534000D01*
X87988000Y-124444000D02*
X87988000Y-124394000D01*
X88018000Y-124494000D02*
X87988000Y-124444000D01*
X88038000Y-124514000D02*
X88018000Y-124494000D01*
X88108000Y-124534000D02*
X88038000Y-124514000D01*
X88448000Y-124094000D02*
X88418000Y-124044000D01*
X88448000Y-124194000D02*
X88448000Y-124094000D01*
X88418000Y-124234000D02*
X88448000Y-124194000D01*
X88348000Y-124254000D02*
X88418000Y-124234000D01*
X88078000Y-124254000D02*
X88348000Y-124254000D01*
X88018000Y-124224000D02*
X88078000Y-124254000D01*
X87988000Y-124184000D02*
X88018000Y-124224000D01*
X87988000Y-124084000D02*
X87988000Y-124184000D01*
X88028000Y-124044000D02*
X87988000Y-124084000D01*
X88098000Y-124024000D02*
X88028000Y-124044000D01*
X88218000Y-124024000D02*
X88098000Y-124024000D01*
X88218000Y-124024000D02*
X88218000Y-124254000D01*
X88078000Y-124774000D02*
X88448000Y-124774000D01*
X88018000Y-124804000D02*
X88078000Y-124774000D01*
X87988000Y-124844000D02*
X88018000Y-124804000D01*
X87988000Y-124944000D02*
X87988000Y-124844000D01*
X88018000Y-124994000D02*
X87988000Y-124944000D01*
X88178000Y-124934000D02*
X88208000Y-124984000D01*
X88178000Y-124814000D02*
X88178000Y-124934000D01*
X88148000Y-124774000D02*
X88178000Y-124814000D01*
X88448000Y-124824000D02*
X88408000Y-124774000D01*
X88448000Y-124944000D02*
X88448000Y-124824000D01*
X88408000Y-124994000D02*
X88448000Y-124944000D01*
X88348000Y-125014000D02*
X88408000Y-124994000D01*
X88278000Y-125014000D02*
X88348000Y-125014000D01*
X88208000Y-124984000D02*
X88278000Y-125014000D01*
X87988000Y-125564000D02*
X88448000Y-125464000D01*
X88448000Y-125464000D02*
X88108000Y-125374000D01*
X88108000Y-125374000D02*
X88448000Y-125274000D01*
X88448000Y-125274000D02*
X87988000Y-125174000D01*
X88418000Y-125754000D02*
X88448000Y-125794000D01*
X88448000Y-125794000D02*
X88448000Y-125904000D01*
X88448000Y-125904000D02*
X88418000Y-125944000D01*
X88418000Y-125944000D02*
X88388000Y-125964000D01*
X88388000Y-125964000D02*
X88318000Y-125994000D01*
X88318000Y-125994000D02*
X88118000Y-125994000D01*
X88118000Y-125994000D02*
X88048000Y-125964000D01*
X88048000Y-125964000D02*
X88018000Y-125944000D01*
X88018000Y-125944000D02*
X87978000Y-125884000D01*
X87978000Y-125884000D02*
X87978000Y-125814000D01*
X87978000Y-125814000D02*
X88018000Y-125754000D01*
X87748000Y-125754000D02*
X88448000Y-125754000D01*
X88108000Y-126274000D02*
X88038000Y-126254000D01*
X88038000Y-126254000D02*
X88018000Y-126234000D01*
X88018000Y-126234000D02*
X87988000Y-126184000D01*
X87988000Y-126184000D02*
X87988000Y-126134000D01*
X87988000Y-126274000D02*
X88448000Y-126274000D01*
X88208000Y-126724000D02*
X88278000Y-126754000D01*
X88278000Y-126754000D02*
X88348000Y-126754000D01*
X88348000Y-126754000D02*
X88408000Y-126734000D01*
X88408000Y-126734000D02*
X88448000Y-126684000D01*
X88448000Y-126684000D02*
X88448000Y-126564000D01*
X88448000Y-126564000D02*
X88408000Y-126514000D01*
X88148000Y-126514000D02*
X88178000Y-126554000D01*
X88178000Y-126554000D02*
X88178000Y-126674000D01*
X88178000Y-126674000D02*
X88208000Y-126724000D01*
X88018000Y-126734000D02*
X87988000Y-126684000D01*
X87988000Y-126684000D02*
X87988000Y-126584000D01*
X87988000Y-126584000D02*
X88018000Y-126544000D01*
X88018000Y-126544000D02*
X88078000Y-126514000D01*
X88078000Y-126514000D02*
X88448000Y-126514000D01*
X88058000Y-127184000D02*
X88018000Y-127164000D01*
X88018000Y-127164000D02*
X87988000Y-127114000D01*
X87988000Y-127114000D02*
X87988000Y-127034000D01*
X87988000Y-127034000D02*
X88018000Y-126994000D01*
X88018000Y-126994000D02*
X88078000Y-126974000D01*
X88078000Y-126974000D02*
X88448000Y-126974000D01*
X87748000Y-127184000D02*
X88448000Y-127184000D01*
X88218000Y-128234000D02*
X88218000Y-128464000D01*
X88048000Y-128014000D02*
X88018000Y-127994000D01*
X88018000Y-127994000D02*
X87988000Y-127954000D01*
X87988000Y-127954000D02*
X87988000Y-127864000D01*
X87988000Y-127864000D02*
X88018000Y-127824000D01*
X88018000Y-127824000D02*
X88078000Y-127804000D01*
X88078000Y-127804000D02*
X88448000Y-127804000D01*
X87988000Y-128014000D02*
X88448000Y-128014000D01*
X88218000Y-128234000D02*
X88098000Y-128234000D01*
X88098000Y-128234000D02*
X88028000Y-128254000D01*
X88028000Y-128254000D02*
X87988000Y-128294000D01*
X87988000Y-128294000D02*
X87988000Y-128394000D01*
X87988000Y-128394000D02*
X88018000Y-128434000D01*
X88018000Y-128434000D02*
X88078000Y-128464000D01*
X88078000Y-128464000D02*
X88348000Y-128464000D01*
X88348000Y-128464000D02*
X88418000Y-128444000D01*
X88418000Y-128444000D02*
X88448000Y-128404000D01*
X88448000Y-128404000D02*
X88448000Y-128304000D01*
X88448000Y-128304000D02*
X88418000Y-128254000D01*
X88018000Y-128894000D02*
X87988000Y-128854000D01*
X87988000Y-128854000D02*
X87988000Y-128754000D01*
X87988000Y-128754000D02*
X88018000Y-128714000D01*
X88018000Y-128714000D02*
X88048000Y-128684000D01*
X88048000Y-128684000D02*
X88108000Y-128664000D01*
X88108000Y-128664000D02*
X88328000Y-128664000D01*
X88328000Y-128664000D02*
X88388000Y-128684000D01*
X88388000Y-128684000D02*
X88418000Y-128704000D01*
X88418000Y-128704000D02*
X88448000Y-128744000D01*
X88448000Y-128744000D02*
X88448000Y-128844000D01*
X88448000Y-128844000D02*
X88418000Y-128894000D01*
X88688000Y-128894000D02*
X87988000Y-128894000D01*
X87988000Y-129204000D02*
X87988000Y-129284000D01*
X87988000Y-129284000D02*
X88018000Y-129324000D01*
X88018000Y-129324000D02*
X88048000Y-129344000D01*
X88048000Y-129344000D02*
X88118000Y-129374000D01*
X88448000Y-129284000D02*
X88448000Y-129204000D01*
X88448000Y-129204000D02*
X88418000Y-129154000D01*
X88418000Y-129154000D02*
X88388000Y-129134000D01*
X88388000Y-129134000D02*
X88318000Y-129114000D01*
X88318000Y-129114000D02*
X88118000Y-129114000D01*
X88118000Y-129114000D02*
X88058000Y-129134000D01*
X88058000Y-129134000D02*
X88028000Y-129154000D01*
X88028000Y-129154000D02*
X87988000Y-129204000D01*
X88118000Y-129374000D02*
X88318000Y-129374000D01*
X88318000Y-129374000D02*
X88378000Y-129354000D01*
X88378000Y-129354000D02*
X88408000Y-129334000D01*
X88408000Y-129334000D02*
X88448000Y-129284000D01*
D15*
G36*
X87613360Y-128207840D02*
X87598120Y-128182440D01*
X87562560Y-128124020D01*
X87506680Y-128040200D01*
X87440640Y-127941140D01*
X87374600Y-127842080D01*
X87321260Y-127760800D01*
X87283160Y-127704920D01*
X87270460Y-127679520D01*
X87275540Y-127666820D01*
X87298400Y-127621100D01*
X87333960Y-127552520D01*
X87354280Y-127511880D01*
X87379680Y-127450920D01*
X87387300Y-127417900D01*
X87377140Y-127412820D01*
X87328880Y-127389960D01*
X87247600Y-127354400D01*
X87138380Y-127308680D01*
X87011380Y-127252800D01*
X86876760Y-127196920D01*
X86737060Y-127138500D01*
X86602440Y-127082620D01*
X86483060Y-127034360D01*
X86386540Y-126993720D01*
X86317960Y-126968320D01*
X86290020Y-126958160D01*
X86282400Y-126960700D01*
X86251920Y-126993720D01*
X86211280Y-127047060D01*
X86114760Y-127166440D01*
X85969980Y-127283280D01*
X85804880Y-127354400D01*
X85619460Y-127377260D01*
X85449280Y-127356940D01*
X85286720Y-127290900D01*
X85139400Y-127176600D01*
X85030180Y-127036900D01*
X84961600Y-126874340D01*
X84938740Y-126694000D01*
X84959060Y-126521280D01*
X85025100Y-126353640D01*
X85136860Y-126206320D01*
X85207980Y-126142820D01*
X85357840Y-126056460D01*
X85515320Y-126008200D01*
X85555960Y-126003120D01*
X85731220Y-126010740D01*
X85901400Y-126061540D01*
X86051260Y-126155520D01*
X86175720Y-126285060D01*
X86185880Y-126300300D01*
X86231600Y-126358720D01*
X86262080Y-126399360D01*
X86287480Y-126429840D01*
X86825960Y-126206320D01*
X86909780Y-126170760D01*
X87057100Y-126109800D01*
X87184100Y-126056460D01*
X87285700Y-126013280D01*
X87351740Y-125982800D01*
X87379680Y-125970100D01*
X87382220Y-125970100D01*
X87384760Y-125949780D01*
X87369520Y-125909140D01*
X87333960Y-125832940D01*
X87308560Y-125784680D01*
X87280620Y-125726260D01*
X87270460Y-125700860D01*
X87283160Y-125678000D01*
X87318720Y-125624660D01*
X87372060Y-125543380D01*
X87435560Y-125446860D01*
X87499060Y-125355420D01*
X87554940Y-125271600D01*
X87593040Y-125210640D01*
X87610820Y-125180160D01*
X87610820Y-125175080D01*
X87595580Y-125149680D01*
X87554940Y-125101420D01*
X87486360Y-125027760D01*
X87382220Y-124923620D01*
X87366980Y-124908380D01*
X87280620Y-124822020D01*
X87206960Y-124753440D01*
X87156160Y-124707720D01*
X87133300Y-124689940D01*
X87133300Y-124689940D01*
X87102820Y-124705180D01*
X87041860Y-124743280D01*
X86955500Y-124799160D01*
X86856440Y-124867740D01*
X86597360Y-125045540D01*
X86353520Y-124949020D01*
X86277320Y-124918540D01*
X86188420Y-124880440D01*
X86122380Y-124852500D01*
X86094440Y-124837260D01*
X86084280Y-124811860D01*
X86069040Y-124743280D01*
X86048720Y-124646760D01*
X86028400Y-124532460D01*
X86008080Y-124420700D01*
X85987760Y-124321640D01*
X85975060Y-124250520D01*
X85967440Y-124217500D01*
X85962360Y-124209880D01*
X85947120Y-124202260D01*
X85914100Y-124199720D01*
X85853140Y-124197180D01*
X85759160Y-124194640D01*
X85619460Y-124194640D01*
X85604220Y-124194640D01*
X85474680Y-124197180D01*
X85368000Y-124199720D01*
X85301960Y-124202260D01*
X85274020Y-124207340D01*
X85274020Y-124207340D01*
X85266400Y-124237820D01*
X85251160Y-124308940D01*
X85233380Y-124408000D01*
X85210520Y-124527380D01*
X85207980Y-124535000D01*
X85185120Y-124651840D01*
X85164800Y-124750900D01*
X85149560Y-124822020D01*
X85139400Y-124849960D01*
X85131780Y-124857580D01*
X85086060Y-124880440D01*
X85012400Y-124913460D01*
X84923500Y-124954100D01*
X84829520Y-124992200D01*
X84745700Y-125025220D01*
X84684740Y-125048080D01*
X84656800Y-125055700D01*
X84654260Y-125053160D01*
X84626320Y-125035380D01*
X84565360Y-124994740D01*
X84481540Y-124938860D01*
X84379940Y-124870280D01*
X84372320Y-124865200D01*
X84273260Y-124796620D01*
X84186900Y-124740740D01*
X84128480Y-124705180D01*
X84100540Y-124689940D01*
X84098000Y-124689940D01*
X84067520Y-124712800D01*
X84011640Y-124763600D01*
X83935440Y-124837260D01*
X83846540Y-124923620D01*
X83821140Y-124951560D01*
X83724620Y-125050620D01*
X83663660Y-125116660D01*
X83630640Y-125159840D01*
X83623020Y-125180160D01*
X83623020Y-125180160D01*
X83640800Y-125210640D01*
X83681440Y-125274140D01*
X83739860Y-125357960D01*
X83808440Y-125459560D01*
X83813520Y-125467180D01*
X83882100Y-125566240D01*
X83937980Y-125650060D01*
X83978620Y-125708480D01*
X83993860Y-125736420D01*
X83993860Y-125738960D01*
X83981160Y-125779600D01*
X83955760Y-125850720D01*
X83922740Y-125939620D01*
X83884640Y-126031060D01*
X83849080Y-126114880D01*
X83821140Y-126178380D01*
X83803360Y-126208860D01*
X83803360Y-126208860D01*
X83767800Y-126219020D01*
X83691600Y-126236800D01*
X83590000Y-126257120D01*
X83468080Y-126282520D01*
X83447760Y-126285060D01*
X83328380Y-126307920D01*
X83229320Y-126325700D01*
X83160740Y-126340940D01*
X83132800Y-126348560D01*
X83130260Y-126363800D01*
X83125180Y-126422220D01*
X83122640Y-126511120D01*
X83122640Y-126620340D01*
X83122640Y-126732100D01*
X83125180Y-126841320D01*
X83127720Y-126935300D01*
X83132800Y-127003880D01*
X83137880Y-127031820D01*
X83140420Y-127031820D01*
X83178520Y-127041980D01*
X83252180Y-127059760D01*
X83356320Y-127080080D01*
X83478240Y-127102940D01*
X83501100Y-127108020D01*
X83617940Y-127130880D01*
X83717000Y-127151200D01*
X83783040Y-127163900D01*
X83810980Y-127171520D01*
X83816060Y-127184220D01*
X83836380Y-127232480D01*
X83869400Y-127311220D01*
X83910040Y-127410280D01*
X84001480Y-127638880D01*
X83810980Y-127920820D01*
X83793200Y-127946220D01*
X83724620Y-128047820D01*
X83668740Y-128129100D01*
X83630640Y-128187520D01*
X83617940Y-128210380D01*
X83617940Y-128212920D01*
X83643340Y-128240860D01*
X83696680Y-128296740D01*
X83770340Y-128372940D01*
X83856700Y-128461840D01*
X83922740Y-128525340D01*
X84001480Y-128604080D01*
X84054820Y-128652340D01*
X84087840Y-128680280D01*
X84108160Y-128687900D01*
X84123400Y-128685360D01*
X84151340Y-128667580D01*
X84212300Y-128626940D01*
X84298660Y-128568520D01*
X84397720Y-128499940D01*
X84481540Y-128444060D01*
X84575520Y-128383100D01*
X84641560Y-128345000D01*
X84674580Y-128329760D01*
X84687280Y-128334840D01*
X84743160Y-128352620D01*
X84826980Y-128388180D01*
X84926040Y-128428820D01*
X85147020Y-128527880D01*
X85174960Y-128672660D01*
X85192740Y-128761560D01*
X85215600Y-128883480D01*
X85238460Y-129002860D01*
X85274020Y-129185740D01*
X85949660Y-129193360D01*
X85962360Y-129165420D01*
X85969980Y-129137480D01*
X85985220Y-129068900D01*
X86005540Y-128972380D01*
X86025860Y-128855540D01*
X86043640Y-128759020D01*
X86063960Y-128659960D01*
X86076660Y-128588840D01*
X86084280Y-128558360D01*
X86094440Y-128548200D01*
X86142700Y-128525340D01*
X86218900Y-128489780D01*
X86310340Y-128449140D01*
X86404320Y-128411040D01*
X86493220Y-128375480D01*
X86559260Y-128352620D01*
X86592280Y-128342460D01*
X86620220Y-128355160D01*
X86678640Y-128393260D01*
X86759920Y-128446600D01*
X86858980Y-128515180D01*
X86955500Y-128581220D01*
X87039320Y-128639640D01*
X87100280Y-128677740D01*
X87128220Y-128695520D01*
X87146000Y-128685360D01*
X87194260Y-128647260D01*
X87270460Y-128573600D01*
X87379680Y-128461840D01*
X87397460Y-128444060D01*
X87481280Y-128357700D01*
X87549860Y-128284040D01*
X87595580Y-128230700D01*
X87613360Y-128207840D01*
X87613360Y-128207840D01*
G37*
X87613360Y-128207840D02*
X87598120Y-128182440D01*
X87562560Y-128124020D01*
X87506680Y-128040200D01*
X87440640Y-127941140D01*
X87374600Y-127842080D01*
X87321260Y-127760800D01*
X87283160Y-127704920D01*
X87270460Y-127679520D01*
X87275540Y-127666820D01*
X87298400Y-127621100D01*
X87333960Y-127552520D01*
X87354280Y-127511880D01*
X87379680Y-127450920D01*
X87387300Y-127417900D01*
X87377140Y-127412820D01*
X87328880Y-127389960D01*
X87247600Y-127354400D01*
X87138380Y-127308680D01*
X87011380Y-127252800D01*
X86876760Y-127196920D01*
X86737060Y-127138500D01*
X86602440Y-127082620D01*
X86483060Y-127034360D01*
X86386540Y-126993720D01*
X86317960Y-126968320D01*
X86290020Y-126958160D01*
X86282400Y-126960700D01*
X86251920Y-126993720D01*
X86211280Y-127047060D01*
X86114760Y-127166440D01*
X85969980Y-127283280D01*
X85804880Y-127354400D01*
X85619460Y-127377260D01*
X85449280Y-127356940D01*
X85286720Y-127290900D01*
X85139400Y-127176600D01*
X85030180Y-127036900D01*
X84961600Y-126874340D01*
X84938740Y-126694000D01*
X84959060Y-126521280D01*
X85025100Y-126353640D01*
X85136860Y-126206320D01*
X85207980Y-126142820D01*
X85357840Y-126056460D01*
X85515320Y-126008200D01*
X85555960Y-126003120D01*
X85731220Y-126010740D01*
X85901400Y-126061540D01*
X86051260Y-126155520D01*
X86175720Y-126285060D01*
X86185880Y-126300300D01*
X86231600Y-126358720D01*
X86262080Y-126399360D01*
X86287480Y-126429840D01*
X86825960Y-126206320D01*
X86909780Y-126170760D01*
X87057100Y-126109800D01*
X87184100Y-126056460D01*
X87285700Y-126013280D01*
X87351740Y-125982800D01*
X87379680Y-125970100D01*
X87382220Y-125970100D01*
X87384760Y-125949780D01*
X87369520Y-125909140D01*
X87333960Y-125832940D01*
X87308560Y-125784680D01*
X87280620Y-125726260D01*
X87270460Y-125700860D01*
X87283160Y-125678000D01*
X87318720Y-125624660D01*
X87372060Y-125543380D01*
X87435560Y-125446860D01*
X87499060Y-125355420D01*
X87554940Y-125271600D01*
X87593040Y-125210640D01*
X87610820Y-125180160D01*
X87610820Y-125175080D01*
X87595580Y-125149680D01*
X87554940Y-125101420D01*
X87486360Y-125027760D01*
X87382220Y-124923620D01*
X87366980Y-124908380D01*
X87280620Y-124822020D01*
X87206960Y-124753440D01*
X87156160Y-124707720D01*
X87133300Y-124689940D01*
X87133300Y-124689940D01*
X87102820Y-124705180D01*
X87041860Y-124743280D01*
X86955500Y-124799160D01*
X86856440Y-124867740D01*
X86597360Y-125045540D01*
X86353520Y-124949020D01*
X86277320Y-124918540D01*
X86188420Y-124880440D01*
X86122380Y-124852500D01*
X86094440Y-124837260D01*
X86084280Y-124811860D01*
X86069040Y-124743280D01*
X86048720Y-124646760D01*
X86028400Y-124532460D01*
X86008080Y-124420700D01*
X85987760Y-124321640D01*
X85975060Y-124250520D01*
X85967440Y-124217500D01*
X85962360Y-124209880D01*
X85947120Y-124202260D01*
X85914100Y-124199720D01*
X85853140Y-124197180D01*
X85759160Y-124194640D01*
X85619460Y-124194640D01*
X85604220Y-124194640D01*
X85474680Y-124197180D01*
X85368000Y-124199720D01*
X85301960Y-124202260D01*
X85274020Y-124207340D01*
X85274020Y-124207340D01*
X85266400Y-124237820D01*
X85251160Y-124308940D01*
X85233380Y-124408000D01*
X85210520Y-124527380D01*
X85207980Y-124535000D01*
X85185120Y-124651840D01*
X85164800Y-124750900D01*
X85149560Y-124822020D01*
X85139400Y-124849960D01*
X85131780Y-124857580D01*
X85086060Y-124880440D01*
X85012400Y-124913460D01*
X84923500Y-124954100D01*
X84829520Y-124992200D01*
X84745700Y-125025220D01*
X84684740Y-125048080D01*
X84656800Y-125055700D01*
X84654260Y-125053160D01*
X84626320Y-125035380D01*
X84565360Y-124994740D01*
X84481540Y-124938860D01*
X84379940Y-124870280D01*
X84372320Y-124865200D01*
X84273260Y-124796620D01*
X84186900Y-124740740D01*
X84128480Y-124705180D01*
X84100540Y-124689940D01*
X84098000Y-124689940D01*
X84067520Y-124712800D01*
X84011640Y-124763600D01*
X83935440Y-124837260D01*
X83846540Y-124923620D01*
X83821140Y-124951560D01*
X83724620Y-125050620D01*
X83663660Y-125116660D01*
X83630640Y-125159840D01*
X83623020Y-125180160D01*
X83623020Y-125180160D01*
X83640800Y-125210640D01*
X83681440Y-125274140D01*
X83739860Y-125357960D01*
X83808440Y-125459560D01*
X83813520Y-125467180D01*
X83882100Y-125566240D01*
X83937980Y-125650060D01*
X83978620Y-125708480D01*
X83993860Y-125736420D01*
X83993860Y-125738960D01*
X83981160Y-125779600D01*
X83955760Y-125850720D01*
X83922740Y-125939620D01*
X83884640Y-126031060D01*
X83849080Y-126114880D01*
X83821140Y-126178380D01*
X83803360Y-126208860D01*
X83803360Y-126208860D01*
X83767800Y-126219020D01*
X83691600Y-126236800D01*
X83590000Y-126257120D01*
X83468080Y-126282520D01*
X83447760Y-126285060D01*
X83328380Y-126307920D01*
X83229320Y-126325700D01*
X83160740Y-126340940D01*
X83132800Y-126348560D01*
X83130260Y-126363800D01*
X83125180Y-126422220D01*
X83122640Y-126511120D01*
X83122640Y-126620340D01*
X83122640Y-126732100D01*
X83125180Y-126841320D01*
X83127720Y-126935300D01*
X83132800Y-127003880D01*
X83137880Y-127031820D01*
X83140420Y-127031820D01*
X83178520Y-127041980D01*
X83252180Y-127059760D01*
X83356320Y-127080080D01*
X83478240Y-127102940D01*
X83501100Y-127108020D01*
X83617940Y-127130880D01*
X83717000Y-127151200D01*
X83783040Y-127163900D01*
X83810980Y-127171520D01*
X83816060Y-127184220D01*
X83836380Y-127232480D01*
X83869400Y-127311220D01*
X83910040Y-127410280D01*
X84001480Y-127638880D01*
X83810980Y-127920820D01*
X83793200Y-127946220D01*
X83724620Y-128047820D01*
X83668740Y-128129100D01*
X83630640Y-128187520D01*
X83617940Y-128210380D01*
X83617940Y-128212920D01*
X83643340Y-128240860D01*
X83696680Y-128296740D01*
X83770340Y-128372940D01*
X83856700Y-128461840D01*
X83922740Y-128525340D01*
X84001480Y-128604080D01*
X84054820Y-128652340D01*
X84087840Y-128680280D01*
X84108160Y-128687900D01*
X84123400Y-128685360D01*
X84151340Y-128667580D01*
X84212300Y-128626940D01*
X84298660Y-128568520D01*
X84397720Y-128499940D01*
X84481540Y-128444060D01*
X84575520Y-128383100D01*
X84641560Y-128345000D01*
X84674580Y-128329760D01*
X84687280Y-128334840D01*
X84743160Y-128352620D01*
X84826980Y-128388180D01*
X84926040Y-128428820D01*
X85147020Y-128527880D01*
X85174960Y-128672660D01*
X85192740Y-128761560D01*
X85215600Y-128883480D01*
X85238460Y-129002860D01*
X85274020Y-129185740D01*
X85949660Y-129193360D01*
X85962360Y-129165420D01*
X85969980Y-129137480D01*
X85985220Y-129068900D01*
X86005540Y-128972380D01*
X86025860Y-128855540D01*
X86043640Y-128759020D01*
X86063960Y-128659960D01*
X86076660Y-128588840D01*
X86084280Y-128558360D01*
X86094440Y-128548200D01*
X86142700Y-128525340D01*
X86218900Y-128489780D01*
X86310340Y-128449140D01*
X86404320Y-128411040D01*
X86493220Y-128375480D01*
X86559260Y-128352620D01*
X86592280Y-128342460D01*
X86620220Y-128355160D01*
X86678640Y-128393260D01*
X86759920Y-128446600D01*
X86858980Y-128515180D01*
X86955500Y-128581220D01*
X87039320Y-128639640D01*
X87100280Y-128677740D01*
X87128220Y-128695520D01*
X87146000Y-128685360D01*
X87194260Y-128647260D01*
X87270460Y-128573600D01*
X87379680Y-128461840D01*
X87397460Y-128444060D01*
X87481280Y-128357700D01*
X87549860Y-128284040D01*
X87595580Y-128230700D01*
X87613360Y-128207840D01*
D13*
X130552381Y-124938095D02*
X129552381Y-124938095D01*
X129552381Y-124557142D01*
X129600000Y-124461904D01*
X129647619Y-124414285D01*
X129742857Y-124366666D01*
X129885714Y-124366666D01*
X129980952Y-124414285D01*
X130028571Y-124461904D01*
X130076190Y-124557142D01*
X130076190Y-124938095D01*
X129885714Y-123509523D02*
X130552381Y-123509523D01*
X129504762Y-123747619D02*
X130219048Y-123985714D01*
X130219048Y-123366666D01*
X118933334Y-130757143D02*
X118885715Y-130804762D01*
X118742858Y-130852381D01*
X118647620Y-130852381D01*
X118504762Y-130804762D01*
X118409524Y-130709524D01*
X118361905Y-130614286D01*
X118314286Y-130423810D01*
X118314286Y-130280952D01*
X118361905Y-130090476D01*
X118409524Y-129995238D01*
X118504762Y-129900000D01*
X118647620Y-129852381D01*
X118742858Y-129852381D01*
X118885715Y-129900000D01*
X118933334Y-129947619D01*
X119885715Y-130852381D02*
X119314286Y-130852381D01*
X119600000Y-130852381D02*
X119600000Y-129852381D01*
X119504762Y-129995238D01*
X119409524Y-130090476D01*
X119314286Y-130138095D01*
X120272289Y-121582032D02*
X120272289Y-120820127D01*
X120653241Y-121201079D02*
X119891336Y-121201079D01*
X130552381Y-146538095D02*
X129552381Y-146538095D01*
X129552381Y-146157142D01*
X129600000Y-146061904D01*
X129647619Y-146014285D01*
X129742857Y-145966666D01*
X129885714Y-145966666D01*
X129980952Y-146014285D01*
X130028571Y-146061904D01*
X130076190Y-146157142D01*
X130076190Y-146538095D01*
X129552381Y-145633333D02*
X129552381Y-145014285D01*
X129933333Y-145347619D01*
X129933333Y-145204761D01*
X129980952Y-145109523D01*
X130028571Y-145061904D01*
X130123810Y-145014285D01*
X130361905Y-145014285D01*
X130457143Y-145061904D01*
X130504762Y-145109523D01*
X130552381Y-145204761D01*
X130552381Y-145490476D01*
X130504762Y-145585714D01*
X130457143Y-145633333D01*
X122047619Y-135845238D02*
X122000000Y-135940476D01*
X121904762Y-136035714D01*
X121761905Y-136178571D01*
X121714286Y-136273810D01*
X121714286Y-136369048D01*
X121952381Y-136321429D02*
X121904762Y-136416667D01*
X121809524Y-136511905D01*
X121619048Y-136559524D01*
X121285714Y-136559524D01*
X121095238Y-136511905D01*
X121000000Y-136416667D01*
X120952381Y-136321429D01*
X120952381Y-136130952D01*
X121000000Y-136035714D01*
X121095238Y-135940476D01*
X121285714Y-135892857D01*
X121619048Y-135892857D01*
X121809524Y-135940476D01*
X121904762Y-136035714D01*
X121952381Y-136130952D01*
X121952381Y-136321429D01*
X121952381Y-134940476D02*
X121952381Y-135511905D01*
X121952381Y-135226191D02*
X120952381Y-135226191D01*
X121095238Y-135321429D01*
X121190476Y-135416667D01*
X121238095Y-135511905D01*
X122047619Y-117895238D02*
X122000000Y-117990476D01*
X121904762Y-118085714D01*
X121761905Y-118228571D01*
X121714286Y-118323810D01*
X121714286Y-118419048D01*
X121952381Y-118371429D02*
X121904762Y-118466667D01*
X121809524Y-118561905D01*
X121619048Y-118609524D01*
X121285714Y-118609524D01*
X121095238Y-118561905D01*
X121000000Y-118466667D01*
X120952381Y-118371429D01*
X120952381Y-118180952D01*
X121000000Y-118085714D01*
X121095238Y-117990476D01*
X121285714Y-117942857D01*
X121619048Y-117942857D01*
X121809524Y-117990476D01*
X121904762Y-118085714D01*
X121952381Y-118180952D01*
X121952381Y-118371429D01*
X121047619Y-117561905D02*
X121000000Y-117514286D01*
X120952381Y-117419048D01*
X120952381Y-117180952D01*
X121000000Y-117085714D01*
X121047619Y-117038095D01*
X121142857Y-116990476D01*
X121238095Y-116990476D01*
X121380952Y-117038095D01*
X121952381Y-117609524D01*
X121952381Y-116990476D01*
X122047619Y-126845238D02*
X122000000Y-126940476D01*
X121904762Y-127035714D01*
X121761905Y-127178571D01*
X121714286Y-127273810D01*
X121714286Y-127369048D01*
X121952381Y-127321429D02*
X121904762Y-127416667D01*
X121809524Y-127511905D01*
X121619048Y-127559524D01*
X121285714Y-127559524D01*
X121095238Y-127511905D01*
X121000000Y-127416667D01*
X120952381Y-127321429D01*
X120952381Y-127130952D01*
X121000000Y-127035714D01*
X121095238Y-126940476D01*
X121285714Y-126892857D01*
X121619048Y-126892857D01*
X121809524Y-126940476D01*
X121904762Y-127035714D01*
X121952381Y-127130952D01*
X121952381Y-127321429D01*
X120952381Y-126559524D02*
X120952381Y-125940476D01*
X121333333Y-126273810D01*
X121333333Y-126130952D01*
X121380952Y-126035714D01*
X121428571Y-125988095D01*
X121523810Y-125940476D01*
X121761905Y-125940476D01*
X121857143Y-125988095D01*
X121904762Y-126035714D01*
X121952381Y-126130952D01*
X121952381Y-126416667D01*
X121904762Y-126511905D01*
X121857143Y-126559524D01*
X122047619Y-108895238D02*
X122000000Y-108990476D01*
X121904762Y-109085714D01*
X121761905Y-109228571D01*
X121714286Y-109323810D01*
X121714286Y-109419048D01*
X121952381Y-109371429D02*
X121904762Y-109466667D01*
X121809524Y-109561905D01*
X121619048Y-109609524D01*
X121285714Y-109609524D01*
X121095238Y-109561905D01*
X121000000Y-109466667D01*
X120952381Y-109371429D01*
X120952381Y-109180952D01*
X121000000Y-109085714D01*
X121095238Y-108990476D01*
X121285714Y-108942857D01*
X121619048Y-108942857D01*
X121809524Y-108990476D01*
X121904762Y-109085714D01*
X121952381Y-109180952D01*
X121952381Y-109371429D01*
X121285714Y-108085714D02*
X121952381Y-108085714D01*
X120904762Y-108323810D02*
X121619048Y-108561905D01*
X121619048Y-107942857D01*
X121952381Y-132966666D02*
X121476190Y-133300000D01*
X121952381Y-133538095D02*
X120952381Y-133538095D01*
X120952381Y-133157142D01*
X121000000Y-133061904D01*
X121047619Y-133014285D01*
X121142857Y-132966666D01*
X121285714Y-132966666D01*
X121380952Y-133014285D01*
X121428571Y-133061904D01*
X121476190Y-133157142D01*
X121476190Y-133538095D01*
X121952381Y-132014285D02*
X121952381Y-132585714D01*
X121952381Y-132300000D02*
X120952381Y-132300000D01*
X121095238Y-132395238D01*
X121190476Y-132490476D01*
X121238095Y-132585714D01*
X121952381Y-114966666D02*
X121476190Y-115300000D01*
X121952381Y-115538095D02*
X120952381Y-115538095D01*
X120952381Y-115157142D01*
X121000000Y-115061904D01*
X121047619Y-115014285D01*
X121142857Y-114966666D01*
X121285714Y-114966666D01*
X121380952Y-115014285D01*
X121428571Y-115061904D01*
X121476190Y-115157142D01*
X121476190Y-115538095D01*
X121047619Y-114585714D02*
X121000000Y-114538095D01*
X120952381Y-114442857D01*
X120952381Y-114204761D01*
X121000000Y-114109523D01*
X121047619Y-114061904D01*
X121142857Y-114014285D01*
X121238095Y-114014285D01*
X121380952Y-114061904D01*
X121952381Y-114633333D01*
X121952381Y-114014285D01*
X121952381Y-138966666D02*
X121476190Y-139300000D01*
X121952381Y-139538095D02*
X120952381Y-139538095D01*
X120952381Y-139157142D01*
X121000000Y-139061904D01*
X121047619Y-139014285D01*
X121142857Y-138966666D01*
X121285714Y-138966666D01*
X121380952Y-139014285D01*
X121428571Y-139061904D01*
X121476190Y-139157142D01*
X121476190Y-139538095D01*
X120952381Y-138633333D02*
X120952381Y-138014285D01*
X121333333Y-138347619D01*
X121333333Y-138204761D01*
X121380952Y-138109523D01*
X121428571Y-138061904D01*
X121523810Y-138014285D01*
X121761905Y-138014285D01*
X121857143Y-138061904D01*
X121904762Y-138109523D01*
X121952381Y-138204761D01*
X121952381Y-138490476D01*
X121904762Y-138585714D01*
X121857143Y-138633333D01*
X121952381Y-120966666D02*
X121476190Y-121300000D01*
X121952381Y-121538095D02*
X120952381Y-121538095D01*
X120952381Y-121157142D01*
X121000000Y-121061904D01*
X121047619Y-121014285D01*
X121142857Y-120966666D01*
X121285714Y-120966666D01*
X121380952Y-121014285D01*
X121428571Y-121061904D01*
X121476190Y-121157142D01*
X121476190Y-121538095D01*
X121285714Y-120109523D02*
X121952381Y-120109523D01*
X120904762Y-120347619D02*
X121619048Y-120585714D01*
X121619048Y-119966666D01*
X121952381Y-123966666D02*
X121476190Y-124300000D01*
X121952381Y-124538095D02*
X120952381Y-124538095D01*
X120952381Y-124157142D01*
X121000000Y-124061904D01*
X121047619Y-124014285D01*
X121142857Y-123966666D01*
X121285714Y-123966666D01*
X121380952Y-124014285D01*
X121428571Y-124061904D01*
X121476190Y-124157142D01*
X121476190Y-124538095D01*
X120952381Y-123061904D02*
X120952381Y-123538095D01*
X121428571Y-123585714D01*
X121380952Y-123538095D01*
X121333333Y-123442857D01*
X121333333Y-123204761D01*
X121380952Y-123109523D01*
X121428571Y-123061904D01*
X121523810Y-123014285D01*
X121761905Y-123014285D01*
X121857143Y-123061904D01*
X121904762Y-123109523D01*
X121952381Y-123204761D01*
X121952381Y-123442857D01*
X121904762Y-123538095D01*
X121857143Y-123585714D01*
X121952381Y-105966666D02*
X121476190Y-106300000D01*
X121952381Y-106538095D02*
X120952381Y-106538095D01*
X120952381Y-106157142D01*
X121000000Y-106061904D01*
X121047619Y-106014285D01*
X121142857Y-105966666D01*
X121285714Y-105966666D01*
X121380952Y-106014285D01*
X121428571Y-106061904D01*
X121476190Y-106157142D01*
X121476190Y-106538095D01*
X120952381Y-105109523D02*
X120952381Y-105300000D01*
X121000000Y-105395238D01*
X121047619Y-105442857D01*
X121190476Y-105538095D01*
X121380952Y-105585714D01*
X121761905Y-105585714D01*
X121857143Y-105538095D01*
X121904762Y-105490476D01*
X121952381Y-105395238D01*
X121952381Y-105204761D01*
X121904762Y-105109523D01*
X121857143Y-105061904D01*
X121761905Y-105014285D01*
X121523810Y-105014285D01*
X121428571Y-105061904D01*
X121380952Y-105109523D01*
X121333333Y-105204761D01*
X121333333Y-105395238D01*
X121380952Y-105490476D01*
X121428571Y-105538095D01*
X121523810Y-105585714D01*
X121952381Y-129966666D02*
X121476190Y-130300000D01*
X121952381Y-130538095D02*
X120952381Y-130538095D01*
X120952381Y-130157142D01*
X121000000Y-130061904D01*
X121047619Y-130014285D01*
X121142857Y-129966666D01*
X121285714Y-129966666D01*
X121380952Y-130014285D01*
X121428571Y-130061904D01*
X121476190Y-130157142D01*
X121476190Y-130538095D01*
X120952381Y-129633333D02*
X120952381Y-128966666D01*
X121952381Y-129395238D01*
X121952381Y-111966666D02*
X121476190Y-112300000D01*
X121952381Y-112538095D02*
X120952381Y-112538095D01*
X120952381Y-112157142D01*
X121000000Y-112061904D01*
X121047619Y-112014285D01*
X121142857Y-111966666D01*
X121285714Y-111966666D01*
X121380952Y-112014285D01*
X121428571Y-112061904D01*
X121476190Y-112157142D01*
X121476190Y-112538095D01*
X121380952Y-111395238D02*
X121333333Y-111490476D01*
X121285714Y-111538095D01*
X121190476Y-111585714D01*
X121142857Y-111585714D01*
X121047619Y-111538095D01*
X121000000Y-111490476D01*
X120952381Y-111395238D01*
X120952381Y-111204761D01*
X121000000Y-111109523D01*
X121047619Y-111061904D01*
X121142857Y-111014285D01*
X121190476Y-111014285D01*
X121285714Y-111061904D01*
X121333333Y-111109523D01*
X121380952Y-111204761D01*
X121380952Y-111395238D01*
X121428571Y-111490476D01*
X121476190Y-111538095D01*
X121571429Y-111585714D01*
X121761905Y-111585714D01*
X121857143Y-111538095D01*
X121904762Y-111490476D01*
X121952381Y-111395238D01*
X121952381Y-111204761D01*
X121904762Y-111109523D01*
X121857143Y-111061904D01*
X121761905Y-111014285D01*
X121571429Y-111014285D01*
X121476190Y-111061904D01*
X121428571Y-111109523D01*
X121380952Y-111204761D01*
X113538095Y-127652381D02*
X113538095Y-128461905D01*
X113585714Y-128557143D01*
X113633333Y-128604762D01*
X113728571Y-128652381D01*
X113919048Y-128652381D01*
X114014286Y-128604762D01*
X114061905Y-128557143D01*
X114109524Y-128461905D01*
X114109524Y-127652381D01*
X115109524Y-128652381D02*
X114538095Y-128652381D01*
X114823809Y-128652381D02*
X114823809Y-127652381D01*
X114728571Y-127795238D01*
X114633333Y-127890476D01*
X114538095Y-127938095D01*
X115761905Y-144652381D02*
X115761905Y-143652381D01*
X116142858Y-143652381D01*
X116238096Y-143700000D01*
X116285715Y-143747619D01*
X116333334Y-143842857D01*
X116333334Y-143985714D01*
X116285715Y-144080952D01*
X116238096Y-144128571D01*
X116142858Y-144176190D01*
X115761905Y-144176190D01*
X117285715Y-144652381D02*
X116714286Y-144652381D01*
X117000000Y-144652381D02*
X117000000Y-143652381D01*
X116904762Y-143795238D01*
X116809524Y-143890476D01*
X116714286Y-143938095D01*
X112761905Y-122852381D02*
X112761905Y-121852381D01*
X113142858Y-121852381D01*
X113238096Y-121900000D01*
X113285715Y-121947619D01*
X113333334Y-122042857D01*
X113333334Y-122185714D01*
X113285715Y-122280952D01*
X113238096Y-122328571D01*
X113142858Y-122376190D01*
X112761905Y-122376190D01*
X113714286Y-121947619D02*
X113761905Y-121900000D01*
X113857143Y-121852381D01*
X114095239Y-121852381D01*
X114190477Y-121900000D01*
X114238096Y-121947619D01*
X114285715Y-122042857D01*
X114285715Y-122138095D01*
X114238096Y-122280952D01*
X113666667Y-122852381D01*
X114285715Y-122852381D01*
X77597143Y-108191666D02*
X77644762Y-108239285D01*
X77692381Y-108382142D01*
X77692381Y-108477380D01*
X77644762Y-108620238D01*
X77549524Y-108715476D01*
X77454286Y-108763095D01*
X77263810Y-108810714D01*
X77120952Y-108810714D01*
X76930476Y-108763095D01*
X76835238Y-108715476D01*
X76740000Y-108620238D01*
X76692381Y-108477380D01*
X76692381Y-108382142D01*
X76740000Y-108239285D01*
X76787619Y-108191666D01*
X77692381Y-107239285D02*
X77692381Y-107810714D01*
X77692381Y-107525000D02*
X76692381Y-107525000D01*
X76835238Y-107620238D01*
X76930476Y-107715476D01*
X76978095Y-107810714D01*
X77770569Y-112980892D02*
X77770569Y-112218987D01*
X78151521Y-112599939D02*
X77389616Y-112599939D01*
X89201905Y-110890381D02*
X89201905Y-109890381D01*
X89440000Y-109890381D01*
X89582858Y-109938000D01*
X89678096Y-110033238D01*
X89725715Y-110128476D01*
X89773334Y-110318952D01*
X89773334Y-110461810D01*
X89725715Y-110652286D01*
X89678096Y-110747524D01*
X89582858Y-110842762D01*
X89440000Y-110890381D01*
X89201905Y-110890381D01*
X90725715Y-110890381D02*
X90154286Y-110890381D01*
X90440000Y-110890381D02*
X90440000Y-109890381D01*
X90344762Y-110033238D01*
X90249524Y-110128476D01*
X90154286Y-110176095D01*
X92249905Y-111398381D02*
X92249905Y-110398381D01*
X92630858Y-110398381D01*
X92726096Y-110446000D01*
X92773715Y-110493619D01*
X92821334Y-110588857D01*
X92821334Y-110731714D01*
X92773715Y-110826952D01*
X92726096Y-110874571D01*
X92630858Y-110922190D01*
X92249905Y-110922190D01*
X93773715Y-111398381D02*
X93202286Y-111398381D01*
X93488000Y-111398381D02*
X93488000Y-110398381D01*
X93392762Y-110541238D01*
X93297524Y-110636476D01*
X93202286Y-110684095D01*
X86725334Y-110890381D02*
X86392000Y-110414190D01*
X86153905Y-110890381D02*
X86153905Y-109890381D01*
X86534858Y-109890381D01*
X86630096Y-109938000D01*
X86677715Y-109985619D01*
X86725334Y-110080857D01*
X86725334Y-110223714D01*
X86677715Y-110318952D01*
X86630096Y-110366571D01*
X86534858Y-110414190D01*
X86153905Y-110414190D01*
X87106286Y-109985619D02*
X87153905Y-109938000D01*
X87249143Y-109890381D01*
X87487239Y-109890381D01*
X87582477Y-109938000D01*
X87630096Y-109985619D01*
X87677715Y-110080857D01*
X87677715Y-110176095D01*
X87630096Y-110318952D01*
X87058667Y-110890381D01*
X87677715Y-110890381D01*
X82574095Y-110398381D02*
X82574095Y-111207905D01*
X82621714Y-111303143D01*
X82669333Y-111350762D01*
X82764571Y-111398381D01*
X82955048Y-111398381D01*
X83050286Y-111350762D01*
X83097905Y-111303143D01*
X83145524Y-111207905D01*
X83145524Y-110398381D01*
X84145524Y-111398381D02*
X83574095Y-111398381D01*
X83859809Y-111398381D02*
X83859809Y-110398381D01*
X83764571Y-110541238D01*
X83669333Y-110636476D01*
X83574095Y-110684095D01*
M02*
