G04 #@! TF.FileFunction,Soldermask,Top*
%FSLAX46Y46*%
G04 Gerber Fmt 4.6, Leading zero omitted, Abs format (unit mm)*
G04 Created by KiCad (PCBNEW 4.0.1-stable) date 08.03.2016 22:55:35*
%MOMM*%
G01*
G04 APERTURE LIST*
%ADD10C,0.100000*%
%ADD11O,1.998980X1.998980*%
%ADD12R,1.998980X1.998980*%
%ADD13R,0.800100X1.400000*%
%ADD14R,1.300000X1.500000*%
%ADD15R,1.727200X2.032000*%
%ADD16O,1.727200X2.032000*%
%ADD17C,5.000000*%
%ADD18R,1.727200X1.727200*%
%ADD19O,1.727200X1.727200*%
G04 APERTURE END LIST*
D10*
D11*
X175510000Y-95150000D03*
D12*
X167890000Y-95150000D03*
D11*
X170430000Y-95150000D03*
X172970000Y-95150000D03*
X164660000Y-95150000D03*
D12*
X157040000Y-95150000D03*
D11*
X159580000Y-95150000D03*
X162120000Y-95150000D03*
D13*
X162400000Y-105725000D03*
X164300000Y-105725000D03*
X163350000Y-103125000D03*
X174600000Y-105750000D03*
X176500000Y-105750000D03*
X175550000Y-103150000D03*
X168500000Y-105725000D03*
X170400000Y-105725000D03*
X169450000Y-103125000D03*
X156300000Y-105725000D03*
X158200000Y-105725000D03*
X157250000Y-103125000D03*
D14*
X162050000Y-110925000D03*
X162050000Y-108225000D03*
X174250000Y-110925000D03*
X174250000Y-108225000D03*
X164650000Y-110925000D03*
X164650000Y-108225000D03*
X176850000Y-110925000D03*
X176850000Y-108225000D03*
X168150000Y-110925000D03*
X168150000Y-108225000D03*
X155950000Y-110925000D03*
X155950000Y-108225000D03*
X170750000Y-110925000D03*
X170750000Y-108225000D03*
X158550000Y-110925000D03*
X158550000Y-108225000D03*
D15*
X157400000Y-99950000D03*
D16*
X159940000Y-99950000D03*
X162480000Y-99950000D03*
X165020000Y-99950000D03*
X167560000Y-99950000D03*
X170100000Y-99950000D03*
X172640000Y-99950000D03*
X175180000Y-99950000D03*
D17*
X180370000Y-98100000D03*
D18*
X175000000Y-115000000D03*
D19*
X175000000Y-117540000D03*
X172460000Y-115000000D03*
X172460000Y-117540000D03*
X169920000Y-115000000D03*
X169920000Y-117540000D03*
X167380000Y-115000000D03*
X167380000Y-117540000D03*
X164840000Y-115000000D03*
X164840000Y-117540000D03*
X162300000Y-115000000D03*
X162300000Y-117540000D03*
X159760000Y-115000000D03*
X159760000Y-117540000D03*
M02*
