G04 #@! TF.FileFunction,Legend,Top*
%FSLAX46Y46*%
G04 Gerber Fmt 4.6, Leading zero omitted, Abs format (unit mm)*
G04 Created by KiCad (PCBNEW 4.0.1-stable) date 08.03.2016 22:55:35*
%MOMM*%
G01*
G04 APERTURE LIST*
%ADD10C,0.100000*%
%ADD11C,0.254000*%
%ADD12C,0.150000*%
%ADD13C,0.075000*%
%ADD14C,0.002540*%
%ADD15C,0.010000*%
%ADD16C,0.304800*%
G04 APERTURE END LIST*
D10*
D11*
X166399020Y-98248800D02*
X177000980Y-98248800D01*
X177000980Y-97850020D02*
X166399020Y-97850020D01*
X177000980Y-92549040D02*
X166399020Y-92549040D01*
X166399020Y-92051200D02*
X177000980Y-92051200D01*
X169203180Y-92549040D02*
X169203180Y-92051200D01*
X171700000Y-92549040D02*
X171700000Y-92051200D01*
X176797780Y-92051200D02*
X176797780Y-92549040D01*
X166599680Y-92549040D02*
X166599680Y-92051200D01*
X174196820Y-92051200D02*
X174196820Y-92549040D01*
X166401560Y-92051200D02*
X166401560Y-98248800D01*
X176995900Y-98248800D02*
X176995900Y-92051200D01*
X155549020Y-98248800D02*
X166150980Y-98248800D01*
X166150980Y-97850020D02*
X155549020Y-97850020D01*
X166150980Y-92549040D02*
X155549020Y-92549040D01*
X155549020Y-92051200D02*
X166150980Y-92051200D01*
X158353180Y-92549040D02*
X158353180Y-92051200D01*
X160850000Y-92549040D02*
X160850000Y-92051200D01*
X165947780Y-92051200D02*
X165947780Y-92549040D01*
X155749680Y-92549040D02*
X155749680Y-92051200D01*
X163346820Y-92051200D02*
X163346820Y-92549040D01*
X155551560Y-92051200D02*
X155551560Y-98248800D01*
X166145900Y-98248800D02*
X166145900Y-92051200D01*
D12*
X164649160Y-103774760D02*
X164600900Y-103774760D01*
X161850180Y-104475800D02*
X161850180Y-103774760D01*
X161850180Y-103774760D02*
X162099100Y-103774760D01*
X164649160Y-103774760D02*
X164849820Y-103774760D01*
X164849820Y-103774760D02*
X164849820Y-104475800D01*
X176849160Y-103799760D02*
X176800900Y-103799760D01*
X174050180Y-104500800D02*
X174050180Y-103799760D01*
X174050180Y-103799760D02*
X174299100Y-103799760D01*
X176849160Y-103799760D02*
X177049820Y-103799760D01*
X177049820Y-103799760D02*
X177049820Y-104500800D01*
X170749160Y-103774760D02*
X170700900Y-103774760D01*
X167950180Y-104475800D02*
X167950180Y-103774760D01*
X167950180Y-103774760D02*
X168199100Y-103774760D01*
X170749160Y-103774760D02*
X170949820Y-103774760D01*
X170949820Y-103774760D02*
X170949820Y-104475800D01*
X158549160Y-103774760D02*
X158500900Y-103774760D01*
X155750180Y-104475800D02*
X155750180Y-103774760D01*
X155750180Y-103774760D02*
X155999100Y-103774760D01*
X158549160Y-103774760D02*
X158749820Y-103774760D01*
X158749820Y-103774760D02*
X158749820Y-104475800D01*
X162925000Y-108975000D02*
X162925000Y-110175000D01*
X161175000Y-110175000D02*
X161175000Y-108975000D01*
X175125000Y-108975000D02*
X175125000Y-110175000D01*
X173375000Y-110175000D02*
X173375000Y-108975000D01*
X165525000Y-108975000D02*
X165525000Y-110175000D01*
X163775000Y-110175000D02*
X163775000Y-108975000D01*
X177725000Y-108975000D02*
X177725000Y-110175000D01*
X175975000Y-110175000D02*
X175975000Y-108975000D01*
X169025000Y-108975000D02*
X169025000Y-110175000D01*
X167275000Y-110175000D02*
X167275000Y-108975000D01*
X156825000Y-108975000D02*
X156825000Y-110175000D01*
X155075000Y-110175000D02*
X155075000Y-108975000D01*
X171625000Y-108975000D02*
X171625000Y-110175000D01*
X169875000Y-110175000D02*
X169875000Y-108975000D01*
X159425000Y-108975000D02*
X159425000Y-110175000D01*
X157675000Y-110175000D02*
X157675000Y-108975000D01*
X158670000Y-98680000D02*
X176450000Y-98680000D01*
X176450000Y-98680000D02*
X176450000Y-101220000D01*
X176450000Y-101220000D02*
X158670000Y-101220000D01*
X155850000Y-98400000D02*
X157400000Y-98400000D01*
X158670000Y-98680000D02*
X158670000Y-101220000D01*
X157400000Y-101500000D02*
X155850000Y-101500000D01*
X155850000Y-101500000D02*
X155850000Y-98400000D01*
D13*
X183060000Y-108570000D02*
X183060000Y-109030000D01*
X183150000Y-108570000D02*
X183200000Y-108570000D01*
X183100000Y-108600000D02*
X183150000Y-108570000D01*
X183080000Y-108620000D02*
X183100000Y-108600000D01*
X183060000Y-108690000D02*
X183080000Y-108620000D01*
X183500000Y-109030000D02*
X183550000Y-109000000D01*
X183400000Y-109030000D02*
X183500000Y-109030000D01*
X183360000Y-109000000D02*
X183400000Y-109030000D01*
X183340000Y-108930000D02*
X183360000Y-109000000D01*
X183340000Y-108660000D02*
X183340000Y-108930000D01*
X183370000Y-108600000D02*
X183340000Y-108660000D01*
X183410000Y-108570000D02*
X183370000Y-108600000D01*
X183510000Y-108570000D02*
X183410000Y-108570000D01*
X183550000Y-108610000D02*
X183510000Y-108570000D01*
X183570000Y-108680000D02*
X183550000Y-108610000D01*
X183570000Y-108800000D02*
X183570000Y-108680000D01*
X183570000Y-108800000D02*
X183340000Y-108800000D01*
X182820000Y-108660000D02*
X182820000Y-109030000D01*
X182790000Y-108600000D02*
X182820000Y-108660000D01*
X182750000Y-108570000D02*
X182790000Y-108600000D01*
X182650000Y-108570000D02*
X182750000Y-108570000D01*
X182600000Y-108600000D02*
X182650000Y-108570000D01*
X182660000Y-108760000D02*
X182610000Y-108790000D01*
X182780000Y-108760000D02*
X182660000Y-108760000D01*
X182820000Y-108730000D02*
X182780000Y-108760000D01*
X182770000Y-109030000D02*
X182820000Y-108990000D01*
X182650000Y-109030000D02*
X182770000Y-109030000D01*
X182600000Y-108990000D02*
X182650000Y-109030000D01*
X182580000Y-108930000D02*
X182600000Y-108990000D01*
X182580000Y-108860000D02*
X182580000Y-108930000D01*
X182610000Y-108790000D02*
X182580000Y-108860000D01*
X182030000Y-108570000D02*
X182130000Y-109030000D01*
X182130000Y-109030000D02*
X182220000Y-108690000D01*
X182220000Y-108690000D02*
X182320000Y-109030000D01*
X182320000Y-109030000D02*
X182420000Y-108570000D01*
X181840000Y-109000000D02*
X181800000Y-109030000D01*
X181800000Y-109030000D02*
X181690000Y-109030000D01*
X181690000Y-109030000D02*
X181650000Y-109000000D01*
X181650000Y-109000000D02*
X181630000Y-108970000D01*
X181630000Y-108970000D02*
X181600000Y-108900000D01*
X181600000Y-108900000D02*
X181600000Y-108700000D01*
X181600000Y-108700000D02*
X181630000Y-108630000D01*
X181630000Y-108630000D02*
X181650000Y-108600000D01*
X181650000Y-108600000D02*
X181710000Y-108560000D01*
X181710000Y-108560000D02*
X181780000Y-108560000D01*
X181780000Y-108560000D02*
X181840000Y-108600000D01*
X181840000Y-108330000D02*
X181840000Y-109030000D01*
X181320000Y-108690000D02*
X181340000Y-108620000D01*
X181340000Y-108620000D02*
X181360000Y-108600000D01*
X181360000Y-108600000D02*
X181410000Y-108570000D01*
X181410000Y-108570000D02*
X181460000Y-108570000D01*
X181320000Y-108570000D02*
X181320000Y-109030000D01*
X180870000Y-108790000D02*
X180840000Y-108860000D01*
X180840000Y-108860000D02*
X180840000Y-108930000D01*
X180840000Y-108930000D02*
X180860000Y-108990000D01*
X180860000Y-108990000D02*
X180910000Y-109030000D01*
X180910000Y-109030000D02*
X181030000Y-109030000D01*
X181030000Y-109030000D02*
X181080000Y-108990000D01*
X181080000Y-108730000D02*
X181040000Y-108760000D01*
X181040000Y-108760000D02*
X180920000Y-108760000D01*
X180920000Y-108760000D02*
X180870000Y-108790000D01*
X180860000Y-108600000D02*
X180910000Y-108570000D01*
X180910000Y-108570000D02*
X181010000Y-108570000D01*
X181010000Y-108570000D02*
X181050000Y-108600000D01*
X181050000Y-108600000D02*
X181080000Y-108660000D01*
X181080000Y-108660000D02*
X181080000Y-109030000D01*
X180410000Y-108640000D02*
X180430000Y-108600000D01*
X180430000Y-108600000D02*
X180480000Y-108570000D01*
X180480000Y-108570000D02*
X180560000Y-108570000D01*
X180560000Y-108570000D02*
X180600000Y-108600000D01*
X180600000Y-108600000D02*
X180620000Y-108660000D01*
X180620000Y-108660000D02*
X180620000Y-109030000D01*
X180410000Y-108330000D02*
X180410000Y-109030000D01*
X179360000Y-108800000D02*
X179130000Y-108800000D01*
X179580000Y-108630000D02*
X179600000Y-108600000D01*
X179600000Y-108600000D02*
X179640000Y-108570000D01*
X179640000Y-108570000D02*
X179730000Y-108570000D01*
X179730000Y-108570000D02*
X179770000Y-108600000D01*
X179770000Y-108600000D02*
X179790000Y-108660000D01*
X179790000Y-108660000D02*
X179790000Y-109030000D01*
X179580000Y-108570000D02*
X179580000Y-109030000D01*
X179360000Y-108800000D02*
X179360000Y-108680000D01*
X179360000Y-108680000D02*
X179340000Y-108610000D01*
X179340000Y-108610000D02*
X179300000Y-108570000D01*
X179300000Y-108570000D02*
X179200000Y-108570000D01*
X179200000Y-108570000D02*
X179160000Y-108600000D01*
X179160000Y-108600000D02*
X179130000Y-108660000D01*
X179130000Y-108660000D02*
X179130000Y-108930000D01*
X179130000Y-108930000D02*
X179150000Y-109000000D01*
X179150000Y-109000000D02*
X179190000Y-109030000D01*
X179190000Y-109030000D02*
X179290000Y-109030000D01*
X179290000Y-109030000D02*
X179340000Y-109000000D01*
X178700000Y-108600000D02*
X178740000Y-108570000D01*
X178740000Y-108570000D02*
X178840000Y-108570000D01*
X178840000Y-108570000D02*
X178880000Y-108600000D01*
X178880000Y-108600000D02*
X178910000Y-108630000D01*
X178910000Y-108630000D02*
X178930000Y-108690000D01*
X178930000Y-108690000D02*
X178930000Y-108910000D01*
X178930000Y-108910000D02*
X178910000Y-108970000D01*
X178910000Y-108970000D02*
X178890000Y-109000000D01*
X178890000Y-109000000D02*
X178850000Y-109030000D01*
X178850000Y-109030000D02*
X178750000Y-109030000D01*
X178750000Y-109030000D02*
X178700000Y-109000000D01*
X178700000Y-109270000D02*
X178700000Y-108570000D01*
X178390000Y-108570000D02*
X178310000Y-108570000D01*
X178310000Y-108570000D02*
X178270000Y-108600000D01*
X178270000Y-108600000D02*
X178250000Y-108630000D01*
X178250000Y-108630000D02*
X178220000Y-108700000D01*
X178310000Y-109030000D02*
X178390000Y-109030000D01*
X178390000Y-109030000D02*
X178440000Y-109000000D01*
X178440000Y-109000000D02*
X178460000Y-108970000D01*
X178460000Y-108970000D02*
X178480000Y-108900000D01*
X178480000Y-108900000D02*
X178480000Y-108700000D01*
X178480000Y-108700000D02*
X178460000Y-108640000D01*
X178460000Y-108640000D02*
X178440000Y-108610000D01*
X178440000Y-108610000D02*
X178390000Y-108570000D01*
X178220000Y-108700000D02*
X178220000Y-108900000D01*
X178220000Y-108900000D02*
X178240000Y-108960000D01*
X178240000Y-108960000D02*
X178260000Y-108990000D01*
X178260000Y-108990000D02*
X178310000Y-109030000D01*
D14*
G36*
X179386160Y-108195360D02*
X179411560Y-108180120D01*
X179469980Y-108144560D01*
X179553800Y-108088680D01*
X179652860Y-108022640D01*
X179751920Y-107956600D01*
X179833200Y-107903260D01*
X179889080Y-107865160D01*
X179914480Y-107852460D01*
X179927180Y-107857540D01*
X179972900Y-107880400D01*
X180041480Y-107915960D01*
X180082120Y-107936280D01*
X180143080Y-107961680D01*
X180176100Y-107969300D01*
X180181180Y-107959140D01*
X180204040Y-107910880D01*
X180239600Y-107829600D01*
X180285320Y-107720380D01*
X180341200Y-107593380D01*
X180397080Y-107458760D01*
X180455500Y-107319060D01*
X180511380Y-107184440D01*
X180559640Y-107065060D01*
X180600280Y-106968540D01*
X180625680Y-106899960D01*
X180635840Y-106872020D01*
X180633300Y-106864400D01*
X180600280Y-106833920D01*
X180546940Y-106793280D01*
X180427560Y-106696760D01*
X180310720Y-106551980D01*
X180239600Y-106386880D01*
X180216740Y-106201460D01*
X180237060Y-106031280D01*
X180303100Y-105868720D01*
X180417400Y-105721400D01*
X180557100Y-105612180D01*
X180719660Y-105543600D01*
X180900000Y-105520740D01*
X181072720Y-105541060D01*
X181240360Y-105607100D01*
X181387680Y-105718860D01*
X181451180Y-105789980D01*
X181537540Y-105939840D01*
X181585800Y-106097320D01*
X181590880Y-106137960D01*
X181583260Y-106313220D01*
X181532460Y-106483400D01*
X181438480Y-106633260D01*
X181308940Y-106757720D01*
X181293700Y-106767880D01*
X181235280Y-106813600D01*
X181194640Y-106844080D01*
X181164160Y-106869480D01*
X181387680Y-107407960D01*
X181423240Y-107491780D01*
X181484200Y-107639100D01*
X181537540Y-107766100D01*
X181580720Y-107867700D01*
X181611200Y-107933740D01*
X181623900Y-107961680D01*
X181623900Y-107964220D01*
X181644220Y-107966760D01*
X181684860Y-107951520D01*
X181761060Y-107915960D01*
X181809320Y-107890560D01*
X181867740Y-107862620D01*
X181893140Y-107852460D01*
X181916000Y-107865160D01*
X181969340Y-107900720D01*
X182050620Y-107954060D01*
X182147140Y-108017560D01*
X182238580Y-108081060D01*
X182322400Y-108136940D01*
X182383360Y-108175040D01*
X182413840Y-108192820D01*
X182418920Y-108192820D01*
X182444320Y-108177580D01*
X182492580Y-108136940D01*
X182566240Y-108068360D01*
X182670380Y-107964220D01*
X182685620Y-107948980D01*
X182771980Y-107862620D01*
X182840560Y-107788960D01*
X182886280Y-107738160D01*
X182904060Y-107715300D01*
X182904060Y-107715300D01*
X182888820Y-107684820D01*
X182850720Y-107623860D01*
X182794840Y-107537500D01*
X182726260Y-107438440D01*
X182548460Y-107179360D01*
X182644980Y-106935520D01*
X182675460Y-106859320D01*
X182713560Y-106770420D01*
X182741500Y-106704380D01*
X182756740Y-106676440D01*
X182782140Y-106666280D01*
X182850720Y-106651040D01*
X182947240Y-106630720D01*
X183061540Y-106610400D01*
X183173300Y-106590080D01*
X183272360Y-106569760D01*
X183343480Y-106557060D01*
X183376500Y-106549440D01*
X183384120Y-106544360D01*
X183391740Y-106529120D01*
X183394280Y-106496100D01*
X183396820Y-106435140D01*
X183399360Y-106341160D01*
X183399360Y-106201460D01*
X183399360Y-106186220D01*
X183396820Y-106056680D01*
X183394280Y-105950000D01*
X183391740Y-105883960D01*
X183386660Y-105856020D01*
X183386660Y-105856020D01*
X183356180Y-105848400D01*
X183285060Y-105833160D01*
X183186000Y-105815380D01*
X183066620Y-105792520D01*
X183059000Y-105789980D01*
X182942160Y-105767120D01*
X182843100Y-105746800D01*
X182771980Y-105731560D01*
X182744040Y-105721400D01*
X182736420Y-105713780D01*
X182713560Y-105668060D01*
X182680540Y-105594400D01*
X182639900Y-105505500D01*
X182601800Y-105411520D01*
X182568780Y-105327700D01*
X182545920Y-105266740D01*
X182538300Y-105238800D01*
X182540840Y-105236260D01*
X182558620Y-105208320D01*
X182599260Y-105147360D01*
X182655140Y-105063540D01*
X182723720Y-104961940D01*
X182728800Y-104954320D01*
X182797380Y-104855260D01*
X182853260Y-104768900D01*
X182888820Y-104710480D01*
X182904060Y-104682540D01*
X182904060Y-104680000D01*
X182881200Y-104649520D01*
X182830400Y-104593640D01*
X182756740Y-104517440D01*
X182670380Y-104428540D01*
X182642440Y-104403140D01*
X182543380Y-104306620D01*
X182477340Y-104245660D01*
X182434160Y-104212640D01*
X182413840Y-104205020D01*
X182413840Y-104205020D01*
X182383360Y-104222800D01*
X182319860Y-104263440D01*
X182236040Y-104321860D01*
X182134440Y-104390440D01*
X182126820Y-104395520D01*
X182027760Y-104464100D01*
X181943940Y-104519980D01*
X181885520Y-104560620D01*
X181857580Y-104575860D01*
X181855040Y-104575860D01*
X181814400Y-104563160D01*
X181743280Y-104537760D01*
X181654380Y-104504740D01*
X181562940Y-104466640D01*
X181479120Y-104431080D01*
X181415620Y-104403140D01*
X181385140Y-104385360D01*
X181385140Y-104385360D01*
X181374980Y-104349800D01*
X181357200Y-104273600D01*
X181336880Y-104172000D01*
X181311480Y-104050080D01*
X181308940Y-104029760D01*
X181286080Y-103910380D01*
X181268300Y-103811320D01*
X181253060Y-103742740D01*
X181245440Y-103714800D01*
X181230200Y-103712260D01*
X181171780Y-103707180D01*
X181082880Y-103704640D01*
X180973660Y-103704640D01*
X180861900Y-103704640D01*
X180752680Y-103707180D01*
X180658700Y-103709720D01*
X180590120Y-103714800D01*
X180562180Y-103719880D01*
X180562180Y-103722420D01*
X180552020Y-103760520D01*
X180534240Y-103834180D01*
X180513920Y-103938320D01*
X180491060Y-104060240D01*
X180485980Y-104083100D01*
X180463120Y-104199940D01*
X180442800Y-104299000D01*
X180430100Y-104365040D01*
X180422480Y-104392980D01*
X180409780Y-104398060D01*
X180361520Y-104418380D01*
X180282780Y-104451400D01*
X180183720Y-104492040D01*
X179955120Y-104583480D01*
X179673180Y-104392980D01*
X179647780Y-104375200D01*
X179546180Y-104306620D01*
X179464900Y-104250740D01*
X179406480Y-104212640D01*
X179383620Y-104199940D01*
X179381080Y-104199940D01*
X179353140Y-104225340D01*
X179297260Y-104278680D01*
X179221060Y-104352340D01*
X179132160Y-104438700D01*
X179068660Y-104504740D01*
X178989920Y-104583480D01*
X178941660Y-104636820D01*
X178913720Y-104669840D01*
X178906100Y-104690160D01*
X178908640Y-104705400D01*
X178926420Y-104733340D01*
X178967060Y-104794300D01*
X179025480Y-104880660D01*
X179094060Y-104979720D01*
X179149940Y-105063540D01*
X179210900Y-105157520D01*
X179249000Y-105223560D01*
X179264240Y-105256580D01*
X179259160Y-105269280D01*
X179241380Y-105325160D01*
X179205820Y-105408980D01*
X179165180Y-105508040D01*
X179066120Y-105729020D01*
X178921340Y-105756960D01*
X178832440Y-105774740D01*
X178710520Y-105797600D01*
X178591140Y-105820460D01*
X178408260Y-105856020D01*
X178400640Y-106531660D01*
X178428580Y-106544360D01*
X178456520Y-106551980D01*
X178525100Y-106567220D01*
X178621620Y-106587540D01*
X178738460Y-106607860D01*
X178834980Y-106625640D01*
X178934040Y-106645960D01*
X179005160Y-106658660D01*
X179035640Y-106666280D01*
X179045800Y-106676440D01*
X179068660Y-106724700D01*
X179104220Y-106800900D01*
X179144860Y-106892340D01*
X179182960Y-106986320D01*
X179218520Y-107075220D01*
X179241380Y-107141260D01*
X179251540Y-107174280D01*
X179238840Y-107202220D01*
X179200740Y-107260640D01*
X179147400Y-107341920D01*
X179078820Y-107440980D01*
X179012780Y-107537500D01*
X178954360Y-107621320D01*
X178916260Y-107682280D01*
X178898480Y-107710220D01*
X178908640Y-107728000D01*
X178946740Y-107776260D01*
X179020400Y-107852460D01*
X179132160Y-107961680D01*
X179149940Y-107979460D01*
X179236300Y-108063280D01*
X179309960Y-108131860D01*
X179363300Y-108177580D01*
X179386160Y-108195360D01*
X179386160Y-108195360D01*
G37*
X179386160Y-108195360D02*
X179411560Y-108180120D01*
X179469980Y-108144560D01*
X179553800Y-108088680D01*
X179652860Y-108022640D01*
X179751920Y-107956600D01*
X179833200Y-107903260D01*
X179889080Y-107865160D01*
X179914480Y-107852460D01*
X179927180Y-107857540D01*
X179972900Y-107880400D01*
X180041480Y-107915960D01*
X180082120Y-107936280D01*
X180143080Y-107961680D01*
X180176100Y-107969300D01*
X180181180Y-107959140D01*
X180204040Y-107910880D01*
X180239600Y-107829600D01*
X180285320Y-107720380D01*
X180341200Y-107593380D01*
X180397080Y-107458760D01*
X180455500Y-107319060D01*
X180511380Y-107184440D01*
X180559640Y-107065060D01*
X180600280Y-106968540D01*
X180625680Y-106899960D01*
X180635840Y-106872020D01*
X180633300Y-106864400D01*
X180600280Y-106833920D01*
X180546940Y-106793280D01*
X180427560Y-106696760D01*
X180310720Y-106551980D01*
X180239600Y-106386880D01*
X180216740Y-106201460D01*
X180237060Y-106031280D01*
X180303100Y-105868720D01*
X180417400Y-105721400D01*
X180557100Y-105612180D01*
X180719660Y-105543600D01*
X180900000Y-105520740D01*
X181072720Y-105541060D01*
X181240360Y-105607100D01*
X181387680Y-105718860D01*
X181451180Y-105789980D01*
X181537540Y-105939840D01*
X181585800Y-106097320D01*
X181590880Y-106137960D01*
X181583260Y-106313220D01*
X181532460Y-106483400D01*
X181438480Y-106633260D01*
X181308940Y-106757720D01*
X181293700Y-106767880D01*
X181235280Y-106813600D01*
X181194640Y-106844080D01*
X181164160Y-106869480D01*
X181387680Y-107407960D01*
X181423240Y-107491780D01*
X181484200Y-107639100D01*
X181537540Y-107766100D01*
X181580720Y-107867700D01*
X181611200Y-107933740D01*
X181623900Y-107961680D01*
X181623900Y-107964220D01*
X181644220Y-107966760D01*
X181684860Y-107951520D01*
X181761060Y-107915960D01*
X181809320Y-107890560D01*
X181867740Y-107862620D01*
X181893140Y-107852460D01*
X181916000Y-107865160D01*
X181969340Y-107900720D01*
X182050620Y-107954060D01*
X182147140Y-108017560D01*
X182238580Y-108081060D01*
X182322400Y-108136940D01*
X182383360Y-108175040D01*
X182413840Y-108192820D01*
X182418920Y-108192820D01*
X182444320Y-108177580D01*
X182492580Y-108136940D01*
X182566240Y-108068360D01*
X182670380Y-107964220D01*
X182685620Y-107948980D01*
X182771980Y-107862620D01*
X182840560Y-107788960D01*
X182886280Y-107738160D01*
X182904060Y-107715300D01*
X182904060Y-107715300D01*
X182888820Y-107684820D01*
X182850720Y-107623860D01*
X182794840Y-107537500D01*
X182726260Y-107438440D01*
X182548460Y-107179360D01*
X182644980Y-106935520D01*
X182675460Y-106859320D01*
X182713560Y-106770420D01*
X182741500Y-106704380D01*
X182756740Y-106676440D01*
X182782140Y-106666280D01*
X182850720Y-106651040D01*
X182947240Y-106630720D01*
X183061540Y-106610400D01*
X183173300Y-106590080D01*
X183272360Y-106569760D01*
X183343480Y-106557060D01*
X183376500Y-106549440D01*
X183384120Y-106544360D01*
X183391740Y-106529120D01*
X183394280Y-106496100D01*
X183396820Y-106435140D01*
X183399360Y-106341160D01*
X183399360Y-106201460D01*
X183399360Y-106186220D01*
X183396820Y-106056680D01*
X183394280Y-105950000D01*
X183391740Y-105883960D01*
X183386660Y-105856020D01*
X183386660Y-105856020D01*
X183356180Y-105848400D01*
X183285060Y-105833160D01*
X183186000Y-105815380D01*
X183066620Y-105792520D01*
X183059000Y-105789980D01*
X182942160Y-105767120D01*
X182843100Y-105746800D01*
X182771980Y-105731560D01*
X182744040Y-105721400D01*
X182736420Y-105713780D01*
X182713560Y-105668060D01*
X182680540Y-105594400D01*
X182639900Y-105505500D01*
X182601800Y-105411520D01*
X182568780Y-105327700D01*
X182545920Y-105266740D01*
X182538300Y-105238800D01*
X182540840Y-105236260D01*
X182558620Y-105208320D01*
X182599260Y-105147360D01*
X182655140Y-105063540D01*
X182723720Y-104961940D01*
X182728800Y-104954320D01*
X182797380Y-104855260D01*
X182853260Y-104768900D01*
X182888820Y-104710480D01*
X182904060Y-104682540D01*
X182904060Y-104680000D01*
X182881200Y-104649520D01*
X182830400Y-104593640D01*
X182756740Y-104517440D01*
X182670380Y-104428540D01*
X182642440Y-104403140D01*
X182543380Y-104306620D01*
X182477340Y-104245660D01*
X182434160Y-104212640D01*
X182413840Y-104205020D01*
X182413840Y-104205020D01*
X182383360Y-104222800D01*
X182319860Y-104263440D01*
X182236040Y-104321860D01*
X182134440Y-104390440D01*
X182126820Y-104395520D01*
X182027760Y-104464100D01*
X181943940Y-104519980D01*
X181885520Y-104560620D01*
X181857580Y-104575860D01*
X181855040Y-104575860D01*
X181814400Y-104563160D01*
X181743280Y-104537760D01*
X181654380Y-104504740D01*
X181562940Y-104466640D01*
X181479120Y-104431080D01*
X181415620Y-104403140D01*
X181385140Y-104385360D01*
X181385140Y-104385360D01*
X181374980Y-104349800D01*
X181357200Y-104273600D01*
X181336880Y-104172000D01*
X181311480Y-104050080D01*
X181308940Y-104029760D01*
X181286080Y-103910380D01*
X181268300Y-103811320D01*
X181253060Y-103742740D01*
X181245440Y-103714800D01*
X181230200Y-103712260D01*
X181171780Y-103707180D01*
X181082880Y-103704640D01*
X180973660Y-103704640D01*
X180861900Y-103704640D01*
X180752680Y-103707180D01*
X180658700Y-103709720D01*
X180590120Y-103714800D01*
X180562180Y-103719880D01*
X180562180Y-103722420D01*
X180552020Y-103760520D01*
X180534240Y-103834180D01*
X180513920Y-103938320D01*
X180491060Y-104060240D01*
X180485980Y-104083100D01*
X180463120Y-104199940D01*
X180442800Y-104299000D01*
X180430100Y-104365040D01*
X180422480Y-104392980D01*
X180409780Y-104398060D01*
X180361520Y-104418380D01*
X180282780Y-104451400D01*
X180183720Y-104492040D01*
X179955120Y-104583480D01*
X179673180Y-104392980D01*
X179647780Y-104375200D01*
X179546180Y-104306620D01*
X179464900Y-104250740D01*
X179406480Y-104212640D01*
X179383620Y-104199940D01*
X179381080Y-104199940D01*
X179353140Y-104225340D01*
X179297260Y-104278680D01*
X179221060Y-104352340D01*
X179132160Y-104438700D01*
X179068660Y-104504740D01*
X178989920Y-104583480D01*
X178941660Y-104636820D01*
X178913720Y-104669840D01*
X178906100Y-104690160D01*
X178908640Y-104705400D01*
X178926420Y-104733340D01*
X178967060Y-104794300D01*
X179025480Y-104880660D01*
X179094060Y-104979720D01*
X179149940Y-105063540D01*
X179210900Y-105157520D01*
X179249000Y-105223560D01*
X179264240Y-105256580D01*
X179259160Y-105269280D01*
X179241380Y-105325160D01*
X179205820Y-105408980D01*
X179165180Y-105508040D01*
X179066120Y-105729020D01*
X178921340Y-105756960D01*
X178832440Y-105774740D01*
X178710520Y-105797600D01*
X178591140Y-105820460D01*
X178408260Y-105856020D01*
X178400640Y-106531660D01*
X178428580Y-106544360D01*
X178456520Y-106551980D01*
X178525100Y-106567220D01*
X178621620Y-106587540D01*
X178738460Y-106607860D01*
X178834980Y-106625640D01*
X178934040Y-106645960D01*
X179005160Y-106658660D01*
X179035640Y-106666280D01*
X179045800Y-106676440D01*
X179068660Y-106724700D01*
X179104220Y-106800900D01*
X179144860Y-106892340D01*
X179182960Y-106986320D01*
X179218520Y-107075220D01*
X179241380Y-107141260D01*
X179251540Y-107174280D01*
X179238840Y-107202220D01*
X179200740Y-107260640D01*
X179147400Y-107341920D01*
X179078820Y-107440980D01*
X179012780Y-107537500D01*
X178954360Y-107621320D01*
X178916260Y-107682280D01*
X178898480Y-107710220D01*
X178908640Y-107728000D01*
X178946740Y-107776260D01*
X179020400Y-107852460D01*
X179132160Y-107961680D01*
X179149940Y-107979460D01*
X179236300Y-108063280D01*
X179309960Y-108131860D01*
X179363300Y-108177580D01*
X179386160Y-108195360D01*
D15*
G36*
X178102900Y-115847876D02*
X178148719Y-115848658D01*
X178186610Y-115850799D01*
X178218762Y-115854717D01*
X178247361Y-115860826D01*
X178274597Y-115869542D01*
X178302656Y-115881279D01*
X178318425Y-115888776D01*
X178356463Y-115912256D01*
X178392066Y-115943329D01*
X178422625Y-115979430D01*
X178441571Y-116009980D01*
X178455935Y-116040129D01*
X178465674Y-116067871D01*
X178472232Y-116097931D01*
X178475484Y-116121044D01*
X178479375Y-116153358D01*
X178430837Y-116156572D01*
X178403060Y-116158027D01*
X178370649Y-116159145D01*
X178339132Y-116159752D01*
X178328255Y-116159813D01*
X178274210Y-116159840D01*
X178270704Y-116141152D01*
X178259102Y-116104228D01*
X178239601Y-116072979D01*
X178212960Y-116048347D01*
X178183222Y-116032505D01*
X178158418Y-116025821D01*
X178127035Y-116021665D01*
X178092351Y-116020098D01*
X178057643Y-116021180D01*
X178026190Y-116024973D01*
X178007987Y-116029237D01*
X177976336Y-116042315D01*
X177951321Y-116059787D01*
X177933836Y-116080609D01*
X177924773Y-116103734D01*
X177924744Y-116126710D01*
X177932585Y-116146366D01*
X177947415Y-116166216D01*
X177966615Y-116183148D01*
X177977959Y-116190020D01*
X177995654Y-116197663D01*
X178021423Y-116206969D01*
X178053429Y-116217360D01*
X178089837Y-116228255D01*
X178128811Y-116239078D01*
X178155298Y-116245962D01*
X178213287Y-116261336D01*
X178262418Y-116276093D01*
X178303926Y-116290768D01*
X178339047Y-116305897D01*
X178369017Y-116322017D01*
X178395072Y-116339663D01*
X178418447Y-116359371D01*
X178419910Y-116360743D01*
X178454260Y-116399265D01*
X178479789Y-116441953D01*
X178496745Y-116489420D01*
X178505379Y-116542280D01*
X178506671Y-116574062D01*
X178501973Y-116627603D01*
X178488108Y-116678676D01*
X178465779Y-116726101D01*
X178435685Y-116768699D01*
X178398526Y-116805290D01*
X178355003Y-116834695D01*
X178350492Y-116837109D01*
X178314863Y-116853634D01*
X178278024Y-116866121D01*
X178237922Y-116874996D01*
X178192503Y-116880688D01*
X178139715Y-116883624D01*
X178125760Y-116883966D01*
X178094116Y-116884271D01*
X178063604Y-116884007D01*
X178036679Y-116883234D01*
X178015798Y-116882014D01*
X178006380Y-116880973D01*
X177943747Y-116866886D01*
X177887407Y-116845129D01*
X177837638Y-116815916D01*
X177794717Y-116779462D01*
X177758922Y-116735983D01*
X177730531Y-116685695D01*
X177719283Y-116658297D01*
X177712037Y-116636407D01*
X177705473Y-116612938D01*
X177700066Y-116590114D01*
X177696290Y-116570161D01*
X177694620Y-116555301D01*
X177695529Y-116547761D01*
X177695680Y-116547585D01*
X177701180Y-116546329D01*
X177714835Y-116544257D01*
X177734695Y-116541596D01*
X177758811Y-116538576D01*
X177785231Y-116535425D01*
X177812006Y-116532373D01*
X177837185Y-116529646D01*
X177858817Y-116527475D01*
X177874953Y-116526088D01*
X177882357Y-116525699D01*
X177888560Y-116529871D01*
X177894802Y-116543014D01*
X177899018Y-116556547D01*
X177915789Y-116602434D01*
X177938271Y-116640188D01*
X177966331Y-116669634D01*
X177999837Y-116690597D01*
X178000548Y-116690922D01*
X178038630Y-116704060D01*
X178079913Y-116711073D01*
X178122436Y-116712204D01*
X178164238Y-116707700D01*
X178203357Y-116697805D01*
X178237834Y-116682766D01*
X178265706Y-116662828D01*
X178271494Y-116657017D01*
X178285170Y-116637520D01*
X178296168Y-116613299D01*
X178302570Y-116589048D01*
X178303448Y-116578746D01*
X178301042Y-116561049D01*
X178294840Y-116541552D01*
X178292130Y-116535607D01*
X178284277Y-116522387D01*
X178274370Y-116510857D01*
X178261301Y-116500494D01*
X178243965Y-116490774D01*
X178221253Y-116481172D01*
X178192060Y-116471165D01*
X178155280Y-116460228D01*
X178109804Y-116447838D01*
X178102900Y-116446015D01*
X178046010Y-116430669D01*
X177997917Y-116416757D01*
X177957447Y-116403764D01*
X177923425Y-116391175D01*
X177894677Y-116378475D01*
X177870029Y-116365148D01*
X177848306Y-116350679D01*
X177828335Y-116334553D01*
X177810315Y-116317627D01*
X177776594Y-116278802D01*
X177752412Y-116238380D01*
X177737148Y-116194882D01*
X177730181Y-116146831D01*
X177729580Y-116125299D01*
X177734527Y-116074932D01*
X177748805Y-116027629D01*
X177771847Y-115984172D01*
X177803084Y-115945342D01*
X177841947Y-115911921D01*
X177887869Y-115884690D01*
X177912400Y-115873989D01*
X177937008Y-115864980D01*
X177959807Y-115858221D01*
X177982922Y-115853422D01*
X178008473Y-115850291D01*
X178038586Y-115848538D01*
X178075381Y-115847870D01*
X178102900Y-115847876D01*
X178102900Y-115847876D01*
G37*
X178102900Y-115847876D02*
X178148719Y-115848658D01*
X178186610Y-115850799D01*
X178218762Y-115854717D01*
X178247361Y-115860826D01*
X178274597Y-115869542D01*
X178302656Y-115881279D01*
X178318425Y-115888776D01*
X178356463Y-115912256D01*
X178392066Y-115943329D01*
X178422625Y-115979430D01*
X178441571Y-116009980D01*
X178455935Y-116040129D01*
X178465674Y-116067871D01*
X178472232Y-116097931D01*
X178475484Y-116121044D01*
X178479375Y-116153358D01*
X178430837Y-116156572D01*
X178403060Y-116158027D01*
X178370649Y-116159145D01*
X178339132Y-116159752D01*
X178328255Y-116159813D01*
X178274210Y-116159840D01*
X178270704Y-116141152D01*
X178259102Y-116104228D01*
X178239601Y-116072979D01*
X178212960Y-116048347D01*
X178183222Y-116032505D01*
X178158418Y-116025821D01*
X178127035Y-116021665D01*
X178092351Y-116020098D01*
X178057643Y-116021180D01*
X178026190Y-116024973D01*
X178007987Y-116029237D01*
X177976336Y-116042315D01*
X177951321Y-116059787D01*
X177933836Y-116080609D01*
X177924773Y-116103734D01*
X177924744Y-116126710D01*
X177932585Y-116146366D01*
X177947415Y-116166216D01*
X177966615Y-116183148D01*
X177977959Y-116190020D01*
X177995654Y-116197663D01*
X178021423Y-116206969D01*
X178053429Y-116217360D01*
X178089837Y-116228255D01*
X178128811Y-116239078D01*
X178155298Y-116245962D01*
X178213287Y-116261336D01*
X178262418Y-116276093D01*
X178303926Y-116290768D01*
X178339047Y-116305897D01*
X178369017Y-116322017D01*
X178395072Y-116339663D01*
X178418447Y-116359371D01*
X178419910Y-116360743D01*
X178454260Y-116399265D01*
X178479789Y-116441953D01*
X178496745Y-116489420D01*
X178505379Y-116542280D01*
X178506671Y-116574062D01*
X178501973Y-116627603D01*
X178488108Y-116678676D01*
X178465779Y-116726101D01*
X178435685Y-116768699D01*
X178398526Y-116805290D01*
X178355003Y-116834695D01*
X178350492Y-116837109D01*
X178314863Y-116853634D01*
X178278024Y-116866121D01*
X178237922Y-116874996D01*
X178192503Y-116880688D01*
X178139715Y-116883624D01*
X178125760Y-116883966D01*
X178094116Y-116884271D01*
X178063604Y-116884007D01*
X178036679Y-116883234D01*
X178015798Y-116882014D01*
X178006380Y-116880973D01*
X177943747Y-116866886D01*
X177887407Y-116845129D01*
X177837638Y-116815916D01*
X177794717Y-116779462D01*
X177758922Y-116735983D01*
X177730531Y-116685695D01*
X177719283Y-116658297D01*
X177712037Y-116636407D01*
X177705473Y-116612938D01*
X177700066Y-116590114D01*
X177696290Y-116570161D01*
X177694620Y-116555301D01*
X177695529Y-116547761D01*
X177695680Y-116547585D01*
X177701180Y-116546329D01*
X177714835Y-116544257D01*
X177734695Y-116541596D01*
X177758811Y-116538576D01*
X177785231Y-116535425D01*
X177812006Y-116532373D01*
X177837185Y-116529646D01*
X177858817Y-116527475D01*
X177874953Y-116526088D01*
X177882357Y-116525699D01*
X177888560Y-116529871D01*
X177894802Y-116543014D01*
X177899018Y-116556547D01*
X177915789Y-116602434D01*
X177938271Y-116640188D01*
X177966331Y-116669634D01*
X177999837Y-116690597D01*
X178000548Y-116690922D01*
X178038630Y-116704060D01*
X178079913Y-116711073D01*
X178122436Y-116712204D01*
X178164238Y-116707700D01*
X178203357Y-116697805D01*
X178237834Y-116682766D01*
X178265706Y-116662828D01*
X178271494Y-116657017D01*
X178285170Y-116637520D01*
X178296168Y-116613299D01*
X178302570Y-116589048D01*
X178303448Y-116578746D01*
X178301042Y-116561049D01*
X178294840Y-116541552D01*
X178292130Y-116535607D01*
X178284277Y-116522387D01*
X178274370Y-116510857D01*
X178261301Y-116500494D01*
X178243965Y-116490774D01*
X178221253Y-116481172D01*
X178192060Y-116471165D01*
X178155280Y-116460228D01*
X178109804Y-116447838D01*
X178102900Y-116446015D01*
X178046010Y-116430669D01*
X177997917Y-116416757D01*
X177957447Y-116403764D01*
X177923425Y-116391175D01*
X177894677Y-116378475D01*
X177870029Y-116365148D01*
X177848306Y-116350679D01*
X177828335Y-116334553D01*
X177810315Y-116317627D01*
X177776594Y-116278802D01*
X177752412Y-116238380D01*
X177737148Y-116194882D01*
X177730181Y-116146831D01*
X177729580Y-116125299D01*
X177734527Y-116074932D01*
X177748805Y-116027629D01*
X177771847Y-115984172D01*
X177803084Y-115945342D01*
X177841947Y-115911921D01*
X177887869Y-115884690D01*
X177912400Y-115873989D01*
X177937008Y-115864980D01*
X177959807Y-115858221D01*
X177982922Y-115853422D01*
X178008473Y-115850291D01*
X178038586Y-115848538D01*
X178075381Y-115847870D01*
X178102900Y-115847876D01*
G36*
X181607875Y-115863429D02*
X181655938Y-115873281D01*
X181699019Y-115890391D01*
X181738727Y-115915389D01*
X181774430Y-115946656D01*
X181798629Y-115972491D01*
X181816346Y-115995838D01*
X181829740Y-116019559D01*
X181830310Y-116020754D01*
X181837513Y-116036567D01*
X181842255Y-116049596D01*
X181845047Y-116062733D01*
X181846402Y-116078873D01*
X181846831Y-116100907D01*
X181846860Y-116114226D01*
X181846705Y-116139916D01*
X181845893Y-116158299D01*
X181843902Y-116172230D01*
X181840210Y-116184562D01*
X181834296Y-116198149D01*
X181829830Y-116207346D01*
X181809473Y-116240326D01*
X181782566Y-116271836D01*
X181752208Y-116298523D01*
X181734769Y-116310162D01*
X181711077Y-116324046D01*
X181738328Y-116334134D01*
X181783388Y-116355908D01*
X181821799Y-116385131D01*
X181852996Y-116421186D01*
X181876409Y-116463453D01*
X181888204Y-116497660D01*
X181892689Y-116523503D01*
X181894623Y-116555382D01*
X181894033Y-116589506D01*
X181890943Y-116622083D01*
X181887250Y-116642171D01*
X181876220Y-116679357D01*
X181861031Y-116712391D01*
X181840170Y-116743829D01*
X181812123Y-116776225D01*
X181801282Y-116787313D01*
X181769162Y-116817098D01*
X181738899Y-116839620D01*
X181707571Y-116856585D01*
X181672259Y-116869697D01*
X181649197Y-116876109D01*
X181612369Y-116882634D01*
X181570220Y-116885590D01*
X181526962Y-116884927D01*
X181486804Y-116880598D01*
X181474026Y-116878156D01*
X181422698Y-116861849D01*
X181374928Y-116836647D01*
X181331955Y-116803547D01*
X181295019Y-116763544D01*
X181265358Y-116717635D01*
X181259293Y-116705495D01*
X181251823Y-116687379D01*
X181244815Y-116666419D01*
X181238857Y-116645002D01*
X181234537Y-116625519D01*
X181232443Y-116610358D01*
X181233162Y-116601907D01*
X181233643Y-116601276D01*
X181239229Y-116599916D01*
X181252902Y-116597566D01*
X181272667Y-116594504D01*
X181296529Y-116591008D01*
X181322494Y-116587352D01*
X181348567Y-116583815D01*
X181372753Y-116580674D01*
X181393059Y-116578204D01*
X181407489Y-116576683D01*
X181413369Y-116576333D01*
X181416250Y-116580875D01*
X181419954Y-116592442D01*
X181422241Y-116601967D01*
X181434572Y-116640200D01*
X181453159Y-116672242D01*
X181476869Y-116697547D01*
X181504569Y-116715574D01*
X181535125Y-116725777D01*
X181567403Y-116727615D01*
X181600270Y-116720543D01*
X181632593Y-116704017D01*
X181633607Y-116703326D01*
X181659440Y-116679497D01*
X181678860Y-116648404D01*
X181691458Y-116610977D01*
X181696828Y-116568146D01*
X181697000Y-116558505D01*
X181693196Y-116515230D01*
X181682020Y-116478017D01*
X181663821Y-116447371D01*
X181638947Y-116423797D01*
X181607749Y-116407803D01*
X181589380Y-116402698D01*
X181571610Y-116399877D01*
X181554613Y-116399695D01*
X181534203Y-116402276D01*
X181521195Y-116404682D01*
X181502306Y-116408134D01*
X181487643Y-116410325D01*
X181479715Y-116410899D01*
X181479044Y-116410720D01*
X181479018Y-116405438D01*
X181480143Y-116392290D01*
X181482149Y-116373468D01*
X181484767Y-116351167D01*
X181487728Y-116327580D01*
X181490764Y-116304900D01*
X181493604Y-116285322D01*
X181495980Y-116271039D01*
X181496491Y-116268454D01*
X181499305Y-116262252D01*
X181506149Y-116258268D01*
X181519414Y-116255493D01*
X181530531Y-116254091D01*
X181570583Y-116245695D01*
X181603340Y-116230622D01*
X181628468Y-116209250D01*
X181645630Y-116181959D01*
X181654492Y-116149125D01*
X181654965Y-116113659D01*
X181649231Y-116084232D01*
X181639025Y-116063081D01*
X181619120Y-116041626D01*
X181593705Y-116027184D01*
X181564805Y-116019954D01*
X181534445Y-116020132D01*
X181504648Y-116027916D01*
X181477440Y-116043502D01*
X181473236Y-116046926D01*
X181458619Y-116062506D01*
X181445022Y-116082228D01*
X181434314Y-116102814D01*
X181428362Y-116120986D01*
X181427731Y-116126820D01*
X181427206Y-116135411D01*
X181424976Y-116141399D01*
X181419689Y-116144922D01*
X181409990Y-116146124D01*
X181394527Y-116145143D01*
X181371946Y-116142123D01*
X181340893Y-116137204D01*
X181335914Y-116136392D01*
X181307899Y-116131662D01*
X181283426Y-116127241D01*
X181264247Y-116123469D01*
X181252110Y-116120685D01*
X181248722Y-116119490D01*
X181247858Y-116112824D01*
X181250215Y-116098936D01*
X181255146Y-116080000D01*
X181262003Y-116058189D01*
X181270138Y-116035676D01*
X181278905Y-116014634D01*
X181281819Y-116008399D01*
X181306805Y-115968100D01*
X181339646Y-115933391D01*
X181379394Y-115904791D01*
X181425101Y-115882817D01*
X181475820Y-115867986D01*
X181530602Y-115860815D01*
X181553222Y-115860208D01*
X181607875Y-115863429D01*
X181607875Y-115863429D01*
G37*
X181607875Y-115863429D02*
X181655938Y-115873281D01*
X181699019Y-115890391D01*
X181738727Y-115915389D01*
X181774430Y-115946656D01*
X181798629Y-115972491D01*
X181816346Y-115995838D01*
X181829740Y-116019559D01*
X181830310Y-116020754D01*
X181837513Y-116036567D01*
X181842255Y-116049596D01*
X181845047Y-116062733D01*
X181846402Y-116078873D01*
X181846831Y-116100907D01*
X181846860Y-116114226D01*
X181846705Y-116139916D01*
X181845893Y-116158299D01*
X181843902Y-116172230D01*
X181840210Y-116184562D01*
X181834296Y-116198149D01*
X181829830Y-116207346D01*
X181809473Y-116240326D01*
X181782566Y-116271836D01*
X181752208Y-116298523D01*
X181734769Y-116310162D01*
X181711077Y-116324046D01*
X181738328Y-116334134D01*
X181783388Y-116355908D01*
X181821799Y-116385131D01*
X181852996Y-116421186D01*
X181876409Y-116463453D01*
X181888204Y-116497660D01*
X181892689Y-116523503D01*
X181894623Y-116555382D01*
X181894033Y-116589506D01*
X181890943Y-116622083D01*
X181887250Y-116642171D01*
X181876220Y-116679357D01*
X181861031Y-116712391D01*
X181840170Y-116743829D01*
X181812123Y-116776225D01*
X181801282Y-116787313D01*
X181769162Y-116817098D01*
X181738899Y-116839620D01*
X181707571Y-116856585D01*
X181672259Y-116869697D01*
X181649197Y-116876109D01*
X181612369Y-116882634D01*
X181570220Y-116885590D01*
X181526962Y-116884927D01*
X181486804Y-116880598D01*
X181474026Y-116878156D01*
X181422698Y-116861849D01*
X181374928Y-116836647D01*
X181331955Y-116803547D01*
X181295019Y-116763544D01*
X181265358Y-116717635D01*
X181259293Y-116705495D01*
X181251823Y-116687379D01*
X181244815Y-116666419D01*
X181238857Y-116645002D01*
X181234537Y-116625519D01*
X181232443Y-116610358D01*
X181233162Y-116601907D01*
X181233643Y-116601276D01*
X181239229Y-116599916D01*
X181252902Y-116597566D01*
X181272667Y-116594504D01*
X181296529Y-116591008D01*
X181322494Y-116587352D01*
X181348567Y-116583815D01*
X181372753Y-116580674D01*
X181393059Y-116578204D01*
X181407489Y-116576683D01*
X181413369Y-116576333D01*
X181416250Y-116580875D01*
X181419954Y-116592442D01*
X181422241Y-116601967D01*
X181434572Y-116640200D01*
X181453159Y-116672242D01*
X181476869Y-116697547D01*
X181504569Y-116715574D01*
X181535125Y-116725777D01*
X181567403Y-116727615D01*
X181600270Y-116720543D01*
X181632593Y-116704017D01*
X181633607Y-116703326D01*
X181659440Y-116679497D01*
X181678860Y-116648404D01*
X181691458Y-116610977D01*
X181696828Y-116568146D01*
X181697000Y-116558505D01*
X181693196Y-116515230D01*
X181682020Y-116478017D01*
X181663821Y-116447371D01*
X181638947Y-116423797D01*
X181607749Y-116407803D01*
X181589380Y-116402698D01*
X181571610Y-116399877D01*
X181554613Y-116399695D01*
X181534203Y-116402276D01*
X181521195Y-116404682D01*
X181502306Y-116408134D01*
X181487643Y-116410325D01*
X181479715Y-116410899D01*
X181479044Y-116410720D01*
X181479018Y-116405438D01*
X181480143Y-116392290D01*
X181482149Y-116373468D01*
X181484767Y-116351167D01*
X181487728Y-116327580D01*
X181490764Y-116304900D01*
X181493604Y-116285322D01*
X181495980Y-116271039D01*
X181496491Y-116268454D01*
X181499305Y-116262252D01*
X181506149Y-116258268D01*
X181519414Y-116255493D01*
X181530531Y-116254091D01*
X181570583Y-116245695D01*
X181603340Y-116230622D01*
X181628468Y-116209250D01*
X181645630Y-116181959D01*
X181654492Y-116149125D01*
X181654965Y-116113659D01*
X181649231Y-116084232D01*
X181639025Y-116063081D01*
X181619120Y-116041626D01*
X181593705Y-116027184D01*
X181564805Y-116019954D01*
X181534445Y-116020132D01*
X181504648Y-116027916D01*
X181477440Y-116043502D01*
X181473236Y-116046926D01*
X181458619Y-116062506D01*
X181445022Y-116082228D01*
X181434314Y-116102814D01*
X181428362Y-116120986D01*
X181427731Y-116126820D01*
X181427206Y-116135411D01*
X181424976Y-116141399D01*
X181419689Y-116144922D01*
X181409990Y-116146124D01*
X181394527Y-116145143D01*
X181371946Y-116142123D01*
X181340893Y-116137204D01*
X181335914Y-116136392D01*
X181307899Y-116131662D01*
X181283426Y-116127241D01*
X181264247Y-116123469D01*
X181252110Y-116120685D01*
X181248722Y-116119490D01*
X181247858Y-116112824D01*
X181250215Y-116098936D01*
X181255146Y-116080000D01*
X181262003Y-116058189D01*
X181270138Y-116035676D01*
X181278905Y-116014634D01*
X181281819Y-116008399D01*
X181306805Y-115968100D01*
X181339646Y-115933391D01*
X181379394Y-115904791D01*
X181425101Y-115882817D01*
X181475820Y-115867986D01*
X181530602Y-115860815D01*
X181553222Y-115860208D01*
X181607875Y-115863429D01*
G36*
X179598960Y-116032840D02*
X179299240Y-116032840D01*
X179299240Y-116865960D01*
X179096040Y-116865960D01*
X179096040Y-116032840D01*
X178801400Y-116032840D01*
X178801400Y-115865200D01*
X179598960Y-115865200D01*
X179598960Y-116032840D01*
X179598960Y-116032840D01*
G37*
X179598960Y-116032840D02*
X179299240Y-116032840D01*
X179299240Y-116865960D01*
X179096040Y-116865960D01*
X179096040Y-116032840D01*
X178801400Y-116032840D01*
X178801400Y-115865200D01*
X179598960Y-115865200D01*
X179598960Y-116032840D01*
G36*
X180884200Y-116865960D02*
X180697820Y-116865960D01*
X180694508Y-116793570D01*
X180693899Y-116775222D01*
X180693309Y-116747872D01*
X180692751Y-116712674D01*
X180692236Y-116670785D01*
X180691775Y-116623361D01*
X180691380Y-116571560D01*
X180691062Y-116516536D01*
X180690832Y-116459447D01*
X180690713Y-116408760D01*
X180690229Y-116096340D01*
X180593546Y-116481150D01*
X180496864Y-116865960D01*
X180300997Y-116865960D01*
X180107555Y-116091260D01*
X180107257Y-116478610D01*
X180106960Y-116865960D01*
X179913920Y-116865960D01*
X179913920Y-115865051D01*
X180067001Y-115866395D01*
X180220082Y-115867740D01*
X180309533Y-116204402D01*
X180324556Y-116260723D01*
X180338853Y-116313908D01*
X180352210Y-116363182D01*
X180364412Y-116407771D01*
X180375244Y-116446901D01*
X180384490Y-116479796D01*
X180391934Y-116505684D01*
X180397363Y-116523789D01*
X180400559Y-116533338D01*
X180401334Y-116534602D01*
X180402996Y-116528704D01*
X180407023Y-116513803D01*
X180413194Y-116490723D01*
X180421293Y-116460286D01*
X180431100Y-116423317D01*
X180442397Y-116380639D01*
X180454967Y-116333075D01*
X180468590Y-116281448D01*
X180483049Y-116226583D01*
X180490591Y-116197940D01*
X180577498Y-115867740D01*
X180730849Y-115866395D01*
X180884200Y-115865051D01*
X180884200Y-116865960D01*
X180884200Y-116865960D01*
G37*
X180884200Y-116865960D02*
X180697820Y-116865960D01*
X180694508Y-116793570D01*
X180693899Y-116775222D01*
X180693309Y-116747872D01*
X180692751Y-116712674D01*
X180692236Y-116670785D01*
X180691775Y-116623361D01*
X180691380Y-116571560D01*
X180691062Y-116516536D01*
X180690832Y-116459447D01*
X180690713Y-116408760D01*
X180690229Y-116096340D01*
X180593546Y-116481150D01*
X180496864Y-116865960D01*
X180300997Y-116865960D01*
X180107555Y-116091260D01*
X180107257Y-116478610D01*
X180106960Y-116865960D01*
X179913920Y-116865960D01*
X179913920Y-115865051D01*
X180067001Y-115866395D01*
X180220082Y-115867740D01*
X180309533Y-116204402D01*
X180324556Y-116260723D01*
X180338853Y-116313908D01*
X180352210Y-116363182D01*
X180364412Y-116407771D01*
X180375244Y-116446901D01*
X180384490Y-116479796D01*
X180391934Y-116505684D01*
X180397363Y-116523789D01*
X180400559Y-116533338D01*
X180401334Y-116534602D01*
X180402996Y-116528704D01*
X180407023Y-116513803D01*
X180413194Y-116490723D01*
X180421293Y-116460286D01*
X180431100Y-116423317D01*
X180442397Y-116380639D01*
X180454967Y-116333075D01*
X180468590Y-116281448D01*
X180483049Y-116226583D01*
X180490591Y-116197940D01*
X180577498Y-115867740D01*
X180730849Y-115866395D01*
X180884200Y-115865051D01*
X180884200Y-116865960D01*
G36*
X182598087Y-115863674D02*
X182652459Y-115874505D01*
X182700894Y-115892859D01*
X182744095Y-115918988D01*
X182773878Y-115944218D01*
X182806979Y-115981414D01*
X182830996Y-116020897D01*
X182846518Y-116064099D01*
X182854133Y-116112449D01*
X182855164Y-116141857D01*
X182851566Y-116193041D01*
X182840659Y-116242494D01*
X182822013Y-116291027D01*
X182795204Y-116339449D01*
X182759802Y-116388570D01*
X182715381Y-116439201D01*
X182679072Y-116475609D01*
X182639365Y-116513897D01*
X182602606Y-116549725D01*
X182569435Y-116582449D01*
X182540492Y-116611421D01*
X182516417Y-116635996D01*
X182497849Y-116655529D01*
X182485428Y-116669372D01*
X182479871Y-116676730D01*
X182473882Y-116688160D01*
X182855240Y-116688160D01*
X182855240Y-116865960D01*
X182184680Y-116865960D01*
X182184680Y-116854072D01*
X182186752Y-116836154D01*
X182192432Y-116811711D01*
X182200908Y-116783367D01*
X182211371Y-116753748D01*
X182223013Y-116725477D01*
X182226999Y-116716840D01*
X182237895Y-116695090D01*
X182249608Y-116674286D01*
X182262860Y-116653566D01*
X182278374Y-116632068D01*
X182296874Y-116608931D01*
X182319083Y-116583295D01*
X182345724Y-116554296D01*
X182377519Y-116521074D01*
X182415193Y-116482768D01*
X182459469Y-116438515D01*
X182466413Y-116431620D01*
X182504007Y-116394269D01*
X182535088Y-116363231D01*
X182560385Y-116337696D01*
X182580628Y-116316850D01*
X182596548Y-116299884D01*
X182608873Y-116285986D01*
X182618334Y-116274343D01*
X182625661Y-116264146D01*
X182631584Y-116254583D01*
X182636831Y-116244842D01*
X182639828Y-116238843D01*
X182649180Y-116219176D01*
X182655010Y-116204072D01*
X182658147Y-116189823D01*
X182659416Y-116172718D01*
X182659645Y-116149943D01*
X182659236Y-116125243D01*
X182657697Y-116107684D01*
X182654532Y-116094269D01*
X182649248Y-116081998D01*
X182648077Y-116079761D01*
X182629729Y-116055479D01*
X182604395Y-116036278D01*
X182574757Y-116024111D01*
X182570252Y-116023045D01*
X182545104Y-116018716D01*
X182524415Y-116018286D01*
X182503202Y-116021908D01*
X182490099Y-116025506D01*
X182459087Y-116039623D01*
X182434378Y-116061690D01*
X182415964Y-116091720D01*
X182403835Y-116129725D01*
X182400833Y-116146521D01*
X182397222Y-116171302D01*
X182370961Y-116168347D01*
X182355589Y-116166737D01*
X182333108Y-116164533D01*
X182306529Y-116162025D01*
X182278863Y-116159501D01*
X182278660Y-116159483D01*
X182253720Y-116157034D01*
X182232511Y-116154542D01*
X182217050Y-116152272D01*
X182209356Y-116150494D01*
X182208966Y-116150259D01*
X182207590Y-116143114D01*
X182209103Y-116128558D01*
X182212959Y-116108745D01*
X182218614Y-116085828D01*
X182225524Y-116061959D01*
X182233144Y-116039291D01*
X182240930Y-116019977D01*
X182243057Y-116015480D01*
X182269652Y-115972786D01*
X182303818Y-115936503D01*
X182345020Y-115906913D01*
X182392727Y-115884298D01*
X182446406Y-115868939D01*
X182505523Y-115861116D01*
X182537078Y-115860120D01*
X182598087Y-115863674D01*
X182598087Y-115863674D01*
G37*
X182598087Y-115863674D02*
X182652459Y-115874505D01*
X182700894Y-115892859D01*
X182744095Y-115918988D01*
X182773878Y-115944218D01*
X182806979Y-115981414D01*
X182830996Y-116020897D01*
X182846518Y-116064099D01*
X182854133Y-116112449D01*
X182855164Y-116141857D01*
X182851566Y-116193041D01*
X182840659Y-116242494D01*
X182822013Y-116291027D01*
X182795204Y-116339449D01*
X182759802Y-116388570D01*
X182715381Y-116439201D01*
X182679072Y-116475609D01*
X182639365Y-116513897D01*
X182602606Y-116549725D01*
X182569435Y-116582449D01*
X182540492Y-116611421D01*
X182516417Y-116635996D01*
X182497849Y-116655529D01*
X182485428Y-116669372D01*
X182479871Y-116676730D01*
X182473882Y-116688160D01*
X182855240Y-116688160D01*
X182855240Y-116865960D01*
X182184680Y-116865960D01*
X182184680Y-116854072D01*
X182186752Y-116836154D01*
X182192432Y-116811711D01*
X182200908Y-116783367D01*
X182211371Y-116753748D01*
X182223013Y-116725477D01*
X182226999Y-116716840D01*
X182237895Y-116695090D01*
X182249608Y-116674286D01*
X182262860Y-116653566D01*
X182278374Y-116632068D01*
X182296874Y-116608931D01*
X182319083Y-116583295D01*
X182345724Y-116554296D01*
X182377519Y-116521074D01*
X182415193Y-116482768D01*
X182459469Y-116438515D01*
X182466413Y-116431620D01*
X182504007Y-116394269D01*
X182535088Y-116363231D01*
X182560385Y-116337696D01*
X182580628Y-116316850D01*
X182596548Y-116299884D01*
X182608873Y-116285986D01*
X182618334Y-116274343D01*
X182625661Y-116264146D01*
X182631584Y-116254583D01*
X182636831Y-116244842D01*
X182639828Y-116238843D01*
X182649180Y-116219176D01*
X182655010Y-116204072D01*
X182658147Y-116189823D01*
X182659416Y-116172718D01*
X182659645Y-116149943D01*
X182659236Y-116125243D01*
X182657697Y-116107684D01*
X182654532Y-116094269D01*
X182649248Y-116081998D01*
X182648077Y-116079761D01*
X182629729Y-116055479D01*
X182604395Y-116036278D01*
X182574757Y-116024111D01*
X182570252Y-116023045D01*
X182545104Y-116018716D01*
X182524415Y-116018286D01*
X182503202Y-116021908D01*
X182490099Y-116025506D01*
X182459087Y-116039623D01*
X182434378Y-116061690D01*
X182415964Y-116091720D01*
X182403835Y-116129725D01*
X182400833Y-116146521D01*
X182397222Y-116171302D01*
X182370961Y-116168347D01*
X182355589Y-116166737D01*
X182333108Y-116164533D01*
X182306529Y-116162025D01*
X182278863Y-116159501D01*
X182278660Y-116159483D01*
X182253720Y-116157034D01*
X182232511Y-116154542D01*
X182217050Y-116152272D01*
X182209356Y-116150494D01*
X182208966Y-116150259D01*
X182207590Y-116143114D01*
X182209103Y-116128558D01*
X182212959Y-116108745D01*
X182218614Y-116085828D01*
X182225524Y-116061959D01*
X182233144Y-116039291D01*
X182240930Y-116019977D01*
X182243057Y-116015480D01*
X182269652Y-115972786D01*
X182303818Y-115936503D01*
X182345020Y-115906913D01*
X182392727Y-115884298D01*
X182446406Y-115868939D01*
X182505523Y-115861116D01*
X182537078Y-115860120D01*
X182598087Y-115863674D01*
G36*
X178861866Y-112780172D02*
X178987581Y-112793392D01*
X179028449Y-112799666D01*
X179051627Y-112803497D01*
X179072615Y-112806970D01*
X179088326Y-112809573D01*
X179093500Y-112810433D01*
X179128338Y-112817447D01*
X179169988Y-112827798D01*
X179215962Y-112840724D01*
X179263774Y-112855468D01*
X179310937Y-112871268D01*
X179354964Y-112887365D01*
X179385600Y-112899669D01*
X179497046Y-112952046D01*
X179606035Y-113013923D01*
X179711718Y-113084768D01*
X179813245Y-113164048D01*
X179830100Y-113178385D01*
X179856641Y-113202184D01*
X179888022Y-113231845D01*
X179922445Y-113265539D01*
X179958111Y-113301437D01*
X179993221Y-113337710D01*
X180025976Y-113372530D01*
X180054577Y-113404067D01*
X180072842Y-113425206D01*
X180087680Y-113443372D01*
X180106627Y-113467269D01*
X180128568Y-113495426D01*
X180152391Y-113526373D01*
X180176981Y-113558638D01*
X180201223Y-113590750D01*
X180224004Y-113621238D01*
X180244210Y-113648632D01*
X180260726Y-113671460D01*
X180272439Y-113688250D01*
X180275028Y-113692167D01*
X180283539Y-113703694D01*
X180290589Y-113710469D01*
X180292482Y-113711217D01*
X180297065Y-113707277D01*
X180306183Y-113696394D01*
X180318687Y-113680045D01*
X180333425Y-113659705D01*
X180340176Y-113650080D01*
X180407347Y-113558107D01*
X180481208Y-113465521D01*
X180559052Y-113375564D01*
X180638170Y-113291478D01*
X180647911Y-113281645D01*
X180733605Y-113199847D01*
X180818877Y-113127099D01*
X180905069Y-113062443D01*
X180993523Y-113004924D01*
X181085581Y-112953585D01*
X181156891Y-112918975D01*
X181198372Y-112901123D01*
X181244724Y-112883078D01*
X181293847Y-112865513D01*
X181343638Y-112849100D01*
X181391997Y-112834511D01*
X181436823Y-112822420D01*
X181476014Y-112813498D01*
X181498880Y-112809512D01*
X181518618Y-112806410D01*
X181540478Y-112802598D01*
X181547140Y-112801349D01*
X181581276Y-112795235D01*
X181614641Y-112790297D01*
X181649060Y-112786389D01*
X181686358Y-112783361D01*
X181728362Y-112781065D01*
X181776896Y-112779352D01*
X181832890Y-112778090D01*
X181880837Y-112777384D01*
X181920288Y-112777149D01*
X181950890Y-112777381D01*
X181972291Y-112778073D01*
X181984139Y-112779222D01*
X181986560Y-112780284D01*
X181991202Y-112783171D01*
X182003416Y-112786084D01*
X182020635Y-112788424D01*
X182021977Y-112788552D01*
X182042629Y-112791017D01*
X182069054Y-112794938D01*
X182097086Y-112799672D01*
X182112147Y-112802479D01*
X182135842Y-112807055D01*
X182156953Y-112811084D01*
X182172794Y-112814055D01*
X182179600Y-112815282D01*
X182194686Y-112818592D01*
X182216756Y-112824344D01*
X182243155Y-112831760D01*
X182271233Y-112840059D01*
X182298336Y-112848461D01*
X182321811Y-112856188D01*
X182335787Y-112861201D01*
X182355877Y-112868603D01*
X182374846Y-112875163D01*
X182387880Y-112879249D01*
X182401532Y-112884174D01*
X182422223Y-112893019D01*
X182448064Y-112904854D01*
X182477167Y-112918748D01*
X182507643Y-112933770D01*
X182537605Y-112948988D01*
X182565163Y-112963472D01*
X182588430Y-112976290D01*
X182605517Y-112986512D01*
X182605785Y-112986685D01*
X182622847Y-112997403D01*
X182636787Y-113005569D01*
X182645345Y-113009881D01*
X182646678Y-113010240D01*
X182652383Y-113013110D01*
X182664248Y-113020861D01*
X182680362Y-113032202D01*
X182693510Y-113041857D01*
X182713401Y-113056614D01*
X182732208Y-113070401D01*
X182747204Y-113081229D01*
X182753074Y-113085362D01*
X182790779Y-113113989D01*
X182832090Y-113149890D01*
X182875606Y-113191500D01*
X182919922Y-113237256D01*
X182963637Y-113285592D01*
X183005346Y-113334944D01*
X183043648Y-113383747D01*
X183077139Y-113430437D01*
X183104415Y-113473448D01*
X183110221Y-113483663D01*
X183118921Y-113499234D01*
X183130715Y-113520129D01*
X183143632Y-113542861D01*
X183149591Y-113553295D01*
X183160344Y-113572376D01*
X183168885Y-113588084D01*
X183174137Y-113598403D01*
X183175280Y-113601323D01*
X183177179Y-113606847D01*
X183182416Y-113620012D01*
X183190300Y-113639133D01*
X183200140Y-113662523D01*
X183205971Y-113676214D01*
X183217398Y-113703569D01*
X183227910Y-113729905D01*
X183236564Y-113752773D01*
X183242414Y-113769722D01*
X183243698Y-113774073D01*
X183258395Y-113829412D01*
X183270449Y-113876910D01*
X183280216Y-113918431D01*
X183288052Y-113955841D01*
X183294313Y-113991005D01*
X183299357Y-114025788D01*
X183303539Y-114062054D01*
X183307217Y-114101671D01*
X183307915Y-114110060D01*
X183310434Y-114140838D01*
X183312209Y-114164299D01*
X183313238Y-114183025D01*
X183313522Y-114199595D01*
X183313062Y-114216589D01*
X183311855Y-114236586D01*
X183309904Y-114262168D01*
X183307914Y-114287042D01*
X183298883Y-114369239D01*
X183285044Y-114453290D01*
X183267061Y-114536028D01*
X183245597Y-114614284D01*
X183228703Y-114665130D01*
X183217858Y-114693190D01*
X183203733Y-114726828D01*
X183187593Y-114763277D01*
X183170704Y-114799767D01*
X183154333Y-114833531D01*
X183139745Y-114861799D01*
X183134159Y-114871886D01*
X183117367Y-114900201D01*
X183097422Y-114932114D01*
X183075831Y-114965366D01*
X183054096Y-114997698D01*
X183033722Y-115026854D01*
X183016213Y-115050574D01*
X183009207Y-115059442D01*
X182990852Y-115081282D01*
X182968376Y-115107063D01*
X182943561Y-115134832D01*
X182918187Y-115162638D01*
X182894036Y-115188528D01*
X182872887Y-115210552D01*
X182856589Y-115226695D01*
X182790268Y-115284413D01*
X182715815Y-115340300D01*
X182635238Y-115393197D01*
X182550541Y-115441943D01*
X182463733Y-115485376D01*
X182376819Y-115522336D01*
X182298266Y-115549693D01*
X182224574Y-115570923D01*
X182153991Y-115587972D01*
X182084322Y-115601143D01*
X182013376Y-115610735D01*
X181938960Y-115617049D01*
X181858882Y-115620387D01*
X181778280Y-115621088D01*
X181705180Y-115619952D01*
X181639808Y-115617000D01*
X181579845Y-115611935D01*
X181522975Y-115604460D01*
X181466878Y-115594278D01*
X181409238Y-115581094D01*
X181356843Y-115567177D01*
X181253385Y-115534109D01*
X181154507Y-115493893D01*
X181059375Y-115446023D01*
X180967156Y-115389996D01*
X180877018Y-115325308D01*
X180788125Y-115251453D01*
X180703508Y-115171780D01*
X180650131Y-115117278D01*
X180599976Y-115062991D01*
X180551809Y-115007391D01*
X180504394Y-114948947D01*
X180456496Y-114886132D01*
X180406881Y-114817415D01*
X180354313Y-114741268D01*
X180346575Y-114729820D01*
X180330385Y-114706214D01*
X180315846Y-114685771D01*
X180304008Y-114669908D01*
X180295923Y-114660045D01*
X180292958Y-114657441D01*
X180287750Y-114660822D01*
X180278933Y-114670918D01*
X180268169Y-114685760D01*
X180265057Y-114690461D01*
X180240106Y-114728040D01*
X180211216Y-114770102D01*
X180179987Y-114814424D01*
X180148019Y-114858780D01*
X180116914Y-114900948D01*
X180088272Y-114938702D01*
X180066618Y-114966209D01*
X179982100Y-115066313D01*
X179897686Y-115156748D01*
X179812806Y-115237981D01*
X179726894Y-115310480D01*
X179639382Y-115374714D01*
X179549702Y-115431150D01*
X179457287Y-115480257D01*
X179424458Y-115495677D01*
X179319317Y-115538667D01*
X179213191Y-115572297D01*
X179104265Y-115597062D01*
X178991841Y-115613336D01*
X178970190Y-115615069D01*
X178940670Y-115616599D01*
X178905220Y-115617899D01*
X178865779Y-115618944D01*
X178824285Y-115619707D01*
X178782680Y-115620162D01*
X178742900Y-115620283D01*
X178706885Y-115620042D01*
X178676575Y-115619415D01*
X178653909Y-115618374D01*
X178649000Y-115617987D01*
X178591861Y-115612462D01*
X178542574Y-115606820D01*
X178498835Y-115600667D01*
X178458338Y-115593609D01*
X178418781Y-115585250D01*
X178377858Y-115575199D01*
X178341660Y-115565414D01*
X178242764Y-115534710D01*
X178150574Y-115499319D01*
X178062223Y-115457958D01*
X177974846Y-115409345D01*
X177928906Y-115380816D01*
X177848801Y-115324814D01*
X177770285Y-115261062D01*
X177694923Y-115191153D01*
X177624283Y-115116683D01*
X177559931Y-115039244D01*
X177503433Y-114960430D01*
X177481269Y-114925401D01*
X177428012Y-114830198D01*
X177382527Y-114733442D01*
X177345322Y-114636415D01*
X177316907Y-114540402D01*
X177302741Y-114475684D01*
X177298011Y-114451767D01*
X177293465Y-114431436D01*
X177289617Y-114416824D01*
X177286978Y-114410063D01*
X177286952Y-114410034D01*
X177285905Y-114404040D01*
X177285001Y-114389334D01*
X177284239Y-114367204D01*
X177283619Y-114338943D01*
X177283142Y-114305841D01*
X177282807Y-114269189D01*
X177282615Y-114230278D01*
X177282595Y-114213329D01*
X177777148Y-114213329D01*
X177777922Y-114256250D01*
X177779627Y-114296294D01*
X177782264Y-114331296D01*
X177785832Y-114359090D01*
X177787276Y-114366600D01*
X177812900Y-114462181D01*
X177847280Y-114552610D01*
X177890426Y-114637906D01*
X177942347Y-114718087D01*
X178003054Y-114793172D01*
X178031063Y-114823080D01*
X178104900Y-114891653D01*
X178183914Y-114951619D01*
X178267713Y-115002782D01*
X178355906Y-115044943D01*
X178448103Y-115077904D01*
X178543911Y-115101468D01*
X178599193Y-115110512D01*
X178624279Y-115113776D01*
X178646480Y-115116309D01*
X178667615Y-115118187D01*
X178689502Y-115119490D01*
X178713961Y-115120297D01*
X178742808Y-115120686D01*
X178777863Y-115120735D01*
X178820944Y-115120524D01*
X178829340Y-115120467D01*
X178872127Y-115119942D01*
X178906944Y-115118933D01*
X178935974Y-115117296D01*
X178961399Y-115114885D01*
X178985404Y-115111554D01*
X178999520Y-115109147D01*
X179093564Y-115087407D01*
X179182950Y-115056825D01*
X179268640Y-115017018D01*
X179342420Y-114973627D01*
X179409090Y-114926120D01*
X179476980Y-114869412D01*
X179545324Y-114804266D01*
X179613353Y-114731443D01*
X179680301Y-114651707D01*
X179725968Y-114592378D01*
X179745118Y-114565978D01*
X179768140Y-114533219D01*
X179794050Y-114495589D01*
X179821862Y-114454576D01*
X179850590Y-114411668D01*
X179879250Y-114368353D01*
X179906857Y-114326118D01*
X179932424Y-114286451D01*
X179954968Y-114250841D01*
X179973501Y-114220775D01*
X179985488Y-114200476D01*
X179989334Y-114194132D01*
X179992289Y-114188901D01*
X179993874Y-114183785D01*
X179993659Y-114178870D01*
X180589560Y-114178870D01*
X180592301Y-114185874D01*
X180600078Y-114200243D01*
X180612222Y-114220939D01*
X180628064Y-114246919D01*
X180646933Y-114277143D01*
X180668161Y-114310570D01*
X180691078Y-114346161D01*
X180715015Y-114382873D01*
X180739302Y-114419667D01*
X180763270Y-114455502D01*
X180786250Y-114489338D01*
X180807572Y-114520133D01*
X180823798Y-114543010D01*
X180895703Y-114638734D01*
X180966724Y-114724708D01*
X181037188Y-114801269D01*
X181107420Y-114868754D01*
X181177749Y-114927502D01*
X181240004Y-114972256D01*
X181275163Y-114993851D01*
X181316079Y-115016062D01*
X181359851Y-115037523D01*
X181403576Y-115056869D01*
X181444352Y-115072731D01*
X181473480Y-115082162D01*
X181527772Y-115096394D01*
X181579796Y-115107377D01*
X181631505Y-115115281D01*
X181684851Y-115120275D01*
X181741786Y-115122529D01*
X181804263Y-115122211D01*
X181874234Y-115119490D01*
X181892580Y-115118486D01*
X181987808Y-115109419D01*
X182076970Y-115093308D01*
X182161662Y-115069778D01*
X182243482Y-115038456D01*
X182253764Y-115033894D01*
X182341928Y-114988656D01*
X182424759Y-114934934D01*
X182501681Y-114873222D01*
X182572121Y-114804012D01*
X182635506Y-114727797D01*
X182673274Y-114673777D01*
X182718631Y-114594815D01*
X182755121Y-114511229D01*
X182782551Y-114423681D01*
X182800728Y-114332835D01*
X182809461Y-114239355D01*
X182810266Y-114201433D01*
X182809537Y-114152199D01*
X182806950Y-114109170D01*
X182802049Y-114068486D01*
X182794376Y-114026287D01*
X182784203Y-113981697D01*
X182757664Y-113894204D01*
X182721717Y-113809670D01*
X182676864Y-113728811D01*
X182623607Y-113652344D01*
X182562447Y-113580986D01*
X182493885Y-113515452D01*
X182418425Y-113456461D01*
X182414760Y-113453891D01*
X182351242Y-113413847D01*
X182280889Y-113377043D01*
X182206635Y-113344728D01*
X182131411Y-113318152D01*
X182058148Y-113298564D01*
X182042440Y-113295287D01*
X181957026Y-113282541D01*
X181866742Y-113276623D01*
X181774197Y-113277490D01*
X181682005Y-113285097D01*
X181592775Y-113299401D01*
X181575080Y-113303158D01*
X181489260Y-113325647D01*
X181406611Y-113354520D01*
X181326678Y-113390135D01*
X181249010Y-113432851D01*
X181173153Y-113483027D01*
X181098654Y-113541023D01*
X181025059Y-113607196D01*
X180951917Y-113681906D01*
X180878773Y-113765512D01*
X180805175Y-113858372D01*
X180730669Y-113960845D01*
X180713503Y-113985600D01*
X180688627Y-114022063D01*
X180665135Y-114057057D01*
X180643678Y-114089565D01*
X180624907Y-114118570D01*
X180609474Y-114143059D01*
X180598030Y-114162014D01*
X180591226Y-114174420D01*
X180589560Y-114178870D01*
X179993659Y-114178870D01*
X179993611Y-114177788D01*
X179991020Y-114169914D01*
X179985624Y-114159164D01*
X179976942Y-114144544D01*
X179964496Y-114125055D01*
X179947809Y-114099701D01*
X179926399Y-114067485D01*
X179909118Y-114041480D01*
X179833293Y-113931196D01*
X179758523Y-113830667D01*
X179684388Y-113739594D01*
X179610466Y-113657678D01*
X179536338Y-113584622D01*
X179461581Y-113520127D01*
X179385776Y-113463895D01*
X179308501Y-113415628D01*
X179229336Y-113375028D01*
X179147860Y-113341796D01*
X179063652Y-113315635D01*
X178976292Y-113296246D01*
X178885358Y-113283331D01*
X178832865Y-113278825D01*
X178728515Y-113276075D01*
X178628639Y-113282219D01*
X178532579Y-113297384D01*
X178439679Y-113321694D01*
X178349280Y-113355276D01*
X178290860Y-113382484D01*
X178203711Y-113431811D01*
X178123605Y-113488326D01*
X178050803Y-113551691D01*
X177985569Y-113621568D01*
X177928163Y-113697619D01*
X177878850Y-113779504D01*
X177837891Y-113866887D01*
X177805549Y-113959430D01*
X177787256Y-114031320D01*
X177783371Y-114056159D01*
X177780417Y-114088945D01*
X177778396Y-114127511D01*
X177777306Y-114169694D01*
X177777148Y-114213329D01*
X177282595Y-114213329D01*
X177282566Y-114190399D01*
X177282661Y-114150843D01*
X177282898Y-114112900D01*
X177283279Y-114077863D01*
X177283804Y-114047021D01*
X177284472Y-114021665D01*
X177285284Y-114003087D01*
X177286241Y-113992577D01*
X177286905Y-113990680D01*
X177289973Y-113986113D01*
X177293118Y-113974381D01*
X177294829Y-113964010D01*
X177302873Y-113917014D01*
X177315248Y-113863805D01*
X177331247Y-113806990D01*
X177350162Y-113749179D01*
X177361598Y-113717781D01*
X177409012Y-113606217D01*
X177464547Y-113500730D01*
X177528309Y-113401153D01*
X177600405Y-113307317D01*
X177675733Y-113224336D01*
X177726956Y-113173887D01*
X177775266Y-113130175D01*
X177823000Y-113091239D01*
X177872495Y-113055117D01*
X177897160Y-113038470D01*
X177920096Y-113023308D01*
X177942256Y-113008596D01*
X177961000Y-112996092D01*
X177972968Y-112988039D01*
X177990044Y-112977556D01*
X178014137Y-112964261D01*
X178043220Y-112949131D01*
X178075264Y-112933145D01*
X178108240Y-112917282D01*
X178140121Y-112902520D01*
X178168877Y-112889837D01*
X178192480Y-112880212D01*
X178207040Y-112875146D01*
X178214335Y-112872798D01*
X178229373Y-112867818D01*
X178250272Y-112860834D01*
X178275150Y-112852473D01*
X178288320Y-112848031D01*
X178320258Y-112837491D01*
X178348427Y-112828874D01*
X178375300Y-112821583D01*
X178403350Y-112815020D01*
X178435050Y-112808589D01*
X178472875Y-112801692D01*
X178499140Y-112797151D01*
X178617072Y-112782049D01*
X178738172Y-112776390D01*
X178861866Y-112780172D01*
X178861866Y-112780172D01*
G37*
X178861866Y-112780172D02*
X178987581Y-112793392D01*
X179028449Y-112799666D01*
X179051627Y-112803497D01*
X179072615Y-112806970D01*
X179088326Y-112809573D01*
X179093500Y-112810433D01*
X179128338Y-112817447D01*
X179169988Y-112827798D01*
X179215962Y-112840724D01*
X179263774Y-112855468D01*
X179310937Y-112871268D01*
X179354964Y-112887365D01*
X179385600Y-112899669D01*
X179497046Y-112952046D01*
X179606035Y-113013923D01*
X179711718Y-113084768D01*
X179813245Y-113164048D01*
X179830100Y-113178385D01*
X179856641Y-113202184D01*
X179888022Y-113231845D01*
X179922445Y-113265539D01*
X179958111Y-113301437D01*
X179993221Y-113337710D01*
X180025976Y-113372530D01*
X180054577Y-113404067D01*
X180072842Y-113425206D01*
X180087680Y-113443372D01*
X180106627Y-113467269D01*
X180128568Y-113495426D01*
X180152391Y-113526373D01*
X180176981Y-113558638D01*
X180201223Y-113590750D01*
X180224004Y-113621238D01*
X180244210Y-113648632D01*
X180260726Y-113671460D01*
X180272439Y-113688250D01*
X180275028Y-113692167D01*
X180283539Y-113703694D01*
X180290589Y-113710469D01*
X180292482Y-113711217D01*
X180297065Y-113707277D01*
X180306183Y-113696394D01*
X180318687Y-113680045D01*
X180333425Y-113659705D01*
X180340176Y-113650080D01*
X180407347Y-113558107D01*
X180481208Y-113465521D01*
X180559052Y-113375564D01*
X180638170Y-113291478D01*
X180647911Y-113281645D01*
X180733605Y-113199847D01*
X180818877Y-113127099D01*
X180905069Y-113062443D01*
X180993523Y-113004924D01*
X181085581Y-112953585D01*
X181156891Y-112918975D01*
X181198372Y-112901123D01*
X181244724Y-112883078D01*
X181293847Y-112865513D01*
X181343638Y-112849100D01*
X181391997Y-112834511D01*
X181436823Y-112822420D01*
X181476014Y-112813498D01*
X181498880Y-112809512D01*
X181518618Y-112806410D01*
X181540478Y-112802598D01*
X181547140Y-112801349D01*
X181581276Y-112795235D01*
X181614641Y-112790297D01*
X181649060Y-112786389D01*
X181686358Y-112783361D01*
X181728362Y-112781065D01*
X181776896Y-112779352D01*
X181832890Y-112778090D01*
X181880837Y-112777384D01*
X181920288Y-112777149D01*
X181950890Y-112777381D01*
X181972291Y-112778073D01*
X181984139Y-112779222D01*
X181986560Y-112780284D01*
X181991202Y-112783171D01*
X182003416Y-112786084D01*
X182020635Y-112788424D01*
X182021977Y-112788552D01*
X182042629Y-112791017D01*
X182069054Y-112794938D01*
X182097086Y-112799672D01*
X182112147Y-112802479D01*
X182135842Y-112807055D01*
X182156953Y-112811084D01*
X182172794Y-112814055D01*
X182179600Y-112815282D01*
X182194686Y-112818592D01*
X182216756Y-112824344D01*
X182243155Y-112831760D01*
X182271233Y-112840059D01*
X182298336Y-112848461D01*
X182321811Y-112856188D01*
X182335787Y-112861201D01*
X182355877Y-112868603D01*
X182374846Y-112875163D01*
X182387880Y-112879249D01*
X182401532Y-112884174D01*
X182422223Y-112893019D01*
X182448064Y-112904854D01*
X182477167Y-112918748D01*
X182507643Y-112933770D01*
X182537605Y-112948988D01*
X182565163Y-112963472D01*
X182588430Y-112976290D01*
X182605517Y-112986512D01*
X182605785Y-112986685D01*
X182622847Y-112997403D01*
X182636787Y-113005569D01*
X182645345Y-113009881D01*
X182646678Y-113010240D01*
X182652383Y-113013110D01*
X182664248Y-113020861D01*
X182680362Y-113032202D01*
X182693510Y-113041857D01*
X182713401Y-113056614D01*
X182732208Y-113070401D01*
X182747204Y-113081229D01*
X182753074Y-113085362D01*
X182790779Y-113113989D01*
X182832090Y-113149890D01*
X182875606Y-113191500D01*
X182919922Y-113237256D01*
X182963637Y-113285592D01*
X183005346Y-113334944D01*
X183043648Y-113383747D01*
X183077139Y-113430437D01*
X183104415Y-113473448D01*
X183110221Y-113483663D01*
X183118921Y-113499234D01*
X183130715Y-113520129D01*
X183143632Y-113542861D01*
X183149591Y-113553295D01*
X183160344Y-113572376D01*
X183168885Y-113588084D01*
X183174137Y-113598403D01*
X183175280Y-113601323D01*
X183177179Y-113606847D01*
X183182416Y-113620012D01*
X183190300Y-113639133D01*
X183200140Y-113662523D01*
X183205971Y-113676214D01*
X183217398Y-113703569D01*
X183227910Y-113729905D01*
X183236564Y-113752773D01*
X183242414Y-113769722D01*
X183243698Y-113774073D01*
X183258395Y-113829412D01*
X183270449Y-113876910D01*
X183280216Y-113918431D01*
X183288052Y-113955841D01*
X183294313Y-113991005D01*
X183299357Y-114025788D01*
X183303539Y-114062054D01*
X183307217Y-114101671D01*
X183307915Y-114110060D01*
X183310434Y-114140838D01*
X183312209Y-114164299D01*
X183313238Y-114183025D01*
X183313522Y-114199595D01*
X183313062Y-114216589D01*
X183311855Y-114236586D01*
X183309904Y-114262168D01*
X183307914Y-114287042D01*
X183298883Y-114369239D01*
X183285044Y-114453290D01*
X183267061Y-114536028D01*
X183245597Y-114614284D01*
X183228703Y-114665130D01*
X183217858Y-114693190D01*
X183203733Y-114726828D01*
X183187593Y-114763277D01*
X183170704Y-114799767D01*
X183154333Y-114833531D01*
X183139745Y-114861799D01*
X183134159Y-114871886D01*
X183117367Y-114900201D01*
X183097422Y-114932114D01*
X183075831Y-114965366D01*
X183054096Y-114997698D01*
X183033722Y-115026854D01*
X183016213Y-115050574D01*
X183009207Y-115059442D01*
X182990852Y-115081282D01*
X182968376Y-115107063D01*
X182943561Y-115134832D01*
X182918187Y-115162638D01*
X182894036Y-115188528D01*
X182872887Y-115210552D01*
X182856589Y-115226695D01*
X182790268Y-115284413D01*
X182715815Y-115340300D01*
X182635238Y-115393197D01*
X182550541Y-115441943D01*
X182463733Y-115485376D01*
X182376819Y-115522336D01*
X182298266Y-115549693D01*
X182224574Y-115570923D01*
X182153991Y-115587972D01*
X182084322Y-115601143D01*
X182013376Y-115610735D01*
X181938960Y-115617049D01*
X181858882Y-115620387D01*
X181778280Y-115621088D01*
X181705180Y-115619952D01*
X181639808Y-115617000D01*
X181579845Y-115611935D01*
X181522975Y-115604460D01*
X181466878Y-115594278D01*
X181409238Y-115581094D01*
X181356843Y-115567177D01*
X181253385Y-115534109D01*
X181154507Y-115493893D01*
X181059375Y-115446023D01*
X180967156Y-115389996D01*
X180877018Y-115325308D01*
X180788125Y-115251453D01*
X180703508Y-115171780D01*
X180650131Y-115117278D01*
X180599976Y-115062991D01*
X180551809Y-115007391D01*
X180504394Y-114948947D01*
X180456496Y-114886132D01*
X180406881Y-114817415D01*
X180354313Y-114741268D01*
X180346575Y-114729820D01*
X180330385Y-114706214D01*
X180315846Y-114685771D01*
X180304008Y-114669908D01*
X180295923Y-114660045D01*
X180292958Y-114657441D01*
X180287750Y-114660822D01*
X180278933Y-114670918D01*
X180268169Y-114685760D01*
X180265057Y-114690461D01*
X180240106Y-114728040D01*
X180211216Y-114770102D01*
X180179987Y-114814424D01*
X180148019Y-114858780D01*
X180116914Y-114900948D01*
X180088272Y-114938702D01*
X180066618Y-114966209D01*
X179982100Y-115066313D01*
X179897686Y-115156748D01*
X179812806Y-115237981D01*
X179726894Y-115310480D01*
X179639382Y-115374714D01*
X179549702Y-115431150D01*
X179457287Y-115480257D01*
X179424458Y-115495677D01*
X179319317Y-115538667D01*
X179213191Y-115572297D01*
X179104265Y-115597062D01*
X178991841Y-115613336D01*
X178970190Y-115615069D01*
X178940670Y-115616599D01*
X178905220Y-115617899D01*
X178865779Y-115618944D01*
X178824285Y-115619707D01*
X178782680Y-115620162D01*
X178742900Y-115620283D01*
X178706885Y-115620042D01*
X178676575Y-115619415D01*
X178653909Y-115618374D01*
X178649000Y-115617987D01*
X178591861Y-115612462D01*
X178542574Y-115606820D01*
X178498835Y-115600667D01*
X178458338Y-115593609D01*
X178418781Y-115585250D01*
X178377858Y-115575199D01*
X178341660Y-115565414D01*
X178242764Y-115534710D01*
X178150574Y-115499319D01*
X178062223Y-115457958D01*
X177974846Y-115409345D01*
X177928906Y-115380816D01*
X177848801Y-115324814D01*
X177770285Y-115261062D01*
X177694923Y-115191153D01*
X177624283Y-115116683D01*
X177559931Y-115039244D01*
X177503433Y-114960430D01*
X177481269Y-114925401D01*
X177428012Y-114830198D01*
X177382527Y-114733442D01*
X177345322Y-114636415D01*
X177316907Y-114540402D01*
X177302741Y-114475684D01*
X177298011Y-114451767D01*
X177293465Y-114431436D01*
X177289617Y-114416824D01*
X177286978Y-114410063D01*
X177286952Y-114410034D01*
X177285905Y-114404040D01*
X177285001Y-114389334D01*
X177284239Y-114367204D01*
X177283619Y-114338943D01*
X177283142Y-114305841D01*
X177282807Y-114269189D01*
X177282615Y-114230278D01*
X177282595Y-114213329D01*
X177777148Y-114213329D01*
X177777922Y-114256250D01*
X177779627Y-114296294D01*
X177782264Y-114331296D01*
X177785832Y-114359090D01*
X177787276Y-114366600D01*
X177812900Y-114462181D01*
X177847280Y-114552610D01*
X177890426Y-114637906D01*
X177942347Y-114718087D01*
X178003054Y-114793172D01*
X178031063Y-114823080D01*
X178104900Y-114891653D01*
X178183914Y-114951619D01*
X178267713Y-115002782D01*
X178355906Y-115044943D01*
X178448103Y-115077904D01*
X178543911Y-115101468D01*
X178599193Y-115110512D01*
X178624279Y-115113776D01*
X178646480Y-115116309D01*
X178667615Y-115118187D01*
X178689502Y-115119490D01*
X178713961Y-115120297D01*
X178742808Y-115120686D01*
X178777863Y-115120735D01*
X178820944Y-115120524D01*
X178829340Y-115120467D01*
X178872127Y-115119942D01*
X178906944Y-115118933D01*
X178935974Y-115117296D01*
X178961399Y-115114885D01*
X178985404Y-115111554D01*
X178999520Y-115109147D01*
X179093564Y-115087407D01*
X179182950Y-115056825D01*
X179268640Y-115017018D01*
X179342420Y-114973627D01*
X179409090Y-114926120D01*
X179476980Y-114869412D01*
X179545324Y-114804266D01*
X179613353Y-114731443D01*
X179680301Y-114651707D01*
X179725968Y-114592378D01*
X179745118Y-114565978D01*
X179768140Y-114533219D01*
X179794050Y-114495589D01*
X179821862Y-114454576D01*
X179850590Y-114411668D01*
X179879250Y-114368353D01*
X179906857Y-114326118D01*
X179932424Y-114286451D01*
X179954968Y-114250841D01*
X179973501Y-114220775D01*
X179985488Y-114200476D01*
X179989334Y-114194132D01*
X179992289Y-114188901D01*
X179993874Y-114183785D01*
X179993659Y-114178870D01*
X180589560Y-114178870D01*
X180592301Y-114185874D01*
X180600078Y-114200243D01*
X180612222Y-114220939D01*
X180628064Y-114246919D01*
X180646933Y-114277143D01*
X180668161Y-114310570D01*
X180691078Y-114346161D01*
X180715015Y-114382873D01*
X180739302Y-114419667D01*
X180763270Y-114455502D01*
X180786250Y-114489338D01*
X180807572Y-114520133D01*
X180823798Y-114543010D01*
X180895703Y-114638734D01*
X180966724Y-114724708D01*
X181037188Y-114801269D01*
X181107420Y-114868754D01*
X181177749Y-114927502D01*
X181240004Y-114972256D01*
X181275163Y-114993851D01*
X181316079Y-115016062D01*
X181359851Y-115037523D01*
X181403576Y-115056869D01*
X181444352Y-115072731D01*
X181473480Y-115082162D01*
X181527772Y-115096394D01*
X181579796Y-115107377D01*
X181631505Y-115115281D01*
X181684851Y-115120275D01*
X181741786Y-115122529D01*
X181804263Y-115122211D01*
X181874234Y-115119490D01*
X181892580Y-115118486D01*
X181987808Y-115109419D01*
X182076970Y-115093308D01*
X182161662Y-115069778D01*
X182243482Y-115038456D01*
X182253764Y-115033894D01*
X182341928Y-114988656D01*
X182424759Y-114934934D01*
X182501681Y-114873222D01*
X182572121Y-114804012D01*
X182635506Y-114727797D01*
X182673274Y-114673777D01*
X182718631Y-114594815D01*
X182755121Y-114511229D01*
X182782551Y-114423681D01*
X182800728Y-114332835D01*
X182809461Y-114239355D01*
X182810266Y-114201433D01*
X182809537Y-114152199D01*
X182806950Y-114109170D01*
X182802049Y-114068486D01*
X182794376Y-114026287D01*
X182784203Y-113981697D01*
X182757664Y-113894204D01*
X182721717Y-113809670D01*
X182676864Y-113728811D01*
X182623607Y-113652344D01*
X182562447Y-113580986D01*
X182493885Y-113515452D01*
X182418425Y-113456461D01*
X182414760Y-113453891D01*
X182351242Y-113413847D01*
X182280889Y-113377043D01*
X182206635Y-113344728D01*
X182131411Y-113318152D01*
X182058148Y-113298564D01*
X182042440Y-113295287D01*
X181957026Y-113282541D01*
X181866742Y-113276623D01*
X181774197Y-113277490D01*
X181682005Y-113285097D01*
X181592775Y-113299401D01*
X181575080Y-113303158D01*
X181489260Y-113325647D01*
X181406611Y-113354520D01*
X181326678Y-113390135D01*
X181249010Y-113432851D01*
X181173153Y-113483027D01*
X181098654Y-113541023D01*
X181025059Y-113607196D01*
X180951917Y-113681906D01*
X180878773Y-113765512D01*
X180805175Y-113858372D01*
X180730669Y-113960845D01*
X180713503Y-113985600D01*
X180688627Y-114022063D01*
X180665135Y-114057057D01*
X180643678Y-114089565D01*
X180624907Y-114118570D01*
X180609474Y-114143059D01*
X180598030Y-114162014D01*
X180591226Y-114174420D01*
X180589560Y-114178870D01*
X179993659Y-114178870D01*
X179993611Y-114177788D01*
X179991020Y-114169914D01*
X179985624Y-114159164D01*
X179976942Y-114144544D01*
X179964496Y-114125055D01*
X179947809Y-114099701D01*
X179926399Y-114067485D01*
X179909118Y-114041480D01*
X179833293Y-113931196D01*
X179758523Y-113830667D01*
X179684388Y-113739594D01*
X179610466Y-113657678D01*
X179536338Y-113584622D01*
X179461581Y-113520127D01*
X179385776Y-113463895D01*
X179308501Y-113415628D01*
X179229336Y-113375028D01*
X179147860Y-113341796D01*
X179063652Y-113315635D01*
X178976292Y-113296246D01*
X178885358Y-113283331D01*
X178832865Y-113278825D01*
X178728515Y-113276075D01*
X178628639Y-113282219D01*
X178532579Y-113297384D01*
X178439679Y-113321694D01*
X178349280Y-113355276D01*
X178290860Y-113382484D01*
X178203711Y-113431811D01*
X178123605Y-113488326D01*
X178050803Y-113551691D01*
X177985569Y-113621568D01*
X177928163Y-113697619D01*
X177878850Y-113779504D01*
X177837891Y-113866887D01*
X177805549Y-113959430D01*
X177787256Y-114031320D01*
X177783371Y-114056159D01*
X177780417Y-114088945D01*
X177778396Y-114127511D01*
X177777306Y-114169694D01*
X177777148Y-114213329D01*
X177282595Y-114213329D01*
X177282566Y-114190399D01*
X177282661Y-114150843D01*
X177282898Y-114112900D01*
X177283279Y-114077863D01*
X177283804Y-114047021D01*
X177284472Y-114021665D01*
X177285284Y-114003087D01*
X177286241Y-113992577D01*
X177286905Y-113990680D01*
X177289973Y-113986113D01*
X177293118Y-113974381D01*
X177294829Y-113964010D01*
X177302873Y-113917014D01*
X177315248Y-113863805D01*
X177331247Y-113806990D01*
X177350162Y-113749179D01*
X177361598Y-113717781D01*
X177409012Y-113606217D01*
X177464547Y-113500730D01*
X177528309Y-113401153D01*
X177600405Y-113307317D01*
X177675733Y-113224336D01*
X177726956Y-113173887D01*
X177775266Y-113130175D01*
X177823000Y-113091239D01*
X177872495Y-113055117D01*
X177897160Y-113038470D01*
X177920096Y-113023308D01*
X177942256Y-113008596D01*
X177961000Y-112996092D01*
X177972968Y-112988039D01*
X177990044Y-112977556D01*
X178014137Y-112964261D01*
X178043220Y-112949131D01*
X178075264Y-112933145D01*
X178108240Y-112917282D01*
X178140121Y-112902520D01*
X178168877Y-112889837D01*
X178192480Y-112880212D01*
X178207040Y-112875146D01*
X178214335Y-112872798D01*
X178229373Y-112867818D01*
X178250272Y-112860834D01*
X178275150Y-112852473D01*
X178288320Y-112848031D01*
X178320258Y-112837491D01*
X178348427Y-112828874D01*
X178375300Y-112821583D01*
X178403350Y-112815020D01*
X178435050Y-112808589D01*
X178472875Y-112801692D01*
X178499140Y-112797151D01*
X178617072Y-112782049D01*
X178738172Y-112776390D01*
X178861866Y-112780172D01*
D12*
X182656000Y-98100000D02*
G75*
G03X182656000Y-98100000I-2286000J0D01*
G01*
X160014000Y-116524000D02*
X160014000Y-116016000D01*
X159506000Y-116524000D02*
X159506000Y-116016000D01*
X162046000Y-116524000D02*
X162046000Y-116016000D01*
X162554000Y-116524000D02*
X162554000Y-116016000D01*
X164586000Y-116524000D02*
X164586000Y-116016000D01*
X165094000Y-116524000D02*
X165094000Y-116016000D01*
X175254000Y-116524000D02*
X175254000Y-116016000D01*
X174746000Y-116524000D02*
X174746000Y-116016000D01*
X172714000Y-116524000D02*
X172714000Y-116016000D01*
X172206000Y-116524000D02*
X172206000Y-116016000D01*
X167126000Y-116524000D02*
X167126000Y-116016000D01*
X167634000Y-116524000D02*
X167634000Y-116016000D01*
X169666000Y-116524000D02*
X169666000Y-116016000D01*
X170174000Y-116524000D02*
X170174000Y-116016000D01*
X160014000Y-119064000D02*
X160014000Y-118556000D01*
X159506000Y-119064000D02*
X159506000Y-118556000D01*
X162046000Y-119064000D02*
X162046000Y-118556000D01*
X162554000Y-119064000D02*
X162554000Y-118556000D01*
X164586000Y-119064000D02*
X164586000Y-118556000D01*
X165094000Y-119064000D02*
X165094000Y-118556000D01*
X175254000Y-119064000D02*
X175254000Y-118556000D01*
X174746000Y-119064000D02*
X174746000Y-118556000D01*
X172714000Y-119064000D02*
X172714000Y-118556000D01*
X172206000Y-119064000D02*
X172206000Y-118556000D01*
X167126000Y-119064000D02*
X167126000Y-118556000D01*
X167634000Y-119064000D02*
X167634000Y-118556000D01*
X169666000Y-119064000D02*
X169666000Y-118556000D01*
X170174000Y-119064000D02*
X170174000Y-118556000D01*
X176550000Y-115000000D02*
X176550000Y-113850000D01*
X176550000Y-113850000D02*
X175000000Y-113850000D01*
D16*
X179089429Y-95149857D02*
X177565429Y-95149857D01*
X177565429Y-94569285D01*
X177638000Y-94424143D01*
X177710571Y-94351571D01*
X177855714Y-94279000D01*
X178073429Y-94279000D01*
X178218571Y-94351571D01*
X178291143Y-94424143D01*
X178363714Y-94569285D01*
X178363714Y-95149857D01*
X177565429Y-93771000D02*
X177565429Y-92827571D01*
X178146000Y-93335571D01*
X178146000Y-93117857D01*
X178218571Y-92972714D01*
X178291143Y-92900143D01*
X178436286Y-92827571D01*
X178799143Y-92827571D01*
X178944286Y-92900143D01*
X179016857Y-92972714D01*
X179089429Y-93117857D01*
X179089429Y-93553285D01*
X179016857Y-93698428D01*
X178944286Y-93771000D01*
D10*
X156532143Y-97346429D02*
X156532143Y-96746429D01*
X156760715Y-96746429D01*
X156817857Y-96775000D01*
X156846429Y-96803571D01*
X156875000Y-96860714D01*
X156875000Y-96946429D01*
X156846429Y-97003571D01*
X156817857Y-97032143D01*
X156760715Y-97060714D01*
X156532143Y-97060714D01*
X157389286Y-96946429D02*
X157389286Y-97346429D01*
X157246429Y-96717857D02*
X157103572Y-97146429D01*
X157475000Y-97146429D01*
D12*
X166347619Y-104545238D02*
X166300000Y-104640476D01*
X166204762Y-104735714D01*
X166061905Y-104878571D01*
X166014286Y-104973810D01*
X166014286Y-105069048D01*
X166252381Y-105021429D02*
X166204762Y-105116667D01*
X166109524Y-105211905D01*
X165919048Y-105259524D01*
X165585714Y-105259524D01*
X165395238Y-105211905D01*
X165300000Y-105116667D01*
X165252381Y-105021429D01*
X165252381Y-104830952D01*
X165300000Y-104735714D01*
X165395238Y-104640476D01*
X165585714Y-104592857D01*
X165919048Y-104592857D01*
X166109524Y-104640476D01*
X166204762Y-104735714D01*
X166252381Y-104830952D01*
X166252381Y-105021429D01*
X166252381Y-103640476D02*
X166252381Y-104211905D01*
X166252381Y-103926191D02*
X165252381Y-103926191D01*
X165395238Y-104021429D01*
X165490476Y-104116667D01*
X165538095Y-104211905D01*
X178547619Y-104545238D02*
X178500000Y-104640476D01*
X178404762Y-104735714D01*
X178261905Y-104878571D01*
X178214286Y-104973810D01*
X178214286Y-105069048D01*
X178452381Y-105021429D02*
X178404762Y-105116667D01*
X178309524Y-105211905D01*
X178119048Y-105259524D01*
X177785714Y-105259524D01*
X177595238Y-105211905D01*
X177500000Y-105116667D01*
X177452381Y-105021429D01*
X177452381Y-104830952D01*
X177500000Y-104735714D01*
X177595238Y-104640476D01*
X177785714Y-104592857D01*
X178119048Y-104592857D01*
X178309524Y-104640476D01*
X178404762Y-104735714D01*
X178452381Y-104830952D01*
X178452381Y-105021429D01*
X177547619Y-104211905D02*
X177500000Y-104164286D01*
X177452381Y-104069048D01*
X177452381Y-103830952D01*
X177500000Y-103735714D01*
X177547619Y-103688095D01*
X177642857Y-103640476D01*
X177738095Y-103640476D01*
X177880952Y-103688095D01*
X178452381Y-104259524D01*
X178452381Y-103640476D01*
X172447619Y-104545238D02*
X172400000Y-104640476D01*
X172304762Y-104735714D01*
X172161905Y-104878571D01*
X172114286Y-104973810D01*
X172114286Y-105069048D01*
X172352381Y-105021429D02*
X172304762Y-105116667D01*
X172209524Y-105211905D01*
X172019048Y-105259524D01*
X171685714Y-105259524D01*
X171495238Y-105211905D01*
X171400000Y-105116667D01*
X171352381Y-105021429D01*
X171352381Y-104830952D01*
X171400000Y-104735714D01*
X171495238Y-104640476D01*
X171685714Y-104592857D01*
X172019048Y-104592857D01*
X172209524Y-104640476D01*
X172304762Y-104735714D01*
X172352381Y-104830952D01*
X172352381Y-105021429D01*
X171352381Y-104259524D02*
X171352381Y-103640476D01*
X171733333Y-103973810D01*
X171733333Y-103830952D01*
X171780952Y-103735714D01*
X171828571Y-103688095D01*
X171923810Y-103640476D01*
X172161905Y-103640476D01*
X172257143Y-103688095D01*
X172304762Y-103735714D01*
X172352381Y-103830952D01*
X172352381Y-104116667D01*
X172304762Y-104211905D01*
X172257143Y-104259524D01*
X160247619Y-104545238D02*
X160200000Y-104640476D01*
X160104762Y-104735714D01*
X159961905Y-104878571D01*
X159914286Y-104973810D01*
X159914286Y-105069048D01*
X160152381Y-105021429D02*
X160104762Y-105116667D01*
X160009524Y-105211905D01*
X159819048Y-105259524D01*
X159485714Y-105259524D01*
X159295238Y-105211905D01*
X159200000Y-105116667D01*
X159152381Y-105021429D01*
X159152381Y-104830952D01*
X159200000Y-104735714D01*
X159295238Y-104640476D01*
X159485714Y-104592857D01*
X159819048Y-104592857D01*
X160009524Y-104640476D01*
X160104762Y-104735714D01*
X160152381Y-104830952D01*
X160152381Y-105021429D01*
X159485714Y-103735714D02*
X160152381Y-103735714D01*
X159104762Y-103973810D02*
X159819048Y-104211905D01*
X159819048Y-103592857D01*
X161883334Y-113302381D02*
X161550000Y-112826190D01*
X161311905Y-113302381D02*
X161311905Y-112302381D01*
X161692858Y-112302381D01*
X161788096Y-112350000D01*
X161835715Y-112397619D01*
X161883334Y-112492857D01*
X161883334Y-112635714D01*
X161835715Y-112730952D01*
X161788096Y-112778571D01*
X161692858Y-112826190D01*
X161311905Y-112826190D01*
X162835715Y-113302381D02*
X162264286Y-113302381D01*
X162550000Y-113302381D02*
X162550000Y-112302381D01*
X162454762Y-112445238D01*
X162359524Y-112540476D01*
X162264286Y-112588095D01*
X174083334Y-113302381D02*
X173750000Y-112826190D01*
X173511905Y-113302381D02*
X173511905Y-112302381D01*
X173892858Y-112302381D01*
X173988096Y-112350000D01*
X174035715Y-112397619D01*
X174083334Y-112492857D01*
X174083334Y-112635714D01*
X174035715Y-112730952D01*
X173988096Y-112778571D01*
X173892858Y-112826190D01*
X173511905Y-112826190D01*
X174464286Y-112397619D02*
X174511905Y-112350000D01*
X174607143Y-112302381D01*
X174845239Y-112302381D01*
X174940477Y-112350000D01*
X174988096Y-112397619D01*
X175035715Y-112492857D01*
X175035715Y-112588095D01*
X174988096Y-112730952D01*
X174416667Y-113302381D01*
X175035715Y-113302381D01*
X164483334Y-113302381D02*
X164150000Y-112826190D01*
X163911905Y-113302381D02*
X163911905Y-112302381D01*
X164292858Y-112302381D01*
X164388096Y-112350000D01*
X164435715Y-112397619D01*
X164483334Y-112492857D01*
X164483334Y-112635714D01*
X164435715Y-112730952D01*
X164388096Y-112778571D01*
X164292858Y-112826190D01*
X163911905Y-112826190D01*
X164816667Y-112302381D02*
X165435715Y-112302381D01*
X165102381Y-112683333D01*
X165245239Y-112683333D01*
X165340477Y-112730952D01*
X165388096Y-112778571D01*
X165435715Y-112873810D01*
X165435715Y-113111905D01*
X165388096Y-113207143D01*
X165340477Y-113254762D01*
X165245239Y-113302381D01*
X164959524Y-113302381D01*
X164864286Y-113254762D01*
X164816667Y-113207143D01*
X179252381Y-111166666D02*
X178776190Y-111500000D01*
X179252381Y-111738095D02*
X178252381Y-111738095D01*
X178252381Y-111357142D01*
X178300000Y-111261904D01*
X178347619Y-111214285D01*
X178442857Y-111166666D01*
X178585714Y-111166666D01*
X178680952Y-111214285D01*
X178728571Y-111261904D01*
X178776190Y-111357142D01*
X178776190Y-111738095D01*
X178585714Y-110309523D02*
X179252381Y-110309523D01*
X178204762Y-110547619D02*
X178919048Y-110785714D01*
X178919048Y-110166666D01*
X167983334Y-113302381D02*
X167650000Y-112826190D01*
X167411905Y-113302381D02*
X167411905Y-112302381D01*
X167792858Y-112302381D01*
X167888096Y-112350000D01*
X167935715Y-112397619D01*
X167983334Y-112492857D01*
X167983334Y-112635714D01*
X167935715Y-112730952D01*
X167888096Y-112778571D01*
X167792858Y-112826190D01*
X167411905Y-112826190D01*
X168888096Y-112302381D02*
X168411905Y-112302381D01*
X168364286Y-112778571D01*
X168411905Y-112730952D01*
X168507143Y-112683333D01*
X168745239Y-112683333D01*
X168840477Y-112730952D01*
X168888096Y-112778571D01*
X168935715Y-112873810D01*
X168935715Y-113111905D01*
X168888096Y-113207143D01*
X168840477Y-113254762D01*
X168745239Y-113302381D01*
X168507143Y-113302381D01*
X168411905Y-113254762D01*
X168364286Y-113207143D01*
X155783334Y-113302381D02*
X155450000Y-112826190D01*
X155211905Y-113302381D02*
X155211905Y-112302381D01*
X155592858Y-112302381D01*
X155688096Y-112350000D01*
X155735715Y-112397619D01*
X155783334Y-112492857D01*
X155783334Y-112635714D01*
X155735715Y-112730952D01*
X155688096Y-112778571D01*
X155592858Y-112826190D01*
X155211905Y-112826190D01*
X156640477Y-112302381D02*
X156450000Y-112302381D01*
X156354762Y-112350000D01*
X156307143Y-112397619D01*
X156211905Y-112540476D01*
X156164286Y-112730952D01*
X156164286Y-113111905D01*
X156211905Y-113207143D01*
X156259524Y-113254762D01*
X156354762Y-113302381D01*
X156545239Y-113302381D01*
X156640477Y-113254762D01*
X156688096Y-113207143D01*
X156735715Y-113111905D01*
X156735715Y-112873810D01*
X156688096Y-112778571D01*
X156640477Y-112730952D01*
X156545239Y-112683333D01*
X156354762Y-112683333D01*
X156259524Y-112730952D01*
X156211905Y-112778571D01*
X156164286Y-112873810D01*
X170583334Y-113302381D02*
X170250000Y-112826190D01*
X170011905Y-113302381D02*
X170011905Y-112302381D01*
X170392858Y-112302381D01*
X170488096Y-112350000D01*
X170535715Y-112397619D01*
X170583334Y-112492857D01*
X170583334Y-112635714D01*
X170535715Y-112730952D01*
X170488096Y-112778571D01*
X170392858Y-112826190D01*
X170011905Y-112826190D01*
X170916667Y-112302381D02*
X171583334Y-112302381D01*
X171154762Y-113302381D01*
X158383334Y-113302381D02*
X158050000Y-112826190D01*
X157811905Y-113302381D02*
X157811905Y-112302381D01*
X158192858Y-112302381D01*
X158288096Y-112350000D01*
X158335715Y-112397619D01*
X158383334Y-112492857D01*
X158383334Y-112635714D01*
X158335715Y-112730952D01*
X158288096Y-112778571D01*
X158192858Y-112826190D01*
X157811905Y-112826190D01*
X158954762Y-112730952D02*
X158859524Y-112683333D01*
X158811905Y-112635714D01*
X158764286Y-112540476D01*
X158764286Y-112492857D01*
X158811905Y-112397619D01*
X158859524Y-112350000D01*
X158954762Y-112302381D01*
X159145239Y-112302381D01*
X159240477Y-112350000D01*
X159288096Y-112397619D01*
X159335715Y-112492857D01*
X159335715Y-112540476D01*
X159288096Y-112635714D01*
X159240477Y-112683333D01*
X159145239Y-112730952D01*
X158954762Y-112730952D01*
X158859524Y-112778571D01*
X158811905Y-112826190D01*
X158764286Y-112921429D01*
X158764286Y-113111905D01*
X158811905Y-113207143D01*
X158859524Y-113254762D01*
X158954762Y-113302381D01*
X159145239Y-113302381D01*
X159240477Y-113254762D01*
X159288096Y-113207143D01*
X159335715Y-113111905D01*
X159335715Y-112921429D01*
X159288096Y-112826190D01*
X159240477Y-112778571D01*
X159145239Y-112730952D01*
X177952381Y-101263095D02*
X176952381Y-101263095D01*
X176952381Y-100882142D01*
X177000000Y-100786904D01*
X177047619Y-100739285D01*
X177142857Y-100691666D01*
X177285714Y-100691666D01*
X177380952Y-100739285D01*
X177428571Y-100786904D01*
X177476190Y-100882142D01*
X177476190Y-101263095D01*
X177047619Y-100310714D02*
X177000000Y-100263095D01*
X176952381Y-100167857D01*
X176952381Y-99929761D01*
X177000000Y-99834523D01*
X177047619Y-99786904D01*
X177142857Y-99739285D01*
X177238095Y-99739285D01*
X177380952Y-99786904D01*
X177952381Y-100358333D01*
X177952381Y-99739285D01*
X157452381Y-115788095D02*
X156452381Y-115788095D01*
X156452381Y-115407142D01*
X156500000Y-115311904D01*
X156547619Y-115264285D01*
X156642857Y-115216666D01*
X156785714Y-115216666D01*
X156880952Y-115264285D01*
X156928571Y-115311904D01*
X156976190Y-115407142D01*
X156976190Y-115788095D01*
X157452381Y-114264285D02*
X157452381Y-114835714D01*
X157452381Y-114550000D02*
X156452381Y-114550000D01*
X156595238Y-114645238D01*
X156690476Y-114740476D01*
X156738095Y-114835714D01*
M02*
