%TF.GenerationSoftware,KiCad,Pcbnew,4.0.2-stable*%
%TF.CreationDate,2016-07-27T18:07:16+02:00*%
%TF.ProjectId,combined,636F6D62696E65642E6B696361645F70,rev?*%
%TF.FileFunction,Copper,L2,Bot,Signal*%
%FSLAX46Y46*%
G04 Gerber Fmt 4.6, Leading zero omitted, Abs format (unit mm)*
G04 Created by KiCad (PCBNEW 4.0.2-stable) date 27.07.2016 18:07:16*
%MOMM*%
G01*
G04 APERTURE LIST*
%ADD10C,0.100000*%
%ADD11C,0.010000*%
%ADD12C,0.150000*%
%ADD13C,0.600000*%
%ADD14R,1.727200X1.727200*%
%ADD15O,1.727200X1.727200*%
%ADD16R,1.500000X1.000000*%
%ADD17R,2.200000X1.200000*%
%ADD18C,0.500000*%
%ADD19C,0.350000*%
%ADD20C,0.254000*%
G04 APERTURE END LIST*
D10*
D11*
X112250000Y-119300000D02*
X112250000Y-109000000D01*
X109250000Y-106500000D02*
X109250000Y-119300000D01*
X112250000Y-124350000D02*
X112250000Y-142500000D01*
X109250000Y-141500000D02*
X109250000Y-124350000D01*
X110750000Y-122850000D02*
G75*
G03X109250000Y-124350000I0J-1500000D01*
G01*
X112250000Y-124350000D02*
G75*
G03X110750000Y-122850000I-1500000J0D01*
G01*
X110750000Y-120800000D02*
G75*
G03X112250000Y-119300000I0J1500000D01*
G01*
X109250000Y-119300000D02*
G75*
G03X110750000Y-120800000I1500000J0D01*
G01*
D12*
X141000000Y-142500000D02*
X141000000Y-109000000D01*
X117250000Y-147500000D02*
X136000000Y-147500000D01*
X136000000Y-104000000D02*
X117250000Y-104000000D01*
X112250000Y-142500000D02*
G75*
G03X117250000Y-147500000I5000000J0D01*
G01*
X136000000Y-147500000D02*
G75*
G03X141000000Y-142500000I0J5000000D01*
G01*
X141000000Y-109000000D02*
G75*
G03X136000000Y-104000000I-5000000J0D01*
G01*
X117250000Y-104000000D02*
G75*
G03X112250000Y-109000000I0J-5000000D01*
G01*
D11*
X78750000Y-104000000D02*
X106750000Y-104000000D01*
X76250000Y-141500000D02*
X76250000Y-106500000D01*
X106750000Y-144000000D02*
X78750000Y-144000000D01*
X76250000Y-141500000D02*
G75*
G03X78750000Y-144000000I2500000J0D01*
G01*
X106750000Y-144000000D02*
G75*
G03X109250000Y-141500000I0J2500000D01*
G01*
X109250000Y-106500000D02*
G75*
G03X106750000Y-104000000I-2500000J0D01*
G01*
X78750000Y-104000000D02*
G75*
G03X76250000Y-106500000I0J-2500000D01*
G01*
D13*
X118350000Y-116050000D03*
X121400000Y-111900000D03*
X129900000Y-116750000D03*
X127950000Y-131200000D03*
X116050000Y-128450000D03*
X115050000Y-123450000D03*
X128400000Y-126300000D03*
X121700000Y-131000000D03*
X121300000Y-118000000D03*
X114500000Y-145250000D03*
X114750000Y-106250000D03*
X118600000Y-107100000D03*
X131500000Y-108600000D03*
X132100000Y-122400000D03*
X134400000Y-125600000D03*
X139400000Y-136800000D03*
X134100000Y-144500000D03*
X132300000Y-141800000D03*
X128500000Y-140400000D03*
X121300000Y-140400000D03*
D14*
X134460000Y-109750000D03*
D15*
X137000000Y-109750000D03*
X134460000Y-112290000D03*
X137000000Y-112290000D03*
X134460000Y-114830000D03*
X137000000Y-114830000D03*
X134460000Y-117370000D03*
X137000000Y-117370000D03*
X134460000Y-119910000D03*
X137000000Y-119910000D03*
D14*
X134560000Y-131350000D03*
D15*
X137100000Y-131350000D03*
X134560000Y-133890000D03*
X137100000Y-133890000D03*
X134560000Y-136430000D03*
X137100000Y-136430000D03*
X134560000Y-138970000D03*
X137100000Y-138970000D03*
X134560000Y-141510000D03*
X137100000Y-141510000D03*
D14*
X116500000Y-141600000D03*
D15*
X113960000Y-141600000D03*
X116500000Y-139060000D03*
X113960000Y-139060000D03*
X116500000Y-136520000D03*
X113960000Y-136520000D03*
X116500000Y-133980000D03*
X113960000Y-133980000D03*
X116500000Y-131440000D03*
X113960000Y-131440000D03*
D14*
X116500000Y-120000000D03*
D15*
X113960000Y-120000000D03*
X116500000Y-117460000D03*
X113960000Y-117460000D03*
X116500000Y-114920000D03*
X113960000Y-114920000D03*
X116500000Y-112380000D03*
X113960000Y-112380000D03*
X116500000Y-109840000D03*
X113960000Y-109840000D03*
D13*
X123700000Y-144800000D03*
X95100000Y-134950000D03*
X89250000Y-138250000D03*
X102400000Y-135900000D03*
X104300000Y-141750000D03*
X90700000Y-122150000D03*
D14*
X93500000Y-108250000D03*
D15*
X93500000Y-105710000D03*
X96040000Y-108250000D03*
X96040000Y-105710000D03*
X98580000Y-108250000D03*
X98580000Y-105710000D03*
X101120000Y-108250000D03*
X101120000Y-105710000D03*
X103660000Y-108250000D03*
X103660000Y-105710000D03*
D16*
X78000000Y-134375000D03*
X78000000Y-131875000D03*
X78000000Y-128575000D03*
X78000000Y-126875000D03*
X78000000Y-124375000D03*
X78000000Y-121875000D03*
X78000000Y-119450000D03*
X78000000Y-117750000D03*
X78000000Y-136875000D03*
X78000000Y-130225000D03*
X78000000Y-114400000D03*
D17*
X99000000Y-141900000D03*
X100200000Y-113900000D03*
D13*
X93700000Y-140850000D03*
X114750000Y-125500000D03*
X98500000Y-121850000D03*
X103750000Y-121500000D03*
X83750000Y-105750000D03*
X126000000Y-131750000D03*
X128250000Y-108750000D03*
X128250000Y-114250000D03*
X128250000Y-117500000D03*
X127750000Y-124500000D03*
X119500000Y-124750000D03*
X103250000Y-126250000D03*
X81500000Y-126750000D03*
X118500000Y-142500000D03*
X136750000Y-126000000D03*
X138000000Y-126000000D03*
X139500000Y-126250000D03*
X129000000Y-120250000D03*
X131250000Y-115750000D03*
X131500000Y-120000000D03*
X129250000Y-125000000D03*
X113650000Y-123000000D03*
X113500000Y-127500000D03*
X129000000Y-129000000D03*
X85000000Y-104750000D03*
X119900000Y-113700000D03*
X122300000Y-114350000D03*
X119750000Y-115500000D03*
X91500000Y-132750000D03*
X101750000Y-128750000D03*
X102250000Y-124000000D03*
X101500000Y-117000000D03*
X103000000Y-119250000D03*
D18*
X121700000Y-131000000D02*
X121700000Y-130100000D01*
X121700000Y-130100000D02*
X115050000Y-123450000D01*
X114750000Y-125500000D02*
X114750000Y-125250000D01*
X114750000Y-125250000D02*
X116750000Y-123250000D01*
X116250000Y-128500000D02*
X116250000Y-127000000D01*
X116250000Y-127000000D02*
X114750000Y-125500000D01*
X87100000Y-121875000D02*
X98475000Y-121875000D01*
X78000000Y-121875000D02*
X87100000Y-121875000D01*
X98475000Y-121875000D02*
X98500000Y-121850000D01*
X126000000Y-131250000D02*
X126000000Y-131750000D01*
X125500000Y-130750000D02*
X126000000Y-131250000D01*
X119500000Y-124750000D02*
X125500000Y-130750000D01*
X128250000Y-114250000D02*
X128250000Y-108750000D01*
X128250000Y-117500000D02*
X130000000Y-119250000D01*
X130000000Y-119250000D02*
X130000000Y-122250000D01*
X130000000Y-122250000D02*
X127750000Y-124500000D01*
X119500000Y-124750000D02*
X127500000Y-124750000D01*
X127500000Y-124750000D02*
X127750000Y-124500000D01*
X103250000Y-126250000D02*
X82000000Y-126250000D01*
X82000000Y-126250000D02*
X81500000Y-126750000D01*
X81500000Y-126750000D02*
X78125000Y-126750000D01*
X78125000Y-126750000D02*
X78000000Y-126875000D01*
D19*
X133596401Y-142443599D02*
X134460000Y-141580000D01*
X118799999Y-142799999D02*
X133240001Y-142799999D01*
X133240001Y-142799999D02*
X133596401Y-142443599D01*
X118500000Y-142500000D02*
X118799999Y-142799999D01*
X129044360Y-133149980D02*
X130899980Y-131294360D01*
X119431294Y-133149980D02*
X129044360Y-133149980D01*
X116500000Y-131440000D02*
X117721314Y-131440000D01*
X117721314Y-131440000D02*
X119431294Y-133149980D01*
X133294358Y-127149980D02*
X135600020Y-127149980D01*
X135600020Y-127149980D02*
X136750000Y-126000000D01*
X130899980Y-131294360D02*
X130899980Y-129544358D01*
X130899980Y-129544358D02*
X133294358Y-127149980D01*
X113960000Y-133980000D02*
X115198601Y-132741399D01*
X115198601Y-132741399D02*
X117741399Y-132741399D01*
X118699990Y-133699990D02*
X129272180Y-133699990D01*
X117741399Y-132741399D02*
X118699990Y-133699990D01*
X129272180Y-133699990D02*
X131449990Y-131522180D01*
X131449990Y-131522180D02*
X131449990Y-129772179D01*
X131449990Y-129772179D02*
X133522179Y-127699990D01*
X136250000Y-127699990D02*
X137272180Y-127699990D01*
X133522179Y-127699990D02*
X136250000Y-127699990D01*
X137272180Y-127699990D02*
X138000000Y-126972170D01*
X138000000Y-126972170D02*
X138000000Y-126000000D01*
X129500000Y-134250000D02*
X132000000Y-131750000D01*
X116500000Y-133980000D02*
X117721314Y-133980000D01*
X117721314Y-133980000D02*
X117991314Y-134250000D01*
X117991314Y-134250000D02*
X129500000Y-134250000D01*
X132000000Y-130000000D02*
X133750000Y-128250000D01*
X132000000Y-131750000D02*
X132000000Y-130000000D01*
X133750000Y-128250000D02*
X137500000Y-128250000D01*
X137500000Y-128250000D02*
X139500000Y-126250000D01*
X113960000Y-136520000D02*
X115230000Y-135250000D01*
X130500000Y-135250000D02*
X131790000Y-133960000D01*
X115230000Y-135250000D02*
X130500000Y-135250000D01*
X131790000Y-133960000D02*
X134460000Y-133960000D01*
X137100000Y-133890000D02*
X135840000Y-135150000D01*
X135840000Y-135150000D02*
X132100000Y-135150000D01*
X132100000Y-135150000D02*
X130730000Y-136520000D01*
X130730000Y-136520000D02*
X116500000Y-136520000D01*
X113960000Y-139060000D02*
X115261399Y-137758601D01*
X115261399Y-137758601D02*
X131463569Y-137758601D01*
X131463569Y-137758601D02*
X132722170Y-136500000D01*
X132722170Y-136500000D02*
X133238686Y-136500000D01*
X133238686Y-136500000D02*
X134460000Y-136500000D01*
X116500000Y-139060000D02*
X132440856Y-139060000D01*
X132440856Y-139060000D02*
X133800856Y-137700000D01*
X133800856Y-137700000D02*
X135830000Y-137700000D01*
X135830000Y-137700000D02*
X137100000Y-136430000D01*
X137000000Y-139040000D02*
X138221314Y-139040000D01*
X138221314Y-139040000D02*
X139250000Y-140068686D01*
X139250000Y-140068686D02*
X139250000Y-143500000D01*
X139250000Y-143500000D02*
X136750000Y-146000000D01*
X136750000Y-146000000D02*
X117138686Y-146000000D01*
X113960000Y-142821314D02*
X113960000Y-141600000D01*
X117138686Y-146000000D02*
X113960000Y-142821314D01*
X134460000Y-139040000D02*
X133238686Y-139040000D01*
X133238686Y-139040000D02*
X130678686Y-141600000D01*
X130678686Y-141600000D02*
X116500000Y-141600000D01*
D18*
X129250000Y-125000000D02*
X129250000Y-125424264D01*
X126575736Y-122250000D02*
X114400000Y-122250000D01*
X114400000Y-122250000D02*
X113650000Y-123000000D01*
X129000000Y-120250000D02*
X128575736Y-120250000D01*
X128575736Y-120250000D02*
X126575736Y-122250000D01*
X131500000Y-116000000D02*
X131250000Y-115750000D01*
X131500000Y-120000000D02*
X131500000Y-116000000D01*
X113500000Y-127500000D02*
X113500000Y-123150000D01*
X113500000Y-123150000D02*
X113650000Y-123000000D01*
X129700000Y-125874264D02*
X129700000Y-128300000D01*
X129700000Y-128300000D02*
X129000000Y-129000000D01*
X129250000Y-125424264D02*
X129700000Y-125874264D01*
X93500000Y-105710000D02*
X85960000Y-105710000D01*
X85960000Y-105710000D02*
X85000000Y-104750000D01*
D19*
X132250000Y-112290000D02*
X134460000Y-112290000D01*
X129290000Y-115250000D02*
X132250000Y-112290000D01*
X125850000Y-115250000D02*
X129290000Y-115250000D01*
X124500000Y-116600000D02*
X125850000Y-115250000D01*
X121500000Y-116600000D02*
X124500000Y-116600000D01*
X116500000Y-117460000D02*
X120640000Y-117460000D01*
X120640000Y-117460000D02*
X121500000Y-116600000D01*
X121650000Y-113700000D02*
X119900000Y-113700000D01*
X122300000Y-114350000D02*
X121650000Y-113700000D01*
X122250000Y-114400000D02*
X122300000Y-114350000D01*
X119000000Y-111118686D02*
X119000000Y-114750000D01*
X119000000Y-114750000D02*
X119750000Y-115500000D01*
X116500000Y-109840000D02*
X117721314Y-109840000D01*
X117721314Y-109840000D02*
X119000000Y-111118686D01*
X113960000Y-109840000D02*
X113960000Y-108618686D01*
X113960000Y-108618686D02*
X117578686Y-105000000D01*
X117578686Y-105000000D02*
X136500000Y-105000000D01*
X136500000Y-105000000D02*
X140000000Y-108500000D01*
X140000000Y-108500000D02*
X140000000Y-118500000D01*
X140000000Y-118500000D02*
X138590000Y-119910000D01*
X138590000Y-119910000D02*
X137000000Y-119910000D01*
X91500000Y-132750000D02*
X90625000Y-131875000D01*
X90625000Y-131875000D02*
X78000000Y-131875000D01*
X101750000Y-128750000D02*
X78175000Y-128750000D01*
X78175000Y-128750000D02*
X78000000Y-128575000D01*
X102250000Y-123250000D02*
X101125000Y-124375000D01*
X101125000Y-124375000D02*
X78000000Y-124375000D01*
D18*
X100750000Y-121750000D02*
X102250000Y-123250000D01*
X102250000Y-123250000D02*
X102250000Y-124000000D01*
X100750000Y-119000000D02*
X100750000Y-121750000D01*
X101500000Y-118250000D02*
X100750000Y-119000000D01*
X102250000Y-118250000D02*
X101500000Y-118250000D01*
X105299990Y-115200010D02*
X102250000Y-118250000D01*
X103660000Y-108250000D02*
X105299990Y-109889990D01*
X105299990Y-109889990D02*
X105299990Y-115200010D01*
D19*
X101500000Y-117000000D02*
X101075736Y-117000000D01*
X101075736Y-117000000D02*
X98625736Y-119450000D01*
X98625736Y-119450000D02*
X79100000Y-119450000D01*
X79100000Y-119450000D02*
X78000000Y-119450000D01*
D18*
X106000000Y-116000000D02*
X103000000Y-119000000D01*
X103000000Y-119000000D02*
X103000000Y-119250000D01*
X106000000Y-106828686D02*
X106000000Y-116000000D01*
X103660000Y-105710000D02*
X104881314Y-105710000D01*
X104881314Y-105710000D02*
X106000000Y-106828686D01*
D20*
G36*
X113155689Y-142849912D02*
X113211658Y-143131288D01*
X113309393Y-143277558D01*
X113387244Y-143394070D01*
X116565930Y-146572757D01*
X116709266Y-146668531D01*
X115613610Y-146450592D01*
X114226349Y-145523654D01*
X113299408Y-144136390D01*
X113026317Y-142763469D01*
X113155689Y-142849912D01*
X113155689Y-142849912D01*
G37*
X113155689Y-142849912D02*
X113211658Y-143131288D01*
X113309393Y-143277558D01*
X113387244Y-143394070D01*
X116565930Y-146572757D01*
X116709266Y-146668531D01*
X115613610Y-146450592D01*
X114226349Y-145523654D01*
X113299408Y-144136390D01*
X113026317Y-142763469D01*
X113155689Y-142849912D01*
G36*
X140290000Y-142430069D02*
X139950592Y-144136390D01*
X139023654Y-145523651D01*
X137636390Y-146450592D01*
X137397378Y-146498134D01*
X139822757Y-144072756D01*
X139954798Y-143875142D01*
X139998342Y-143809974D01*
X140060000Y-143500000D01*
X140060000Y-140068686D01*
X140021812Y-139876702D01*
X139998343Y-139758713D01*
X139822757Y-139495930D01*
X138794070Y-138467244D01*
X138733151Y-138426539D01*
X138531288Y-138291658D01*
X138419183Y-138269359D01*
X138159670Y-137880971D01*
X137888828Y-137700000D01*
X138159670Y-137519029D01*
X138484526Y-137032848D01*
X138598600Y-136459359D01*
X138598600Y-136400641D01*
X138484526Y-135827152D01*
X138159670Y-135340971D01*
X137888828Y-135160000D01*
X138159670Y-134979029D01*
X138484526Y-134492848D01*
X138598600Y-133919359D01*
X138598600Y-133860641D01*
X138484526Y-133287152D01*
X138159670Y-132800971D01*
X137888839Y-132620008D01*
X138306821Y-132238490D01*
X138554968Y-131709027D01*
X138434469Y-131477000D01*
X137227000Y-131477000D01*
X137227000Y-131497000D01*
X136973000Y-131497000D01*
X136973000Y-131477000D01*
X136953000Y-131477000D01*
X136953000Y-131223000D01*
X136973000Y-131223000D01*
X136973000Y-130016183D01*
X137227000Y-130016183D01*
X137227000Y-131223000D01*
X138434469Y-131223000D01*
X138554968Y-130990973D01*
X138306821Y-130461510D01*
X137874947Y-130067312D01*
X137459026Y-129895042D01*
X137227000Y-130016183D01*
X136973000Y-130016183D01*
X136740974Y-129895042D01*
X136325053Y-130067312D01*
X136040973Y-130326609D01*
X136026762Y-130251083D01*
X135887690Y-130034959D01*
X135675490Y-129889969D01*
X135423600Y-129838960D01*
X133696400Y-129838960D01*
X133461083Y-129883238D01*
X133244959Y-130022310D01*
X133099969Y-130234510D01*
X133048960Y-130486400D01*
X133048960Y-132213600D01*
X133093238Y-132448917D01*
X133232310Y-132665041D01*
X133444510Y-132810031D01*
X133488345Y-132818908D01*
X133267116Y-133150000D01*
X131790000Y-133150000D01*
X131734466Y-133161046D01*
X132572757Y-132322756D01*
X132724981Y-132094936D01*
X132748342Y-132059974D01*
X132810000Y-131750000D01*
X132810000Y-130335512D01*
X134085513Y-129060000D01*
X137500000Y-129060000D01*
X137809974Y-128998342D01*
X138072756Y-128822756D01*
X139728084Y-127167429D01*
X140028943Y-127043117D01*
X140290000Y-126782515D01*
X140290000Y-142430069D01*
X140290000Y-142430069D01*
G37*
X140290000Y-142430069D02*
X139950592Y-144136390D01*
X139023654Y-145523651D01*
X137636390Y-146450592D01*
X137397378Y-146498134D01*
X139822757Y-144072756D01*
X139954798Y-143875142D01*
X139998342Y-143809974D01*
X140060000Y-143500000D01*
X140060000Y-140068686D01*
X140021812Y-139876702D01*
X139998343Y-139758713D01*
X139822757Y-139495930D01*
X138794070Y-138467244D01*
X138733151Y-138426539D01*
X138531288Y-138291658D01*
X138419183Y-138269359D01*
X138159670Y-137880971D01*
X137888828Y-137700000D01*
X138159670Y-137519029D01*
X138484526Y-137032848D01*
X138598600Y-136459359D01*
X138598600Y-136400641D01*
X138484526Y-135827152D01*
X138159670Y-135340971D01*
X137888828Y-135160000D01*
X138159670Y-134979029D01*
X138484526Y-134492848D01*
X138598600Y-133919359D01*
X138598600Y-133860641D01*
X138484526Y-133287152D01*
X138159670Y-132800971D01*
X137888839Y-132620008D01*
X138306821Y-132238490D01*
X138554968Y-131709027D01*
X138434469Y-131477000D01*
X137227000Y-131477000D01*
X137227000Y-131497000D01*
X136973000Y-131497000D01*
X136973000Y-131477000D01*
X136953000Y-131477000D01*
X136953000Y-131223000D01*
X136973000Y-131223000D01*
X136973000Y-130016183D01*
X137227000Y-130016183D01*
X137227000Y-131223000D01*
X138434469Y-131223000D01*
X138554968Y-130990973D01*
X138306821Y-130461510D01*
X137874947Y-130067312D01*
X137459026Y-129895042D01*
X137227000Y-130016183D01*
X136973000Y-130016183D01*
X136740974Y-129895042D01*
X136325053Y-130067312D01*
X136040973Y-130326609D01*
X136026762Y-130251083D01*
X135887690Y-130034959D01*
X135675490Y-129889969D01*
X135423600Y-129838960D01*
X133696400Y-129838960D01*
X133461083Y-129883238D01*
X133244959Y-130022310D01*
X133099969Y-130234510D01*
X133048960Y-130486400D01*
X133048960Y-132213600D01*
X133093238Y-132448917D01*
X133232310Y-132665041D01*
X133444510Y-132810031D01*
X133488345Y-132818908D01*
X133267116Y-133150000D01*
X131790000Y-133150000D01*
X131734466Y-133161046D01*
X132572757Y-132322756D01*
X132724981Y-132094936D01*
X132748342Y-132059974D01*
X132810000Y-131750000D01*
X132810000Y-130335512D01*
X134085513Y-129060000D01*
X137500000Y-129060000D01*
X137809974Y-128998342D01*
X138072756Y-128822756D01*
X139728084Y-127167429D01*
X140028943Y-127043117D01*
X140290000Y-126782515D01*
X140290000Y-142430069D01*
G36*
X138440000Y-143164487D02*
X136414488Y-145190000D01*
X117474199Y-145190000D01*
X115257333Y-142973135D01*
X115384510Y-143060031D01*
X115636400Y-143111040D01*
X117363600Y-143111040D01*
X117598917Y-143066762D01*
X117696551Y-143003937D01*
X117706883Y-143028943D01*
X117969673Y-143292192D01*
X118313201Y-143434838D01*
X118320164Y-143434844D01*
X118490026Y-143548342D01*
X118799999Y-143609999D01*
X133240001Y-143609999D01*
X133549975Y-143548341D01*
X133812757Y-143372755D01*
X134169158Y-143016355D01*
X134169160Y-143016352D01*
X134215982Y-142969530D01*
X134560000Y-143037959D01*
X135133489Y-142923885D01*
X135619670Y-142599029D01*
X135830000Y-142284248D01*
X136040330Y-142599029D01*
X136526511Y-142923885D01*
X137100000Y-143037959D01*
X137673489Y-142923885D01*
X138159670Y-142599029D01*
X138440000Y-142179486D01*
X138440000Y-143164487D01*
X138440000Y-143164487D01*
G37*
X138440000Y-143164487D02*
X136414488Y-145190000D01*
X117474199Y-145190000D01*
X115257333Y-142973135D01*
X115384510Y-143060031D01*
X115636400Y-143111040D01*
X117363600Y-143111040D01*
X117598917Y-143066762D01*
X117696551Y-143003937D01*
X117706883Y-143028943D01*
X117969673Y-143292192D01*
X118313201Y-143434838D01*
X118320164Y-143434844D01*
X118490026Y-143548342D01*
X118799999Y-143609999D01*
X133240001Y-143609999D01*
X133549975Y-143548341D01*
X133812757Y-143372755D01*
X134169158Y-143016355D01*
X134169160Y-143016352D01*
X134215982Y-142969530D01*
X134560000Y-143037959D01*
X135133489Y-142923885D01*
X135619670Y-142599029D01*
X135830000Y-142284248D01*
X136040330Y-142599029D01*
X136526511Y-142923885D01*
X137100000Y-143037959D01*
X137673489Y-142923885D01*
X138159670Y-142599029D01*
X138440000Y-142179486D01*
X138440000Y-143164487D01*
G36*
X107456995Y-104793169D02*
X108056353Y-105193647D01*
X108456832Y-105793006D01*
X108610000Y-106563037D01*
X108610000Y-119300000D01*
X108622297Y-119361821D01*
X108622297Y-119424858D01*
X108736479Y-119998882D01*
X108736479Y-119998883D01*
X108832040Y-120229590D01*
X109122897Y-120664888D01*
X109025225Y-120664803D01*
X108607914Y-120837233D01*
X108288355Y-121156235D01*
X108115197Y-121573244D01*
X108114803Y-122024775D01*
X108287233Y-122442086D01*
X108606235Y-122761645D01*
X109023244Y-122934803D01*
X109156434Y-122934919D01*
X108832040Y-123420410D01*
X108736479Y-123651117D01*
X108622297Y-124225142D01*
X108622297Y-124288179D01*
X108610000Y-124350000D01*
X108610000Y-141436963D01*
X108456832Y-142206994D01*
X108056353Y-142806353D01*
X107456995Y-143206831D01*
X106686963Y-143360000D01*
X78813037Y-143360000D01*
X78043006Y-143206832D01*
X77443647Y-142806353D01*
X77043169Y-142206995D01*
X76890000Y-141436963D01*
X76890000Y-139624285D01*
X80814760Y-139624285D01*
X81025169Y-140133515D01*
X81414436Y-140523461D01*
X81923298Y-140734759D01*
X82474285Y-140735240D01*
X82983515Y-140524831D01*
X83373461Y-140135564D01*
X83481953Y-139874285D01*
X100914760Y-139874285D01*
X101125169Y-140383515D01*
X101514436Y-140773461D01*
X102023298Y-140984759D01*
X102574285Y-140985240D01*
X103083515Y-140774831D01*
X103473461Y-140385564D01*
X103684759Y-139876702D01*
X103685240Y-139325715D01*
X103474831Y-138816485D01*
X103085564Y-138426539D01*
X102576702Y-138215241D01*
X102025715Y-138214760D01*
X101516485Y-138425169D01*
X101126539Y-138814436D01*
X100915241Y-139323298D01*
X100914760Y-139874285D01*
X83481953Y-139874285D01*
X83584759Y-139626702D01*
X83585240Y-139075715D01*
X83374831Y-138566485D01*
X82985564Y-138176539D01*
X82476702Y-137965241D01*
X81925715Y-137964760D01*
X81416485Y-138175169D01*
X81026539Y-138564436D01*
X80815241Y-139073298D01*
X80814760Y-139624285D01*
X76890000Y-139624285D01*
X76890000Y-137897563D01*
X76998110Y-137971431D01*
X77250000Y-138022440D01*
X78750000Y-138022440D01*
X78985317Y-137978162D01*
X79201441Y-137839090D01*
X79346431Y-137626890D01*
X79397440Y-137375000D01*
X79397440Y-136375000D01*
X79353162Y-136139683D01*
X79214090Y-135923559D01*
X79001890Y-135778569D01*
X78750000Y-135727560D01*
X77250000Y-135727560D01*
X77014683Y-135771838D01*
X76890000Y-135852069D01*
X76890000Y-135397563D01*
X76998110Y-135471431D01*
X77250000Y-135522440D01*
X78750000Y-135522440D01*
X78985317Y-135478162D01*
X79201441Y-135339090D01*
X79346431Y-135126890D01*
X79397440Y-134875000D01*
X79397440Y-133875000D01*
X79353162Y-133639683D01*
X79214090Y-133423559D01*
X79001890Y-133278569D01*
X78750000Y-133227560D01*
X77250000Y-133227560D01*
X77014683Y-133271838D01*
X76890000Y-133352069D01*
X76890000Y-132897563D01*
X76998110Y-132971431D01*
X77250000Y-133022440D01*
X78750000Y-133022440D01*
X78985317Y-132978162D01*
X79201441Y-132839090D01*
X79306726Y-132685000D01*
X90289488Y-132685000D01*
X90582571Y-132978083D01*
X90706883Y-133278943D01*
X90969673Y-133542192D01*
X91313201Y-133684838D01*
X91685167Y-133685162D01*
X92028943Y-133543117D01*
X92292192Y-133280327D01*
X92434838Y-132936799D01*
X92435162Y-132564833D01*
X92293117Y-132221057D01*
X92030327Y-131957808D01*
X91727629Y-131832116D01*
X91197756Y-131302244D01*
X91185957Y-131294360D01*
X90934974Y-131126658D01*
X90625000Y-131065000D01*
X79305105Y-131065000D01*
X79214090Y-130923559D01*
X79001890Y-130778569D01*
X78750000Y-130727560D01*
X77250000Y-130727560D01*
X77014683Y-130771838D01*
X76890000Y-130852069D01*
X76890000Y-129597563D01*
X76998110Y-129671431D01*
X77250000Y-129722440D01*
X78750000Y-129722440D01*
X78985317Y-129678162D01*
X79168946Y-129560000D01*
X101262559Y-129560000D01*
X101563201Y-129684838D01*
X101935167Y-129685162D01*
X102278943Y-129543117D01*
X102542192Y-129280327D01*
X102684838Y-128936799D01*
X102685162Y-128564833D01*
X102543117Y-128221057D01*
X102280327Y-127957808D01*
X101936799Y-127815162D01*
X101564833Y-127814838D01*
X101261917Y-127940000D01*
X79372038Y-127940000D01*
X79353162Y-127839683D01*
X79279380Y-127725022D01*
X79340890Y-127635000D01*
X81193178Y-127635000D01*
X81313201Y-127684838D01*
X81685167Y-127685162D01*
X82028943Y-127543117D01*
X82292192Y-127280327D01*
X82342566Y-127159014D01*
X82366580Y-127135000D01*
X102943178Y-127135000D01*
X103063201Y-127184838D01*
X103435167Y-127185162D01*
X103778943Y-127043117D01*
X104042192Y-126780327D01*
X104184838Y-126436799D01*
X104185162Y-126064833D01*
X104043117Y-125721057D01*
X103780327Y-125457808D01*
X103436799Y-125315162D01*
X103064833Y-125314838D01*
X102943431Y-125365000D01*
X82000005Y-125365000D01*
X82000000Y-125364999D01*
X81717516Y-125421190D01*
X81661325Y-125432367D01*
X81374210Y-125624210D01*
X81374208Y-125624213D01*
X81133421Y-125865000D01*
X79128386Y-125865000D01*
X79001890Y-125778569D01*
X78750000Y-125727560D01*
X77250000Y-125727560D01*
X77014683Y-125771838D01*
X76890000Y-125852069D01*
X76890000Y-125397563D01*
X76998110Y-125471431D01*
X77250000Y-125522440D01*
X78750000Y-125522440D01*
X78985317Y-125478162D01*
X79201441Y-125339090D01*
X79306726Y-125185000D01*
X101125000Y-125185000D01*
X101434974Y-125123342D01*
X101697756Y-124947756D01*
X101814107Y-124831405D01*
X102063201Y-124934838D01*
X102435167Y-124935162D01*
X102778943Y-124793117D01*
X103042192Y-124530327D01*
X103184838Y-124186799D01*
X103185162Y-123814833D01*
X103135000Y-123693431D01*
X103135000Y-123250000D01*
X103067633Y-122911325D01*
X102875790Y-122624210D01*
X102875787Y-122624208D01*
X101635000Y-121383420D01*
X101635000Y-119366580D01*
X101866579Y-119135000D01*
X102065099Y-119135000D01*
X102064838Y-119435167D01*
X102206883Y-119778943D01*
X102469673Y-120042192D01*
X102813201Y-120184838D01*
X103185167Y-120185162D01*
X103528943Y-120043117D01*
X103792192Y-119780327D01*
X103934838Y-119436799D01*
X103934943Y-119316637D01*
X106625787Y-116625792D01*
X106625790Y-116625790D01*
X106817633Y-116338675D01*
X106829239Y-116280327D01*
X106885001Y-116000000D01*
X106885000Y-115999995D01*
X106885000Y-106828691D01*
X106885001Y-106828686D01*
X106828810Y-106546202D01*
X106817633Y-106490011D01*
X106625790Y-106202896D01*
X106625787Y-106202894D01*
X105507104Y-105084210D01*
X105485855Y-105070012D01*
X105219989Y-104892367D01*
X105128266Y-104874122D01*
X104881314Y-104824999D01*
X104881309Y-104825000D01*
X104855998Y-104825000D01*
X104732385Y-104640000D01*
X106686963Y-104640000D01*
X107456995Y-104793169D01*
X107456995Y-104793169D01*
G37*
X107456995Y-104793169D02*
X108056353Y-105193647D01*
X108456832Y-105793006D01*
X108610000Y-106563037D01*
X108610000Y-119300000D01*
X108622297Y-119361821D01*
X108622297Y-119424858D01*
X108736479Y-119998882D01*
X108736479Y-119998883D01*
X108832040Y-120229590D01*
X109122897Y-120664888D01*
X109025225Y-120664803D01*
X108607914Y-120837233D01*
X108288355Y-121156235D01*
X108115197Y-121573244D01*
X108114803Y-122024775D01*
X108287233Y-122442086D01*
X108606235Y-122761645D01*
X109023244Y-122934803D01*
X109156434Y-122934919D01*
X108832040Y-123420410D01*
X108736479Y-123651117D01*
X108622297Y-124225142D01*
X108622297Y-124288179D01*
X108610000Y-124350000D01*
X108610000Y-141436963D01*
X108456832Y-142206994D01*
X108056353Y-142806353D01*
X107456995Y-143206831D01*
X106686963Y-143360000D01*
X78813037Y-143360000D01*
X78043006Y-143206832D01*
X77443647Y-142806353D01*
X77043169Y-142206995D01*
X76890000Y-141436963D01*
X76890000Y-139624285D01*
X80814760Y-139624285D01*
X81025169Y-140133515D01*
X81414436Y-140523461D01*
X81923298Y-140734759D01*
X82474285Y-140735240D01*
X82983515Y-140524831D01*
X83373461Y-140135564D01*
X83481953Y-139874285D01*
X100914760Y-139874285D01*
X101125169Y-140383515D01*
X101514436Y-140773461D01*
X102023298Y-140984759D01*
X102574285Y-140985240D01*
X103083515Y-140774831D01*
X103473461Y-140385564D01*
X103684759Y-139876702D01*
X103685240Y-139325715D01*
X103474831Y-138816485D01*
X103085564Y-138426539D01*
X102576702Y-138215241D01*
X102025715Y-138214760D01*
X101516485Y-138425169D01*
X101126539Y-138814436D01*
X100915241Y-139323298D01*
X100914760Y-139874285D01*
X83481953Y-139874285D01*
X83584759Y-139626702D01*
X83585240Y-139075715D01*
X83374831Y-138566485D01*
X82985564Y-138176539D01*
X82476702Y-137965241D01*
X81925715Y-137964760D01*
X81416485Y-138175169D01*
X81026539Y-138564436D01*
X80815241Y-139073298D01*
X80814760Y-139624285D01*
X76890000Y-139624285D01*
X76890000Y-137897563D01*
X76998110Y-137971431D01*
X77250000Y-138022440D01*
X78750000Y-138022440D01*
X78985317Y-137978162D01*
X79201441Y-137839090D01*
X79346431Y-137626890D01*
X79397440Y-137375000D01*
X79397440Y-136375000D01*
X79353162Y-136139683D01*
X79214090Y-135923559D01*
X79001890Y-135778569D01*
X78750000Y-135727560D01*
X77250000Y-135727560D01*
X77014683Y-135771838D01*
X76890000Y-135852069D01*
X76890000Y-135397563D01*
X76998110Y-135471431D01*
X77250000Y-135522440D01*
X78750000Y-135522440D01*
X78985317Y-135478162D01*
X79201441Y-135339090D01*
X79346431Y-135126890D01*
X79397440Y-134875000D01*
X79397440Y-133875000D01*
X79353162Y-133639683D01*
X79214090Y-133423559D01*
X79001890Y-133278569D01*
X78750000Y-133227560D01*
X77250000Y-133227560D01*
X77014683Y-133271838D01*
X76890000Y-133352069D01*
X76890000Y-132897563D01*
X76998110Y-132971431D01*
X77250000Y-133022440D01*
X78750000Y-133022440D01*
X78985317Y-132978162D01*
X79201441Y-132839090D01*
X79306726Y-132685000D01*
X90289488Y-132685000D01*
X90582571Y-132978083D01*
X90706883Y-133278943D01*
X90969673Y-133542192D01*
X91313201Y-133684838D01*
X91685167Y-133685162D01*
X92028943Y-133543117D01*
X92292192Y-133280327D01*
X92434838Y-132936799D01*
X92435162Y-132564833D01*
X92293117Y-132221057D01*
X92030327Y-131957808D01*
X91727629Y-131832116D01*
X91197756Y-131302244D01*
X91185957Y-131294360D01*
X90934974Y-131126658D01*
X90625000Y-131065000D01*
X79305105Y-131065000D01*
X79214090Y-130923559D01*
X79001890Y-130778569D01*
X78750000Y-130727560D01*
X77250000Y-130727560D01*
X77014683Y-130771838D01*
X76890000Y-130852069D01*
X76890000Y-129597563D01*
X76998110Y-129671431D01*
X77250000Y-129722440D01*
X78750000Y-129722440D01*
X78985317Y-129678162D01*
X79168946Y-129560000D01*
X101262559Y-129560000D01*
X101563201Y-129684838D01*
X101935167Y-129685162D01*
X102278943Y-129543117D01*
X102542192Y-129280327D01*
X102684838Y-128936799D01*
X102685162Y-128564833D01*
X102543117Y-128221057D01*
X102280327Y-127957808D01*
X101936799Y-127815162D01*
X101564833Y-127814838D01*
X101261917Y-127940000D01*
X79372038Y-127940000D01*
X79353162Y-127839683D01*
X79279380Y-127725022D01*
X79340890Y-127635000D01*
X81193178Y-127635000D01*
X81313201Y-127684838D01*
X81685167Y-127685162D01*
X82028943Y-127543117D01*
X82292192Y-127280327D01*
X82342566Y-127159014D01*
X82366580Y-127135000D01*
X102943178Y-127135000D01*
X103063201Y-127184838D01*
X103435167Y-127185162D01*
X103778943Y-127043117D01*
X104042192Y-126780327D01*
X104184838Y-126436799D01*
X104185162Y-126064833D01*
X104043117Y-125721057D01*
X103780327Y-125457808D01*
X103436799Y-125315162D01*
X103064833Y-125314838D01*
X102943431Y-125365000D01*
X82000005Y-125365000D01*
X82000000Y-125364999D01*
X81717516Y-125421190D01*
X81661325Y-125432367D01*
X81374210Y-125624210D01*
X81374208Y-125624213D01*
X81133421Y-125865000D01*
X79128386Y-125865000D01*
X79001890Y-125778569D01*
X78750000Y-125727560D01*
X77250000Y-125727560D01*
X77014683Y-125771838D01*
X76890000Y-125852069D01*
X76890000Y-125397563D01*
X76998110Y-125471431D01*
X77250000Y-125522440D01*
X78750000Y-125522440D01*
X78985317Y-125478162D01*
X79201441Y-125339090D01*
X79306726Y-125185000D01*
X101125000Y-125185000D01*
X101434974Y-125123342D01*
X101697756Y-124947756D01*
X101814107Y-124831405D01*
X102063201Y-124934838D01*
X102435167Y-124935162D01*
X102778943Y-124793117D01*
X103042192Y-124530327D01*
X103184838Y-124186799D01*
X103185162Y-123814833D01*
X103135000Y-123693431D01*
X103135000Y-123250000D01*
X103067633Y-122911325D01*
X102875790Y-122624210D01*
X102875787Y-122624208D01*
X101635000Y-121383420D01*
X101635000Y-119366580D01*
X101866579Y-119135000D01*
X102065099Y-119135000D01*
X102064838Y-119435167D01*
X102206883Y-119778943D01*
X102469673Y-120042192D01*
X102813201Y-120184838D01*
X103185167Y-120185162D01*
X103528943Y-120043117D01*
X103792192Y-119780327D01*
X103934838Y-119436799D01*
X103934943Y-119316637D01*
X106625787Y-116625792D01*
X106625790Y-116625790D01*
X106817633Y-116338675D01*
X106829239Y-116280327D01*
X106885001Y-116000000D01*
X106885000Y-115999995D01*
X106885000Y-106828691D01*
X106885001Y-106828686D01*
X106828810Y-106546202D01*
X106817633Y-106490011D01*
X106625790Y-106202896D01*
X106625787Y-106202894D01*
X105507104Y-105084210D01*
X105485855Y-105070012D01*
X105219989Y-104892367D01*
X105128266Y-104874122D01*
X104881314Y-104824999D01*
X104881309Y-104825000D01*
X104855998Y-104825000D01*
X104732385Y-104640000D01*
X106686963Y-104640000D01*
X107456995Y-104793169D01*
G36*
X133500330Y-140059029D02*
X133771172Y-140240000D01*
X133500330Y-140420971D01*
X133175474Y-140907152D01*
X133061400Y-141480641D01*
X133061400Y-141539359D01*
X133110133Y-141784355D01*
X133023648Y-141870840D01*
X133023645Y-141870842D01*
X132904488Y-141989999D01*
X131434199Y-141989999D01*
X133446192Y-139978006D01*
X133500330Y-140059029D01*
X133500330Y-140059029D01*
G37*
X133500330Y-140059029D02*
X133771172Y-140240000D01*
X133500330Y-140420971D01*
X133175474Y-140907152D01*
X133061400Y-141480641D01*
X133061400Y-141539359D01*
X133110133Y-141784355D01*
X133023648Y-141870840D01*
X133023645Y-141870842D01*
X132904488Y-141989999D01*
X131434199Y-141989999D01*
X133446192Y-139978006D01*
X133500330Y-140059029D01*
G36*
X130343174Y-140790000D02*
X118011040Y-140790000D01*
X118011040Y-140736400D01*
X117966762Y-140501083D01*
X117827690Y-140284959D01*
X117615490Y-140139969D01*
X117571869Y-140131136D01*
X117589029Y-140119670D01*
X117755853Y-139870000D01*
X131263174Y-139870000D01*
X130343174Y-140790000D01*
X130343174Y-140790000D01*
G37*
X130343174Y-140790000D02*
X118011040Y-140790000D01*
X118011040Y-140736400D01*
X117966762Y-140501083D01*
X117827690Y-140284959D01*
X117615490Y-140139969D01*
X117571869Y-140131136D01*
X117589029Y-140119670D01*
X117755853Y-139870000D01*
X131263174Y-139870000D01*
X130343174Y-140790000D01*
G36*
X133400330Y-113379029D02*
X133671172Y-113560000D01*
X133400330Y-113740971D01*
X133075474Y-114227152D01*
X132961400Y-114800641D01*
X132961400Y-114859359D01*
X133075474Y-115432848D01*
X133400330Y-115919029D01*
X133671172Y-116100000D01*
X133400330Y-116280971D01*
X133075474Y-116767152D01*
X132961400Y-117340641D01*
X132961400Y-117399359D01*
X133075474Y-117972848D01*
X133400330Y-118459029D01*
X133671172Y-118640000D01*
X133400330Y-118820971D01*
X133075474Y-119307152D01*
X132961400Y-119880641D01*
X132961400Y-119939359D01*
X133075474Y-120512848D01*
X133400330Y-120999029D01*
X133886511Y-121323885D01*
X134460000Y-121437959D01*
X135033489Y-121323885D01*
X135519670Y-120999029D01*
X135730000Y-120684248D01*
X135940330Y-120999029D01*
X136426511Y-121323885D01*
X137000000Y-121437959D01*
X137573489Y-121323885D01*
X138059670Y-120999029D01*
X138246111Y-120720000D01*
X138590000Y-120720000D01*
X138899974Y-120658342D01*
X139162756Y-120482756D01*
X140290000Y-119355513D01*
X140290000Y-125717935D01*
X140030327Y-125457808D01*
X139686799Y-125315162D01*
X139314833Y-125314838D01*
X138971057Y-125456883D01*
X138840933Y-125586780D01*
X138793117Y-125471057D01*
X138530327Y-125207808D01*
X138186799Y-125065162D01*
X137814833Y-125064838D01*
X137471057Y-125206883D01*
X137375063Y-125302710D01*
X137280327Y-125207808D01*
X136936799Y-125065162D01*
X136564833Y-125064838D01*
X136221057Y-125206883D01*
X135957808Y-125469673D01*
X135832116Y-125772371D01*
X135264508Y-126339980D01*
X133294358Y-126339980D01*
X133122255Y-126374214D01*
X132984385Y-126401637D01*
X132721602Y-126577223D01*
X130327224Y-128971602D01*
X130151638Y-129234384D01*
X130089980Y-129544358D01*
X130089980Y-130958847D01*
X128708848Y-132339980D01*
X126732435Y-132339980D01*
X126792192Y-132280327D01*
X126934838Y-131936799D01*
X126935162Y-131564833D01*
X126885000Y-131443431D01*
X126885000Y-131250005D01*
X126885001Y-131250000D01*
X126823337Y-130940001D01*
X126817633Y-130911325D01*
X126625790Y-130624210D01*
X126625787Y-130624208D01*
X126125790Y-130124210D01*
X126125787Y-130124208D01*
X121636580Y-125635000D01*
X127499995Y-125635000D01*
X127500000Y-125635001D01*
X127782484Y-125578810D01*
X127838675Y-125567633D01*
X128125790Y-125375790D01*
X128158836Y-125342744D01*
X128278943Y-125293117D01*
X128335935Y-125236225D01*
X128365000Y-125306569D01*
X128365000Y-125424259D01*
X128364999Y-125424264D01*
X128388457Y-125542192D01*
X128432367Y-125762939D01*
X128562574Y-125957808D01*
X128624210Y-126050054D01*
X128815000Y-126240844D01*
X128815000Y-127933421D01*
X128591165Y-128157256D01*
X128471057Y-128206883D01*
X128207808Y-128469673D01*
X128065162Y-128813201D01*
X128064838Y-129185167D01*
X128206883Y-129528943D01*
X128469673Y-129792192D01*
X128813201Y-129934838D01*
X129185167Y-129935162D01*
X129528943Y-129793117D01*
X129792192Y-129530327D01*
X129842566Y-129409014D01*
X130325787Y-128925792D01*
X130325790Y-128925790D01*
X130517633Y-128638675D01*
X130585000Y-128300000D01*
X130585000Y-125874269D01*
X130585001Y-125874264D01*
X130517633Y-125535589D01*
X130474514Y-125471057D01*
X130325790Y-125248474D01*
X130325787Y-125248472D01*
X130184907Y-125107592D01*
X130185162Y-124814833D01*
X130043117Y-124471057D01*
X129780327Y-124207808D01*
X129436799Y-124065162D01*
X129436418Y-124065162D01*
X130625787Y-122875792D01*
X130625790Y-122875790D01*
X130768882Y-122661637D01*
X130817634Y-122588674D01*
X130885001Y-122250000D01*
X130885000Y-122249995D01*
X130885000Y-120707371D01*
X130969673Y-120792192D01*
X131313201Y-120934838D01*
X131685167Y-120935162D01*
X132028943Y-120793117D01*
X132292192Y-120530327D01*
X132434838Y-120186799D01*
X132435162Y-119814833D01*
X132385000Y-119693431D01*
X132385000Y-116000000D01*
X132317633Y-115661325D01*
X132125790Y-115374210D01*
X132125787Y-115374208D01*
X132092745Y-115341166D01*
X132043117Y-115221057D01*
X131780327Y-114957808D01*
X131436799Y-114815162D01*
X131064833Y-114814838D01*
X130733961Y-114951551D01*
X132585513Y-113100000D01*
X133213889Y-113100000D01*
X133400330Y-113379029D01*
X133400330Y-113379029D01*
G37*
X133400330Y-113379029D02*
X133671172Y-113560000D01*
X133400330Y-113740971D01*
X133075474Y-114227152D01*
X132961400Y-114800641D01*
X132961400Y-114859359D01*
X133075474Y-115432848D01*
X133400330Y-115919029D01*
X133671172Y-116100000D01*
X133400330Y-116280971D01*
X133075474Y-116767152D01*
X132961400Y-117340641D01*
X132961400Y-117399359D01*
X133075474Y-117972848D01*
X133400330Y-118459029D01*
X133671172Y-118640000D01*
X133400330Y-118820971D01*
X133075474Y-119307152D01*
X132961400Y-119880641D01*
X132961400Y-119939359D01*
X133075474Y-120512848D01*
X133400330Y-120999029D01*
X133886511Y-121323885D01*
X134460000Y-121437959D01*
X135033489Y-121323885D01*
X135519670Y-120999029D01*
X135730000Y-120684248D01*
X135940330Y-120999029D01*
X136426511Y-121323885D01*
X137000000Y-121437959D01*
X137573489Y-121323885D01*
X138059670Y-120999029D01*
X138246111Y-120720000D01*
X138590000Y-120720000D01*
X138899974Y-120658342D01*
X139162756Y-120482756D01*
X140290000Y-119355513D01*
X140290000Y-125717935D01*
X140030327Y-125457808D01*
X139686799Y-125315162D01*
X139314833Y-125314838D01*
X138971057Y-125456883D01*
X138840933Y-125586780D01*
X138793117Y-125471057D01*
X138530327Y-125207808D01*
X138186799Y-125065162D01*
X137814833Y-125064838D01*
X137471057Y-125206883D01*
X137375063Y-125302710D01*
X137280327Y-125207808D01*
X136936799Y-125065162D01*
X136564833Y-125064838D01*
X136221057Y-125206883D01*
X135957808Y-125469673D01*
X135832116Y-125772371D01*
X135264508Y-126339980D01*
X133294358Y-126339980D01*
X133122255Y-126374214D01*
X132984385Y-126401637D01*
X132721602Y-126577223D01*
X130327224Y-128971602D01*
X130151638Y-129234384D01*
X130089980Y-129544358D01*
X130089980Y-130958847D01*
X128708848Y-132339980D01*
X126732435Y-132339980D01*
X126792192Y-132280327D01*
X126934838Y-131936799D01*
X126935162Y-131564833D01*
X126885000Y-131443431D01*
X126885000Y-131250005D01*
X126885001Y-131250000D01*
X126823337Y-130940001D01*
X126817633Y-130911325D01*
X126625790Y-130624210D01*
X126625787Y-130624208D01*
X126125790Y-130124210D01*
X126125787Y-130124208D01*
X121636580Y-125635000D01*
X127499995Y-125635000D01*
X127500000Y-125635001D01*
X127782484Y-125578810D01*
X127838675Y-125567633D01*
X128125790Y-125375790D01*
X128158836Y-125342744D01*
X128278943Y-125293117D01*
X128335935Y-125236225D01*
X128365000Y-125306569D01*
X128365000Y-125424259D01*
X128364999Y-125424264D01*
X128388457Y-125542192D01*
X128432367Y-125762939D01*
X128562574Y-125957808D01*
X128624210Y-126050054D01*
X128815000Y-126240844D01*
X128815000Y-127933421D01*
X128591165Y-128157256D01*
X128471057Y-128206883D01*
X128207808Y-128469673D01*
X128065162Y-128813201D01*
X128064838Y-129185167D01*
X128206883Y-129528943D01*
X128469673Y-129792192D01*
X128813201Y-129934838D01*
X129185167Y-129935162D01*
X129528943Y-129793117D01*
X129792192Y-129530327D01*
X129842566Y-129409014D01*
X130325787Y-128925792D01*
X130325790Y-128925790D01*
X130517633Y-128638675D01*
X130585000Y-128300000D01*
X130585000Y-125874269D01*
X130585001Y-125874264D01*
X130517633Y-125535589D01*
X130474514Y-125471057D01*
X130325790Y-125248474D01*
X130325787Y-125248472D01*
X130184907Y-125107592D01*
X130185162Y-124814833D01*
X130043117Y-124471057D01*
X129780327Y-124207808D01*
X129436799Y-124065162D01*
X129436418Y-124065162D01*
X130625787Y-122875792D01*
X130625790Y-122875790D01*
X130768882Y-122661637D01*
X130817634Y-122588674D01*
X130885001Y-122250000D01*
X130885000Y-122249995D01*
X130885000Y-120707371D01*
X130969673Y-120792192D01*
X131313201Y-120934838D01*
X131685167Y-120935162D01*
X132028943Y-120793117D01*
X132292192Y-120530327D01*
X132434838Y-120186799D01*
X132435162Y-119814833D01*
X132385000Y-119693431D01*
X132385000Y-116000000D01*
X132317633Y-115661325D01*
X132125790Y-115374210D01*
X132125787Y-115374208D01*
X132092745Y-115341166D01*
X132043117Y-115221057D01*
X131780327Y-114957808D01*
X131436799Y-114815162D01*
X131064833Y-114814838D01*
X130733961Y-114951551D01*
X132585513Y-113100000D01*
X133213889Y-113100000D01*
X133400330Y-113379029D01*
G36*
X129115000Y-121185101D02*
X129115000Y-121883421D01*
X127341164Y-123657256D01*
X127221057Y-123706883D01*
X127062664Y-123865000D01*
X119806822Y-123865000D01*
X119686799Y-123815162D01*
X119314833Y-123814838D01*
X118971057Y-123956883D01*
X118707808Y-124219673D01*
X118565162Y-124563201D01*
X118564838Y-124935167D01*
X118706883Y-125278943D01*
X118969673Y-125542192D01*
X119090986Y-125592566D01*
X124874208Y-131375787D01*
X124874210Y-131375790D01*
X125065159Y-131566739D01*
X125064838Y-131935167D01*
X125206883Y-132278943D01*
X125267814Y-132339980D01*
X119766807Y-132339980D01*
X118294070Y-130867244D01*
X118208397Y-130809999D01*
X118031288Y-130691658D01*
X117761148Y-130637923D01*
X117589029Y-130380330D01*
X117102848Y-130055474D01*
X116529359Y-129941400D01*
X116470641Y-129941400D01*
X115897152Y-130055474D01*
X115410971Y-130380330D01*
X115230000Y-130651172D01*
X115049029Y-130380330D01*
X114562848Y-130055474D01*
X113989359Y-129941400D01*
X113930641Y-129941400D01*
X113357152Y-130055474D01*
X112890000Y-130367615D01*
X112890000Y-128212380D01*
X112969673Y-128292192D01*
X113313201Y-128434838D01*
X113685167Y-128435162D01*
X114028943Y-128293117D01*
X114292192Y-128030327D01*
X114434838Y-127686799D01*
X114435162Y-127314833D01*
X114385000Y-127193431D01*
X114385000Y-123587419D01*
X114442192Y-123530327D01*
X114492566Y-123409014D01*
X114766579Y-123135000D01*
X126575731Y-123135000D01*
X126575736Y-123135001D01*
X126858220Y-123078810D01*
X126914411Y-123067633D01*
X127201526Y-122875790D01*
X127201527Y-122875789D01*
X128892408Y-121184907D01*
X129115000Y-121185101D01*
X129115000Y-121185101D01*
G37*
X129115000Y-121185101D02*
X129115000Y-121883421D01*
X127341164Y-123657256D01*
X127221057Y-123706883D01*
X127062664Y-123865000D01*
X119806822Y-123865000D01*
X119686799Y-123815162D01*
X119314833Y-123814838D01*
X118971057Y-123956883D01*
X118707808Y-124219673D01*
X118565162Y-124563201D01*
X118564838Y-124935167D01*
X118706883Y-125278943D01*
X118969673Y-125542192D01*
X119090986Y-125592566D01*
X124874208Y-131375787D01*
X124874210Y-131375790D01*
X125065159Y-131566739D01*
X125064838Y-131935167D01*
X125206883Y-132278943D01*
X125267814Y-132339980D01*
X119766807Y-132339980D01*
X118294070Y-130867244D01*
X118208397Y-130809999D01*
X118031288Y-130691658D01*
X117761148Y-130637923D01*
X117589029Y-130380330D01*
X117102848Y-130055474D01*
X116529359Y-129941400D01*
X116470641Y-129941400D01*
X115897152Y-130055474D01*
X115410971Y-130380330D01*
X115230000Y-130651172D01*
X115049029Y-130380330D01*
X114562848Y-130055474D01*
X113989359Y-129941400D01*
X113930641Y-129941400D01*
X113357152Y-130055474D01*
X112890000Y-130367615D01*
X112890000Y-128212380D01*
X112969673Y-128292192D01*
X113313201Y-128434838D01*
X113685167Y-128435162D01*
X114028943Y-128293117D01*
X114292192Y-128030327D01*
X114434838Y-127686799D01*
X114435162Y-127314833D01*
X114385000Y-127193431D01*
X114385000Y-123587419D01*
X114442192Y-123530327D01*
X114492566Y-123409014D01*
X114766579Y-123135000D01*
X126575731Y-123135000D01*
X126575736Y-123135001D01*
X126858220Y-123078810D01*
X126914411Y-123067633D01*
X127201526Y-122875790D01*
X127201527Y-122875789D01*
X128892408Y-121184907D01*
X129115000Y-121185101D01*
G36*
X99865000Y-121749995D02*
X99864999Y-121750000D01*
X99909711Y-121974775D01*
X99932367Y-122088675D01*
X100050183Y-122265000D01*
X100124210Y-122375790D01*
X101051454Y-123303033D01*
X100789488Y-123565000D01*
X79305105Y-123565000D01*
X79214090Y-123423559D01*
X79001890Y-123278569D01*
X78750000Y-123227560D01*
X77250000Y-123227560D01*
X77014683Y-123271838D01*
X76890000Y-123352069D01*
X76890000Y-120472563D01*
X76998110Y-120546431D01*
X77250000Y-120597440D01*
X78750000Y-120597440D01*
X78985317Y-120553162D01*
X79201441Y-120414090D01*
X79306726Y-120260000D01*
X98625736Y-120260000D01*
X98935710Y-120198342D01*
X99198492Y-120022756D01*
X99865000Y-119356248D01*
X99865000Y-121749995D01*
X99865000Y-121749995D01*
G37*
X99865000Y-121749995D02*
X99864999Y-121750000D01*
X99909711Y-121974775D01*
X99932367Y-122088675D01*
X100050183Y-122265000D01*
X100124210Y-122375790D01*
X101051454Y-123303033D01*
X100789488Y-123565000D01*
X79305105Y-123565000D01*
X79214090Y-123423559D01*
X79001890Y-123278569D01*
X78750000Y-123227560D01*
X77250000Y-123227560D01*
X77014683Y-123271838D01*
X76890000Y-123352069D01*
X76890000Y-120472563D01*
X76998110Y-120546431D01*
X77250000Y-120597440D01*
X78750000Y-120597440D01*
X78985317Y-120553162D01*
X79201441Y-120414090D01*
X79306726Y-120260000D01*
X98625736Y-120260000D01*
X98935710Y-120198342D01*
X99198492Y-120022756D01*
X99865000Y-119356248D01*
X99865000Y-121749995D01*
G36*
X130315162Y-115563201D02*
X130314838Y-115935167D01*
X130456883Y-116278943D01*
X130615000Y-116437336D01*
X130615000Y-118613421D01*
X129092744Y-117091164D01*
X129043117Y-116971057D01*
X128780327Y-116707808D01*
X128436799Y-116565162D01*
X128064833Y-116564838D01*
X127721057Y-116706883D01*
X127457808Y-116969673D01*
X127315162Y-117313201D01*
X127314838Y-117685167D01*
X127456883Y-118028943D01*
X127719673Y-118292192D01*
X127840986Y-118342566D01*
X128813719Y-119315298D01*
X128693431Y-119365000D01*
X128575741Y-119365000D01*
X128575736Y-119364999D01*
X128274811Y-119424858D01*
X128237061Y-119432367D01*
X127949946Y-119624210D01*
X127949944Y-119624213D01*
X126209156Y-121365000D01*
X117760225Y-121365000D01*
X117901927Y-121223299D01*
X117998600Y-120989910D01*
X117998600Y-120285750D01*
X117839850Y-120127000D01*
X116627000Y-120127000D01*
X116627000Y-120147000D01*
X116373000Y-120147000D01*
X116373000Y-120127000D01*
X116353000Y-120127000D01*
X116353000Y-119873000D01*
X116373000Y-119873000D01*
X116373000Y-119853000D01*
X116627000Y-119853000D01*
X116627000Y-119873000D01*
X117839850Y-119873000D01*
X117998600Y-119714250D01*
X117998600Y-119010090D01*
X117901927Y-118776701D01*
X117723298Y-118598073D01*
X117567977Y-118533737D01*
X117589029Y-118519670D01*
X117755853Y-118270000D01*
X120640000Y-118270000D01*
X120949974Y-118208342D01*
X121212756Y-118032756D01*
X121835513Y-117410000D01*
X124500000Y-117410000D01*
X124809974Y-117348342D01*
X125072756Y-117172756D01*
X126185513Y-116060000D01*
X129290000Y-116060000D01*
X129599974Y-115998342D01*
X129862756Y-115822756D01*
X130452105Y-115233407D01*
X130315162Y-115563201D01*
X130315162Y-115563201D01*
G37*
X130315162Y-115563201D02*
X130314838Y-115935167D01*
X130456883Y-116278943D01*
X130615000Y-116437336D01*
X130615000Y-118613421D01*
X129092744Y-117091164D01*
X129043117Y-116971057D01*
X128780327Y-116707808D01*
X128436799Y-116565162D01*
X128064833Y-116564838D01*
X127721057Y-116706883D01*
X127457808Y-116969673D01*
X127315162Y-117313201D01*
X127314838Y-117685167D01*
X127456883Y-118028943D01*
X127719673Y-118292192D01*
X127840986Y-118342566D01*
X128813719Y-119315298D01*
X128693431Y-119365000D01*
X128575741Y-119365000D01*
X128575736Y-119364999D01*
X128274811Y-119424858D01*
X128237061Y-119432367D01*
X127949946Y-119624210D01*
X127949944Y-119624213D01*
X126209156Y-121365000D01*
X117760225Y-121365000D01*
X117901927Y-121223299D01*
X117998600Y-120989910D01*
X117998600Y-120285750D01*
X117839850Y-120127000D01*
X116627000Y-120127000D01*
X116627000Y-120147000D01*
X116373000Y-120147000D01*
X116373000Y-120127000D01*
X116353000Y-120127000D01*
X116353000Y-119873000D01*
X116373000Y-119873000D01*
X116373000Y-119853000D01*
X116627000Y-119853000D01*
X116627000Y-119873000D01*
X117839850Y-119873000D01*
X117998600Y-119714250D01*
X117998600Y-119010090D01*
X117901927Y-118776701D01*
X117723298Y-118598073D01*
X117567977Y-118533737D01*
X117589029Y-118519670D01*
X117755853Y-118270000D01*
X120640000Y-118270000D01*
X120949974Y-118208342D01*
X121212756Y-118032756D01*
X121835513Y-117410000D01*
X124500000Y-117410000D01*
X124809974Y-117348342D01*
X125072756Y-117172756D01*
X126185513Y-116060000D01*
X129290000Y-116060000D01*
X129599974Y-115998342D01*
X129862756Y-115822756D01*
X130452105Y-115233407D01*
X130315162Y-115563201D01*
G36*
X139190000Y-108835513D02*
X139190000Y-118164487D01*
X138254488Y-119100000D01*
X138246111Y-119100000D01*
X138059670Y-118820971D01*
X137788828Y-118640000D01*
X138059670Y-118459029D01*
X138384526Y-117972848D01*
X138498600Y-117399359D01*
X138498600Y-117340641D01*
X138384526Y-116767152D01*
X138059670Y-116280971D01*
X137788828Y-116100000D01*
X138059670Y-115919029D01*
X138384526Y-115432848D01*
X138498600Y-114859359D01*
X138498600Y-114800641D01*
X138384526Y-114227152D01*
X138059670Y-113740971D01*
X137788828Y-113560000D01*
X138059670Y-113379029D01*
X138384526Y-112892848D01*
X138498600Y-112319359D01*
X138498600Y-112260641D01*
X138384526Y-111687152D01*
X138059670Y-111200971D01*
X137788828Y-111020000D01*
X138059670Y-110839029D01*
X138384526Y-110352848D01*
X138498600Y-109779359D01*
X138498600Y-109720641D01*
X138384526Y-109147152D01*
X138059670Y-108660971D01*
X137573489Y-108336115D01*
X137000000Y-108222041D01*
X136426511Y-108336115D01*
X135940330Y-108660971D01*
X135931195Y-108674642D01*
X135926762Y-108651083D01*
X135787690Y-108434959D01*
X135575490Y-108289969D01*
X135323600Y-108238960D01*
X133596400Y-108238960D01*
X133361083Y-108283238D01*
X133144959Y-108422310D01*
X132999969Y-108634510D01*
X132948960Y-108886400D01*
X132948960Y-110613600D01*
X132993238Y-110848917D01*
X133132310Y-111065041D01*
X133344510Y-111210031D01*
X133388345Y-111218908D01*
X133213889Y-111480000D01*
X132250000Y-111480000D01*
X131940026Y-111541658D01*
X131808635Y-111629451D01*
X131677243Y-111717244D01*
X129185036Y-114209452D01*
X129185162Y-114064833D01*
X129135000Y-113943431D01*
X129135000Y-109056822D01*
X129184838Y-108936799D01*
X129185162Y-108564833D01*
X129043117Y-108221057D01*
X128780327Y-107957808D01*
X128436799Y-107815162D01*
X128064833Y-107814838D01*
X127721057Y-107956883D01*
X127457808Y-108219673D01*
X127315162Y-108563201D01*
X127314838Y-108935167D01*
X127365000Y-109056569D01*
X127365000Y-113943178D01*
X127315162Y-114063201D01*
X127314838Y-114435167D01*
X127316835Y-114440000D01*
X125850000Y-114440000D01*
X125540026Y-114501658D01*
X125445471Y-114564838D01*
X125277243Y-114677244D01*
X124164488Y-115790000D01*
X121500000Y-115790000D01*
X121190027Y-115851657D01*
X120927244Y-116027243D01*
X120304488Y-116650000D01*
X117755853Y-116650000D01*
X117589029Y-116400330D01*
X117274248Y-116190000D01*
X117589029Y-115979670D01*
X117913885Y-115493489D01*
X118027959Y-114920000D01*
X117913885Y-114346511D01*
X117589029Y-113860330D01*
X117274248Y-113650000D01*
X117589029Y-113439670D01*
X117913885Y-112953489D01*
X118027959Y-112380000D01*
X117913885Y-111806511D01*
X117589029Y-111320330D01*
X117274248Y-111110000D01*
X117589029Y-110899670D01*
X117607631Y-110871830D01*
X118190000Y-111454199D01*
X118190000Y-114750000D01*
X118251658Y-115059974D01*
X118351902Y-115209999D01*
X118427244Y-115322756D01*
X118832571Y-115728083D01*
X118956883Y-116028943D01*
X119219673Y-116292192D01*
X119563201Y-116434838D01*
X119935167Y-116435162D01*
X120278943Y-116293117D01*
X120542192Y-116030327D01*
X120684838Y-115686799D01*
X120685162Y-115314833D01*
X120543117Y-114971057D01*
X120280327Y-114707808D01*
X120095297Y-114630976D01*
X120388083Y-114510000D01*
X121314488Y-114510000D01*
X121382570Y-114578083D01*
X121506883Y-114878943D01*
X121769673Y-115142192D01*
X122113201Y-115284838D01*
X122485167Y-115285162D01*
X122828943Y-115143117D01*
X123092192Y-114880327D01*
X123234838Y-114536799D01*
X123235162Y-114164833D01*
X123093117Y-113821057D01*
X122830327Y-113557808D01*
X122527628Y-113432116D01*
X122222756Y-113127244D01*
X121959974Y-112951658D01*
X121650000Y-112890000D01*
X120387441Y-112890000D01*
X120086799Y-112765162D01*
X119810000Y-112764921D01*
X119810000Y-111118686D01*
X119748342Y-110808712D01*
X119601095Y-110588342D01*
X119572756Y-110545929D01*
X118294070Y-109267244D01*
X118253160Y-109239909D01*
X118031288Y-109091658D01*
X117761148Y-109037923D01*
X117589029Y-108780330D01*
X117102848Y-108455474D01*
X116529359Y-108341400D01*
X116470641Y-108341400D01*
X115897152Y-108455474D01*
X115410971Y-108780330D01*
X115230000Y-109051172D01*
X115049029Y-108780330D01*
X114985990Y-108738208D01*
X117914199Y-105810000D01*
X136164488Y-105810000D01*
X139190000Y-108835513D01*
X139190000Y-108835513D01*
G37*
X139190000Y-108835513D02*
X139190000Y-118164487D01*
X138254488Y-119100000D01*
X138246111Y-119100000D01*
X138059670Y-118820971D01*
X137788828Y-118640000D01*
X138059670Y-118459029D01*
X138384526Y-117972848D01*
X138498600Y-117399359D01*
X138498600Y-117340641D01*
X138384526Y-116767152D01*
X138059670Y-116280971D01*
X137788828Y-116100000D01*
X138059670Y-115919029D01*
X138384526Y-115432848D01*
X138498600Y-114859359D01*
X138498600Y-114800641D01*
X138384526Y-114227152D01*
X138059670Y-113740971D01*
X137788828Y-113560000D01*
X138059670Y-113379029D01*
X138384526Y-112892848D01*
X138498600Y-112319359D01*
X138498600Y-112260641D01*
X138384526Y-111687152D01*
X138059670Y-111200971D01*
X137788828Y-111020000D01*
X138059670Y-110839029D01*
X138384526Y-110352848D01*
X138498600Y-109779359D01*
X138498600Y-109720641D01*
X138384526Y-109147152D01*
X138059670Y-108660971D01*
X137573489Y-108336115D01*
X137000000Y-108222041D01*
X136426511Y-108336115D01*
X135940330Y-108660971D01*
X135931195Y-108674642D01*
X135926762Y-108651083D01*
X135787690Y-108434959D01*
X135575490Y-108289969D01*
X135323600Y-108238960D01*
X133596400Y-108238960D01*
X133361083Y-108283238D01*
X133144959Y-108422310D01*
X132999969Y-108634510D01*
X132948960Y-108886400D01*
X132948960Y-110613600D01*
X132993238Y-110848917D01*
X133132310Y-111065041D01*
X133344510Y-111210031D01*
X133388345Y-111218908D01*
X133213889Y-111480000D01*
X132250000Y-111480000D01*
X131940026Y-111541658D01*
X131808635Y-111629451D01*
X131677243Y-111717244D01*
X129185036Y-114209452D01*
X129185162Y-114064833D01*
X129135000Y-113943431D01*
X129135000Y-109056822D01*
X129184838Y-108936799D01*
X129185162Y-108564833D01*
X129043117Y-108221057D01*
X128780327Y-107957808D01*
X128436799Y-107815162D01*
X128064833Y-107814838D01*
X127721057Y-107956883D01*
X127457808Y-108219673D01*
X127315162Y-108563201D01*
X127314838Y-108935167D01*
X127365000Y-109056569D01*
X127365000Y-113943178D01*
X127315162Y-114063201D01*
X127314838Y-114435167D01*
X127316835Y-114440000D01*
X125850000Y-114440000D01*
X125540026Y-114501658D01*
X125445471Y-114564838D01*
X125277243Y-114677244D01*
X124164488Y-115790000D01*
X121500000Y-115790000D01*
X121190027Y-115851657D01*
X120927244Y-116027243D01*
X120304488Y-116650000D01*
X117755853Y-116650000D01*
X117589029Y-116400330D01*
X117274248Y-116190000D01*
X117589029Y-115979670D01*
X117913885Y-115493489D01*
X118027959Y-114920000D01*
X117913885Y-114346511D01*
X117589029Y-113860330D01*
X117274248Y-113650000D01*
X117589029Y-113439670D01*
X117913885Y-112953489D01*
X118027959Y-112380000D01*
X117913885Y-111806511D01*
X117589029Y-111320330D01*
X117274248Y-111110000D01*
X117589029Y-110899670D01*
X117607631Y-110871830D01*
X118190000Y-111454199D01*
X118190000Y-114750000D01*
X118251658Y-115059974D01*
X118351902Y-115209999D01*
X118427244Y-115322756D01*
X118832571Y-115728083D01*
X118956883Y-116028943D01*
X119219673Y-116292192D01*
X119563201Y-116434838D01*
X119935167Y-116435162D01*
X120278943Y-116293117D01*
X120542192Y-116030327D01*
X120684838Y-115686799D01*
X120685162Y-115314833D01*
X120543117Y-114971057D01*
X120280327Y-114707808D01*
X120095297Y-114630976D01*
X120388083Y-114510000D01*
X121314488Y-114510000D01*
X121382570Y-114578083D01*
X121506883Y-114878943D01*
X121769673Y-115142192D01*
X122113201Y-115284838D01*
X122485167Y-115285162D01*
X122828943Y-115143117D01*
X123092192Y-114880327D01*
X123234838Y-114536799D01*
X123235162Y-114164833D01*
X123093117Y-113821057D01*
X122830327Y-113557808D01*
X122527628Y-113432116D01*
X122222756Y-113127244D01*
X121959974Y-112951658D01*
X121650000Y-112890000D01*
X120387441Y-112890000D01*
X120086799Y-112765162D01*
X119810000Y-112764921D01*
X119810000Y-111118686D01*
X119748342Y-110808712D01*
X119601095Y-110588342D01*
X119572756Y-110545929D01*
X118294070Y-109267244D01*
X118253160Y-109239909D01*
X118031288Y-109091658D01*
X117761148Y-109037923D01*
X117589029Y-108780330D01*
X117102848Y-108455474D01*
X116529359Y-108341400D01*
X116470641Y-108341400D01*
X115897152Y-108455474D01*
X115410971Y-108780330D01*
X115230000Y-109051172D01*
X115049029Y-108780330D01*
X114985990Y-108738208D01*
X117914199Y-105810000D01*
X136164488Y-105810000D01*
X139190000Y-108835513D01*
G36*
X84064838Y-104935167D02*
X84206883Y-105278943D01*
X84469673Y-105542192D01*
X84590986Y-105592566D01*
X85334208Y-106335787D01*
X85334210Y-106335790D01*
X85621325Y-106527633D01*
X85677516Y-106538810D01*
X85960000Y-106595001D01*
X85960005Y-106595000D01*
X92304002Y-106595000D01*
X92430526Y-106784356D01*
X92276701Y-106848073D01*
X92098073Y-107026702D01*
X92001400Y-107260091D01*
X92001400Y-107964250D01*
X92160150Y-108123000D01*
X93373000Y-108123000D01*
X93373000Y-108103000D01*
X93627000Y-108103000D01*
X93627000Y-108123000D01*
X93647000Y-108123000D01*
X93647000Y-108377000D01*
X93627000Y-108377000D01*
X93627000Y-109589850D01*
X93785750Y-109748600D01*
X94489910Y-109748600D01*
X94723299Y-109651927D01*
X94901927Y-109473298D01*
X94966263Y-109317977D01*
X94980330Y-109339029D01*
X95466511Y-109663885D01*
X96040000Y-109777959D01*
X96613489Y-109663885D01*
X97099670Y-109339029D01*
X97310000Y-109024248D01*
X97520330Y-109339029D01*
X98006511Y-109663885D01*
X98580000Y-109777959D01*
X99153489Y-109663885D01*
X99639670Y-109339029D01*
X99850000Y-109024248D01*
X100060330Y-109339029D01*
X100546511Y-109663885D01*
X101120000Y-109777959D01*
X101693489Y-109663885D01*
X102179670Y-109339029D01*
X102390000Y-109024248D01*
X102600330Y-109339029D01*
X103086511Y-109663885D01*
X103660000Y-109777959D01*
X103890525Y-109732105D01*
X104414990Y-110256569D01*
X104414990Y-114833431D01*
X103684858Y-115563563D01*
X103685240Y-115125715D01*
X103474831Y-114616485D01*
X103085564Y-114226539D01*
X102576702Y-114015241D01*
X102025715Y-114014760D01*
X101516485Y-114225169D01*
X101126539Y-114614436D01*
X100915241Y-115123298D01*
X100914760Y-115674285D01*
X101110942Y-116149084D01*
X100971057Y-116206883D01*
X100966129Y-116211802D01*
X100765762Y-116251658D01*
X100686640Y-116304526D01*
X100502979Y-116427244D01*
X98290224Y-118640000D01*
X79305105Y-118640000D01*
X79279380Y-118600022D01*
X79346431Y-118501890D01*
X79397440Y-118250000D01*
X79397440Y-117250000D01*
X79353162Y-117014683D01*
X79214090Y-116798559D01*
X79001890Y-116653569D01*
X78750000Y-116602560D01*
X77250000Y-116602560D01*
X77014683Y-116646838D01*
X76890000Y-116727069D01*
X76890000Y-115424285D01*
X80814760Y-115424285D01*
X81025169Y-115933515D01*
X81414436Y-116323461D01*
X81923298Y-116534759D01*
X82474285Y-116535240D01*
X82983515Y-116324831D01*
X83373461Y-115935564D01*
X83584759Y-115426702D01*
X83585240Y-114875715D01*
X83374831Y-114366485D01*
X82985564Y-113976539D01*
X82476702Y-113765241D01*
X81925715Y-113764760D01*
X81416485Y-113975169D01*
X81026539Y-114364436D01*
X80815241Y-114873298D01*
X80814760Y-115424285D01*
X76890000Y-115424285D01*
X76890000Y-108535750D01*
X92001400Y-108535750D01*
X92001400Y-109239909D01*
X92098073Y-109473298D01*
X92276701Y-109651927D01*
X92510090Y-109748600D01*
X93214250Y-109748600D01*
X93373000Y-109589850D01*
X93373000Y-108377000D01*
X92160150Y-108377000D01*
X92001400Y-108535750D01*
X76890000Y-108535750D01*
X76890000Y-106563037D01*
X77043169Y-105793005D01*
X77443647Y-105193647D01*
X78043006Y-104793168D01*
X78813037Y-104640000D01*
X84065095Y-104640000D01*
X84064838Y-104935167D01*
X84064838Y-104935167D01*
G37*
X84064838Y-104935167D02*
X84206883Y-105278943D01*
X84469673Y-105542192D01*
X84590986Y-105592566D01*
X85334208Y-106335787D01*
X85334210Y-106335790D01*
X85621325Y-106527633D01*
X85677516Y-106538810D01*
X85960000Y-106595001D01*
X85960005Y-106595000D01*
X92304002Y-106595000D01*
X92430526Y-106784356D01*
X92276701Y-106848073D01*
X92098073Y-107026702D01*
X92001400Y-107260091D01*
X92001400Y-107964250D01*
X92160150Y-108123000D01*
X93373000Y-108123000D01*
X93373000Y-108103000D01*
X93627000Y-108103000D01*
X93627000Y-108123000D01*
X93647000Y-108123000D01*
X93647000Y-108377000D01*
X93627000Y-108377000D01*
X93627000Y-109589850D01*
X93785750Y-109748600D01*
X94489910Y-109748600D01*
X94723299Y-109651927D01*
X94901927Y-109473298D01*
X94966263Y-109317977D01*
X94980330Y-109339029D01*
X95466511Y-109663885D01*
X96040000Y-109777959D01*
X96613489Y-109663885D01*
X97099670Y-109339029D01*
X97310000Y-109024248D01*
X97520330Y-109339029D01*
X98006511Y-109663885D01*
X98580000Y-109777959D01*
X99153489Y-109663885D01*
X99639670Y-109339029D01*
X99850000Y-109024248D01*
X100060330Y-109339029D01*
X100546511Y-109663885D01*
X101120000Y-109777959D01*
X101693489Y-109663885D01*
X102179670Y-109339029D01*
X102390000Y-109024248D01*
X102600330Y-109339029D01*
X103086511Y-109663885D01*
X103660000Y-109777959D01*
X103890525Y-109732105D01*
X104414990Y-110256569D01*
X104414990Y-114833431D01*
X103684858Y-115563563D01*
X103685240Y-115125715D01*
X103474831Y-114616485D01*
X103085564Y-114226539D01*
X102576702Y-114015241D01*
X102025715Y-114014760D01*
X101516485Y-114225169D01*
X101126539Y-114614436D01*
X100915241Y-115123298D01*
X100914760Y-115674285D01*
X101110942Y-116149084D01*
X100971057Y-116206883D01*
X100966129Y-116211802D01*
X100765762Y-116251658D01*
X100686640Y-116304526D01*
X100502979Y-116427244D01*
X98290224Y-118640000D01*
X79305105Y-118640000D01*
X79279380Y-118600022D01*
X79346431Y-118501890D01*
X79397440Y-118250000D01*
X79397440Y-117250000D01*
X79353162Y-117014683D01*
X79214090Y-116798559D01*
X79001890Y-116653569D01*
X78750000Y-116602560D01*
X77250000Y-116602560D01*
X77014683Y-116646838D01*
X76890000Y-116727069D01*
X76890000Y-115424285D01*
X80814760Y-115424285D01*
X81025169Y-115933515D01*
X81414436Y-116323461D01*
X81923298Y-116534759D01*
X82474285Y-116535240D01*
X82983515Y-116324831D01*
X83373461Y-115935564D01*
X83584759Y-115426702D01*
X83585240Y-114875715D01*
X83374831Y-114366485D01*
X82985564Y-113976539D01*
X82476702Y-113765241D01*
X81925715Y-113764760D01*
X81416485Y-113975169D01*
X81026539Y-114364436D01*
X80815241Y-114873298D01*
X80814760Y-115424285D01*
X76890000Y-115424285D01*
X76890000Y-108535750D01*
X92001400Y-108535750D01*
X92001400Y-109239909D01*
X92098073Y-109473298D01*
X92276701Y-109651927D01*
X92510090Y-109748600D01*
X93214250Y-109748600D01*
X93373000Y-109589850D01*
X93373000Y-108377000D01*
X92160150Y-108377000D01*
X92001400Y-108535750D01*
X76890000Y-108535750D01*
X76890000Y-106563037D01*
X77043169Y-105793005D01*
X77443647Y-105193647D01*
X78043006Y-104793168D01*
X78813037Y-104640000D01*
X84065095Y-104640000D01*
X84064838Y-104935167D01*
G36*
X113387244Y-108045930D02*
X113211658Y-108308712D01*
X113155689Y-108590088D01*
X113040081Y-108667334D01*
X113299408Y-107363610D01*
X114226349Y-105976346D01*
X115613610Y-105049408D01*
X116574997Y-104858177D01*
X113387244Y-108045930D01*
X113387244Y-108045930D01*
G37*
X113387244Y-108045930D02*
X113211658Y-108308712D01*
X113155689Y-108590088D01*
X113040081Y-108667334D01*
X113299408Y-107363610D01*
X114226349Y-105976346D01*
X115613610Y-105049408D01*
X116574997Y-104858177D01*
X113387244Y-108045930D01*
M02*
