G04 #@! TF.FileFunction,Legend,Bot*
%FSLAX46Y46*%
G04 Gerber Fmt 4.6, Leading zero omitted, Abs format (unit mm)*
G04 Created by KiCad (PCBNEW 4.0.1-stable) date 08.03.2016 22:55:35*
%MOMM*%
G01*
G04 APERTURE LIST*
%ADD10C,0.100000*%
G04 APERTURE END LIST*
D10*
X175349999Y-102036667D02*
X175016665Y-102036667D01*
X175416665Y-102236667D02*
X175183332Y-101536667D01*
X174949999Y-102236667D01*
X174416665Y-102236667D02*
X174416665Y-101536667D01*
X174416665Y-102203333D02*
X174483332Y-102236667D01*
X174616665Y-102236667D01*
X174683332Y-102203333D01*
X174716665Y-102170000D01*
X174749999Y-102103333D01*
X174749999Y-101903333D01*
X174716665Y-101836667D01*
X174683332Y-101803333D01*
X174616665Y-101770000D01*
X174483332Y-101770000D01*
X174416665Y-101803333D01*
X173783332Y-102236667D02*
X173783332Y-101536667D01*
X173783332Y-102203333D02*
X173849999Y-102236667D01*
X173983332Y-102236667D01*
X174049999Y-102203333D01*
X174083332Y-102170000D01*
X174116666Y-102103333D01*
X174116666Y-101903333D01*
X174083332Y-101836667D01*
X174049999Y-101803333D01*
X173983332Y-101770000D01*
X173849999Y-101770000D01*
X173783332Y-101803333D01*
X173449999Y-102236667D02*
X173449999Y-101770000D01*
X173449999Y-101536667D02*
X173483333Y-101570000D01*
X173449999Y-101603333D01*
X173416666Y-101570000D01*
X173449999Y-101536667D01*
X173449999Y-101603333D01*
X173216666Y-101770000D02*
X172950000Y-101770000D01*
X173116666Y-101536667D02*
X173116666Y-102136667D01*
X173083333Y-102203333D01*
X173016666Y-102236667D01*
X172950000Y-102236667D01*
X172716666Y-102236667D02*
X172716666Y-101770000D01*
X172716666Y-101536667D02*
X172750000Y-101570000D01*
X172716666Y-101603333D01*
X172683333Y-101570000D01*
X172716666Y-101536667D01*
X172716666Y-101603333D01*
X172283333Y-102236667D02*
X172350000Y-102203333D01*
X172383333Y-102170000D01*
X172416667Y-102103333D01*
X172416667Y-101903333D01*
X172383333Y-101836667D01*
X172350000Y-101803333D01*
X172283333Y-101770000D01*
X172183333Y-101770000D01*
X172116667Y-101803333D01*
X172083333Y-101836667D01*
X172050000Y-101903333D01*
X172050000Y-102103333D01*
X172083333Y-102170000D01*
X172116667Y-102203333D01*
X172183333Y-102236667D01*
X172283333Y-102236667D01*
X171750000Y-101770000D02*
X171750000Y-102236667D01*
X171750000Y-101836667D02*
X171716667Y-101803333D01*
X171650000Y-101770000D01*
X171550000Y-101770000D01*
X171483334Y-101803333D01*
X171450000Y-101870000D01*
X171450000Y-102236667D01*
X170816667Y-102236667D02*
X170816667Y-101870000D01*
X170850001Y-101803333D01*
X170916667Y-101770000D01*
X171050001Y-101770000D01*
X171116667Y-101803333D01*
X170816667Y-102203333D02*
X170883334Y-102236667D01*
X171050001Y-102236667D01*
X171116667Y-102203333D01*
X171150001Y-102136667D01*
X171150001Y-102070000D01*
X171116667Y-102003333D01*
X171050001Y-101970000D01*
X170883334Y-101970000D01*
X170816667Y-101936667D01*
X170383334Y-102236667D02*
X170450001Y-102203333D01*
X170483334Y-102136667D01*
X170483334Y-101536667D01*
X169583334Y-102236667D02*
X169583334Y-101536667D01*
X169350001Y-102036667D01*
X169116668Y-101536667D01*
X169116668Y-102236667D01*
X168683334Y-102236667D02*
X168750001Y-102203333D01*
X168783334Y-102170000D01*
X168816668Y-102103333D01*
X168816668Y-101903333D01*
X168783334Y-101836667D01*
X168750001Y-101803333D01*
X168683334Y-101770000D01*
X168583334Y-101770000D01*
X168516668Y-101803333D01*
X168483334Y-101836667D01*
X168450001Y-101903333D01*
X168450001Y-102103333D01*
X168483334Y-102170000D01*
X168516668Y-102203333D01*
X168583334Y-102236667D01*
X168683334Y-102236667D01*
X167850001Y-102236667D02*
X167850001Y-101536667D01*
X167850001Y-102203333D02*
X167916668Y-102236667D01*
X168050001Y-102236667D01*
X168116668Y-102203333D01*
X168150001Y-102170000D01*
X168183335Y-102103333D01*
X168183335Y-101903333D01*
X168150001Y-101836667D01*
X168116668Y-101803333D01*
X168050001Y-101770000D01*
X167916668Y-101770000D01*
X167850001Y-101803333D01*
X167216668Y-101770000D02*
X167216668Y-102236667D01*
X167516668Y-101770000D02*
X167516668Y-102136667D01*
X167483335Y-102203333D01*
X167416668Y-102236667D01*
X167316668Y-102236667D01*
X167250002Y-102203333D01*
X167216668Y-102170000D01*
X166783335Y-102236667D02*
X166850002Y-102203333D01*
X166883335Y-102136667D01*
X166883335Y-101536667D01*
X166250002Y-102203333D02*
X166316668Y-102236667D01*
X166450002Y-102236667D01*
X166516668Y-102203333D01*
X166550002Y-102136667D01*
X166550002Y-101870000D01*
X166516668Y-101803333D01*
X166450002Y-101770000D01*
X166316668Y-101770000D01*
X166250002Y-101803333D01*
X166216668Y-101870000D01*
X166216668Y-101936667D01*
X166550002Y-102003333D01*
X165383335Y-101970000D02*
X164850002Y-101970000D01*
X163983335Y-102236667D02*
X163983335Y-101536667D01*
X163250002Y-102236667D02*
X163483336Y-101903333D01*
X163650002Y-102236667D02*
X163650002Y-101536667D01*
X163383336Y-101536667D01*
X163316669Y-101570000D01*
X163283336Y-101603333D01*
X163250002Y-101670000D01*
X163250002Y-101770000D01*
X163283336Y-101836667D01*
X163316669Y-101870000D01*
X163383336Y-101903333D01*
X163650002Y-101903333D01*
X162616669Y-102236667D02*
X162950002Y-102236667D01*
X162950002Y-101536667D01*
X162383335Y-102236667D02*
X162383335Y-101536667D01*
X162150002Y-102036667D01*
X161916669Y-101536667D01*
X161916669Y-102236667D01*
X161250002Y-102236667D02*
X161583335Y-102236667D01*
X161583335Y-101536667D01*
X161050002Y-101603333D02*
X161016668Y-101570000D01*
X160950002Y-101536667D01*
X160783335Y-101536667D01*
X160716668Y-101570000D01*
X160683335Y-101603333D01*
X160650002Y-101670000D01*
X160650002Y-101736667D01*
X160683335Y-101836667D01*
X161083335Y-102236667D01*
X160650002Y-102236667D01*
X160016668Y-101536667D02*
X160350001Y-101536667D01*
X160383335Y-101870000D01*
X160350001Y-101836667D01*
X160283335Y-101803333D01*
X160116668Y-101803333D01*
X160050001Y-101836667D01*
X160016668Y-101870000D01*
X159983335Y-101936667D01*
X159983335Y-102103333D01*
X160016668Y-102170000D01*
X160050001Y-102203333D01*
X160116668Y-102236667D01*
X160283335Y-102236667D01*
X160350001Y-102203333D01*
X160383335Y-102170000D01*
X159550001Y-101536667D02*
X159483334Y-101536667D01*
X159416668Y-101570000D01*
X159383334Y-101603333D01*
X159350001Y-101670000D01*
X159316668Y-101803333D01*
X159316668Y-101970000D01*
X159350001Y-102103333D01*
X159383334Y-102170000D01*
X159416668Y-102203333D01*
X159483334Y-102236667D01*
X159550001Y-102236667D01*
X159616668Y-102203333D01*
X159650001Y-102170000D01*
X159683334Y-102103333D01*
X159716668Y-101970000D01*
X159716668Y-101803333D01*
X159683334Y-101670000D01*
X159650001Y-101603333D01*
X159616668Y-101570000D01*
X159550001Y-101536667D01*
X159050001Y-101603333D02*
X159016667Y-101570000D01*
X158950001Y-101536667D01*
X158783334Y-101536667D01*
X158716667Y-101570000D01*
X158683334Y-101603333D01*
X158650001Y-101670000D01*
X158650001Y-101736667D01*
X158683334Y-101836667D01*
X159083334Y-102236667D01*
X158650001Y-102236667D01*
X168083332Y-103316667D02*
X168316666Y-102983333D01*
X168483332Y-103316667D02*
X168483332Y-102616667D01*
X168216666Y-102616667D01*
X168149999Y-102650000D01*
X168116666Y-102683333D01*
X168083332Y-102750000D01*
X168083332Y-102850000D01*
X168116666Y-102916667D01*
X168149999Y-102950000D01*
X168216666Y-102983333D01*
X168483332Y-102983333D01*
X167516666Y-103283333D02*
X167583332Y-103316667D01*
X167716666Y-103316667D01*
X167783332Y-103283333D01*
X167816666Y-103216667D01*
X167816666Y-102950000D01*
X167783332Y-102883333D01*
X167716666Y-102850000D01*
X167583332Y-102850000D01*
X167516666Y-102883333D01*
X167483332Y-102950000D01*
X167483332Y-103016667D01*
X167816666Y-103083333D01*
X167249999Y-102850000D02*
X167083332Y-103316667D01*
X166916666Y-102850000D01*
X166649999Y-103250000D02*
X166616666Y-103283333D01*
X166649999Y-103316667D01*
X166683333Y-103283333D01*
X166649999Y-103250000D01*
X166649999Y-103316667D01*
X165816667Y-103116667D02*
X165483333Y-103116667D01*
X165883333Y-103316667D02*
X165650000Y-102616667D01*
X165416667Y-103316667D01*
X170016665Y-104063333D02*
X170049998Y-104030000D01*
X170116665Y-103996667D01*
X170183332Y-103996667D01*
X170249998Y-104030000D01*
X170283332Y-104063333D01*
X170316665Y-104130000D01*
X170316665Y-104196667D01*
X170283332Y-104263333D01*
X170249998Y-104296667D01*
X170183332Y-104330000D01*
X170116665Y-104330000D01*
X170049998Y-104296667D01*
X170016665Y-104263333D01*
X170016665Y-103996667D02*
X170016665Y-104263333D01*
X169983332Y-104296667D01*
X169949998Y-104296667D01*
X169883332Y-104263333D01*
X169849998Y-104196667D01*
X169849998Y-104030000D01*
X169916665Y-103930000D01*
X170016665Y-103863333D01*
X170149998Y-103830000D01*
X170283332Y-103863333D01*
X170383332Y-103930000D01*
X170449998Y-104030000D01*
X170483332Y-104163333D01*
X170449998Y-104296667D01*
X170383332Y-104396667D01*
X170283332Y-104463333D01*
X170149998Y-104496667D01*
X170016665Y-104463333D01*
X169916665Y-104396667D01*
X169549998Y-104396667D02*
X169549998Y-103930000D01*
X169549998Y-103996667D02*
X169516665Y-103963333D01*
X169449998Y-103930000D01*
X169349998Y-103930000D01*
X169283332Y-103963333D01*
X169249998Y-104030000D01*
X169249998Y-104396667D01*
X169249998Y-104030000D02*
X169216665Y-103963333D01*
X169149998Y-103930000D01*
X169049998Y-103930000D01*
X168983332Y-103963333D01*
X168949998Y-104030000D01*
X168949998Y-104396667D01*
X168316665Y-104396667D02*
X168316665Y-104030000D01*
X168349999Y-103963333D01*
X168416665Y-103930000D01*
X168549999Y-103930000D01*
X168616665Y-103963333D01*
X168316665Y-104363333D02*
X168383332Y-104396667D01*
X168549999Y-104396667D01*
X168616665Y-104363333D01*
X168649999Y-104296667D01*
X168649999Y-104230000D01*
X168616665Y-104163333D01*
X168549999Y-104130000D01*
X168383332Y-104130000D01*
X168316665Y-104096667D01*
X167983332Y-104396667D02*
X167983332Y-103696667D01*
X167916666Y-104130000D02*
X167716666Y-104396667D01*
X167716666Y-103930000D02*
X167983332Y-104196667D01*
X167149999Y-104363333D02*
X167216665Y-104396667D01*
X167349999Y-104396667D01*
X167416665Y-104363333D01*
X167449999Y-104296667D01*
X167449999Y-104030000D01*
X167416665Y-103963333D01*
X167349999Y-103930000D01*
X167216665Y-103930000D01*
X167149999Y-103963333D01*
X167116665Y-104030000D01*
X167116665Y-104096667D01*
X167449999Y-104163333D01*
X166816665Y-104396667D02*
X166816665Y-103930000D01*
X166816665Y-104063333D02*
X166783332Y-103996667D01*
X166749999Y-103963333D01*
X166683332Y-103930000D01*
X166616665Y-103930000D01*
X166549999Y-104463333D02*
X166016666Y-104463333D01*
X165849999Y-104396667D02*
X165849999Y-103696667D01*
X165849999Y-103963333D02*
X165783333Y-103930000D01*
X165649999Y-103930000D01*
X165583333Y-103963333D01*
X165549999Y-103996667D01*
X165516666Y-104063333D01*
X165516666Y-104263333D01*
X165549999Y-104330000D01*
X165583333Y-104363333D01*
X165649999Y-104396667D01*
X165783333Y-104396667D01*
X165849999Y-104363333D01*
X164950000Y-104363333D02*
X165016666Y-104396667D01*
X165150000Y-104396667D01*
X165216666Y-104363333D01*
X165250000Y-104296667D01*
X165250000Y-104030000D01*
X165216666Y-103963333D01*
X165150000Y-103930000D01*
X165016666Y-103930000D01*
X164950000Y-103963333D01*
X164916666Y-104030000D01*
X164916666Y-104096667D01*
X165250000Y-104163333D01*
X164616666Y-104396667D02*
X164616666Y-103930000D01*
X164616666Y-104063333D02*
X164583333Y-103996667D01*
X164550000Y-103963333D01*
X164483333Y-103930000D01*
X164416666Y-103930000D01*
X164183333Y-104396667D02*
X164183333Y-103930000D01*
X164183333Y-104063333D02*
X164150000Y-103996667D01*
X164116667Y-103963333D01*
X164050000Y-103930000D01*
X163983333Y-103930000D01*
X163816667Y-103930000D02*
X163650000Y-104396667D01*
X163483334Y-103930000D02*
X163650000Y-104396667D01*
X163716667Y-104563333D01*
X163750000Y-104596667D01*
X163816667Y-104630000D01*
M02*
