G04 #@! TF.FileFunction,Copper,L2,Bot,Signal*
%FSLAX46Y46*%
G04 Gerber Fmt 4.6, Leading zero omitted, Abs format (unit mm)*
G04 Created by KiCad (PCBNEW 4.0.1-stable) date 08.03.2016 22:55:35*
%MOMM*%
G01*
G04 APERTURE LIST*
%ADD10C,0.100000*%
%ADD11C,0.600000*%
%ADD12O,1.998980X1.998980*%
%ADD13R,1.998980X1.998980*%
%ADD14R,1.727200X2.032000*%
%ADD15O,1.727200X2.032000*%
%ADD16C,5.000000*%
%ADD17R,1.727200X1.727200*%
%ADD18O,1.727200X1.727200*%
%ADD19C,0.500000*%
%ADD20C,1.000000*%
%ADD21C,2.000000*%
%ADD22C,5.000000*%
%ADD23C,2.500000*%
%ADD24C,0.250000*%
%ADD25C,1.500000*%
%ADD26C,2.400000*%
G04 APERTURE END LIST*
D10*
D11*
X160000000Y-102600000D03*
X158650000Y-96975000D03*
X161075000Y-97075000D03*
X163850000Y-97125000D03*
X166225000Y-97125000D03*
X168950000Y-97125000D03*
X171500000Y-97000000D03*
X174375000Y-96950000D03*
X157250000Y-118150000D03*
X155750000Y-118150000D03*
X157250000Y-116650000D03*
X155750000Y-116650000D03*
X157250000Y-115150000D03*
X155750000Y-115150000D03*
X182000000Y-110850000D03*
X180400000Y-110750000D03*
X171640000Y-93050000D03*
X166000000Y-93130000D03*
X160460000Y-93200000D03*
X178800000Y-114300000D03*
X181800000Y-114300000D03*
X155770000Y-103880000D03*
X160280000Y-110880000D03*
X166360000Y-109630000D03*
X173720000Y-103760000D03*
X176950000Y-102250000D03*
D12*
X175510000Y-95150000D03*
D13*
X167890000Y-95150000D03*
D12*
X170430000Y-95150000D03*
X172970000Y-95150000D03*
X164660000Y-95150000D03*
D13*
X157040000Y-95150000D03*
D12*
X159580000Y-95150000D03*
X162120000Y-95150000D03*
D14*
X157400000Y-99950000D03*
D15*
X159940000Y-99950000D03*
X162480000Y-99950000D03*
X165020000Y-99950000D03*
X167560000Y-99950000D03*
X170100000Y-99950000D03*
X172640000Y-99950000D03*
X175180000Y-99950000D03*
D11*
X155350000Y-114100000D03*
D16*
X180370000Y-98100000D03*
D17*
X175000000Y-115000000D03*
D18*
X175000000Y-117540000D03*
X172460000Y-115000000D03*
X172460000Y-117540000D03*
X169920000Y-115000000D03*
X169920000Y-117540000D03*
X167380000Y-115000000D03*
X167380000Y-117540000D03*
X164840000Y-115000000D03*
X164840000Y-117540000D03*
X162300000Y-115000000D03*
X162300000Y-117540000D03*
X159760000Y-115000000D03*
X159760000Y-117540000D03*
D11*
X130750000Y-53950000D03*
X132750000Y-60750000D03*
X127950000Y-61350000D03*
X146500000Y-109975000D03*
X124850000Y-109975000D03*
X160600000Y-45900000D03*
X160700000Y-48500000D03*
X156900000Y-46300000D03*
X154000000Y-48100000D03*
X161400000Y-42700000D03*
X185400000Y-35700000D03*
X158700000Y-44500000D03*
X158700000Y-51800000D03*
X156900000Y-49600000D03*
X185800000Y-38300000D03*
X186900000Y-36200000D03*
X186200000Y-34100000D03*
X186800000Y-42000000D03*
X186600000Y-77900000D03*
X186700000Y-80500000D03*
X182900000Y-78300000D03*
X180000000Y-80100000D03*
X187400000Y-74700000D03*
X184700000Y-76500000D03*
X184700000Y-83800000D03*
X182900000Y-81600000D03*
X160270000Y-108800000D03*
X176990000Y-103970000D03*
X166350000Y-106090000D03*
X172450000Y-105480000D03*
X168790000Y-113200000D03*
X171320000Y-112480000D03*
D19*
X131490000Y-40350000D02*
X131490000Y-32820000D01*
X131490000Y-32820000D02*
X131220000Y-32550000D01*
X130750000Y-53950000D02*
X125950000Y-58750000D01*
X132810000Y-75690000D02*
X131550000Y-75690000D01*
X133550000Y-74950000D02*
X132810000Y-75690000D01*
X133550000Y-71550000D02*
X133550000Y-74950000D01*
X132950000Y-70950000D02*
X133550000Y-71550000D01*
X128750000Y-70950000D02*
X132950000Y-70950000D01*
X125950000Y-68150000D02*
X128750000Y-70950000D01*
X125950000Y-58750000D02*
X125950000Y-68150000D01*
X131490000Y-40350000D02*
X131490000Y-53210000D01*
X131490000Y-53210000D02*
X130750000Y-53950000D01*
X131550000Y-75690000D02*
X132210000Y-75690000D01*
D20*
X131780000Y-117940000D02*
X129240000Y-115400000D01*
D21*
X119080000Y-115400000D02*
X116540000Y-115400000D01*
X121620000Y-115400000D02*
X119080000Y-115400000D01*
X124160000Y-115400000D02*
X121620000Y-115400000D01*
X126700000Y-115400000D02*
X124160000Y-115400000D01*
X129240000Y-115400000D02*
X126700000Y-115400000D01*
D22*
X117650000Y-33550000D02*
X109100000Y-42100000D01*
X109100000Y-42100000D02*
X109100000Y-42750000D01*
D21*
X106100000Y-101500000D02*
X106100000Y-100660000D01*
X106100000Y-100660000D02*
X108110000Y-98650000D01*
X106100000Y-114500000D02*
X106100000Y-101500000D01*
X116540000Y-117940000D02*
X109540000Y-117940000D01*
X109540000Y-117940000D02*
X106100000Y-114500000D01*
X116540000Y-117940000D02*
X119080000Y-117940000D01*
X121620000Y-117940000D02*
X119080000Y-117940000D01*
X124160000Y-117940000D02*
X121620000Y-117940000D01*
X126700000Y-117940000D02*
X124160000Y-117940000D01*
X129240000Y-117940000D02*
X126700000Y-117940000D01*
D23*
X121150000Y-43950000D02*
X121150000Y-37900000D01*
X121150000Y-37900000D02*
X122650000Y-36400000D01*
X122650000Y-36400000D02*
X122650000Y-33550000D01*
D19*
X132550000Y-60950000D02*
X132750000Y-60750000D01*
X128350000Y-60950000D02*
X132550000Y-60950000D01*
X127950000Y-61350000D02*
X128350000Y-60950000D01*
D20*
X149400000Y-103400000D02*
X148400000Y-102400000D01*
X148400000Y-102400000D02*
X146700000Y-102400000D01*
X146700000Y-102400000D02*
X145350000Y-101050000D01*
X145350000Y-101050000D02*
X145350000Y-98650000D01*
X145350000Y-102300000D02*
X145350000Y-104590000D01*
X139400000Y-117940000D02*
X145560000Y-117940000D01*
X145560000Y-117940000D02*
X149400000Y-114100000D01*
X149400000Y-114100000D02*
X149400000Y-103400000D01*
X139400000Y-105460000D02*
X122480000Y-105460000D01*
X141940000Y-105460000D02*
X139400000Y-105460000D01*
X144480000Y-105460000D02*
X141940000Y-105460000D01*
X145350000Y-98650000D02*
X145350000Y-102300000D01*
X145350000Y-104590000D02*
X144480000Y-105460000D01*
X122480000Y-105460000D02*
X119940000Y-105460000D01*
X117400000Y-105460000D02*
X119940000Y-105460000D01*
X123350000Y-98650000D02*
X123350000Y-104590000D01*
X123350000Y-104590000D02*
X122480000Y-105460000D01*
D24*
X108110000Y-111350000D02*
X108110000Y-112610000D01*
X108110000Y-112610000D02*
X108900000Y-113400000D01*
X131780000Y-115400000D02*
X131780000Y-115380000D01*
X131780000Y-115380000D02*
X130400000Y-114000000D01*
X130400000Y-114000000D02*
X109500000Y-114000000D01*
X109500000Y-114000000D02*
X108900000Y-113400000D01*
X134320000Y-115400000D02*
X134320000Y-114420000D01*
X134320000Y-114420000D02*
X133449998Y-113549998D01*
X133449998Y-113549998D02*
X125549998Y-113549998D01*
X125549998Y-113549998D02*
X123350000Y-111350000D01*
X134320000Y-115400000D02*
X134320000Y-115120000D01*
X136860000Y-115400000D02*
X136800000Y-115400000D01*
X136800000Y-115400000D02*
X134499996Y-113099996D01*
X134499996Y-113099996D02*
X127639996Y-113099996D01*
X127639996Y-113099996D02*
X125890000Y-111350000D01*
X136860000Y-115400000D02*
X136860000Y-115260000D01*
D25*
X142820000Y-95400000D02*
X142820000Y-90210000D01*
X142820000Y-90210000D02*
X142810000Y-90200000D01*
X142810000Y-98650000D02*
X142810000Y-95410000D01*
X142810000Y-95410000D02*
X142820000Y-95400000D01*
X135200000Y-95400000D02*
X135200000Y-98640000D01*
X135200000Y-98640000D02*
X135190000Y-98650000D01*
X135190000Y-90200000D02*
X135190000Y-95390000D01*
X135190000Y-95390000D02*
X135200000Y-95400000D01*
X137740000Y-95400000D02*
X137740000Y-90210000D01*
X137740000Y-90210000D02*
X137730000Y-90200000D01*
X137730000Y-98650000D02*
X137730000Y-95410000D01*
X137730000Y-95410000D02*
X137740000Y-95400000D01*
X140270000Y-90200000D02*
X140270000Y-95390000D01*
X140270000Y-95390000D02*
X140280000Y-95400000D01*
X140280000Y-95400000D02*
X140280000Y-98640000D01*
X140280000Y-98640000D02*
X140270000Y-98650000D01*
X120810000Y-90200000D02*
X120810000Y-95390000D01*
X120810000Y-95390000D02*
X120820000Y-95400000D01*
X120820000Y-95400000D02*
X120820000Y-98640000D01*
X120820000Y-98640000D02*
X120810000Y-98650000D01*
X113190000Y-98650000D02*
X113190000Y-95410000D01*
X113190000Y-95410000D02*
X113200000Y-95400000D01*
X113200000Y-95400000D02*
X113200000Y-90210000D01*
X113200000Y-90210000D02*
X113190000Y-90200000D01*
X115730000Y-98650000D02*
X115730000Y-95410000D01*
X115730000Y-95410000D02*
X115740000Y-95400000D01*
X115730000Y-90200000D02*
X115730000Y-95390000D01*
X115730000Y-95390000D02*
X115740000Y-95400000D01*
X118270000Y-98650000D02*
X118270000Y-95410000D01*
X118270000Y-95410000D02*
X118280000Y-95400000D01*
X118280000Y-95400000D02*
X118280000Y-90210000D01*
X118280000Y-90210000D02*
X118270000Y-90200000D01*
D20*
X140270000Y-111350000D02*
X142810000Y-111350000D01*
X118270000Y-111350000D02*
X120810000Y-111350000D01*
D24*
X146500000Y-109975000D02*
X146025000Y-109500000D01*
X146025000Y-109500000D02*
X146025000Y-107050000D01*
X146025000Y-107050000D02*
X145725000Y-106750000D01*
X145725000Y-106750000D02*
X140650000Y-106750000D01*
X140650000Y-106750000D02*
X139400000Y-108000000D01*
X137730000Y-111350000D02*
X137730000Y-111070000D01*
X137730000Y-111070000D02*
X139300000Y-109500000D01*
X139300000Y-109500000D02*
X142980000Y-109500000D01*
X142980000Y-109500000D02*
X144480000Y-108000000D01*
X124850000Y-109975000D02*
X124250000Y-109975000D01*
X124250000Y-109975000D02*
X123925000Y-109650000D01*
X123925000Y-109650000D02*
X123925000Y-107000000D01*
X123925000Y-107000000D02*
X123675000Y-106750000D01*
X123675000Y-106750000D02*
X118650000Y-106750000D01*
X118650000Y-106750000D02*
X117400000Y-108000000D01*
X115730000Y-111350000D02*
X115730000Y-111170000D01*
X115730000Y-111170000D02*
X116900000Y-110000000D01*
X116900000Y-110000000D02*
X120480000Y-110000000D01*
X120480000Y-110000000D02*
X122480000Y-108000000D01*
X160600000Y-45900000D02*
X160700000Y-46000000D01*
X160700000Y-46000000D02*
X160700000Y-48500000D01*
X160700000Y-48500000D02*
X162490000Y-50290000D01*
X162490000Y-50290000D02*
X162490000Y-53060000D01*
D25*
X145500000Y-33250000D02*
X144000000Y-33250000D01*
X144000000Y-33250000D02*
X142000000Y-35250000D01*
X142000000Y-35250000D02*
X142000000Y-54250000D01*
X142000000Y-54250000D02*
X143350000Y-55600000D01*
X143350000Y-55600000D02*
X144710000Y-55600000D01*
X147250000Y-55600000D02*
X149790000Y-55600000D01*
X144710000Y-55600000D02*
X147250000Y-55600000D01*
X149790000Y-55600000D02*
X152330000Y-55600000D01*
X152330000Y-53060000D02*
X152330000Y-55600000D01*
X148040000Y-42520000D02*
X148040000Y-39460000D01*
X148040000Y-39460000D02*
X150500000Y-37000000D01*
X150500000Y-37000000D02*
X150500000Y-33250000D01*
X174040000Y-74520000D02*
X174040000Y-71460000D01*
X174040000Y-71460000D02*
X176500000Y-69000000D01*
X176500000Y-69000000D02*
X176500000Y-65250000D01*
D24*
X155800000Y-46300000D02*
X156900000Y-46300000D01*
X154000000Y-48100000D02*
X155800000Y-46300000D01*
X157750000Y-44500000D02*
X159550000Y-42700000D01*
X159550000Y-42700000D02*
X159500000Y-42700000D01*
X157750000Y-52720000D02*
X157750000Y-44500000D01*
X159500000Y-42700000D02*
X161400000Y-42700000D01*
X157750000Y-52720000D02*
X157410000Y-53060000D01*
X157410000Y-53060000D02*
X157410000Y-55600000D01*
X183340000Y-52660000D02*
X183340000Y-37760000D01*
X183340000Y-37760000D02*
X185400000Y-35700000D01*
X158700000Y-51800000D02*
X158700000Y-44500000D01*
X154870000Y-55600000D02*
X156100000Y-54370000D01*
X156100000Y-50400000D02*
X156900000Y-49600000D01*
X156100000Y-54370000D02*
X156100000Y-50400000D01*
X185880000Y-52660000D02*
X185880000Y-38380000D01*
X185880000Y-38380000D02*
X185800000Y-38300000D01*
X189700000Y-41000000D02*
X189700000Y-39000000D01*
X189700000Y-39000000D02*
X186900000Y-36200000D01*
X189700000Y-41000000D02*
X189700000Y-43000000D01*
X188420000Y-55200000D02*
X188420000Y-55180000D01*
X188420000Y-55180000D02*
X189700000Y-53900000D01*
X189700000Y-53900000D02*
X189700000Y-43000000D01*
X182100000Y-53900000D02*
X182100000Y-51500000D01*
X182100000Y-51500000D02*
X180700000Y-50100000D01*
X180700000Y-50100000D02*
X180700000Y-45800000D01*
X180700000Y-45800000D02*
X180700000Y-39500000D01*
X180700000Y-39500000D02*
X180700000Y-38700000D01*
X180700000Y-38700000D02*
X182100000Y-37300000D01*
X183340000Y-55200000D02*
X183340000Y-55140000D01*
X183340000Y-55140000D02*
X182100000Y-53900000D01*
X185300000Y-34100000D02*
X186200000Y-34100000D01*
X182100000Y-37300000D02*
X185300000Y-34100000D01*
X183340000Y-55200000D02*
X183340000Y-54960000D01*
X187100000Y-42300000D02*
X187150000Y-42350000D01*
X187150000Y-42350000D02*
X187150000Y-53850000D01*
X187150000Y-53850000D02*
X187100000Y-53900000D01*
X185880000Y-55200000D02*
X185880000Y-55120000D01*
X185880000Y-55120000D02*
X187100000Y-53900000D01*
X187100000Y-42300000D02*
X186800000Y-42000000D01*
X186600000Y-77900000D02*
X186700000Y-78000000D01*
X186700000Y-78000000D02*
X186700000Y-80500000D01*
X186700000Y-80500000D02*
X188490000Y-82290000D01*
X188490000Y-82290000D02*
X188490000Y-85060000D01*
D25*
X171500000Y-65250000D02*
X170000000Y-65250000D01*
X170000000Y-65250000D02*
X168000000Y-67250000D01*
X168000000Y-67250000D02*
X168000000Y-86250000D01*
X168000000Y-86250000D02*
X169350000Y-87600000D01*
X169350000Y-87600000D02*
X170710000Y-87600000D01*
X173250000Y-87600000D02*
X175790000Y-87600000D01*
X170710000Y-87600000D02*
X173250000Y-87600000D01*
X175790000Y-87600000D02*
X178330000Y-87600000D01*
X178330000Y-85060000D02*
X178330000Y-87600000D01*
D24*
X181800000Y-78300000D02*
X182900000Y-78300000D01*
X180000000Y-80100000D02*
X181800000Y-78300000D01*
X183750000Y-76500000D02*
X185550000Y-74700000D01*
X185550000Y-74700000D02*
X185500000Y-74700000D01*
X183750000Y-84720000D02*
X183750000Y-76500000D01*
X185500000Y-74700000D02*
X187400000Y-74700000D01*
X183750000Y-84720000D02*
X183410000Y-85060000D01*
X183410000Y-85060000D02*
X183410000Y-87600000D01*
X184700000Y-83800000D02*
X184700000Y-76500000D01*
X180870000Y-87600000D02*
X182100000Y-86370000D01*
X182100000Y-82400000D02*
X182900000Y-81600000D01*
X182100000Y-86370000D02*
X182100000Y-82400000D01*
D19*
X160270000Y-108800000D02*
X155630000Y-113440000D01*
X155630000Y-113440000D02*
X155630000Y-116850000D01*
X155630000Y-116850000D02*
X156320000Y-117540000D01*
X156320000Y-117540000D02*
X157735000Y-117540000D01*
X176990000Y-103970000D02*
X175480000Y-105480000D01*
X175480000Y-105480000D02*
X172450000Y-105480000D01*
X166350000Y-106090000D02*
X166960000Y-105480000D01*
X166960000Y-105480000D02*
X172450000Y-105480000D01*
D20*
X157400000Y-101840000D02*
X157400000Y-103375000D01*
X157400000Y-103375000D02*
X158275000Y-104250000D01*
X158275000Y-104250000D02*
X162300000Y-104250000D01*
D21*
X167380000Y-115000000D02*
X169920000Y-115000000D01*
D26*
X162625000Y-104575000D02*
X162300000Y-104250000D01*
X162300000Y-104250000D02*
X164100000Y-106050000D01*
X164100000Y-114260000D02*
X164840000Y-115000000D01*
X164100000Y-106050000D02*
X164100000Y-114260000D01*
X161800000Y-103750000D02*
X162625000Y-104575000D01*
X162625000Y-104575000D02*
X162815000Y-104765000D01*
D21*
X164840000Y-115000000D02*
X167380000Y-115000000D01*
X162300000Y-115000000D02*
X164840000Y-115000000D01*
X159760000Y-115000000D02*
X162300000Y-115000000D01*
D20*
X157400000Y-99950000D02*
X157400000Y-101840000D01*
X172640000Y-99950000D02*
X172640000Y-102135000D01*
X172640000Y-102135000D02*
X171750000Y-103025000D01*
X172970000Y-95050000D02*
X172970000Y-99620000D01*
X172970000Y-99620000D02*
X172640000Y-99950000D01*
X167560000Y-99950000D02*
X167560000Y-95380000D01*
X167560000Y-95380000D02*
X167890000Y-95050000D01*
X167560000Y-99950000D02*
X167560000Y-100990000D01*
X167560000Y-100990000D02*
X165525000Y-103025000D01*
D21*
X162525000Y-103025000D02*
X165525000Y-103025000D01*
X165525000Y-103025000D02*
X171750000Y-103025000D01*
X171750000Y-103025000D02*
X171775000Y-103050000D01*
D20*
X162480000Y-99950000D02*
X162480000Y-95410000D01*
X162480000Y-95410000D02*
X162120000Y-95050000D01*
X162525000Y-103025000D02*
X162525000Y-99995000D01*
X162525000Y-99995000D02*
X162480000Y-99950000D01*
D21*
X161800000Y-103750000D02*
X162525000Y-103025000D01*
D20*
X157400000Y-99950000D02*
X157040000Y-99590000D01*
X157040000Y-99590000D02*
X157040000Y-95050000D01*
D24*
X171250000Y-116330000D02*
X172460000Y-117540000D01*
X168790000Y-113200000D02*
X170400000Y-113200000D01*
X171250000Y-114050000D02*
X171250000Y-116330000D01*
X170400000Y-113200000D02*
X171250000Y-114050000D01*
X175000000Y-117540000D02*
X174740000Y-117540000D01*
X174740000Y-117540000D02*
X173750000Y-116550000D01*
X173750000Y-116550000D02*
X173750000Y-113450000D01*
X173750000Y-113450000D02*
X172780000Y-112480000D01*
X172780000Y-112480000D02*
X171320000Y-112480000D01*
D19*
X165020000Y-99950000D02*
X165020000Y-95410000D01*
X165020000Y-95410000D02*
X164660000Y-95050000D01*
X175510000Y-95050000D02*
X175510000Y-99620000D01*
X175510000Y-99620000D02*
X175180000Y-99950000D01*
X170100000Y-99950000D02*
X170100000Y-95380000D01*
X170100000Y-95380000D02*
X170430000Y-95050000D01*
X159940000Y-99950000D02*
X159940000Y-95410000D01*
X159940000Y-95410000D02*
X159580000Y-95050000D01*
M02*
