M48
;DRILL file {KiCad 4.0.1-stable} date 27.02.2016 12:32:00
;FORMAT={-:-/ absolute / inch / decimal}
FMAT,2
INCH,TZ
T1C0.016
T2C0.031
T3C0.032
T4C0.039
T5C0.040
T6C0.043
T7C0.051
T8C0.055
T9C0.059
T10C0.079
T11C0.098
%
G90
G05
M72
T1
X2.7598Y-3.3228
X2.7835Y-5.189
X2.7835Y-5.2992
X2.8307Y-3.3071
X2.9488Y-3.3583
X3.0906Y-3.5079
X3.1417Y-3.5827
X3.3583Y-3.4606
X3.5157Y-2.9528
X3.5827Y-3.4213
X3.6004Y-4.8346
X3.6417Y-2.9134
X3.6516Y-4.8386
X3.6535Y-4.685
X3.6614Y-4.0787
X3.6929Y-4.2756
X3.7087Y-4.7205
X3.7126Y-4.4252
X3.7126Y-4.8543
X3.752Y-4.752
X3.752Y-4.8622
X3.7559Y-2.9449
X3.8465Y-2.9488
X3.8858Y-5.0197
X3.9173Y-4.9843
X3.9252Y-5.0827
X4.0157Y-4.0276
X4.0394Y-4.9961
X4.0827Y-4.9724
X4.1535Y-5.0197
X4.1654Y-5.0906
X4.1693Y-4.1772
X4.1693Y-5.122
X4.1732Y-4.7323
X4.2008Y-4.1457
X4.2008Y-4.752
X4.2106Y-4.6791
X4.2205Y-4.7874
X4.2244Y-4.6063
X4.2283Y-4.5591
X4.2402Y-4.8386
X4.248Y-4.2677
X4.2648Y-4.4783
X4.2756Y-4.3937
X4.2795Y-4.8307
X4.2835Y-4.6654
X4.311Y-3.9606
X4.3189Y-5.0866
X4.3583Y-5.122
X4.3622Y-4.1299
X4.3661Y-4.2677
X4.3888Y-4.3543
X4.4055Y-4.5394
X4.4055Y-4.7362
X4.4055Y-4.9803
X4.4213Y-4.5709
X4.4252Y-5.3622
X4.4409Y-3.2362
X4.4449Y-4.6417
X4.4449Y-4.9528
X4.4488Y-4.7362
X4.4606Y-4.6102
X4.4646Y-4.8465
X4.4685Y-3.3031
X4.4764Y-3.2402
X4.4843Y-2.9409
X4.4882Y-4.7362
X4.4961Y-4.6929
X4.5236Y-4.7126
X4.5354Y-5.3622
X4.5472Y-3.2638
X4.5551Y-4.7283
X4.5906Y-4.7126
X4.5984Y-3.3071
X4.6024Y-2.9882
X4.6063Y-5.2717
X4.6102Y-4.6811
X4.6102Y-4.9606
X4.622Y-3.2402
X4.6299Y-5.0157
X4.6339Y-4.8346
X4.6457Y-5.2835
X4.6496Y-4.6811
X4.6535Y-4.6417
X4.6575Y-4.9882
X4.6732Y-5.3189
X4.6929Y-4.6417
X4.7323Y-4.5984
X4.7323Y-4.6417
X4.7402Y-3.8898
X4.7402Y-4.563
X4.7559Y-2.9961
X4.7717Y-4.5354
X4.7717Y-5.1654
X4.7756Y-3.8898
X4.7756Y-5.2047
X4.7953Y-4.5669
X4.8031Y-4.689
X4.8071Y-5.2323
X4.811Y-3.8898
X4.8228Y-4.9055
X4.8268Y-4.6063
X4.8268Y-4.7874
X4.8317Y-5.4537
X4.8346Y-4.6555
X4.8465Y-3.8898
X4.8465Y-5.3386
X4.8504Y-5.252
X4.8583Y-4.8307
X4.8583Y-4.9094
X4.8661Y-4.9724
X4.8768Y-4.6445
X4.878Y-5.0039
X4.8858Y-3.8898
X4.8858Y-4.7913
X4.8898Y-4.7598
X4.8937Y-4.5433
X4.9291Y-3.8898
X4.9331Y-4.4921
X4.9646Y-3.8898
X4.9724Y-4.4449
X4.9724Y-5.0354
X4.9803Y-4.4921
X5.Y-5.0945
X5.0039Y-3.8898
X5.0079Y-5.0354
X5.0315Y-4.3622
X5.0354Y-5.1299
X5.0354Y-5.2126
X5.0472Y-5.4488
X5.0512Y-3.9685
X5.0512Y-5.3425
X5.0551Y-4.2992
X5.0679Y-5.1781
X5.0748Y-4.9961
X5.0827Y-5.0709
X5.0827Y-5.3661
X5.0945Y-3.9685
X5.0945Y-5.2047
X5.0984Y-5.0197
X5.1102Y-5.5039
X5.1378Y-3.9685
X5.1378Y-5.063
X5.1417Y-4.7165
X5.1457Y-5.5118
X5.1811Y-3.9685
X5.1811Y-5.5118
X5.189Y-4.8504
X5.2244Y-3.9685
X5.2441Y-4.7008
X5.2677Y-3.9685
X5.2717Y-4.4803
X5.2953Y-5.2047
X5.3031Y-5.2835
X5.3031Y-5.4213
X5.3071Y-4.6535
X5.315Y-3.9685
X5.3583Y-3.9685
X5.3661Y-4.0748
X5.374Y-4.0394
X5.3976Y-3.9685
X5.3976Y-4.0098
X5.4291Y-4.0197
X5.437Y-4.1024
X5.4803Y-4.0118
X5.5118Y-5.0276
X5.5394Y-4.4488
X5.7362Y-3.8819
X5.752Y-3.2559
X5.8386Y-3.2559
X5.8701Y-3.0197
X5.8701Y-3.2047
X5.9252Y-4.5472
X5.9724Y-3.8386
X6.0433Y-3.4921
X6.0551Y-3.6378
X6.1417Y-3.8386
X6.189Y-3.748
T2
X3.8504Y-3.5531
X3.8504Y-3.6531
X3.8504Y-3.7531
X3.8504Y-3.8531
X4.1504Y-3.5531
X4.1504Y-3.6531
X4.1504Y-3.7531
X4.1504Y-3.8531
T3
X2.491Y-5.5994
X2.491Y-6.0994
X2.591Y-5.5994
X2.591Y-6.0994
X2.691Y-5.5994
X2.691Y-6.0994
X2.791Y-5.5994
X2.791Y-6.0994
X2.891Y-5.5994
X2.891Y-6.0994
X2.991Y-5.5994
X2.991Y-6.0994
X3.091Y-5.5994
X3.091Y-6.0994
X3.191Y-5.5994
X3.191Y-6.0994
X3.3291Y-5.7028
X3.3291Y-6.2028
X3.4291Y-5.7028
X3.4291Y-6.2028
X3.5291Y-5.7028
X3.5291Y-6.2028
X3.6291Y-5.7028
X3.6291Y-6.2028
X3.7291Y-5.7028
X3.7291Y-6.2028
X3.8291Y-5.7028
X3.8291Y-6.2028
X3.9291Y-5.7028
X3.9291Y-6.2028
X4.0291Y-5.7028
X4.0291Y-6.2028
X4.1579Y-5.7028
X4.1579Y-6.2028
X4.2579Y-5.7028
X4.2579Y-6.2028
X4.3579Y-5.7028
X4.3579Y-6.2028
X4.4579Y-5.7028
X4.4579Y-6.2028
X4.5579Y-5.7028
X4.5579Y-6.2028
X4.6579Y-5.7028
X4.6579Y-6.2028
X4.7579Y-5.7028
X4.7579Y-6.2028
X4.8579Y-5.7028
X4.8579Y-6.2028
X4.9827Y-5.7028
X4.9827Y-6.2028
X5.0827Y-5.7028
X5.0827Y-6.2028
X5.1827Y-5.7028
X5.1827Y-6.2028
X5.2827Y-5.7028
X5.2827Y-6.2028
X5.3455Y-4.7679
X5.3455Y-4.9679
X5.3827Y-5.7028
X5.3827Y-6.2028
X5.4827Y-5.7028
X5.4827Y-6.2028
X5.5827Y-5.7028
X5.5827Y-6.2028
X5.6455Y-4.7679
X5.6455Y-4.9679
X5.6827Y-5.7028
X5.6827Y-6.2028
T4
X2.6693Y-5.5236
X2.8661Y-4.9882
X2.9606Y-5.378
X3.252Y-4.7953
X3.3307Y-5.2795
X4.2165Y-3.3071
T5
X2.4567Y-2.7661
X2.4567Y-2.8661
X2.5567Y-2.7661
X2.5567Y-2.8661
X2.5894Y-5.7972
X2.5894Y-5.8972
X2.6567Y-2.7661
X2.6567Y-2.8661
X2.6894Y-5.7972
X2.6894Y-5.8972
X2.6909Y-6.2248
X2.6909Y-6.3248
X2.7567Y-2.7661
X2.7567Y-2.8661
X2.7894Y-5.7972
X2.7894Y-5.8972
X2.7909Y-6.2248
X2.7909Y-6.3248
X2.8909Y-6.2248
X2.8909Y-6.3248
X2.9909Y-6.2248
X2.9909Y-6.3248
X3.1102Y-2.7661
X3.1102Y-2.8661
X3.2102Y-2.7661
X3.2102Y-2.8661
X3.252Y-4.6299
X3.3102Y-2.7661
X3.3102Y-2.8661
X3.352Y-4.6299
X3.4102Y-2.7661
X3.4102Y-2.8661
X3.4319Y-5.8976
X3.4319Y-5.9976
X3.452Y-4.6299
X3.4724Y-4.8677
X3.4724Y-4.9677
X3.4724Y-5.0677
X3.4724Y-5.1677
X3.4724Y-5.2677
X3.5102Y-2.7661
X3.5102Y-2.8661
X3.5287Y-6.3268
X3.5319Y-5.8976
X3.5319Y-5.9976
X3.5984Y-4.9685
X3.5984Y-5.0685
X3.5984Y-5.1685
X3.5984Y-5.2685
X3.6102Y-2.7661
X3.6102Y-2.8661
X3.6287Y-6.3268
X3.6319Y-5.8976
X3.6319Y-5.9976
X3.7087Y-4.9685
X3.7087Y-5.0685
X3.7087Y-5.1685
X3.7087Y-5.2685
X3.7102Y-2.7661
X3.7102Y-2.8661
X3.7287Y-6.3268
X3.8102Y-2.7661
X3.8102Y-2.8661
X3.811Y-5.4488
X3.8189Y-4.9685
X3.8189Y-5.0685
X3.8189Y-5.1685
X3.8189Y-5.2685
X3.8287Y-6.3268
X3.911Y-5.4488
X3.9921Y-4.3465
X4.0102Y-4.5244
X4.0102Y-4.6244
X4.0102Y-4.7244
X4.011Y-5.4488
X4.0921Y-4.3465
X4.1102Y-4.5244
X4.1102Y-4.6244
X4.1102Y-4.7244
X4.111Y-5.4488
X4.1181Y-2.7661
X4.1181Y-2.8661
X4.1921Y-4.3465
X4.211Y-5.4488
X4.2181Y-2.7661
X4.2181Y-2.8661
X4.2606Y-5.8976
X4.2606Y-5.9976
X4.311Y-5.4488
X4.3181Y-2.7661
X4.3181Y-2.8661
X4.3575Y-6.3268
X4.3606Y-5.8976
X4.3606Y-5.9976
X4.411Y-5.4488
X4.4181Y-2.7661
X4.4181Y-2.8661
X4.4575Y-6.3268
X4.4606Y-5.8976
X4.4606Y-5.9976
X4.511Y-5.4488
X4.5181Y-2.7661
X4.5181Y-2.8661
X4.5575Y-6.3268
X4.611Y-5.4488
X4.6181Y-2.7661
X4.6181Y-2.8661
X4.6575Y-6.3268
X4.7181Y-2.7661
X4.7181Y-2.8661
X4.8181Y-2.7661
X4.8181Y-2.8661
X4.8976Y-3.5614
X4.8976Y-3.6614
X4.9976Y-3.5614
X4.9976Y-3.6614
X5.0854Y-5.8976
X5.0854Y-5.9976
X5.0976Y-3.5614
X5.0976Y-3.6614
X5.1833Y-6.3268
X5.1854Y-5.8976
X5.1854Y-5.9976
X5.1976Y-3.5614
X5.1976Y-3.6614
X5.2205Y-2.7661
X5.2205Y-2.8661
X5.2833Y-6.3268
X5.2854Y-5.8976
X5.2854Y-5.9976
X5.2976Y-3.5614
X5.2976Y-3.6614
X5.3205Y-2.7661
X5.3205Y-2.8661
X5.372Y-5.2917
X5.372Y-5.3917
X5.374Y-5.1929
X5.3833Y-6.3268
X5.4205Y-2.7661
X5.4205Y-2.8661
X5.4409Y-3.5614
X5.4409Y-3.6614
X5.472Y-5.2917
X5.472Y-5.3917
X5.474Y-5.1929
X5.4833Y-6.3268
X5.5205Y-2.7661
X5.5205Y-2.8661
X5.5409Y-3.5614
X5.5409Y-3.6614
X5.572Y-5.2917
X5.572Y-5.3917
X5.574Y-5.1929
X5.6205Y-2.7661
X5.6205Y-2.8661
X5.6409Y-3.5614
X5.6409Y-3.6614
X5.672Y-5.2917
X5.672Y-5.3917
X5.674Y-5.1929
X5.7008Y-4.3937
X5.7008Y-4.4937
X5.7008Y-4.5937
X5.7205Y-2.7661
X5.7205Y-2.8661
X5.7409Y-3.5614
X5.7409Y-3.6614
X5.8205Y-2.7661
X5.8205Y-2.8661
X5.8409Y-3.5614
X5.8409Y-3.6614
X5.9598Y-3.9134
X5.9598Y-4.0134
X5.9598Y-4.1575
X5.9598Y-4.2575
X6.0207Y-4.5719
X6.0207Y-4.6719
X6.0207Y-4.7719
X6.0207Y-4.9163
X6.0207Y-5.0163
X6.0207Y-5.1163
X6.0207Y-5.2707
X6.0207Y-5.3707
X6.0207Y-5.4707
X6.0207Y-5.6152
X6.0207Y-5.7152
X6.0207Y-5.8152
X6.0207Y-5.9596
X6.0207Y-6.0596
X6.0207Y-6.1596
X6.0207Y-6.3041
X6.0207Y-6.4041
X6.0207Y-6.5041
X6.0598Y-3.9134
X6.0598Y-4.0134
X6.0598Y-4.1575
X6.0598Y-4.2575
X6.1417Y-2.7717
X6.1417Y-2.8717
X6.1417Y-2.9717
X6.1417Y-3.0717
X6.1417Y-3.1717
X6.1417Y-3.2717
X6.1417Y-3.3717
X6.1417Y-3.4717
X6.1417Y-3.5717
X6.1417Y-3.6717
X6.1598Y-3.9134
X6.1598Y-4.0134
X6.1598Y-4.1575
X6.1598Y-4.2575
X6.2417Y-2.7717
X6.2417Y-2.8717
X6.2417Y-2.9717
X6.2417Y-3.0717
X6.2417Y-3.1717
X6.2417Y-3.2717
X6.2417Y-3.3717
X6.2417Y-3.4717
X6.2417Y-3.5717
X6.2417Y-3.6717
X6.2598Y-3.9134
X6.2598Y-4.0134
X6.2598Y-4.1575
X6.2598Y-4.2575
T6
X2.6925Y-6.5276
X2.7925Y-6.5276
X2.8925Y-6.5276
X2.9925Y-6.5276
X3.5291Y-6.5295
X3.6291Y-6.5295
X3.7291Y-6.5295
X3.8291Y-6.5295
X4.3579Y-6.5276
X4.4579Y-6.5276
X4.5579Y-6.5276
X4.6579Y-6.5276
X5.1827Y-6.5276
X5.2827Y-6.5276
X5.3827Y-6.5276
X5.4827Y-6.5276
X6.2175Y-4.5703
X6.2175Y-4.6703
X6.2175Y-4.7703
X6.2175Y-4.9148
X6.2175Y-5.0148
X6.2175Y-5.1148
X6.2175Y-5.6136
X6.2175Y-5.7136
X6.2175Y-5.8136
X6.2175Y-5.9581
X6.2175Y-6.0581
X6.2175Y-6.1581
X6.2175Y-6.3026
X6.2175Y-6.4026
X6.2175Y-6.5026
X6.2195Y-5.2652
X6.2195Y-5.3652
X6.2195Y-5.4652
T7
X2.5787Y-4.5512
X2.5787Y-4.748
T9
X3.3228Y-5.5748
X3.8425Y-4.626
X3.9213Y-4.5039
X3.9862Y-3.4035
X4.0866Y-5.5984
X4.3307Y-3.6693
X4.5571Y-4.0827
X4.5669Y-3.7087
X4.8425Y-5.811
X5.7402Y-5.6063
T10
X3.4055Y-4.4606
X3.752Y-4.063
X4.9213Y-5.8819
T11
X3.1496Y-4.2795
T8
X2.5787Y-3.6043G85X2.5787Y-3.4508
G05
X2.5787Y-3.9783G85X2.5787Y-3.8248
G05
T0
M30
