%TF.GenerationSoftware,KiCad,Pcbnew,4.0.1-stable*%
%TF.CreationDate,2016-03-09T21:56:23+01:00*%
%TF.ProjectId,ReST,526553542E6B696361645F7063620000,Rev. A*%
%TF.FileFunction,Legend,Top*%
%FSLAX46Y46*%
G04 Gerber Fmt 4.6, Leading zero omitted, Abs format (unit mm)*
G04 Created by KiCad (PCBNEW 4.0.1-stable) date 09.03.2016 21:56:23*
%MOMM*%
G01*
G04 APERTURE LIST*
%ADD10C,0.100000*%
%ADD11C,0.010000*%
%ADD12C,0.300000*%
%ADD13C,0.400000*%
%ADD14C,0.254000*%
%ADD15C,0.150000*%
%ADD16C,0.127000*%
%ADD17C,0.381000*%
%ADD18C,0.304800*%
%ADD19C,0.119380*%
%ADD20C,0.075000*%
%ADD21C,0.190500*%
G04 APERTURE END LIST*
D10*
D11*
X23170000Y-118680000D02*
G75*
G03X24170000Y-119680000I1000000J0D01*
G01*
X24170000Y-19680000D02*
G75*
G03X23170000Y-20680000I0J-1000000D01*
G01*
X123170000Y-20680000D02*
G75*
G03X122170000Y-19680000I-1000000J0D01*
G01*
X24170000Y-119680000D02*
X122170000Y-119680000D01*
X23170000Y-20680000D02*
X23170000Y-118680000D01*
X122170000Y-19680000D02*
X24170000Y-19680000D01*
X123170000Y-118680000D02*
X123170000Y-20680000D01*
X122170000Y-119680000D02*
G75*
G03X123170000Y-118680000I0J1000000D01*
G01*
D12*
X40805715Y-36744286D02*
X40734287Y-36672857D01*
X40591430Y-36601429D01*
X40448572Y-36601429D01*
X40305715Y-36672857D01*
X40234287Y-36744286D01*
X40162858Y-36887143D01*
X40162858Y-37030000D01*
X40234287Y-37172857D01*
X40305715Y-37244286D01*
X40448572Y-37315714D01*
X40591430Y-37315714D01*
X40734287Y-37244286D01*
X40805715Y-37172857D01*
X40805715Y-36601429D02*
X40805715Y-37172857D01*
X40877144Y-37244286D01*
X40948572Y-37244286D01*
X41091430Y-37172857D01*
X41162858Y-37030000D01*
X41162858Y-36672857D01*
X41020001Y-36458571D01*
X40805715Y-36315714D01*
X40520001Y-36244286D01*
X40234287Y-36315714D01*
X40020001Y-36458571D01*
X39877144Y-36672857D01*
X39805715Y-36958571D01*
X39877144Y-37244286D01*
X40020001Y-37458571D01*
X40234287Y-37601429D01*
X40520001Y-37672857D01*
X40805715Y-37601429D01*
X41020001Y-37458571D01*
X41805715Y-37458571D02*
X41805715Y-36458571D01*
X41805715Y-36601429D02*
X41877143Y-36530000D01*
X42020001Y-36458571D01*
X42234286Y-36458571D01*
X42377143Y-36530000D01*
X42448572Y-36672857D01*
X42448572Y-37458571D01*
X42448572Y-36672857D02*
X42520001Y-36530000D01*
X42662858Y-36458571D01*
X42877143Y-36458571D01*
X43020001Y-36530000D01*
X43091429Y-36672857D01*
X43091429Y-37458571D01*
X44448572Y-37458571D02*
X44448572Y-36672857D01*
X44377143Y-36530000D01*
X44234286Y-36458571D01*
X43948572Y-36458571D01*
X43805715Y-36530000D01*
X44448572Y-37387143D02*
X44305715Y-37458571D01*
X43948572Y-37458571D01*
X43805715Y-37387143D01*
X43734286Y-37244286D01*
X43734286Y-37101429D01*
X43805715Y-36958571D01*
X43948572Y-36887143D01*
X44305715Y-36887143D01*
X44448572Y-36815714D01*
X45162858Y-37458571D02*
X45162858Y-35958571D01*
X45305715Y-36887143D02*
X45734286Y-37458571D01*
X45734286Y-36458571D02*
X45162858Y-37030000D01*
X46948572Y-37387143D02*
X46805715Y-37458571D01*
X46520001Y-37458571D01*
X46377144Y-37387143D01*
X46305715Y-37244286D01*
X46305715Y-36672857D01*
X46377144Y-36530000D01*
X46520001Y-36458571D01*
X46805715Y-36458571D01*
X46948572Y-36530000D01*
X47020001Y-36672857D01*
X47020001Y-36815714D01*
X46305715Y-36958571D01*
X47662858Y-37458571D02*
X47662858Y-36458571D01*
X47662858Y-36744286D02*
X47734286Y-36601429D01*
X47805715Y-36530000D01*
X47948572Y-36458571D01*
X48091429Y-36458571D01*
X48234286Y-37601429D02*
X49377143Y-37601429D01*
X49734286Y-37458571D02*
X49734286Y-35958571D01*
X49734286Y-36530000D02*
X49877143Y-36458571D01*
X50162857Y-36458571D01*
X50305714Y-36530000D01*
X50377143Y-36601429D01*
X50448572Y-36744286D01*
X50448572Y-37172857D01*
X50377143Y-37315714D01*
X50305714Y-37387143D01*
X50162857Y-37458571D01*
X49877143Y-37458571D01*
X49734286Y-37387143D01*
X51662857Y-37387143D02*
X51520000Y-37458571D01*
X51234286Y-37458571D01*
X51091429Y-37387143D01*
X51020000Y-37244286D01*
X51020000Y-36672857D01*
X51091429Y-36530000D01*
X51234286Y-36458571D01*
X51520000Y-36458571D01*
X51662857Y-36530000D01*
X51734286Y-36672857D01*
X51734286Y-36815714D01*
X51020000Y-36958571D01*
X52377143Y-37458571D02*
X52377143Y-36458571D01*
X52377143Y-36744286D02*
X52448571Y-36601429D01*
X52520000Y-36530000D01*
X52662857Y-36458571D01*
X52805714Y-36458571D01*
X53305714Y-37458571D02*
X53305714Y-36458571D01*
X53305714Y-36744286D02*
X53377142Y-36601429D01*
X53448571Y-36530000D01*
X53591428Y-36458571D01*
X53734285Y-36458571D01*
X54091428Y-36458571D02*
X54448571Y-37458571D01*
X54805713Y-36458571D02*
X54448571Y-37458571D01*
X54305713Y-37815714D01*
X54234285Y-37887143D01*
X54091428Y-37958571D01*
D13*
X39522381Y-30484762D02*
X38855714Y-29532381D01*
X38379523Y-30484762D02*
X38379523Y-28484762D01*
X39141428Y-28484762D01*
X39331904Y-28580000D01*
X39427143Y-28675238D01*
X39522381Y-28865714D01*
X39522381Y-29151429D01*
X39427143Y-29341905D01*
X39331904Y-29437143D01*
X39141428Y-29532381D01*
X38379523Y-29532381D01*
X41141428Y-30389524D02*
X40950952Y-30484762D01*
X40570000Y-30484762D01*
X40379523Y-30389524D01*
X40284285Y-30199048D01*
X40284285Y-29437143D01*
X40379523Y-29246667D01*
X40570000Y-29151429D01*
X40950952Y-29151429D01*
X41141428Y-29246667D01*
X41236666Y-29437143D01*
X41236666Y-29627619D01*
X40284285Y-29818095D01*
X41998571Y-30389524D02*
X42284286Y-30484762D01*
X42760476Y-30484762D01*
X42950952Y-30389524D01*
X43046190Y-30294286D01*
X43141429Y-30103810D01*
X43141429Y-29913333D01*
X43046190Y-29722857D01*
X42950952Y-29627619D01*
X42760476Y-29532381D01*
X42379524Y-29437143D01*
X42189048Y-29341905D01*
X42093809Y-29246667D01*
X41998571Y-29056190D01*
X41998571Y-28865714D01*
X42093809Y-28675238D01*
X42189048Y-28580000D01*
X42379524Y-28484762D01*
X42855714Y-28484762D01*
X43141429Y-28580000D01*
X43712857Y-28484762D02*
X44855714Y-28484762D01*
X44284286Y-30484762D02*
X44284286Y-28484762D01*
X45331905Y-28484762D02*
X46570001Y-28484762D01*
X45903334Y-29246667D01*
X46189048Y-29246667D01*
X46379524Y-29341905D01*
X46474762Y-29437143D01*
X46570001Y-29627619D01*
X46570001Y-30103810D01*
X46474762Y-30294286D01*
X46379524Y-30389524D01*
X46189048Y-30484762D01*
X45617620Y-30484762D01*
X45427143Y-30389524D01*
X45331905Y-30294286D01*
X47331905Y-28675238D02*
X47427143Y-28580000D01*
X47617620Y-28484762D01*
X48093810Y-28484762D01*
X48284286Y-28580000D01*
X48379524Y-28675238D01*
X48474763Y-28865714D01*
X48474763Y-29056190D01*
X48379524Y-29341905D01*
X47236667Y-30484762D01*
X48474763Y-30484762D01*
X50855715Y-30484762D02*
X50855715Y-28484762D01*
X51522382Y-29913333D01*
X52189049Y-28484762D01*
X52189049Y-30484762D01*
X53998572Y-30484762D02*
X53998572Y-29437143D01*
X53903334Y-29246667D01*
X53712858Y-29151429D01*
X53331906Y-29151429D01*
X53141429Y-29246667D01*
X53998572Y-30389524D02*
X53808096Y-30484762D01*
X53331906Y-30484762D01*
X53141429Y-30389524D01*
X53046191Y-30199048D01*
X53046191Y-30008571D01*
X53141429Y-29818095D01*
X53331906Y-29722857D01*
X53808096Y-29722857D01*
X53998572Y-29627619D01*
X54950953Y-30484762D02*
X54950953Y-29151429D01*
X54950953Y-28484762D02*
X54855715Y-28580000D01*
X54950953Y-28675238D01*
X55046192Y-28580000D01*
X54950953Y-28484762D01*
X54950953Y-28675238D01*
X55903334Y-29151429D02*
X55903334Y-30484762D01*
X55903334Y-29341905D02*
X55998573Y-29246667D01*
X56189049Y-29151429D01*
X56474763Y-29151429D01*
X56665239Y-29246667D01*
X56760477Y-29437143D01*
X56760477Y-30484762D01*
X38617618Y-33684762D02*
X37950951Y-32732381D01*
X37474760Y-33684762D02*
X37474760Y-31684762D01*
X38236665Y-31684762D01*
X38427141Y-31780000D01*
X38522380Y-31875238D01*
X38617618Y-32065714D01*
X38617618Y-32351429D01*
X38522380Y-32541905D01*
X38427141Y-32637143D01*
X38236665Y-32732381D01*
X37474760Y-32732381D01*
X40236665Y-33589524D02*
X40046189Y-33684762D01*
X39665237Y-33684762D01*
X39474760Y-33589524D01*
X39379522Y-33399048D01*
X39379522Y-32637143D01*
X39474760Y-32446667D01*
X39665237Y-32351429D01*
X40046189Y-32351429D01*
X40236665Y-32446667D01*
X40331903Y-32637143D01*
X40331903Y-32827619D01*
X39379522Y-33018095D01*
X40998570Y-32351429D02*
X41474761Y-33684762D01*
X41950951Y-32351429D01*
X42712856Y-33494286D02*
X42808095Y-33589524D01*
X42712856Y-33684762D01*
X42617618Y-33589524D01*
X42712856Y-33494286D01*
X42712856Y-33684762D01*
X45093809Y-33113333D02*
X46046190Y-33113333D01*
X44903333Y-33684762D02*
X45570000Y-31684762D01*
X46236667Y-33684762D01*
X48903334Y-34351429D02*
X48903334Y-31494286D01*
X51570001Y-31684762D02*
X52712858Y-31684762D01*
X52141430Y-33684762D02*
X52141430Y-31684762D01*
X53379525Y-32637143D02*
X54046192Y-32637143D01*
X54331906Y-33684762D02*
X53379525Y-33684762D01*
X53379525Y-31684762D01*
X54331906Y-31684762D01*
X55093811Y-33589524D02*
X55379526Y-33684762D01*
X55855716Y-33684762D01*
X56046192Y-33589524D01*
X56141430Y-33494286D01*
X56236669Y-33303810D01*
X56236669Y-33113333D01*
X56141430Y-32922857D01*
X56046192Y-32827619D01*
X55855716Y-32732381D01*
X55474764Y-32637143D01*
X55284288Y-32541905D01*
X55189049Y-32446667D01*
X55093811Y-32256190D01*
X55093811Y-32065714D01*
X55189049Y-31875238D01*
X55284288Y-31780000D01*
X55474764Y-31684762D01*
X55950954Y-31684762D01*
X56236669Y-31780000D01*
X56808097Y-31684762D02*
X57950954Y-31684762D01*
X57379526Y-33684762D02*
X57379526Y-31684762D01*
D14*
X40070980Y-113981200D02*
X29469020Y-113981200D01*
X29469020Y-114379980D02*
X40070980Y-114379980D01*
X29469020Y-119680960D02*
X40070980Y-119680960D01*
X40070980Y-120178800D02*
X29469020Y-120178800D01*
X37266820Y-119680960D02*
X37266820Y-120178800D01*
X34770000Y-119680960D02*
X34770000Y-120178800D01*
X29672220Y-120178800D02*
X29672220Y-119680960D01*
X39870320Y-119680960D02*
X39870320Y-120178800D01*
X32273180Y-120178800D02*
X32273180Y-119680960D01*
X40068440Y-120178800D02*
X40068440Y-113981200D01*
X29474100Y-113981200D02*
X29474100Y-120178800D01*
D15*
X92070000Y-77030000D02*
X92070000Y-76030000D01*
X90370000Y-76030000D02*
X90370000Y-77030000D01*
X36820000Y-79430000D02*
X35820000Y-79430000D01*
X35820000Y-81130000D02*
X36820000Y-81130000D01*
X87970000Y-61230000D02*
X86970000Y-61230000D01*
X86970000Y-62930000D02*
X87970000Y-62930000D01*
X74545000Y-61155000D02*
X73545000Y-61155000D01*
X73545000Y-62855000D02*
X74545000Y-62855000D01*
X67570000Y-80030000D02*
X68570000Y-80030000D01*
X68570000Y-78330000D02*
X67570000Y-78330000D01*
X87295000Y-84105000D02*
X88295000Y-84105000D01*
X88295000Y-82405000D02*
X87295000Y-82405000D01*
X91700000Y-68050000D02*
X91700000Y-67050000D01*
X90000000Y-67050000D02*
X90000000Y-68050000D01*
X111895000Y-71055000D02*
X111895000Y-72055000D01*
X113595000Y-72055000D02*
X113595000Y-71055000D01*
X111895000Y-88805000D02*
X111895000Y-89805000D01*
X113595000Y-89805000D02*
X113595000Y-88805000D01*
X111895000Y-106305000D02*
X111895000Y-107305000D01*
X113595000Y-107305000D02*
X113595000Y-106305000D01*
X111895000Y-79805000D02*
X111895000Y-80805000D01*
X113595000Y-80805000D02*
X113595000Y-79805000D01*
X111895000Y-97555000D02*
X111895000Y-98555000D01*
X113595000Y-98555000D02*
X113595000Y-97555000D01*
X105170000Y-114930000D02*
X105170000Y-115930000D01*
X106870000Y-115930000D02*
X106870000Y-114930000D01*
D16*
X74082000Y-56130000D02*
X74285200Y-56130000D01*
X75606000Y-58035000D02*
X71034000Y-58035000D01*
X71034000Y-58035000D02*
X71034000Y-57400000D01*
X72659600Y-54225000D02*
X72659600Y-58035000D01*
X72329400Y-54225000D02*
X72329400Y-58035000D01*
X75606000Y-54860000D02*
X75606000Y-54225000D01*
X75606000Y-54225000D02*
X71034000Y-54225000D01*
X71034000Y-54225000D02*
X71034000Y-54860000D01*
X75606000Y-57400000D02*
X75606000Y-58035000D01*
X73447000Y-56130000D02*
X74082000Y-56604980D01*
X74082000Y-56604980D02*
X74082000Y-56130000D01*
X74082000Y-56130000D02*
X74082000Y-55655020D01*
X74082000Y-55655020D02*
X73447000Y-56130000D01*
X73447000Y-56130000D02*
X73447000Y-56447500D01*
X73447000Y-56447500D02*
X73604480Y-56604980D01*
X73447000Y-56130000D02*
X73447000Y-55812500D01*
X73447000Y-55812500D02*
X73289520Y-55655020D01*
X73447000Y-56130000D02*
X72337020Y-56130000D01*
D15*
X23270000Y-64030000D02*
X23270000Y-28030000D01*
X23270000Y-28030000D02*
X33270000Y-28030000D01*
X33270000Y-28030000D02*
X33270000Y-64030000D01*
X33270000Y-64030000D02*
X23270000Y-64030000D01*
X88470000Y-91580000D02*
X88470000Y-91435000D01*
X84320000Y-91580000D02*
X84320000Y-91435000D01*
X84320000Y-86430000D02*
X84320000Y-86575000D01*
X88470000Y-86430000D02*
X88470000Y-86575000D01*
X88470000Y-91580000D02*
X84320000Y-91580000D01*
X88470000Y-86430000D02*
X84320000Y-86430000D01*
X88470000Y-91435000D02*
X89870000Y-91435000D01*
X81371260Y-46030000D02*
G75*
G03X81371260Y-46030000I-5001260J0D01*
G01*
X76370000Y-40030520D02*
X81371260Y-40030520D01*
X81371260Y-40030520D02*
X82369480Y-41028740D01*
X82369480Y-41028740D02*
X82369480Y-51031260D01*
X82369480Y-51031260D02*
X81371260Y-52029480D01*
X81371260Y-52029480D02*
X71368740Y-52029480D01*
X71368740Y-52029480D02*
X70370520Y-51031260D01*
X70370520Y-51031260D02*
X70370520Y-41028740D01*
X70370520Y-41028740D02*
X71368740Y-40030520D01*
X71368740Y-40030520D02*
X76370000Y-40030520D01*
X23970820Y-80179360D02*
X23970820Y-87880640D01*
X22970060Y-80179360D02*
X22970060Y-87880640D01*
X22970060Y-87880640D02*
X32169940Y-87880640D01*
X32169940Y-87880640D02*
X32169940Y-80179360D01*
X32169940Y-80179360D02*
X22970060Y-80179360D01*
X85700000Y-40870000D02*
X98400000Y-40870000D01*
X98400000Y-40870000D02*
X98400000Y-45950000D01*
X98400000Y-45950000D02*
X88240000Y-45950000D01*
X85700000Y-40870000D02*
X85700000Y-43410000D01*
X85420000Y-44680000D02*
X85420000Y-46230000D01*
X85700000Y-43410000D02*
X88240000Y-43410000D01*
X88240000Y-43410000D02*
X88240000Y-45950000D01*
X85420000Y-46230000D02*
X86970000Y-46230000D01*
X99500000Y-40870000D02*
X112200000Y-40870000D01*
X112200000Y-40870000D02*
X112200000Y-45950000D01*
X112200000Y-45950000D02*
X102040000Y-45950000D01*
X99500000Y-40870000D02*
X99500000Y-43410000D01*
X99220000Y-44680000D02*
X99220000Y-46230000D01*
X99500000Y-43410000D02*
X102040000Y-43410000D01*
X102040000Y-43410000D02*
X102040000Y-45950000D01*
X99220000Y-46230000D02*
X100770000Y-46230000D01*
X60640000Y-88810000D02*
X80960000Y-88810000D01*
X80960000Y-88810000D02*
X80960000Y-91350000D01*
X80960000Y-91350000D02*
X60640000Y-91350000D01*
X57820000Y-88530000D02*
X59370000Y-88530000D01*
X60640000Y-88810000D02*
X60640000Y-91350000D01*
X59370000Y-91630000D02*
X57820000Y-91630000D01*
X57820000Y-91630000D02*
X57820000Y-88530000D01*
D17*
X23970000Y-69780000D02*
X23470000Y-69780000D01*
X29970000Y-72280000D02*
G75*
G03X29970000Y-72280000I-2000000J0D01*
G01*
X29970000Y-67280000D02*
G75*
G03X29970000Y-67280000I-2000000J0D01*
G01*
X25470000Y-64780000D02*
X25470000Y-74780000D01*
X30370000Y-64780000D02*
X30370000Y-74780000D01*
X23970000Y-64780000D02*
X23970000Y-74780000D01*
X23470000Y-64780000D02*
X23470000Y-74780000D01*
X23470000Y-74780000D02*
X33270000Y-74780000D01*
X33270000Y-74780000D02*
X33270000Y-64780000D01*
X33270000Y-64780000D02*
X23470000Y-64780000D01*
D15*
X55500000Y-79150000D02*
X55500000Y-86770000D01*
X58040000Y-79150000D02*
X58040000Y-86770000D01*
X58320000Y-76330000D02*
X58320000Y-77880000D01*
X55500000Y-86770000D02*
X58040000Y-86770000D01*
X58040000Y-79150000D02*
X55500000Y-79150000D01*
X55220000Y-77880000D02*
X55220000Y-76330000D01*
X55220000Y-76330000D02*
X58320000Y-76330000D01*
X100290000Y-84830000D02*
X107910000Y-84830000D01*
X100290000Y-82290000D02*
X107910000Y-82290000D01*
X97470000Y-82010000D02*
X99020000Y-82010000D01*
X107910000Y-84830000D02*
X107910000Y-82290000D01*
X100290000Y-82290000D02*
X100290000Y-84830000D01*
X99020000Y-85110000D02*
X97470000Y-85110000D01*
X97470000Y-85110000D02*
X97470000Y-82010000D01*
X100290000Y-89900000D02*
X107910000Y-89900000D01*
X107910000Y-89900000D02*
X107910000Y-84820000D01*
X107910000Y-84820000D02*
X97750000Y-84820000D01*
X97750000Y-84820000D02*
X97750000Y-87360000D01*
X97470000Y-88630000D02*
X97470000Y-90180000D01*
X97750000Y-87360000D02*
X100290000Y-87360000D01*
X100290000Y-87360000D02*
X100290000Y-89900000D01*
X97470000Y-90180000D02*
X99020000Y-90180000D01*
X65240000Y-63350000D02*
X70320000Y-63350000D01*
X70320000Y-63350000D02*
X70320000Y-60810000D01*
X70320000Y-60810000D02*
X65240000Y-60810000D01*
X62420000Y-60530000D02*
X63970000Y-60530000D01*
X65240000Y-60810000D02*
X65240000Y-63350000D01*
X63970000Y-63630000D02*
X62420000Y-63630000D01*
X62420000Y-63630000D02*
X62420000Y-60530000D01*
X68240000Y-70410000D02*
X68240000Y-65330000D01*
X68520000Y-73230000D02*
X66970000Y-73230000D01*
X65700000Y-72950000D02*
X65700000Y-70410000D01*
X65700000Y-70410000D02*
X68240000Y-70410000D01*
X68240000Y-65330000D02*
X63160000Y-65330000D01*
X63160000Y-65330000D02*
X63160000Y-70410000D01*
X68520000Y-73230000D02*
X68520000Y-71680000D01*
X63160000Y-72950000D02*
X65700000Y-72950000D01*
X63160000Y-70410000D02*
X63160000Y-72950000D01*
X52320000Y-85480000D02*
X52320000Y-87030000D01*
X52320000Y-87030000D02*
X49220000Y-87030000D01*
X49220000Y-87030000D02*
X49220000Y-85480000D01*
X49500000Y-84210000D02*
X49500000Y-74050000D01*
X49500000Y-74050000D02*
X52040000Y-74050000D01*
X52040000Y-74050000D02*
X52040000Y-84210000D01*
X49500000Y-84210000D02*
X52040000Y-84210000D01*
X46440000Y-70550000D02*
X51520000Y-70550000D01*
X51520000Y-70550000D02*
X51520000Y-68010000D01*
X51520000Y-68010000D02*
X46440000Y-68010000D01*
X43620000Y-67730000D02*
X45170000Y-67730000D01*
X46440000Y-68010000D02*
X46440000Y-70550000D01*
X45170000Y-70830000D02*
X43620000Y-70830000D01*
X43620000Y-70830000D02*
X43620000Y-67730000D01*
X58300000Y-79150000D02*
X58300000Y-86770000D01*
X60840000Y-79150000D02*
X60840000Y-86770000D01*
X61120000Y-76330000D02*
X61120000Y-77880000D01*
X58300000Y-86770000D02*
X60840000Y-86770000D01*
X60840000Y-79150000D02*
X58300000Y-79150000D01*
X58020000Y-77880000D02*
X58020000Y-76330000D01*
X58020000Y-76330000D02*
X61120000Y-76330000D01*
X120240000Y-49810000D02*
X112620000Y-49810000D01*
X112620000Y-49810000D02*
X112620000Y-54890000D01*
X112620000Y-54890000D02*
X122780000Y-54890000D01*
X122780000Y-54890000D02*
X122780000Y-52350000D01*
X123060000Y-51080000D02*
X123060000Y-49530000D01*
X122780000Y-52350000D02*
X120240000Y-52350000D01*
X120240000Y-52350000D02*
X120240000Y-49810000D01*
X123060000Y-49530000D02*
X121510000Y-49530000D01*
X52700000Y-79150000D02*
X52700000Y-86770000D01*
X55240000Y-79150000D02*
X55240000Y-86770000D01*
X55520000Y-76330000D02*
X55520000Y-77880000D01*
X52700000Y-86770000D02*
X55240000Y-86770000D01*
X55240000Y-79150000D02*
X52700000Y-79150000D01*
X52420000Y-77880000D02*
X52420000Y-76330000D01*
X52420000Y-76330000D02*
X55520000Y-76330000D01*
X120230000Y-56010000D02*
X112610000Y-56010000D01*
X112610000Y-56010000D02*
X112610000Y-61090000D01*
X112610000Y-61090000D02*
X122770000Y-61090000D01*
X122770000Y-61090000D02*
X122770000Y-58550000D01*
X123050000Y-57280000D02*
X123050000Y-55730000D01*
X122770000Y-58550000D02*
X120230000Y-58550000D01*
X120230000Y-58550000D02*
X120230000Y-56010000D01*
X123050000Y-55730000D02*
X121500000Y-55730000D01*
X114225000Y-69075000D02*
X114225000Y-74155000D01*
X114225000Y-74155000D02*
X116765000Y-74155000D01*
X116765000Y-74155000D02*
X116765000Y-69075000D01*
X117045000Y-66255000D02*
X117045000Y-67805000D01*
X116765000Y-69075000D02*
X114225000Y-69075000D01*
X113945000Y-67805000D02*
X113945000Y-66255000D01*
X113945000Y-66255000D02*
X117045000Y-66255000D01*
X114225000Y-86825000D02*
X114225000Y-91905000D01*
X114225000Y-91905000D02*
X116765000Y-91905000D01*
X116765000Y-91905000D02*
X116765000Y-86825000D01*
X117045000Y-84005000D02*
X117045000Y-85555000D01*
X116765000Y-86825000D02*
X114225000Y-86825000D01*
X113945000Y-85555000D02*
X113945000Y-84005000D01*
X113945000Y-84005000D02*
X117045000Y-84005000D01*
X114225000Y-104325000D02*
X114225000Y-109405000D01*
X114225000Y-109405000D02*
X116765000Y-109405000D01*
X116765000Y-109405000D02*
X116765000Y-104325000D01*
X117045000Y-101505000D02*
X117045000Y-103055000D01*
X116765000Y-104325000D02*
X114225000Y-104325000D01*
X113945000Y-103055000D02*
X113945000Y-101505000D01*
X113945000Y-101505000D02*
X117045000Y-101505000D01*
X114225000Y-77825000D02*
X114225000Y-82905000D01*
X114225000Y-82905000D02*
X116765000Y-82905000D01*
X116765000Y-82905000D02*
X116765000Y-77825000D01*
X117045000Y-75005000D02*
X117045000Y-76555000D01*
X116765000Y-77825000D02*
X114225000Y-77825000D01*
X113945000Y-76555000D02*
X113945000Y-75005000D01*
X113945000Y-75005000D02*
X117045000Y-75005000D01*
X114225000Y-95575000D02*
X114225000Y-100655000D01*
X114225000Y-100655000D02*
X116765000Y-100655000D01*
X116765000Y-100655000D02*
X116765000Y-95575000D01*
X117045000Y-92755000D02*
X117045000Y-94305000D01*
X116765000Y-95575000D02*
X114225000Y-95575000D01*
X113945000Y-94305000D02*
X113945000Y-92755000D01*
X113945000Y-92755000D02*
X117045000Y-92755000D01*
X114225000Y-113075000D02*
X114225000Y-118155000D01*
X114225000Y-118155000D02*
X116765000Y-118155000D01*
X116765000Y-118155000D02*
X116765000Y-113075000D01*
X117045000Y-110255000D02*
X117045000Y-111805000D01*
X116765000Y-113075000D02*
X114225000Y-113075000D01*
X113945000Y-111805000D02*
X113945000Y-110255000D01*
X113945000Y-110255000D02*
X117045000Y-110255000D01*
D14*
X103320980Y-113981200D02*
X92719020Y-113981200D01*
X92719020Y-114379980D02*
X103320980Y-114379980D01*
X92719020Y-119680960D02*
X103320980Y-119680960D01*
X103320980Y-120178800D02*
X92719020Y-120178800D01*
X100516820Y-119680960D02*
X100516820Y-120178800D01*
X98020000Y-119680960D02*
X98020000Y-120178800D01*
X92922220Y-120178800D02*
X92922220Y-119680960D01*
X103120320Y-119680960D02*
X103120320Y-120178800D01*
X95523180Y-120178800D02*
X95523180Y-119680960D01*
X103318440Y-120178800D02*
X103318440Y-113981200D01*
X92724100Y-113981200D02*
X92724100Y-120178800D01*
X82370980Y-113981200D02*
X71769020Y-113981200D01*
X71769020Y-114379980D02*
X82370980Y-114379980D01*
X71769020Y-119680960D02*
X82370980Y-119680960D01*
X82370980Y-120178800D02*
X71769020Y-120178800D01*
X79566820Y-119680960D02*
X79566820Y-120178800D01*
X77070000Y-119680960D02*
X77070000Y-120178800D01*
X71972220Y-120178800D02*
X71972220Y-119680960D01*
X82170320Y-119680960D02*
X82170320Y-120178800D01*
X74573180Y-120178800D02*
X74573180Y-119680960D01*
X82368440Y-120178800D02*
X82368440Y-113981200D01*
X71774100Y-113981200D02*
X71774100Y-120178800D01*
X61320980Y-113981200D02*
X50719020Y-113981200D01*
X50719020Y-114379980D02*
X61320980Y-114379980D01*
X50719020Y-119680960D02*
X61320980Y-119680960D01*
X61320980Y-120178800D02*
X50719020Y-120178800D01*
X58516820Y-119680960D02*
X58516820Y-120178800D01*
X56020000Y-119680960D02*
X56020000Y-120178800D01*
X50922220Y-120178800D02*
X50922220Y-119680960D01*
X61120320Y-119680960D02*
X61120320Y-120178800D01*
X53523180Y-120178800D02*
X53523180Y-119680960D01*
X61318440Y-120178800D02*
X61318440Y-113981200D01*
X50724100Y-113981200D02*
X50724100Y-120178800D01*
D15*
X32190000Y-113600000D02*
X39810000Y-113600000D01*
X39810000Y-113600000D02*
X39810000Y-108520000D01*
X39810000Y-108520000D02*
X29650000Y-108520000D01*
X29650000Y-108520000D02*
X29650000Y-111060000D01*
X29370000Y-112330000D02*
X29370000Y-113880000D01*
X29650000Y-111060000D02*
X32190000Y-111060000D01*
X32190000Y-111060000D02*
X32190000Y-113600000D01*
X29370000Y-113880000D02*
X30920000Y-113880000D01*
X95550000Y-100210000D02*
X90470000Y-100210000D01*
X98370000Y-99930000D02*
X98370000Y-101480000D01*
X98090000Y-102750000D02*
X95550000Y-102750000D01*
X95550000Y-102750000D02*
X95550000Y-100210000D01*
X90470000Y-100210000D02*
X90470000Y-105290000D01*
X90470000Y-105290000D02*
X95550000Y-105290000D01*
X98370000Y-99930000D02*
X96820000Y-99930000D01*
X98090000Y-105290000D02*
X98090000Y-102750000D01*
X95550000Y-105290000D02*
X98090000Y-105290000D01*
X74600000Y-100210000D02*
X69520000Y-100210000D01*
X77420000Y-99930000D02*
X77420000Y-101480000D01*
X77140000Y-102750000D02*
X74600000Y-102750000D01*
X74600000Y-102750000D02*
X74600000Y-100210000D01*
X69520000Y-100210000D02*
X69520000Y-105290000D01*
X69520000Y-105290000D02*
X74600000Y-105290000D01*
X77420000Y-99930000D02*
X75870000Y-99930000D01*
X77140000Y-105290000D02*
X77140000Y-102750000D01*
X74600000Y-105290000D02*
X77140000Y-105290000D01*
X32150000Y-97660000D02*
X27070000Y-97660000D01*
X34970000Y-97380000D02*
X34970000Y-98930000D01*
X34690000Y-100200000D02*
X32150000Y-100200000D01*
X32150000Y-100200000D02*
X32150000Y-97660000D01*
X27070000Y-97660000D02*
X27070000Y-102740000D01*
X27070000Y-102740000D02*
X32150000Y-102740000D01*
X34970000Y-97380000D02*
X33420000Y-97380000D01*
X34690000Y-102740000D02*
X34690000Y-100200000D01*
X32150000Y-102740000D02*
X34690000Y-102740000D01*
X53550000Y-100210000D02*
X48470000Y-100210000D01*
X56370000Y-99930000D02*
X56370000Y-101480000D01*
X56090000Y-102750000D02*
X53550000Y-102750000D01*
X53550000Y-102750000D02*
X53550000Y-100210000D01*
X48470000Y-100210000D02*
X48470000Y-105290000D01*
X48470000Y-105290000D02*
X53550000Y-105290000D01*
X56370000Y-99930000D02*
X54820000Y-99930000D01*
X56090000Y-105290000D02*
X56090000Y-102750000D01*
X53550000Y-105290000D02*
X56090000Y-105290000D01*
X28670000Y-77905000D02*
X27470000Y-77905000D01*
X27470000Y-76155000D02*
X28670000Y-76155000D01*
X42920000Y-85405000D02*
X41720000Y-85405000D01*
X41720000Y-83655000D02*
X42920000Y-83655000D01*
X41720000Y-81155000D02*
X42920000Y-81155000D01*
X42920000Y-82905000D02*
X41720000Y-82905000D01*
X56295000Y-42930000D02*
X56295000Y-41730000D01*
X58045000Y-41730000D02*
X58045000Y-42930000D01*
X56295000Y-48730000D02*
X56295000Y-47530000D01*
X58045000Y-47530000D02*
X58045000Y-48730000D01*
X103220000Y-99955000D02*
X102020000Y-99955000D01*
X102020000Y-98205000D02*
X103220000Y-98205000D01*
X82270000Y-99955000D02*
X81070000Y-99955000D01*
X81070000Y-98205000D02*
X82270000Y-98205000D01*
X39820000Y-97405000D02*
X38620000Y-97405000D01*
X38620000Y-95655000D02*
X39820000Y-95655000D01*
X61220000Y-99955000D02*
X60020000Y-99955000D01*
X60020000Y-98205000D02*
X61220000Y-98205000D01*
X104696000Y-75324000D02*
G75*
G03X104696000Y-75324000I-2540000J0D01*
G01*
X98346000Y-71514000D02*
X105966000Y-71514000D01*
X105966000Y-71514000D02*
X105966000Y-79134000D01*
X105966000Y-79134000D02*
X98346000Y-79134000D01*
X98346000Y-71514000D02*
X98346000Y-79134000D01*
X35840711Y-82330000D02*
G75*
G03X35840711Y-82330000I-70711J0D01*
G01*
X36870000Y-84780000D02*
X36870000Y-84830000D01*
X36870000Y-84830000D02*
X35270000Y-84830000D01*
X35270000Y-84830000D02*
X35270000Y-84780000D01*
X35270000Y-81930000D02*
X35270000Y-81980000D01*
X35270000Y-81930000D02*
X36870000Y-81930000D01*
X36870000Y-81930000D02*
X36870000Y-81980000D01*
X60505000Y-39635000D02*
X60505000Y-40905000D01*
X67855000Y-39635000D02*
X67855000Y-40905000D01*
X67855000Y-51845000D02*
X67855000Y-50575000D01*
X60505000Y-51845000D02*
X60505000Y-50575000D01*
X60505000Y-39635000D02*
X67855000Y-39635000D01*
X60505000Y-51845000D02*
X67855000Y-51845000D01*
X60505000Y-40905000D02*
X59220000Y-40905000D01*
D14*
X87860000Y-95260000D02*
X108180000Y-95260000D01*
X108180000Y-95260000D02*
X108180000Y-110500000D01*
X108180000Y-110500000D02*
X87860000Y-110500000D01*
X87860000Y-110500000D02*
X87860000Y-95260000D01*
X66910000Y-95260000D02*
X87230000Y-95260000D01*
X87230000Y-95260000D02*
X87230000Y-110500000D01*
X87230000Y-110500000D02*
X66910000Y-110500000D01*
X66910000Y-110500000D02*
X66910000Y-95260000D01*
X24572000Y-92636000D02*
X44892000Y-92636000D01*
X44892000Y-92636000D02*
X44892000Y-107876000D01*
X44892000Y-107876000D02*
X24572000Y-107876000D01*
X24572000Y-107876000D02*
X24572000Y-92636000D01*
X45860000Y-95260000D02*
X66180000Y-95260000D01*
X66180000Y-95260000D02*
X66180000Y-110500000D01*
X66180000Y-110500000D02*
X45860000Y-110500000D01*
X45860000Y-110500000D02*
X45860000Y-95260000D01*
D15*
X100575000Y-111110000D02*
X92955000Y-111110000D01*
X100575000Y-113650000D02*
X92955000Y-113650000D01*
X103395000Y-113930000D02*
X101845000Y-113930000D01*
X92955000Y-111110000D02*
X92955000Y-113650000D01*
X100575000Y-113650000D02*
X100575000Y-111110000D01*
X101845000Y-110830000D02*
X103395000Y-110830000D01*
X103395000Y-110830000D02*
X103395000Y-113930000D01*
X79600000Y-111110000D02*
X71980000Y-111110000D01*
X79600000Y-113650000D02*
X71980000Y-113650000D01*
X82420000Y-113930000D02*
X80870000Y-113930000D01*
X71980000Y-111110000D02*
X71980000Y-113650000D01*
X79600000Y-113650000D02*
X79600000Y-111110000D01*
X80870000Y-110830000D02*
X82420000Y-110830000D01*
X82420000Y-110830000D02*
X82420000Y-113930000D01*
X58550000Y-111110000D02*
X50930000Y-111110000D01*
X58550000Y-113650000D02*
X50930000Y-113650000D01*
X61370000Y-113930000D02*
X59820000Y-113930000D01*
X50930000Y-111110000D02*
X50930000Y-113650000D01*
X58550000Y-113650000D02*
X58550000Y-111110000D01*
X59820000Y-110830000D02*
X61370000Y-110830000D01*
X61370000Y-110830000D02*
X61370000Y-113930000D01*
X97320000Y-76130000D02*
X97320000Y-77330000D01*
X95570000Y-77330000D02*
X95570000Y-76130000D01*
X107445000Y-75630000D02*
X107445000Y-74430000D01*
X109195000Y-74430000D02*
X109195000Y-75630000D01*
X106100000Y-64550000D02*
X106100000Y-69630000D01*
X106100000Y-69630000D02*
X108640000Y-69630000D01*
X108640000Y-69630000D02*
X108640000Y-64550000D01*
X108920000Y-61730000D02*
X108920000Y-63280000D01*
X108640000Y-64550000D02*
X106100000Y-64550000D01*
X105820000Y-63280000D02*
X105820000Y-61730000D01*
X105820000Y-61730000D02*
X108920000Y-61730000D01*
X95170000Y-90255000D02*
X93970000Y-90255000D01*
X93970000Y-88505000D02*
X95170000Y-88505000D01*
X95020000Y-86805000D02*
X93820000Y-86805000D01*
X93820000Y-85055000D02*
X95020000Y-85055000D01*
X101245000Y-57980000D02*
X100245000Y-57980000D01*
X100245000Y-59680000D02*
X101245000Y-59680000D01*
X98870000Y-69505000D02*
X100070000Y-69505000D01*
X100070000Y-71255000D02*
X98870000Y-71255000D01*
X99970000Y-63705000D02*
X98770000Y-63705000D01*
X98770000Y-61955000D02*
X99970000Y-61955000D01*
X87070000Y-57830000D02*
X86070000Y-57830000D01*
X86070000Y-59530000D02*
X87070000Y-59530000D01*
X91970640Y-61280380D02*
X91970640Y-72979620D01*
X96969360Y-72979620D02*
X96969360Y-61280380D01*
X91970640Y-72979620D02*
X92819000Y-72979620D01*
X96969360Y-72979620D02*
X96121000Y-72979620D01*
X91970640Y-61280380D02*
X92819000Y-61280380D01*
X96969360Y-61280380D02*
X96121000Y-61280380D01*
D14*
X44720020Y-63930000D02*
X44720020Y-61229980D01*
X44720020Y-61229980D02*
X40620460Y-61229980D01*
X40620460Y-61229980D02*
X39319980Y-62530460D01*
X39319980Y-62530460D02*
X39319980Y-65329540D01*
X39319980Y-65329540D02*
X40620460Y-66630020D01*
X40620460Y-66630020D02*
X44720020Y-66630020D01*
X44720020Y-66630020D02*
X44720020Y-63930000D01*
X53720540Y-61130540D02*
X53720540Y-67729460D01*
X53720540Y-67729460D02*
X58620200Y-67729460D01*
X58620200Y-67729460D02*
X60319460Y-66030200D01*
X60319460Y-66030200D02*
X60319460Y-62829800D01*
X60319460Y-62829800D02*
X58620200Y-61130540D01*
X58620200Y-61130540D02*
X53720540Y-61130540D01*
X60770540Y-52580540D02*
X60770540Y-59179460D01*
X60770540Y-59179460D02*
X65670200Y-59179460D01*
X65670200Y-59179460D02*
X67369460Y-57480200D01*
X67369460Y-57480200D02*
X67369460Y-54279800D01*
X67369460Y-54279800D02*
X65670200Y-52580540D01*
X65670200Y-52580540D02*
X60770540Y-52580540D01*
X67119460Y-39079460D02*
X67119460Y-32480540D01*
X67119460Y-32480540D02*
X62219800Y-32480540D01*
X62219800Y-32480540D02*
X60520540Y-34179800D01*
X60520540Y-34179800D02*
X60520540Y-37380200D01*
X60520540Y-37380200D02*
X62219800Y-39079460D01*
X62219800Y-39079460D02*
X67119460Y-39079460D01*
X36920540Y-98230540D02*
X36920540Y-104829460D01*
X36920540Y-104829460D02*
X41820200Y-104829460D01*
X41820200Y-104829460D02*
X43519460Y-103130200D01*
X43519460Y-103130200D02*
X43519460Y-99929800D01*
X43519460Y-99929800D02*
X41820200Y-98230540D01*
X41820200Y-98230540D02*
X36920540Y-98230540D01*
X58320540Y-100780540D02*
X58320540Y-107379460D01*
X58320540Y-107379460D02*
X63220200Y-107379460D01*
X63220200Y-107379460D02*
X64919460Y-105680200D01*
X64919460Y-105680200D02*
X64919460Y-102479800D01*
X64919460Y-102479800D02*
X63220200Y-100780540D01*
X63220200Y-100780540D02*
X58320540Y-100780540D01*
X79370540Y-100780540D02*
X79370540Y-107379460D01*
X79370540Y-107379460D02*
X84270200Y-107379460D01*
X84270200Y-107379460D02*
X85969460Y-105680200D01*
X85969460Y-105680200D02*
X85969460Y-102479800D01*
X85969460Y-102479800D02*
X84270200Y-100780540D01*
X84270200Y-100780540D02*
X79370540Y-100780540D01*
X100320540Y-100780540D02*
X100320540Y-107379460D01*
X100320540Y-107379460D02*
X105220200Y-107379460D01*
X105220200Y-107379460D02*
X106919460Y-105680200D01*
X106919460Y-105680200D02*
X106919460Y-102479800D01*
X106919460Y-102479800D02*
X105220200Y-100780540D01*
X105220200Y-100780540D02*
X100320540Y-100780540D01*
X117371200Y-70380600D02*
X117371200Y-86179400D01*
X117769980Y-70380600D02*
X117769980Y-86179400D01*
X123568800Y-86179400D02*
X123568800Y-70380600D01*
X123070960Y-70380600D02*
X123070960Y-86179400D01*
X123070960Y-73179680D02*
X123568800Y-73179680D01*
X123070960Y-75780640D02*
X123568800Y-75780640D01*
X123070960Y-78282540D02*
X123568800Y-78282540D01*
X123070960Y-80779360D02*
X123568800Y-80779360D01*
X123568800Y-85976200D02*
X123070960Y-85976200D01*
X123070960Y-70583800D02*
X123568800Y-70583800D01*
X123568800Y-83377780D02*
X123070960Y-83377780D01*
X123568800Y-70385680D02*
X117371200Y-70385680D01*
X117371200Y-86174320D02*
X123568800Y-86174320D01*
X117371200Y-86480600D02*
X117371200Y-102279400D01*
X117769980Y-86480600D02*
X117769980Y-102279400D01*
X123568800Y-102279400D02*
X123568800Y-86480600D01*
X123070960Y-86480600D02*
X123070960Y-102279400D01*
X123070960Y-89279680D02*
X123568800Y-89279680D01*
X123070960Y-91880640D02*
X123568800Y-91880640D01*
X123070960Y-94382540D02*
X123568800Y-94382540D01*
X123070960Y-96879360D02*
X123568800Y-96879360D01*
X123568800Y-102076200D02*
X123070960Y-102076200D01*
X123070960Y-86683800D02*
X123568800Y-86683800D01*
X123568800Y-99477780D02*
X123070960Y-99477780D01*
X123568800Y-86485680D02*
X117371200Y-86485680D01*
X117371200Y-102274320D02*
X123568800Y-102274320D01*
X117371200Y-102580600D02*
X117371200Y-118379400D01*
X117769980Y-102580600D02*
X117769980Y-118379400D01*
X123568800Y-118379400D02*
X123568800Y-102580600D01*
X123070960Y-102580600D02*
X123070960Y-118379400D01*
X123070960Y-105379680D02*
X123568800Y-105379680D01*
X123070960Y-107980640D02*
X123568800Y-107980640D01*
X123070960Y-110482540D02*
X123568800Y-110482540D01*
X123070960Y-112979360D02*
X123568800Y-112979360D01*
X123568800Y-118176200D02*
X123070960Y-118176200D01*
X123070960Y-102783800D02*
X123568800Y-102783800D01*
X123568800Y-115577780D02*
X123070960Y-115577780D01*
X123568800Y-102585680D02*
X117371200Y-102585680D01*
X117371200Y-118374320D02*
X123568800Y-118374320D01*
D15*
X87720000Y-79930000D02*
X87720000Y-79130000D01*
X73370000Y-79930000D02*
X73370000Y-79130000D01*
X73370000Y-65580000D02*
X73370000Y-66380000D01*
X87720000Y-65580000D02*
X87720000Y-66380000D01*
X87720000Y-79930000D02*
X86920000Y-79930000D01*
X87720000Y-65580000D02*
X86920000Y-65580000D01*
X73370000Y-65580000D02*
X74170000Y-65580000D01*
X73370000Y-79930000D02*
X74170000Y-79930000D01*
X87720000Y-79130000D02*
X88995000Y-79130000D01*
X44266200Y-46207700D02*
X44266200Y-43845500D01*
X44266200Y-43845500D02*
X54273800Y-43845500D01*
X54273800Y-43845500D02*
X54273800Y-46207700D01*
X52267200Y-60190400D02*
X52267200Y-55859700D01*
X51263900Y-60190400D02*
X52267200Y-60190400D01*
X51263900Y-55859700D02*
X51263900Y-60190400D01*
X46272800Y-55859700D02*
X46272800Y-60190400D01*
X46272800Y-60190400D02*
X47276100Y-60190400D01*
X47276100Y-60190400D02*
X47276100Y-55859700D01*
X43923300Y-46207700D02*
X54616700Y-46207700D01*
X54616700Y-46207700D02*
X54616700Y-55859700D01*
X54616700Y-55859700D02*
X43923300Y-55859700D01*
X43923300Y-55859700D02*
X43923300Y-46207700D01*
X23420000Y-24480000D02*
X23420000Y-25630000D01*
X23420000Y-25630000D02*
X24970000Y-25630000D01*
X32844000Y-22956000D02*
X32844000Y-23464000D01*
X32336000Y-22956000D02*
X32336000Y-23464000D01*
X30304000Y-22956000D02*
X30304000Y-23464000D01*
X29796000Y-22956000D02*
X29796000Y-23464000D01*
X27764000Y-22956000D02*
X27764000Y-23464000D01*
X27256000Y-22956000D02*
X27256000Y-23464000D01*
X25224000Y-22956000D02*
X25224000Y-23464000D01*
X24716000Y-22956000D02*
X24716000Y-23464000D01*
X24716000Y-20416000D02*
X24716000Y-20924000D01*
X25224000Y-20416000D02*
X25224000Y-20924000D01*
X27256000Y-20416000D02*
X27256000Y-20924000D01*
X27764000Y-20416000D02*
X27764000Y-20924000D01*
X32844000Y-20416000D02*
X32844000Y-20924000D01*
X32336000Y-20416000D02*
X32336000Y-20924000D01*
X30304000Y-20416000D02*
X30304000Y-20924000D01*
X29796000Y-20416000D02*
X29796000Y-20924000D01*
X59604000Y-22956000D02*
X59604000Y-23464000D01*
X59096000Y-22956000D02*
X59096000Y-23464000D01*
X54016000Y-22956000D02*
X54016000Y-23464000D01*
X54524000Y-22956000D02*
X54524000Y-23464000D01*
X56556000Y-22956000D02*
X56556000Y-23464000D01*
X57064000Y-22956000D02*
X57064000Y-23464000D01*
X51984000Y-22956000D02*
X51984000Y-23464000D01*
X51476000Y-22956000D02*
X51476000Y-23464000D01*
X49444000Y-22956000D02*
X49444000Y-23464000D01*
X48936000Y-22956000D02*
X48936000Y-23464000D01*
X41316000Y-22956000D02*
X41316000Y-23464000D01*
X41824000Y-22956000D02*
X41824000Y-23464000D01*
X46904000Y-22956000D02*
X46904000Y-23464000D01*
X46396000Y-22956000D02*
X46396000Y-23464000D01*
X44364000Y-22956000D02*
X44364000Y-23464000D01*
X43856000Y-22956000D02*
X43856000Y-23464000D01*
X56556000Y-20416000D02*
X56556000Y-20924000D01*
X57064000Y-20416000D02*
X57064000Y-20924000D01*
X59096000Y-20416000D02*
X59096000Y-20924000D01*
X59604000Y-20416000D02*
X59604000Y-20924000D01*
X54524000Y-20416000D02*
X54524000Y-20924000D01*
X54016000Y-20416000D02*
X54016000Y-20924000D01*
X51984000Y-20416000D02*
X51984000Y-20924000D01*
X51476000Y-20416000D02*
X51476000Y-20924000D01*
X41316000Y-20416000D02*
X41316000Y-20924000D01*
X41824000Y-20416000D02*
X41824000Y-20924000D01*
X43856000Y-20416000D02*
X43856000Y-20924000D01*
X44364000Y-20416000D02*
X44364000Y-20924000D01*
X49444000Y-20416000D02*
X49444000Y-20924000D01*
X48936000Y-20416000D02*
X48936000Y-20924000D01*
X46904000Y-20416000D02*
X46904000Y-20924000D01*
X46396000Y-20416000D02*
X46396000Y-20924000D01*
X40020000Y-24480000D02*
X40020000Y-25630000D01*
X40020000Y-25630000D02*
X41570000Y-25630000D01*
X85204000Y-22956000D02*
X85204000Y-23464000D01*
X84696000Y-22956000D02*
X84696000Y-23464000D01*
X79616000Y-22956000D02*
X79616000Y-23464000D01*
X80124000Y-22956000D02*
X80124000Y-23464000D01*
X82156000Y-22956000D02*
X82156000Y-23464000D01*
X82664000Y-22956000D02*
X82664000Y-23464000D01*
X77584000Y-22956000D02*
X77584000Y-23464000D01*
X77076000Y-22956000D02*
X77076000Y-23464000D01*
X75044000Y-22956000D02*
X75044000Y-23464000D01*
X74536000Y-22956000D02*
X74536000Y-23464000D01*
X66916000Y-22956000D02*
X66916000Y-23464000D01*
X67424000Y-22956000D02*
X67424000Y-23464000D01*
X72504000Y-22956000D02*
X72504000Y-23464000D01*
X71996000Y-22956000D02*
X71996000Y-23464000D01*
X69964000Y-22956000D02*
X69964000Y-23464000D01*
X69456000Y-22956000D02*
X69456000Y-23464000D01*
X82156000Y-20416000D02*
X82156000Y-20924000D01*
X82664000Y-20416000D02*
X82664000Y-20924000D01*
X84696000Y-20416000D02*
X84696000Y-20924000D01*
X85204000Y-20416000D02*
X85204000Y-20924000D01*
X80124000Y-20416000D02*
X80124000Y-20924000D01*
X79616000Y-20416000D02*
X79616000Y-20924000D01*
X77584000Y-20416000D02*
X77584000Y-20924000D01*
X77076000Y-20416000D02*
X77076000Y-20924000D01*
X66916000Y-20416000D02*
X66916000Y-20924000D01*
X67424000Y-20416000D02*
X67424000Y-20924000D01*
X69456000Y-20416000D02*
X69456000Y-20924000D01*
X69964000Y-20416000D02*
X69964000Y-20924000D01*
X75044000Y-20416000D02*
X75044000Y-20924000D01*
X74536000Y-20416000D02*
X74536000Y-20924000D01*
X72504000Y-20416000D02*
X72504000Y-20924000D01*
X71996000Y-20416000D02*
X71996000Y-20924000D01*
X65620000Y-24480000D02*
X65620000Y-25630000D01*
X65620000Y-25630000D02*
X67170000Y-25630000D01*
X110156000Y-22956000D02*
X110156000Y-23464000D01*
X110664000Y-22956000D02*
X110664000Y-23464000D01*
X108124000Y-22956000D02*
X108124000Y-23464000D01*
X107616000Y-22956000D02*
X107616000Y-23464000D01*
X105584000Y-22956000D02*
X105584000Y-23464000D01*
X105076000Y-22956000D02*
X105076000Y-23464000D01*
X94916000Y-22956000D02*
X94916000Y-23464000D01*
X95424000Y-22956000D02*
X95424000Y-23464000D01*
X97456000Y-22956000D02*
X97456000Y-23464000D01*
X97964000Y-22956000D02*
X97964000Y-23464000D01*
X103044000Y-22956000D02*
X103044000Y-23464000D01*
X102536000Y-22956000D02*
X102536000Y-23464000D01*
X100504000Y-22956000D02*
X100504000Y-23464000D01*
X99996000Y-22956000D02*
X99996000Y-23464000D01*
X110156000Y-20416000D02*
X110156000Y-20924000D01*
X110664000Y-20416000D02*
X110664000Y-20924000D01*
X108124000Y-20416000D02*
X108124000Y-20924000D01*
X107616000Y-20416000D02*
X107616000Y-20924000D01*
X105584000Y-20416000D02*
X105584000Y-20924000D01*
X105076000Y-20416000D02*
X105076000Y-20924000D01*
X94916000Y-20416000D02*
X94916000Y-20924000D01*
X95424000Y-20416000D02*
X95424000Y-20924000D01*
X97456000Y-20416000D02*
X97456000Y-20924000D01*
X97964000Y-20416000D02*
X97964000Y-20924000D01*
X103044000Y-20416000D02*
X103044000Y-20924000D01*
X102536000Y-20416000D02*
X102536000Y-20924000D01*
X100504000Y-20416000D02*
X100504000Y-20924000D01*
X99996000Y-20416000D02*
X99996000Y-20924000D01*
X93620000Y-24480000D02*
X93620000Y-25630000D01*
X93620000Y-25630000D02*
X95170000Y-25630000D01*
X120094000Y-21826000D02*
X119586000Y-21826000D01*
X120094000Y-22334000D02*
X119586000Y-22334000D01*
X120094000Y-45194000D02*
X119586000Y-45194000D01*
X120094000Y-44686000D02*
X119586000Y-44686000D01*
X120094000Y-39606000D02*
X119586000Y-39606000D01*
X120094000Y-40114000D02*
X119586000Y-40114000D01*
X120094000Y-42146000D02*
X119586000Y-42146000D01*
X120094000Y-42654000D02*
X119586000Y-42654000D01*
X120094000Y-37574000D02*
X119586000Y-37574000D01*
X120094000Y-37066000D02*
X119586000Y-37066000D01*
X120094000Y-35034000D02*
X119586000Y-35034000D01*
X120094000Y-34526000D02*
X119586000Y-34526000D01*
X120094000Y-24366000D02*
X119586000Y-24366000D01*
X120094000Y-24874000D02*
X119586000Y-24874000D01*
X120094000Y-26906000D02*
X119586000Y-26906000D01*
X120094000Y-27414000D02*
X119586000Y-27414000D01*
X120094000Y-32494000D02*
X119586000Y-32494000D01*
X120094000Y-31986000D02*
X119586000Y-31986000D01*
X120094000Y-29954000D02*
X119586000Y-29954000D01*
X120094000Y-29446000D02*
X119586000Y-29446000D01*
X122634000Y-45194000D02*
X122126000Y-45194000D01*
X122634000Y-44686000D02*
X122126000Y-44686000D01*
X122634000Y-42654000D02*
X122126000Y-42654000D01*
X122634000Y-42146000D02*
X122126000Y-42146000D01*
X122634000Y-37066000D02*
X122126000Y-37066000D01*
X122634000Y-37574000D02*
X122126000Y-37574000D01*
X122634000Y-39606000D02*
X122126000Y-39606000D01*
X122634000Y-40114000D02*
X122126000Y-40114000D01*
X122634000Y-35034000D02*
X122126000Y-35034000D01*
X122634000Y-34526000D02*
X122126000Y-34526000D01*
X122634000Y-32494000D02*
X122126000Y-32494000D01*
X122634000Y-31986000D02*
X122126000Y-31986000D01*
X122634000Y-21826000D02*
X122126000Y-21826000D01*
X122634000Y-22334000D02*
X122126000Y-22334000D01*
X122634000Y-24366000D02*
X122126000Y-24366000D01*
X122634000Y-24874000D02*
X122126000Y-24874000D01*
X122634000Y-29954000D02*
X122126000Y-29954000D01*
X122634000Y-29446000D02*
X122126000Y-29446000D01*
X122634000Y-27414000D02*
X122126000Y-27414000D01*
X122634000Y-26906000D02*
X122126000Y-26906000D01*
X118570000Y-20530000D02*
X117420000Y-20530000D01*
X117420000Y-20530000D02*
X117420000Y-22080000D01*
D18*
X29059429Y-118530572D02*
X27535429Y-118530572D01*
X27535429Y-117950000D01*
X27608000Y-117804858D01*
X27680571Y-117732286D01*
X27825714Y-117659715D01*
X28043429Y-117659715D01*
X28188571Y-117732286D01*
X28261143Y-117804858D01*
X28333714Y-117950000D01*
X28333714Y-118530572D01*
X27535429Y-117151715D02*
X27535429Y-116208286D01*
X28116000Y-116716286D01*
X28116000Y-116498572D01*
X28188571Y-116353429D01*
X28261143Y-116280858D01*
X28406286Y-116208286D01*
X28769143Y-116208286D01*
X28914286Y-116280858D01*
X28986857Y-116353429D01*
X29059429Y-116498572D01*
X29059429Y-116934000D01*
X28986857Y-117079143D01*
X28914286Y-117151715D01*
X27535429Y-114829429D02*
X27535429Y-115555143D01*
X28261143Y-115627714D01*
X28188571Y-115555143D01*
X28116000Y-115410000D01*
X28116000Y-115047143D01*
X28188571Y-114902000D01*
X28261143Y-114829429D01*
X28406286Y-114756857D01*
X28769143Y-114756857D01*
X28914286Y-114829429D01*
X28986857Y-114902000D01*
X29059429Y-115047143D01*
X29059429Y-115410000D01*
X28986857Y-115555143D01*
X28914286Y-115627714D01*
D15*
X93327143Y-76686666D02*
X93374762Y-76734285D01*
X93422381Y-76877142D01*
X93422381Y-76972380D01*
X93374762Y-77115238D01*
X93279524Y-77210476D01*
X93184286Y-77258095D01*
X92993810Y-77305714D01*
X92850952Y-77305714D01*
X92660476Y-77258095D01*
X92565238Y-77210476D01*
X92470000Y-77115238D01*
X92422381Y-76972380D01*
X92422381Y-76877142D01*
X92470000Y-76734285D01*
X92517619Y-76686666D01*
X93422381Y-75734285D02*
X93422381Y-76305714D01*
X93422381Y-76020000D02*
X92422381Y-76020000D01*
X92565238Y-76115238D01*
X92660476Y-76210476D01*
X92708095Y-76305714D01*
X36153334Y-78537143D02*
X36105715Y-78584762D01*
X35962858Y-78632381D01*
X35867620Y-78632381D01*
X35724762Y-78584762D01*
X35629524Y-78489524D01*
X35581905Y-78394286D01*
X35534286Y-78203810D01*
X35534286Y-78060952D01*
X35581905Y-77870476D01*
X35629524Y-77775238D01*
X35724762Y-77680000D01*
X35867620Y-77632381D01*
X35962858Y-77632381D01*
X36105715Y-77680000D01*
X36153334Y-77727619D01*
X36486667Y-77632381D02*
X37153334Y-77632381D01*
X36724762Y-78632381D01*
X83963334Y-62687143D02*
X83915715Y-62734762D01*
X83772858Y-62782381D01*
X83677620Y-62782381D01*
X83534762Y-62734762D01*
X83439524Y-62639524D01*
X83391905Y-62544286D01*
X83344286Y-62353810D01*
X83344286Y-62210952D01*
X83391905Y-62020476D01*
X83439524Y-61925238D01*
X83534762Y-61830000D01*
X83677620Y-61782381D01*
X83772858Y-61782381D01*
X83915715Y-61830000D01*
X83963334Y-61877619D01*
X84296667Y-61782381D02*
X84915715Y-61782381D01*
X84582381Y-62163333D01*
X84725239Y-62163333D01*
X84820477Y-62210952D01*
X84868096Y-62258571D01*
X84915715Y-62353810D01*
X84915715Y-62591905D01*
X84868096Y-62687143D01*
X84820477Y-62734762D01*
X84725239Y-62782381D01*
X84439524Y-62782381D01*
X84344286Y-62734762D01*
X84296667Y-62687143D01*
X77253334Y-62167143D02*
X77205715Y-62214762D01*
X77062858Y-62262381D01*
X76967620Y-62262381D01*
X76824762Y-62214762D01*
X76729524Y-62119524D01*
X76681905Y-62024286D01*
X76634286Y-61833810D01*
X76634286Y-61690952D01*
X76681905Y-61500476D01*
X76729524Y-61405238D01*
X76824762Y-61310000D01*
X76967620Y-61262381D01*
X77062858Y-61262381D01*
X77205715Y-61310000D01*
X77253334Y-61357619D01*
X78110477Y-61595714D02*
X78110477Y-62262381D01*
X77872381Y-61214762D02*
X77634286Y-61929048D01*
X78253334Y-61929048D01*
X66803334Y-81637143D02*
X66755715Y-81684762D01*
X66612858Y-81732381D01*
X66517620Y-81732381D01*
X66374762Y-81684762D01*
X66279524Y-81589524D01*
X66231905Y-81494286D01*
X66184286Y-81303810D01*
X66184286Y-81160952D01*
X66231905Y-80970476D01*
X66279524Y-80875238D01*
X66374762Y-80780000D01*
X66517620Y-80732381D01*
X66612858Y-80732381D01*
X66755715Y-80780000D01*
X66803334Y-80827619D01*
X67708096Y-80732381D02*
X67231905Y-80732381D01*
X67184286Y-81208571D01*
X67231905Y-81160952D01*
X67327143Y-81113333D01*
X67565239Y-81113333D01*
X67660477Y-81160952D01*
X67708096Y-81208571D01*
X67755715Y-81303810D01*
X67755715Y-81541905D01*
X67708096Y-81637143D01*
X67660477Y-81684762D01*
X67565239Y-81732381D01*
X67327143Y-81732381D01*
X67231905Y-81684762D01*
X67184286Y-81637143D01*
X87603334Y-85387143D02*
X87555715Y-85434762D01*
X87412858Y-85482381D01*
X87317620Y-85482381D01*
X87174762Y-85434762D01*
X87079524Y-85339524D01*
X87031905Y-85244286D01*
X86984286Y-85053810D01*
X86984286Y-84910952D01*
X87031905Y-84720476D01*
X87079524Y-84625238D01*
X87174762Y-84530000D01*
X87317620Y-84482381D01*
X87412858Y-84482381D01*
X87555715Y-84530000D01*
X87603334Y-84577619D01*
X88460477Y-84482381D02*
X88270000Y-84482381D01*
X88174762Y-84530000D01*
X88127143Y-84577619D01*
X88031905Y-84720476D01*
X87984286Y-84910952D01*
X87984286Y-85291905D01*
X88031905Y-85387143D01*
X88079524Y-85434762D01*
X88174762Y-85482381D01*
X88365239Y-85482381D01*
X88460477Y-85434762D01*
X88508096Y-85387143D01*
X88555715Y-85291905D01*
X88555715Y-85053810D01*
X88508096Y-84958571D01*
X88460477Y-84910952D01*
X88365239Y-84863333D01*
X88174762Y-84863333D01*
X88079524Y-84910952D01*
X88031905Y-84958571D01*
X87984286Y-85053810D01*
X90473334Y-64977143D02*
X90425715Y-65024762D01*
X90282858Y-65072381D01*
X90187620Y-65072381D01*
X90044762Y-65024762D01*
X89949524Y-64929524D01*
X89901905Y-64834286D01*
X89854286Y-64643810D01*
X89854286Y-64500952D01*
X89901905Y-64310476D01*
X89949524Y-64215238D01*
X90044762Y-64120000D01*
X90187620Y-64072381D01*
X90282858Y-64072381D01*
X90425715Y-64120000D01*
X90473334Y-64167619D01*
X90949524Y-65072381D02*
X91140000Y-65072381D01*
X91235239Y-65024762D01*
X91282858Y-64977143D01*
X91378096Y-64834286D01*
X91425715Y-64643810D01*
X91425715Y-64262857D01*
X91378096Y-64167619D01*
X91330477Y-64120000D01*
X91235239Y-64072381D01*
X91044762Y-64072381D01*
X90949524Y-64120000D01*
X90901905Y-64167619D01*
X90854286Y-64262857D01*
X90854286Y-64500952D01*
X90901905Y-64596190D01*
X90949524Y-64643810D01*
X91044762Y-64691429D01*
X91235239Y-64691429D01*
X91330477Y-64643810D01*
X91378096Y-64596190D01*
X91425715Y-64500952D01*
X111002143Y-72197857D02*
X111049762Y-72245476D01*
X111097381Y-72388333D01*
X111097381Y-72483571D01*
X111049762Y-72626429D01*
X110954524Y-72721667D01*
X110859286Y-72769286D01*
X110668810Y-72816905D01*
X110525952Y-72816905D01*
X110335476Y-72769286D01*
X110240238Y-72721667D01*
X110145000Y-72626429D01*
X110097381Y-72483571D01*
X110097381Y-72388333D01*
X110145000Y-72245476D01*
X110192619Y-72197857D01*
X111097381Y-71245476D02*
X111097381Y-71816905D01*
X111097381Y-71531191D02*
X110097381Y-71531191D01*
X110240238Y-71626429D01*
X110335476Y-71721667D01*
X110383095Y-71816905D01*
X110430714Y-70388333D02*
X111097381Y-70388333D01*
X110049762Y-70626429D02*
X110764048Y-70864524D01*
X110764048Y-70245476D01*
X111247143Y-90022857D02*
X111294762Y-90070476D01*
X111342381Y-90213333D01*
X111342381Y-90308571D01*
X111294762Y-90451429D01*
X111199524Y-90546667D01*
X111104286Y-90594286D01*
X110913810Y-90641905D01*
X110770952Y-90641905D01*
X110580476Y-90594286D01*
X110485238Y-90546667D01*
X110390000Y-90451429D01*
X110342381Y-90308571D01*
X110342381Y-90213333D01*
X110390000Y-90070476D01*
X110437619Y-90022857D01*
X111342381Y-89070476D02*
X111342381Y-89641905D01*
X111342381Y-89356191D02*
X110342381Y-89356191D01*
X110485238Y-89451429D01*
X110580476Y-89546667D01*
X110628095Y-89641905D01*
X110342381Y-88165714D02*
X110342381Y-88641905D01*
X110818571Y-88689524D01*
X110770952Y-88641905D01*
X110723333Y-88546667D01*
X110723333Y-88308571D01*
X110770952Y-88213333D01*
X110818571Y-88165714D01*
X110913810Y-88118095D01*
X111151905Y-88118095D01*
X111247143Y-88165714D01*
X111294762Y-88213333D01*
X111342381Y-88308571D01*
X111342381Y-88546667D01*
X111294762Y-88641905D01*
X111247143Y-88689524D01*
X111002143Y-107447857D02*
X111049762Y-107495476D01*
X111097381Y-107638333D01*
X111097381Y-107733571D01*
X111049762Y-107876429D01*
X110954524Y-107971667D01*
X110859286Y-108019286D01*
X110668810Y-108066905D01*
X110525952Y-108066905D01*
X110335476Y-108019286D01*
X110240238Y-107971667D01*
X110145000Y-107876429D01*
X110097381Y-107733571D01*
X110097381Y-107638333D01*
X110145000Y-107495476D01*
X110192619Y-107447857D01*
X111097381Y-106495476D02*
X111097381Y-107066905D01*
X111097381Y-106781191D02*
X110097381Y-106781191D01*
X110240238Y-106876429D01*
X110335476Y-106971667D01*
X110383095Y-107066905D01*
X110097381Y-105638333D02*
X110097381Y-105828810D01*
X110145000Y-105924048D01*
X110192619Y-105971667D01*
X110335476Y-106066905D01*
X110525952Y-106114524D01*
X110906905Y-106114524D01*
X111002143Y-106066905D01*
X111049762Y-106019286D01*
X111097381Y-105924048D01*
X111097381Y-105733571D01*
X111049762Y-105638333D01*
X111002143Y-105590714D01*
X110906905Y-105543095D01*
X110668810Y-105543095D01*
X110573571Y-105590714D01*
X110525952Y-105638333D01*
X110478333Y-105733571D01*
X110478333Y-105924048D01*
X110525952Y-106019286D01*
X110573571Y-106066905D01*
X110668810Y-106114524D01*
X111347143Y-81022857D02*
X111394762Y-81070476D01*
X111442381Y-81213333D01*
X111442381Y-81308571D01*
X111394762Y-81451429D01*
X111299524Y-81546667D01*
X111204286Y-81594286D01*
X111013810Y-81641905D01*
X110870952Y-81641905D01*
X110680476Y-81594286D01*
X110585238Y-81546667D01*
X110490000Y-81451429D01*
X110442381Y-81308571D01*
X110442381Y-81213333D01*
X110490000Y-81070476D01*
X110537619Y-81022857D01*
X111442381Y-80070476D02*
X111442381Y-80641905D01*
X111442381Y-80356191D02*
X110442381Y-80356191D01*
X110585238Y-80451429D01*
X110680476Y-80546667D01*
X110728095Y-80641905D01*
X110442381Y-79737143D02*
X110442381Y-79070476D01*
X111442381Y-79499048D01*
X111002143Y-98697857D02*
X111049762Y-98745476D01*
X111097381Y-98888333D01*
X111097381Y-98983571D01*
X111049762Y-99126429D01*
X110954524Y-99221667D01*
X110859286Y-99269286D01*
X110668810Y-99316905D01*
X110525952Y-99316905D01*
X110335476Y-99269286D01*
X110240238Y-99221667D01*
X110145000Y-99126429D01*
X110097381Y-98983571D01*
X110097381Y-98888333D01*
X110145000Y-98745476D01*
X110192619Y-98697857D01*
X111097381Y-97745476D02*
X111097381Y-98316905D01*
X111097381Y-98031191D02*
X110097381Y-98031191D01*
X110240238Y-98126429D01*
X110335476Y-98221667D01*
X110383095Y-98316905D01*
X110525952Y-97174048D02*
X110478333Y-97269286D01*
X110430714Y-97316905D01*
X110335476Y-97364524D01*
X110287857Y-97364524D01*
X110192619Y-97316905D01*
X110145000Y-97269286D01*
X110097381Y-97174048D01*
X110097381Y-96983571D01*
X110145000Y-96888333D01*
X110192619Y-96840714D01*
X110287857Y-96793095D01*
X110335476Y-96793095D01*
X110430714Y-96840714D01*
X110478333Y-96888333D01*
X110525952Y-96983571D01*
X110525952Y-97174048D01*
X110573571Y-97269286D01*
X110621190Y-97316905D01*
X110716429Y-97364524D01*
X110906905Y-97364524D01*
X111002143Y-97316905D01*
X111049762Y-97269286D01*
X111097381Y-97174048D01*
X111097381Y-96983571D01*
X111049762Y-96888333D01*
X111002143Y-96840714D01*
X110906905Y-96793095D01*
X110716429Y-96793095D01*
X110621190Y-96840714D01*
X110573571Y-96888333D01*
X110525952Y-96983571D01*
X108402143Y-115797857D02*
X108449762Y-115845476D01*
X108497381Y-115988333D01*
X108497381Y-116083571D01*
X108449762Y-116226429D01*
X108354524Y-116321667D01*
X108259286Y-116369286D01*
X108068810Y-116416905D01*
X107925952Y-116416905D01*
X107735476Y-116369286D01*
X107640238Y-116321667D01*
X107545000Y-116226429D01*
X107497381Y-116083571D01*
X107497381Y-115988333D01*
X107545000Y-115845476D01*
X107592619Y-115797857D01*
X108497381Y-114845476D02*
X108497381Y-115416905D01*
X108497381Y-115131191D02*
X107497381Y-115131191D01*
X107640238Y-115226429D01*
X107735476Y-115321667D01*
X107783095Y-115416905D01*
X108497381Y-114369286D02*
X108497381Y-114178810D01*
X108449762Y-114083571D01*
X108402143Y-114035952D01*
X108259286Y-113940714D01*
X108068810Y-113893095D01*
X107687857Y-113893095D01*
X107592619Y-113940714D01*
X107545000Y-113988333D01*
X107497381Y-114083571D01*
X107497381Y-114274048D01*
X107545000Y-114369286D01*
X107592619Y-114416905D01*
X107687857Y-114464524D01*
X107925952Y-114464524D01*
X108021190Y-114416905D01*
X108068810Y-114369286D01*
X108116429Y-114274048D01*
X108116429Y-114083571D01*
X108068810Y-113988333D01*
X108021190Y-113940714D01*
X107925952Y-113893095D01*
D19*
X71081344Y-53832725D02*
X71081344Y-52831965D01*
X71319620Y-52831965D01*
X71462586Y-52879620D01*
X71557897Y-52974930D01*
X71605552Y-53070241D01*
X71653207Y-53260862D01*
X71653207Y-53403828D01*
X71605552Y-53594449D01*
X71557897Y-53689759D01*
X71462586Y-53785070D01*
X71319620Y-53832725D01*
X71081344Y-53832725D01*
X72606312Y-53832725D02*
X72034449Y-53832725D01*
X72320380Y-53832725D02*
X72320380Y-52831965D01*
X72225070Y-52974930D01*
X72129759Y-53070241D01*
X72034449Y-53117896D01*
D15*
X34098571Y-46363333D02*
X34098571Y-46696667D01*
X34622381Y-46696667D02*
X33622381Y-46696667D01*
X33622381Y-46220476D01*
X34622381Y-45315714D02*
X34622381Y-45887143D01*
X34622381Y-45601429D02*
X33622381Y-45601429D01*
X33765238Y-45696667D01*
X33860476Y-45791905D01*
X33908095Y-45887143D01*
X85993810Y-92932381D02*
X85993810Y-91932381D01*
X87041429Y-92837143D02*
X86993810Y-92884762D01*
X86850953Y-92932381D01*
X86755715Y-92932381D01*
X86612857Y-92884762D01*
X86517619Y-92789524D01*
X86470000Y-92694286D01*
X86422381Y-92503810D01*
X86422381Y-92360952D01*
X86470000Y-92170476D01*
X86517619Y-92075238D01*
X86612857Y-91980000D01*
X86755715Y-91932381D01*
X86850953Y-91932381D01*
X86993810Y-91980000D01*
X87041429Y-92027619D01*
X87993810Y-92932381D02*
X87422381Y-92932381D01*
X87708095Y-92932381D02*
X87708095Y-91932381D01*
X87612857Y-92075238D01*
X87517619Y-92170476D01*
X87422381Y-92218095D01*
X80753334Y-42102381D02*
X80277143Y-42102381D01*
X80277143Y-41102381D01*
X81039048Y-41197619D02*
X81086667Y-41150000D01*
X81181905Y-41102381D01*
X81420001Y-41102381D01*
X81515239Y-41150000D01*
X81562858Y-41197619D01*
X81610477Y-41292857D01*
X81610477Y-41388095D01*
X81562858Y-41530952D01*
X80991429Y-42102381D01*
X81610477Y-42102381D01*
X26431905Y-84732381D02*
X26431905Y-83732381D01*
X26812858Y-83732381D01*
X26908096Y-83780000D01*
X26955715Y-83827619D01*
X27003334Y-83922857D01*
X27003334Y-84065714D01*
X26955715Y-84160952D01*
X26908096Y-84208571D01*
X26812858Y-84256190D01*
X26431905Y-84256190D01*
X27908096Y-83732381D02*
X27431905Y-83732381D01*
X27384286Y-84208571D01*
X27431905Y-84160952D01*
X27527143Y-84113333D01*
X27765239Y-84113333D01*
X27860477Y-84160952D01*
X27908096Y-84208571D01*
X27955715Y-84303810D01*
X27955715Y-84541905D01*
X27908096Y-84637143D01*
X27860477Y-84684762D01*
X27765239Y-84732381D01*
X27527143Y-84732381D01*
X27431905Y-84684762D01*
X27384286Y-84637143D01*
X88111905Y-40272381D02*
X88111905Y-39272381D01*
X88492858Y-39272381D01*
X88588096Y-39320000D01*
X88635715Y-39367619D01*
X88683334Y-39462857D01*
X88683334Y-39605714D01*
X88635715Y-39700952D01*
X88588096Y-39748571D01*
X88492858Y-39796190D01*
X88111905Y-39796190D01*
X89540477Y-39272381D02*
X89350000Y-39272381D01*
X89254762Y-39320000D01*
X89207143Y-39367619D01*
X89111905Y-39510476D01*
X89064286Y-39700952D01*
X89064286Y-40081905D01*
X89111905Y-40177143D01*
X89159524Y-40224762D01*
X89254762Y-40272381D01*
X89445239Y-40272381D01*
X89540477Y-40224762D01*
X89588096Y-40177143D01*
X89635715Y-40081905D01*
X89635715Y-39843810D01*
X89588096Y-39748571D01*
X89540477Y-39700952D01*
X89445239Y-39653333D01*
X89254762Y-39653333D01*
X89159524Y-39700952D01*
X89111905Y-39748571D01*
X89064286Y-39843810D01*
X108111905Y-40002381D02*
X108111905Y-39002381D01*
X108492858Y-39002381D01*
X108588096Y-39050000D01*
X108635715Y-39097619D01*
X108683334Y-39192857D01*
X108683334Y-39335714D01*
X108635715Y-39430952D01*
X108588096Y-39478571D01*
X108492858Y-39526190D01*
X108111905Y-39526190D01*
X109016667Y-39002381D02*
X109683334Y-39002381D01*
X109254762Y-40002381D01*
X57322381Y-92068095D02*
X56322381Y-92068095D01*
X56322381Y-91687142D01*
X56370000Y-91591904D01*
X56417619Y-91544285D01*
X56512857Y-91496666D01*
X56655714Y-91496666D01*
X56750952Y-91544285D01*
X56798571Y-91591904D01*
X56846190Y-91687142D01*
X56846190Y-92068095D01*
X56750952Y-90925238D02*
X56703333Y-91020476D01*
X56655714Y-91068095D01*
X56560476Y-91115714D01*
X56512857Y-91115714D01*
X56417619Y-91068095D01*
X56370000Y-91020476D01*
X56322381Y-90925238D01*
X56322381Y-90734761D01*
X56370000Y-90639523D01*
X56417619Y-90591904D01*
X56512857Y-90544285D01*
X56560476Y-90544285D01*
X56655714Y-90591904D01*
X56703333Y-90639523D01*
X56750952Y-90734761D01*
X56750952Y-90925238D01*
X56798571Y-91020476D01*
X56846190Y-91068095D01*
X56941429Y-91115714D01*
X57131905Y-91115714D01*
X57227143Y-91068095D01*
X57274762Y-91020476D01*
X57322381Y-90925238D01*
X57322381Y-90734761D01*
X57274762Y-90639523D01*
X57227143Y-90591904D01*
X57131905Y-90544285D01*
X56941429Y-90544285D01*
X56846190Y-90591904D01*
X56798571Y-90639523D01*
X56750952Y-90734761D01*
D12*
X35648571Y-67587142D02*
X34148571Y-67587142D01*
X34148571Y-67015714D01*
X34220000Y-66872856D01*
X34291429Y-66801428D01*
X34434286Y-66729999D01*
X34648571Y-66729999D01*
X34791429Y-66801428D01*
X34862857Y-66872856D01*
X34934286Y-67015714D01*
X34934286Y-67587142D01*
X35648571Y-66015714D02*
X35648571Y-65729999D01*
X35577143Y-65587142D01*
X35505714Y-65515714D01*
X35291429Y-65372856D01*
X35005714Y-65301428D01*
X34434286Y-65301428D01*
X34291429Y-65372856D01*
X34220000Y-65444285D01*
X34148571Y-65587142D01*
X34148571Y-65872856D01*
X34220000Y-66015714D01*
X34291429Y-66087142D01*
X34434286Y-66158571D01*
X34791429Y-66158571D01*
X34934286Y-66087142D01*
X35005714Y-66015714D01*
X35077143Y-65872856D01*
X35077143Y-65587142D01*
X35005714Y-65444285D01*
X34934286Y-65372856D01*
X34791429Y-65301428D01*
D15*
X56205714Y-75807381D02*
X56205714Y-74807381D01*
X56586667Y-74807381D01*
X56681905Y-74855000D01*
X56729524Y-74902619D01*
X56777143Y-74997857D01*
X56777143Y-75140714D01*
X56729524Y-75235952D01*
X56681905Y-75283571D01*
X56586667Y-75331190D01*
X56205714Y-75331190D01*
X57729524Y-75807381D02*
X57158095Y-75807381D01*
X57443809Y-75807381D02*
X57443809Y-74807381D01*
X57348571Y-74950238D01*
X57253333Y-75045476D01*
X57158095Y-75093095D01*
X58348571Y-74807381D02*
X58443810Y-74807381D01*
X58539048Y-74855000D01*
X58586667Y-74902619D01*
X58634286Y-74997857D01*
X58681905Y-75188333D01*
X58681905Y-75426429D01*
X58634286Y-75616905D01*
X58586667Y-75712143D01*
X58539048Y-75759762D01*
X58443810Y-75807381D01*
X58348571Y-75807381D01*
X58253333Y-75759762D01*
X58205714Y-75712143D01*
X58158095Y-75616905D01*
X58110476Y-75426429D01*
X58110476Y-75188333D01*
X58158095Y-74997857D01*
X58205714Y-74902619D01*
X58253333Y-74855000D01*
X58348571Y-74807381D01*
X101555714Y-91332381D02*
X101555714Y-90332381D01*
X101936667Y-90332381D01*
X102031905Y-90380000D01*
X102079524Y-90427619D01*
X102127143Y-90522857D01*
X102127143Y-90665714D01*
X102079524Y-90760952D01*
X102031905Y-90808571D01*
X101936667Y-90856190D01*
X101555714Y-90856190D01*
X103079524Y-91332381D02*
X102508095Y-91332381D01*
X102793809Y-91332381D02*
X102793809Y-90332381D01*
X102698571Y-90475238D01*
X102603333Y-90570476D01*
X102508095Y-90618095D01*
X103460476Y-90427619D02*
X103508095Y-90380000D01*
X103603333Y-90332381D01*
X103841429Y-90332381D01*
X103936667Y-90380000D01*
X103984286Y-90427619D01*
X104031905Y-90522857D01*
X104031905Y-90618095D01*
X103984286Y-90760952D01*
X103412857Y-91332381D01*
X104031905Y-91332381D01*
X61922381Y-63394286D02*
X60922381Y-63394286D01*
X60922381Y-63013333D01*
X60970000Y-62918095D01*
X61017619Y-62870476D01*
X61112857Y-62822857D01*
X61255714Y-62822857D01*
X61350952Y-62870476D01*
X61398571Y-62918095D01*
X61446190Y-63013333D01*
X61446190Y-63394286D01*
X61922381Y-61870476D02*
X61922381Y-62441905D01*
X61922381Y-62156191D02*
X60922381Y-62156191D01*
X61065238Y-62251429D01*
X61160476Y-62346667D01*
X61208095Y-62441905D01*
X60922381Y-61537143D02*
X60922381Y-60918095D01*
X61303333Y-61251429D01*
X61303333Y-61108571D01*
X61350952Y-61013333D01*
X61398571Y-60965714D01*
X61493810Y-60918095D01*
X61731905Y-60918095D01*
X61827143Y-60965714D01*
X61874762Y-61013333D01*
X61922381Y-61108571D01*
X61922381Y-61394286D01*
X61874762Y-61489524D01*
X61827143Y-61537143D01*
X64955714Y-74732381D02*
X64955714Y-73732381D01*
X65336667Y-73732381D01*
X65431905Y-73780000D01*
X65479524Y-73827619D01*
X65527143Y-73922857D01*
X65527143Y-74065714D01*
X65479524Y-74160952D01*
X65431905Y-74208571D01*
X65336667Y-74256190D01*
X64955714Y-74256190D01*
X66479524Y-74732381D02*
X65908095Y-74732381D01*
X66193809Y-74732381D02*
X66193809Y-73732381D01*
X66098571Y-73875238D01*
X66003333Y-73970476D01*
X65908095Y-74018095D01*
X67336667Y-74065714D02*
X67336667Y-74732381D01*
X67098571Y-73684762D02*
X66860476Y-74399048D01*
X67479524Y-74399048D01*
X48672381Y-80094286D02*
X47672381Y-80094286D01*
X47672381Y-79713333D01*
X47720000Y-79618095D01*
X47767619Y-79570476D01*
X47862857Y-79522857D01*
X48005714Y-79522857D01*
X48100952Y-79570476D01*
X48148571Y-79618095D01*
X48196190Y-79713333D01*
X48196190Y-80094286D01*
X48672381Y-78570476D02*
X48672381Y-79141905D01*
X48672381Y-78856191D02*
X47672381Y-78856191D01*
X47815238Y-78951429D01*
X47910476Y-79046667D01*
X47958095Y-79141905D01*
X47672381Y-77665714D02*
X47672381Y-78141905D01*
X48148571Y-78189524D01*
X48100952Y-78141905D01*
X48053333Y-78046667D01*
X48053333Y-77808571D01*
X48100952Y-77713333D01*
X48148571Y-77665714D01*
X48243810Y-77618095D01*
X48481905Y-77618095D01*
X48577143Y-77665714D01*
X48624762Y-77713333D01*
X48672381Y-77808571D01*
X48672381Y-78046667D01*
X48624762Y-78141905D01*
X48577143Y-78189524D01*
X42822381Y-70494286D02*
X41822381Y-70494286D01*
X41822381Y-70113333D01*
X41870000Y-70018095D01*
X41917619Y-69970476D01*
X42012857Y-69922857D01*
X42155714Y-69922857D01*
X42250952Y-69970476D01*
X42298571Y-70018095D01*
X42346190Y-70113333D01*
X42346190Y-70494286D01*
X42822381Y-68970476D02*
X42822381Y-69541905D01*
X42822381Y-69256191D02*
X41822381Y-69256191D01*
X41965238Y-69351429D01*
X42060476Y-69446667D01*
X42108095Y-69541905D01*
X41822381Y-68113333D02*
X41822381Y-68303810D01*
X41870000Y-68399048D01*
X41917619Y-68446667D01*
X42060476Y-68541905D01*
X42250952Y-68589524D01*
X42631905Y-68589524D01*
X42727143Y-68541905D01*
X42774762Y-68494286D01*
X42822381Y-68399048D01*
X42822381Y-68208571D01*
X42774762Y-68113333D01*
X42727143Y-68065714D01*
X42631905Y-68018095D01*
X42393810Y-68018095D01*
X42298571Y-68065714D01*
X42250952Y-68113333D01*
X42203333Y-68208571D01*
X42203333Y-68399048D01*
X42250952Y-68494286D01*
X42298571Y-68541905D01*
X42393810Y-68589524D01*
X62722381Y-85994286D02*
X61722381Y-85994286D01*
X61722381Y-85613333D01*
X61770000Y-85518095D01*
X61817619Y-85470476D01*
X61912857Y-85422857D01*
X62055714Y-85422857D01*
X62150952Y-85470476D01*
X62198571Y-85518095D01*
X62246190Y-85613333D01*
X62246190Y-85994286D01*
X62722381Y-84470476D02*
X62722381Y-85041905D01*
X62722381Y-84756191D02*
X61722381Y-84756191D01*
X61865238Y-84851429D01*
X61960476Y-84946667D01*
X62008095Y-85041905D01*
X61722381Y-84137143D02*
X61722381Y-83470476D01*
X62722381Y-83899048D01*
X112112381Y-52644286D02*
X111112381Y-52644286D01*
X111112381Y-52263333D01*
X111160000Y-52168095D01*
X111207619Y-52120476D01*
X111302857Y-52072857D01*
X111445714Y-52072857D01*
X111540952Y-52120476D01*
X111588571Y-52168095D01*
X111636190Y-52263333D01*
X111636190Y-52644286D01*
X112112381Y-51120476D02*
X112112381Y-51691905D01*
X112112381Y-51406191D02*
X111112381Y-51406191D01*
X111255238Y-51501429D01*
X111350476Y-51596667D01*
X111398095Y-51691905D01*
X111540952Y-50549048D02*
X111493333Y-50644286D01*
X111445714Y-50691905D01*
X111350476Y-50739524D01*
X111302857Y-50739524D01*
X111207619Y-50691905D01*
X111160000Y-50644286D01*
X111112381Y-50549048D01*
X111112381Y-50358571D01*
X111160000Y-50263333D01*
X111207619Y-50215714D01*
X111302857Y-50168095D01*
X111350476Y-50168095D01*
X111445714Y-50215714D01*
X111493333Y-50263333D01*
X111540952Y-50358571D01*
X111540952Y-50549048D01*
X111588571Y-50644286D01*
X111636190Y-50691905D01*
X111731429Y-50739524D01*
X111921905Y-50739524D01*
X112017143Y-50691905D01*
X112064762Y-50644286D01*
X112112381Y-50549048D01*
X112112381Y-50358571D01*
X112064762Y-50263333D01*
X112017143Y-50215714D01*
X111921905Y-50168095D01*
X111731429Y-50168095D01*
X111636190Y-50215714D01*
X111588571Y-50263333D01*
X111540952Y-50358571D01*
X52755714Y-75732381D02*
X52755714Y-74732381D01*
X53136667Y-74732381D01*
X53231905Y-74780000D01*
X53279524Y-74827619D01*
X53327143Y-74922857D01*
X53327143Y-75065714D01*
X53279524Y-75160952D01*
X53231905Y-75208571D01*
X53136667Y-75256190D01*
X52755714Y-75256190D01*
X54279524Y-75732381D02*
X53708095Y-75732381D01*
X53993809Y-75732381D02*
X53993809Y-74732381D01*
X53898571Y-74875238D01*
X53803333Y-74970476D01*
X53708095Y-75018095D01*
X54755714Y-75732381D02*
X54946190Y-75732381D01*
X55041429Y-75684762D01*
X55089048Y-75637143D01*
X55184286Y-75494286D01*
X55231905Y-75303810D01*
X55231905Y-74922857D01*
X55184286Y-74827619D01*
X55136667Y-74780000D01*
X55041429Y-74732381D01*
X54850952Y-74732381D01*
X54755714Y-74780000D01*
X54708095Y-74827619D01*
X54660476Y-74922857D01*
X54660476Y-75160952D01*
X54708095Y-75256190D01*
X54755714Y-75303810D01*
X54850952Y-75351429D01*
X55041429Y-75351429D01*
X55136667Y-75303810D01*
X55184286Y-75256190D01*
X55231905Y-75160952D01*
X111822381Y-58694286D02*
X110822381Y-58694286D01*
X110822381Y-58313333D01*
X110870000Y-58218095D01*
X110917619Y-58170476D01*
X111012857Y-58122857D01*
X111155714Y-58122857D01*
X111250952Y-58170476D01*
X111298571Y-58218095D01*
X111346190Y-58313333D01*
X111346190Y-58694286D01*
X110917619Y-57741905D02*
X110870000Y-57694286D01*
X110822381Y-57599048D01*
X110822381Y-57360952D01*
X110870000Y-57265714D01*
X110917619Y-57218095D01*
X111012857Y-57170476D01*
X111108095Y-57170476D01*
X111250952Y-57218095D01*
X111822381Y-57789524D01*
X111822381Y-57170476D01*
X111822381Y-56218095D02*
X111822381Y-56789524D01*
X111822381Y-56503810D02*
X110822381Y-56503810D01*
X110965238Y-56599048D01*
X111060476Y-56694286D01*
X111108095Y-56789524D01*
X114185714Y-65812381D02*
X114185714Y-64812381D01*
X114566667Y-64812381D01*
X114661905Y-64860000D01*
X114709524Y-64907619D01*
X114757143Y-65002857D01*
X114757143Y-65145714D01*
X114709524Y-65240952D01*
X114661905Y-65288571D01*
X114566667Y-65336190D01*
X114185714Y-65336190D01*
X115138095Y-64907619D02*
X115185714Y-64860000D01*
X115280952Y-64812381D01*
X115519048Y-64812381D01*
X115614286Y-64860000D01*
X115661905Y-64907619D01*
X115709524Y-65002857D01*
X115709524Y-65098095D01*
X115661905Y-65240952D01*
X115090476Y-65812381D01*
X115709524Y-65812381D01*
X116566667Y-65145714D02*
X116566667Y-65812381D01*
X116328571Y-64764762D02*
X116090476Y-65479048D01*
X116709524Y-65479048D01*
X113632381Y-86144286D02*
X112632381Y-86144286D01*
X112632381Y-85763333D01*
X112680000Y-85668095D01*
X112727619Y-85620476D01*
X112822857Y-85572857D01*
X112965714Y-85572857D01*
X113060952Y-85620476D01*
X113108571Y-85668095D01*
X113156190Y-85763333D01*
X113156190Y-86144286D01*
X112727619Y-85191905D02*
X112680000Y-85144286D01*
X112632381Y-85049048D01*
X112632381Y-84810952D01*
X112680000Y-84715714D01*
X112727619Y-84668095D01*
X112822857Y-84620476D01*
X112918095Y-84620476D01*
X113060952Y-84668095D01*
X113632381Y-85239524D01*
X113632381Y-84620476D01*
X112632381Y-83763333D02*
X112632381Y-83953810D01*
X112680000Y-84049048D01*
X112727619Y-84096667D01*
X112870476Y-84191905D01*
X113060952Y-84239524D01*
X113441905Y-84239524D01*
X113537143Y-84191905D01*
X113584762Y-84144286D01*
X113632381Y-84049048D01*
X113632381Y-83858571D01*
X113584762Y-83763333D01*
X113537143Y-83715714D01*
X113441905Y-83668095D01*
X113203810Y-83668095D01*
X113108571Y-83715714D01*
X113060952Y-83763333D01*
X113013333Y-83858571D01*
X113013333Y-84049048D01*
X113060952Y-84144286D01*
X113108571Y-84191905D01*
X113203810Y-84239524D01*
X113447381Y-104269286D02*
X112447381Y-104269286D01*
X112447381Y-103888333D01*
X112495000Y-103793095D01*
X112542619Y-103745476D01*
X112637857Y-103697857D01*
X112780714Y-103697857D01*
X112875952Y-103745476D01*
X112923571Y-103793095D01*
X112971190Y-103888333D01*
X112971190Y-104269286D01*
X112542619Y-103316905D02*
X112495000Y-103269286D01*
X112447381Y-103174048D01*
X112447381Y-102935952D01*
X112495000Y-102840714D01*
X112542619Y-102793095D01*
X112637857Y-102745476D01*
X112733095Y-102745476D01*
X112875952Y-102793095D01*
X113447381Y-103364524D01*
X113447381Y-102745476D01*
X112875952Y-102174048D02*
X112828333Y-102269286D01*
X112780714Y-102316905D01*
X112685476Y-102364524D01*
X112637857Y-102364524D01*
X112542619Y-102316905D01*
X112495000Y-102269286D01*
X112447381Y-102174048D01*
X112447381Y-101983571D01*
X112495000Y-101888333D01*
X112542619Y-101840714D01*
X112637857Y-101793095D01*
X112685476Y-101793095D01*
X112780714Y-101840714D01*
X112828333Y-101888333D01*
X112875952Y-101983571D01*
X112875952Y-102174048D01*
X112923571Y-102269286D01*
X112971190Y-102316905D01*
X113066429Y-102364524D01*
X113256905Y-102364524D01*
X113352143Y-102316905D01*
X113399762Y-102269286D01*
X113447381Y-102174048D01*
X113447381Y-101983571D01*
X113399762Y-101888333D01*
X113352143Y-101840714D01*
X113256905Y-101793095D01*
X113066429Y-101793095D01*
X112971190Y-101840714D01*
X112923571Y-101888333D01*
X112875952Y-101983571D01*
X113432381Y-77224286D02*
X112432381Y-77224286D01*
X112432381Y-76843333D01*
X112480000Y-76748095D01*
X112527619Y-76700476D01*
X112622857Y-76652857D01*
X112765714Y-76652857D01*
X112860952Y-76700476D01*
X112908571Y-76748095D01*
X112956190Y-76843333D01*
X112956190Y-77224286D01*
X112432381Y-76319524D02*
X112432381Y-75700476D01*
X112813333Y-76033810D01*
X112813333Y-75890952D01*
X112860952Y-75795714D01*
X112908571Y-75748095D01*
X113003810Y-75700476D01*
X113241905Y-75700476D01*
X113337143Y-75748095D01*
X113384762Y-75795714D01*
X113432381Y-75890952D01*
X113432381Y-76176667D01*
X113384762Y-76271905D01*
X113337143Y-76319524D01*
X112432381Y-75081429D02*
X112432381Y-74986190D01*
X112480000Y-74890952D01*
X112527619Y-74843333D01*
X112622857Y-74795714D01*
X112813333Y-74748095D01*
X113051429Y-74748095D01*
X113241905Y-74795714D01*
X113337143Y-74843333D01*
X113384762Y-74890952D01*
X113432381Y-74986190D01*
X113432381Y-75081429D01*
X113384762Y-75176667D01*
X113337143Y-75224286D01*
X113241905Y-75271905D01*
X113051429Y-75319524D01*
X112813333Y-75319524D01*
X112622857Y-75271905D01*
X112527619Y-75224286D01*
X112480000Y-75176667D01*
X112432381Y-75081429D01*
X113447381Y-95519286D02*
X112447381Y-95519286D01*
X112447381Y-95138333D01*
X112495000Y-95043095D01*
X112542619Y-94995476D01*
X112637857Y-94947857D01*
X112780714Y-94947857D01*
X112875952Y-94995476D01*
X112923571Y-95043095D01*
X112971190Y-95138333D01*
X112971190Y-95519286D01*
X112447381Y-94614524D02*
X112447381Y-93995476D01*
X112828333Y-94328810D01*
X112828333Y-94185952D01*
X112875952Y-94090714D01*
X112923571Y-94043095D01*
X113018810Y-93995476D01*
X113256905Y-93995476D01*
X113352143Y-94043095D01*
X113399762Y-94090714D01*
X113447381Y-94185952D01*
X113447381Y-94471667D01*
X113399762Y-94566905D01*
X113352143Y-94614524D01*
X112542619Y-93614524D02*
X112495000Y-93566905D01*
X112447381Y-93471667D01*
X112447381Y-93233571D01*
X112495000Y-93138333D01*
X112542619Y-93090714D01*
X112637857Y-93043095D01*
X112733095Y-93043095D01*
X112875952Y-93090714D01*
X113447381Y-93662143D01*
X113447381Y-93043095D01*
X113492381Y-115004286D02*
X112492381Y-115004286D01*
X112492381Y-114623333D01*
X112540000Y-114528095D01*
X112587619Y-114480476D01*
X112682857Y-114432857D01*
X112825714Y-114432857D01*
X112920952Y-114480476D01*
X112968571Y-114528095D01*
X113016190Y-114623333D01*
X113016190Y-115004286D01*
X112492381Y-114099524D02*
X112492381Y-113480476D01*
X112873333Y-113813810D01*
X112873333Y-113670952D01*
X112920952Y-113575714D01*
X112968571Y-113528095D01*
X113063810Y-113480476D01*
X113301905Y-113480476D01*
X113397143Y-113528095D01*
X113444762Y-113575714D01*
X113492381Y-113670952D01*
X113492381Y-113956667D01*
X113444762Y-114051905D01*
X113397143Y-114099524D01*
X112825714Y-112623333D02*
X113492381Y-112623333D01*
X112444762Y-112861429D02*
X113159048Y-113099524D01*
X113159048Y-112480476D01*
D18*
X91984429Y-118680572D02*
X90460429Y-118680572D01*
X90460429Y-118100000D01*
X90533000Y-117954858D01*
X90605571Y-117882286D01*
X90750714Y-117809715D01*
X90968429Y-117809715D01*
X91113571Y-117882286D01*
X91186143Y-117954858D01*
X91258714Y-118100000D01*
X91258714Y-118680572D01*
X90460429Y-117301715D02*
X90460429Y-116358286D01*
X91041000Y-116866286D01*
X91041000Y-116648572D01*
X91113571Y-116503429D01*
X91186143Y-116430858D01*
X91331286Y-116358286D01*
X91694143Y-116358286D01*
X91839286Y-116430858D01*
X91911857Y-116503429D01*
X91984429Y-116648572D01*
X91984429Y-117084000D01*
X91911857Y-117229143D01*
X91839286Y-117301715D01*
X90460429Y-115052000D02*
X90460429Y-115342286D01*
X90533000Y-115487429D01*
X90605571Y-115560000D01*
X90823286Y-115705143D01*
X91113571Y-115777714D01*
X91694143Y-115777714D01*
X91839286Y-115705143D01*
X91911857Y-115632571D01*
X91984429Y-115487429D01*
X91984429Y-115197143D01*
X91911857Y-115052000D01*
X91839286Y-114979429D01*
X91694143Y-114906857D01*
X91331286Y-114906857D01*
X91186143Y-114979429D01*
X91113571Y-115052000D01*
X91041000Y-115197143D01*
X91041000Y-115487429D01*
X91113571Y-115632571D01*
X91186143Y-115705143D01*
X91331286Y-115777714D01*
X70709429Y-118605572D02*
X69185429Y-118605572D01*
X69185429Y-118025000D01*
X69258000Y-117879858D01*
X69330571Y-117807286D01*
X69475714Y-117734715D01*
X69693429Y-117734715D01*
X69838571Y-117807286D01*
X69911143Y-117879858D01*
X69983714Y-118025000D01*
X69983714Y-118605572D01*
X69185429Y-117226715D02*
X69185429Y-116283286D01*
X69766000Y-116791286D01*
X69766000Y-116573572D01*
X69838571Y-116428429D01*
X69911143Y-116355858D01*
X70056286Y-116283286D01*
X70419143Y-116283286D01*
X70564286Y-116355858D01*
X70636857Y-116428429D01*
X70709429Y-116573572D01*
X70709429Y-117009000D01*
X70636857Y-117154143D01*
X70564286Y-117226715D01*
X69185429Y-115775286D02*
X69185429Y-114759286D01*
X70709429Y-115412429D01*
X49909429Y-118930572D02*
X48385429Y-118930572D01*
X48385429Y-118350000D01*
X48458000Y-118204858D01*
X48530571Y-118132286D01*
X48675714Y-118059715D01*
X48893429Y-118059715D01*
X49038571Y-118132286D01*
X49111143Y-118204858D01*
X49183714Y-118350000D01*
X49183714Y-118930572D01*
X48385429Y-117551715D02*
X48385429Y-116608286D01*
X48966000Y-117116286D01*
X48966000Y-116898572D01*
X49038571Y-116753429D01*
X49111143Y-116680858D01*
X49256286Y-116608286D01*
X49619143Y-116608286D01*
X49764286Y-116680858D01*
X49836857Y-116753429D01*
X49909429Y-116898572D01*
X49909429Y-117334000D01*
X49836857Y-117479143D01*
X49764286Y-117551715D01*
X49038571Y-115737429D02*
X48966000Y-115882571D01*
X48893429Y-115955143D01*
X48748286Y-116027714D01*
X48675714Y-116027714D01*
X48530571Y-115955143D01*
X48458000Y-115882571D01*
X48385429Y-115737429D01*
X48385429Y-115447143D01*
X48458000Y-115302000D01*
X48530571Y-115229429D01*
X48675714Y-115156857D01*
X48748286Y-115156857D01*
X48893429Y-115229429D01*
X48966000Y-115302000D01*
X49038571Y-115447143D01*
X49038571Y-115737429D01*
X49111143Y-115882571D01*
X49183714Y-115955143D01*
X49328857Y-116027714D01*
X49619143Y-116027714D01*
X49764286Y-115955143D01*
X49836857Y-115882571D01*
X49909429Y-115737429D01*
X49909429Y-115447143D01*
X49836857Y-115302000D01*
X49764286Y-115229429D01*
X49619143Y-115156857D01*
X49328857Y-115156857D01*
X49183714Y-115229429D01*
X49111143Y-115302000D01*
X49038571Y-115447143D01*
D15*
X28872381Y-112444286D02*
X27872381Y-112444286D01*
X27872381Y-112063333D01*
X27920000Y-111968095D01*
X27967619Y-111920476D01*
X28062857Y-111872857D01*
X28205714Y-111872857D01*
X28300952Y-111920476D01*
X28348571Y-111968095D01*
X28396190Y-112063333D01*
X28396190Y-112444286D01*
X27872381Y-111539524D02*
X27872381Y-110920476D01*
X28253333Y-111253810D01*
X28253333Y-111110952D01*
X28300952Y-111015714D01*
X28348571Y-110968095D01*
X28443810Y-110920476D01*
X28681905Y-110920476D01*
X28777143Y-110968095D01*
X28824762Y-111015714D01*
X28872381Y-111110952D01*
X28872381Y-111396667D01*
X28824762Y-111491905D01*
X28777143Y-111539524D01*
X28872381Y-110444286D02*
X28872381Y-110253810D01*
X28824762Y-110158571D01*
X28777143Y-110110952D01*
X28634286Y-110015714D01*
X28443810Y-109968095D01*
X28062857Y-109968095D01*
X27967619Y-110015714D01*
X27920000Y-110063333D01*
X27872381Y-110158571D01*
X27872381Y-110349048D01*
X27920000Y-110444286D01*
X27967619Y-110491905D01*
X28062857Y-110539524D01*
X28300952Y-110539524D01*
X28396190Y-110491905D01*
X28443810Y-110444286D01*
X28491429Y-110349048D01*
X28491429Y-110158571D01*
X28443810Y-110063333D01*
X28396190Y-110015714D01*
X28300952Y-109968095D01*
X91230714Y-106782381D02*
X91230714Y-105782381D01*
X91611667Y-105782381D01*
X91706905Y-105830000D01*
X91754524Y-105877619D01*
X91802143Y-105972857D01*
X91802143Y-106115714D01*
X91754524Y-106210952D01*
X91706905Y-106258571D01*
X91611667Y-106306190D01*
X91230714Y-106306190D01*
X92659286Y-106115714D02*
X92659286Y-106782381D01*
X92421190Y-105734762D02*
X92183095Y-106449048D01*
X92802143Y-106449048D01*
X93087857Y-105782381D02*
X93706905Y-105782381D01*
X93373571Y-106163333D01*
X93516429Y-106163333D01*
X93611667Y-106210952D01*
X93659286Y-106258571D01*
X93706905Y-106353810D01*
X93706905Y-106591905D01*
X93659286Y-106687143D01*
X93611667Y-106734762D01*
X93516429Y-106782381D01*
X93230714Y-106782381D01*
X93135476Y-106734762D01*
X93087857Y-106687143D01*
X71080714Y-106932381D02*
X71080714Y-105932381D01*
X71461667Y-105932381D01*
X71556905Y-105980000D01*
X71604524Y-106027619D01*
X71652143Y-106122857D01*
X71652143Y-106265714D01*
X71604524Y-106360952D01*
X71556905Y-106408571D01*
X71461667Y-106456190D01*
X71080714Y-106456190D01*
X72509286Y-106265714D02*
X72509286Y-106932381D01*
X72271190Y-105884762D02*
X72033095Y-106599048D01*
X72652143Y-106599048D01*
X73461667Y-106265714D02*
X73461667Y-106932381D01*
X73223571Y-105884762D02*
X72985476Y-106599048D01*
X73604524Y-106599048D01*
X27355714Y-104482381D02*
X27355714Y-103482381D01*
X27736667Y-103482381D01*
X27831905Y-103530000D01*
X27879524Y-103577619D01*
X27927143Y-103672857D01*
X27927143Y-103815714D01*
X27879524Y-103910952D01*
X27831905Y-103958571D01*
X27736667Y-104006190D01*
X27355714Y-104006190D01*
X28784286Y-103815714D02*
X28784286Y-104482381D01*
X28546190Y-103434762D02*
X28308095Y-104149048D01*
X28927143Y-104149048D01*
X29784286Y-103482381D02*
X29308095Y-103482381D01*
X29260476Y-103958571D01*
X29308095Y-103910952D01*
X29403333Y-103863333D01*
X29641429Y-103863333D01*
X29736667Y-103910952D01*
X29784286Y-103958571D01*
X29831905Y-104053810D01*
X29831905Y-104291905D01*
X29784286Y-104387143D01*
X29736667Y-104434762D01*
X29641429Y-104482381D01*
X29403333Y-104482381D01*
X29308095Y-104434762D01*
X29260476Y-104387143D01*
X48555714Y-106782381D02*
X48555714Y-105782381D01*
X48936667Y-105782381D01*
X49031905Y-105830000D01*
X49079524Y-105877619D01*
X49127143Y-105972857D01*
X49127143Y-106115714D01*
X49079524Y-106210952D01*
X49031905Y-106258571D01*
X48936667Y-106306190D01*
X48555714Y-106306190D01*
X49984286Y-106115714D02*
X49984286Y-106782381D01*
X49746190Y-105734762D02*
X49508095Y-106449048D01*
X50127143Y-106449048D01*
X50936667Y-105782381D02*
X50746190Y-105782381D01*
X50650952Y-105830000D01*
X50603333Y-105877619D01*
X50508095Y-106020476D01*
X50460476Y-106210952D01*
X50460476Y-106591905D01*
X50508095Y-106687143D01*
X50555714Y-106734762D01*
X50650952Y-106782381D01*
X50841429Y-106782381D01*
X50936667Y-106734762D01*
X50984286Y-106687143D01*
X51031905Y-106591905D01*
X51031905Y-106353810D01*
X50984286Y-106258571D01*
X50936667Y-106210952D01*
X50841429Y-106163333D01*
X50650952Y-106163333D01*
X50555714Y-106210952D01*
X50508095Y-106258571D01*
X50460476Y-106353810D01*
X31803334Y-77332381D02*
X31470000Y-76856190D01*
X31231905Y-77332381D02*
X31231905Y-76332381D01*
X31612858Y-76332381D01*
X31708096Y-76380000D01*
X31755715Y-76427619D01*
X31803334Y-76522857D01*
X31803334Y-76665714D01*
X31755715Y-76760952D01*
X31708096Y-76808571D01*
X31612858Y-76856190D01*
X31231905Y-76856190D01*
X32755715Y-77332381D02*
X32184286Y-77332381D01*
X32470000Y-77332381D02*
X32470000Y-76332381D01*
X32374762Y-76475238D01*
X32279524Y-76570476D01*
X32184286Y-76618095D01*
X42153334Y-86982381D02*
X41820000Y-86506190D01*
X41581905Y-86982381D02*
X41581905Y-85982381D01*
X41962858Y-85982381D01*
X42058096Y-86030000D01*
X42105715Y-86077619D01*
X42153334Y-86172857D01*
X42153334Y-86315714D01*
X42105715Y-86410952D01*
X42058096Y-86458571D01*
X41962858Y-86506190D01*
X41581905Y-86506190D01*
X42534286Y-86077619D02*
X42581905Y-86030000D01*
X42677143Y-85982381D01*
X42915239Y-85982381D01*
X43010477Y-86030000D01*
X43058096Y-86077619D01*
X43105715Y-86172857D01*
X43105715Y-86268095D01*
X43058096Y-86410952D01*
X42486667Y-86982381D01*
X43105715Y-86982381D01*
X42153334Y-80732381D02*
X41820000Y-80256190D01*
X41581905Y-80732381D02*
X41581905Y-79732381D01*
X41962858Y-79732381D01*
X42058096Y-79780000D01*
X42105715Y-79827619D01*
X42153334Y-79922857D01*
X42153334Y-80065714D01*
X42105715Y-80160952D01*
X42058096Y-80208571D01*
X41962858Y-80256190D01*
X41581905Y-80256190D01*
X42486667Y-79732381D02*
X43105715Y-79732381D01*
X42772381Y-80113333D01*
X42915239Y-80113333D01*
X43010477Y-80160952D01*
X43058096Y-80208571D01*
X43105715Y-80303810D01*
X43105715Y-80541905D01*
X43058096Y-80637143D01*
X43010477Y-80684762D01*
X42915239Y-80732381D01*
X42629524Y-80732381D01*
X42534286Y-80684762D01*
X42486667Y-80637143D01*
X57003334Y-39632381D02*
X56670000Y-39156190D01*
X56431905Y-39632381D02*
X56431905Y-38632381D01*
X56812858Y-38632381D01*
X56908096Y-38680000D01*
X56955715Y-38727619D01*
X57003334Y-38822857D01*
X57003334Y-38965714D01*
X56955715Y-39060952D01*
X56908096Y-39108571D01*
X56812858Y-39156190D01*
X56431905Y-39156190D01*
X57860477Y-38632381D02*
X57670000Y-38632381D01*
X57574762Y-38680000D01*
X57527143Y-38727619D01*
X57431905Y-38870476D01*
X57384286Y-39060952D01*
X57384286Y-39441905D01*
X57431905Y-39537143D01*
X57479524Y-39584762D01*
X57574762Y-39632381D01*
X57765239Y-39632381D01*
X57860477Y-39584762D01*
X57908096Y-39537143D01*
X57955715Y-39441905D01*
X57955715Y-39203810D01*
X57908096Y-39108571D01*
X57860477Y-39060952D01*
X57765239Y-39013333D01*
X57574762Y-39013333D01*
X57479524Y-39060952D01*
X57431905Y-39108571D01*
X57384286Y-39203810D01*
X57003334Y-51932381D02*
X56670000Y-51456190D01*
X56431905Y-51932381D02*
X56431905Y-50932381D01*
X56812858Y-50932381D01*
X56908096Y-50980000D01*
X56955715Y-51027619D01*
X57003334Y-51122857D01*
X57003334Y-51265714D01*
X56955715Y-51360952D01*
X56908096Y-51408571D01*
X56812858Y-51456190D01*
X56431905Y-51456190D01*
X57336667Y-50932381D02*
X58003334Y-50932381D01*
X57574762Y-51932381D01*
X99847381Y-99271666D02*
X99371190Y-99605000D01*
X99847381Y-99843095D02*
X98847381Y-99843095D01*
X98847381Y-99462142D01*
X98895000Y-99366904D01*
X98942619Y-99319285D01*
X99037857Y-99271666D01*
X99180714Y-99271666D01*
X99275952Y-99319285D01*
X99323571Y-99366904D01*
X99371190Y-99462142D01*
X99371190Y-99843095D01*
X99275952Y-98700238D02*
X99228333Y-98795476D01*
X99180714Y-98843095D01*
X99085476Y-98890714D01*
X99037857Y-98890714D01*
X98942619Y-98843095D01*
X98895000Y-98795476D01*
X98847381Y-98700238D01*
X98847381Y-98509761D01*
X98895000Y-98414523D01*
X98942619Y-98366904D01*
X99037857Y-98319285D01*
X99085476Y-98319285D01*
X99180714Y-98366904D01*
X99228333Y-98414523D01*
X99275952Y-98509761D01*
X99275952Y-98700238D01*
X99323571Y-98795476D01*
X99371190Y-98843095D01*
X99466429Y-98890714D01*
X99656905Y-98890714D01*
X99752143Y-98843095D01*
X99799762Y-98795476D01*
X99847381Y-98700238D01*
X99847381Y-98509761D01*
X99799762Y-98414523D01*
X99752143Y-98366904D01*
X99656905Y-98319285D01*
X99466429Y-98319285D01*
X99371190Y-98366904D01*
X99323571Y-98414523D01*
X99275952Y-98509761D01*
X78922381Y-99421666D02*
X78446190Y-99755000D01*
X78922381Y-99993095D02*
X77922381Y-99993095D01*
X77922381Y-99612142D01*
X77970000Y-99516904D01*
X78017619Y-99469285D01*
X78112857Y-99421666D01*
X78255714Y-99421666D01*
X78350952Y-99469285D01*
X78398571Y-99516904D01*
X78446190Y-99612142D01*
X78446190Y-99993095D01*
X78922381Y-98945476D02*
X78922381Y-98755000D01*
X78874762Y-98659761D01*
X78827143Y-98612142D01*
X78684286Y-98516904D01*
X78493810Y-98469285D01*
X78112857Y-98469285D01*
X78017619Y-98516904D01*
X77970000Y-98564523D01*
X77922381Y-98659761D01*
X77922381Y-98850238D01*
X77970000Y-98945476D01*
X78017619Y-98993095D01*
X78112857Y-99040714D01*
X78350952Y-99040714D01*
X78446190Y-98993095D01*
X78493810Y-98945476D01*
X78541429Y-98850238D01*
X78541429Y-98659761D01*
X78493810Y-98564523D01*
X78446190Y-98516904D01*
X78350952Y-98469285D01*
X36322381Y-97297857D02*
X35846190Y-97631191D01*
X36322381Y-97869286D02*
X35322381Y-97869286D01*
X35322381Y-97488333D01*
X35370000Y-97393095D01*
X35417619Y-97345476D01*
X35512857Y-97297857D01*
X35655714Y-97297857D01*
X35750952Y-97345476D01*
X35798571Y-97393095D01*
X35846190Y-97488333D01*
X35846190Y-97869286D01*
X36322381Y-96345476D02*
X36322381Y-96916905D01*
X36322381Y-96631191D02*
X35322381Y-96631191D01*
X35465238Y-96726429D01*
X35560476Y-96821667D01*
X35608095Y-96916905D01*
X36322381Y-95393095D02*
X36322381Y-95964524D01*
X36322381Y-95678810D02*
X35322381Y-95678810D01*
X35465238Y-95774048D01*
X35560476Y-95869286D01*
X35608095Y-95964524D01*
X57672381Y-99922857D02*
X57196190Y-100256191D01*
X57672381Y-100494286D02*
X56672381Y-100494286D01*
X56672381Y-100113333D01*
X56720000Y-100018095D01*
X56767619Y-99970476D01*
X56862857Y-99922857D01*
X57005714Y-99922857D01*
X57100952Y-99970476D01*
X57148571Y-100018095D01*
X57196190Y-100113333D01*
X57196190Y-100494286D01*
X57672381Y-98970476D02*
X57672381Y-99541905D01*
X57672381Y-99256191D02*
X56672381Y-99256191D01*
X56815238Y-99351429D01*
X56910476Y-99446667D01*
X56958095Y-99541905D01*
X56672381Y-98351429D02*
X56672381Y-98256190D01*
X56720000Y-98160952D01*
X56767619Y-98113333D01*
X56862857Y-98065714D01*
X57053333Y-98018095D01*
X57291429Y-98018095D01*
X57481905Y-98065714D01*
X57577143Y-98113333D01*
X57624762Y-98160952D01*
X57672381Y-98256190D01*
X57672381Y-98351429D01*
X57624762Y-98446667D01*
X57577143Y-98494286D01*
X57481905Y-98541905D01*
X57291429Y-98589524D01*
X57053333Y-98589524D01*
X56862857Y-98541905D01*
X56767619Y-98494286D01*
X56720000Y-98446667D01*
X56672381Y-98351429D01*
X100896667Y-75694762D02*
X101039524Y-75742381D01*
X101277620Y-75742381D01*
X101372858Y-75694762D01*
X101420477Y-75647143D01*
X101468096Y-75551905D01*
X101468096Y-75456667D01*
X101420477Y-75361429D01*
X101372858Y-75313810D01*
X101277620Y-75266190D01*
X101087143Y-75218571D01*
X100991905Y-75170952D01*
X100944286Y-75123333D01*
X100896667Y-75028095D01*
X100896667Y-74932857D01*
X100944286Y-74837619D01*
X100991905Y-74790000D01*
X101087143Y-74742381D01*
X101325239Y-74742381D01*
X101468096Y-74790000D01*
X101801429Y-74742381D02*
X102039524Y-75742381D01*
X102230001Y-75028095D01*
X102420477Y-75742381D01*
X102658572Y-74742381D01*
X103563334Y-75742381D02*
X102991905Y-75742381D01*
X103277619Y-75742381D02*
X103277619Y-74742381D01*
X103182381Y-74885238D01*
X103087143Y-74980476D01*
X102991905Y-75028095D01*
D20*
X35065238Y-85260952D02*
X35065238Y-85584762D01*
X35084286Y-85622857D01*
X35103333Y-85641905D01*
X35141429Y-85660952D01*
X35217619Y-85660952D01*
X35255714Y-85641905D01*
X35274762Y-85622857D01*
X35293810Y-85584762D01*
X35293810Y-85260952D01*
X35465238Y-85299048D02*
X35484286Y-85280000D01*
X35522381Y-85260952D01*
X35617619Y-85260952D01*
X35655715Y-85280000D01*
X35674762Y-85299048D01*
X35693810Y-85337143D01*
X35693810Y-85375238D01*
X35674762Y-85432381D01*
X35446191Y-85660952D01*
X35693810Y-85660952D01*
D15*
X63308095Y-50332381D02*
X63308095Y-51141905D01*
X63355714Y-51237143D01*
X63403333Y-51284762D01*
X63498571Y-51332381D01*
X63689048Y-51332381D01*
X63784286Y-51284762D01*
X63831905Y-51237143D01*
X63879524Y-51141905D01*
X63879524Y-50332381D01*
X64784286Y-50665714D02*
X64784286Y-51332381D01*
X64546190Y-50284762D02*
X64308095Y-50999048D01*
X64927143Y-50999048D01*
D18*
X105974524Y-100541143D02*
X107002619Y-100541143D01*
X107123571Y-100468571D01*
X107184048Y-100396000D01*
X107244524Y-100250857D01*
X107244524Y-99960571D01*
X107184048Y-99815429D01*
X107123571Y-99742857D01*
X107002619Y-99670286D01*
X105974524Y-99670286D01*
X105974524Y-98218858D02*
X105974524Y-98944572D01*
X106579286Y-99017143D01*
X106518810Y-98944572D01*
X106458333Y-98799429D01*
X106458333Y-98436572D01*
X106518810Y-98291429D01*
X106579286Y-98218858D01*
X106700238Y-98146286D01*
X107002619Y-98146286D01*
X107123571Y-98218858D01*
X107184048Y-98291429D01*
X107244524Y-98436572D01*
X107244524Y-98799429D01*
X107184048Y-98944572D01*
X107123571Y-99017143D01*
X67424524Y-104466143D02*
X68452619Y-104466143D01*
X68573571Y-104393571D01*
X68634048Y-104321000D01*
X68694524Y-104175857D01*
X68694524Y-103885571D01*
X68634048Y-103740429D01*
X68573571Y-103667857D01*
X68452619Y-103595286D01*
X67424524Y-103595286D01*
X67424524Y-102216429D02*
X67424524Y-102506715D01*
X67485000Y-102651858D01*
X67545476Y-102724429D01*
X67726905Y-102869572D01*
X67968810Y-102942143D01*
X68452619Y-102942143D01*
X68573571Y-102869572D01*
X68634048Y-102797000D01*
X68694524Y-102651858D01*
X68694524Y-102361572D01*
X68634048Y-102216429D01*
X68573571Y-102143858D01*
X68452619Y-102071286D01*
X68150238Y-102071286D01*
X68029286Y-102143858D01*
X67968810Y-102216429D01*
X67908333Y-102361572D01*
X67908333Y-102651858D01*
X67968810Y-102797000D01*
X68029286Y-102869572D01*
X68150238Y-102942143D01*
X42874524Y-97991143D02*
X43902619Y-97991143D01*
X44023571Y-97918571D01*
X44084048Y-97846000D01*
X44144524Y-97700857D01*
X44144524Y-97410571D01*
X44084048Y-97265429D01*
X44023571Y-97192857D01*
X43902619Y-97120286D01*
X42874524Y-97120286D01*
X42874524Y-96539715D02*
X42874524Y-95523715D01*
X44144524Y-96176858D01*
X64124524Y-100391143D02*
X65152619Y-100391143D01*
X65273571Y-100318571D01*
X65334048Y-100246000D01*
X65394524Y-100100857D01*
X65394524Y-99810571D01*
X65334048Y-99665429D01*
X65273571Y-99592857D01*
X65152619Y-99520286D01*
X64124524Y-99520286D01*
X64668810Y-98576858D02*
X64608333Y-98722000D01*
X64547857Y-98794572D01*
X64426905Y-98867143D01*
X64366429Y-98867143D01*
X64245476Y-98794572D01*
X64185000Y-98722000D01*
X64124524Y-98576858D01*
X64124524Y-98286572D01*
X64185000Y-98141429D01*
X64245476Y-98068858D01*
X64366429Y-97996286D01*
X64426905Y-97996286D01*
X64547857Y-98068858D01*
X64608333Y-98141429D01*
X64668810Y-98286572D01*
X64668810Y-98576858D01*
X64729286Y-98722000D01*
X64789762Y-98794572D01*
X64910714Y-98867143D01*
X65152619Y-98867143D01*
X65273571Y-98794572D01*
X65334048Y-98722000D01*
X65394524Y-98576858D01*
X65394524Y-98286572D01*
X65334048Y-98141429D01*
X65273571Y-98068858D01*
X65152619Y-97996286D01*
X64910714Y-97996286D01*
X64789762Y-98068858D01*
X64729286Y-98141429D01*
X64668810Y-98286572D01*
D15*
X91697381Y-113494286D02*
X90697381Y-113494286D01*
X90697381Y-113113333D01*
X90745000Y-113018095D01*
X90792619Y-112970476D01*
X90887857Y-112922857D01*
X91030714Y-112922857D01*
X91125952Y-112970476D01*
X91173571Y-113018095D01*
X91221190Y-113113333D01*
X91221190Y-113494286D01*
X91030714Y-112065714D02*
X91697381Y-112065714D01*
X90649762Y-112303810D02*
X91364048Y-112541905D01*
X91364048Y-111922857D01*
X90697381Y-111351429D02*
X90697381Y-111256190D01*
X90745000Y-111160952D01*
X90792619Y-111113333D01*
X90887857Y-111065714D01*
X91078333Y-111018095D01*
X91316429Y-111018095D01*
X91506905Y-111065714D01*
X91602143Y-111113333D01*
X91649762Y-111160952D01*
X91697381Y-111256190D01*
X91697381Y-111351429D01*
X91649762Y-111446667D01*
X91602143Y-111494286D01*
X91506905Y-111541905D01*
X91316429Y-111589524D01*
X91078333Y-111589524D01*
X90887857Y-111541905D01*
X90792619Y-111494286D01*
X90745000Y-111446667D01*
X90697381Y-111351429D01*
X71222381Y-113644286D02*
X70222381Y-113644286D01*
X70222381Y-113263333D01*
X70270000Y-113168095D01*
X70317619Y-113120476D01*
X70412857Y-113072857D01*
X70555714Y-113072857D01*
X70650952Y-113120476D01*
X70698571Y-113168095D01*
X70746190Y-113263333D01*
X70746190Y-113644286D01*
X70555714Y-112215714D02*
X71222381Y-112215714D01*
X70174762Y-112453810D02*
X70889048Y-112691905D01*
X70889048Y-112072857D01*
X71222381Y-111168095D02*
X71222381Y-111739524D01*
X71222381Y-111453810D02*
X70222381Y-111453810D01*
X70365238Y-111549048D01*
X70460476Y-111644286D01*
X70508095Y-111739524D01*
X50022381Y-113644286D02*
X49022381Y-113644286D01*
X49022381Y-113263333D01*
X49070000Y-113168095D01*
X49117619Y-113120476D01*
X49212857Y-113072857D01*
X49355714Y-113072857D01*
X49450952Y-113120476D01*
X49498571Y-113168095D01*
X49546190Y-113263333D01*
X49546190Y-113644286D01*
X49355714Y-112215714D02*
X50022381Y-112215714D01*
X48974762Y-112453810D02*
X49689048Y-112691905D01*
X49689048Y-112072857D01*
X49117619Y-111739524D02*
X49070000Y-111691905D01*
X49022381Y-111596667D01*
X49022381Y-111358571D01*
X49070000Y-111263333D01*
X49117619Y-111215714D01*
X49212857Y-111168095D01*
X49308095Y-111168095D01*
X49450952Y-111215714D01*
X50022381Y-111787143D01*
X50022381Y-111168095D01*
X96233334Y-80542381D02*
X95900000Y-80066190D01*
X95661905Y-80542381D02*
X95661905Y-79542381D01*
X96042858Y-79542381D01*
X96138096Y-79590000D01*
X96185715Y-79637619D01*
X96233334Y-79732857D01*
X96233334Y-79875714D01*
X96185715Y-79970952D01*
X96138096Y-80018571D01*
X96042858Y-80066190D01*
X95661905Y-80066190D01*
X97138096Y-79542381D02*
X96661905Y-79542381D01*
X96614286Y-80018571D01*
X96661905Y-79970952D01*
X96757143Y-79923333D01*
X96995239Y-79923333D01*
X97090477Y-79970952D01*
X97138096Y-80018571D01*
X97185715Y-80113810D01*
X97185715Y-80351905D01*
X97138096Y-80447143D01*
X97090477Y-80494762D01*
X96995239Y-80542381D01*
X96757143Y-80542381D01*
X96661905Y-80494762D01*
X96614286Y-80447143D01*
X108183334Y-78887143D02*
X108135715Y-78934762D01*
X107992858Y-78982381D01*
X107897620Y-78982381D01*
X107754762Y-78934762D01*
X107659524Y-78839524D01*
X107611905Y-78744286D01*
X107564286Y-78553810D01*
X107564286Y-78410952D01*
X107611905Y-78220476D01*
X107659524Y-78125238D01*
X107754762Y-78030000D01*
X107897620Y-77982381D01*
X107992858Y-77982381D01*
X108135715Y-78030000D01*
X108183334Y-78077619D01*
X108564286Y-78077619D02*
X108611905Y-78030000D01*
X108707143Y-77982381D01*
X108945239Y-77982381D01*
X109040477Y-78030000D01*
X109088096Y-78077619D01*
X109135715Y-78172857D01*
X109135715Y-78268095D01*
X109088096Y-78410952D01*
X108516667Y-78982381D01*
X109135715Y-78982381D01*
X106155714Y-61132381D02*
X106155714Y-60132381D01*
X106536667Y-60132381D01*
X106631905Y-60180000D01*
X106679524Y-60227619D01*
X106727143Y-60322857D01*
X106727143Y-60465714D01*
X106679524Y-60560952D01*
X106631905Y-60608571D01*
X106536667Y-60656190D01*
X106155714Y-60656190D01*
X107108095Y-60227619D02*
X107155714Y-60180000D01*
X107250952Y-60132381D01*
X107489048Y-60132381D01*
X107584286Y-60180000D01*
X107631905Y-60227619D01*
X107679524Y-60322857D01*
X107679524Y-60418095D01*
X107631905Y-60560952D01*
X107060476Y-61132381D01*
X107679524Y-61132381D01*
X108060476Y-60227619D02*
X108108095Y-60180000D01*
X108203333Y-60132381D01*
X108441429Y-60132381D01*
X108536667Y-60180000D01*
X108584286Y-60227619D01*
X108631905Y-60322857D01*
X108631905Y-60418095D01*
X108584286Y-60560952D01*
X108012857Y-61132381D01*
X108631905Y-61132381D01*
X96022381Y-92722857D02*
X95546190Y-93056191D01*
X96022381Y-93294286D02*
X95022381Y-93294286D01*
X95022381Y-92913333D01*
X95070000Y-92818095D01*
X95117619Y-92770476D01*
X95212857Y-92722857D01*
X95355714Y-92722857D01*
X95450952Y-92770476D01*
X95498571Y-92818095D01*
X95546190Y-92913333D01*
X95546190Y-93294286D01*
X96022381Y-91770476D02*
X96022381Y-92341905D01*
X96022381Y-92056191D02*
X95022381Y-92056191D01*
X95165238Y-92151429D01*
X95260476Y-92246667D01*
X95308095Y-92341905D01*
X95117619Y-91389524D02*
X95070000Y-91341905D01*
X95022381Y-91246667D01*
X95022381Y-91008571D01*
X95070000Y-90913333D01*
X95117619Y-90865714D01*
X95212857Y-90818095D01*
X95308095Y-90818095D01*
X95450952Y-90865714D01*
X96022381Y-91437143D01*
X96022381Y-90818095D01*
X93777143Y-84282381D02*
X93443809Y-83806190D01*
X93205714Y-84282381D02*
X93205714Y-83282381D01*
X93586667Y-83282381D01*
X93681905Y-83330000D01*
X93729524Y-83377619D01*
X93777143Y-83472857D01*
X93777143Y-83615714D01*
X93729524Y-83710952D01*
X93681905Y-83758571D01*
X93586667Y-83806190D01*
X93205714Y-83806190D01*
X94729524Y-84282381D02*
X94158095Y-84282381D01*
X94443809Y-84282381D02*
X94443809Y-83282381D01*
X94348571Y-83425238D01*
X94253333Y-83520476D01*
X94158095Y-83568095D01*
X95062857Y-83282381D02*
X95681905Y-83282381D01*
X95348571Y-83663333D01*
X95491429Y-83663333D01*
X95586667Y-83710952D01*
X95634286Y-83758571D01*
X95681905Y-83853810D01*
X95681905Y-84091905D01*
X95634286Y-84187143D01*
X95586667Y-84234762D01*
X95491429Y-84282381D01*
X95205714Y-84282381D01*
X95110476Y-84234762D01*
X95062857Y-84187143D01*
X100578334Y-57087143D02*
X100530715Y-57134762D01*
X100387858Y-57182381D01*
X100292620Y-57182381D01*
X100149762Y-57134762D01*
X100054524Y-57039524D01*
X100006905Y-56944286D01*
X99959286Y-56753810D01*
X99959286Y-56610952D01*
X100006905Y-56420476D01*
X100054524Y-56325238D01*
X100149762Y-56230000D01*
X100292620Y-56182381D01*
X100387858Y-56182381D01*
X100530715Y-56230000D01*
X100578334Y-56277619D01*
X101149762Y-56610952D02*
X101054524Y-56563333D01*
X101006905Y-56515714D01*
X100959286Y-56420476D01*
X100959286Y-56372857D01*
X101006905Y-56277619D01*
X101054524Y-56230000D01*
X101149762Y-56182381D01*
X101340239Y-56182381D01*
X101435477Y-56230000D01*
X101483096Y-56277619D01*
X101530715Y-56372857D01*
X101530715Y-56420476D01*
X101483096Y-56515714D01*
X101435477Y-56563333D01*
X101340239Y-56610952D01*
X101149762Y-56610952D01*
X101054524Y-56658571D01*
X101006905Y-56706190D01*
X100959286Y-56801429D01*
X100959286Y-56991905D01*
X101006905Y-57087143D01*
X101054524Y-57134762D01*
X101149762Y-57182381D01*
X101340239Y-57182381D01*
X101435477Y-57134762D01*
X101483096Y-57087143D01*
X101530715Y-56991905D01*
X101530715Y-56801429D01*
X101483096Y-56706190D01*
X101435477Y-56658571D01*
X101340239Y-56610952D01*
X98827143Y-68737143D02*
X98779524Y-68784762D01*
X98636667Y-68832381D01*
X98541429Y-68832381D01*
X98398571Y-68784762D01*
X98303333Y-68689524D01*
X98255714Y-68594286D01*
X98208095Y-68403810D01*
X98208095Y-68260952D01*
X98255714Y-68070476D01*
X98303333Y-67975238D01*
X98398571Y-67880000D01*
X98541429Y-67832381D01*
X98636667Y-67832381D01*
X98779524Y-67880000D01*
X98827143Y-67927619D01*
X99208095Y-67927619D02*
X99255714Y-67880000D01*
X99350952Y-67832381D01*
X99589048Y-67832381D01*
X99684286Y-67880000D01*
X99731905Y-67927619D01*
X99779524Y-68022857D01*
X99779524Y-68118095D01*
X99731905Y-68260952D01*
X99160476Y-68832381D01*
X99779524Y-68832381D01*
X100636667Y-68165714D02*
X100636667Y-68832381D01*
X100398571Y-67784762D02*
X100160476Y-68499048D01*
X100779524Y-68499048D01*
X98727143Y-65037143D02*
X98679524Y-65084762D01*
X98536667Y-65132381D01*
X98441429Y-65132381D01*
X98298571Y-65084762D01*
X98203333Y-64989524D01*
X98155714Y-64894286D01*
X98108095Y-64703810D01*
X98108095Y-64560952D01*
X98155714Y-64370476D01*
X98203333Y-64275238D01*
X98298571Y-64180000D01*
X98441429Y-64132381D01*
X98536667Y-64132381D01*
X98679524Y-64180000D01*
X98727143Y-64227619D01*
X99108095Y-64227619D02*
X99155714Y-64180000D01*
X99250952Y-64132381D01*
X99489048Y-64132381D01*
X99584286Y-64180000D01*
X99631905Y-64227619D01*
X99679524Y-64322857D01*
X99679524Y-64418095D01*
X99631905Y-64560952D01*
X99060476Y-65132381D01*
X99679524Y-65132381D01*
X100584286Y-64132381D02*
X100108095Y-64132381D01*
X100060476Y-64608571D01*
X100108095Y-64560952D01*
X100203333Y-64513333D01*
X100441429Y-64513333D01*
X100536667Y-64560952D01*
X100584286Y-64608571D01*
X100631905Y-64703810D01*
X100631905Y-64941905D01*
X100584286Y-65037143D01*
X100536667Y-65084762D01*
X100441429Y-65132381D01*
X100203333Y-65132381D01*
X100108095Y-65084762D01*
X100060476Y-65037143D01*
X86483334Y-57382381D02*
X86007143Y-57382381D01*
X86007143Y-56382381D01*
X87340477Y-57382381D02*
X86769048Y-57382381D01*
X87054762Y-57382381D02*
X87054762Y-56382381D01*
X86959524Y-56525238D01*
X86864286Y-56620476D01*
X86769048Y-56668095D01*
X93922381Y-67889524D02*
X94922381Y-67222857D01*
X93922381Y-67222857D02*
X94922381Y-67889524D01*
X94922381Y-66318095D02*
X94922381Y-66889524D01*
X94922381Y-66603810D02*
X93922381Y-66603810D01*
X94065238Y-66699048D01*
X94160476Y-66794286D01*
X94208095Y-66889524D01*
D21*
X41530143Y-65802343D02*
X41493857Y-65838629D01*
X41385000Y-65874914D01*
X41312429Y-65874914D01*
X41203572Y-65838629D01*
X41131000Y-65766057D01*
X41094715Y-65693486D01*
X41058429Y-65548343D01*
X41058429Y-65439486D01*
X41094715Y-65294343D01*
X41131000Y-65221771D01*
X41203572Y-65149200D01*
X41312429Y-65112914D01*
X41385000Y-65112914D01*
X41493857Y-65149200D01*
X41530143Y-65185486D01*
X42255857Y-65874914D02*
X41820429Y-65874914D01*
X42038143Y-65874914D02*
X42038143Y-65112914D01*
X41965572Y-65221771D01*
X41893000Y-65294343D01*
X41820429Y-65330629D01*
X42727571Y-65112914D02*
X42800143Y-65112914D01*
X42872714Y-65149200D01*
X42909000Y-65185486D01*
X42945286Y-65258057D01*
X42981571Y-65403200D01*
X42981571Y-65584629D01*
X42945286Y-65729771D01*
X42909000Y-65802343D01*
X42872714Y-65838629D01*
X42800143Y-65874914D01*
X42727571Y-65874914D01*
X42655000Y-65838629D01*
X42618714Y-65802343D01*
X42582429Y-65729771D01*
X42546143Y-65584629D01*
X42546143Y-65403200D01*
X42582429Y-65258057D01*
X42618714Y-65185486D01*
X42655000Y-65149200D01*
X42727571Y-65112914D01*
D14*
X56366857Y-62793877D02*
X56318476Y-62842258D01*
X56173333Y-62890639D01*
X56076571Y-62890639D01*
X55931429Y-62842258D01*
X55834667Y-62745496D01*
X55786286Y-62648734D01*
X55737905Y-62455210D01*
X55737905Y-62310068D01*
X55786286Y-62116544D01*
X55834667Y-62019782D01*
X55931429Y-61923020D01*
X56076571Y-61874639D01*
X56173333Y-61874639D01*
X56318476Y-61923020D01*
X56366857Y-61971401D01*
X57334476Y-62890639D02*
X56753905Y-62890639D01*
X57044191Y-62890639D02*
X57044191Y-61874639D01*
X56947429Y-62019782D01*
X56850667Y-62116544D01*
X56753905Y-62164925D01*
X58302095Y-62890639D02*
X57721524Y-62890639D01*
X58011810Y-62890639D02*
X58011810Y-61874639D01*
X57915048Y-62019782D01*
X57818286Y-62116544D01*
X57721524Y-62164925D01*
X63416857Y-54243877D02*
X63368476Y-54292258D01*
X63223333Y-54340639D01*
X63126571Y-54340639D01*
X62981429Y-54292258D01*
X62884667Y-54195496D01*
X62836286Y-54098734D01*
X62787905Y-53905210D01*
X62787905Y-53760068D01*
X62836286Y-53566544D01*
X62884667Y-53469782D01*
X62981429Y-53373020D01*
X63126571Y-53324639D01*
X63223333Y-53324639D01*
X63368476Y-53373020D01*
X63416857Y-53421401D01*
X64384476Y-54340639D02*
X63803905Y-54340639D01*
X64094191Y-54340639D02*
X64094191Y-53324639D01*
X63997429Y-53469782D01*
X63900667Y-53566544D01*
X63803905Y-53614925D01*
X64771524Y-53421401D02*
X64819905Y-53373020D01*
X64916667Y-53324639D01*
X65158571Y-53324639D01*
X65255333Y-53373020D01*
X65303714Y-53421401D01*
X65352095Y-53518163D01*
X65352095Y-53614925D01*
X65303714Y-53760068D01*
X64723143Y-54340639D01*
X65352095Y-54340639D01*
X68076857Y-33432857D02*
X68028476Y-33481238D01*
X67883333Y-33529619D01*
X67786571Y-33529619D01*
X67641429Y-33481238D01*
X67544667Y-33384476D01*
X67496286Y-33287714D01*
X67447905Y-33094190D01*
X67447905Y-32949048D01*
X67496286Y-32755524D01*
X67544667Y-32658762D01*
X67641429Y-32562000D01*
X67786571Y-32513619D01*
X67883333Y-32513619D01*
X68028476Y-32562000D01*
X68076857Y-32610381D01*
X69044476Y-33529619D02*
X68463905Y-33529619D01*
X68754191Y-33529619D02*
X68754191Y-32513619D01*
X68657429Y-32658762D01*
X68560667Y-32755524D01*
X68463905Y-32803905D01*
X69383143Y-32513619D02*
X70012095Y-32513619D01*
X69673429Y-32900667D01*
X69818571Y-32900667D01*
X69915333Y-32949048D01*
X69963714Y-32997429D01*
X70012095Y-33094190D01*
X70012095Y-33336095D01*
X69963714Y-33432857D01*
X69915333Y-33481238D01*
X69818571Y-33529619D01*
X69528286Y-33529619D01*
X69431524Y-33481238D01*
X69383143Y-33432857D01*
X39566857Y-99893877D02*
X39518476Y-99942258D01*
X39373333Y-99990639D01*
X39276571Y-99990639D01*
X39131429Y-99942258D01*
X39034667Y-99845496D01*
X38986286Y-99748734D01*
X38937905Y-99555210D01*
X38937905Y-99410068D01*
X38986286Y-99216544D01*
X39034667Y-99119782D01*
X39131429Y-99023020D01*
X39276571Y-98974639D01*
X39373333Y-98974639D01*
X39518476Y-99023020D01*
X39566857Y-99071401D01*
X39953905Y-99071401D02*
X40002286Y-99023020D01*
X40099048Y-98974639D01*
X40340952Y-98974639D01*
X40437714Y-99023020D01*
X40486095Y-99071401D01*
X40534476Y-99168163D01*
X40534476Y-99264925D01*
X40486095Y-99410068D01*
X39905524Y-99990639D01*
X40534476Y-99990639D01*
X40921524Y-99071401D02*
X40969905Y-99023020D01*
X41066667Y-98974639D01*
X41308571Y-98974639D01*
X41405333Y-99023020D01*
X41453714Y-99071401D01*
X41502095Y-99168163D01*
X41502095Y-99264925D01*
X41453714Y-99410068D01*
X40873143Y-99990639D01*
X41502095Y-99990639D01*
X60966857Y-102443877D02*
X60918476Y-102492258D01*
X60773333Y-102540639D01*
X60676571Y-102540639D01*
X60531429Y-102492258D01*
X60434667Y-102395496D01*
X60386286Y-102298734D01*
X60337905Y-102105210D01*
X60337905Y-101960068D01*
X60386286Y-101766544D01*
X60434667Y-101669782D01*
X60531429Y-101573020D01*
X60676571Y-101524639D01*
X60773333Y-101524639D01*
X60918476Y-101573020D01*
X60966857Y-101621401D01*
X61353905Y-101621401D02*
X61402286Y-101573020D01*
X61499048Y-101524639D01*
X61740952Y-101524639D01*
X61837714Y-101573020D01*
X61886095Y-101621401D01*
X61934476Y-101718163D01*
X61934476Y-101814925D01*
X61886095Y-101960068D01*
X61305524Y-102540639D01*
X61934476Y-102540639D01*
X62273143Y-101524639D02*
X62902095Y-101524639D01*
X62563429Y-101911687D01*
X62708571Y-101911687D01*
X62805333Y-101960068D01*
X62853714Y-102008449D01*
X62902095Y-102105210D01*
X62902095Y-102347115D01*
X62853714Y-102443877D01*
X62805333Y-102492258D01*
X62708571Y-102540639D01*
X62418286Y-102540639D01*
X62321524Y-102492258D01*
X62273143Y-102443877D01*
X82016857Y-102443877D02*
X81968476Y-102492258D01*
X81823333Y-102540639D01*
X81726571Y-102540639D01*
X81581429Y-102492258D01*
X81484667Y-102395496D01*
X81436286Y-102298734D01*
X81387905Y-102105210D01*
X81387905Y-101960068D01*
X81436286Y-101766544D01*
X81484667Y-101669782D01*
X81581429Y-101573020D01*
X81726571Y-101524639D01*
X81823333Y-101524639D01*
X81968476Y-101573020D01*
X82016857Y-101621401D01*
X82403905Y-101621401D02*
X82452286Y-101573020D01*
X82549048Y-101524639D01*
X82790952Y-101524639D01*
X82887714Y-101573020D01*
X82936095Y-101621401D01*
X82984476Y-101718163D01*
X82984476Y-101814925D01*
X82936095Y-101960068D01*
X82355524Y-102540639D01*
X82984476Y-102540639D01*
X83952095Y-102540639D02*
X83371524Y-102540639D01*
X83661810Y-102540639D02*
X83661810Y-101524639D01*
X83565048Y-101669782D01*
X83468286Y-101766544D01*
X83371524Y-101814925D01*
X102966857Y-102443877D02*
X102918476Y-102492258D01*
X102773333Y-102540639D01*
X102676571Y-102540639D01*
X102531429Y-102492258D01*
X102434667Y-102395496D01*
X102386286Y-102298734D01*
X102337905Y-102105210D01*
X102337905Y-101960068D01*
X102386286Y-101766544D01*
X102434667Y-101669782D01*
X102531429Y-101573020D01*
X102676571Y-101524639D01*
X102773333Y-101524639D01*
X102918476Y-101573020D01*
X102966857Y-101621401D01*
X103353905Y-101621401D02*
X103402286Y-101573020D01*
X103499048Y-101524639D01*
X103740952Y-101524639D01*
X103837714Y-101573020D01*
X103886095Y-101621401D01*
X103934476Y-101718163D01*
X103934476Y-101814925D01*
X103886095Y-101960068D01*
X103305524Y-102540639D01*
X103934476Y-102540639D01*
X104563429Y-101524639D02*
X104660190Y-101524639D01*
X104756952Y-101573020D01*
X104805333Y-101621401D01*
X104853714Y-101718163D01*
X104902095Y-101911687D01*
X104902095Y-102153591D01*
X104853714Y-102347115D01*
X104805333Y-102443877D01*
X104756952Y-102492258D01*
X104660190Y-102540639D01*
X104563429Y-102540639D01*
X104466667Y-102492258D01*
X104418286Y-102443877D01*
X104369905Y-102347115D01*
X104321524Y-102153591D01*
X104321524Y-101911687D01*
X104369905Y-101718163D01*
X104418286Y-101621401D01*
X104466667Y-101573020D01*
X104563429Y-101524639D01*
D10*
X119172381Y-79534286D02*
X118172381Y-79534286D01*
X118172381Y-79153333D01*
X118220000Y-79058095D01*
X118267619Y-79010476D01*
X118362857Y-78962857D01*
X118505714Y-78962857D01*
X118600952Y-79010476D01*
X118648571Y-79058095D01*
X118696190Y-79153333D01*
X118696190Y-79534286D01*
X118267619Y-78581905D02*
X118220000Y-78534286D01*
X118172381Y-78439048D01*
X118172381Y-78200952D01*
X118220000Y-78105714D01*
X118267619Y-78058095D01*
X118362857Y-78010476D01*
X118458095Y-78010476D01*
X118600952Y-78058095D01*
X119172381Y-78629524D01*
X119172381Y-78010476D01*
X118172381Y-77677143D02*
X118172381Y-77058095D01*
X118553333Y-77391429D01*
X118553333Y-77248571D01*
X118600952Y-77153333D01*
X118648571Y-77105714D01*
X118743810Y-77058095D01*
X118981905Y-77058095D01*
X119077143Y-77105714D01*
X119124762Y-77153333D01*
X119172381Y-77248571D01*
X119172381Y-77534286D01*
X119124762Y-77629524D01*
X119077143Y-77677143D01*
D18*
D10*
X119092381Y-95594286D02*
X118092381Y-95594286D01*
X118092381Y-95213333D01*
X118140000Y-95118095D01*
X118187619Y-95070476D01*
X118282857Y-95022857D01*
X118425714Y-95022857D01*
X118520952Y-95070476D01*
X118568571Y-95118095D01*
X118616190Y-95213333D01*
X118616190Y-95594286D01*
X118187619Y-94641905D02*
X118140000Y-94594286D01*
X118092381Y-94499048D01*
X118092381Y-94260952D01*
X118140000Y-94165714D01*
X118187619Y-94118095D01*
X118282857Y-94070476D01*
X118378095Y-94070476D01*
X118520952Y-94118095D01*
X119092381Y-94689524D01*
X119092381Y-94070476D01*
X118092381Y-93165714D02*
X118092381Y-93641905D01*
X118568571Y-93689524D01*
X118520952Y-93641905D01*
X118473333Y-93546667D01*
X118473333Y-93308571D01*
X118520952Y-93213333D01*
X118568571Y-93165714D01*
X118663810Y-93118095D01*
X118901905Y-93118095D01*
X118997143Y-93165714D01*
X119044762Y-93213333D01*
X119092381Y-93308571D01*
X119092381Y-93546667D01*
X119044762Y-93641905D01*
X118997143Y-93689524D01*
D18*
D10*
X119182381Y-114694286D02*
X118182381Y-114694286D01*
X118182381Y-114313333D01*
X118230000Y-114218095D01*
X118277619Y-114170476D01*
X118372857Y-114122857D01*
X118515714Y-114122857D01*
X118610952Y-114170476D01*
X118658571Y-114218095D01*
X118706190Y-114313333D01*
X118706190Y-114694286D01*
X118277619Y-113741905D02*
X118230000Y-113694286D01*
X118182381Y-113599048D01*
X118182381Y-113360952D01*
X118230000Y-113265714D01*
X118277619Y-113218095D01*
X118372857Y-113170476D01*
X118468095Y-113170476D01*
X118610952Y-113218095D01*
X119182381Y-113789524D01*
X119182381Y-113170476D01*
X118182381Y-112837143D02*
X118182381Y-112170476D01*
X119182381Y-112599048D01*
D18*
D15*
X79808095Y-75532381D02*
X79808095Y-76341905D01*
X79855714Y-76437143D01*
X79903333Y-76484762D01*
X79998571Y-76532381D01*
X80189048Y-76532381D01*
X80284286Y-76484762D01*
X80331905Y-76437143D01*
X80379524Y-76341905D01*
X80379524Y-75532381D01*
X81379524Y-76532381D02*
X80808095Y-76532381D01*
X81093809Y-76532381D02*
X81093809Y-75532381D01*
X80998571Y-75675238D01*
X80903333Y-75770476D01*
X80808095Y-75818095D01*
X42322381Y-54741905D02*
X43131905Y-54741905D01*
X43227143Y-54694286D01*
X43274762Y-54646667D01*
X43322381Y-54551429D01*
X43322381Y-54360952D01*
X43274762Y-54265714D01*
X43227143Y-54218095D01*
X43131905Y-54170476D01*
X42322381Y-54170476D01*
X42322381Y-53789524D02*
X42322381Y-53170476D01*
X42703333Y-53503810D01*
X42703333Y-53360952D01*
X42750952Y-53265714D01*
X42798571Y-53218095D01*
X42893810Y-53170476D01*
X43131905Y-53170476D01*
X43227143Y-53218095D01*
X43274762Y-53265714D01*
X43322381Y-53360952D01*
X43322381Y-53646667D01*
X43274762Y-53741905D01*
X43227143Y-53789524D01*
X24655714Y-27232381D02*
X24655714Y-26232381D01*
X25036667Y-26232381D01*
X25131905Y-26280000D01*
X25179524Y-26327619D01*
X25227143Y-26422857D01*
X25227143Y-26565714D01*
X25179524Y-26660952D01*
X25131905Y-26708571D01*
X25036667Y-26756190D01*
X24655714Y-26756190D01*
X25608095Y-26327619D02*
X25655714Y-26280000D01*
X25750952Y-26232381D01*
X25989048Y-26232381D01*
X26084286Y-26280000D01*
X26131905Y-26327619D01*
X26179524Y-26422857D01*
X26179524Y-26518095D01*
X26131905Y-26660952D01*
X25560476Y-27232381D01*
X26179524Y-27232381D01*
X26798571Y-26232381D02*
X26893810Y-26232381D01*
X26989048Y-26280000D01*
X27036667Y-26327619D01*
X27084286Y-26422857D01*
X27131905Y-26613333D01*
X27131905Y-26851429D01*
X27084286Y-27041905D01*
X27036667Y-27137143D01*
X26989048Y-27184762D01*
X26893810Y-27232381D01*
X26798571Y-27232381D01*
X26703333Y-27184762D01*
X26655714Y-27137143D01*
X26608095Y-27041905D01*
X26560476Y-26851429D01*
X26560476Y-26613333D01*
X26608095Y-26422857D01*
X26655714Y-26327619D01*
X26703333Y-26280000D01*
X26798571Y-26232381D01*
X49431905Y-27132381D02*
X49431905Y-26132381D01*
X49812858Y-26132381D01*
X49908096Y-26180000D01*
X49955715Y-26227619D01*
X50003334Y-26322857D01*
X50003334Y-26465714D01*
X49955715Y-26560952D01*
X49908096Y-26608571D01*
X49812858Y-26656190D01*
X49431905Y-26656190D01*
X50384286Y-26227619D02*
X50431905Y-26180000D01*
X50527143Y-26132381D01*
X50765239Y-26132381D01*
X50860477Y-26180000D01*
X50908096Y-26227619D01*
X50955715Y-26322857D01*
X50955715Y-26418095D01*
X50908096Y-26560952D01*
X50336667Y-27132381D01*
X50955715Y-27132381D01*
X77731905Y-27032381D02*
X77731905Y-26032381D01*
X78112858Y-26032381D01*
X78208096Y-26080000D01*
X78255715Y-26127619D01*
X78303334Y-26222857D01*
X78303334Y-26365714D01*
X78255715Y-26460952D01*
X78208096Y-26508571D01*
X78112858Y-26556190D01*
X77731905Y-26556190D01*
X79255715Y-27032381D02*
X78684286Y-27032381D01*
X78970000Y-27032381D02*
X78970000Y-26032381D01*
X78874762Y-26175238D01*
X78779524Y-26270476D01*
X78684286Y-26318095D01*
X103831905Y-27232381D02*
X103831905Y-26232381D01*
X104212858Y-26232381D01*
X104308096Y-26280000D01*
X104355715Y-26327619D01*
X104403334Y-26422857D01*
X104403334Y-26565714D01*
X104355715Y-26660952D01*
X104308096Y-26708571D01*
X104212858Y-26756190D01*
X103831905Y-26756190D01*
X104736667Y-26232381D02*
X105355715Y-26232381D01*
X105022381Y-26613333D01*
X105165239Y-26613333D01*
X105260477Y-26660952D01*
X105308096Y-26708571D01*
X105355715Y-26803810D01*
X105355715Y-27041905D01*
X105308096Y-27137143D01*
X105260477Y-27184762D01*
X105165239Y-27232381D01*
X104879524Y-27232381D01*
X104784286Y-27184762D01*
X104736667Y-27137143D01*
X117022381Y-31118095D02*
X116022381Y-31118095D01*
X116022381Y-30737142D01*
X116070000Y-30641904D01*
X116117619Y-30594285D01*
X116212857Y-30546666D01*
X116355714Y-30546666D01*
X116450952Y-30594285D01*
X116498571Y-30641904D01*
X116546190Y-30737142D01*
X116546190Y-31118095D01*
X116355714Y-29689523D02*
X117022381Y-29689523D01*
X115974762Y-29927619D02*
X116689048Y-30165714D01*
X116689048Y-29546666D01*
M02*
