%TF.GenerationSoftware,KiCad,Pcbnew,4.0.2-stable*%
%TF.CreationDate,2016-05-16T20:32:23+02:00*%
%TF.ProjectId,ReST,526553542E6B696361645F7063620000,Rev. A*%
%TF.FileFunction,Legend,Top*%
%FSLAX46Y46*%
G04 Gerber Fmt 4.6, Leading zero omitted, Abs format (unit mm)*
G04 Created by KiCad (PCBNEW 4.0.2-stable) date 16.05.2016 20:32:23*
%MOMM*%
G01*
G04 APERTURE LIST*
%ADD10C,0.100000*%
%ADD11C,0.200000*%
%ADD12C,0.300000*%
%ADD13C,0.180000*%
%ADD14C,0.150000*%
%ADD15C,0.010000*%
%ADD16C,0.254000*%
%ADD17C,0.381000*%
%ADD18C,0.127000*%
%ADD19C,0.198120*%
%ADD20C,0.075000*%
%ADD21C,0.190500*%
%ADD22C,0.119380*%
%ADD23C,0.001000*%
%ADD24C,0.304800*%
%ADD25C,0.195580*%
G04 APERTURE END LIST*
D10*
D11*
X198283333Y-96278571D02*
X198283333Y-96754762D01*
X197997619Y-96183333D02*
X198997619Y-96516666D01*
X197997619Y-96850000D01*
X197997619Y-97611905D02*
X198997619Y-97611905D01*
X198045238Y-97611905D02*
X197997619Y-97516667D01*
X197997619Y-97326190D01*
X198045238Y-97230952D01*
X198092857Y-97183333D01*
X198188095Y-97135714D01*
X198473810Y-97135714D01*
X198569048Y-97183333D01*
X198616667Y-97230952D01*
X198664286Y-97326190D01*
X198664286Y-97516667D01*
X198616667Y-97611905D01*
X197997619Y-98516667D02*
X198997619Y-98516667D01*
X198045238Y-98516667D02*
X197997619Y-98421429D01*
X197997619Y-98230952D01*
X198045238Y-98135714D01*
X198092857Y-98088095D01*
X198188095Y-98040476D01*
X198473810Y-98040476D01*
X198569048Y-98088095D01*
X198616667Y-98135714D01*
X198664286Y-98230952D01*
X198664286Y-98421429D01*
X198616667Y-98516667D01*
X197997619Y-98992857D02*
X198664286Y-98992857D01*
X198997619Y-98992857D02*
X198950000Y-98945238D01*
X198902381Y-98992857D01*
X198950000Y-99040476D01*
X198997619Y-98992857D01*
X198902381Y-98992857D01*
X198664286Y-99326190D02*
X198664286Y-99707142D01*
X198997619Y-99469047D02*
X198140476Y-99469047D01*
X198045238Y-99516666D01*
X197997619Y-99611904D01*
X197997619Y-99707142D01*
X197997619Y-100040476D02*
X198664286Y-100040476D01*
X198997619Y-100040476D02*
X198950000Y-99992857D01*
X198902381Y-100040476D01*
X198950000Y-100088095D01*
X198997619Y-100040476D01*
X198902381Y-100040476D01*
X197997619Y-100659523D02*
X198045238Y-100564285D01*
X198092857Y-100516666D01*
X198188095Y-100469047D01*
X198473810Y-100469047D01*
X198569048Y-100516666D01*
X198616667Y-100564285D01*
X198664286Y-100659523D01*
X198664286Y-100802381D01*
X198616667Y-100897619D01*
X198569048Y-100945238D01*
X198473810Y-100992857D01*
X198188095Y-100992857D01*
X198092857Y-100945238D01*
X198045238Y-100897619D01*
X197997619Y-100802381D01*
X197997619Y-100659523D01*
X198664286Y-101421428D02*
X197997619Y-101421428D01*
X198569048Y-101421428D02*
X198616667Y-101469047D01*
X198664286Y-101564285D01*
X198664286Y-101707143D01*
X198616667Y-101802381D01*
X198521429Y-101850000D01*
X197997619Y-101850000D01*
X197997619Y-102754762D02*
X198521429Y-102754762D01*
X198616667Y-102707143D01*
X198664286Y-102611905D01*
X198664286Y-102421428D01*
X198616667Y-102326190D01*
X198045238Y-102754762D02*
X197997619Y-102659524D01*
X197997619Y-102421428D01*
X198045238Y-102326190D01*
X198140476Y-102278571D01*
X198235714Y-102278571D01*
X198330952Y-102326190D01*
X198378571Y-102421428D01*
X198378571Y-102659524D01*
X198426190Y-102754762D01*
X197997619Y-103373809D02*
X198045238Y-103278571D01*
X198140476Y-103230952D01*
X198997619Y-103230952D01*
X197997619Y-104516667D02*
X198997619Y-104516667D01*
X198521429Y-104516667D02*
X198521429Y-105088096D01*
X197997619Y-105088096D02*
X198997619Y-105088096D01*
X197997619Y-105564286D02*
X198664286Y-105564286D01*
X198997619Y-105564286D02*
X198950000Y-105516667D01*
X198902381Y-105564286D01*
X198950000Y-105611905D01*
X198997619Y-105564286D01*
X198902381Y-105564286D01*
X198664286Y-106469048D02*
X197854762Y-106469048D01*
X197759524Y-106421429D01*
X197711905Y-106373810D01*
X197664286Y-106278571D01*
X197664286Y-106135714D01*
X197711905Y-106040476D01*
X198045238Y-106469048D02*
X197997619Y-106373810D01*
X197997619Y-106183333D01*
X198045238Y-106088095D01*
X198092857Y-106040476D01*
X198188095Y-105992857D01*
X198473810Y-105992857D01*
X198569048Y-106040476D01*
X198616667Y-106088095D01*
X198664286Y-106183333D01*
X198664286Y-106373810D01*
X198616667Y-106469048D01*
X197997619Y-106945238D02*
X198997619Y-106945238D01*
X197997619Y-107373810D02*
X198521429Y-107373810D01*
X198616667Y-107326191D01*
X198664286Y-107230953D01*
X198664286Y-107088095D01*
X198616667Y-106992857D01*
X198569048Y-106945238D01*
X196397619Y-97254761D02*
X197397619Y-97254761D01*
X197397619Y-97635714D01*
X197350000Y-97730952D01*
X197302381Y-97778571D01*
X197207143Y-97826190D01*
X197064286Y-97826190D01*
X196969048Y-97778571D01*
X196921429Y-97730952D01*
X196873810Y-97635714D01*
X196873810Y-97254761D01*
X196397619Y-98397618D02*
X196445238Y-98302380D01*
X196492857Y-98254761D01*
X196588095Y-98207142D01*
X196873810Y-98207142D01*
X196969048Y-98254761D01*
X197016667Y-98302380D01*
X197064286Y-98397618D01*
X197064286Y-98540476D01*
X197016667Y-98635714D01*
X196969048Y-98683333D01*
X196873810Y-98730952D01*
X196588095Y-98730952D01*
X196492857Y-98683333D01*
X196445238Y-98635714D01*
X196397619Y-98540476D01*
X196397619Y-98397618D01*
X197064286Y-99064285D02*
X196397619Y-99254761D01*
X196873810Y-99445238D01*
X196397619Y-99635714D01*
X197064286Y-99826190D01*
X196445238Y-100588095D02*
X196397619Y-100492857D01*
X196397619Y-100302380D01*
X196445238Y-100207142D01*
X196540476Y-100159523D01*
X196921429Y-100159523D01*
X197016667Y-100207142D01*
X197064286Y-100302380D01*
X197064286Y-100492857D01*
X197016667Y-100588095D01*
X196921429Y-100635714D01*
X196826190Y-100635714D01*
X196730952Y-100159523D01*
X196397619Y-101064285D02*
X197064286Y-101064285D01*
X196873810Y-101064285D02*
X196969048Y-101111904D01*
X197016667Y-101159523D01*
X197064286Y-101254761D01*
X197064286Y-101350000D01*
X196397619Y-102445238D02*
X197397619Y-102445238D01*
X196683333Y-102778572D01*
X197397619Y-103111905D01*
X196397619Y-103111905D01*
X196397619Y-103730952D02*
X196445238Y-103635714D01*
X196492857Y-103588095D01*
X196588095Y-103540476D01*
X196873810Y-103540476D01*
X196969048Y-103588095D01*
X197016667Y-103635714D01*
X197064286Y-103730952D01*
X197064286Y-103873810D01*
X197016667Y-103969048D01*
X196969048Y-104016667D01*
X196873810Y-104064286D01*
X196588095Y-104064286D01*
X196492857Y-104016667D01*
X196445238Y-103969048D01*
X196397619Y-103873810D01*
X196397619Y-103730952D01*
X196397619Y-104921429D02*
X197397619Y-104921429D01*
X196445238Y-104921429D02*
X196397619Y-104826191D01*
X196397619Y-104635714D01*
X196445238Y-104540476D01*
X196492857Y-104492857D01*
X196588095Y-104445238D01*
X196873810Y-104445238D01*
X196969048Y-104492857D01*
X197016667Y-104540476D01*
X197064286Y-104635714D01*
X197064286Y-104826191D01*
X197016667Y-104921429D01*
X197064286Y-105826191D02*
X196397619Y-105826191D01*
X197064286Y-105397619D02*
X196540476Y-105397619D01*
X196445238Y-105445238D01*
X196397619Y-105540476D01*
X196397619Y-105683334D01*
X196445238Y-105778572D01*
X196492857Y-105826191D01*
X196397619Y-106445238D02*
X196445238Y-106350000D01*
X196540476Y-106302381D01*
X197397619Y-106302381D01*
X196445238Y-107207144D02*
X196397619Y-107111906D01*
X196397619Y-106921429D01*
X196445238Y-106826191D01*
X196540476Y-106778572D01*
X196921429Y-106778572D01*
X197016667Y-106826191D01*
X197064286Y-106921429D01*
X197064286Y-107111906D01*
X197016667Y-107207144D01*
X196921429Y-107254763D01*
X196826190Y-107254763D01*
X196730952Y-106778572D01*
X189145237Y-64378571D02*
X189478571Y-64378571D01*
X189621428Y-64902381D02*
X189145237Y-64902381D01*
X189145237Y-63902381D01*
X189621428Y-63902381D01*
X190002380Y-63997619D02*
X190049999Y-63950000D01*
X190145237Y-63902381D01*
X190383333Y-63902381D01*
X190478571Y-63950000D01*
X190526190Y-63997619D01*
X190573809Y-64092857D01*
X190573809Y-64188095D01*
X190526190Y-64330952D01*
X189954761Y-64902381D01*
X190573809Y-64902381D01*
X191716666Y-64854762D02*
X191859523Y-64902381D01*
X192097619Y-64902381D01*
X192192857Y-64854762D01*
X192240476Y-64807143D01*
X192288095Y-64711905D01*
X192288095Y-64616667D01*
X192240476Y-64521429D01*
X192192857Y-64473810D01*
X192097619Y-64426190D01*
X191907142Y-64378571D01*
X191811904Y-64330952D01*
X191764285Y-64283333D01*
X191716666Y-64188095D01*
X191716666Y-64092857D01*
X191764285Y-63997619D01*
X191811904Y-63950000D01*
X191907142Y-63902381D01*
X192145238Y-63902381D01*
X192288095Y-63950000D01*
X192573809Y-64235714D02*
X192954761Y-64235714D01*
X192716666Y-63902381D02*
X192716666Y-64759524D01*
X192764285Y-64854762D01*
X192859523Y-64902381D01*
X192954761Y-64902381D01*
X193669048Y-64854762D02*
X193573810Y-64902381D01*
X193383333Y-64902381D01*
X193288095Y-64854762D01*
X193240476Y-64759524D01*
X193240476Y-64378571D01*
X193288095Y-64283333D01*
X193383333Y-64235714D01*
X193573810Y-64235714D01*
X193669048Y-64283333D01*
X193716667Y-64378571D01*
X193716667Y-64473810D01*
X193240476Y-64569048D01*
X194145238Y-64235714D02*
X194145238Y-65235714D01*
X194145238Y-64283333D02*
X194240476Y-64235714D01*
X194430953Y-64235714D01*
X194526191Y-64283333D01*
X194573810Y-64330952D01*
X194621429Y-64426190D01*
X194621429Y-64711905D01*
X194573810Y-64807143D01*
X194526191Y-64854762D01*
X194430953Y-64902381D01*
X194240476Y-64902381D01*
X194145238Y-64854762D01*
X195050000Y-64235714D02*
X195050000Y-65235714D01*
X195050000Y-64283333D02*
X195145238Y-64235714D01*
X195335715Y-64235714D01*
X195430953Y-64283333D01*
X195478572Y-64330952D01*
X195526191Y-64426190D01*
X195526191Y-64711905D01*
X195478572Y-64807143D01*
X195430953Y-64854762D01*
X195335715Y-64902381D01*
X195145238Y-64902381D01*
X195050000Y-64854762D01*
X196335715Y-64854762D02*
X196240477Y-64902381D01*
X196050000Y-64902381D01*
X195954762Y-64854762D01*
X195907143Y-64759524D01*
X195907143Y-64378571D01*
X195954762Y-64283333D01*
X196050000Y-64235714D01*
X196240477Y-64235714D01*
X196335715Y-64283333D01*
X196383334Y-64378571D01*
X196383334Y-64473810D01*
X195907143Y-64569048D01*
X196811905Y-64902381D02*
X196811905Y-64235714D01*
X196811905Y-64426190D02*
X196859524Y-64330952D01*
X196907143Y-64283333D01*
X197002381Y-64235714D01*
X197097620Y-64235714D01*
X198192858Y-64902381D02*
X198192858Y-63902381D01*
X198526192Y-64616667D01*
X198859525Y-63902381D01*
X198859525Y-64902381D01*
X199478572Y-64902381D02*
X199383334Y-64854762D01*
X199335715Y-64807143D01*
X199288096Y-64711905D01*
X199288096Y-64426190D01*
X199335715Y-64330952D01*
X199383334Y-64283333D01*
X199478572Y-64235714D01*
X199621430Y-64235714D01*
X199716668Y-64283333D01*
X199764287Y-64330952D01*
X199811906Y-64426190D01*
X199811906Y-64711905D01*
X199764287Y-64807143D01*
X199716668Y-64854762D01*
X199621430Y-64902381D01*
X199478572Y-64902381D01*
X200669049Y-64902381D02*
X200669049Y-63902381D01*
X200669049Y-64854762D02*
X200573811Y-64902381D01*
X200383334Y-64902381D01*
X200288096Y-64854762D01*
X200240477Y-64807143D01*
X200192858Y-64711905D01*
X200192858Y-64426190D01*
X200240477Y-64330952D01*
X200288096Y-64283333D01*
X200383334Y-64235714D01*
X200573811Y-64235714D01*
X200669049Y-64283333D01*
X201573811Y-64235714D02*
X201573811Y-64902381D01*
X201145239Y-64235714D02*
X201145239Y-64759524D01*
X201192858Y-64854762D01*
X201288096Y-64902381D01*
X201430954Y-64902381D01*
X201526192Y-64854762D01*
X201573811Y-64807143D01*
X202192858Y-64902381D02*
X202097620Y-64854762D01*
X202050001Y-64759524D01*
X202050001Y-63902381D01*
X202954764Y-64854762D02*
X202859526Y-64902381D01*
X202669049Y-64902381D01*
X202573811Y-64854762D01*
X202526192Y-64759524D01*
X202526192Y-64378571D01*
X202573811Y-64283333D01*
X202669049Y-64235714D01*
X202859526Y-64235714D01*
X202954764Y-64283333D01*
X203002383Y-64378571D01*
X203002383Y-64473810D01*
X202526192Y-64569048D01*
X171745237Y-65578571D02*
X172078571Y-65578571D01*
X172221428Y-66102381D02*
X171745237Y-66102381D01*
X171745237Y-65102381D01*
X172221428Y-65102381D01*
X173173809Y-66102381D02*
X172602380Y-66102381D01*
X172888094Y-66102381D02*
X172888094Y-65102381D01*
X172792856Y-65245238D01*
X172697618Y-65340476D01*
X172602380Y-65388095D01*
X174316666Y-66054762D02*
X174459523Y-66102381D01*
X174697619Y-66102381D01*
X174792857Y-66054762D01*
X174840476Y-66007143D01*
X174888095Y-65911905D01*
X174888095Y-65816667D01*
X174840476Y-65721429D01*
X174792857Y-65673810D01*
X174697619Y-65626190D01*
X174507142Y-65578571D01*
X174411904Y-65530952D01*
X174364285Y-65483333D01*
X174316666Y-65388095D01*
X174316666Y-65292857D01*
X174364285Y-65197619D01*
X174411904Y-65150000D01*
X174507142Y-65102381D01*
X174745238Y-65102381D01*
X174888095Y-65150000D01*
X175173809Y-65435714D02*
X175554761Y-65435714D01*
X175316666Y-65102381D02*
X175316666Y-65959524D01*
X175364285Y-66054762D01*
X175459523Y-66102381D01*
X175554761Y-66102381D01*
X176269048Y-66054762D02*
X176173810Y-66102381D01*
X175983333Y-66102381D01*
X175888095Y-66054762D01*
X175840476Y-65959524D01*
X175840476Y-65578571D01*
X175888095Y-65483333D01*
X175983333Y-65435714D01*
X176173810Y-65435714D01*
X176269048Y-65483333D01*
X176316667Y-65578571D01*
X176316667Y-65673810D01*
X175840476Y-65769048D01*
X176745238Y-65435714D02*
X176745238Y-66435714D01*
X176745238Y-65483333D02*
X176840476Y-65435714D01*
X177030953Y-65435714D01*
X177126191Y-65483333D01*
X177173810Y-65530952D01*
X177221429Y-65626190D01*
X177221429Y-65911905D01*
X177173810Y-66007143D01*
X177126191Y-66054762D01*
X177030953Y-66102381D01*
X176840476Y-66102381D01*
X176745238Y-66054762D01*
X177650000Y-65435714D02*
X177650000Y-66435714D01*
X177650000Y-65483333D02*
X177745238Y-65435714D01*
X177935715Y-65435714D01*
X178030953Y-65483333D01*
X178078572Y-65530952D01*
X178126191Y-65626190D01*
X178126191Y-65911905D01*
X178078572Y-66007143D01*
X178030953Y-66054762D01*
X177935715Y-66102381D01*
X177745238Y-66102381D01*
X177650000Y-66054762D01*
X178935715Y-66054762D02*
X178840477Y-66102381D01*
X178650000Y-66102381D01*
X178554762Y-66054762D01*
X178507143Y-65959524D01*
X178507143Y-65578571D01*
X178554762Y-65483333D01*
X178650000Y-65435714D01*
X178840477Y-65435714D01*
X178935715Y-65483333D01*
X178983334Y-65578571D01*
X178983334Y-65673810D01*
X178507143Y-65769048D01*
X179411905Y-66102381D02*
X179411905Y-65435714D01*
X179411905Y-65626190D02*
X179459524Y-65530952D01*
X179507143Y-65483333D01*
X179602381Y-65435714D01*
X179697620Y-65435714D01*
X180792858Y-66102381D02*
X180792858Y-65102381D01*
X181126192Y-65816667D01*
X181459525Y-65102381D01*
X181459525Y-66102381D01*
X182078572Y-66102381D02*
X181983334Y-66054762D01*
X181935715Y-66007143D01*
X181888096Y-65911905D01*
X181888096Y-65626190D01*
X181935715Y-65530952D01*
X181983334Y-65483333D01*
X182078572Y-65435714D01*
X182221430Y-65435714D01*
X182316668Y-65483333D01*
X182364287Y-65530952D01*
X182411906Y-65626190D01*
X182411906Y-65911905D01*
X182364287Y-66007143D01*
X182316668Y-66054762D01*
X182221430Y-66102381D01*
X182078572Y-66102381D01*
X183269049Y-66102381D02*
X183269049Y-65102381D01*
X183269049Y-66054762D02*
X183173811Y-66102381D01*
X182983334Y-66102381D01*
X182888096Y-66054762D01*
X182840477Y-66007143D01*
X182792858Y-65911905D01*
X182792858Y-65626190D01*
X182840477Y-65530952D01*
X182888096Y-65483333D01*
X182983334Y-65435714D01*
X183173811Y-65435714D01*
X183269049Y-65483333D01*
X184173811Y-65435714D02*
X184173811Y-66102381D01*
X183745239Y-65435714D02*
X183745239Y-65959524D01*
X183792858Y-66054762D01*
X183888096Y-66102381D01*
X184030954Y-66102381D01*
X184126192Y-66054762D01*
X184173811Y-66007143D01*
X184792858Y-66102381D02*
X184697620Y-66054762D01*
X184650001Y-65959524D01*
X184650001Y-65102381D01*
X185554764Y-66054762D02*
X185459526Y-66102381D01*
X185269049Y-66102381D01*
X185173811Y-66054762D01*
X185126192Y-65959524D01*
X185126192Y-65578571D01*
X185173811Y-65483333D01*
X185269049Y-65435714D01*
X185459526Y-65435714D01*
X185554764Y-65483333D01*
X185602383Y-65578571D01*
X185602383Y-65673810D01*
X185126192Y-65769048D01*
D12*
X153588097Y-65638095D02*
X153588097Y-64338095D01*
X153588097Y-64957143D02*
X154330954Y-64957143D01*
X154330954Y-65638095D02*
X154330954Y-64338095D01*
X155445240Y-65576190D02*
X155321430Y-65638095D01*
X155073811Y-65638095D01*
X154950002Y-65576190D01*
X154888097Y-65452381D01*
X154888097Y-64957143D01*
X154950002Y-64833333D01*
X155073811Y-64771429D01*
X155321430Y-64771429D01*
X155445240Y-64833333D01*
X155507145Y-64957143D01*
X155507145Y-65080952D01*
X154888097Y-65204762D01*
X156621431Y-65638095D02*
X156621431Y-64957143D01*
X156559526Y-64833333D01*
X156435716Y-64771429D01*
X156188097Y-64771429D01*
X156064288Y-64833333D01*
X156621431Y-65576190D02*
X156497621Y-65638095D01*
X156188097Y-65638095D01*
X156064288Y-65576190D01*
X156002383Y-65452381D01*
X156002383Y-65328571D01*
X156064288Y-65204762D01*
X156188097Y-65142857D01*
X156497621Y-65142857D01*
X156621431Y-65080952D01*
X157054764Y-64771429D02*
X157550002Y-64771429D01*
X157240478Y-64338095D02*
X157240478Y-65452381D01*
X157302383Y-65576190D01*
X157426192Y-65638095D01*
X157550002Y-65638095D01*
X158478573Y-65576190D02*
X158354763Y-65638095D01*
X158107144Y-65638095D01*
X157983335Y-65576190D01*
X157921430Y-65452381D01*
X157921430Y-64957143D01*
X157983335Y-64833333D01*
X158107144Y-64771429D01*
X158354763Y-64771429D01*
X158478573Y-64833333D01*
X158540478Y-64957143D01*
X158540478Y-65080952D01*
X157921430Y-65204762D01*
X159097621Y-65638095D02*
X159097621Y-64771429D01*
X159097621Y-65019048D02*
X159159526Y-64895238D01*
X159221430Y-64833333D01*
X159345240Y-64771429D01*
X159469049Y-64771429D01*
X160830954Y-64461905D02*
X160892859Y-64400000D01*
X161016668Y-64338095D01*
X161326192Y-64338095D01*
X161450002Y-64400000D01*
X161511906Y-64461905D01*
X161573811Y-64585714D01*
X161573811Y-64709524D01*
X161511906Y-64895238D01*
X160769049Y-65638095D01*
X161573811Y-65638095D01*
X163121430Y-65638095D02*
X163121430Y-64338095D01*
X163554763Y-65266667D01*
X163988096Y-64338095D01*
X163988096Y-65638095D01*
X164792858Y-65638095D02*
X164669049Y-65576190D01*
X164607144Y-65514286D01*
X164545239Y-65390476D01*
X164545239Y-65019048D01*
X164607144Y-64895238D01*
X164669049Y-64833333D01*
X164792858Y-64771429D01*
X164978572Y-64771429D01*
X165102382Y-64833333D01*
X165164287Y-64895238D01*
X165226191Y-65019048D01*
X165226191Y-65390476D01*
X165164287Y-65514286D01*
X165102382Y-65576190D01*
X164978572Y-65638095D01*
X164792858Y-65638095D01*
X166340477Y-65638095D02*
X166340477Y-64338095D01*
X166340477Y-65576190D02*
X166216667Y-65638095D01*
X165969048Y-65638095D01*
X165845239Y-65576190D01*
X165783334Y-65514286D01*
X165721429Y-65390476D01*
X165721429Y-65019048D01*
X165783334Y-64895238D01*
X165845239Y-64833333D01*
X165969048Y-64771429D01*
X166216667Y-64771429D01*
X166340477Y-64833333D01*
X167516667Y-64771429D02*
X167516667Y-65638095D01*
X166959524Y-64771429D02*
X166959524Y-65452381D01*
X167021429Y-65576190D01*
X167145238Y-65638095D01*
X167330952Y-65638095D01*
X167454762Y-65576190D01*
X167516667Y-65514286D01*
X168321428Y-65638095D02*
X168197619Y-65576190D01*
X168135714Y-65452381D01*
X168135714Y-64338095D01*
X169311904Y-65576190D02*
X169188094Y-65638095D01*
X168940475Y-65638095D01*
X168816666Y-65576190D01*
X168754761Y-65452381D01*
X168754761Y-64957143D01*
X168816666Y-64833333D01*
X168940475Y-64771429D01*
X169188094Y-64771429D01*
X169311904Y-64833333D01*
X169373809Y-64957143D01*
X169373809Y-65080952D01*
X168754761Y-65204762D01*
X135788097Y-65438095D02*
X135788097Y-64138095D01*
X135788097Y-64757143D02*
X136530954Y-64757143D01*
X136530954Y-65438095D02*
X136530954Y-64138095D01*
X137645240Y-65376190D02*
X137521430Y-65438095D01*
X137273811Y-65438095D01*
X137150002Y-65376190D01*
X137088097Y-65252381D01*
X137088097Y-64757143D01*
X137150002Y-64633333D01*
X137273811Y-64571429D01*
X137521430Y-64571429D01*
X137645240Y-64633333D01*
X137707145Y-64757143D01*
X137707145Y-64880952D01*
X137088097Y-65004762D01*
X138821431Y-65438095D02*
X138821431Y-64757143D01*
X138759526Y-64633333D01*
X138635716Y-64571429D01*
X138388097Y-64571429D01*
X138264288Y-64633333D01*
X138821431Y-65376190D02*
X138697621Y-65438095D01*
X138388097Y-65438095D01*
X138264288Y-65376190D01*
X138202383Y-65252381D01*
X138202383Y-65128571D01*
X138264288Y-65004762D01*
X138388097Y-64942857D01*
X138697621Y-64942857D01*
X138821431Y-64880952D01*
X139254764Y-64571429D02*
X139750002Y-64571429D01*
X139440478Y-64138095D02*
X139440478Y-65252381D01*
X139502383Y-65376190D01*
X139626192Y-65438095D01*
X139750002Y-65438095D01*
X140678573Y-65376190D02*
X140554763Y-65438095D01*
X140307144Y-65438095D01*
X140183335Y-65376190D01*
X140121430Y-65252381D01*
X140121430Y-64757143D01*
X140183335Y-64633333D01*
X140307144Y-64571429D01*
X140554763Y-64571429D01*
X140678573Y-64633333D01*
X140740478Y-64757143D01*
X140740478Y-64880952D01*
X140121430Y-65004762D01*
X141297621Y-65438095D02*
X141297621Y-64571429D01*
X141297621Y-64819048D02*
X141359526Y-64695238D01*
X141421430Y-64633333D01*
X141545240Y-64571429D01*
X141669049Y-64571429D01*
X143773811Y-65438095D02*
X143030954Y-65438095D01*
X143402383Y-65438095D02*
X143402383Y-64138095D01*
X143278573Y-64323810D01*
X143154764Y-64447619D01*
X143030954Y-64509524D01*
X145321430Y-65438095D02*
X145321430Y-64138095D01*
X145754763Y-65066667D01*
X146188096Y-64138095D01*
X146188096Y-65438095D01*
X146992858Y-65438095D02*
X146869049Y-65376190D01*
X146807144Y-65314286D01*
X146745239Y-65190476D01*
X146745239Y-64819048D01*
X146807144Y-64695238D01*
X146869049Y-64633333D01*
X146992858Y-64571429D01*
X147178572Y-64571429D01*
X147302382Y-64633333D01*
X147364287Y-64695238D01*
X147426191Y-64819048D01*
X147426191Y-65190476D01*
X147364287Y-65314286D01*
X147302382Y-65376190D01*
X147178572Y-65438095D01*
X146992858Y-65438095D01*
X148540477Y-65438095D02*
X148540477Y-64138095D01*
X148540477Y-65376190D02*
X148416667Y-65438095D01*
X148169048Y-65438095D01*
X148045239Y-65376190D01*
X147983334Y-65314286D01*
X147921429Y-65190476D01*
X147921429Y-64819048D01*
X147983334Y-64695238D01*
X148045239Y-64633333D01*
X148169048Y-64571429D01*
X148416667Y-64571429D01*
X148540477Y-64633333D01*
X149716667Y-64571429D02*
X149716667Y-65438095D01*
X149159524Y-64571429D02*
X149159524Y-65252381D01*
X149221429Y-65376190D01*
X149345238Y-65438095D01*
X149530952Y-65438095D01*
X149654762Y-65376190D01*
X149716667Y-65314286D01*
X150521428Y-65438095D02*
X150397619Y-65376190D01*
X150335714Y-65252381D01*
X150335714Y-64138095D01*
X151511904Y-65376190D02*
X151388094Y-65438095D01*
X151140475Y-65438095D01*
X151016666Y-65376190D01*
X150954761Y-65252381D01*
X150954761Y-64757143D01*
X151016666Y-64633333D01*
X151140475Y-64571429D01*
X151388094Y-64571429D01*
X151511904Y-64633333D01*
X151573809Y-64757143D01*
X151573809Y-64880952D01*
X150954761Y-65004762D01*
X110971429Y-64528571D02*
X110971429Y-63028571D01*
X110971429Y-63742857D02*
X111828572Y-63742857D01*
X111828572Y-64528571D02*
X111828572Y-63028571D01*
X113114286Y-64457143D02*
X112971429Y-64528571D01*
X112685715Y-64528571D01*
X112542858Y-64457143D01*
X112471429Y-64314286D01*
X112471429Y-63742857D01*
X112542858Y-63600000D01*
X112685715Y-63528571D01*
X112971429Y-63528571D01*
X113114286Y-63600000D01*
X113185715Y-63742857D01*
X113185715Y-63885714D01*
X112471429Y-64028571D01*
X114471429Y-64528571D02*
X114471429Y-63742857D01*
X114400000Y-63600000D01*
X114257143Y-63528571D01*
X113971429Y-63528571D01*
X113828572Y-63600000D01*
X114471429Y-64457143D02*
X114328572Y-64528571D01*
X113971429Y-64528571D01*
X113828572Y-64457143D01*
X113757143Y-64314286D01*
X113757143Y-64171429D01*
X113828572Y-64028571D01*
X113971429Y-63957143D01*
X114328572Y-63957143D01*
X114471429Y-63885714D01*
X114971429Y-63528571D02*
X115542858Y-63528571D01*
X115185715Y-63028571D02*
X115185715Y-64314286D01*
X115257143Y-64457143D01*
X115400001Y-64528571D01*
X115542858Y-64528571D01*
X116042858Y-64528571D02*
X116042858Y-63028571D01*
X116042858Y-63600000D02*
X116185715Y-63528571D01*
X116471429Y-63528571D01*
X116614286Y-63600000D01*
X116685715Y-63671429D01*
X116757144Y-63814286D01*
X116757144Y-64242857D01*
X116685715Y-64385714D01*
X116614286Y-64457143D01*
X116471429Y-64528571D01*
X116185715Y-64528571D01*
X116042858Y-64457143D01*
X117971429Y-64457143D02*
X117828572Y-64528571D01*
X117542858Y-64528571D01*
X117400001Y-64457143D01*
X117328572Y-64314286D01*
X117328572Y-63742857D01*
X117400001Y-63600000D01*
X117542858Y-63528571D01*
X117828572Y-63528571D01*
X117971429Y-63600000D01*
X118042858Y-63742857D01*
X118042858Y-63885714D01*
X117328572Y-64028571D01*
X119328572Y-64528571D02*
X119328572Y-63028571D01*
X119328572Y-64457143D02*
X119185715Y-64528571D01*
X118900001Y-64528571D01*
X118757143Y-64457143D01*
X118685715Y-64385714D01*
X118614286Y-64242857D01*
X118614286Y-63814286D01*
X118685715Y-63671429D01*
X118757143Y-63600000D01*
X118900001Y-63528571D01*
X119185715Y-63528571D01*
X119328572Y-63600000D01*
X121185715Y-64528571D02*
X121185715Y-63028571D01*
X121685715Y-64100000D01*
X122185715Y-63028571D01*
X122185715Y-64528571D01*
X123114287Y-64528571D02*
X122971429Y-64457143D01*
X122900001Y-64385714D01*
X122828572Y-64242857D01*
X122828572Y-63814286D01*
X122900001Y-63671429D01*
X122971429Y-63600000D01*
X123114287Y-63528571D01*
X123328572Y-63528571D01*
X123471429Y-63600000D01*
X123542858Y-63671429D01*
X123614287Y-63814286D01*
X123614287Y-64242857D01*
X123542858Y-64385714D01*
X123471429Y-64457143D01*
X123328572Y-64528571D01*
X123114287Y-64528571D01*
X124900001Y-64528571D02*
X124900001Y-63028571D01*
X124900001Y-64457143D02*
X124757144Y-64528571D01*
X124471430Y-64528571D01*
X124328572Y-64457143D01*
X124257144Y-64385714D01*
X124185715Y-64242857D01*
X124185715Y-63814286D01*
X124257144Y-63671429D01*
X124328572Y-63600000D01*
X124471430Y-63528571D01*
X124757144Y-63528571D01*
X124900001Y-63600000D01*
X126257144Y-63528571D02*
X126257144Y-64528571D01*
X125614287Y-63528571D02*
X125614287Y-64314286D01*
X125685715Y-64457143D01*
X125828573Y-64528571D01*
X126042858Y-64528571D01*
X126185715Y-64457143D01*
X126257144Y-64385714D01*
X127185716Y-64528571D02*
X127042858Y-64457143D01*
X126971430Y-64314286D01*
X126971430Y-63028571D01*
X128328572Y-64457143D02*
X128185715Y-64528571D01*
X127900001Y-64528571D01*
X127757144Y-64457143D01*
X127685715Y-64314286D01*
X127685715Y-63742857D01*
X127757144Y-63600000D01*
X127900001Y-63528571D01*
X128185715Y-63528571D01*
X128328572Y-63600000D01*
X128400001Y-63742857D01*
X128400001Y-63885714D01*
X127685715Y-64028571D01*
D11*
X199097619Y-158502381D02*
X199764286Y-159502381D01*
X199764286Y-158502381D02*
X199097619Y-159502381D01*
X200145238Y-159121429D02*
X200907143Y-159121429D01*
X193302381Y-151602381D02*
X194302381Y-150935714D01*
X193302381Y-150935714D02*
X194302381Y-151602381D01*
X193921429Y-150554762D02*
X193921429Y-149792857D01*
X194302381Y-150173809D02*
X193540476Y-150173809D01*
X191230952Y-151226190D02*
X191230952Y-151702381D01*
X190897619Y-150702381D02*
X191230952Y-151226190D01*
X191564286Y-150702381D01*
X191897619Y-151321429D02*
X192659524Y-151321429D01*
X188830952Y-151226190D02*
X188830952Y-151702381D01*
X188497619Y-150702381D02*
X188830952Y-151226190D01*
X189164286Y-150702381D01*
X189497619Y-151321429D02*
X190259524Y-151321429D01*
X189878572Y-151702381D02*
X189878572Y-150940476D01*
X185897619Y-150702381D02*
X186564286Y-150702381D01*
X185897619Y-151702381D01*
X186564286Y-151702381D01*
X186945238Y-151321429D02*
X187707143Y-151321429D01*
X183297619Y-150702381D02*
X183964286Y-150702381D01*
X183297619Y-151702381D01*
X183964286Y-151702381D01*
X184345238Y-151321429D02*
X185107143Y-151321429D01*
X184726191Y-151702381D02*
X184726191Y-150940476D01*
X170645237Y-130128571D02*
X170978571Y-130128571D01*
X171121428Y-130652381D02*
X170645237Y-130652381D01*
X170645237Y-129652381D01*
X171121428Y-129652381D01*
X171740475Y-129652381D02*
X171835714Y-129652381D01*
X171930952Y-129700000D01*
X171978571Y-129747619D01*
X172026190Y-129842857D01*
X172073809Y-130033333D01*
X172073809Y-130271429D01*
X172026190Y-130461905D01*
X171978571Y-130557143D01*
X171930952Y-130604762D01*
X171835714Y-130652381D01*
X171740475Y-130652381D01*
X171645237Y-130604762D01*
X171597618Y-130557143D01*
X171549999Y-130461905D01*
X171502380Y-130271429D01*
X171502380Y-130033333D01*
X171549999Y-129842857D01*
X171597618Y-129747619D01*
X171645237Y-129700000D01*
X171740475Y-129652381D01*
X173216666Y-130604762D02*
X173359523Y-130652381D01*
X173597619Y-130652381D01*
X173692857Y-130604762D01*
X173740476Y-130557143D01*
X173788095Y-130461905D01*
X173788095Y-130366667D01*
X173740476Y-130271429D01*
X173692857Y-130223810D01*
X173597619Y-130176190D01*
X173407142Y-130128571D01*
X173311904Y-130080952D01*
X173264285Y-130033333D01*
X173216666Y-129938095D01*
X173216666Y-129842857D01*
X173264285Y-129747619D01*
X173311904Y-129700000D01*
X173407142Y-129652381D01*
X173645238Y-129652381D01*
X173788095Y-129700000D01*
X174073809Y-129985714D02*
X174454761Y-129985714D01*
X174216666Y-129652381D02*
X174216666Y-130509524D01*
X174264285Y-130604762D01*
X174359523Y-130652381D01*
X174454761Y-130652381D01*
X175169048Y-130604762D02*
X175073810Y-130652381D01*
X174883333Y-130652381D01*
X174788095Y-130604762D01*
X174740476Y-130509524D01*
X174740476Y-130128571D01*
X174788095Y-130033333D01*
X174883333Y-129985714D01*
X175073810Y-129985714D01*
X175169048Y-130033333D01*
X175216667Y-130128571D01*
X175216667Y-130223810D01*
X174740476Y-130319048D01*
X175645238Y-129985714D02*
X175645238Y-130985714D01*
X175645238Y-130033333D02*
X175740476Y-129985714D01*
X175930953Y-129985714D01*
X176026191Y-130033333D01*
X176073810Y-130080952D01*
X176121429Y-130176190D01*
X176121429Y-130461905D01*
X176073810Y-130557143D01*
X176026191Y-130604762D01*
X175930953Y-130652381D01*
X175740476Y-130652381D01*
X175645238Y-130604762D01*
X176550000Y-129985714D02*
X176550000Y-130985714D01*
X176550000Y-130033333D02*
X176645238Y-129985714D01*
X176835715Y-129985714D01*
X176930953Y-130033333D01*
X176978572Y-130080952D01*
X177026191Y-130176190D01*
X177026191Y-130461905D01*
X176978572Y-130557143D01*
X176930953Y-130604762D01*
X176835715Y-130652381D01*
X176645238Y-130652381D01*
X176550000Y-130604762D01*
X177835715Y-130604762D02*
X177740477Y-130652381D01*
X177550000Y-130652381D01*
X177454762Y-130604762D01*
X177407143Y-130509524D01*
X177407143Y-130128571D01*
X177454762Y-130033333D01*
X177550000Y-129985714D01*
X177740477Y-129985714D01*
X177835715Y-130033333D01*
X177883334Y-130128571D01*
X177883334Y-130223810D01*
X177407143Y-130319048D01*
X178311905Y-130652381D02*
X178311905Y-129985714D01*
X178311905Y-130176190D02*
X178359524Y-130080952D01*
X178407143Y-130033333D01*
X178502381Y-129985714D01*
X178597620Y-129985714D01*
X154552380Y-129652381D02*
X155219047Y-130652381D01*
X155219047Y-129652381D02*
X154552380Y-130652381D01*
X156314285Y-130604762D02*
X156457142Y-130652381D01*
X156695238Y-130652381D01*
X156790476Y-130604762D01*
X156838095Y-130557143D01*
X156885714Y-130461905D01*
X156885714Y-130366667D01*
X156838095Y-130271429D01*
X156790476Y-130223810D01*
X156695238Y-130176190D01*
X156504761Y-130128571D01*
X156409523Y-130080952D01*
X156361904Y-130033333D01*
X156314285Y-129938095D01*
X156314285Y-129842857D01*
X156361904Y-129747619D01*
X156409523Y-129700000D01*
X156504761Y-129652381D01*
X156742857Y-129652381D01*
X156885714Y-129700000D01*
X157171428Y-129985714D02*
X157552380Y-129985714D01*
X157314285Y-129652381D02*
X157314285Y-130509524D01*
X157361904Y-130604762D01*
X157457142Y-130652381D01*
X157552380Y-130652381D01*
X158266667Y-130604762D02*
X158171429Y-130652381D01*
X157980952Y-130652381D01*
X157885714Y-130604762D01*
X157838095Y-130509524D01*
X157838095Y-130128571D01*
X157885714Y-130033333D01*
X157980952Y-129985714D01*
X158171429Y-129985714D01*
X158266667Y-130033333D01*
X158314286Y-130128571D01*
X158314286Y-130223810D01*
X157838095Y-130319048D01*
X158742857Y-129985714D02*
X158742857Y-130985714D01*
X158742857Y-130033333D02*
X158838095Y-129985714D01*
X159028572Y-129985714D01*
X159123810Y-130033333D01*
X159171429Y-130080952D01*
X159219048Y-130176190D01*
X159219048Y-130461905D01*
X159171429Y-130557143D01*
X159123810Y-130604762D01*
X159028572Y-130652381D01*
X158838095Y-130652381D01*
X158742857Y-130604762D01*
X159647619Y-129985714D02*
X159647619Y-130985714D01*
X159647619Y-130033333D02*
X159742857Y-129985714D01*
X159933334Y-129985714D01*
X160028572Y-130033333D01*
X160076191Y-130080952D01*
X160123810Y-130176190D01*
X160123810Y-130461905D01*
X160076191Y-130557143D01*
X160028572Y-130604762D01*
X159933334Y-130652381D01*
X159742857Y-130652381D01*
X159647619Y-130604762D01*
X160933334Y-130604762D02*
X160838096Y-130652381D01*
X160647619Y-130652381D01*
X160552381Y-130604762D01*
X160504762Y-130509524D01*
X160504762Y-130128571D01*
X160552381Y-130033333D01*
X160647619Y-129985714D01*
X160838096Y-129985714D01*
X160933334Y-130033333D01*
X160980953Y-130128571D01*
X160980953Y-130223810D01*
X160504762Y-130319048D01*
X161409524Y-130652381D02*
X161409524Y-129985714D01*
X161409524Y-130176190D02*
X161457143Y-130080952D01*
X161504762Y-130033333D01*
X161600000Y-129985714D01*
X161695239Y-129985714D01*
X138585713Y-129926190D02*
X138585713Y-130402381D01*
X138252380Y-129402381D02*
X138585713Y-129926190D01*
X138919047Y-129402381D01*
X139966666Y-130354762D02*
X140109523Y-130402381D01*
X140347619Y-130402381D01*
X140442857Y-130354762D01*
X140490476Y-130307143D01*
X140538095Y-130211905D01*
X140538095Y-130116667D01*
X140490476Y-130021429D01*
X140442857Y-129973810D01*
X140347619Y-129926190D01*
X140157142Y-129878571D01*
X140061904Y-129830952D01*
X140014285Y-129783333D01*
X139966666Y-129688095D01*
X139966666Y-129592857D01*
X140014285Y-129497619D01*
X140061904Y-129450000D01*
X140157142Y-129402381D01*
X140395238Y-129402381D01*
X140538095Y-129450000D01*
X140823809Y-129735714D02*
X141204761Y-129735714D01*
X140966666Y-129402381D02*
X140966666Y-130259524D01*
X141014285Y-130354762D01*
X141109523Y-130402381D01*
X141204761Y-130402381D01*
X141919048Y-130354762D02*
X141823810Y-130402381D01*
X141633333Y-130402381D01*
X141538095Y-130354762D01*
X141490476Y-130259524D01*
X141490476Y-129878571D01*
X141538095Y-129783333D01*
X141633333Y-129735714D01*
X141823810Y-129735714D01*
X141919048Y-129783333D01*
X141966667Y-129878571D01*
X141966667Y-129973810D01*
X141490476Y-130069048D01*
X142395238Y-129735714D02*
X142395238Y-130735714D01*
X142395238Y-129783333D02*
X142490476Y-129735714D01*
X142680953Y-129735714D01*
X142776191Y-129783333D01*
X142823810Y-129830952D01*
X142871429Y-129926190D01*
X142871429Y-130211905D01*
X142823810Y-130307143D01*
X142776191Y-130354762D01*
X142680953Y-130402381D01*
X142490476Y-130402381D01*
X142395238Y-130354762D01*
X143300000Y-129735714D02*
X143300000Y-130735714D01*
X143300000Y-129783333D02*
X143395238Y-129735714D01*
X143585715Y-129735714D01*
X143680953Y-129783333D01*
X143728572Y-129830952D01*
X143776191Y-129926190D01*
X143776191Y-130211905D01*
X143728572Y-130307143D01*
X143680953Y-130354762D01*
X143585715Y-130402381D01*
X143395238Y-130402381D01*
X143300000Y-130354762D01*
X144585715Y-130354762D02*
X144490477Y-130402381D01*
X144300000Y-130402381D01*
X144204762Y-130354762D01*
X144157143Y-130259524D01*
X144157143Y-129878571D01*
X144204762Y-129783333D01*
X144300000Y-129735714D01*
X144490477Y-129735714D01*
X144585715Y-129783333D01*
X144633334Y-129878571D01*
X144633334Y-129973810D01*
X144157143Y-130069048D01*
X145061905Y-130402381D02*
X145061905Y-129735714D01*
X145061905Y-129926190D02*
X145109524Y-129830952D01*
X145157143Y-129783333D01*
X145252381Y-129735714D01*
X145347620Y-129735714D01*
X121702380Y-127152381D02*
X122369047Y-127152381D01*
X121702380Y-128152381D01*
X122369047Y-128152381D01*
X123464285Y-128104762D02*
X123607142Y-128152381D01*
X123845238Y-128152381D01*
X123940476Y-128104762D01*
X123988095Y-128057143D01*
X124035714Y-127961905D01*
X124035714Y-127866667D01*
X123988095Y-127771429D01*
X123940476Y-127723810D01*
X123845238Y-127676190D01*
X123654761Y-127628571D01*
X123559523Y-127580952D01*
X123511904Y-127533333D01*
X123464285Y-127438095D01*
X123464285Y-127342857D01*
X123511904Y-127247619D01*
X123559523Y-127200000D01*
X123654761Y-127152381D01*
X123892857Y-127152381D01*
X124035714Y-127200000D01*
X124321428Y-127485714D02*
X124702380Y-127485714D01*
X124464285Y-127152381D02*
X124464285Y-128009524D01*
X124511904Y-128104762D01*
X124607142Y-128152381D01*
X124702380Y-128152381D01*
X125416667Y-128104762D02*
X125321429Y-128152381D01*
X125130952Y-128152381D01*
X125035714Y-128104762D01*
X124988095Y-128009524D01*
X124988095Y-127628571D01*
X125035714Y-127533333D01*
X125130952Y-127485714D01*
X125321429Y-127485714D01*
X125416667Y-127533333D01*
X125464286Y-127628571D01*
X125464286Y-127723810D01*
X124988095Y-127819048D01*
X125892857Y-127485714D02*
X125892857Y-128485714D01*
X125892857Y-127533333D02*
X125988095Y-127485714D01*
X126178572Y-127485714D01*
X126273810Y-127533333D01*
X126321429Y-127580952D01*
X126369048Y-127676190D01*
X126369048Y-127961905D01*
X126321429Y-128057143D01*
X126273810Y-128104762D01*
X126178572Y-128152381D01*
X125988095Y-128152381D01*
X125892857Y-128104762D01*
X126797619Y-127485714D02*
X126797619Y-128485714D01*
X126797619Y-127533333D02*
X126892857Y-127485714D01*
X127083334Y-127485714D01*
X127178572Y-127533333D01*
X127226191Y-127580952D01*
X127273810Y-127676190D01*
X127273810Y-127961905D01*
X127226191Y-128057143D01*
X127178572Y-128104762D01*
X127083334Y-128152381D01*
X126892857Y-128152381D01*
X126797619Y-128104762D01*
X128083334Y-128104762D02*
X127988096Y-128152381D01*
X127797619Y-128152381D01*
X127702381Y-128104762D01*
X127654762Y-128009524D01*
X127654762Y-127628571D01*
X127702381Y-127533333D01*
X127797619Y-127485714D01*
X127988096Y-127485714D01*
X128083334Y-127533333D01*
X128130953Y-127628571D01*
X128130953Y-127723810D01*
X127654762Y-127819048D01*
X128559524Y-128152381D02*
X128559524Y-127485714D01*
X128559524Y-127676190D02*
X128607143Y-127580952D01*
X128654762Y-127533333D01*
X128750000Y-127485714D01*
X128845239Y-127485714D01*
D13*
X116692857Y-158857143D02*
X116178572Y-158857143D01*
X116435714Y-158857143D02*
X116435714Y-157957143D01*
X116350000Y-158085714D01*
X116264286Y-158171429D01*
X116178572Y-158214286D01*
X117035715Y-158042857D02*
X117078572Y-158000000D01*
X117164286Y-157957143D01*
X117378572Y-157957143D01*
X117464286Y-158000000D01*
X117507143Y-158042857D01*
X117550000Y-158128571D01*
X117550000Y-158214286D01*
X117507143Y-158342857D01*
X116992857Y-158857143D01*
X117550000Y-158857143D01*
X117807143Y-157957143D02*
X118107143Y-158857143D01*
X118407143Y-157957143D01*
X116602381Y-155625000D02*
X116521429Y-155584524D01*
X116400000Y-155584524D01*
X116278572Y-155625000D01*
X116197619Y-155705952D01*
X116157143Y-155786905D01*
X116116667Y-155948810D01*
X116116667Y-156070238D01*
X116157143Y-156232143D01*
X116197619Y-156313095D01*
X116278572Y-156394048D01*
X116400000Y-156434524D01*
X116480952Y-156434524D01*
X116602381Y-156394048D01*
X116642857Y-156353571D01*
X116642857Y-156070238D01*
X116480952Y-156070238D01*
X117007143Y-156434524D02*
X117007143Y-155584524D01*
X117492857Y-156434524D01*
X117492857Y-155584524D01*
X117897619Y-156434524D02*
X117897619Y-155584524D01*
X118100000Y-155584524D01*
X118221428Y-155625000D01*
X118302381Y-155705952D01*
X118342857Y-155786905D01*
X118383333Y-155948810D01*
X118383333Y-156070238D01*
X118342857Y-156232143D01*
X118302381Y-156313095D01*
X118221428Y-156394048D01*
X118100000Y-156434524D01*
X117897619Y-156434524D01*
D11*
X117059524Y-152902381D02*
X116583333Y-152902381D01*
X116535714Y-153378571D01*
X116583333Y-153330952D01*
X116678571Y-153283333D01*
X116916667Y-153283333D01*
X117011905Y-153330952D01*
X117059524Y-153378571D01*
X117107143Y-153473810D01*
X117107143Y-153711905D01*
X117059524Y-153807143D01*
X117011905Y-153854762D01*
X116916667Y-153902381D01*
X116678571Y-153902381D01*
X116583333Y-153854762D01*
X116535714Y-153807143D01*
X117392857Y-152902381D02*
X117726190Y-153902381D01*
X118059524Y-152902381D01*
X116373810Y-150302381D02*
X116992858Y-150302381D01*
X116659524Y-150683333D01*
X116802382Y-150683333D01*
X116897620Y-150730952D01*
X116945239Y-150778571D01*
X116992858Y-150873810D01*
X116992858Y-151111905D01*
X116945239Y-151207143D01*
X116897620Y-151254762D01*
X116802382Y-151302381D01*
X116516667Y-151302381D01*
X116421429Y-151254762D01*
X116373810Y-151207143D01*
X117421429Y-151207143D02*
X117469048Y-151254762D01*
X117421429Y-151302381D01*
X117373810Y-151254762D01*
X117421429Y-151207143D01*
X117421429Y-151302381D01*
X117802381Y-150302381D02*
X118421429Y-150302381D01*
X118088095Y-150683333D01*
X118230953Y-150683333D01*
X118326191Y-150730952D01*
X118373810Y-150778571D01*
X118421429Y-150873810D01*
X118421429Y-151111905D01*
X118373810Y-151207143D01*
X118326191Y-151254762D01*
X118230953Y-151302381D01*
X117945238Y-151302381D01*
X117850000Y-151254762D01*
X117802381Y-151207143D01*
X118707143Y-150302381D02*
X119040476Y-151302381D01*
X119373810Y-150302381D01*
D14*
X113176905Y-148764285D02*
X113176905Y-149145238D01*
X113557857Y-149183333D01*
X113519762Y-149145238D01*
X113481667Y-149069047D01*
X113481667Y-148878571D01*
X113519762Y-148802381D01*
X113557857Y-148764285D01*
X113634048Y-148726190D01*
X113824524Y-148726190D01*
X113900714Y-148764285D01*
X113938810Y-148802381D01*
X113976905Y-148878571D01*
X113976905Y-149069047D01*
X113938810Y-149145238D01*
X113900714Y-149183333D01*
X113176905Y-148497619D02*
X113976905Y-148230952D01*
X113176905Y-147964285D01*
X113938810Y-147126190D02*
X113976905Y-147011904D01*
X113976905Y-146821428D01*
X113938810Y-146745238D01*
X113900714Y-146707142D01*
X113824524Y-146669047D01*
X113748333Y-146669047D01*
X113672143Y-146707142D01*
X113634048Y-146745238D01*
X113595952Y-146821428D01*
X113557857Y-146973809D01*
X113519762Y-147050000D01*
X113481667Y-147088095D01*
X113405476Y-147126190D01*
X113329286Y-147126190D01*
X113253095Y-147088095D01*
X113215000Y-147050000D01*
X113176905Y-146973809D01*
X113176905Y-146783333D01*
X113215000Y-146669047D01*
X113938810Y-146021428D02*
X113976905Y-146097618D01*
X113976905Y-146249999D01*
X113938810Y-146326190D01*
X113862619Y-146364285D01*
X113557857Y-146364285D01*
X113481667Y-146326190D01*
X113443571Y-146249999D01*
X113443571Y-146097618D01*
X113481667Y-146021428D01*
X113557857Y-145983333D01*
X113634048Y-145983333D01*
X113710238Y-146364285D01*
X113976905Y-145526190D02*
X113938810Y-145602381D01*
X113862619Y-145640476D01*
X113176905Y-145640476D01*
X113938810Y-144916666D02*
X113976905Y-144992856D01*
X113976905Y-145145237D01*
X113938810Y-145221428D01*
X113862619Y-145259523D01*
X113557857Y-145259523D01*
X113481667Y-145221428D01*
X113443571Y-145145237D01*
X113443571Y-144992856D01*
X113481667Y-144916666D01*
X113557857Y-144878571D01*
X113634048Y-144878571D01*
X113710238Y-145259523D01*
X113938810Y-144192857D02*
X113976905Y-144269047D01*
X113976905Y-144421428D01*
X113938810Y-144497619D01*
X113900714Y-144535714D01*
X113824524Y-144573809D01*
X113595952Y-144573809D01*
X113519762Y-144535714D01*
X113481667Y-144497619D01*
X113443571Y-144421428D01*
X113443571Y-144269047D01*
X113481667Y-144192857D01*
X113443571Y-143964286D02*
X113443571Y-143659524D01*
X113176905Y-143850000D02*
X113862619Y-143850000D01*
X113938810Y-143811905D01*
X113976905Y-143735714D01*
X113976905Y-143659524D01*
X113976905Y-143278571D02*
X113938810Y-143354762D01*
X113900714Y-143392857D01*
X113824524Y-143430952D01*
X113595952Y-143430952D01*
X113519762Y-143392857D01*
X113481667Y-143354762D01*
X113443571Y-143278571D01*
X113443571Y-143164285D01*
X113481667Y-143088095D01*
X113519762Y-143050000D01*
X113595952Y-143011904D01*
X113824524Y-143011904D01*
X113900714Y-143050000D01*
X113938810Y-143088095D01*
X113976905Y-143164285D01*
X113976905Y-143278571D01*
X113976905Y-142669047D02*
X113443571Y-142669047D01*
X113595952Y-142669047D02*
X113519762Y-142630952D01*
X113481667Y-142592856D01*
X113443571Y-142516666D01*
X113443571Y-142440475D01*
X114446905Y-149126191D02*
X115094524Y-149126191D01*
X115170714Y-149088096D01*
X115208810Y-149050000D01*
X115246905Y-148973810D01*
X115246905Y-148821429D01*
X115208810Y-148745238D01*
X115170714Y-148707143D01*
X115094524Y-148669048D01*
X114446905Y-148669048D01*
X115208810Y-148326191D02*
X115246905Y-148211905D01*
X115246905Y-148021429D01*
X115208810Y-147945239D01*
X115170714Y-147907143D01*
X115094524Y-147869048D01*
X115018333Y-147869048D01*
X114942143Y-147907143D01*
X114904048Y-147945239D01*
X114865952Y-148021429D01*
X114827857Y-148173810D01*
X114789762Y-148250001D01*
X114751667Y-148288096D01*
X114675476Y-148326191D01*
X114599286Y-148326191D01*
X114523095Y-148288096D01*
X114485000Y-148250001D01*
X114446905Y-148173810D01*
X114446905Y-147983334D01*
X114485000Y-147869048D01*
X114827857Y-147259524D02*
X114865952Y-147145238D01*
X114904048Y-147107143D01*
X114980238Y-147069048D01*
X115094524Y-147069048D01*
X115170714Y-147107143D01*
X115208810Y-147145238D01*
X115246905Y-147221429D01*
X115246905Y-147526191D01*
X114446905Y-147526191D01*
X114446905Y-147259524D01*
X114485000Y-147183334D01*
X114523095Y-147145238D01*
X114599286Y-147107143D01*
X114675476Y-147107143D01*
X114751667Y-147145238D01*
X114789762Y-147183334D01*
X114827857Y-147259524D01*
X114827857Y-147526191D01*
X114942143Y-146116667D02*
X114942143Y-145507143D01*
X115246905Y-144059524D02*
X114865952Y-144326191D01*
X115246905Y-144516667D02*
X114446905Y-144516667D01*
X114446905Y-144211905D01*
X114485000Y-144135714D01*
X114523095Y-144097619D01*
X114599286Y-144059524D01*
X114713571Y-144059524D01*
X114789762Y-144097619D01*
X114827857Y-144135714D01*
X114865952Y-144211905D01*
X114865952Y-144516667D01*
X114827857Y-143716667D02*
X114827857Y-143450000D01*
X115246905Y-143335714D02*
X115246905Y-143716667D01*
X114446905Y-143716667D01*
X114446905Y-143335714D01*
X114485000Y-142573809D02*
X114446905Y-142650000D01*
X114446905Y-142764285D01*
X114485000Y-142878571D01*
X114561190Y-142954762D01*
X114637381Y-142992857D01*
X114789762Y-143030952D01*
X114904048Y-143030952D01*
X115056429Y-142992857D01*
X115132619Y-142954762D01*
X115208810Y-142878571D01*
X115246905Y-142764285D01*
X115246905Y-142688095D01*
X115208810Y-142573809D01*
X115170714Y-142535714D01*
X114904048Y-142535714D01*
X114904048Y-142688095D01*
D12*
X116171429Y-104521429D02*
X116171429Y-103664286D01*
X116171429Y-104092858D02*
X117671429Y-104092858D01*
X117457143Y-103950001D01*
X117314286Y-103807143D01*
X117242857Y-103664286D01*
X117528571Y-105092857D02*
X117600000Y-105164286D01*
X117671429Y-105307143D01*
X117671429Y-105664286D01*
X117600000Y-105807143D01*
X117528571Y-105878572D01*
X117385714Y-105950000D01*
X117242857Y-105950000D01*
X117028571Y-105878572D01*
X116171429Y-105021429D01*
X116171429Y-105950000D01*
X117671429Y-106378571D02*
X116171429Y-106878571D01*
X117671429Y-107378571D01*
X117600000Y-98307143D02*
X117671429Y-98164286D01*
X117671429Y-97950000D01*
X117600000Y-97735715D01*
X117457143Y-97592857D01*
X117314286Y-97521429D01*
X117028571Y-97450000D01*
X116814286Y-97450000D01*
X116528571Y-97521429D01*
X116385714Y-97592857D01*
X116242857Y-97735715D01*
X116171429Y-97950000D01*
X116171429Y-98092857D01*
X116242857Y-98307143D01*
X116314286Y-98378572D01*
X116814286Y-98378572D01*
X116814286Y-98092857D01*
X116171429Y-99021429D02*
X117671429Y-99021429D01*
X116171429Y-99878572D01*
X117671429Y-99878572D01*
X116171429Y-100592858D02*
X117671429Y-100592858D01*
X117671429Y-100950001D01*
X117600000Y-101164286D01*
X117457143Y-101307144D01*
X117314286Y-101378572D01*
X117028571Y-101450001D01*
X116814286Y-101450001D01*
X116528571Y-101378572D01*
X116385714Y-101307144D01*
X116242857Y-101164286D01*
X116171429Y-100950001D01*
X116171429Y-100592858D01*
D15*
X104450000Y-60450000D02*
X104450000Y-160450000D01*
X204450000Y-60450000D02*
X104450000Y-60450000D01*
X204450000Y-160450000D02*
X204450000Y-60450000D01*
X104450000Y-160450000D02*
X204450000Y-160450000D01*
D16*
X145074460Y-148624460D02*
X145074460Y-142025540D01*
X145074460Y-142025540D02*
X140174800Y-142025540D01*
X140174800Y-142025540D02*
X138475540Y-143724800D01*
X138475540Y-143724800D02*
X138475540Y-146925200D01*
X138475540Y-146925200D02*
X140174800Y-148624460D01*
X140174800Y-148624460D02*
X145074460Y-148624460D01*
D11*
X152150000Y-60250000D02*
X152150000Y-94650000D01*
X137854000Y-79414000D02*
X150046000Y-79414000D01*
X150046000Y-79414000D02*
X150046000Y-84240000D01*
X150046000Y-84240000D02*
X137854000Y-84240000D01*
X137854000Y-84240000D02*
X137854000Y-79414000D01*
X141664000Y-87914000D02*
X146236000Y-87914000D01*
X146236000Y-87914000D02*
X146236000Y-92486000D01*
X146236000Y-92486000D02*
X141664000Y-92486000D01*
X141664000Y-92486000D02*
X141664000Y-87914000D01*
X134750000Y-94650000D02*
X152150000Y-94650000D01*
X152150000Y-60250000D02*
X134750000Y-60250000D01*
X134750000Y-60250000D02*
X134750000Y-94650000D01*
X174964000Y-76734000D02*
X179536000Y-76734000D01*
X179536000Y-76734000D02*
X179536000Y-78766000D01*
X179536000Y-78766000D02*
X174964000Y-78766000D01*
X174964000Y-78766000D02*
X174964000Y-76734000D01*
X174894000Y-83864000D02*
X182006000Y-83864000D01*
X182006000Y-83864000D02*
X182006000Y-88436000D01*
X182006000Y-88436000D02*
X174894000Y-88436000D01*
X174894000Y-88436000D02*
X174894000Y-83864000D01*
X170550000Y-92650000D02*
X186350000Y-92650000D01*
X186350000Y-92650000D02*
X186350000Y-60250000D01*
X186350000Y-60250000D02*
X170550000Y-60250000D01*
X170550000Y-60250000D02*
X170550000Y-92650000D01*
D17*
X105350000Y-102450000D02*
X104850000Y-102450000D01*
X111350000Y-104950000D02*
G75*
G03X111350000Y-104950000I-2000000J0D01*
G01*
X111350000Y-99950000D02*
G75*
G03X111350000Y-99950000I-2000000J0D01*
G01*
X106850000Y-97450000D02*
X106850000Y-107450000D01*
X111750000Y-97450000D02*
X111750000Y-107450000D01*
X105350000Y-97450000D02*
X105350000Y-107450000D01*
X104850000Y-97450000D02*
X104850000Y-107450000D01*
X104850000Y-107450000D02*
X114650000Y-107450000D01*
X114650000Y-107450000D02*
X114650000Y-97450000D01*
X114650000Y-97450000D02*
X104850000Y-97450000D01*
D14*
X194630000Y-151570000D02*
X194630000Y-131250000D01*
X195180000Y-151030000D02*
X195180000Y-131810000D01*
X203730000Y-151570000D02*
X203730000Y-131250000D01*
X203180000Y-151030000D02*
X203180000Y-143660000D01*
X203180000Y-139160000D02*
X203180000Y-131810000D01*
X203180000Y-143660000D02*
X203730000Y-143660000D01*
X203180000Y-139160000D02*
X203730000Y-139160000D01*
X194630000Y-151570000D02*
X203730000Y-151570000D01*
X195180000Y-151030000D02*
X203180000Y-151030000D01*
X194630000Y-131250000D02*
X203730000Y-131250000D01*
X195180000Y-131810000D02*
X203180000Y-131810000D01*
X194630000Y-151570000D02*
X195180000Y-151030000D01*
X194630000Y-131250000D02*
X195180000Y-131810000D01*
X203730000Y-151570000D02*
X203180000Y-151030000D01*
X203730000Y-131250000D02*
X203180000Y-131810000D01*
D17*
X158958786Y-108618434D02*
G75*
G03X158958786Y-108618434I-497840J0D01*
G01*
X170960286Y-107117294D02*
X170960286Y-121117774D01*
X170960286Y-121117774D02*
X156959806Y-121117774D01*
X156959806Y-121117774D02*
X156959806Y-107117294D01*
X156959806Y-107117294D02*
X170960286Y-107117294D01*
D14*
X179634000Y-94918000D02*
X172014000Y-94918000D01*
X179634000Y-97458000D02*
X172014000Y-97458000D01*
X182454000Y-97738000D02*
X180904000Y-97738000D01*
X172014000Y-94918000D02*
X172014000Y-97458000D01*
X179634000Y-97458000D02*
X179634000Y-94918000D01*
X180904000Y-94638000D02*
X182454000Y-94638000D01*
X182454000Y-94638000D02*
X182454000Y-97738000D01*
X118645711Y-118050000D02*
G75*
G03X118645711Y-118050000I-70711J0D01*
G01*
X119675000Y-120500000D02*
X119675000Y-120550000D01*
X119675000Y-120550000D02*
X118075000Y-120550000D01*
X118075000Y-120550000D02*
X118075000Y-120500000D01*
X118075000Y-117650000D02*
X118075000Y-117700000D01*
X118075000Y-117650000D02*
X119675000Y-117650000D01*
X119675000Y-117650000D02*
X119675000Y-117700000D01*
D10*
X151350000Y-116150000D02*
X151350000Y-111150000D01*
X151350000Y-111150000D02*
X154550000Y-111150000D01*
X154550000Y-111150000D02*
X154550000Y-116150000D01*
X154550000Y-116150000D02*
X151350000Y-116150000D01*
D14*
X142050000Y-124325000D02*
X140850000Y-124325000D01*
X140850000Y-122575000D02*
X142050000Y-122575000D01*
X140850000Y-109325000D02*
X142050000Y-109325000D01*
X142050000Y-111075000D02*
X140850000Y-111075000D01*
X156829391Y-126566493D02*
X157829391Y-126566493D01*
X157829391Y-124866493D02*
X156829391Y-124866493D01*
X174950000Y-121200000D02*
X173950000Y-121200000D01*
X173950000Y-122900000D02*
X174950000Y-122900000D01*
X151654391Y-107050000D02*
X151654391Y-108050000D01*
X153354391Y-108050000D02*
X153354391Y-107050000D01*
X154750000Y-104100000D02*
X155750000Y-104100000D01*
X155750000Y-102400000D02*
X154750000Y-102400000D01*
X175354391Y-107150000D02*
X175354391Y-106150000D01*
X173654391Y-106150000D02*
X173654391Y-107150000D01*
X150960046Y-120967534D02*
X151960046Y-120967534D01*
X151960046Y-119267534D02*
X150960046Y-119267534D01*
X151004391Y-125766493D02*
X152004391Y-125766493D01*
X152004391Y-124066493D02*
X151004391Y-124066493D01*
D16*
X124450000Y-105949980D02*
X121749980Y-105949980D01*
X121749980Y-105949980D02*
X121749980Y-110049540D01*
X121749980Y-110049540D02*
X123050460Y-111350020D01*
X123050460Y-111350020D02*
X125849540Y-111350020D01*
X125849540Y-111350020D02*
X127150020Y-110049540D01*
X127150020Y-110049540D02*
X127150020Y-105949980D01*
X127150020Y-105949980D02*
X124450000Y-105949980D01*
X129150540Y-114650540D02*
X129150540Y-121249460D01*
X129150540Y-121249460D02*
X134050200Y-121249460D01*
X134050200Y-121249460D02*
X135749460Y-119550200D01*
X135749460Y-119550200D02*
X135749460Y-116349800D01*
X135749460Y-116349800D02*
X134050200Y-114650540D01*
X134050200Y-114650540D02*
X129150540Y-114650540D01*
D14*
X109031010Y-136957736D02*
X109031010Y-135957736D01*
X107331010Y-135957736D02*
X107331010Y-136957736D01*
X113531010Y-135957736D02*
X113531010Y-136957736D01*
X115231010Y-136957736D02*
X115231010Y-135957736D01*
X192300000Y-142950000D02*
X192300000Y-141950000D01*
X190600000Y-141950000D02*
X190600000Y-142950000D01*
X186300000Y-142950000D02*
X186300000Y-141950000D01*
X184600000Y-141950000D02*
X184600000Y-142950000D01*
X187600000Y-147550000D02*
X187600000Y-148550000D01*
X189300000Y-148550000D02*
X189300000Y-147550000D01*
X189300000Y-142950000D02*
X189300000Y-141950000D01*
X187600000Y-141950000D02*
X187600000Y-142950000D01*
X190600000Y-147550000D02*
X190600000Y-148550000D01*
X192300000Y-148550000D02*
X192300000Y-147550000D01*
X184600000Y-147550000D02*
X184600000Y-148550000D01*
X186300000Y-148550000D02*
X186300000Y-147550000D01*
D16*
X177824460Y-148624460D02*
X177824460Y-142025540D01*
X177824460Y-142025540D02*
X172924800Y-142025540D01*
X172924800Y-142025540D02*
X171225540Y-143724800D01*
X171225540Y-143724800D02*
X171225540Y-146925200D01*
X171225540Y-146925200D02*
X172924800Y-148624460D01*
X172924800Y-148624460D02*
X177824460Y-148624460D01*
X128574460Y-146099460D02*
X128574460Y-139500540D01*
X128574460Y-139500540D02*
X123674800Y-139500540D01*
X123674800Y-139500540D02*
X121975540Y-141199800D01*
X121975540Y-141199800D02*
X121975540Y-144400200D01*
X121975540Y-144400200D02*
X123674800Y-146099460D01*
X123674800Y-146099460D02*
X128574460Y-146099460D01*
X161449460Y-148624460D02*
X161449460Y-142025540D01*
X161449460Y-142025540D02*
X156549800Y-142025540D01*
X156549800Y-142025540D02*
X154850540Y-143724800D01*
X154850540Y-143724800D02*
X154850540Y-146925200D01*
X154850540Y-146925200D02*
X156549800Y-148624460D01*
X156549800Y-148624460D02*
X161449460Y-148624460D01*
D14*
X149329391Y-111666493D02*
X149329391Y-110466493D01*
X151079391Y-110466493D02*
X151079391Y-111666493D01*
X149335046Y-116967534D02*
X149335046Y-115767534D01*
X151085046Y-115767534D02*
X151085046Y-116967534D01*
D18*
X112288000Y-94750000D02*
X112084800Y-94750000D01*
X110764000Y-92845000D02*
X115336000Y-92845000D01*
X115336000Y-92845000D02*
X115336000Y-93480000D01*
X113710400Y-96655000D02*
X113710400Y-92845000D01*
X114040600Y-96655000D02*
X114040600Y-92845000D01*
X110764000Y-96020000D02*
X110764000Y-96655000D01*
X110764000Y-96655000D02*
X115336000Y-96655000D01*
X115336000Y-96655000D02*
X115336000Y-96020000D01*
X110764000Y-93480000D02*
X110764000Y-92845000D01*
X112923000Y-94750000D02*
X112288000Y-94275020D01*
X112288000Y-94275020D02*
X112288000Y-94750000D01*
X112288000Y-94750000D02*
X112288000Y-95224980D01*
X112288000Y-95224980D02*
X112923000Y-94750000D01*
X112923000Y-94750000D02*
X112923000Y-94432500D01*
X112923000Y-94432500D02*
X112765520Y-94275020D01*
X112923000Y-94750000D02*
X112923000Y-95067500D01*
X112923000Y-95067500D02*
X113080480Y-95224980D01*
X112923000Y-94750000D02*
X114032980Y-94750000D01*
D10*
X118600000Y-109050000D02*
X118700000Y-108950000D01*
X118100000Y-109050000D02*
X118700000Y-108450000D01*
X118200000Y-108450000D02*
X117600000Y-109050000D01*
X117700000Y-108450000D02*
X117100000Y-109050000D01*
X117200000Y-108450000D02*
X116600000Y-109050000D01*
X116700000Y-108450000D02*
X116100000Y-109050000D01*
X116200000Y-108450000D02*
X115600000Y-109050000D01*
X115700000Y-108450000D02*
X115100000Y-109050000D01*
X115200000Y-108450000D02*
X114600000Y-109050000D01*
X118200000Y-112450000D02*
X118700000Y-111950000D01*
X118300000Y-111850000D02*
X117700000Y-112450000D01*
X117800000Y-111850000D02*
X117200000Y-112450000D01*
X117300000Y-111850000D02*
X116700000Y-112450000D01*
X116800000Y-111850000D02*
X116200000Y-112450000D01*
X116300000Y-111850000D02*
X115700000Y-112450000D01*
X115800000Y-111850000D02*
X115200000Y-112450000D01*
X115300000Y-111850000D02*
X114700000Y-112450000D01*
X114200000Y-112450000D02*
X114800000Y-111850000D01*
X113700000Y-112450000D02*
X114300000Y-111850000D01*
X113200000Y-112450000D02*
X114100000Y-111550000D01*
X112700000Y-112450000D02*
X114100000Y-111050000D01*
X114100000Y-110550000D02*
X112200000Y-112450000D01*
X112400000Y-111750000D02*
X114100000Y-110050000D01*
X112400000Y-111250000D02*
X114100000Y-109550000D01*
X114700000Y-108450000D02*
X114100000Y-109050000D01*
X114100000Y-109050000D02*
X112400000Y-110750000D01*
X112300000Y-111850000D02*
X111700000Y-112450000D01*
X111800000Y-111850000D02*
X111200000Y-112450000D01*
X111300000Y-111850000D02*
X110700000Y-112450000D01*
X110800000Y-111850000D02*
X110200000Y-112450000D01*
X110300000Y-111850000D02*
X109700000Y-112450000D01*
X109800000Y-111850000D02*
X109200000Y-112450000D01*
X109300000Y-111850000D02*
X108700000Y-112450000D01*
X108800000Y-111850000D02*
X108200000Y-112450000D01*
X114200000Y-108450000D02*
X112400000Y-110250000D01*
X113700000Y-108450000D02*
X112400000Y-109750000D01*
X113200000Y-108450000D02*
X112400000Y-109250000D01*
X112700000Y-108450000D02*
X112100000Y-109050000D01*
X112200000Y-108450000D02*
X111600000Y-109050000D01*
X111700000Y-108450000D02*
X111100000Y-109050000D01*
X107700000Y-112450000D02*
X108300000Y-111850000D01*
X111200000Y-108450000D02*
X110600000Y-109050000D01*
X110700000Y-108450000D02*
X110100000Y-109050000D01*
X110200000Y-108450000D02*
X109600000Y-109050000D01*
X109700000Y-108450000D02*
X109100000Y-109050000D01*
X109200000Y-108450000D02*
X108600000Y-109050000D01*
X108700000Y-108450000D02*
X108100000Y-109050000D01*
X108200000Y-108450000D02*
X107700000Y-108950000D01*
X118700000Y-109050000D02*
X118700000Y-108850000D01*
X118700000Y-112050000D02*
X118700000Y-111850000D01*
X107700000Y-112050000D02*
X107700000Y-111850000D01*
X107700000Y-108850000D02*
X107700000Y-109050000D01*
X107700000Y-112050000D02*
X107700000Y-112450000D01*
X107700000Y-112450000D02*
X118700000Y-112450000D01*
X118700000Y-112450000D02*
X118700000Y-112050000D01*
X107700000Y-108850000D02*
X107700000Y-108450000D01*
X107700000Y-108450000D02*
X118700000Y-108450000D01*
X118700000Y-108450000D02*
X118700000Y-108850000D01*
X114100000Y-109050000D02*
X120600000Y-109050000D01*
X120600000Y-109050000D02*
X120600000Y-111850000D01*
X120600000Y-111850000D02*
X114100000Y-111850000D01*
X114100000Y-111850000D02*
X114100000Y-109050000D01*
X105900000Y-109050000D02*
X112400000Y-109050000D01*
X112400000Y-109050000D02*
X112400000Y-111850000D01*
X112400000Y-111850000D02*
X105900000Y-111850000D01*
X105900000Y-111850000D02*
X105900000Y-109050000D01*
D14*
X156025000Y-88125000D02*
X155880000Y-88125000D01*
X156025000Y-92275000D02*
X155880000Y-92275000D01*
X150875000Y-92275000D02*
X151020000Y-92275000D01*
X150875000Y-88125000D02*
X151020000Y-88125000D01*
X156025000Y-88125000D02*
X156025000Y-92275000D01*
X150875000Y-88125000D02*
X150875000Y-92275000D01*
X155880000Y-88125000D02*
X155880000Y-86725000D01*
X153054391Y-123216493D02*
X154054391Y-123216493D01*
X154054391Y-121516493D02*
X153054391Y-121516493D01*
X198224870Y-157098830D02*
X198224870Y-152018830D01*
X198224870Y-152018830D02*
X195684870Y-152018830D01*
X195684870Y-152018830D02*
X195684870Y-157098830D01*
X195404870Y-159918830D02*
X195404870Y-158368830D01*
X195684870Y-157098830D02*
X198224870Y-157098830D01*
X198504870Y-158368830D02*
X198504870Y-159918830D01*
X198504870Y-159918830D02*
X195404870Y-159918830D01*
X193144870Y-157098830D02*
X193144870Y-152018830D01*
X193144870Y-152018830D02*
X190604870Y-152018830D01*
X190604870Y-152018830D02*
X190604870Y-157098830D01*
X190324870Y-159918830D02*
X190324870Y-158368830D01*
X190604870Y-157098830D02*
X193144870Y-157098830D01*
X193424870Y-158368830D02*
X193424870Y-159918830D01*
X193424870Y-159918830D02*
X190324870Y-159918830D01*
X195684870Y-157098830D02*
X195684870Y-152018830D01*
X195684870Y-152018830D02*
X193144870Y-152018830D01*
X193144870Y-152018830D02*
X193144870Y-157098830D01*
X192864870Y-159918830D02*
X192864870Y-158368830D01*
X193144870Y-157098830D02*
X195684870Y-157098830D01*
X195964870Y-158368830D02*
X195964870Y-159918830D01*
X195964870Y-159918830D02*
X192864870Y-159918830D01*
X190604870Y-157098830D02*
X190604870Y-152018830D01*
X190604870Y-152018830D02*
X188064870Y-152018830D01*
X188064870Y-152018830D02*
X188064870Y-157098830D01*
X187784870Y-159918830D02*
X187784870Y-158368830D01*
X188064870Y-157098830D02*
X190604870Y-157098830D01*
X190884870Y-158368830D02*
X190884870Y-159918830D01*
X190884870Y-159918830D02*
X187784870Y-159918830D01*
X104950820Y-115849360D02*
X104950820Y-123550640D01*
X103950060Y-115849360D02*
X103950060Y-123550640D01*
X103950060Y-123550640D02*
X113149940Y-123550640D01*
X113149940Y-123550640D02*
X113149940Y-115849360D01*
X113149940Y-115849360D02*
X103950060Y-115849360D01*
X179634000Y-101014000D02*
X172014000Y-101014000D01*
X179634000Y-103554000D02*
X172014000Y-103554000D01*
X182454000Y-103834000D02*
X180904000Y-103834000D01*
X172014000Y-101014000D02*
X172014000Y-103554000D01*
X179634000Y-103554000D02*
X179634000Y-101014000D01*
X180904000Y-100734000D02*
X182454000Y-100734000D01*
X182454000Y-100734000D02*
X182454000Y-103834000D01*
X108260000Y-154600000D02*
X115880000Y-154600000D01*
X115880000Y-154600000D02*
X115880000Y-149520000D01*
X115880000Y-149520000D02*
X105720000Y-149520000D01*
X105720000Y-149520000D02*
X105720000Y-152060000D01*
X105440000Y-153330000D02*
X105440000Y-154880000D01*
X105720000Y-152060000D02*
X108260000Y-152060000D01*
X108260000Y-152060000D02*
X108260000Y-154600000D01*
X105440000Y-154880000D02*
X106990000Y-154880000D01*
X179634000Y-97966000D02*
X172014000Y-97966000D01*
X179634000Y-100506000D02*
X172014000Y-100506000D01*
X182454000Y-100786000D02*
X180904000Y-100786000D01*
X172014000Y-97966000D02*
X172014000Y-100506000D01*
X179634000Y-100506000D02*
X179634000Y-97966000D01*
X180904000Y-97686000D02*
X182454000Y-97686000D01*
X182454000Y-97686000D02*
X182454000Y-100786000D01*
X108260000Y-159680000D02*
X115880000Y-159680000D01*
X115880000Y-159680000D02*
X115880000Y-154600000D01*
X115880000Y-154600000D02*
X105720000Y-154600000D01*
X105720000Y-154600000D02*
X105720000Y-157140000D01*
X105440000Y-158410000D02*
X105440000Y-159960000D01*
X105720000Y-157140000D02*
X108260000Y-157140000D01*
X108260000Y-157140000D02*
X108260000Y-159680000D01*
X105440000Y-159960000D02*
X106990000Y-159960000D01*
X188064870Y-157098830D02*
X188064870Y-152018830D01*
X188064870Y-152018830D02*
X185524870Y-152018830D01*
X185524870Y-152018830D02*
X185524870Y-157098830D01*
X185244870Y-159918830D02*
X185244870Y-158368830D01*
X185524870Y-157098830D02*
X188064870Y-157098830D01*
X188344870Y-158368830D02*
X188344870Y-159918830D01*
X188344870Y-159918830D02*
X185244870Y-159918830D01*
X185524870Y-157098830D02*
X185524870Y-152018830D01*
X185524870Y-152018830D02*
X182984870Y-152018830D01*
X182984870Y-152018830D02*
X182984870Y-157098830D01*
X182704870Y-159918830D02*
X182704870Y-158368830D01*
X182984870Y-157098830D02*
X185524870Y-157098830D01*
X185804870Y-158368830D02*
X185804870Y-159918830D01*
X185804870Y-159918830D02*
X182704870Y-159918830D01*
D17*
X122275000Y-159525000D02*
X122275000Y-159925000D01*
X125775000Y-159525000D02*
X125775000Y-159925000D01*
X129275000Y-159525000D02*
X129275000Y-159925000D01*
X118775000Y-158425000D02*
X132775000Y-158425000D01*
X118775000Y-159525000D02*
X132775000Y-159525000D01*
X118775000Y-152325000D02*
X118775000Y-159925000D01*
X132775000Y-159925000D02*
X132775000Y-152325000D01*
X132775000Y-152325000D02*
X118775000Y-152325000D01*
X171525000Y-159525000D02*
X171525000Y-159925000D01*
X175025000Y-159525000D02*
X175025000Y-159925000D01*
X178525000Y-159525000D02*
X178525000Y-159925000D01*
X168025000Y-158425000D02*
X182025000Y-158425000D01*
X168025000Y-159525000D02*
X182025000Y-159525000D01*
X168025000Y-152325000D02*
X168025000Y-159925000D01*
X182025000Y-159925000D02*
X182025000Y-152325000D01*
X182025000Y-152325000D02*
X168025000Y-152325000D01*
X138775000Y-159525000D02*
X138775000Y-159925000D01*
X142275000Y-159525000D02*
X142275000Y-159925000D01*
X145775000Y-159525000D02*
X145775000Y-159925000D01*
X135275000Y-158425000D02*
X149275000Y-158425000D01*
X135275000Y-159525000D02*
X149275000Y-159525000D01*
X135275000Y-152325000D02*
X135275000Y-159925000D01*
X149275000Y-159925000D02*
X149275000Y-152325000D01*
X149275000Y-152325000D02*
X135275000Y-152325000D01*
X155150000Y-159525000D02*
X155150000Y-159925000D01*
X158650000Y-159525000D02*
X158650000Y-159925000D01*
X162150000Y-159525000D02*
X162150000Y-159925000D01*
X151650000Y-158425000D02*
X165650000Y-158425000D01*
X151650000Y-159525000D02*
X165650000Y-159525000D01*
X151650000Y-152325000D02*
X151650000Y-159925000D01*
X165650000Y-159925000D02*
X165650000Y-152325000D01*
X165650000Y-152325000D02*
X151650000Y-152325000D01*
D14*
X128330000Y-146830000D02*
X120710000Y-146830000D01*
X120710000Y-146830000D02*
X120710000Y-151910000D01*
X120710000Y-151910000D02*
X130870000Y-151910000D01*
X130870000Y-151910000D02*
X130870000Y-149370000D01*
X131150000Y-148100000D02*
X131150000Y-146550000D01*
X130870000Y-149370000D02*
X128330000Y-149370000D01*
X128330000Y-149370000D02*
X128330000Y-146830000D01*
X131150000Y-146550000D02*
X129600000Y-146550000D01*
X172470000Y-151895000D02*
X180090000Y-151895000D01*
X172470000Y-149355000D02*
X180090000Y-149355000D01*
X169650000Y-149075000D02*
X171200000Y-149075000D01*
X180090000Y-151895000D02*
X180090000Y-149355000D01*
X172470000Y-149355000D02*
X172470000Y-151895000D01*
X171200000Y-152175000D02*
X169650000Y-152175000D01*
X169650000Y-152175000D02*
X169650000Y-149075000D01*
X139720000Y-151895000D02*
X147340000Y-151895000D01*
X139720000Y-149355000D02*
X147340000Y-149355000D01*
X136900000Y-149075000D02*
X138450000Y-149075000D01*
X147340000Y-151895000D02*
X147340000Y-149355000D01*
X139720000Y-149355000D02*
X139720000Y-151895000D01*
X138450000Y-152175000D02*
X136900000Y-152175000D01*
X136900000Y-152175000D02*
X136900000Y-149075000D01*
X156095000Y-151895000D02*
X163715000Y-151895000D01*
X156095000Y-149355000D02*
X163715000Y-149355000D01*
X153275000Y-149075000D02*
X154825000Y-149075000D01*
X163715000Y-151895000D02*
X163715000Y-149355000D01*
X156095000Y-149355000D02*
X156095000Y-151895000D01*
X154825000Y-152175000D02*
X153275000Y-152175000D01*
X153275000Y-152175000D02*
X153275000Y-149075000D01*
X107325000Y-127600000D02*
X107325000Y-128800000D01*
X105575000Y-128800000D02*
X105575000Y-127600000D01*
X173925000Y-139700000D02*
X175125000Y-139700000D01*
X175125000Y-141450000D02*
X173925000Y-141450000D01*
X141175000Y-139700000D02*
X142375000Y-139700000D01*
X142375000Y-141450000D02*
X141175000Y-141450000D01*
X157550000Y-139700000D02*
X158750000Y-139700000D01*
X158750000Y-141450000D02*
X157550000Y-141450000D01*
X124700000Y-137175000D02*
X125900000Y-137175000D01*
X125900000Y-138925000D02*
X124700000Y-138925000D01*
X150325000Y-90550000D02*
X150325000Y-91750000D01*
X148575000Y-91750000D02*
X148575000Y-90550000D01*
X158325000Y-90600000D02*
X158325000Y-91800000D01*
X156575000Y-91800000D02*
X156575000Y-90600000D01*
D16*
X182645000Y-128665000D02*
X182645000Y-148985000D01*
X182645000Y-148985000D02*
X167405000Y-148985000D01*
X167405000Y-148985000D02*
X167405000Y-128665000D01*
X167405000Y-128665000D02*
X182645000Y-128665000D01*
X149895000Y-128665000D02*
X149895000Y-148985000D01*
X149895000Y-148985000D02*
X134655000Y-148985000D01*
X134655000Y-148985000D02*
X134655000Y-128665000D01*
X134655000Y-128665000D02*
X149895000Y-128665000D01*
X133395000Y-126140000D02*
X133395000Y-146460000D01*
X133395000Y-146460000D02*
X118155000Y-146460000D01*
X118155000Y-146460000D02*
X118155000Y-126140000D01*
X118155000Y-126140000D02*
X133395000Y-126140000D01*
X166270000Y-128665000D02*
X166270000Y-148985000D01*
X166270000Y-148985000D02*
X151030000Y-148985000D01*
X151030000Y-148985000D02*
X151030000Y-128665000D01*
X151030000Y-128665000D02*
X166270000Y-128665000D01*
D19*
X177125000Y-131515000D02*
X177125000Y-139135000D01*
X171925000Y-139135000D02*
X171925000Y-131515000D01*
X177125000Y-131515000D02*
X171925000Y-131515000D01*
X171925000Y-139135000D02*
X177125000Y-139135000D01*
X144375000Y-131515000D02*
X144375000Y-139135000D01*
X139175000Y-139135000D02*
X139175000Y-131515000D01*
X144375000Y-131515000D02*
X139175000Y-131515000D01*
X139175000Y-139135000D02*
X144375000Y-139135000D01*
X127875000Y-128990000D02*
X127875000Y-136610000D01*
X122675000Y-136610000D02*
X122675000Y-128990000D01*
X127875000Y-128990000D02*
X122675000Y-128990000D01*
X122675000Y-136610000D02*
X127875000Y-136610000D01*
X160750000Y-131515000D02*
X160750000Y-139135000D01*
X155550000Y-139135000D02*
X155550000Y-131515000D01*
X160750000Y-131515000D02*
X155550000Y-131515000D01*
X155550000Y-139135000D02*
X160750000Y-139135000D01*
D14*
X110051010Y-142127736D02*
X115131010Y-142127736D01*
X115131010Y-142127736D02*
X115131010Y-139587736D01*
X115131010Y-139587736D02*
X110051010Y-139587736D01*
X107231010Y-139307736D02*
X108781010Y-139307736D01*
X110051010Y-139587736D02*
X110051010Y-142127736D01*
X108781010Y-142407736D02*
X107231010Y-142407736D01*
X107231010Y-142407736D02*
X107231010Y-139307736D01*
X109656010Y-136332736D02*
G75*
G03X109656010Y-136332736I-100000J0D01*
G01*
X109806010Y-135782736D02*
X109806010Y-136282736D01*
X112706010Y-135782736D02*
X109806010Y-135782736D01*
X112706010Y-136282736D02*
X112706010Y-135782736D01*
X109806010Y-136282736D02*
X112706010Y-136282736D01*
D11*
X191964000Y-76734000D02*
X196536000Y-76734000D01*
X196536000Y-76734000D02*
X196536000Y-78766000D01*
X196536000Y-78766000D02*
X191964000Y-78766000D01*
X191964000Y-78766000D02*
X191964000Y-76734000D01*
X191894000Y-83864000D02*
X199006000Y-83864000D01*
X199006000Y-83864000D02*
X199006000Y-88436000D01*
X199006000Y-88436000D02*
X191894000Y-88436000D01*
X191894000Y-88436000D02*
X191894000Y-83864000D01*
X187550000Y-92650000D02*
X203350000Y-92650000D01*
X203350000Y-92650000D02*
X203350000Y-60250000D01*
X203350000Y-60250000D02*
X187550000Y-60250000D01*
X187550000Y-60250000D02*
X187550000Y-92650000D01*
X184750000Y-109650000D02*
X204150000Y-109650000D01*
X189264000Y-94184000D02*
X189264000Y-108916000D01*
X193836000Y-94184000D02*
X189264000Y-94184000D01*
X193836000Y-94184000D02*
X193836000Y-108916000D01*
X193836000Y-108916000D02*
X189264000Y-108916000D01*
X184750000Y-93250000D02*
X204150000Y-93250000D01*
X184750000Y-109650000D02*
X184750000Y-93250000D01*
X204150000Y-109650000D02*
X204150000Y-93250000D01*
X170150000Y-60250000D02*
X170150000Y-94650000D01*
X155854000Y-79414000D02*
X168046000Y-79414000D01*
X168046000Y-79414000D02*
X168046000Y-84240000D01*
X168046000Y-84240000D02*
X155854000Y-84240000D01*
X155854000Y-84240000D02*
X155854000Y-79414000D01*
X159664000Y-87914000D02*
X164236000Y-87914000D01*
X164236000Y-87914000D02*
X164236000Y-92486000D01*
X164236000Y-92486000D02*
X159664000Y-92486000D01*
X159664000Y-92486000D02*
X159664000Y-87914000D01*
X152750000Y-94650000D02*
X170150000Y-94650000D01*
X170150000Y-60250000D02*
X152750000Y-60250000D01*
X152750000Y-60250000D02*
X152750000Y-94650000D01*
D19*
X163350000Y-103860000D02*
X163350000Y-96240000D01*
X168550000Y-96240000D02*
X168550000Y-103860000D01*
X163350000Y-103860000D02*
X168550000Y-103860000D01*
X168550000Y-96240000D02*
X163350000Y-96240000D01*
D14*
X194630000Y-130530000D02*
X194630000Y-110210000D01*
X195180000Y-129990000D02*
X195180000Y-110770000D01*
X203730000Y-130530000D02*
X203730000Y-110210000D01*
X203180000Y-129990000D02*
X203180000Y-122620000D01*
X203180000Y-118120000D02*
X203180000Y-110770000D01*
X203180000Y-122620000D02*
X203730000Y-122620000D01*
X203180000Y-118120000D02*
X203730000Y-118120000D01*
X194630000Y-130530000D02*
X203730000Y-130530000D01*
X195180000Y-129990000D02*
X203180000Y-129990000D01*
X194630000Y-110210000D02*
X203730000Y-110210000D01*
X195180000Y-110770000D02*
X203180000Y-110770000D01*
X194630000Y-130530000D02*
X195180000Y-129990000D01*
X194630000Y-110210000D02*
X195180000Y-110770000D01*
X203730000Y-130530000D02*
X203180000Y-129990000D01*
X203730000Y-110210000D02*
X203180000Y-110770000D01*
X123700000Y-119600000D02*
X123700000Y-118600000D01*
X122000000Y-118600000D02*
X122000000Y-119600000D01*
X121925000Y-123525000D02*
X120725000Y-123525000D01*
X120725000Y-121775000D02*
X121925000Y-121775000D01*
X120725000Y-114675000D02*
X121925000Y-114675000D01*
X121925000Y-116425000D02*
X120725000Y-116425000D01*
D19*
X193260000Y-117550000D02*
X185640000Y-117550000D01*
X185640000Y-112350000D02*
X193260000Y-112350000D01*
X193260000Y-117550000D02*
X193260000Y-112350000D01*
X185640000Y-112350000D02*
X185640000Y-117550000D01*
X152030000Y-102550000D02*
X141870000Y-102550000D01*
X141870000Y-97350000D02*
X152030000Y-97350000D01*
X152030000Y-102550000D02*
X152030000Y-97350000D01*
X141870000Y-97350000D02*
X141870000Y-102550000D01*
X177650000Y-120930000D02*
X177650000Y-110770000D01*
X182850000Y-110770000D02*
X182850000Y-120930000D01*
X177650000Y-120930000D02*
X182850000Y-120930000D01*
X182850000Y-110770000D02*
X177650000Y-110770000D01*
D11*
X142262050Y-116800000D02*
G75*
G03X142262050Y-116800000I-1562050J0D01*
G01*
X143700000Y-114000000D02*
X143700000Y-119600000D01*
X143700000Y-119600000D02*
X137900000Y-119600000D01*
X137900000Y-119600000D02*
X137700000Y-119600000D01*
X137700000Y-119600000D02*
X137700000Y-114000000D01*
X137700000Y-114000000D02*
X143700000Y-114000000D01*
X125476000Y-73072000D02*
X125476000Y-72056000D01*
X125476000Y-72056000D02*
X129540000Y-72056000D01*
X129540000Y-72056000D02*
X130048000Y-72056000D01*
X130048000Y-72056000D02*
X130048000Y-76628000D01*
X130048000Y-76628000D02*
X125476000Y-76628000D01*
X125476000Y-76628000D02*
X125476000Y-73072000D01*
X134250000Y-70250000D02*
X134350000Y-70250000D01*
X134350000Y-70250000D02*
X134350000Y-96550000D01*
X134350000Y-96550000D02*
X115850000Y-96550000D01*
X115850000Y-96550000D02*
X115850000Y-96450000D01*
X134250000Y-70250000D02*
X118450000Y-70250000D01*
X118450000Y-70250000D02*
X115850000Y-70250000D01*
X115850000Y-70250000D02*
X115850000Y-96450000D01*
X122592000Y-88864000D02*
X129704000Y-88864000D01*
X129704000Y-88864000D02*
X129704000Y-93436000D01*
X129704000Y-93436000D02*
X122592000Y-93436000D01*
X122592000Y-93436000D02*
X122592000Y-88864000D01*
D14*
X128446200Y-98977700D02*
X128446200Y-96615500D01*
X128446200Y-96615500D02*
X138453800Y-96615500D01*
X138453800Y-96615500D02*
X138453800Y-98977700D01*
X136447200Y-112960400D02*
X136447200Y-108629700D01*
X135443900Y-112960400D02*
X136447200Y-112960400D01*
X135443900Y-108629700D02*
X135443900Y-112960400D01*
X130452800Y-108629700D02*
X130452800Y-112960400D01*
X130452800Y-112960400D02*
X131456100Y-112960400D01*
X131456100Y-112960400D02*
X131456100Y-108629700D01*
X128103300Y-98977700D02*
X138796700Y-98977700D01*
X138796700Y-98977700D02*
X138796700Y-108629700D01*
X138796700Y-108629700D02*
X128103300Y-108629700D01*
X128103300Y-108629700D02*
X128103300Y-98977700D01*
D16*
X141121857Y-147686837D02*
X141073476Y-147735218D01*
X140928333Y-147783599D01*
X140831571Y-147783599D01*
X140686429Y-147735218D01*
X140589667Y-147638456D01*
X140541286Y-147541694D01*
X140492905Y-147348170D01*
X140492905Y-147203028D01*
X140541286Y-147009504D01*
X140589667Y-146912742D01*
X140686429Y-146815980D01*
X140831571Y-146767599D01*
X140928333Y-146767599D01*
X141073476Y-146815980D01*
X141121857Y-146864361D01*
X141508905Y-146864361D02*
X141557286Y-146815980D01*
X141654048Y-146767599D01*
X141895952Y-146767599D01*
X141992714Y-146815980D01*
X142041095Y-146864361D01*
X142089476Y-146961123D01*
X142089476Y-147057885D01*
X142041095Y-147203028D01*
X141460524Y-147783599D01*
X142089476Y-147783599D01*
X143057095Y-147783599D02*
X142476524Y-147783599D01*
X142766810Y-147783599D02*
X142766810Y-146767599D01*
X142670048Y-146912742D01*
X142573286Y-147009504D01*
X142476524Y-147057885D01*
D14*
D12*
D14*
X193282381Y-142148095D02*
X192282381Y-142148095D01*
X192282381Y-141767142D01*
X192330000Y-141671904D01*
X192377619Y-141624285D01*
X192472857Y-141576666D01*
X192615714Y-141576666D01*
X192710952Y-141624285D01*
X192758571Y-141671904D01*
X192806190Y-141767142D01*
X192806190Y-142148095D01*
X192282381Y-141243333D02*
X192282381Y-140576666D01*
X193282381Y-141005238D01*
D16*
X163403665Y-114891629D02*
X164226141Y-114891629D01*
X164322903Y-114843248D01*
X164371284Y-114794867D01*
X164419665Y-114698105D01*
X164419665Y-114504582D01*
X164371284Y-114407820D01*
X164322903Y-114359439D01*
X164226141Y-114311058D01*
X163403665Y-114311058D01*
X164419665Y-113295058D02*
X164419665Y-113875629D01*
X164419665Y-113585343D02*
X163403665Y-113585343D01*
X163548808Y-113682105D01*
X163645570Y-113778867D01*
X163693951Y-113875629D01*
D14*
D20*
X118570238Y-120980952D02*
X118570238Y-121304762D01*
X118589286Y-121342857D01*
X118608333Y-121361905D01*
X118646429Y-121380952D01*
X118722619Y-121380952D01*
X118760714Y-121361905D01*
X118779762Y-121342857D01*
X118798810Y-121304762D01*
X118798810Y-120980952D01*
X118970238Y-121019048D02*
X118989286Y-121000000D01*
X119027381Y-120980952D01*
X119122619Y-120980952D01*
X119160715Y-121000000D01*
X119179762Y-121019048D01*
X119198810Y-121057143D01*
X119198810Y-121095238D01*
X119179762Y-121152381D01*
X118951191Y-121380952D01*
X119198810Y-121380952D01*
D14*
X155002381Y-114359524D02*
X156002381Y-113692857D01*
X155002381Y-113692857D02*
X156002381Y-114359524D01*
X156002381Y-112788095D02*
X156002381Y-113359524D01*
X156002381Y-113073810D02*
X155002381Y-113073810D01*
X155145238Y-113169048D01*
X155240476Y-113264286D01*
X155288095Y-113359524D01*
X141283334Y-121707143D02*
X141235715Y-121754762D01*
X141092858Y-121802381D01*
X140997620Y-121802381D01*
X140854762Y-121754762D01*
X140759524Y-121659524D01*
X140711905Y-121564286D01*
X140664286Y-121373810D01*
X140664286Y-121230952D01*
X140711905Y-121040476D01*
X140759524Y-120945238D01*
X140854762Y-120850000D01*
X140997620Y-120802381D01*
X141092858Y-120802381D01*
X141235715Y-120850000D01*
X141283334Y-120897619D01*
X141664286Y-120897619D02*
X141711905Y-120850000D01*
X141807143Y-120802381D01*
X142045239Y-120802381D01*
X142140477Y-120850000D01*
X142188096Y-120897619D01*
X142235715Y-120992857D01*
X142235715Y-121088095D01*
X142188096Y-121230952D01*
X141616667Y-121802381D01*
X142235715Y-121802381D01*
X141233334Y-108652381D02*
X140900000Y-108176190D01*
X140661905Y-108652381D02*
X140661905Y-107652381D01*
X141042858Y-107652381D01*
X141138096Y-107700000D01*
X141185715Y-107747619D01*
X141233334Y-107842857D01*
X141233334Y-107985714D01*
X141185715Y-108080952D01*
X141138096Y-108128571D01*
X141042858Y-108176190D01*
X140661905Y-108176190D01*
X142138096Y-107652381D02*
X141661905Y-107652381D01*
X141614286Y-108128571D01*
X141661905Y-108080952D01*
X141757143Y-108033333D01*
X141995239Y-108033333D01*
X142090477Y-108080952D01*
X142138096Y-108128571D01*
X142185715Y-108223810D01*
X142185715Y-108461905D01*
X142138096Y-108557143D01*
X142090477Y-108604762D01*
X141995239Y-108652381D01*
X141757143Y-108652381D01*
X141661905Y-108604762D01*
X141614286Y-108557143D01*
X157162725Y-128173636D02*
X157115106Y-128221255D01*
X156972249Y-128268874D01*
X156877011Y-128268874D01*
X156734153Y-128221255D01*
X156638915Y-128126017D01*
X156591296Y-128030779D01*
X156543677Y-127840303D01*
X156543677Y-127697445D01*
X156591296Y-127506969D01*
X156638915Y-127411731D01*
X156734153Y-127316493D01*
X156877011Y-127268874D01*
X156972249Y-127268874D01*
X157115106Y-127316493D01*
X157162725Y-127364112D01*
X158115106Y-128268874D02*
X157543677Y-128268874D01*
X157829391Y-128268874D02*
X157829391Y-127268874D01*
X157734153Y-127411731D01*
X157638915Y-127506969D01*
X157543677Y-127554588D01*
X174283334Y-120307143D02*
X174235715Y-120354762D01*
X174092858Y-120402381D01*
X173997620Y-120402381D01*
X173854762Y-120354762D01*
X173759524Y-120259524D01*
X173711905Y-120164286D01*
X173664286Y-119973810D01*
X173664286Y-119830952D01*
X173711905Y-119640476D01*
X173759524Y-119545238D01*
X173854762Y-119450000D01*
X173997620Y-119402381D01*
X174092858Y-119402381D01*
X174235715Y-119450000D01*
X174283334Y-119497619D01*
X174616667Y-119402381D02*
X175235715Y-119402381D01*
X174902381Y-119783333D01*
X175045239Y-119783333D01*
X175140477Y-119830952D01*
X175188096Y-119878571D01*
X175235715Y-119973810D01*
X175235715Y-120211905D01*
X175188096Y-120307143D01*
X175140477Y-120354762D01*
X175045239Y-120402381D01*
X174759524Y-120402381D01*
X174664286Y-120354762D01*
X174616667Y-120307143D01*
X150761534Y-107716666D02*
X150809153Y-107764285D01*
X150856772Y-107907142D01*
X150856772Y-108002380D01*
X150809153Y-108145238D01*
X150713915Y-108240476D01*
X150618677Y-108288095D01*
X150428201Y-108335714D01*
X150285343Y-108335714D01*
X150094867Y-108288095D01*
X149999629Y-108240476D01*
X149904391Y-108145238D01*
X149856772Y-108002380D01*
X149856772Y-107907142D01*
X149904391Y-107764285D01*
X149952010Y-107716666D01*
X150190105Y-106859523D02*
X150856772Y-106859523D01*
X149809153Y-107097619D02*
X150523439Y-107335714D01*
X150523439Y-106716666D01*
X155083334Y-105707143D02*
X155035715Y-105754762D01*
X154892858Y-105802381D01*
X154797620Y-105802381D01*
X154654762Y-105754762D01*
X154559524Y-105659524D01*
X154511905Y-105564286D01*
X154464286Y-105373810D01*
X154464286Y-105230952D01*
X154511905Y-105040476D01*
X154559524Y-104945238D01*
X154654762Y-104850000D01*
X154797620Y-104802381D01*
X154892858Y-104802381D01*
X155035715Y-104850000D01*
X155083334Y-104897619D01*
X155988096Y-104802381D02*
X155511905Y-104802381D01*
X155464286Y-105278571D01*
X155511905Y-105230952D01*
X155607143Y-105183333D01*
X155845239Y-105183333D01*
X155940477Y-105230952D01*
X155988096Y-105278571D01*
X156035715Y-105373810D01*
X156035715Y-105611905D01*
X155988096Y-105707143D01*
X155940477Y-105754762D01*
X155845239Y-105802381D01*
X155607143Y-105802381D01*
X155511905Y-105754762D01*
X155464286Y-105707143D01*
X176961534Y-106816666D02*
X177009153Y-106864285D01*
X177056772Y-107007142D01*
X177056772Y-107102380D01*
X177009153Y-107245238D01*
X176913915Y-107340476D01*
X176818677Y-107388095D01*
X176628201Y-107435714D01*
X176485343Y-107435714D01*
X176294867Y-107388095D01*
X176199629Y-107340476D01*
X176104391Y-107245238D01*
X176056772Y-107102380D01*
X176056772Y-107007142D01*
X176104391Y-106864285D01*
X176152010Y-106816666D01*
X176056772Y-105959523D02*
X176056772Y-106150000D01*
X176104391Y-106245238D01*
X176152010Y-106292857D01*
X176294867Y-106388095D01*
X176485343Y-106435714D01*
X176866296Y-106435714D01*
X176961534Y-106388095D01*
X177009153Y-106340476D01*
X177056772Y-106245238D01*
X177056772Y-106054761D01*
X177009153Y-105959523D01*
X176961534Y-105911904D01*
X176866296Y-105864285D01*
X176628201Y-105864285D01*
X176532962Y-105911904D01*
X176485343Y-105959523D01*
X176437724Y-106054761D01*
X176437724Y-106245238D01*
X176485343Y-106340476D01*
X176532962Y-106388095D01*
X176628201Y-106435714D01*
X151293380Y-122574677D02*
X151245761Y-122622296D01*
X151102904Y-122669915D01*
X151007666Y-122669915D01*
X150864808Y-122622296D01*
X150769570Y-122527058D01*
X150721951Y-122431820D01*
X150674332Y-122241344D01*
X150674332Y-122098486D01*
X150721951Y-121908010D01*
X150769570Y-121812772D01*
X150864808Y-121717534D01*
X151007666Y-121669915D01*
X151102904Y-121669915D01*
X151245761Y-121717534D01*
X151293380Y-121765153D01*
X151864808Y-122098486D02*
X151769570Y-122050867D01*
X151721951Y-122003248D01*
X151674332Y-121908010D01*
X151674332Y-121860391D01*
X151721951Y-121765153D01*
X151769570Y-121717534D01*
X151864808Y-121669915D01*
X152055285Y-121669915D01*
X152150523Y-121717534D01*
X152198142Y-121765153D01*
X152245761Y-121860391D01*
X152245761Y-121908010D01*
X152198142Y-122003248D01*
X152150523Y-122050867D01*
X152055285Y-122098486D01*
X151864808Y-122098486D01*
X151769570Y-122146105D01*
X151721951Y-122193724D01*
X151674332Y-122288963D01*
X151674332Y-122479439D01*
X151721951Y-122574677D01*
X151769570Y-122622296D01*
X151864808Y-122669915D01*
X152055285Y-122669915D01*
X152150523Y-122622296D01*
X152198142Y-122574677D01*
X152245761Y-122479439D01*
X152245761Y-122288963D01*
X152198142Y-122193724D01*
X152150523Y-122146105D01*
X152055285Y-122098486D01*
X151337725Y-127373636D02*
X151290106Y-127421255D01*
X151147249Y-127468874D01*
X151052011Y-127468874D01*
X150909153Y-127421255D01*
X150813915Y-127326017D01*
X150766296Y-127230779D01*
X150718677Y-127040303D01*
X150718677Y-126897445D01*
X150766296Y-126706969D01*
X150813915Y-126611731D01*
X150909153Y-126516493D01*
X151052011Y-126468874D01*
X151147249Y-126468874D01*
X151290106Y-126516493D01*
X151337725Y-126564112D01*
X151813915Y-127468874D02*
X152004391Y-127468874D01*
X152099630Y-127421255D01*
X152147249Y-127373636D01*
X152242487Y-127230779D01*
X152290106Y-127040303D01*
X152290106Y-126659350D01*
X152242487Y-126564112D01*
X152194868Y-126516493D01*
X152099630Y-126468874D01*
X151909153Y-126468874D01*
X151813915Y-126516493D01*
X151766296Y-126564112D01*
X151718677Y-126659350D01*
X151718677Y-126897445D01*
X151766296Y-126992683D01*
X151813915Y-127040303D01*
X151909153Y-127087922D01*
X152099630Y-127087922D01*
X152194868Y-127040303D01*
X152242487Y-126992683D01*
X152290106Y-126897445D01*
D21*
X126322343Y-109139857D02*
X126358629Y-109176143D01*
X126394914Y-109285000D01*
X126394914Y-109357571D01*
X126358629Y-109466428D01*
X126286057Y-109539000D01*
X126213486Y-109575285D01*
X126068343Y-109611571D01*
X125959486Y-109611571D01*
X125814343Y-109575285D01*
X125741771Y-109539000D01*
X125669200Y-109466428D01*
X125632914Y-109357571D01*
X125632914Y-109285000D01*
X125669200Y-109176143D01*
X125705486Y-109139857D01*
X126394914Y-108414143D02*
X126394914Y-108849571D01*
X126394914Y-108631857D02*
X125632914Y-108631857D01*
X125741771Y-108704428D01*
X125814343Y-108777000D01*
X125850629Y-108849571D01*
X125632914Y-107942429D02*
X125632914Y-107869857D01*
X125669200Y-107797286D01*
X125705486Y-107761000D01*
X125778057Y-107724714D01*
X125923200Y-107688429D01*
X126104629Y-107688429D01*
X126249771Y-107724714D01*
X126322343Y-107761000D01*
X126358629Y-107797286D01*
X126394914Y-107869857D01*
X126394914Y-107942429D01*
X126358629Y-108015000D01*
X126322343Y-108051286D01*
X126249771Y-108087571D01*
X126104629Y-108123857D01*
X125923200Y-108123857D01*
X125778057Y-108087571D01*
X125705486Y-108051286D01*
X125669200Y-108015000D01*
X125632914Y-107942429D01*
D16*
X131796857Y-116313877D02*
X131748476Y-116362258D01*
X131603333Y-116410639D01*
X131506571Y-116410639D01*
X131361429Y-116362258D01*
X131264667Y-116265496D01*
X131216286Y-116168734D01*
X131167905Y-115975210D01*
X131167905Y-115830068D01*
X131216286Y-115636544D01*
X131264667Y-115539782D01*
X131361429Y-115443020D01*
X131506571Y-115394639D01*
X131603333Y-115394639D01*
X131748476Y-115443020D01*
X131796857Y-115491401D01*
X132764476Y-116410639D02*
X132183905Y-116410639D01*
X132474191Y-116410639D02*
X132474191Y-115394639D01*
X132377429Y-115539782D01*
X132280667Y-115636544D01*
X132183905Y-115684925D01*
X133732095Y-116410639D02*
X133151524Y-116410639D01*
X133441810Y-116410639D02*
X133441810Y-115394639D01*
X133345048Y-115539782D01*
X133248286Y-115636544D01*
X133151524Y-115684925D01*
D14*
X110638153Y-137100593D02*
X110685772Y-137148212D01*
X110733391Y-137291069D01*
X110733391Y-137386307D01*
X110685772Y-137529165D01*
X110590534Y-137624403D01*
X110495296Y-137672022D01*
X110304820Y-137719641D01*
X110161962Y-137719641D01*
X109971486Y-137672022D01*
X109876248Y-137624403D01*
X109781010Y-137529165D01*
X109733391Y-137386307D01*
X109733391Y-137291069D01*
X109781010Y-137148212D01*
X109828629Y-137100593D01*
X110733391Y-136148212D02*
X110733391Y-136719641D01*
X110733391Y-136433927D02*
X109733391Y-136433927D01*
X109876248Y-136529165D01*
X109971486Y-136624403D01*
X110019105Y-136719641D01*
X109828629Y-135767260D02*
X109781010Y-135719641D01*
X109733391Y-135624403D01*
X109733391Y-135386307D01*
X109781010Y-135291069D01*
X109828629Y-135243450D01*
X109923867Y-135195831D01*
X110019105Y-135195831D01*
X110161962Y-135243450D01*
X110733391Y-135814879D01*
X110733391Y-135195831D01*
X112638153Y-137100593D02*
X112685772Y-137148212D01*
X112733391Y-137291069D01*
X112733391Y-137386307D01*
X112685772Y-137529165D01*
X112590534Y-137624403D01*
X112495296Y-137672022D01*
X112304820Y-137719641D01*
X112161962Y-137719641D01*
X111971486Y-137672022D01*
X111876248Y-137624403D01*
X111781010Y-137529165D01*
X111733391Y-137386307D01*
X111733391Y-137291069D01*
X111781010Y-137148212D01*
X111828629Y-137100593D01*
X112733391Y-136148212D02*
X112733391Y-136719641D01*
X112733391Y-136433927D02*
X111733391Y-136433927D01*
X111876248Y-136529165D01*
X111971486Y-136624403D01*
X112019105Y-136719641D01*
X111733391Y-135814879D02*
X111733391Y-135195831D01*
X112114343Y-135529165D01*
X112114343Y-135386307D01*
X112161962Y-135291069D01*
X112209581Y-135243450D01*
X112304820Y-135195831D01*
X112542915Y-135195831D01*
X112638153Y-135243450D01*
X112685772Y-135291069D01*
X112733391Y-135386307D01*
X112733391Y-135672022D01*
X112685772Y-135767260D01*
X112638153Y-135814879D01*
X193907143Y-143092857D02*
X193954762Y-143140476D01*
X194002381Y-143283333D01*
X194002381Y-143378571D01*
X193954762Y-143521429D01*
X193859524Y-143616667D01*
X193764286Y-143664286D01*
X193573810Y-143711905D01*
X193430952Y-143711905D01*
X193240476Y-143664286D01*
X193145238Y-143616667D01*
X193050000Y-143521429D01*
X193002381Y-143378571D01*
X193002381Y-143283333D01*
X193050000Y-143140476D01*
X193097619Y-143092857D01*
X194002381Y-142140476D02*
X194002381Y-142711905D01*
X194002381Y-142426191D02*
X193002381Y-142426191D01*
X193145238Y-142521429D01*
X193240476Y-142616667D01*
X193288095Y-142711905D01*
X193335714Y-141283333D02*
X194002381Y-141283333D01*
X192954762Y-141521429D02*
X193669048Y-141759524D01*
X193669048Y-141140476D01*
X187907143Y-143092857D02*
X187954762Y-143140476D01*
X188002381Y-143283333D01*
X188002381Y-143378571D01*
X187954762Y-143521429D01*
X187859524Y-143616667D01*
X187764286Y-143664286D01*
X187573810Y-143711905D01*
X187430952Y-143711905D01*
X187240476Y-143664286D01*
X187145238Y-143616667D01*
X187050000Y-143521429D01*
X187002381Y-143378571D01*
X187002381Y-143283333D01*
X187050000Y-143140476D01*
X187097619Y-143092857D01*
X188002381Y-142140476D02*
X188002381Y-142711905D01*
X188002381Y-142426191D02*
X187002381Y-142426191D01*
X187145238Y-142521429D01*
X187240476Y-142616667D01*
X187288095Y-142711905D01*
X187002381Y-141235714D02*
X187002381Y-141711905D01*
X187478571Y-141759524D01*
X187430952Y-141711905D01*
X187383333Y-141616667D01*
X187383333Y-141378571D01*
X187430952Y-141283333D01*
X187478571Y-141235714D01*
X187573810Y-141188095D01*
X187811905Y-141188095D01*
X187907143Y-141235714D01*
X187954762Y-141283333D01*
X188002381Y-141378571D01*
X188002381Y-141616667D01*
X187954762Y-141711905D01*
X187907143Y-141759524D01*
X186707143Y-148692857D02*
X186754762Y-148740476D01*
X186802381Y-148883333D01*
X186802381Y-148978571D01*
X186754762Y-149121429D01*
X186659524Y-149216667D01*
X186564286Y-149264286D01*
X186373810Y-149311905D01*
X186230952Y-149311905D01*
X186040476Y-149264286D01*
X185945238Y-149216667D01*
X185850000Y-149121429D01*
X185802381Y-148978571D01*
X185802381Y-148883333D01*
X185850000Y-148740476D01*
X185897619Y-148692857D01*
X186802381Y-147740476D02*
X186802381Y-148311905D01*
X186802381Y-148026191D02*
X185802381Y-148026191D01*
X185945238Y-148121429D01*
X186040476Y-148216667D01*
X186088095Y-148311905D01*
X185802381Y-146883333D02*
X185802381Y-147073810D01*
X185850000Y-147169048D01*
X185897619Y-147216667D01*
X186040476Y-147311905D01*
X186230952Y-147359524D01*
X186611905Y-147359524D01*
X186707143Y-147311905D01*
X186754762Y-147264286D01*
X186802381Y-147169048D01*
X186802381Y-146978571D01*
X186754762Y-146883333D01*
X186707143Y-146835714D01*
X186611905Y-146788095D01*
X186373810Y-146788095D01*
X186278571Y-146835714D01*
X186230952Y-146883333D01*
X186183333Y-146978571D01*
X186183333Y-147169048D01*
X186230952Y-147264286D01*
X186278571Y-147311905D01*
X186373810Y-147359524D01*
X190907143Y-143092857D02*
X190954762Y-143140476D01*
X191002381Y-143283333D01*
X191002381Y-143378571D01*
X190954762Y-143521429D01*
X190859524Y-143616667D01*
X190764286Y-143664286D01*
X190573810Y-143711905D01*
X190430952Y-143711905D01*
X190240476Y-143664286D01*
X190145238Y-143616667D01*
X190050000Y-143521429D01*
X190002381Y-143378571D01*
X190002381Y-143283333D01*
X190050000Y-143140476D01*
X190097619Y-143092857D01*
X191002381Y-142140476D02*
X191002381Y-142711905D01*
X191002381Y-142426191D02*
X190002381Y-142426191D01*
X190145238Y-142521429D01*
X190240476Y-142616667D01*
X190288095Y-142711905D01*
X190002381Y-141807143D02*
X190002381Y-141140476D01*
X191002381Y-141569048D01*
X189707143Y-148692857D02*
X189754762Y-148740476D01*
X189802381Y-148883333D01*
X189802381Y-148978571D01*
X189754762Y-149121429D01*
X189659524Y-149216667D01*
X189564286Y-149264286D01*
X189373810Y-149311905D01*
X189230952Y-149311905D01*
X189040476Y-149264286D01*
X188945238Y-149216667D01*
X188850000Y-149121429D01*
X188802381Y-148978571D01*
X188802381Y-148883333D01*
X188850000Y-148740476D01*
X188897619Y-148692857D01*
X189802381Y-147740476D02*
X189802381Y-148311905D01*
X189802381Y-148026191D02*
X188802381Y-148026191D01*
X188945238Y-148121429D01*
X189040476Y-148216667D01*
X189088095Y-148311905D01*
X189230952Y-147169048D02*
X189183333Y-147264286D01*
X189135714Y-147311905D01*
X189040476Y-147359524D01*
X188992857Y-147359524D01*
X188897619Y-147311905D01*
X188850000Y-147264286D01*
X188802381Y-147169048D01*
X188802381Y-146978571D01*
X188850000Y-146883333D01*
X188897619Y-146835714D01*
X188992857Y-146788095D01*
X189040476Y-146788095D01*
X189135714Y-146835714D01*
X189183333Y-146883333D01*
X189230952Y-146978571D01*
X189230952Y-147169048D01*
X189278571Y-147264286D01*
X189326190Y-147311905D01*
X189421429Y-147359524D01*
X189611905Y-147359524D01*
X189707143Y-147311905D01*
X189754762Y-147264286D01*
X189802381Y-147169048D01*
X189802381Y-146978571D01*
X189754762Y-146883333D01*
X189707143Y-146835714D01*
X189611905Y-146788095D01*
X189421429Y-146788095D01*
X189326190Y-146835714D01*
X189278571Y-146883333D01*
X189230952Y-146978571D01*
X183707143Y-148692857D02*
X183754762Y-148740476D01*
X183802381Y-148883333D01*
X183802381Y-148978571D01*
X183754762Y-149121429D01*
X183659524Y-149216667D01*
X183564286Y-149264286D01*
X183373810Y-149311905D01*
X183230952Y-149311905D01*
X183040476Y-149264286D01*
X182945238Y-149216667D01*
X182850000Y-149121429D01*
X182802381Y-148978571D01*
X182802381Y-148883333D01*
X182850000Y-148740476D01*
X182897619Y-148692857D01*
X183802381Y-147740476D02*
X183802381Y-148311905D01*
X183802381Y-148026191D02*
X182802381Y-148026191D01*
X182945238Y-148121429D01*
X183040476Y-148216667D01*
X183088095Y-148311905D01*
X183802381Y-147264286D02*
X183802381Y-147073810D01*
X183754762Y-146978571D01*
X183707143Y-146930952D01*
X183564286Y-146835714D01*
X183373810Y-146788095D01*
X182992857Y-146788095D01*
X182897619Y-146835714D01*
X182850000Y-146883333D01*
X182802381Y-146978571D01*
X182802381Y-147169048D01*
X182850000Y-147264286D01*
X182897619Y-147311905D01*
X182992857Y-147359524D01*
X183230952Y-147359524D01*
X183326190Y-147311905D01*
X183373810Y-147264286D01*
X183421429Y-147169048D01*
X183421429Y-146978571D01*
X183373810Y-146883333D01*
X183326190Y-146835714D01*
X183230952Y-146788095D01*
D16*
X173871857Y-147686837D02*
X173823476Y-147735218D01*
X173678333Y-147783599D01*
X173581571Y-147783599D01*
X173436429Y-147735218D01*
X173339667Y-147638456D01*
X173291286Y-147541694D01*
X173242905Y-147348170D01*
X173242905Y-147203028D01*
X173291286Y-147009504D01*
X173339667Y-146912742D01*
X173436429Y-146815980D01*
X173581571Y-146767599D01*
X173678333Y-146767599D01*
X173823476Y-146815980D01*
X173871857Y-146864361D01*
X174258905Y-146864361D02*
X174307286Y-146815980D01*
X174404048Y-146767599D01*
X174645952Y-146767599D01*
X174742714Y-146815980D01*
X174791095Y-146864361D01*
X174839476Y-146961123D01*
X174839476Y-147057885D01*
X174791095Y-147203028D01*
X174210524Y-147783599D01*
X174839476Y-147783599D01*
X175468429Y-146767599D02*
X175565190Y-146767599D01*
X175661952Y-146815980D01*
X175710333Y-146864361D01*
X175758714Y-146961123D01*
X175807095Y-147154647D01*
X175807095Y-147396551D01*
X175758714Y-147590075D01*
X175710333Y-147686837D01*
X175661952Y-147735218D01*
X175565190Y-147783599D01*
X175468429Y-147783599D01*
X175371667Y-147735218D01*
X175323286Y-147686837D01*
X175274905Y-147590075D01*
X175226524Y-147396551D01*
X175226524Y-147154647D01*
X175274905Y-146961123D01*
X175323286Y-146864361D01*
X175371667Y-146815980D01*
X175468429Y-146767599D01*
X124621857Y-145161837D02*
X124573476Y-145210218D01*
X124428333Y-145258599D01*
X124331571Y-145258599D01*
X124186429Y-145210218D01*
X124089667Y-145113456D01*
X124041286Y-145016694D01*
X123992905Y-144823170D01*
X123992905Y-144678028D01*
X124041286Y-144484504D01*
X124089667Y-144387742D01*
X124186429Y-144290980D01*
X124331571Y-144242599D01*
X124428333Y-144242599D01*
X124573476Y-144290980D01*
X124621857Y-144339361D01*
X125008905Y-144339361D02*
X125057286Y-144290980D01*
X125154048Y-144242599D01*
X125395952Y-144242599D01*
X125492714Y-144290980D01*
X125541095Y-144339361D01*
X125589476Y-144436123D01*
X125589476Y-144532885D01*
X125541095Y-144678028D01*
X124960524Y-145258599D01*
X125589476Y-145258599D01*
X125976524Y-144339361D02*
X126024905Y-144290980D01*
X126121667Y-144242599D01*
X126363571Y-144242599D01*
X126460333Y-144290980D01*
X126508714Y-144339361D01*
X126557095Y-144436123D01*
X126557095Y-144532885D01*
X126508714Y-144678028D01*
X125928143Y-145258599D01*
X126557095Y-145258599D01*
X157496857Y-147686837D02*
X157448476Y-147735218D01*
X157303333Y-147783599D01*
X157206571Y-147783599D01*
X157061429Y-147735218D01*
X156964667Y-147638456D01*
X156916286Y-147541694D01*
X156867905Y-147348170D01*
X156867905Y-147203028D01*
X156916286Y-147009504D01*
X156964667Y-146912742D01*
X157061429Y-146815980D01*
X157206571Y-146767599D01*
X157303333Y-146767599D01*
X157448476Y-146815980D01*
X157496857Y-146864361D01*
X157883905Y-146864361D02*
X157932286Y-146815980D01*
X158029048Y-146767599D01*
X158270952Y-146767599D01*
X158367714Y-146815980D01*
X158416095Y-146864361D01*
X158464476Y-146961123D01*
X158464476Y-147057885D01*
X158416095Y-147203028D01*
X157835524Y-147783599D01*
X158464476Y-147783599D01*
X158803143Y-146767599D02*
X159432095Y-146767599D01*
X159093429Y-147154647D01*
X159238571Y-147154647D01*
X159335333Y-147203028D01*
X159383714Y-147251409D01*
X159432095Y-147348170D01*
X159432095Y-147590075D01*
X159383714Y-147686837D01*
X159335333Y-147735218D01*
X159238571Y-147783599D01*
X158948286Y-147783599D01*
X158851524Y-147735218D01*
X158803143Y-147686837D01*
D14*
X152661534Y-111709350D02*
X152709153Y-111756969D01*
X152756772Y-111899826D01*
X152756772Y-111995064D01*
X152709153Y-112137922D01*
X152613915Y-112233160D01*
X152518677Y-112280779D01*
X152328201Y-112328398D01*
X152185343Y-112328398D01*
X151994867Y-112280779D01*
X151899629Y-112233160D01*
X151804391Y-112137922D01*
X151756772Y-111995064D01*
X151756772Y-111899826D01*
X151804391Y-111756969D01*
X151852010Y-111709350D01*
X151852010Y-111328398D02*
X151804391Y-111280779D01*
X151756772Y-111185541D01*
X151756772Y-110947445D01*
X151804391Y-110852207D01*
X151852010Y-110804588D01*
X151947248Y-110756969D01*
X152042486Y-110756969D01*
X152185343Y-110804588D01*
X152756772Y-111376017D01*
X152756772Y-110756969D01*
X152090105Y-109899826D02*
X152756772Y-109899826D01*
X151709153Y-110137922D02*
X152423439Y-110376017D01*
X152423439Y-109756969D01*
X152667189Y-117010391D02*
X152714808Y-117058010D01*
X152762427Y-117200867D01*
X152762427Y-117296105D01*
X152714808Y-117438963D01*
X152619570Y-117534201D01*
X152524332Y-117581820D01*
X152333856Y-117629439D01*
X152190998Y-117629439D01*
X152000522Y-117581820D01*
X151905284Y-117534201D01*
X151810046Y-117438963D01*
X151762427Y-117296105D01*
X151762427Y-117200867D01*
X151810046Y-117058010D01*
X151857665Y-117010391D01*
X151857665Y-116629439D02*
X151810046Y-116581820D01*
X151762427Y-116486582D01*
X151762427Y-116248486D01*
X151810046Y-116153248D01*
X151857665Y-116105629D01*
X151952903Y-116058010D01*
X152048141Y-116058010D01*
X152190998Y-116105629D01*
X152762427Y-116677058D01*
X152762427Y-116058010D01*
X151762427Y-115153248D02*
X151762427Y-115629439D01*
X152238617Y-115677058D01*
X152190998Y-115629439D01*
X152143379Y-115534201D01*
X152143379Y-115296105D01*
X152190998Y-115200867D01*
X152238617Y-115153248D01*
X152333856Y-115105629D01*
X152571951Y-115105629D01*
X152667189Y-115153248D01*
X152714808Y-115200867D01*
X152762427Y-115296105D01*
X152762427Y-115534201D01*
X152714808Y-115629439D01*
X152667189Y-115677058D01*
D22*
X112311344Y-92601765D02*
X112311344Y-91601005D01*
X112549620Y-91601005D01*
X112692586Y-91648660D01*
X112787897Y-91743970D01*
X112835552Y-91839281D01*
X112883207Y-92029902D01*
X112883207Y-92172868D01*
X112835552Y-92363489D01*
X112787897Y-92458799D01*
X112692586Y-92554110D01*
X112549620Y-92601765D01*
X112311344Y-92601765D01*
X113836312Y-92601765D02*
X113264449Y-92601765D01*
X113550380Y-92601765D02*
X113550380Y-91601005D01*
X113455070Y-91743970D01*
X113359759Y-91839281D01*
X113264449Y-91886936D01*
D14*
X109892857Y-113702381D02*
X109892857Y-112702381D01*
X110226191Y-113416667D01*
X110559524Y-112702381D01*
X110559524Y-113702381D01*
X111035714Y-113702381D02*
X111035714Y-113035714D01*
X111035714Y-112702381D02*
X110988095Y-112750000D01*
X111035714Y-112797619D01*
X111083333Y-112750000D01*
X111035714Y-112702381D01*
X111035714Y-112797619D01*
X111511904Y-113035714D02*
X111511904Y-113702381D01*
X111511904Y-113130952D02*
X111559523Y-113083333D01*
X111654761Y-113035714D01*
X111797619Y-113035714D01*
X111892857Y-113083333D01*
X111940476Y-113178571D01*
X111940476Y-113702381D01*
X112416666Y-113702381D02*
X112416666Y-113035714D01*
X112416666Y-112702381D02*
X112369047Y-112750000D01*
X112416666Y-112797619D01*
X112464285Y-112750000D01*
X112416666Y-112702381D01*
X112416666Y-112797619D01*
X113988095Y-113178571D02*
X113654761Y-113178571D01*
X113654761Y-113702381D02*
X113654761Y-112702381D01*
X114130952Y-112702381D01*
X114940476Y-113035714D02*
X114940476Y-113702381D01*
X114511904Y-113035714D02*
X114511904Y-113559524D01*
X114559523Y-113654762D01*
X114654761Y-113702381D01*
X114797619Y-113702381D01*
X114892857Y-113654762D01*
X114940476Y-113607143D01*
X115369047Y-113654762D02*
X115464285Y-113702381D01*
X115654761Y-113702381D01*
X115750000Y-113654762D01*
X115797619Y-113559524D01*
X115797619Y-113511905D01*
X115750000Y-113416667D01*
X115654761Y-113369048D01*
X115511904Y-113369048D01*
X115416666Y-113321429D01*
X115369047Y-113226190D01*
X115369047Y-113178571D01*
X115416666Y-113083333D01*
X115511904Y-113035714D01*
X115654761Y-113035714D01*
X115750000Y-113083333D01*
X116607143Y-113654762D02*
X116511905Y-113702381D01*
X116321428Y-113702381D01*
X116226190Y-113654762D01*
X116178571Y-113559524D01*
X116178571Y-113178571D01*
X116226190Y-113083333D01*
X116321428Y-113035714D01*
X116511905Y-113035714D01*
X116607143Y-113083333D01*
X116654762Y-113178571D01*
X116654762Y-113273810D01*
X116178571Y-113369048D01*
X157402381Y-91176190D02*
X156402381Y-91176190D01*
X157307143Y-90128571D02*
X157354762Y-90176190D01*
X157402381Y-90319047D01*
X157402381Y-90414285D01*
X157354762Y-90557143D01*
X157259524Y-90652381D01*
X157164286Y-90700000D01*
X156973810Y-90747619D01*
X156830952Y-90747619D01*
X156640476Y-90700000D01*
X156545238Y-90652381D01*
X156450000Y-90557143D01*
X156402381Y-90414285D01*
X156402381Y-90319047D01*
X156450000Y-90176190D01*
X156497619Y-90128571D01*
X157402381Y-89176190D02*
X157402381Y-89747619D01*
X157402381Y-89461905D02*
X156402381Y-89461905D01*
X156545238Y-89557143D01*
X156640476Y-89652381D01*
X156688095Y-89747619D01*
X153387725Y-124918874D02*
X152911534Y-124918874D01*
X152911534Y-123918874D01*
X154244868Y-124918874D02*
X153673439Y-124918874D01*
X153959153Y-124918874D02*
X153959153Y-123918874D01*
X153863915Y-124061731D01*
X153768677Y-124156969D01*
X153673439Y-124204588D01*
D23*
D12*
D14*
X104802381Y-128366666D02*
X104326190Y-128700000D01*
X104802381Y-128938095D02*
X103802381Y-128938095D01*
X103802381Y-128557142D01*
X103850000Y-128461904D01*
X103897619Y-128414285D01*
X103992857Y-128366666D01*
X104135714Y-128366666D01*
X104230952Y-128414285D01*
X104278571Y-128461904D01*
X104326190Y-128557142D01*
X104326190Y-128938095D01*
X104802381Y-127414285D02*
X104802381Y-127985714D01*
X104802381Y-127700000D02*
X103802381Y-127700000D01*
X103945238Y-127795238D01*
X104040476Y-127890476D01*
X104088095Y-127985714D01*
X174358334Y-143127381D02*
X174025000Y-142651190D01*
X173786905Y-143127381D02*
X173786905Y-142127381D01*
X174167858Y-142127381D01*
X174263096Y-142175000D01*
X174310715Y-142222619D01*
X174358334Y-142317857D01*
X174358334Y-142460714D01*
X174310715Y-142555952D01*
X174263096Y-142603571D01*
X174167858Y-142651190D01*
X173786905Y-142651190D01*
X174929762Y-142555952D02*
X174834524Y-142508333D01*
X174786905Y-142460714D01*
X174739286Y-142365476D01*
X174739286Y-142317857D01*
X174786905Y-142222619D01*
X174834524Y-142175000D01*
X174929762Y-142127381D01*
X175120239Y-142127381D01*
X175215477Y-142175000D01*
X175263096Y-142222619D01*
X175310715Y-142317857D01*
X175310715Y-142365476D01*
X175263096Y-142460714D01*
X175215477Y-142508333D01*
X175120239Y-142555952D01*
X174929762Y-142555952D01*
X174834524Y-142603571D01*
X174786905Y-142651190D01*
X174739286Y-142746429D01*
X174739286Y-142936905D01*
X174786905Y-143032143D01*
X174834524Y-143079762D01*
X174929762Y-143127381D01*
X175120239Y-143127381D01*
X175215477Y-143079762D01*
X175263096Y-143032143D01*
X175310715Y-142936905D01*
X175310715Y-142746429D01*
X175263096Y-142651190D01*
X175215477Y-142603571D01*
X175120239Y-142555952D01*
X141608334Y-143127381D02*
X141275000Y-142651190D01*
X141036905Y-143127381D02*
X141036905Y-142127381D01*
X141417858Y-142127381D01*
X141513096Y-142175000D01*
X141560715Y-142222619D01*
X141608334Y-142317857D01*
X141608334Y-142460714D01*
X141560715Y-142555952D01*
X141513096Y-142603571D01*
X141417858Y-142651190D01*
X141036905Y-142651190D01*
X142084524Y-143127381D02*
X142275000Y-143127381D01*
X142370239Y-143079762D01*
X142417858Y-143032143D01*
X142513096Y-142889286D01*
X142560715Y-142698810D01*
X142560715Y-142317857D01*
X142513096Y-142222619D01*
X142465477Y-142175000D01*
X142370239Y-142127381D01*
X142179762Y-142127381D01*
X142084524Y-142175000D01*
X142036905Y-142222619D01*
X141989286Y-142317857D01*
X141989286Y-142555952D01*
X142036905Y-142651190D01*
X142084524Y-142698810D01*
X142179762Y-142746429D01*
X142370239Y-142746429D01*
X142465477Y-142698810D01*
X142513096Y-142651190D01*
X142560715Y-142555952D01*
X157507143Y-143127381D02*
X157173809Y-142651190D01*
X156935714Y-143127381D02*
X156935714Y-142127381D01*
X157316667Y-142127381D01*
X157411905Y-142175000D01*
X157459524Y-142222619D01*
X157507143Y-142317857D01*
X157507143Y-142460714D01*
X157459524Y-142555952D01*
X157411905Y-142603571D01*
X157316667Y-142651190D01*
X156935714Y-142651190D01*
X158459524Y-143127381D02*
X157888095Y-143127381D01*
X158173809Y-143127381D02*
X158173809Y-142127381D01*
X158078571Y-142270238D01*
X157983333Y-142365476D01*
X157888095Y-142413095D01*
X159078571Y-142127381D02*
X159173810Y-142127381D01*
X159269048Y-142175000D01*
X159316667Y-142222619D01*
X159364286Y-142317857D01*
X159411905Y-142508333D01*
X159411905Y-142746429D01*
X159364286Y-142936905D01*
X159316667Y-143032143D01*
X159269048Y-143079762D01*
X159173810Y-143127381D01*
X159078571Y-143127381D01*
X158983333Y-143079762D01*
X158935714Y-143032143D01*
X158888095Y-142936905D01*
X158840476Y-142746429D01*
X158840476Y-142508333D01*
X158888095Y-142317857D01*
X158935714Y-142222619D01*
X158983333Y-142175000D01*
X159078571Y-142127381D01*
X124657143Y-140602381D02*
X124323809Y-140126190D01*
X124085714Y-140602381D02*
X124085714Y-139602381D01*
X124466667Y-139602381D01*
X124561905Y-139650000D01*
X124609524Y-139697619D01*
X124657143Y-139792857D01*
X124657143Y-139935714D01*
X124609524Y-140030952D01*
X124561905Y-140078571D01*
X124466667Y-140126190D01*
X124085714Y-140126190D01*
X125609524Y-140602381D02*
X125038095Y-140602381D01*
X125323809Y-140602381D02*
X125323809Y-139602381D01*
X125228571Y-139745238D01*
X125133333Y-139840476D01*
X125038095Y-139888095D01*
X126561905Y-140602381D02*
X125990476Y-140602381D01*
X126276190Y-140602381D02*
X126276190Y-139602381D01*
X126180952Y-139745238D01*
X126085714Y-139840476D01*
X125990476Y-139888095D01*
X147802381Y-91792857D02*
X147326190Y-92126191D01*
X147802381Y-92364286D02*
X146802381Y-92364286D01*
X146802381Y-91983333D01*
X146850000Y-91888095D01*
X146897619Y-91840476D01*
X146992857Y-91792857D01*
X147135714Y-91792857D01*
X147230952Y-91840476D01*
X147278571Y-91888095D01*
X147326190Y-91983333D01*
X147326190Y-92364286D01*
X147802381Y-90840476D02*
X147802381Y-91411905D01*
X147802381Y-91126191D02*
X146802381Y-91126191D01*
X146945238Y-91221429D01*
X147040476Y-91316667D01*
X147088095Y-91411905D01*
X146897619Y-90459524D02*
X146850000Y-90411905D01*
X146802381Y-90316667D01*
X146802381Y-90078571D01*
X146850000Y-89983333D01*
X146897619Y-89935714D01*
X146992857Y-89888095D01*
X147088095Y-89888095D01*
X147230952Y-89935714D01*
X147802381Y-90507143D01*
X147802381Y-89888095D01*
X155802381Y-91842857D02*
X155326190Y-92176191D01*
X155802381Y-92414286D02*
X154802381Y-92414286D01*
X154802381Y-92033333D01*
X154850000Y-91938095D01*
X154897619Y-91890476D01*
X154992857Y-91842857D01*
X155135714Y-91842857D01*
X155230952Y-91890476D01*
X155278571Y-91938095D01*
X155326190Y-92033333D01*
X155326190Y-92414286D01*
X155802381Y-90890476D02*
X155802381Y-91461905D01*
X155802381Y-91176191D02*
X154802381Y-91176191D01*
X154945238Y-91271429D01*
X155040476Y-91366667D01*
X155088095Y-91461905D01*
X154802381Y-90557143D02*
X154802381Y-89938095D01*
X155183333Y-90271429D01*
X155183333Y-90128571D01*
X155230952Y-90033333D01*
X155278571Y-89985714D01*
X155373810Y-89938095D01*
X155611905Y-89938095D01*
X155707143Y-89985714D01*
X155754762Y-90033333D01*
X155802381Y-90128571D01*
X155802381Y-90414286D01*
X155754762Y-90509524D01*
X155707143Y-90557143D01*
D24*
D19*
D25*
D14*
X175210715Y-138277381D02*
X174639286Y-138277381D01*
X174925000Y-138277381D02*
X174925000Y-137277381D01*
X174829762Y-137420238D01*
X174734524Y-137515476D01*
X174639286Y-137563095D01*
D19*
D25*
D14*
X142460715Y-138277381D02*
X141889286Y-138277381D01*
X142175000Y-138277381D02*
X142175000Y-137277381D01*
X142079762Y-137420238D01*
X141984524Y-137515476D01*
X141889286Y-137563095D01*
D19*
D25*
D14*
X125960715Y-135752381D02*
X125389286Y-135752381D01*
X125675000Y-135752381D02*
X125675000Y-134752381D01*
X125579762Y-134895238D01*
X125484524Y-134990476D01*
X125389286Y-135038095D01*
D19*
D25*
D14*
X158835715Y-138277381D02*
X158264286Y-138277381D01*
X158550000Y-138277381D02*
X158550000Y-137277381D01*
X158454762Y-137420238D01*
X158359524Y-137515476D01*
X158264286Y-137563095D01*
X115452381Y-131616666D02*
X115452381Y-132092857D01*
X114452381Y-132092857D01*
X114547619Y-131330952D02*
X114500000Y-131283333D01*
X114452381Y-131188095D01*
X114452381Y-130949999D01*
X114500000Y-130854761D01*
X114547619Y-130807142D01*
X114642857Y-130759523D01*
X114738095Y-130759523D01*
X114880952Y-130807142D01*
X115452381Y-131378571D01*
X115452381Y-130759523D01*
X110469105Y-138060117D02*
X110469105Y-138869641D01*
X110516724Y-138964879D01*
X110564343Y-139012498D01*
X110659581Y-139060117D01*
X110850058Y-139060117D01*
X110945296Y-139012498D01*
X110992915Y-138964879D01*
X111040534Y-138869641D01*
X111040534Y-138060117D01*
X111945296Y-138393450D02*
X111945296Y-139060117D01*
X111707200Y-138012498D02*
X111469105Y-138726784D01*
X112088153Y-138726784D01*
D19*
D25*
D14*
X165835715Y-98002381D02*
X165264286Y-98002381D01*
X165550000Y-98002381D02*
X165550000Y-97002381D01*
X165454762Y-97145238D01*
X165359524Y-97240476D01*
X165264286Y-97288095D01*
X193282381Y-121108095D02*
X192282381Y-121108095D01*
X192282381Y-120727142D01*
X192330000Y-120631904D01*
X192377619Y-120584285D01*
X192472857Y-120536666D01*
X192615714Y-120536666D01*
X192710952Y-120584285D01*
X192758571Y-120631904D01*
X192806190Y-120727142D01*
X192806190Y-121108095D01*
X192282381Y-119679523D02*
X192282381Y-119870000D01*
X192330000Y-119965238D01*
X192377619Y-120012857D01*
X192520476Y-120108095D01*
X192710952Y-120155714D01*
X193091905Y-120155714D01*
X193187143Y-120108095D01*
X193234762Y-120060476D01*
X193282381Y-119965238D01*
X193282381Y-119774761D01*
X193234762Y-119679523D01*
X193187143Y-119631904D01*
X193091905Y-119584285D01*
X192853810Y-119584285D01*
X192758571Y-119631904D01*
X192710952Y-119679523D01*
X192663333Y-119774761D01*
X192663333Y-119965238D01*
X192710952Y-120060476D01*
X192758571Y-120108095D01*
X192853810Y-120155714D01*
X125307143Y-119266666D02*
X125354762Y-119314285D01*
X125402381Y-119457142D01*
X125402381Y-119552380D01*
X125354762Y-119695238D01*
X125259524Y-119790476D01*
X125164286Y-119838095D01*
X124973810Y-119885714D01*
X124830952Y-119885714D01*
X124640476Y-119838095D01*
X124545238Y-119790476D01*
X124450000Y-119695238D01*
X124402381Y-119552380D01*
X124402381Y-119457142D01*
X124450000Y-119314285D01*
X124497619Y-119266666D01*
X124402381Y-118933333D02*
X124402381Y-118266666D01*
X125402381Y-118695238D01*
X121158334Y-121002381D02*
X120825000Y-120526190D01*
X120586905Y-121002381D02*
X120586905Y-120002381D01*
X120967858Y-120002381D01*
X121063096Y-120050000D01*
X121110715Y-120097619D01*
X121158334Y-120192857D01*
X121158334Y-120335714D01*
X121110715Y-120430952D01*
X121063096Y-120478571D01*
X120967858Y-120526190D01*
X120586905Y-120526190D01*
X121539286Y-120097619D02*
X121586905Y-120050000D01*
X121682143Y-120002381D01*
X121920239Y-120002381D01*
X122015477Y-120050000D01*
X122063096Y-120097619D01*
X122110715Y-120192857D01*
X122110715Y-120288095D01*
X122063096Y-120430952D01*
X121491667Y-121002381D01*
X122110715Y-121002381D01*
X121158334Y-118102381D02*
X120825000Y-117626190D01*
X120586905Y-118102381D02*
X120586905Y-117102381D01*
X120967858Y-117102381D01*
X121063096Y-117150000D01*
X121110715Y-117197619D01*
X121158334Y-117292857D01*
X121158334Y-117435714D01*
X121110715Y-117530952D01*
X121063096Y-117578571D01*
X120967858Y-117626190D01*
X120586905Y-117626190D01*
X121491667Y-117102381D02*
X122110715Y-117102381D01*
X121777381Y-117483333D01*
X121920239Y-117483333D01*
X122015477Y-117530952D01*
X122063096Y-117578571D01*
X122110715Y-117673810D01*
X122110715Y-117911905D01*
X122063096Y-118007143D01*
X122015477Y-118054762D01*
X121920239Y-118102381D01*
X121634524Y-118102381D01*
X121539286Y-118054762D01*
X121491667Y-118007143D01*
D19*
D25*
D14*
X187402381Y-115064285D02*
X187402381Y-115635714D01*
X187402381Y-115350000D02*
X186402381Y-115350000D01*
X186545238Y-115445238D01*
X186640476Y-115540476D01*
X186688095Y-115635714D01*
D19*
D25*
D14*
X143602381Y-100064285D02*
X143602381Y-100635714D01*
X143602381Y-100350000D02*
X142602381Y-100350000D01*
X142745238Y-100445238D01*
X142840476Y-100540476D01*
X142888095Y-100635714D01*
D19*
X185901576Y-117062125D02*
X184903356Y-117062125D01*
X184903356Y-116681850D01*
X184950890Y-116586782D01*
X184998424Y-116539247D01*
X185093493Y-116491713D01*
X185236096Y-116491713D01*
X185331164Y-116539247D01*
X185378699Y-116586782D01*
X185426233Y-116681850D01*
X185426233Y-117062125D01*
X184998424Y-116111439D02*
X184950890Y-116063905D01*
X184903356Y-115968836D01*
X184903356Y-115731165D01*
X184950890Y-115636096D01*
X184998424Y-115588562D01*
X185093493Y-115541027D01*
X185188561Y-115541027D01*
X185331164Y-115588562D01*
X185901576Y-116158973D01*
X185901576Y-115541027D01*
X184998424Y-115160753D02*
X184950890Y-115113219D01*
X184903356Y-115018150D01*
X184903356Y-114780479D01*
X184950890Y-114685410D01*
X184998424Y-114637876D01*
X185093493Y-114590341D01*
X185188561Y-114590341D01*
X185331164Y-114637876D01*
X185901576Y-115208287D01*
X185901576Y-114590341D01*
D25*
D14*
X180135715Y-112502381D02*
X179564286Y-112502381D01*
X179850000Y-112502381D02*
X179850000Y-111502381D01*
X179754762Y-111645238D01*
X179659524Y-111740476D01*
X179564286Y-111788095D01*
X136304762Y-117561905D02*
X136352381Y-117419048D01*
X136352381Y-117180952D01*
X136304762Y-117085714D01*
X136257143Y-117038095D01*
X136161905Y-116990476D01*
X136066667Y-116990476D01*
X135971429Y-117038095D01*
X135923810Y-117085714D01*
X135876190Y-117180952D01*
X135828571Y-117371429D01*
X135780952Y-117466667D01*
X135733333Y-117514286D01*
X135638095Y-117561905D01*
X135542857Y-117561905D01*
X135447619Y-117514286D01*
X135400000Y-117466667D01*
X135352381Y-117371429D01*
X135352381Y-117133333D01*
X135400000Y-116990476D01*
X136352381Y-116038095D02*
X136352381Y-116609524D01*
X136352381Y-116323810D02*
X135352381Y-116323810D01*
X135495238Y-116419048D01*
X135590476Y-116514286D01*
X135638095Y-116609524D01*
X132589035Y-106202481D02*
X132589035Y-107012005D01*
X132636654Y-107107243D01*
X132684273Y-107154862D01*
X132779511Y-107202481D01*
X132969988Y-107202481D01*
X133065226Y-107154862D01*
X133112845Y-107107243D01*
X133160464Y-107012005D01*
X133160464Y-106202481D01*
X133541416Y-106202481D02*
X134160464Y-106202481D01*
X133827130Y-106583433D01*
X133969988Y-106583433D01*
X134065226Y-106631052D01*
X134112845Y-106678671D01*
X134160464Y-106773910D01*
X134160464Y-107012005D01*
X134112845Y-107107243D01*
X134065226Y-107154862D01*
X133969988Y-107202481D01*
X133684273Y-107202481D01*
X133589035Y-107154862D01*
X133541416Y-107107243D01*
M02*
