M48
;DRILL file {KiCad 4.0.2-stable} date 16.05.2016 20:32:25
;FORMAT={-:-/ absolute / metric / decimal}
FMAT,2
METRIC,TZ
T1C0.400
T2C0.700
T3C0.813
T4C1.000
T5C1.016
T6C1.200
T7C1.300
T8C1.500
T9C1.650
%
G90
G05
M71
T1
X106.05Y-119.85
X106.45Y-128.75
X106.55Y-133.55
X106.55Y-135.05
X106.55Y-136.35
X106.55Y-137.75
X106.55Y-139.25
X106.55Y-140.75
X106.55Y-142.25
X107.75Y-130.75
X107.75Y-131.95
X107.75Y-133.35
X109.95Y-125.85
X110.35Y-142.35
X111.65Y-129.35
X112.55Y-139.35
X113.65Y-129.35
X113.85Y-137.65
X114.45Y-129.85
X114.45Y-132.75
X114.45Y-133.75
X114.85Y-115.05
X128.65Y-99.55
X128.65Y-100.74
X128.65Y-101.93
X128.65Y-103.12
X128.65Y-104.31
X129.81Y-99.55
X129.81Y-100.74
X129.81Y-101.93
X129.81Y-103.12
X129.81Y-104.31
X130.97Y-99.55
X130.97Y-100.74
X130.97Y-101.93
X130.97Y-103.12
X130.97Y-104.31
X131.75Y-121.75
X132.13Y-99.55
X132.13Y-100.74
X132.13Y-101.93
X132.13Y-103.12
X132.13Y-104.31
X132.45Y-94.05
X132.65Y-119.25
X132.75Y-114.35
X133.05Y-120.25
X133.05Y-121.05
X133.29Y-99.55
X133.29Y-100.74
X133.29Y-101.93
X133.29Y-103.12
X133.29Y-104.31
X133.61Y-94.05
X133.7Y-122.25
X134.45Y-99.55
X134.45Y-100.74
X134.45Y-101.93
X134.45Y-103.12
X134.45Y-104.31
X134.77Y-94.05
X135.61Y-99.55
X135.61Y-100.74
X135.61Y-101.93
X135.61Y-103.12
X135.61Y-104.31
X135.93Y-94.05
X136.77Y-99.55
X136.77Y-100.74
X136.77Y-101.93
X136.77Y-103.12
X136.77Y-104.31
X137.09Y-94.05
X138.25Y-94.05
X138.35Y-116.15
X139.41Y-94.05
X139.5Y-87.5
X140.25Y-95.05
X140.25Y-118.75
X140.75Y-96.24
X140.75Y-97.43
X140.75Y-98.62
X140.75Y-99.81
X140.75Y-101.
X140.75Y-102.19
X140.75Y-103.38
X140.75Y-104.57
X140.75Y-105.76
X140.75Y-106.95
X142.05Y-118.6
X143.95Y-118.7
X144.7Y-118.2
X144.7Y-124.7
X144.95Y-126.7
X145.06Y-107.25
X145.4Y-110.2
X145.45Y-125.2
X145.65Y-105.25
X145.7Y-112.3
X145.7Y-118.2
X145.85Y-100.05
X145.95Y-125.95
X146.05Y-107.45
X146.45Y-117.7
X146.7Y-116.45
X146.85Y-100.25
X147.2Y-127.33
X147.7Y-116.2
X147.85Y-99.65
X147.85Y-105.45
X147.85Y-111.05
X148.Y-114.45
X149.95Y-127.2
X150.45Y-106.55
X151.45Y-94.45
X151.45Y-112.75
X152.45Y-101.85
X152.85Y-94.85
X153.55Y-99.55
X154.1Y-89.25
X154.1Y-94.25
X154.25Y-107.85
X154.25Y-108.85
X154.45Y-124.85
X155.45Y-128.1
X156.Y-100.15
X157.95Y-114.7
X158.05Y-117.65
X158.45Y-115.45
X158.65Y-104.65
X158.829Y-119.85
X158.844Y-108.844
X158.85Y-103.85
X158.85Y-118.85
X158.95Y-95.75
X159.19Y-115.203
X159.25Y-128.05
X159.389Y-117.208
X159.45Y-110.45
X159.45Y-112.85
X159.7Y-108.7
X159.85Y-102.65
X159.85Y-103.85
X159.876Y-115.653
X160.15Y-100.05
X160.2Y-123.7
X160.35Y-126.25
X160.45Y-118.65
X160.65Y-98.25
X160.65Y-113.65
X160.65Y-119.42
X160.75Y-109.15
X161.2Y-123.95
X161.25Y-110.25
X161.25Y-120.05
X161.75Y-104.15
X161.95Y-124.45
X162.05Y-120.45
X162.15Y-113.55
X162.65Y-104.15
X163.15Y-112.6
X163.45Y-104.45
X163.45Y-108.05
X164.Y-112.6
X164.25Y-104.25
X164.35Y-108.45
X164.85Y-112.6
X164.99Y-104.003
X165.35Y-108.45
X165.65Y-88.65
X165.7Y-112.6
X166.55Y-112.6
X166.95Y-104.25
X167.328Y-112.548
X167.45Y-101.35
X168.65Y-111.85
X168.75Y-113.75
X168.8Y-115.01
X169.15Y-119.45
X169.45Y-115.75
X169.55Y-111.25
X169.75Y-112.35
X169.85Y-108.3
X170.05Y-110.45
X170.45Y-115.45
X171.65Y-104.25
X171.85Y-86.25
X171.9Y-105.45
X172.45Y-88.25
X173.25Y-84.05
X173.75Y-120.55
X174.05Y-116.85
X174.05Y-117.75
X174.504Y-105.4
X174.6Y-120.
X175.05Y-103.85
X175.95Y-108.95
X176.15Y-129.65
X177.528Y-108.728
X177.55Y-103.95
X178.867Y-107.933
X179.433Y-107.367
X180.5Y-118.3
X184.95Y-134.95
X185.35Y-110.55
X186.025Y-135.15
X186.675Y-137.475
X186.95Y-115.05
X187.25Y-106.45
X187.85Y-101.65
X187.85Y-104.05
X188.05Y-137.85
X188.45Y-121.
X189.85Y-88.65
X190.05Y-86.25
X191.85Y-151.45
X192.4Y-120.45
X193.5Y-120.7
X194.65Y-139.05
X195.15Y-119.4
X195.25Y-150.85
X195.4Y-118.3
X197.25Y-132.45
X197.65Y-89.65
T2
X110.45Y-127.2
X113.2Y-127.2
X114.7Y-117.95
X124.45Y-118.95
X126.05Y-117.55
X132.05Y-92.45
X134.55Y-90.05
X147.65Y-88.886
X179.2Y-92.15
X184.95Y-85.65
X187.05Y-90.55
X200.7Y-108.2
T3
X119.425Y-127.41
X119.425Y-129.95
X119.425Y-132.49
X119.425Y-135.03
X119.425Y-137.57
X119.425Y-140.11
X119.425Y-142.65
X119.425Y-145.19
X132.125Y-127.41
X132.125Y-129.95
X132.125Y-132.49
X132.125Y-135.03
X132.125Y-137.57
X132.125Y-140.11
X132.125Y-142.65
X132.125Y-145.19
X135.925Y-129.935
X135.925Y-132.475
X135.925Y-135.015
X135.925Y-137.555
X135.925Y-140.095
X135.925Y-142.635
X135.925Y-145.175
X135.925Y-147.715
X148.625Y-129.935
X148.625Y-132.475
X148.625Y-135.015
X148.625Y-137.555
X148.625Y-140.095
X148.625Y-142.635
X148.625Y-145.175
X148.625Y-147.715
X152.3Y-129.935
X152.3Y-132.475
X152.3Y-135.015
X152.3Y-137.555
X152.3Y-140.095
X152.3Y-142.635
X152.3Y-145.175
X152.3Y-147.715
X165.Y-129.935
X165.Y-132.475
X165.Y-135.015
X165.Y-137.555
X165.Y-140.095
X165.Y-142.635
X165.Y-145.175
X165.Y-147.715
X168.675Y-129.935
X168.675Y-132.475
X168.675Y-135.015
X168.675Y-137.555
X168.675Y-140.095
X168.675Y-142.635
X168.675Y-145.175
X168.675Y-147.715
X181.375Y-129.935
X181.375Y-132.475
X181.375Y-135.015
X181.375Y-137.555
X181.375Y-140.095
X181.375Y-142.635
X181.375Y-145.175
X181.375Y-147.715
T4
X123.61Y-89.88
X123.61Y-92.42
X126.148Y-89.88
X126.148Y-92.42
X128.688Y-89.88
X128.688Y-92.42
X138.87Y-80.43
X138.87Y-82.97
X141.41Y-80.43
X141.41Y-82.97
X142.68Y-88.93
X142.68Y-91.47
X143.95Y-80.43
X143.95Y-82.97
X145.22Y-88.93
X145.22Y-91.47
X146.49Y-80.43
X146.49Y-82.97
X149.03Y-80.43
X149.03Y-83.224
X156.87Y-80.43
X156.87Y-82.97
X159.41Y-80.43
X159.41Y-82.97
X160.68Y-88.93
X160.68Y-91.47
X161.95Y-80.43
X161.95Y-82.97
X163.22Y-88.93
X163.22Y-91.47
X164.49Y-80.43
X164.49Y-82.97
X167.03Y-80.43
X167.03Y-83.224
X175.91Y-84.88
X175.91Y-87.42
X175.98Y-77.75
X178.45Y-84.88
X178.45Y-87.42
X178.52Y-77.75
X180.99Y-84.88
X180.99Y-87.42
X190.28Y-95.2
X190.28Y-97.74
X190.28Y-100.28
X190.28Y-102.82
X190.28Y-105.36
X190.28Y-107.9
X192.82Y-95.2
X192.82Y-97.74
X192.82Y-100.28
X192.82Y-102.82
X192.82Y-105.36
X192.82Y-107.9
X192.91Y-84.88
X192.91Y-87.42
X192.98Y-77.75
X195.45Y-84.88
X195.45Y-87.42
X195.52Y-77.75
X197.99Y-84.88
X197.99Y-87.42
T5
X106.99Y-150.79
X106.99Y-153.33
X106.99Y-155.87
X106.99Y-158.41
X108.781Y-140.858
X109.53Y-150.79
X109.53Y-153.33
X109.53Y-155.87
X109.53Y-158.41
X111.321Y-140.858
X112.07Y-150.79
X112.07Y-153.33
X112.07Y-155.87
X112.07Y-158.41
X113.861Y-140.858
X114.61Y-150.79
X114.61Y-153.33
X114.61Y-155.87
X114.61Y-158.41
X121.98Y-148.1
X121.98Y-150.64
X124.52Y-148.1
X124.52Y-150.64
X127.06Y-148.1
X127.06Y-150.64
X129.6Y-148.1
X129.6Y-150.64
X138.45Y-150.625
X140.99Y-150.625
X143.53Y-150.625
X146.07Y-150.625
X154.825Y-150.625
X157.365Y-150.625
X159.905Y-150.625
X162.445Y-150.625
X171.2Y-150.625
X173.284Y-96.188
X173.284Y-99.236
X173.284Y-102.284
X173.74Y-150.625
X175.824Y-96.188
X175.824Y-99.236
X175.824Y-102.284
X176.28Y-150.625
X178.364Y-96.188
X178.364Y-99.236
X178.364Y-102.284
X178.82Y-150.625
X180.904Y-96.188
X180.904Y-99.236
X180.904Y-102.284
X184.255Y-153.289
X184.255Y-155.829
X184.255Y-158.369
X186.795Y-153.289
X186.795Y-155.829
X186.795Y-158.369
X189.335Y-153.289
X189.335Y-155.829
X189.335Y-158.369
X191.875Y-153.289
X191.875Y-155.829
X191.875Y-158.369
X194.415Y-153.289
X194.415Y-155.829
X194.415Y-158.369
X196.955Y-153.289
X196.955Y-155.829
X196.955Y-158.369
X197.91Y-115.29
X197.91Y-117.83
X197.91Y-120.37
X197.91Y-122.91
X197.91Y-125.45
X197.91Y-136.33
X197.91Y-138.87
X197.91Y-141.41
X197.91Y-143.95
X197.91Y-146.49
X200.45Y-115.29
X200.45Y-117.83
X200.45Y-120.37
X200.45Y-122.91
X200.45Y-125.45
X200.45Y-136.33
X200.45Y-138.87
X200.45Y-141.41
X200.45Y-143.95
X200.45Y-146.49
T6
X120.525Y-155.425
X124.025Y-155.425
X127.525Y-155.425
X131.025Y-155.425
X137.025Y-155.425
X140.525Y-155.425
X144.025Y-155.425
X147.525Y-155.425
X153.4Y-155.425
X156.9Y-155.425
X160.4Y-155.425
X163.9Y-155.425
X169.775Y-155.425
X173.275Y-155.425
X176.775Y-155.425
X180.275Y-155.425
T7
X109.45Y-99.95
X109.45Y-104.95
T8
X116.05Y-146.25
X127.75Y-113.85
T9
X107.25Y-110.45
X110.95Y-110.45
X115.45Y-110.45
X119.15Y-110.45
T0
M30
