M48
;DRILL file {KiCad 4.0.2-stable} date 27.07.2016 15:23:44
;FORMAT={-:-/ absolute / metric / decimal}
FMAT,2
METRIC,TZ
T1C0.400
T2C0.700
T3C0.813
T4C1.000
T5C1.001
T6C1.016
T7C1.200
T8C1.300
T9C1.650
T10C3.200
%
G90
G05
M71
T1
X50.05Y-86.65
X50.85Y-85.45
X51.98Y-143.36
X52.05Y-84.25
X52.67Y-141.65
X53.16Y-101.24
X54.47Y-140.57
X58.09Y-96.5
X58.45Y-82.05
X58.75Y-117.07
X60.35Y-97.7
X63.25Y-111.05
X63.45Y-96.15
X64.45Y-81.85
X64.82Y-138.43
X66.05Y-108.85
X66.605Y-106.295
X66.65Y-107.45
X67.05Y-108.45
X67.25Y-105.05
X67.45Y-106.25
X67.65Y-112.85
X67.85Y-103.25
X68.65Y-104.05
X69.65Y-104.85
X70.45Y-99.05
X70.45Y-116.05
X70.65Y-113.45
X70.65Y-115.05
X71.45Y-98.45
X71.65Y-87.7
X72.25Y-97.45
X72.45Y-111.85
X72.46Y-93.04
X72.49Y-100.71
X72.6Y-141.47
X72.65Y-105.65
X73.25Y-111.05
X73.25Y-112.45
X73.25Y-137.45
X73.45Y-96.35
X73.85Y-105.25
X73.85Y-110.25
X74.05Y-99.85
X74.65Y-82.25
X74.65Y-109.65
X75.25Y-102.45
X75.25Y-104.25
X75.25Y-105.45
X75.65Y-101.65
X75.68Y-96.65
X75.85Y-103.45
X76.05Y-109.45
X76.45Y-96.85
X76.45Y-101.05
X77.05Y-101.85
X77.05Y-109.85
X77.85Y-110.25
X77.89Y-101.874
X78.05Y-111.25
X78.25Y-116.45
X78.85Y-101.85
X78.85Y-112.05
X78.85Y-117.45
X79.45Y-118.05
X80.05Y-101.65
X80.05Y-112.05
X80.25Y-105.85
X80.55Y-81.75
X80.65Y-108.75
X81.04Y-136.84
X81.45Y-100.05
X81.45Y-111.85
X81.65Y-101.65
X81.99Y-89.68
X82.132Y-117.332
X82.45Y-99.85
X82.65Y-101.11
X82.768Y-117.968
X82.85Y-112.85
X83.25Y-82.45
X83.45Y-107.25
X83.65Y-96.25
X83.65Y-109.45
X83.65Y-111.65
X84.05Y-108.05
X84.45Y-74.85
X84.45Y-80.05
X84.85Y-96.25
X84.85Y-105.45
X84.94Y-93.11
X85.05Y-100.85
X85.05Y-108.45
X85.25Y-137.65
X85.65Y-142.25
X85.85Y-82.65
X86.72Y-125.7
X87.05Y-74.85
X87.05Y-80.05
X87.05Y-114.05
X87.45Y-83.25
X88.45Y-106.65
X89.25Y-106.05
X89.53Y-110.95
X89.65Y-74.85
X89.65Y-80.05
X89.65Y-126.225
X89.85Y-102.25
X90.05Y-110.05
X90.35Y-101.35
X90.85Y-82.85
X91.25Y-110.85
X92.05Y-111.25
X92.25Y-74.85
X92.25Y-80.05
X92.46Y-137.05
X92.65Y-99.25
X92.65Y-121.45
X92.85Y-112.05
X93.25Y-83.05
X94.65Y-126.05
X94.85Y-74.85
X94.85Y-80.05
X95.34Y-92.66
X95.85Y-105.45
X96.44Y-96.53
X96.58Y-103.26
X96.65Y-114.65
X96.85Y-83.25
X97.05Y-133.45
X97.25Y-113.25
X97.45Y-74.85
X97.45Y-80.05
X97.65Y-134.45
X98.05Y-95.25
X98.05Y-137.85
X98.45Y-100.25
X100.05Y-96.85
X100.11Y-103.05
X100.45Y-142.45
X100.65Y-114.02
X100.76Y-88.96
X101.85Y-114.05
X101.85Y-133.65
X102.1Y-121.025
X102.25Y-134.85
X102.75Y-99.95
X103.15Y-105.75
X103.95Y-136.7
X104.Y-142.05
X104.9Y-142.05
X105.25Y-155.45
X105.7Y-160.2
X105.71Y-83.29
X109.65Y-148.65
X114.45Y-139.7
X114.65Y-148.45
X115.95Y-156.95
X117.7Y-152.7
T2
X27.45Y-156.25
X55.65Y-132.25
X72.25Y-127.65
X75.85Y-135.65
X76.05Y-131.45
X106.45Y-136.65
X114.45Y-146.05
T3
X29.31Y-72.6
X29.31Y-85.3
X29.31Y-88.35
X29.31Y-101.05
X29.31Y-104.1
X29.31Y-116.8
X29.31Y-119.85
X29.31Y-132.55
X31.56Y-135.6
X31.56Y-148.3
X31.85Y-72.6
X31.85Y-85.3
X31.85Y-88.35
X31.85Y-101.05
X31.85Y-104.1
X31.85Y-116.8
X31.85Y-119.85
X31.85Y-132.55
X34.1Y-135.6
X34.1Y-148.3
X34.39Y-72.6
X34.39Y-85.3
X34.39Y-88.35
X34.39Y-101.05
X34.39Y-104.1
X34.39Y-116.8
X34.39Y-119.85
X34.39Y-132.55
X36.64Y-135.6
X36.64Y-148.3
X36.93Y-72.6
X36.93Y-85.3
X36.93Y-88.35
X36.93Y-101.05
X36.93Y-104.1
X36.93Y-116.8
X36.93Y-119.85
X36.93Y-132.55
X39.18Y-135.6
X39.18Y-148.3
X39.47Y-72.6
X39.47Y-85.3
X39.47Y-88.35
X39.47Y-101.05
X39.47Y-104.1
X39.47Y-116.8
X39.47Y-119.85
X39.47Y-132.55
X41.72Y-135.6
X41.72Y-148.3
X42.01Y-72.6
X42.01Y-85.3
X42.01Y-88.35
X42.01Y-101.05
X42.01Y-104.1
X42.01Y-116.8
X42.01Y-119.85
X42.01Y-132.55
X44.26Y-135.6
X44.26Y-148.3
X44.55Y-72.6
X44.55Y-85.3
X44.55Y-88.35
X44.55Y-101.05
X44.55Y-104.1
X44.55Y-116.8
X44.55Y-119.85
X44.55Y-132.55
X46.8Y-135.6
X46.8Y-148.3
X47.09Y-72.6
X47.09Y-85.3
X47.09Y-88.35
X47.09Y-101.05
X47.09Y-104.1
X47.09Y-116.8
X47.09Y-119.85
X47.09Y-132.55
X49.34Y-135.6
X49.34Y-148.3
T4
X42.05Y-150.25
T5
X68.51Y-149.25
X71.05Y-149.25
X73.59Y-149.25
X81.51Y-149.25
X84.05Y-149.25
X86.59Y-149.25
X94.31Y-149.25
X96.85Y-149.25
X99.39Y-149.25
T6
X25.91Y-138.51
X25.91Y-141.05
X25.91Y-143.59
X25.91Y-146.13
X26.2Y-76.7
X26.2Y-79.24
X26.2Y-81.78
X26.2Y-84.32
X26.2Y-92.45
X26.2Y-94.99
X26.2Y-97.53
X26.2Y-100.07
X26.2Y-108.2
X26.2Y-110.74
X26.2Y-113.28
X26.2Y-115.82
X26.2Y-123.95
X26.2Y-126.49
X26.2Y-129.03
X26.2Y-131.57
X28.45Y-138.51
X28.45Y-141.05
X28.45Y-143.59
X28.45Y-146.13
X30.57Y-67.05
X30.57Y-69.59
X33.11Y-67.05
X33.11Y-69.59
X35.65Y-67.05
X35.65Y-69.59
X55.85Y-89.31
X55.85Y-91.85
X56.45Y-75.25
X58.39Y-89.31
X58.39Y-91.85
X58.99Y-75.25
X60.93Y-89.31
X60.93Y-91.85
X61.53Y-75.25
X63.47Y-89.31
X63.47Y-91.85
X63.97Y-127.25
X63.97Y-129.79
X64.07Y-75.25
X66.01Y-89.31
X66.01Y-91.85
X66.51Y-127.25
X66.51Y-129.79
X69.05Y-127.25
X69.05Y-129.79
X70.85Y-75.25
X73.39Y-75.25
X75.93Y-75.25
X78.47Y-75.25
X84.57Y-67.71
X84.57Y-70.25
X87.11Y-67.71
X87.11Y-70.25
X89.65Y-67.71
X89.65Y-70.25
X92.19Y-67.71
X92.19Y-70.25
X94.73Y-67.71
X94.73Y-70.25
X97.27Y-67.71
X97.27Y-70.25
X101.91Y-67.69
X101.91Y-70.23
X101.91Y-72.77
X104.45Y-67.69
X104.45Y-70.23
X104.45Y-72.77
X105.35Y-99.16
X105.35Y-101.7
X105.35Y-104.24
X105.35Y-106.78
X106.99Y-67.69
X106.99Y-70.23
X106.99Y-72.77
X107.89Y-99.16
X107.89Y-101.7
X107.89Y-104.24
X107.89Y-106.78
X109.85Y-94.85
X109.91Y-91.25
X112.077Y-75.739
X112.077Y-78.279
X112.077Y-80.819
X112.39Y-94.85
X112.45Y-91.25
X113.31Y-104.23
X113.31Y-106.77
X113.31Y-109.31
X113.31Y-111.85
X113.31Y-114.39
X113.31Y-125.83
X113.31Y-128.37
X113.31Y-130.91
X113.31Y-133.45
X113.31Y-135.99
X114.617Y-75.739
X114.617Y-78.279
X114.617Y-80.819
X114.93Y-94.85
X115.85Y-104.23
X115.85Y-106.77
X115.85Y-109.31
X115.85Y-111.85
X115.85Y-114.39
X115.85Y-125.83
X115.85Y-128.37
X115.85Y-130.91
X115.85Y-133.45
X115.85Y-135.99
X117.157Y-75.739
X117.157Y-78.279
X117.157Y-80.819
X117.47Y-94.85
T7
X55.Y-70.15
X58.5Y-70.15
X62.Y-70.15
X65.5Y-70.15
X69.4Y-70.15
X72.9Y-70.15
X76.4Y-70.15
X79.9Y-70.15
T8
X34.95Y-160.65
X39.95Y-160.65
X45.35Y-160.65
X50.35Y-160.65
X71.15Y-160.65
X76.15Y-160.65
X81.55Y-160.65
X86.55Y-160.65
X91.95Y-160.65
X96.95Y-160.65
T9
X27.3Y-152.05
X31.Y-152.05
X35.5Y-152.05
X39.2Y-152.05
X54.7Y-163.05
X58.4Y-163.05
X62.9Y-163.05
X66.6Y-163.05
T10
X24.45Y-70.45
X24.45Y-160.45
X114.45Y-70.45
X114.45Y-160.45
T0
M30
