%TF.GenerationSoftware,KiCad,Pcbnew,4.0.2-stable*%
%TF.CreationDate,2016-07-27T00:50:33+02:00*%
%TF.ProjectId,ReST,526553542E6B696361645F7063620000,Rev. A*%
%TF.FileFunction,Soldermask,Top*%
%FSLAX46Y46*%
G04 Gerber Fmt 4.6, Leading zero omitted, Abs format (unit mm)*
G04 Created by KiCad (PCBNEW 4.0.2-stable) date 27.07.2016 00:50:33*
%MOMM*%
G01*
G04 APERTURE LIST*
%ADD10C,0.100000*%
%ADD11C,0.010000*%
%ADD12C,0.500000*%
%ADD13R,0.299720X1.600000*%
%ADD14R,0.299720X1.630000*%
%ADD15R,1.600000X0.299720*%
%ADD16C,5.800000*%
%ADD17R,1.600200X2.199640*%
%ADD18R,1.500000X1.250000*%
%ADD19R,1.250000X1.500000*%
%ADD20R,3.098800X0.899160*%
%ADD21R,1.600000X2.000000*%
%ADD22R,1.300000X1.500000*%
%ADD23R,2.199640X1.600200*%
%ADD24R,1.198880X1.198880*%
%ADD25C,2.200000*%
%ADD26R,0.600000X1.550000*%
%ADD27R,3.200000X2.000000*%
%ADD28R,2.000000X3.200000*%
%ADD29C,2.500000*%
%ADD30R,1.270000X3.050000*%
%ADD31R,1.727200X2.032000*%
%ADD32O,1.727200X2.032000*%
%ADD33R,2.032000X1.727200*%
%ADD34O,2.032000X1.727200*%
%ADD35R,1.727200X1.727200*%
%ADD36O,1.727200X1.727200*%
%ADD37R,2.032000X2.032000*%
%ADD38O,2.032000X2.032000*%
%ADD39R,3.450000X1.020000*%
%ADD40C,2.400000*%
%ADD41R,2.400000X2.400000*%
%ADD42R,1.020000X3.450000*%
%ADD43R,0.800100X0.800100*%
%ADD44R,1.400000X0.800100*%
%ADD45O,1.699260X3.500120*%
%ADD46R,1.500000X1.300000*%
%ADD47R,0.900000X1.200000*%
%ADD48R,1.200000X0.900000*%
%ADD49R,1.600000X1.600000*%
%ADD50R,1.060000X0.650000*%
%ADD51R,0.650000X1.060000*%
%ADD52R,0.650000X1.600000*%
%ADD53R,1.800000X2.000000*%
%ADD54R,3.050000X1.270000*%
%ADD55R,0.500380X2.301240*%
%ADD56R,1.998980X2.499360*%
%ADD57C,0.899160*%
%ADD58R,1.524000X1.524000*%
%ADD59C,1.524000*%
G04 APERTURE END LIST*
D10*
D11*
X119450000Y-163450000D02*
X119450000Y-67450000D01*
X21450000Y-165450000D02*
X117450000Y-165450000D01*
X19450000Y-67450000D02*
X19450000Y-163450000D01*
X117450000Y-65450000D02*
X21450000Y-65450000D01*
X119450000Y-67450000D02*
G75*
G03X117450000Y-65450000I-2000000J0D01*
G01*
X21450000Y-65450000D02*
G75*
G03X19450000Y-67450000I0J-2000000D01*
G01*
X19450000Y-163450000D02*
G75*
G03X21450000Y-165450000I2000000J0D01*
G01*
X117450000Y-165450000D02*
G75*
G03X119450000Y-163450000I0J2000000D01*
G01*
D12*
X86720000Y-125700000D03*
X100110000Y-103050000D03*
X96580000Y-103260000D03*
X96440000Y-96530000D03*
X95340000Y-92660000D03*
X84940000Y-93110000D03*
X81990000Y-89680000D03*
X72460000Y-93040000D03*
X58090000Y-96500000D03*
X89530000Y-110950000D03*
X100760000Y-88960000D03*
X53160000Y-101240000D03*
X58750000Y-117070000D03*
X72600000Y-141470000D03*
X51980000Y-143360000D03*
X52670000Y-141650000D03*
X54470000Y-140570000D03*
X64820000Y-138430000D03*
X92460000Y-137050000D03*
X81040000Y-136840000D03*
X89650000Y-126225000D03*
X94650000Y-126050000D03*
X102100000Y-121025000D03*
D13*
X85049480Y-98400000D03*
X84549100Y-98400000D03*
X84051260Y-98400000D03*
X83550880Y-98400000D03*
X83050500Y-98400000D03*
X82550120Y-98400000D03*
X82049740Y-98400000D03*
X81549360Y-98400000D03*
X81048980Y-98400000D03*
X80551140Y-98400000D03*
X80050760Y-98400000D03*
X79550380Y-98400000D03*
X79050000Y-98400000D03*
X78549620Y-98400000D03*
X78049240Y-98400000D03*
X77548860Y-98400000D03*
X77051020Y-98400000D03*
X76550640Y-98400000D03*
X76050260Y-98400000D03*
X75549880Y-98400000D03*
X75049500Y-98400000D03*
X74549120Y-98400000D03*
D14*
X74048740Y-98400000D03*
D13*
X73550900Y-98400000D03*
X73050520Y-98400000D03*
D15*
X71100000Y-100350520D03*
X71100000Y-100850900D03*
X71100000Y-101348740D03*
X71100000Y-101849120D03*
X71100000Y-102349500D03*
X71100000Y-102849880D03*
X71100000Y-103350260D03*
X71100000Y-103850640D03*
X71100000Y-104351020D03*
X71100000Y-104848860D03*
X71100000Y-105349240D03*
X71100000Y-105849620D03*
X71100000Y-106350000D03*
X71100000Y-106850380D03*
X71100000Y-107350760D03*
X71100000Y-107851140D03*
X71100000Y-108348980D03*
X71100000Y-108849360D03*
X71100000Y-109349740D03*
X71100000Y-109850120D03*
X71100000Y-110350500D03*
X71100000Y-110850880D03*
X71100000Y-111351260D03*
X71100000Y-111849100D03*
X71100000Y-112349480D03*
D13*
X73050520Y-114300000D03*
X73550900Y-114300000D03*
X74048740Y-114300000D03*
X74549120Y-114300000D03*
X75049500Y-114300000D03*
X75549880Y-114300000D03*
X76050260Y-114300000D03*
X76550640Y-114300000D03*
X77051020Y-114300000D03*
X77548860Y-114300000D03*
X78049240Y-114300000D03*
X78549620Y-114300000D03*
X79050000Y-114300000D03*
X79550380Y-114300000D03*
X80050760Y-114300000D03*
X80551140Y-114300000D03*
X81048980Y-114300000D03*
X81549360Y-114300000D03*
X82049740Y-114300000D03*
X82550120Y-114300000D03*
X83050500Y-114300000D03*
X83550880Y-114300000D03*
X84051260Y-114300000D03*
X84549100Y-114300000D03*
X85049480Y-114300000D03*
D15*
X87000000Y-112349480D03*
X87000000Y-111849100D03*
X87000000Y-111351260D03*
X87000000Y-110850880D03*
X87000000Y-110350500D03*
X87000000Y-109850120D03*
X87000000Y-109349740D03*
X87000000Y-108849360D03*
X87000000Y-108348980D03*
X87000000Y-107851140D03*
X87000000Y-107350760D03*
X87000000Y-106850380D03*
X87000000Y-106350000D03*
X87000000Y-105849620D03*
X87000000Y-105349240D03*
X87000000Y-104848860D03*
X87000000Y-104351020D03*
X87000000Y-103850640D03*
X87000000Y-103350260D03*
X87000000Y-102849880D03*
X87000000Y-102349500D03*
X87000000Y-101849120D03*
X87000000Y-101348740D03*
X87000000Y-100850900D03*
X87000000Y-100350520D03*
D16*
X114450000Y-70450000D03*
X114450000Y-160450000D03*
X24450000Y-160450000D03*
D17*
X54450000Y-144150000D03*
X59050000Y-144150000D03*
D16*
X24450000Y-70450000D03*
D18*
X109100000Y-81650000D03*
X106600000Y-81650000D03*
X109100000Y-76450000D03*
X106600000Y-76450000D03*
D19*
X103650000Y-76000000D03*
X103650000Y-78500000D03*
D18*
X109100000Y-79050000D03*
X106600000Y-79050000D03*
D19*
X110050000Y-72700000D03*
X110050000Y-70200000D03*
X101050000Y-76000000D03*
X101050000Y-78500000D03*
D20*
X29998900Y-93200000D03*
X34901100Y-93200000D03*
X29998900Y-124700000D03*
X34901100Y-124700000D03*
X29998900Y-108950000D03*
X34901100Y-108950000D03*
D21*
X54750000Y-151650000D03*
X54750000Y-147650000D03*
D18*
X57150000Y-147350000D03*
X59650000Y-147350000D03*
X61000000Y-149450000D03*
X63500000Y-149450000D03*
D20*
X32248900Y-140450000D03*
X37151100Y-140450000D03*
X29998900Y-77450000D03*
X34901100Y-77450000D03*
D22*
X107650000Y-84500000D03*
X107650000Y-87200000D03*
D19*
X73650000Y-91700000D03*
X73650000Y-89200000D03*
D22*
X80450000Y-89100000D03*
X80450000Y-91800000D03*
X76250000Y-91800000D03*
X76250000Y-89100000D03*
D19*
X71050000Y-91700000D03*
X71050000Y-89200000D03*
X108450000Y-152200000D03*
X108450000Y-154700000D03*
D18*
X82800000Y-94250000D03*
X85300000Y-94250000D03*
D19*
X68450000Y-101250000D03*
X68450000Y-98750000D03*
D18*
X88500000Y-117050000D03*
X86000000Y-117050000D03*
D19*
X89250000Y-97000000D03*
X89250000Y-99500000D03*
X68850000Y-112600000D03*
X68850000Y-115100000D03*
X91650000Y-97000000D03*
X91650000Y-99500000D03*
D18*
X85200000Y-119450000D03*
X87700000Y-119450000D03*
D19*
X66450000Y-112600000D03*
X66450000Y-115100000D03*
D18*
X60500000Y-131850000D03*
X58000000Y-131850000D03*
D19*
X58050000Y-136700000D03*
X58050000Y-134200000D03*
X87050000Y-81300000D03*
X87050000Y-78800000D03*
X84450000Y-81300000D03*
X84450000Y-78800000D03*
X94850000Y-81300000D03*
X94850000Y-78800000D03*
X97450000Y-81300000D03*
X97450000Y-78800000D03*
X92250000Y-81300000D03*
X92250000Y-78800000D03*
X89650000Y-81300000D03*
X89650000Y-78800000D03*
D23*
X23450000Y-155550000D03*
X23450000Y-150950000D03*
D17*
X57750000Y-158250000D03*
X62350000Y-158250000D03*
D24*
X74099020Y-124050000D03*
X72000980Y-124050000D03*
X63699020Y-123850000D03*
X61600980Y-123850000D03*
X67800980Y-141850000D03*
X69899020Y-141850000D03*
X80800980Y-141850000D03*
X82899020Y-141850000D03*
X93600980Y-141850000D03*
X95699020Y-141850000D03*
D17*
X70950000Y-145050000D03*
X66350000Y-145050000D03*
X83950000Y-145050000D03*
X79350000Y-145050000D03*
X96750000Y-145050000D03*
X92150000Y-145050000D03*
D25*
X35500000Y-152050000D03*
X39200000Y-152050000D03*
X31000000Y-152050000D03*
X27300000Y-152050000D03*
X58400000Y-163050000D03*
X54700000Y-163050000D03*
X62900000Y-163050000D03*
X66600000Y-163050000D03*
D26*
X100380000Y-92975000D03*
X99110000Y-92975000D03*
X97840000Y-92975000D03*
X96570000Y-92975000D03*
X96570000Y-98375000D03*
X97840000Y-98375000D03*
X99110000Y-98375000D03*
X100380000Y-98375000D03*
D18*
X71200000Y-94450000D03*
X73700000Y-94450000D03*
D27*
X62350000Y-146950000D03*
X62350000Y-143950000D03*
D28*
X57350000Y-139650000D03*
X60350000Y-139650000D03*
D29*
X34950000Y-160650000D03*
X39950000Y-160650000D03*
D30*
X70850000Y-136375000D03*
X68310000Y-133325000D03*
X73390000Y-133325000D03*
D29*
X45350000Y-160650000D03*
X50350000Y-160650000D03*
D31*
X117156923Y-80818721D03*
D32*
X114616923Y-80818721D03*
X112076923Y-80818721D03*
D31*
X117156923Y-75738721D03*
D32*
X114616923Y-75738721D03*
X112076923Y-75738721D03*
D33*
X104450000Y-67690000D03*
D34*
X104450000Y-70230000D03*
X104450000Y-72770000D03*
D31*
X117156923Y-78278721D03*
D32*
X114616923Y-78278721D03*
X112076923Y-78278721D03*
D33*
X106990000Y-67690000D03*
D34*
X106990000Y-70230000D03*
X106990000Y-72770000D03*
D33*
X101910000Y-67690000D03*
D34*
X101910000Y-70230000D03*
X101910000Y-72770000D03*
D35*
X28450000Y-146130000D03*
D36*
X25910000Y-146130000D03*
X28450000Y-143590000D03*
X25910000Y-143590000D03*
X28450000Y-141050000D03*
X25910000Y-141050000D03*
X28450000Y-138510000D03*
X25910000Y-138510000D03*
D33*
X26200000Y-92450000D03*
D34*
X26200000Y-94990000D03*
X26200000Y-97530000D03*
X26200000Y-100070000D03*
D33*
X26200000Y-123950000D03*
D34*
X26200000Y-126490000D03*
X26200000Y-129030000D03*
X26200000Y-131570000D03*
D33*
X26200000Y-108200000D03*
D34*
X26200000Y-110740000D03*
X26200000Y-113280000D03*
X26200000Y-115820000D03*
D33*
X26200000Y-76700000D03*
D34*
X26200000Y-79240000D03*
X26200000Y-81780000D03*
X26200000Y-84320000D03*
D35*
X115850000Y-114390000D03*
D36*
X113310000Y-114390000D03*
X115850000Y-111850000D03*
X113310000Y-111850000D03*
X115850000Y-109310000D03*
X113310000Y-109310000D03*
X115850000Y-106770000D03*
X113310000Y-106770000D03*
X115850000Y-104230000D03*
X113310000Y-104230000D03*
D35*
X115850000Y-135990000D03*
D36*
X113310000Y-135990000D03*
X115850000Y-133450000D03*
X113310000Y-133450000D03*
X115850000Y-130910000D03*
X113310000Y-130910000D03*
X115850000Y-128370000D03*
X113310000Y-128370000D03*
X115850000Y-125830000D03*
X113310000Y-125830000D03*
D35*
X66010000Y-89310000D03*
D36*
X66010000Y-91850000D03*
X63470000Y-89310000D03*
X63470000Y-91850000D03*
X60930000Y-89310000D03*
X60930000Y-91850000D03*
X58390000Y-89310000D03*
X58390000Y-91850000D03*
X55850000Y-89310000D03*
X55850000Y-91850000D03*
D37*
X109910000Y-91250000D03*
D38*
X112450000Y-91250000D03*
D39*
X111725000Y-143510000D03*
X117175000Y-143510000D03*
X117175000Y-148590000D03*
X111725000Y-148590000D03*
X117175000Y-146050000D03*
X111725000Y-146050000D03*
X95525000Y-101910000D03*
X100975000Y-101910000D03*
X100975000Y-106990000D03*
X95525000Y-106990000D03*
X100975000Y-104450000D03*
X95525000Y-104450000D03*
D35*
X35650000Y-67050000D03*
D36*
X35650000Y-69590000D03*
X33110000Y-67050000D03*
X33110000Y-69590000D03*
X30570000Y-67050000D03*
X30570000Y-69590000D03*
D35*
X69050000Y-127250000D03*
D36*
X69050000Y-129790000D03*
X66510000Y-127250000D03*
X66510000Y-129790000D03*
X63970000Y-127250000D03*
X63970000Y-129790000D03*
D35*
X97270000Y-67710000D03*
D36*
X97270000Y-70250000D03*
X94730000Y-67710000D03*
X94730000Y-70250000D03*
X92190000Y-67710000D03*
X92190000Y-70250000D03*
X89650000Y-67710000D03*
X89650000Y-70250000D03*
X87110000Y-67710000D03*
X87110000Y-70250000D03*
X84570000Y-67710000D03*
X84570000Y-70250000D03*
D40*
X58500000Y-70150000D03*
D41*
X55000000Y-70150000D03*
D40*
X62000000Y-70150000D03*
X65500000Y-70150000D03*
D29*
X71150000Y-160650000D03*
X76150000Y-160650000D03*
X81550000Y-160650000D03*
X86550000Y-160650000D03*
X91950000Y-160650000D03*
X96950000Y-160650000D03*
D40*
X72900000Y-70150000D03*
D41*
X69400000Y-70150000D03*
D40*
X76400000Y-70150000D03*
X79900000Y-70150000D03*
D31*
X56450000Y-75250000D03*
D32*
X58990000Y-75250000D03*
X61530000Y-75250000D03*
X64070000Y-75250000D03*
D31*
X70850000Y-75250000D03*
D32*
X73390000Y-75250000D03*
X75930000Y-75250000D03*
X78470000Y-75250000D03*
D42*
X38410000Y-96925000D03*
X38410000Y-91475000D03*
X43490000Y-91475000D03*
X43490000Y-96925000D03*
X40950000Y-91475000D03*
X40950000Y-96925000D03*
X38410000Y-112675000D03*
X38410000Y-107225000D03*
X43490000Y-107225000D03*
X43490000Y-112675000D03*
X40950000Y-107225000D03*
X40950000Y-112675000D03*
X40660000Y-144175000D03*
X40660000Y-138725000D03*
X45740000Y-138725000D03*
X45740000Y-144175000D03*
X43200000Y-138725000D03*
X43200000Y-144175000D03*
X38410000Y-128425000D03*
X38410000Y-122975000D03*
X43490000Y-122975000D03*
X43490000Y-128425000D03*
X40950000Y-122975000D03*
X40950000Y-128425000D03*
X38410000Y-81175000D03*
X38410000Y-75725000D03*
X43490000Y-75725000D03*
X43490000Y-81175000D03*
X40950000Y-75725000D03*
X40950000Y-81175000D03*
D43*
X62550760Y-80300000D03*
X62550760Y-78400000D03*
X60551780Y-79350000D03*
X56550760Y-80300000D03*
X56550760Y-78400000D03*
X54551780Y-79350000D03*
X72650760Y-80300000D03*
X72650760Y-78400000D03*
X70651780Y-79350000D03*
X78650760Y-80300000D03*
X78650760Y-78400000D03*
X76651780Y-79350000D03*
D44*
X73350000Y-140300000D03*
X73350000Y-142200000D03*
X75950000Y-141250000D03*
X86350000Y-140300000D03*
X86350000Y-142200000D03*
X88950000Y-141250000D03*
X99150000Y-140300000D03*
X99150000Y-142200000D03*
X101750000Y-141250000D03*
D45*
X71050000Y-149250000D03*
X73590000Y-149250000D03*
X68510000Y-149250000D03*
X84050000Y-149250000D03*
X86590000Y-149250000D03*
X81510000Y-149250000D03*
X96850000Y-149250000D03*
X99390000Y-149250000D03*
X94310000Y-149250000D03*
D46*
X32300000Y-98450000D03*
X29600000Y-98450000D03*
X32300000Y-129950000D03*
X29600000Y-129950000D03*
X32300000Y-114200000D03*
X29600000Y-114200000D03*
X34550000Y-145700000D03*
X31850000Y-145700000D03*
X32300000Y-82700000D03*
X29600000Y-82700000D03*
X63600000Y-153850000D03*
X60900000Y-153850000D03*
X63600000Y-151450000D03*
X60900000Y-151450000D03*
D22*
X105050000Y-87200000D03*
X105050000Y-84500000D03*
D46*
X111300000Y-155250000D03*
X114000000Y-155250000D03*
D22*
X102650000Y-94500000D03*
X102650000Y-97200000D03*
X94250000Y-97200000D03*
X94250000Y-94500000D03*
X106650000Y-149400000D03*
X106650000Y-146700000D03*
X103850000Y-146700000D03*
X103850000Y-149400000D03*
D47*
X64450000Y-80450000D03*
X64450000Y-78250000D03*
D48*
X62650000Y-82250000D03*
X60450000Y-82250000D03*
D47*
X58450000Y-80450000D03*
X58450000Y-78250000D03*
D48*
X54450000Y-82250000D03*
X56650000Y-82250000D03*
D47*
X74550000Y-80450000D03*
X74550000Y-78250000D03*
D48*
X72750000Y-82250000D03*
X70550000Y-82250000D03*
D47*
X80550000Y-80450000D03*
X80550000Y-78250000D03*
D48*
X78750000Y-82250000D03*
X76550000Y-82250000D03*
X71950000Y-126250000D03*
X74150000Y-126250000D03*
X68750000Y-123850000D03*
X66550000Y-123850000D03*
D22*
X87050000Y-73500000D03*
X87050000Y-76200000D03*
X84450000Y-73500000D03*
X84450000Y-76200000D03*
X97450000Y-73500000D03*
X97450000Y-76200000D03*
X94850000Y-73500000D03*
X94850000Y-76200000D03*
X92250000Y-73500000D03*
X92250000Y-76200000D03*
X89650000Y-73500000D03*
X89650000Y-76200000D03*
D48*
X73350000Y-138450000D03*
X75550000Y-138450000D03*
X85950000Y-138450000D03*
X88150000Y-138450000D03*
X99150000Y-138450000D03*
X101350000Y-138450000D03*
X73350000Y-144050000D03*
X75550000Y-144050000D03*
X86350000Y-144050000D03*
X88550000Y-144050000D03*
X99150000Y-144050000D03*
X101350000Y-144050000D03*
X75550000Y-146050000D03*
X73350000Y-146050000D03*
X88550000Y-146050000D03*
X86350000Y-146050000D03*
X101350000Y-146050000D03*
X99150000Y-146050000D03*
X69950000Y-139850000D03*
X67750000Y-139850000D03*
X82950000Y-139850000D03*
X80750000Y-139850000D03*
X95750000Y-139850000D03*
X93550000Y-139850000D03*
D49*
X118250000Y-83800000D03*
X118250000Y-88300000D03*
X110250000Y-83800000D03*
X110250000Y-88300000D03*
X110250000Y-86050000D03*
D50*
X56950000Y-149300000D03*
X56950000Y-150250000D03*
X56950000Y-151200000D03*
X59150000Y-151200000D03*
X59150000Y-149300000D03*
X59150000Y-150250000D03*
D51*
X62200000Y-134950000D03*
X61250000Y-134950000D03*
X60300000Y-134950000D03*
X60300000Y-137150000D03*
X62200000Y-137150000D03*
D52*
X105250000Y-151900000D03*
X104300000Y-151900000D03*
X106200000Y-151900000D03*
X105250000Y-154600000D03*
X104300000Y-154600000D03*
X106200000Y-154600000D03*
D53*
X76150000Y-94850000D03*
X80550000Y-94850000D03*
D30*
X82520000Y-122725000D03*
X85060000Y-125775000D03*
X79980000Y-125775000D03*
X77440000Y-122725000D03*
D54*
X95175000Y-121320000D03*
X92125000Y-123860000D03*
X92125000Y-118780000D03*
X95175000Y-116240000D03*
D31*
X109850000Y-94850000D03*
D32*
X112390000Y-94850000D03*
X114930000Y-94850000D03*
X117470000Y-94850000D03*
D27*
X64850000Y-134850000D03*
X64850000Y-141650000D03*
D22*
X55650000Y-134000000D03*
X55650000Y-136700000D03*
D55*
X104049800Y-158300680D03*
X104849900Y-158300680D03*
X105650000Y-158300680D03*
X106450100Y-158300680D03*
X107250200Y-158300680D03*
D56*
X101199920Y-158399740D03*
X101199920Y-163898840D03*
X110100080Y-158399740D03*
X110100080Y-163898840D03*
D57*
X103450360Y-160899100D03*
X107849640Y-160899100D03*
D18*
X105225000Y-110150000D03*
X102725000Y-110150000D03*
D35*
X105350000Y-99160000D03*
D36*
X107890000Y-99160000D03*
X105350000Y-101700000D03*
X107890000Y-101700000D03*
X105350000Y-104240000D03*
X107890000Y-104240000D03*
X105350000Y-106780000D03*
X107890000Y-106780000D03*
D58*
X47090000Y-88350000D03*
D59*
X44550000Y-88350000D03*
X42010000Y-88350000D03*
X39470000Y-88350000D03*
X36930000Y-88350000D03*
X34390000Y-88350000D03*
D58*
X31850000Y-88350000D03*
D59*
X29310000Y-88350000D03*
X29310000Y-101050000D03*
X31850000Y-101050000D03*
X34390000Y-101050000D03*
X36930000Y-101050000D03*
X39470000Y-101050000D03*
X42010000Y-101050000D03*
X44550000Y-101050000D03*
X47090000Y-101050000D03*
D58*
X47090000Y-119850000D03*
D59*
X44550000Y-119850000D03*
X42010000Y-119850000D03*
X39470000Y-119850000D03*
X36930000Y-119850000D03*
X34390000Y-119850000D03*
D58*
X31850000Y-119850000D03*
D59*
X29310000Y-119850000D03*
X29310000Y-132550000D03*
X31850000Y-132550000D03*
X34390000Y-132550000D03*
X36930000Y-132550000D03*
X39470000Y-132550000D03*
X42010000Y-132550000D03*
X44550000Y-132550000D03*
X47090000Y-132550000D03*
D58*
X47090000Y-104100000D03*
D59*
X44550000Y-104100000D03*
X42010000Y-104100000D03*
X39470000Y-104100000D03*
X36930000Y-104100000D03*
X34390000Y-104100000D03*
D58*
X31850000Y-104100000D03*
D59*
X29310000Y-104100000D03*
X29310000Y-116800000D03*
X31850000Y-116800000D03*
X34390000Y-116800000D03*
X36930000Y-116800000D03*
X39470000Y-116800000D03*
X42010000Y-116800000D03*
X44550000Y-116800000D03*
X47090000Y-116800000D03*
D58*
X49340000Y-135600000D03*
D59*
X46800000Y-135600000D03*
X44260000Y-135600000D03*
X41720000Y-135600000D03*
X39180000Y-135600000D03*
X36640000Y-135600000D03*
D58*
X34100000Y-135600000D03*
D59*
X31560000Y-135600000D03*
X31560000Y-148300000D03*
X34100000Y-148300000D03*
X36640000Y-148300000D03*
X39180000Y-148300000D03*
X41720000Y-148300000D03*
X44260000Y-148300000D03*
X46800000Y-148300000D03*
X49340000Y-148300000D03*
D58*
X47090000Y-72600000D03*
D59*
X44550000Y-72600000D03*
X42010000Y-72600000D03*
X39470000Y-72600000D03*
X36930000Y-72600000D03*
X34390000Y-72600000D03*
D58*
X31850000Y-72600000D03*
D59*
X29310000Y-72600000D03*
X29310000Y-85300000D03*
X31850000Y-85300000D03*
X34390000Y-85300000D03*
X36930000Y-85300000D03*
X39470000Y-85300000D03*
X42010000Y-85300000D03*
X44550000Y-85300000D03*
X47090000Y-85300000D03*
D12*
X103150000Y-105750000D03*
M02*
