%TF.GenerationSoftware,KiCad,Pcbnew,4.0.1-stable*%
%TF.CreationDate,2016-03-09T21:56:23+01:00*%
%TF.ProjectId,ReST,526553542E6B696361645F7063620000,Rev. A*%
%TF.FileFunction,Soldermask,Top*%
%FSLAX46Y46*%
G04 Gerber Fmt 4.6, Leading zero omitted, Abs format (unit mm)*
G04 Created by KiCad (PCBNEW 4.0.1-stable) date 09.03.2016 21:56:23*
%MOMM*%
G01*
G04 APERTURE LIST*
%ADD10C,0.100000*%
%ADD11C,0.010000*%
%ADD12O,2.398980X2.398980*%
%ADD13R,2.398980X2.398980*%
%ADD14R,1.650000X1.900000*%
%ADD15R,1.900000X1.650000*%
%ADD16R,2.000200X2.599640*%
%ADD17O,4.400000X6.900000*%
%ADD18R,1.950000X1.000000*%
%ADD19R,5.800040X3.300680*%
%ADD20R,2.701240X0.900380*%
%ADD21R,2.899360X2.398980*%
%ADD22C,1.400000*%
%ADD23R,2.127200X2.127200*%
%ADD24O,2.127200X2.127200*%
%ADD25R,2.127200X2.432000*%
%ADD26O,2.127200X2.432000*%
%ADD27C,2.900000*%
%ADD28R,2.432000X2.127200*%
%ADD29O,2.432000X2.127200*%
%ADD30R,1.900000X1.700000*%
%ADD31R,1.700000X1.900000*%
%ADD32C,1.797000*%
%ADD33R,2.000000X1.050000*%
%ADD34O,2.700000X2.000000*%
%ADD35R,1.924000X1.924000*%
%ADD36C,1.924000*%
%ADD37R,2.500580X6.000700*%
%ADD38R,3.100020X1.299160*%
%ADD39R,3.498800X1.299160*%
%ADD40R,1.900000X0.700000*%
%ADD41R,0.700000X1.900000*%
%ADD42R,2.398980X4.199840*%
%ADD43R,11.901120X9.399220*%
G04 APERTURE END LIST*
D10*
D11*
X23170000Y-118680000D02*
G75*
G03X24170000Y-119680000I1000000J0D01*
G01*
X24170000Y-19680000D02*
G75*
G03X23170000Y-20680000I0J-1000000D01*
G01*
X123170000Y-20680000D02*
G75*
G03X122170000Y-19680000I-1000000J0D01*
G01*
X24170000Y-119680000D02*
X122170000Y-119680000D01*
X23170000Y-20680000D02*
X23170000Y-118680000D01*
X122170000Y-19680000D02*
X24170000Y-19680000D01*
X123170000Y-118680000D02*
X123170000Y-20680000D01*
X122170000Y-119680000D02*
G75*
G03X123170000Y-118680000I0J1000000D01*
G01*
D12*
X30960000Y-117080000D03*
D13*
X38580000Y-117080000D03*
D12*
X36040000Y-117080000D03*
X33500000Y-117080000D03*
D14*
X91220000Y-75280000D03*
X91220000Y-77780000D03*
D15*
X35070000Y-80280000D03*
X37570000Y-80280000D03*
X86220000Y-62080000D03*
X88720000Y-62080000D03*
X72795000Y-62005000D03*
X75295000Y-62005000D03*
X69320000Y-79180000D03*
X66820000Y-79180000D03*
X89045000Y-83255000D03*
X86545000Y-83255000D03*
D14*
X90850000Y-66300000D03*
X90850000Y-68800000D03*
X112745000Y-72805000D03*
X112745000Y-70305000D03*
X112745000Y-90555000D03*
X112745000Y-88055000D03*
X112745000Y-108055000D03*
X112745000Y-105555000D03*
X112745000Y-81555000D03*
X112745000Y-79055000D03*
X112745000Y-99305000D03*
X112745000Y-96805000D03*
X106020000Y-116680000D03*
X106020000Y-114180000D03*
D16*
X75219920Y-56130000D03*
X71420080Y-56130000D03*
D17*
X28270000Y-50780000D03*
X28270000Y-41280000D03*
D18*
X89095000Y-90910000D03*
X89095000Y-89640000D03*
X89095000Y-88370000D03*
X89095000Y-87100000D03*
X83695000Y-87100000D03*
X83695000Y-88370000D03*
X83695000Y-89640000D03*
X83695000Y-90910000D03*
D19*
X76370000Y-41028740D03*
X76370000Y-51031260D03*
D20*
X31019320Y-82429800D03*
X31019320Y-83229900D03*
X31019320Y-84030000D03*
X31019320Y-84830100D03*
X31019320Y-85630200D03*
D21*
X30920260Y-79579920D03*
X25421160Y-79579920D03*
X30920260Y-88480080D03*
X25421160Y-88480080D03*
D22*
X28420900Y-81830360D03*
X28420900Y-86229640D03*
D23*
X86970000Y-44680000D03*
D24*
X86970000Y-42140000D03*
X89510000Y-44680000D03*
X89510000Y-42140000D03*
X92050000Y-44680000D03*
X92050000Y-42140000D03*
X94590000Y-44680000D03*
X94590000Y-42140000D03*
X97130000Y-44680000D03*
X97130000Y-42140000D03*
D23*
X100770000Y-44680000D03*
D24*
X100770000Y-42140000D03*
X103310000Y-44680000D03*
X103310000Y-42140000D03*
X105850000Y-44680000D03*
X105850000Y-42140000D03*
X108390000Y-44680000D03*
X108390000Y-42140000D03*
X110930000Y-44680000D03*
X110930000Y-42140000D03*
D25*
X59370000Y-90080000D03*
D26*
X61910000Y-90080000D03*
X64450000Y-90080000D03*
X66990000Y-90080000D03*
X69530000Y-90080000D03*
X72070000Y-90080000D03*
X74610000Y-90080000D03*
X77150000Y-90080000D03*
X79690000Y-90080000D03*
D27*
X28070000Y-67280000D03*
X28070000Y-72280000D03*
D28*
X56770000Y-77880000D03*
D29*
X56770000Y-80420000D03*
X56770000Y-82960000D03*
X56770000Y-85500000D03*
D25*
X99020000Y-83560000D03*
D26*
X101560000Y-83560000D03*
X104100000Y-83560000D03*
X106640000Y-83560000D03*
D23*
X99020000Y-88630000D03*
D24*
X99020000Y-86090000D03*
X101560000Y-88630000D03*
X101560000Y-86090000D03*
X104100000Y-88630000D03*
X104100000Y-86090000D03*
X106640000Y-88630000D03*
X106640000Y-86090000D03*
D25*
X63970000Y-62080000D03*
D26*
X66510000Y-62080000D03*
X69050000Y-62080000D03*
D23*
X66970000Y-71680000D03*
D24*
X64430000Y-71680000D03*
X66970000Y-69140000D03*
X64430000Y-69140000D03*
X66970000Y-66600000D03*
X64430000Y-66600000D03*
D28*
X50770000Y-85480000D03*
D29*
X50770000Y-82940000D03*
X50770000Y-80400000D03*
X50770000Y-77860000D03*
X50770000Y-75320000D03*
D25*
X45170000Y-69280000D03*
D26*
X47710000Y-69280000D03*
X50250000Y-69280000D03*
D28*
X59570000Y-77880000D03*
D29*
X59570000Y-80420000D03*
X59570000Y-82960000D03*
X59570000Y-85500000D03*
D23*
X121510000Y-51080000D03*
D24*
X121510000Y-53620000D03*
X118970000Y-51080000D03*
X118970000Y-53620000D03*
X116430000Y-51080000D03*
X116430000Y-53620000D03*
X113890000Y-51080000D03*
X113890000Y-53620000D03*
D28*
X53970000Y-77880000D03*
D29*
X53970000Y-80420000D03*
X53970000Y-82960000D03*
X53970000Y-85500000D03*
D23*
X121500000Y-57280000D03*
D24*
X121500000Y-59820000D03*
X118960000Y-57280000D03*
X118960000Y-59820000D03*
X116420000Y-57280000D03*
X116420000Y-59820000D03*
X113880000Y-57280000D03*
X113880000Y-59820000D03*
D28*
X115495000Y-67805000D03*
D29*
X115495000Y-70345000D03*
X115495000Y-72885000D03*
D28*
X115495000Y-85555000D03*
D29*
X115495000Y-88095000D03*
X115495000Y-90635000D03*
D28*
X115495000Y-103055000D03*
D29*
X115495000Y-105595000D03*
X115495000Y-108135000D03*
D28*
X115495000Y-76555000D03*
D29*
X115495000Y-79095000D03*
X115495000Y-81635000D03*
D28*
X115495000Y-94305000D03*
D29*
X115495000Y-96845000D03*
X115495000Y-99385000D03*
D28*
X115495000Y-111805000D03*
D29*
X115495000Y-114345000D03*
X115495000Y-116885000D03*
D12*
X94210000Y-117080000D03*
D13*
X101830000Y-117080000D03*
D12*
X99290000Y-117080000D03*
X96750000Y-117080000D03*
X73260000Y-117080000D03*
D13*
X80880000Y-117080000D03*
D12*
X78340000Y-117080000D03*
X75800000Y-117080000D03*
X52210000Y-117080000D03*
D13*
X59830000Y-117080000D03*
D12*
X57290000Y-117080000D03*
X54750000Y-117080000D03*
D23*
X30920000Y-112330000D03*
D24*
X30920000Y-109790000D03*
X33460000Y-112330000D03*
X33460000Y-109790000D03*
X36000000Y-112330000D03*
X36000000Y-109790000D03*
X38540000Y-112330000D03*
X38540000Y-109790000D03*
D23*
X96820000Y-101480000D03*
D24*
X96820000Y-104020000D03*
X94280000Y-101480000D03*
X94280000Y-104020000D03*
X91740000Y-101480000D03*
X91740000Y-104020000D03*
D23*
X75870000Y-101480000D03*
D24*
X75870000Y-104020000D03*
X73330000Y-101480000D03*
X73330000Y-104020000D03*
X70790000Y-101480000D03*
X70790000Y-104020000D03*
D23*
X33420000Y-98930000D03*
D24*
X33420000Y-101470000D03*
X30880000Y-98930000D03*
X30880000Y-101470000D03*
X28340000Y-98930000D03*
X28340000Y-101470000D03*
D23*
X54820000Y-101480000D03*
D24*
X54820000Y-104020000D03*
X52280000Y-101480000D03*
X52280000Y-104020000D03*
X49740000Y-101480000D03*
X49740000Y-104020000D03*
D30*
X26720000Y-77030000D03*
X29420000Y-77030000D03*
X40970000Y-84530000D03*
X43670000Y-84530000D03*
X43670000Y-82030000D03*
X40970000Y-82030000D03*
D31*
X57170000Y-40980000D03*
X57170000Y-43680000D03*
X57170000Y-46780000D03*
X57170000Y-49480000D03*
D30*
X101270000Y-99080000D03*
X103970000Y-99080000D03*
X80320000Y-99080000D03*
X83020000Y-99080000D03*
X37870000Y-96530000D03*
X40570000Y-96530000D03*
X59270000Y-99080000D03*
X61970000Y-99080000D03*
D32*
X105966000Y-72784000D03*
X105966000Y-77864000D03*
X98346000Y-72784000D03*
X98346000Y-77864000D03*
D33*
X37420000Y-83380000D03*
X37420000Y-82430000D03*
X37420000Y-84330000D03*
X34720000Y-83380000D03*
X34720000Y-82430000D03*
X34720000Y-84330000D03*
D34*
X60370000Y-41930000D03*
X60370000Y-44470000D03*
X60370000Y-47010000D03*
X60370000Y-49550000D03*
X67990000Y-49550000D03*
X67990000Y-47010000D03*
X67990000Y-44470000D03*
X67990000Y-41930000D03*
D35*
X89130000Y-109230000D03*
D36*
X91670000Y-109230000D03*
X94210000Y-109230000D03*
X96750000Y-109230000D03*
X99290000Y-109230000D03*
X101830000Y-109230000D03*
D35*
X104370000Y-109230000D03*
D36*
X106910000Y-109230000D03*
X106910000Y-96530000D03*
X104370000Y-96530000D03*
X101830000Y-96530000D03*
X99290000Y-96530000D03*
X96750000Y-96530000D03*
X94210000Y-96530000D03*
X91670000Y-96530000D03*
X89130000Y-96530000D03*
D35*
X68180000Y-109230000D03*
D36*
X70720000Y-109230000D03*
X73260000Y-109230000D03*
X75800000Y-109230000D03*
X78340000Y-109230000D03*
X80880000Y-109230000D03*
D35*
X83420000Y-109230000D03*
D36*
X85960000Y-109230000D03*
X85960000Y-96530000D03*
X83420000Y-96530000D03*
X80880000Y-96530000D03*
X78340000Y-96530000D03*
X75800000Y-96530000D03*
X73260000Y-96530000D03*
X70720000Y-96530000D03*
X68180000Y-96530000D03*
D35*
X25842000Y-106606000D03*
D36*
X28382000Y-106606000D03*
X30922000Y-106606000D03*
X33462000Y-106606000D03*
X36002000Y-106606000D03*
X38542000Y-106606000D03*
D35*
X41082000Y-106606000D03*
D36*
X43622000Y-106606000D03*
X43622000Y-93906000D03*
X41082000Y-93906000D03*
X38542000Y-93906000D03*
X36002000Y-93906000D03*
X33462000Y-93906000D03*
X30922000Y-93906000D03*
X28382000Y-93906000D03*
X25842000Y-93906000D03*
D35*
X47130000Y-109230000D03*
D36*
X49670000Y-109230000D03*
X52210000Y-109230000D03*
X54750000Y-109230000D03*
X57290000Y-109230000D03*
X59830000Y-109230000D03*
D35*
X62370000Y-109230000D03*
D36*
X64910000Y-109230000D03*
X64910000Y-96530000D03*
X62370000Y-96530000D03*
X59830000Y-96530000D03*
X57290000Y-96530000D03*
X54750000Y-96530000D03*
X52210000Y-96530000D03*
X49670000Y-96530000D03*
X47130000Y-96530000D03*
D25*
X101845000Y-112380000D03*
D26*
X99305000Y-112380000D03*
X96765000Y-112380000D03*
X94225000Y-112380000D03*
D25*
X80870000Y-112380000D03*
D26*
X78330000Y-112380000D03*
X75790000Y-112380000D03*
X73250000Y-112380000D03*
D25*
X59820000Y-112380000D03*
D26*
X57280000Y-112380000D03*
X54740000Y-112380000D03*
X52200000Y-112380000D03*
D31*
X96445000Y-78080000D03*
X96445000Y-75380000D03*
X108320000Y-73680000D03*
X108320000Y-76380000D03*
D28*
X107370000Y-63280000D03*
D29*
X107370000Y-65820000D03*
X107370000Y-68360000D03*
D30*
X93220000Y-89380000D03*
X95920000Y-89380000D03*
X93070000Y-85930000D03*
X95770000Y-85930000D03*
D15*
X99495000Y-58830000D03*
X101995000Y-58830000D03*
D30*
X100820000Y-70380000D03*
X98120000Y-70380000D03*
X98020000Y-62830000D03*
X100720000Y-62830000D03*
D15*
X85320000Y-58680000D03*
X87820000Y-58680000D03*
D37*
X94470000Y-62281140D03*
X94470000Y-71978860D03*
D38*
X39970220Y-63930000D03*
X44069780Y-63930000D03*
D39*
X59471100Y-64430000D03*
X54568900Y-64430000D03*
X66521100Y-55880000D03*
X61618900Y-55880000D03*
X61368900Y-35780000D03*
X66271100Y-35780000D03*
X42671100Y-101530000D03*
X37768900Y-101530000D03*
X64071100Y-104080000D03*
X59168900Y-104080000D03*
X85121100Y-104080000D03*
X80218900Y-104080000D03*
X106071100Y-104080000D03*
X101168900Y-104080000D03*
D12*
X120470000Y-79550000D03*
D13*
X120470000Y-71930000D03*
D12*
X120470000Y-74470000D03*
X120470000Y-77010000D03*
X120470000Y-82090000D03*
X120470000Y-84630000D03*
X120470000Y-95650000D03*
D13*
X120470000Y-88030000D03*
D12*
X120470000Y-90570000D03*
X120470000Y-93110000D03*
X120470000Y-98190000D03*
X120470000Y-100730000D03*
X120470000Y-111750000D03*
D13*
X120470000Y-104130000D03*
D12*
X120470000Y-106670000D03*
X120470000Y-109210000D03*
X120470000Y-114290000D03*
X120470000Y-116830000D03*
D40*
X88245000Y-78755000D03*
X88245000Y-78255000D03*
X88245000Y-77755000D03*
X88245000Y-77255000D03*
X88245000Y-76755000D03*
X88245000Y-76255000D03*
X88245000Y-75755000D03*
X88245000Y-75255000D03*
X88245000Y-74755000D03*
X88245000Y-74255000D03*
X88245000Y-73755000D03*
X88245000Y-73255000D03*
X88245000Y-72755000D03*
X88245000Y-72255000D03*
X88245000Y-71755000D03*
X88245000Y-71255000D03*
X88245000Y-70755000D03*
X88245000Y-70255000D03*
X88245000Y-69755000D03*
X88245000Y-69255000D03*
X88245000Y-68755000D03*
X88245000Y-68255000D03*
X88245000Y-67755000D03*
X88245000Y-67255000D03*
X88245000Y-66755000D03*
D41*
X86545000Y-65055000D03*
X86045000Y-65055000D03*
X85545000Y-65055000D03*
X85045000Y-65055000D03*
X84545000Y-65055000D03*
X84045000Y-65055000D03*
X83545000Y-65055000D03*
X83045000Y-65055000D03*
X82545000Y-65055000D03*
X82045000Y-65055000D03*
X81545000Y-65055000D03*
X81045000Y-65055000D03*
X80545000Y-65055000D03*
X80045000Y-65055000D03*
X79545000Y-65055000D03*
X79045000Y-65055000D03*
X78545000Y-65055000D03*
X78045000Y-65055000D03*
X77545000Y-65055000D03*
X77045000Y-65055000D03*
X76545000Y-65055000D03*
X76045000Y-65055000D03*
X75545000Y-65055000D03*
X75045000Y-65055000D03*
X74545000Y-65055000D03*
D40*
X72845000Y-66755000D03*
X72845000Y-67255000D03*
X72845000Y-67755000D03*
X72845000Y-68255000D03*
X72845000Y-68755000D03*
X72845000Y-69255000D03*
X72845000Y-69755000D03*
X72845000Y-70255000D03*
X72845000Y-70755000D03*
X72845000Y-71255000D03*
X72845000Y-71755000D03*
X72845000Y-72255000D03*
X72845000Y-72755000D03*
X72845000Y-73255000D03*
X72845000Y-73755000D03*
X72845000Y-74255000D03*
X72845000Y-74755000D03*
X72845000Y-75255000D03*
X72845000Y-75755000D03*
X72845000Y-76255000D03*
X72845000Y-76755000D03*
X72845000Y-77255000D03*
X72845000Y-77755000D03*
X72845000Y-78255000D03*
X72845000Y-78755000D03*
D41*
X74545000Y-80455000D03*
X75045000Y-80455000D03*
X75545000Y-80455000D03*
X76045000Y-80455000D03*
X76545000Y-80455000D03*
X77045000Y-80455000D03*
X77545000Y-80455000D03*
X78045000Y-80455000D03*
X78545000Y-80455000D03*
X79045000Y-80455000D03*
X79545000Y-80455000D03*
X80045000Y-80455000D03*
X80545000Y-80455000D03*
X81045000Y-80455000D03*
X81545000Y-80455000D03*
X82045000Y-80455000D03*
X82545000Y-80455000D03*
X83045000Y-80455000D03*
X83545000Y-80455000D03*
X84045000Y-80455000D03*
X84545000Y-80455000D03*
X85045000Y-80455000D03*
X85545000Y-80455000D03*
X86045000Y-80455000D03*
X86545000Y-80455000D03*
D42*
X46770640Y-58729900D03*
X51769360Y-58729900D03*
D43*
X49270000Y-47630100D03*
D23*
X24970000Y-24480000D03*
D24*
X24970000Y-21940000D03*
X27510000Y-24480000D03*
X27510000Y-21940000D03*
X30050000Y-24480000D03*
X30050000Y-21940000D03*
X32590000Y-24480000D03*
X32590000Y-21940000D03*
D23*
X41570000Y-24480000D03*
D24*
X41570000Y-21940000D03*
X44110000Y-24480000D03*
X44110000Y-21940000D03*
X46650000Y-24480000D03*
X46650000Y-21940000D03*
X49190000Y-24480000D03*
X49190000Y-21940000D03*
X51730000Y-24480000D03*
X51730000Y-21940000D03*
X54270000Y-24480000D03*
X54270000Y-21940000D03*
X56810000Y-24480000D03*
X56810000Y-21940000D03*
X59350000Y-24480000D03*
X59350000Y-21940000D03*
D23*
X67170000Y-24480000D03*
D24*
X67170000Y-21940000D03*
X69710000Y-24480000D03*
X69710000Y-21940000D03*
X72250000Y-24480000D03*
X72250000Y-21940000D03*
X74790000Y-24480000D03*
X74790000Y-21940000D03*
X77330000Y-24480000D03*
X77330000Y-21940000D03*
X79870000Y-24480000D03*
X79870000Y-21940000D03*
X82410000Y-24480000D03*
X82410000Y-21940000D03*
X84950000Y-24480000D03*
X84950000Y-21940000D03*
D23*
X95170000Y-24480000D03*
D24*
X95170000Y-21940000D03*
X97710000Y-24480000D03*
X97710000Y-21940000D03*
X100250000Y-24480000D03*
X100250000Y-21940000D03*
X102790000Y-24480000D03*
X102790000Y-21940000D03*
X105330000Y-24480000D03*
X105330000Y-21940000D03*
X107870000Y-24480000D03*
X107870000Y-21940000D03*
X110410000Y-24480000D03*
X110410000Y-21940000D03*
D23*
X118570000Y-22080000D03*
D24*
X121110000Y-22080000D03*
X118570000Y-24620000D03*
X121110000Y-24620000D03*
X118570000Y-27160000D03*
X121110000Y-27160000D03*
X118570000Y-29700000D03*
X121110000Y-29700000D03*
X118570000Y-32240000D03*
X121110000Y-32240000D03*
X118570000Y-34780000D03*
X121110000Y-34780000D03*
X118570000Y-37320000D03*
X121110000Y-37320000D03*
X118570000Y-39860000D03*
X121110000Y-39860000D03*
X118570000Y-42400000D03*
X121110000Y-42400000D03*
X118570000Y-44940000D03*
X121110000Y-44940000D03*
M02*
