%TF.GenerationSoftware,KiCad,Pcbnew,4.0.2-stable*%
%TF.CreationDate,2016-05-17T21:29:08+02:00*%
%TF.ProjectId,ReST,526553542E6B696361645F7063620000,Rev. A*%
%TF.FileFunction,Soldermask,Top*%
%FSLAX46Y46*%
G04 Gerber Fmt 4.6, Leading zero omitted, Abs format (unit mm)*
G04 Created by KiCad (PCBNEW 4.0.2-stable) date 17.05.2016 21:29:08*
%MOMM*%
G01*
G04 APERTURE LIST*
%ADD10C,0.100000*%
%ADD11C,0.010000*%
%ADD12C,0.602000*%
%ADD13C,6.500000*%
%ADD14R,3.098800X0.899160*%
%ADD15R,1.700000X1.700000*%
%ADD16C,1.700000*%
%ADD17C,2.500000*%
%ADD18R,1.727200X1.727200*%
%ADD19O,1.727200X1.727200*%
%ADD20R,1.600000X0.299720*%
%ADD21R,1.630000X0.299720*%
%ADD22R,0.299720X1.600000*%
%ADD23R,1.727200X2.032000*%
%ADD24O,1.727200X2.032000*%
%ADD25R,1.600000X0.650000*%
%ADD26R,2.000000X1.800000*%
%ADD27R,1.500000X1.300000*%
%ADD28R,1.500000X1.250000*%
%ADD29R,1.250000X1.500000*%
%ADD30R,0.899160X2.700020*%
%ADD31R,1.300000X1.500000*%
%ADD32R,1.600200X2.199640*%
%ADD33C,2.200000*%
%ADD34R,0.600000X1.550000*%
%ADD35R,2.032000X1.727200*%
%ADD36O,2.032000X1.727200*%
%ADD37R,2.301240X0.500380*%
%ADD38R,2.499360X1.998980*%
%ADD39C,0.899160*%
%ADD40C,2.400000*%
%ADD41R,2.400000X2.400000*%
%ADD42R,1.524000X1.524000*%
%ADD43C,1.524000*%
%ADD44R,3.450000X1.020000*%
%ADD45R,2.000000X3.500000*%
%ADD46R,0.650000X1.060000*%
%ADD47R,1.020000X3.450000*%
%ADD48R,1.600000X1.600000*%
%ADD49C,3.300000*%
%ADD50R,1.998980X3.799840*%
%ADD51R,17.000000X10.000000*%
G04 APERTURE END LIST*
D10*
D11*
X104450000Y-60450000D02*
X104450000Y-160450000D01*
X204450000Y-60450000D02*
X104450000Y-60450000D01*
X204450000Y-160450000D02*
X204450000Y-60450000D01*
X104450000Y-160450000D02*
X204450000Y-160450000D01*
D12*
X136770000Y-104310000D03*
X135610000Y-104310000D03*
X134450000Y-104310000D03*
X133290000Y-104310000D03*
X132130000Y-104310000D03*
X130970000Y-104310000D03*
X129810000Y-104310000D03*
X128650000Y-104310000D03*
X136770000Y-103120000D03*
X135610000Y-103120000D03*
X134450000Y-103120000D03*
X133290000Y-103120000D03*
X132130000Y-103120000D03*
X130970000Y-103120000D03*
X129810000Y-103120000D03*
X128650000Y-103120000D03*
X136770000Y-101930000D03*
X135610000Y-101930000D03*
X134450000Y-101930000D03*
X133290000Y-101930000D03*
X132130000Y-101930000D03*
X130970000Y-101930000D03*
X129810000Y-101930000D03*
X128650000Y-101930000D03*
X136770000Y-100740000D03*
X135610000Y-100740000D03*
X134450000Y-100740000D03*
X133290000Y-100740000D03*
X132130000Y-100740000D03*
X130970000Y-100740000D03*
X129810000Y-100740000D03*
X128650000Y-100740000D03*
X136770000Y-99550000D03*
X135610000Y-99550000D03*
X134450000Y-99550000D03*
X133290000Y-99550000D03*
X132130000Y-99550000D03*
X130970000Y-99550000D03*
X129810000Y-99550000D03*
X128650000Y-99550000D03*
X154100000Y-94250000D03*
X191850000Y-151450000D03*
X195250000Y-150850000D03*
D13*
X108950000Y-145950000D03*
X201950000Y-155450000D03*
X195450000Y-70450000D03*
D14*
X139323900Y-145325000D03*
X144226100Y-145325000D03*
D15*
X142680000Y-91470000D03*
D16*
X142680000Y-88930000D03*
X145220000Y-91470000D03*
X145220000Y-88930000D03*
D15*
X138870000Y-82970000D03*
D16*
X138870000Y-80430000D03*
X141410000Y-82970000D03*
X141410000Y-80430000D03*
X143950000Y-82970000D03*
X143950000Y-80430000D03*
X146490000Y-82970000D03*
X146490000Y-80430000D03*
X149030000Y-83224000D03*
X149030000Y-80430000D03*
D15*
X175910000Y-87420000D03*
D16*
X175910000Y-84880000D03*
X178450000Y-87420000D03*
X178450000Y-84880000D03*
X180990000Y-87420000D03*
X180990000Y-84880000D03*
D15*
X175980000Y-77750000D03*
D16*
X178520000Y-77750000D03*
D17*
X109450000Y-99950000D03*
X109450000Y-104950000D03*
D18*
X200450000Y-146490000D03*
D19*
X197910000Y-146490000D03*
X200450000Y-143950000D03*
X197910000Y-143950000D03*
X200450000Y-141410000D03*
X197910000Y-141410000D03*
X200450000Y-138870000D03*
X197910000Y-138870000D03*
X200450000Y-136330000D03*
X197910000Y-136330000D03*
D20*
X156010046Y-108118054D03*
X156010046Y-108618434D03*
X156010046Y-109116274D03*
X156010046Y-109616654D03*
X156010046Y-110117034D03*
X156010046Y-110617414D03*
X156010046Y-111117794D03*
X156010046Y-111618174D03*
X156010046Y-112118554D03*
X156010046Y-112616394D03*
X156010046Y-113116774D03*
X156010046Y-113617154D03*
X156010046Y-114117534D03*
X156010046Y-114617914D03*
X156010046Y-115118294D03*
X156010046Y-115618674D03*
X156010046Y-116116514D03*
X156010046Y-116616894D03*
X156010046Y-117117274D03*
X156010046Y-117617654D03*
X156010046Y-118118034D03*
X156010046Y-118618414D03*
D21*
X156010046Y-119118794D03*
D20*
X156010046Y-119616634D03*
X156010046Y-120117014D03*
D22*
X157960566Y-122067534D03*
X158460946Y-122067534D03*
X158958786Y-122067534D03*
X159459166Y-122067534D03*
X159959546Y-122067534D03*
X160459926Y-122067534D03*
X160960306Y-122067534D03*
X161460686Y-122067534D03*
X161961066Y-122067534D03*
X162458906Y-122067534D03*
X162959286Y-122067534D03*
X163459666Y-122067534D03*
X163960046Y-122067534D03*
X164460426Y-122067534D03*
X164960806Y-122067534D03*
X165461186Y-122067534D03*
X165959026Y-122067534D03*
X166459406Y-122067534D03*
X166959786Y-122067534D03*
X167460166Y-122067534D03*
X167960546Y-122067534D03*
X168460926Y-122067534D03*
X168961306Y-122067534D03*
X169459146Y-122067534D03*
X169959526Y-122067534D03*
D20*
X171910046Y-120117014D03*
X171910046Y-119616634D03*
X171910046Y-119118794D03*
X171910046Y-118618414D03*
X171910046Y-118118034D03*
X171910046Y-117617654D03*
X171910046Y-117117274D03*
X171910046Y-116616894D03*
X171910046Y-116116514D03*
X171910046Y-115618674D03*
X171910046Y-115118294D03*
X171910046Y-114617914D03*
X171910046Y-114117534D03*
X171910046Y-113617154D03*
X171910046Y-113116774D03*
X171910046Y-112616394D03*
X171910046Y-112118554D03*
X171910046Y-111618174D03*
X171910046Y-111117794D03*
X171910046Y-110617414D03*
X171910046Y-110117034D03*
X171910046Y-109616654D03*
X171910046Y-109116274D03*
X171910046Y-108618434D03*
X171910046Y-108118054D03*
D22*
X169959526Y-106167534D03*
X169459146Y-106167534D03*
X168961306Y-106167534D03*
X168460926Y-106167534D03*
X167960546Y-106167534D03*
X167460166Y-106167534D03*
X166959786Y-106167534D03*
X166459406Y-106167534D03*
X165959026Y-106167534D03*
X165461186Y-106167534D03*
X164960806Y-106167534D03*
X164460426Y-106167534D03*
X163960046Y-106167534D03*
X163459666Y-106167534D03*
X162959286Y-106167534D03*
X162458906Y-106167534D03*
X161961066Y-106167534D03*
X161460686Y-106167534D03*
X160960306Y-106167534D03*
X160459926Y-106167534D03*
X159959546Y-106167534D03*
X159459166Y-106167534D03*
X158958786Y-106167534D03*
X158460946Y-106167534D03*
X157960566Y-106167534D03*
D23*
X180904000Y-96188000D03*
D24*
X178364000Y-96188000D03*
X175824000Y-96188000D03*
X173284000Y-96188000D03*
D25*
X120225000Y-119100000D03*
X120225000Y-118150000D03*
X120225000Y-120050000D03*
X117525000Y-119100000D03*
X117525000Y-118150000D03*
X117525000Y-120050000D03*
D26*
X152950000Y-115850000D03*
X152950000Y-111450000D03*
D27*
X140100000Y-123450000D03*
X142800000Y-123450000D03*
X142800000Y-110200000D03*
X140100000Y-110200000D03*
D28*
X158579391Y-125716493D03*
X156079391Y-125716493D03*
X173200000Y-122050000D03*
X175700000Y-122050000D03*
D29*
X152504391Y-108800000D03*
X152504391Y-106300000D03*
D28*
X156500000Y-103250000D03*
X154000000Y-103250000D03*
D29*
X174504391Y-105400000D03*
X174504391Y-107900000D03*
D28*
X152710046Y-120117534D03*
X150210046Y-120117534D03*
X152754391Y-124916493D03*
X150254391Y-124916493D03*
D30*
X124450000Y-110699780D03*
X124450000Y-106600220D03*
D14*
X134901100Y-117950000D03*
X129998900Y-117950000D03*
D29*
X108181010Y-135207736D03*
X108181010Y-137707736D03*
X114381010Y-137707736D03*
X114381010Y-135207736D03*
X191450000Y-141200000D03*
X191450000Y-143700000D03*
X185450000Y-141200000D03*
X185450000Y-143700000D03*
X188450000Y-149300000D03*
X188450000Y-146800000D03*
X188450000Y-141200000D03*
X188450000Y-143700000D03*
X191450000Y-149300000D03*
X191450000Y-146800000D03*
X185450000Y-149300000D03*
X185450000Y-146800000D03*
D14*
X172073900Y-145325000D03*
X176976100Y-145325000D03*
X122823900Y-142800000D03*
X127726100Y-142800000D03*
X155698900Y-145325000D03*
X160601100Y-145325000D03*
D31*
X150204391Y-109716493D03*
X150204391Y-112416493D03*
X150210046Y-115017534D03*
X150210046Y-117717534D03*
D32*
X111150080Y-94750000D03*
X114949920Y-94750000D03*
D33*
X110950000Y-110450000D03*
X107250000Y-110450000D03*
X115450000Y-110450000D03*
X119150000Y-110450000D03*
D34*
X155355000Y-87500000D03*
X154085000Y-87500000D03*
X152815000Y-87500000D03*
X151545000Y-87500000D03*
X151545000Y-92900000D03*
X152815000Y-92900000D03*
X154085000Y-92900000D03*
X155355000Y-92900000D03*
D28*
X154804391Y-122366493D03*
X152304391Y-122366493D03*
D35*
X196954870Y-158368830D03*
D36*
X196954870Y-155828830D03*
X196954870Y-153288830D03*
D35*
X191874870Y-158368830D03*
D36*
X191874870Y-155828830D03*
X191874870Y-153288830D03*
D35*
X194414870Y-158368830D03*
D36*
X194414870Y-155828830D03*
X194414870Y-153288830D03*
D35*
X189334870Y-158368830D03*
D36*
X189334870Y-155828830D03*
X189334870Y-153288830D03*
D37*
X111999320Y-118099800D03*
X111999320Y-118899900D03*
X111999320Y-119700000D03*
X111999320Y-120500100D03*
X111999320Y-121300200D03*
D38*
X111900260Y-115249920D03*
X106401160Y-115249920D03*
X111900260Y-124150080D03*
X106401160Y-124150080D03*
D39*
X109400900Y-117500360D03*
X109400900Y-121899640D03*
D23*
X180904000Y-102284000D03*
D24*
X178364000Y-102284000D03*
X175824000Y-102284000D03*
X173284000Y-102284000D03*
D18*
X106990000Y-153330000D03*
D19*
X106990000Y-150790000D03*
X109530000Y-153330000D03*
X109530000Y-150790000D03*
X112070000Y-153330000D03*
X112070000Y-150790000D03*
X114610000Y-153330000D03*
X114610000Y-150790000D03*
D23*
X180904000Y-99236000D03*
D24*
X178364000Y-99236000D03*
X175824000Y-99236000D03*
X173284000Y-99236000D03*
D18*
X106990000Y-158410000D03*
D19*
X106990000Y-155870000D03*
X109530000Y-158410000D03*
X109530000Y-155870000D03*
X112070000Y-158410000D03*
X112070000Y-155870000D03*
X114610000Y-158410000D03*
X114610000Y-155870000D03*
D35*
X186794870Y-158368830D03*
D36*
X186794870Y-155828830D03*
X186794870Y-153288830D03*
D35*
X184254870Y-158368830D03*
D36*
X184254870Y-155828830D03*
X184254870Y-153288830D03*
D40*
X127525000Y-155425000D03*
D41*
X131025000Y-155425000D03*
D40*
X124025000Y-155425000D03*
X120525000Y-155425000D03*
X176775000Y-155425000D03*
D41*
X180275000Y-155425000D03*
D40*
X173275000Y-155425000D03*
X169775000Y-155425000D03*
X144025000Y-155425000D03*
D41*
X147525000Y-155425000D03*
D40*
X140525000Y-155425000D03*
X137025000Y-155425000D03*
X160400000Y-155425000D03*
D41*
X163900000Y-155425000D03*
D40*
X156900000Y-155425000D03*
X153400000Y-155425000D03*
D18*
X129600000Y-148100000D03*
D19*
X129600000Y-150640000D03*
X127060000Y-148100000D03*
X127060000Y-150640000D03*
X124520000Y-148100000D03*
X124520000Y-150640000D03*
X121980000Y-148100000D03*
X121980000Y-150640000D03*
D23*
X171200000Y-150625000D03*
D24*
X173740000Y-150625000D03*
X176280000Y-150625000D03*
X178820000Y-150625000D03*
D23*
X138450000Y-150625000D03*
D24*
X140990000Y-150625000D03*
X143530000Y-150625000D03*
X146070000Y-150625000D03*
D23*
X154825000Y-150625000D03*
D24*
X157365000Y-150625000D03*
X159905000Y-150625000D03*
X162445000Y-150625000D03*
D31*
X106450000Y-129550000D03*
X106450000Y-126850000D03*
D27*
X175875000Y-140575000D03*
X173175000Y-140575000D03*
X143125000Y-140575000D03*
X140425000Y-140575000D03*
X159500000Y-140575000D03*
X156800000Y-140575000D03*
X126650000Y-138050000D03*
X123950000Y-138050000D03*
D31*
X149450000Y-92500000D03*
X149450000Y-89800000D03*
X157450000Y-92550000D03*
X157450000Y-89850000D03*
D42*
X168675000Y-129935000D03*
D43*
X168675000Y-132475000D03*
X168675000Y-135015000D03*
X168675000Y-137555000D03*
X168675000Y-140095000D03*
X168675000Y-142635000D03*
D42*
X168675000Y-145175000D03*
D43*
X168675000Y-147715000D03*
X181375000Y-147715000D03*
X181375000Y-145175000D03*
X181375000Y-142635000D03*
X181375000Y-140095000D03*
X181375000Y-137555000D03*
X181375000Y-135015000D03*
X181375000Y-132475000D03*
X181375000Y-129935000D03*
D42*
X135925000Y-129935000D03*
D43*
X135925000Y-132475000D03*
X135925000Y-135015000D03*
X135925000Y-137555000D03*
X135925000Y-140095000D03*
X135925000Y-142635000D03*
D42*
X135925000Y-145175000D03*
D43*
X135925000Y-147715000D03*
X148625000Y-147715000D03*
X148625000Y-145175000D03*
X148625000Y-142635000D03*
X148625000Y-140095000D03*
X148625000Y-137555000D03*
X148625000Y-135015000D03*
X148625000Y-132475000D03*
X148625000Y-129935000D03*
D42*
X119425000Y-127410000D03*
D43*
X119425000Y-129950000D03*
X119425000Y-132490000D03*
X119425000Y-135030000D03*
X119425000Y-137570000D03*
X119425000Y-140110000D03*
D42*
X119425000Y-142650000D03*
D43*
X119425000Y-145190000D03*
X132125000Y-145190000D03*
X132125000Y-142650000D03*
X132125000Y-140110000D03*
X132125000Y-137570000D03*
X132125000Y-135030000D03*
X132125000Y-132490000D03*
X132125000Y-129950000D03*
X132125000Y-127410000D03*
D42*
X152300000Y-129935000D03*
D43*
X152300000Y-132475000D03*
X152300000Y-135015000D03*
X152300000Y-137555000D03*
X152300000Y-140095000D03*
X152300000Y-142635000D03*
D42*
X152300000Y-145175000D03*
D43*
X152300000Y-147715000D03*
X165000000Y-147715000D03*
X165000000Y-145175000D03*
X165000000Y-142635000D03*
X165000000Y-140095000D03*
X165000000Y-137555000D03*
X165000000Y-135015000D03*
X165000000Y-132475000D03*
X165000000Y-129935000D03*
D44*
X171800000Y-132785000D03*
X177250000Y-132785000D03*
X177250000Y-137865000D03*
X171800000Y-137865000D03*
X177250000Y-135325000D03*
X171800000Y-135325000D03*
X139050000Y-132785000D03*
X144500000Y-132785000D03*
X144500000Y-137865000D03*
X139050000Y-137865000D03*
X144500000Y-135325000D03*
X139050000Y-135325000D03*
X122550000Y-130260000D03*
X128000000Y-130260000D03*
X128000000Y-135340000D03*
X122550000Y-135340000D03*
X128000000Y-132800000D03*
X122550000Y-132800000D03*
X155425000Y-132785000D03*
X160875000Y-132785000D03*
X160875000Y-137865000D03*
X155425000Y-137865000D03*
X160875000Y-135325000D03*
X155425000Y-135325000D03*
D23*
X108781010Y-140857736D03*
D24*
X111321010Y-140857736D03*
X113861010Y-140857736D03*
D45*
X112681010Y-131857736D03*
X109681010Y-131857736D03*
D46*
X110306010Y-137132736D03*
X111256010Y-137132736D03*
X112206010Y-137132736D03*
X112206010Y-134932736D03*
X110306010Y-134932736D03*
D15*
X192910000Y-87420000D03*
D16*
X192910000Y-84880000D03*
X195450000Y-87420000D03*
X195450000Y-84880000D03*
X197990000Y-87420000D03*
X197990000Y-84880000D03*
D15*
X192980000Y-77750000D03*
D16*
X195520000Y-77750000D03*
D15*
X190280000Y-95200000D03*
D16*
X192820000Y-95200000D03*
X190280000Y-97740000D03*
X192820000Y-97740000D03*
X190280000Y-100280000D03*
X192820000Y-100280000D03*
X190280000Y-102820000D03*
X192820000Y-102820000D03*
X190280000Y-105360000D03*
X192820000Y-105360000D03*
X190280000Y-107900000D03*
X192820000Y-107900000D03*
D15*
X160680000Y-91470000D03*
D16*
X160680000Y-88930000D03*
X163220000Y-91470000D03*
X163220000Y-88930000D03*
D15*
X156870000Y-82970000D03*
D16*
X156870000Y-80430000D03*
X159410000Y-82970000D03*
X159410000Y-80430000D03*
X161950000Y-82970000D03*
X161950000Y-80430000D03*
X164490000Y-82970000D03*
X164490000Y-80430000D03*
X167030000Y-83224000D03*
X167030000Y-80430000D03*
D44*
X168675000Y-102590000D03*
X163225000Y-102590000D03*
X163225000Y-97510000D03*
X168675000Y-97510000D03*
X163225000Y-100050000D03*
X168675000Y-100050000D03*
D18*
X200450000Y-125450000D03*
D19*
X197910000Y-125450000D03*
X200450000Y-122910000D03*
X197910000Y-122910000D03*
X200450000Y-120370000D03*
X197910000Y-120370000D03*
X200450000Y-117830000D03*
X197910000Y-117830000D03*
X200450000Y-115290000D03*
X197910000Y-115290000D03*
D29*
X122850000Y-117850000D03*
X122850000Y-120350000D03*
D27*
X119975000Y-122650000D03*
X122675000Y-122650000D03*
X122675000Y-115550000D03*
X119975000Y-115550000D03*
D47*
X191990000Y-112225000D03*
X191990000Y-117675000D03*
X186910000Y-117675000D03*
X186910000Y-112225000D03*
X189450000Y-117675000D03*
X189450000Y-112225000D03*
X150760000Y-97225000D03*
X150760000Y-102675000D03*
X148220000Y-97225000D03*
X148220000Y-102675000D03*
X143140000Y-102675000D03*
X143140000Y-97225000D03*
X145680000Y-102675000D03*
X145680000Y-97225000D03*
D44*
X182975000Y-119660000D03*
X177525000Y-119660000D03*
X182975000Y-117120000D03*
X177525000Y-117120000D03*
X177525000Y-112040000D03*
X182975000Y-112040000D03*
X177525000Y-114580000D03*
X182975000Y-114580000D03*
D48*
X138450000Y-112800000D03*
X142950000Y-112800000D03*
X138450000Y-120800000D03*
X142950000Y-120800000D03*
X140700000Y-120800000D03*
D13*
X112450000Y-70450000D03*
D15*
X123610000Y-92420000D03*
D16*
X123610000Y-89880000D03*
X126148000Y-92420000D03*
X126148000Y-89880000D03*
X128688000Y-92420000D03*
X128688000Y-89880000D03*
D49*
X119550000Y-73950000D03*
D16*
X129032000Y-73072000D03*
X126492000Y-73072000D03*
X126492000Y-75612000D03*
X129032000Y-75612000D03*
D50*
X130950640Y-111499900D03*
X135949360Y-111499900D03*
D51*
X132450000Y-99950000D03*
M02*
