%TF.GenerationSoftware,KiCad,Pcbnew,4.0.2-stable*%
%TF.CreationDate,2016-07-28T00:43:56+02:00*%
%TF.ProjectId,ReST,526553542E6B696361645F7063620000,Rev. A*%
%TF.FileFunction,Soldermask,Bot*%
%FSLAX46Y46*%
G04 Gerber Fmt 4.6, Leading zero omitted, Abs format (unit mm)*
G04 Created by KiCad (PCBNEW 4.0.2-stable) date 28.07.2016 00:43:56*
%MOMM*%
G01*
G04 APERTURE LIST*
%ADD10C,0.100000*%
%ADD11C,0.010000*%
%ADD12C,0.500000*%
%ADD13C,5.800000*%
%ADD14C,2.200000*%
%ADD15C,2.500000*%
%ADD16R,1.727200X2.032000*%
%ADD17O,1.727200X2.032000*%
%ADD18R,2.032000X1.727200*%
%ADD19O,2.032000X1.727200*%
%ADD20R,1.727200X1.727200*%
%ADD21O,1.727200X1.727200*%
%ADD22R,2.032000X2.032000*%
%ADD23O,2.032000X2.032000*%
%ADD24C,2.400000*%
%ADD25R,2.400000X2.400000*%
%ADD26O,1.699260X3.500120*%
%ADD27C,0.899160*%
%ADD28R,1.000000X0.500000*%
%ADD29R,0.500000X1.000000*%
%ADD30R,1.524000X1.524000*%
%ADD31C,1.524000*%
G04 APERTURE END LIST*
D10*
D11*
X119450000Y-163450000D02*
X119450000Y-67450000D01*
X21450000Y-165450000D02*
X117450000Y-165450000D01*
X19450000Y-67450000D02*
X19450000Y-163450000D01*
X117450000Y-65450000D02*
X21450000Y-65450000D01*
X119450000Y-67450000D02*
G75*
G03X117450000Y-65450000I-2000000J0D01*
G01*
X21450000Y-65450000D02*
G75*
G03X19450000Y-67450000I0J-2000000D01*
G01*
X19450000Y-163450000D02*
G75*
G03X21450000Y-165450000I2000000J0D01*
G01*
X117450000Y-165450000D02*
G75*
G03X119450000Y-163450000I0J2000000D01*
G01*
D12*
X21550000Y-67450000D03*
X114450000Y-139700000D03*
X86720000Y-125700000D03*
X100110000Y-103050000D03*
X96580000Y-103260000D03*
X96440000Y-96530000D03*
X95340000Y-92660000D03*
X84940000Y-93110000D03*
X81990000Y-89680000D03*
X72460000Y-93040000D03*
X58090000Y-96500000D03*
X89530000Y-110950000D03*
X100760000Y-88960000D03*
X53160000Y-101240000D03*
X58750000Y-117070000D03*
X72600000Y-141470000D03*
X51980000Y-143360000D03*
X52670000Y-141650000D03*
X54470000Y-140570000D03*
X64820000Y-138430000D03*
X92460000Y-137050000D03*
X81040000Y-136840000D03*
X89650000Y-126225000D03*
X94650000Y-126050000D03*
X102100000Y-121025000D03*
D13*
X114450000Y-70450000D03*
X114450000Y-160450000D03*
X24450000Y-160450000D03*
X24450000Y-70450000D03*
D14*
X35500000Y-152050000D03*
X39200000Y-152050000D03*
X31000000Y-152050000D03*
X27300000Y-152050000D03*
X58400000Y-163050000D03*
X54700000Y-163050000D03*
X62900000Y-163050000D03*
X66600000Y-163050000D03*
D15*
X34950000Y-160650000D03*
X39950000Y-160650000D03*
X45350000Y-160650000D03*
X50350000Y-160650000D03*
D16*
X117156923Y-80818721D03*
D17*
X114616923Y-80818721D03*
X112076923Y-80818721D03*
D16*
X117156923Y-75738721D03*
D17*
X114616923Y-75738721D03*
X112076923Y-75738721D03*
D18*
X104450000Y-67690000D03*
D19*
X104450000Y-70230000D03*
X104450000Y-72770000D03*
D16*
X117156923Y-78278721D03*
D17*
X114616923Y-78278721D03*
X112076923Y-78278721D03*
D18*
X106990000Y-67690000D03*
D19*
X106990000Y-70230000D03*
X106990000Y-72770000D03*
D18*
X101910000Y-67690000D03*
D19*
X101910000Y-70230000D03*
X101910000Y-72770000D03*
D20*
X28450000Y-146130000D03*
D21*
X25910000Y-146130000D03*
X28450000Y-143590000D03*
X25910000Y-143590000D03*
X28450000Y-141050000D03*
X25910000Y-141050000D03*
X28450000Y-138510000D03*
X25910000Y-138510000D03*
D18*
X26200000Y-92450000D03*
D19*
X26200000Y-94990000D03*
X26200000Y-97530000D03*
X26200000Y-100070000D03*
D18*
X26200000Y-123950000D03*
D19*
X26200000Y-126490000D03*
X26200000Y-129030000D03*
X26200000Y-131570000D03*
D18*
X26200000Y-108200000D03*
D19*
X26200000Y-110740000D03*
X26200000Y-113280000D03*
X26200000Y-115820000D03*
D18*
X26200000Y-76700000D03*
D19*
X26200000Y-79240000D03*
X26200000Y-81780000D03*
X26200000Y-84320000D03*
D20*
X115850000Y-114390000D03*
D21*
X113310000Y-114390000D03*
X115850000Y-111850000D03*
X113310000Y-111850000D03*
X115850000Y-109310000D03*
X113310000Y-109310000D03*
X115850000Y-106770000D03*
X113310000Y-106770000D03*
X115850000Y-104230000D03*
X113310000Y-104230000D03*
D20*
X115850000Y-135990000D03*
D21*
X113310000Y-135990000D03*
X115850000Y-133450000D03*
X113310000Y-133450000D03*
X115850000Y-130910000D03*
X113310000Y-130910000D03*
X115850000Y-128370000D03*
X113310000Y-128370000D03*
X115850000Y-125830000D03*
X113310000Y-125830000D03*
D20*
X66010000Y-89310000D03*
D21*
X66010000Y-91850000D03*
X63470000Y-89310000D03*
X63470000Y-91850000D03*
X60930000Y-89310000D03*
X60930000Y-91850000D03*
X58390000Y-89310000D03*
X58390000Y-91850000D03*
X55850000Y-89310000D03*
X55850000Y-91850000D03*
D22*
X109910000Y-91250000D03*
D23*
X112450000Y-91250000D03*
D20*
X35650000Y-67050000D03*
D21*
X35650000Y-69590000D03*
X33110000Y-67050000D03*
X33110000Y-69590000D03*
X30570000Y-67050000D03*
X30570000Y-69590000D03*
D20*
X69050000Y-127250000D03*
D21*
X69050000Y-129790000D03*
X66510000Y-127250000D03*
X66510000Y-129790000D03*
X63970000Y-127250000D03*
X63970000Y-129790000D03*
D20*
X97270000Y-67710000D03*
D21*
X97270000Y-70250000D03*
X94730000Y-67710000D03*
X94730000Y-70250000D03*
X92190000Y-67710000D03*
X92190000Y-70250000D03*
X89650000Y-67710000D03*
X89650000Y-70250000D03*
X87110000Y-67710000D03*
X87110000Y-70250000D03*
X84570000Y-67710000D03*
X84570000Y-70250000D03*
D24*
X58500000Y-70150000D03*
D25*
X55000000Y-70150000D03*
D24*
X62000000Y-70150000D03*
X65500000Y-70150000D03*
D15*
X71150000Y-160650000D03*
X76150000Y-160650000D03*
X81550000Y-160650000D03*
X86550000Y-160650000D03*
X91950000Y-160650000D03*
X96950000Y-160650000D03*
D24*
X72500000Y-70150000D03*
D25*
X69000000Y-70150000D03*
D24*
X76000000Y-70150000D03*
X79500000Y-70150000D03*
D16*
X56450000Y-75250000D03*
D17*
X58990000Y-75250000D03*
X61530000Y-75250000D03*
X64070000Y-75250000D03*
D16*
X70850000Y-75250000D03*
D17*
X73390000Y-75250000D03*
X75930000Y-75250000D03*
X78470000Y-75250000D03*
D26*
X71050000Y-149250000D03*
X73590000Y-149250000D03*
X68510000Y-149250000D03*
X84050000Y-149250000D03*
X86590000Y-149250000D03*
X81510000Y-149250000D03*
X96850000Y-149250000D03*
X99390000Y-149250000D03*
X94310000Y-149250000D03*
D16*
X109850000Y-94850000D03*
D17*
X112390000Y-94850000D03*
X114930000Y-94850000D03*
X117470000Y-94850000D03*
D27*
X103450360Y-160899100D03*
X107849640Y-160899100D03*
D28*
X71050000Y-111750000D03*
X71050000Y-112650000D03*
X71050000Y-110850000D03*
D29*
X75850000Y-98250000D03*
X76750000Y-98250000D03*
X74950000Y-98250000D03*
D20*
X105350000Y-99160000D03*
D21*
X107890000Y-99160000D03*
X105350000Y-101700000D03*
X107890000Y-101700000D03*
X105350000Y-104240000D03*
X107890000Y-104240000D03*
X105350000Y-106780000D03*
X107890000Y-106780000D03*
D30*
X47090000Y-88350000D03*
D31*
X44550000Y-88350000D03*
X42010000Y-88350000D03*
X39470000Y-88350000D03*
X36930000Y-88350000D03*
X34390000Y-88350000D03*
D30*
X31850000Y-88350000D03*
D31*
X29310000Y-88350000D03*
X29310000Y-101050000D03*
X31850000Y-101050000D03*
X34390000Y-101050000D03*
X36930000Y-101050000D03*
X39470000Y-101050000D03*
X42010000Y-101050000D03*
X44550000Y-101050000D03*
X47090000Y-101050000D03*
D30*
X47090000Y-119850000D03*
D31*
X44550000Y-119850000D03*
X42010000Y-119850000D03*
X39470000Y-119850000D03*
X36930000Y-119850000D03*
X34390000Y-119850000D03*
D30*
X31850000Y-119850000D03*
D31*
X29310000Y-119850000D03*
X29310000Y-132550000D03*
X31850000Y-132550000D03*
X34390000Y-132550000D03*
X36930000Y-132550000D03*
X39470000Y-132550000D03*
X42010000Y-132550000D03*
X44550000Y-132550000D03*
X47090000Y-132550000D03*
D30*
X47090000Y-104100000D03*
D31*
X44550000Y-104100000D03*
X42010000Y-104100000D03*
X39470000Y-104100000D03*
X36930000Y-104100000D03*
X34390000Y-104100000D03*
D30*
X31850000Y-104100000D03*
D31*
X29310000Y-104100000D03*
X29310000Y-116800000D03*
X31850000Y-116800000D03*
X34390000Y-116800000D03*
X36930000Y-116800000D03*
X39470000Y-116800000D03*
X42010000Y-116800000D03*
X44550000Y-116800000D03*
X47090000Y-116800000D03*
D30*
X49340000Y-135600000D03*
D31*
X46800000Y-135600000D03*
X44260000Y-135600000D03*
X41720000Y-135600000D03*
X39180000Y-135600000D03*
X36640000Y-135600000D03*
D30*
X34100000Y-135600000D03*
D31*
X31560000Y-135600000D03*
X31560000Y-148300000D03*
X34100000Y-148300000D03*
X36640000Y-148300000D03*
X39180000Y-148300000D03*
X41720000Y-148300000D03*
X44260000Y-148300000D03*
X46800000Y-148300000D03*
X49340000Y-148300000D03*
D30*
X47090000Y-72600000D03*
D31*
X44550000Y-72600000D03*
X42010000Y-72600000D03*
X39470000Y-72600000D03*
X36930000Y-72600000D03*
X34390000Y-72600000D03*
D30*
X31850000Y-72600000D03*
D31*
X29310000Y-72600000D03*
X29310000Y-85300000D03*
X31850000Y-85300000D03*
X34390000Y-85300000D03*
X36930000Y-85300000D03*
X39470000Y-85300000D03*
X42010000Y-85300000D03*
X44550000Y-85300000D03*
X47090000Y-85300000D03*
D12*
X103150000Y-105750000D03*
M02*
