%TF.GenerationSoftware,KiCad,Pcbnew,4.0.1-stable*%
%TF.CreationDate,2016-03-09T21:56:23+01:00*%
%TF.ProjectId,ReST,526553542E6B696361645F7063620000,Rev. A*%
%TF.FileFunction,Soldermask,Bot*%
%FSLAX46Y46*%
G04 Gerber Fmt 4.6, Leading zero omitted, Abs format (unit mm)*
G04 Created by KiCad (PCBNEW 4.0.1-stable) date 09.03.2016 21:56:23*
%MOMM*%
G01*
G04 APERTURE LIST*
%ADD10C,0.100000*%
%ADD11C,0.010000*%
%ADD12O,2.398980X2.398980*%
%ADD13R,2.398980X2.398980*%
%ADD14O,4.400000X6.900000*%
%ADD15C,1.400000*%
%ADD16R,2.127200X2.127200*%
%ADD17O,2.127200X2.127200*%
%ADD18R,2.127200X2.432000*%
%ADD19O,2.127200X2.432000*%
%ADD20C,2.900000*%
%ADD21R,2.432000X2.127200*%
%ADD22O,2.432000X2.127200*%
%ADD23C,1.797000*%
%ADD24O,2.700000X2.000000*%
%ADD25R,1.924000X1.924000*%
%ADD26C,1.924000*%
G04 APERTURE END LIST*
D10*
D11*
X23170000Y-118680000D02*
G75*
G03X24170000Y-119680000I1000000J0D01*
G01*
X24170000Y-19680000D02*
G75*
G03X23170000Y-20680000I0J-1000000D01*
G01*
X123170000Y-20680000D02*
G75*
G03X122170000Y-19680000I-1000000J0D01*
G01*
X24170000Y-119680000D02*
X122170000Y-119680000D01*
X23170000Y-20680000D02*
X23170000Y-118680000D01*
X122170000Y-19680000D02*
X24170000Y-19680000D01*
X123170000Y-118680000D02*
X123170000Y-20680000D01*
X122170000Y-119680000D02*
G75*
G03X123170000Y-118680000I0J1000000D01*
G01*
D12*
X30960000Y-117080000D03*
D13*
X38580000Y-117080000D03*
D12*
X36040000Y-117080000D03*
X33500000Y-117080000D03*
D14*
X28270000Y-50780000D03*
X28270000Y-41280000D03*
D15*
X28420900Y-81830360D03*
X28420900Y-86229640D03*
D16*
X86970000Y-44680000D03*
D17*
X86970000Y-42140000D03*
X89510000Y-44680000D03*
X89510000Y-42140000D03*
X92050000Y-44680000D03*
X92050000Y-42140000D03*
X94590000Y-44680000D03*
X94590000Y-42140000D03*
X97130000Y-44680000D03*
X97130000Y-42140000D03*
D16*
X100770000Y-44680000D03*
D17*
X100770000Y-42140000D03*
X103310000Y-44680000D03*
X103310000Y-42140000D03*
X105850000Y-44680000D03*
X105850000Y-42140000D03*
X108390000Y-44680000D03*
X108390000Y-42140000D03*
X110930000Y-44680000D03*
X110930000Y-42140000D03*
D18*
X59370000Y-90080000D03*
D19*
X61910000Y-90080000D03*
X64450000Y-90080000D03*
X66990000Y-90080000D03*
X69530000Y-90080000D03*
X72070000Y-90080000D03*
X74610000Y-90080000D03*
X77150000Y-90080000D03*
X79690000Y-90080000D03*
D20*
X28070000Y-67280000D03*
X28070000Y-72280000D03*
D21*
X56770000Y-77880000D03*
D22*
X56770000Y-80420000D03*
X56770000Y-82960000D03*
X56770000Y-85500000D03*
D18*
X99020000Y-83560000D03*
D19*
X101560000Y-83560000D03*
X104100000Y-83560000D03*
X106640000Y-83560000D03*
D16*
X99020000Y-88630000D03*
D17*
X99020000Y-86090000D03*
X101560000Y-88630000D03*
X101560000Y-86090000D03*
X104100000Y-88630000D03*
X104100000Y-86090000D03*
X106640000Y-88630000D03*
X106640000Y-86090000D03*
D18*
X63970000Y-62080000D03*
D19*
X66510000Y-62080000D03*
X69050000Y-62080000D03*
D16*
X66970000Y-71680000D03*
D17*
X64430000Y-71680000D03*
X66970000Y-69140000D03*
X64430000Y-69140000D03*
X66970000Y-66600000D03*
X64430000Y-66600000D03*
D21*
X50770000Y-85480000D03*
D22*
X50770000Y-82940000D03*
X50770000Y-80400000D03*
X50770000Y-77860000D03*
X50770000Y-75320000D03*
D18*
X45170000Y-69280000D03*
D19*
X47710000Y-69280000D03*
X50250000Y-69280000D03*
D21*
X59570000Y-77880000D03*
D22*
X59570000Y-80420000D03*
X59570000Y-82960000D03*
X59570000Y-85500000D03*
D16*
X121510000Y-51080000D03*
D17*
X121510000Y-53620000D03*
X118970000Y-51080000D03*
X118970000Y-53620000D03*
X116430000Y-51080000D03*
X116430000Y-53620000D03*
X113890000Y-51080000D03*
X113890000Y-53620000D03*
D21*
X53970000Y-77880000D03*
D22*
X53970000Y-80420000D03*
X53970000Y-82960000D03*
X53970000Y-85500000D03*
D16*
X121500000Y-57280000D03*
D17*
X121500000Y-59820000D03*
X118960000Y-57280000D03*
X118960000Y-59820000D03*
X116420000Y-57280000D03*
X116420000Y-59820000D03*
X113880000Y-57280000D03*
X113880000Y-59820000D03*
D21*
X115495000Y-67805000D03*
D22*
X115495000Y-70345000D03*
X115495000Y-72885000D03*
D21*
X115495000Y-85555000D03*
D22*
X115495000Y-88095000D03*
X115495000Y-90635000D03*
D21*
X115495000Y-103055000D03*
D22*
X115495000Y-105595000D03*
X115495000Y-108135000D03*
D21*
X115495000Y-76555000D03*
D22*
X115495000Y-79095000D03*
X115495000Y-81635000D03*
D21*
X115495000Y-94305000D03*
D22*
X115495000Y-96845000D03*
X115495000Y-99385000D03*
D21*
X115495000Y-111805000D03*
D22*
X115495000Y-114345000D03*
X115495000Y-116885000D03*
D12*
X94210000Y-117080000D03*
D13*
X101830000Y-117080000D03*
D12*
X99290000Y-117080000D03*
X96750000Y-117080000D03*
X73260000Y-117080000D03*
D13*
X80880000Y-117080000D03*
D12*
X78340000Y-117080000D03*
X75800000Y-117080000D03*
X52210000Y-117080000D03*
D13*
X59830000Y-117080000D03*
D12*
X57290000Y-117080000D03*
X54750000Y-117080000D03*
D16*
X30920000Y-112330000D03*
D17*
X30920000Y-109790000D03*
X33460000Y-112330000D03*
X33460000Y-109790000D03*
X36000000Y-112330000D03*
X36000000Y-109790000D03*
X38540000Y-112330000D03*
X38540000Y-109790000D03*
D16*
X96820000Y-101480000D03*
D17*
X96820000Y-104020000D03*
X94280000Y-101480000D03*
X94280000Y-104020000D03*
X91740000Y-101480000D03*
X91740000Y-104020000D03*
D16*
X75870000Y-101480000D03*
D17*
X75870000Y-104020000D03*
X73330000Y-101480000D03*
X73330000Y-104020000D03*
X70790000Y-101480000D03*
X70790000Y-104020000D03*
D16*
X33420000Y-98930000D03*
D17*
X33420000Y-101470000D03*
X30880000Y-98930000D03*
X30880000Y-101470000D03*
X28340000Y-98930000D03*
X28340000Y-101470000D03*
D16*
X54820000Y-101480000D03*
D17*
X54820000Y-104020000D03*
X52280000Y-101480000D03*
X52280000Y-104020000D03*
X49740000Y-101480000D03*
X49740000Y-104020000D03*
D23*
X105966000Y-72784000D03*
X105966000Y-77864000D03*
X98346000Y-72784000D03*
X98346000Y-77864000D03*
D24*
X60370000Y-41930000D03*
X60370000Y-44470000D03*
X60370000Y-47010000D03*
X60370000Y-49550000D03*
X67990000Y-49550000D03*
X67990000Y-47010000D03*
X67990000Y-44470000D03*
X67990000Y-41930000D03*
D25*
X89130000Y-109230000D03*
D26*
X91670000Y-109230000D03*
X94210000Y-109230000D03*
X96750000Y-109230000D03*
X99290000Y-109230000D03*
X101830000Y-109230000D03*
D25*
X104370000Y-109230000D03*
D26*
X106910000Y-109230000D03*
X106910000Y-96530000D03*
X104370000Y-96530000D03*
X101830000Y-96530000D03*
X99290000Y-96530000D03*
X96750000Y-96530000D03*
X94210000Y-96530000D03*
X91670000Y-96530000D03*
X89130000Y-96530000D03*
D25*
X68180000Y-109230000D03*
D26*
X70720000Y-109230000D03*
X73260000Y-109230000D03*
X75800000Y-109230000D03*
X78340000Y-109230000D03*
X80880000Y-109230000D03*
D25*
X83420000Y-109230000D03*
D26*
X85960000Y-109230000D03*
X85960000Y-96530000D03*
X83420000Y-96530000D03*
X80880000Y-96530000D03*
X78340000Y-96530000D03*
X75800000Y-96530000D03*
X73260000Y-96530000D03*
X70720000Y-96530000D03*
X68180000Y-96530000D03*
D25*
X25842000Y-106606000D03*
D26*
X28382000Y-106606000D03*
X30922000Y-106606000D03*
X33462000Y-106606000D03*
X36002000Y-106606000D03*
X38542000Y-106606000D03*
D25*
X41082000Y-106606000D03*
D26*
X43622000Y-106606000D03*
X43622000Y-93906000D03*
X41082000Y-93906000D03*
X38542000Y-93906000D03*
X36002000Y-93906000D03*
X33462000Y-93906000D03*
X30922000Y-93906000D03*
X28382000Y-93906000D03*
X25842000Y-93906000D03*
D25*
X47130000Y-109230000D03*
D26*
X49670000Y-109230000D03*
X52210000Y-109230000D03*
X54750000Y-109230000D03*
X57290000Y-109230000D03*
X59830000Y-109230000D03*
D25*
X62370000Y-109230000D03*
D26*
X64910000Y-109230000D03*
X64910000Y-96530000D03*
X62370000Y-96530000D03*
X59830000Y-96530000D03*
X57290000Y-96530000D03*
X54750000Y-96530000D03*
X52210000Y-96530000D03*
X49670000Y-96530000D03*
X47130000Y-96530000D03*
D18*
X101845000Y-112380000D03*
D19*
X99305000Y-112380000D03*
X96765000Y-112380000D03*
X94225000Y-112380000D03*
D18*
X80870000Y-112380000D03*
D19*
X78330000Y-112380000D03*
X75790000Y-112380000D03*
X73250000Y-112380000D03*
D18*
X59820000Y-112380000D03*
D19*
X57280000Y-112380000D03*
X54740000Y-112380000D03*
X52200000Y-112380000D03*
D21*
X107370000Y-63280000D03*
D22*
X107370000Y-65820000D03*
X107370000Y-68360000D03*
D12*
X120470000Y-79550000D03*
D13*
X120470000Y-71930000D03*
D12*
X120470000Y-74470000D03*
X120470000Y-77010000D03*
X120470000Y-82090000D03*
X120470000Y-84630000D03*
X120470000Y-95650000D03*
D13*
X120470000Y-88030000D03*
D12*
X120470000Y-90570000D03*
X120470000Y-93110000D03*
X120470000Y-98190000D03*
X120470000Y-100730000D03*
X120470000Y-111750000D03*
D13*
X120470000Y-104130000D03*
D12*
X120470000Y-106670000D03*
X120470000Y-109210000D03*
X120470000Y-114290000D03*
X120470000Y-116830000D03*
D16*
X24970000Y-24480000D03*
D17*
X24970000Y-21940000D03*
X27510000Y-24480000D03*
X27510000Y-21940000D03*
X30050000Y-24480000D03*
X30050000Y-21940000D03*
X32590000Y-24480000D03*
X32590000Y-21940000D03*
D16*
X41570000Y-24480000D03*
D17*
X41570000Y-21940000D03*
X44110000Y-24480000D03*
X44110000Y-21940000D03*
X46650000Y-24480000D03*
X46650000Y-21940000D03*
X49190000Y-24480000D03*
X49190000Y-21940000D03*
X51730000Y-24480000D03*
X51730000Y-21940000D03*
X54270000Y-24480000D03*
X54270000Y-21940000D03*
X56810000Y-24480000D03*
X56810000Y-21940000D03*
X59350000Y-24480000D03*
X59350000Y-21940000D03*
D16*
X67170000Y-24480000D03*
D17*
X67170000Y-21940000D03*
X69710000Y-24480000D03*
X69710000Y-21940000D03*
X72250000Y-24480000D03*
X72250000Y-21940000D03*
X74790000Y-24480000D03*
X74790000Y-21940000D03*
X77330000Y-24480000D03*
X77330000Y-21940000D03*
X79870000Y-24480000D03*
X79870000Y-21940000D03*
X82410000Y-24480000D03*
X82410000Y-21940000D03*
X84950000Y-24480000D03*
X84950000Y-21940000D03*
D16*
X95170000Y-24480000D03*
D17*
X95170000Y-21940000D03*
X97710000Y-24480000D03*
X97710000Y-21940000D03*
X100250000Y-24480000D03*
X100250000Y-21940000D03*
X102790000Y-24480000D03*
X102790000Y-21940000D03*
X105330000Y-24480000D03*
X105330000Y-21940000D03*
X107870000Y-24480000D03*
X107870000Y-21940000D03*
X110410000Y-24480000D03*
X110410000Y-21940000D03*
D16*
X118570000Y-22080000D03*
D17*
X121110000Y-22080000D03*
X118570000Y-24620000D03*
X121110000Y-24620000D03*
X118570000Y-27160000D03*
X121110000Y-27160000D03*
X118570000Y-29700000D03*
X121110000Y-29700000D03*
X118570000Y-32240000D03*
X121110000Y-32240000D03*
X118570000Y-34780000D03*
X121110000Y-34780000D03*
X118570000Y-37320000D03*
X121110000Y-37320000D03*
X118570000Y-39860000D03*
X121110000Y-39860000D03*
X118570000Y-42400000D03*
X121110000Y-42400000D03*
X118570000Y-44940000D03*
X121110000Y-44940000D03*
M02*
