%TF.GenerationSoftware,KiCad,Pcbnew,4.0.2-stable*%
%TF.CreationDate,2016-05-17T21:29:08+02:00*%
%TF.ProjectId,ReST,526553542E6B696361645F7063620000,Rev. A*%
%TF.FileFunction,Legend,Bot*%
%FSLAX46Y46*%
G04 Gerber Fmt 4.6, Leading zero omitted, Abs format (unit mm)*
G04 Created by KiCad (PCBNEW 4.0.2-stable) date 17.05.2016 21:29:08*
%MOMM*%
G01*
G04 APERTURE LIST*
%ADD10C,0.100000*%
%ADD11C,0.300000*%
%ADD12C,0.010000*%
G04 APERTURE END LIST*
D10*
D11*
X174735713Y-73728571D02*
X174735713Y-72228571D01*
X173878570Y-73728571D01*
X173878570Y-72228571D01*
X172592856Y-73657143D02*
X172735713Y-73728571D01*
X173021427Y-73728571D01*
X173164284Y-73657143D01*
X173235713Y-73514286D01*
X173235713Y-72942857D01*
X173164284Y-72800000D01*
X173021427Y-72728571D01*
X172735713Y-72728571D01*
X172592856Y-72800000D01*
X172521427Y-72942857D01*
X172521427Y-73085714D01*
X173235713Y-73228571D01*
X172021427Y-73728571D02*
X171235713Y-72728571D01*
X172021427Y-72728571D02*
X171235713Y-73728571D01*
X170878570Y-72728571D02*
X170307141Y-72728571D01*
X170664284Y-72228571D02*
X170664284Y-73514286D01*
X170592856Y-73657143D01*
X170449998Y-73728571D01*
X170307141Y-73728571D01*
X167878570Y-72300000D02*
X168021427Y-72228571D01*
X168235713Y-72228571D01*
X168449998Y-72300000D01*
X168592856Y-72442857D01*
X168664284Y-72585714D01*
X168735713Y-72871429D01*
X168735713Y-73085714D01*
X168664284Y-73371429D01*
X168592856Y-73514286D01*
X168449998Y-73657143D01*
X168235713Y-73728571D01*
X168092856Y-73728571D01*
X167878570Y-73657143D01*
X167807141Y-73585714D01*
X167807141Y-73085714D01*
X168092856Y-73085714D01*
X166592856Y-73657143D02*
X166735713Y-73728571D01*
X167021427Y-73728571D01*
X167164284Y-73657143D01*
X167235713Y-73514286D01*
X167235713Y-72942857D01*
X167164284Y-72800000D01*
X167021427Y-72728571D01*
X166735713Y-72728571D01*
X166592856Y-72800000D01*
X166521427Y-72942857D01*
X166521427Y-73085714D01*
X167235713Y-73228571D01*
X165878570Y-72728571D02*
X165878570Y-73728571D01*
X165878570Y-72871429D02*
X165807142Y-72800000D01*
X165664284Y-72728571D01*
X165449999Y-72728571D01*
X165307142Y-72800000D01*
X165235713Y-72942857D01*
X165235713Y-73728571D01*
X163521427Y-72228571D02*
X162592856Y-72228571D01*
X163092856Y-72800000D01*
X162878570Y-72800000D01*
X162735713Y-72871429D01*
X162664284Y-72942857D01*
X162592856Y-73085714D01*
X162592856Y-73442857D01*
X162664284Y-73585714D01*
X162735713Y-73657143D01*
X162878570Y-73728571D01*
X163307142Y-73728571D01*
X163449999Y-73657143D01*
X163521427Y-73585714D01*
X161949999Y-73728571D02*
X161949999Y-72228571D01*
X161592856Y-72228571D01*
X161378571Y-72300000D01*
X161235713Y-72442857D01*
X161164285Y-72585714D01*
X161092856Y-72871429D01*
X161092856Y-73085714D01*
X161164285Y-73371429D01*
X161235713Y-73514286D01*
X161378571Y-73657143D01*
X161592856Y-73728571D01*
X161949999Y-73728571D01*
X159307142Y-73728571D02*
X159307142Y-72228571D01*
X158735714Y-72228571D01*
X158592856Y-72300000D01*
X158521428Y-72371429D01*
X158449999Y-72514286D01*
X158449999Y-72728571D01*
X158521428Y-72871429D01*
X158592856Y-72942857D01*
X158735714Y-73014286D01*
X159307142Y-73014286D01*
X157807142Y-73728571D02*
X157807142Y-72728571D01*
X157807142Y-73014286D02*
X157735714Y-72871429D01*
X157664285Y-72800000D01*
X157521428Y-72728571D01*
X157378571Y-72728571D01*
X156878571Y-73728571D02*
X156878571Y-72728571D01*
X156878571Y-72228571D02*
X156950000Y-72300000D01*
X156878571Y-72371429D01*
X156807143Y-72300000D01*
X156878571Y-72228571D01*
X156878571Y-72371429D01*
X156164285Y-72728571D02*
X156164285Y-73728571D01*
X156164285Y-72871429D02*
X156092857Y-72800000D01*
X155949999Y-72728571D01*
X155735714Y-72728571D01*
X155592857Y-72800000D01*
X155521428Y-72942857D01*
X155521428Y-73728571D01*
X155021428Y-72728571D02*
X154449999Y-72728571D01*
X154807142Y-72228571D02*
X154807142Y-73514286D01*
X154735714Y-73657143D01*
X154592856Y-73728571D01*
X154449999Y-73728571D01*
X153378571Y-73657143D02*
X153521428Y-73728571D01*
X153807142Y-73728571D01*
X153949999Y-73657143D01*
X154021428Y-73514286D01*
X154021428Y-72942857D01*
X153949999Y-72800000D01*
X153807142Y-72728571D01*
X153521428Y-72728571D01*
X153378571Y-72800000D01*
X153307142Y-72942857D01*
X153307142Y-73085714D01*
X154021428Y-73228571D01*
X152664285Y-73728571D02*
X152664285Y-72728571D01*
X152664285Y-73014286D02*
X152592857Y-72871429D01*
X152521428Y-72800000D01*
X152378571Y-72728571D01*
X152235714Y-72728571D01*
X149735714Y-73585714D02*
X149807143Y-73657143D01*
X150021429Y-73728571D01*
X150164286Y-73728571D01*
X150378571Y-73657143D01*
X150521429Y-73514286D01*
X150592857Y-73371429D01*
X150664286Y-73085714D01*
X150664286Y-72871429D01*
X150592857Y-72585714D01*
X150521429Y-72442857D01*
X150378571Y-72300000D01*
X150164286Y-72228571D01*
X150021429Y-72228571D01*
X149807143Y-72300000D01*
X149735714Y-72371429D01*
X148878571Y-73728571D02*
X149021429Y-73657143D01*
X149092857Y-73585714D01*
X149164286Y-73442857D01*
X149164286Y-73014286D01*
X149092857Y-72871429D01*
X149021429Y-72800000D01*
X148878571Y-72728571D01*
X148664286Y-72728571D01*
X148521429Y-72800000D01*
X148450000Y-72871429D01*
X148378571Y-73014286D01*
X148378571Y-73442857D01*
X148450000Y-73585714D01*
X148521429Y-73657143D01*
X148664286Y-73728571D01*
X148878571Y-73728571D01*
X147735714Y-72728571D02*
X147735714Y-73728571D01*
X147735714Y-72871429D02*
X147664286Y-72800000D01*
X147521428Y-72728571D01*
X147307143Y-72728571D01*
X147164286Y-72800000D01*
X147092857Y-72942857D01*
X147092857Y-73728571D01*
X146592857Y-72728571D02*
X146021428Y-72728571D01*
X146378571Y-72228571D02*
X146378571Y-73514286D01*
X146307143Y-73657143D01*
X146164285Y-73728571D01*
X146021428Y-73728571D01*
X145521428Y-73728571D02*
X145521428Y-72728571D01*
X145521428Y-73014286D02*
X145450000Y-72871429D01*
X145378571Y-72800000D01*
X145235714Y-72728571D01*
X145092857Y-72728571D01*
X144378571Y-73728571D02*
X144521429Y-73657143D01*
X144592857Y-73585714D01*
X144664286Y-73442857D01*
X144664286Y-73014286D01*
X144592857Y-72871429D01*
X144521429Y-72800000D01*
X144378571Y-72728571D01*
X144164286Y-72728571D01*
X144021429Y-72800000D01*
X143950000Y-72871429D01*
X143878571Y-73014286D01*
X143878571Y-73442857D01*
X143950000Y-73585714D01*
X144021429Y-73657143D01*
X144164286Y-73728571D01*
X144378571Y-73728571D01*
X143021428Y-73728571D02*
X143164286Y-73657143D01*
X143235714Y-73514286D01*
X143235714Y-72228571D01*
X142235714Y-73728571D02*
X142378572Y-73657143D01*
X142450000Y-73514286D01*
X142450000Y-72228571D01*
X141092858Y-73657143D02*
X141235715Y-73728571D01*
X141521429Y-73728571D01*
X141664286Y-73657143D01*
X141735715Y-73514286D01*
X141735715Y-72942857D01*
X141664286Y-72800000D01*
X141521429Y-72728571D01*
X141235715Y-72728571D01*
X141092858Y-72800000D01*
X141021429Y-72942857D01*
X141021429Y-73085714D01*
X141735715Y-73228571D01*
X140378572Y-73728571D02*
X140378572Y-72728571D01*
X140378572Y-73014286D02*
X140307144Y-72871429D01*
X140235715Y-72800000D01*
X140092858Y-72728571D01*
X139950001Y-72728571D01*
D12*
X104450000Y-60450000D02*
X104450000Y-160450000D01*
X204450000Y-60450000D02*
X104450000Y-60450000D01*
X204450000Y-160450000D02*
X204450000Y-60450000D01*
X104450000Y-160450000D02*
X204450000Y-160450000D01*
M02*
