%TF.GenerationSoftware,KiCad,Pcbnew,4.0.2-stable*%
%TF.CreationDate,2016-07-26T22:40:38+02:00*%
%TF.ProjectId,ReST,526553542E6B696361645F7063620000,Rev. A*%
%TF.FileFunction,Soldermask,Bot*%
%FSLAX46Y46*%
G04 Gerber Fmt 4.6, Leading zero omitted, Abs format (unit mm)*
G04 Created by KiCad (PCBNEW 4.0.2-stable) date 26.07.2016 22:40:38*
%MOMM*%
G01*
G04 APERTURE LIST*
%ADD10C,0.100000*%
%ADD11C,0.010000*%
%ADD12C,5.800000*%
%ADD13R,1.524000X1.524000*%
%ADD14C,1.524000*%
%ADD15C,2.200000*%
%ADD16C,2.500000*%
%ADD17R,1.727200X2.032000*%
%ADD18O,1.727200X2.032000*%
%ADD19R,2.032000X1.727200*%
%ADD20O,2.032000X1.727200*%
%ADD21R,1.727200X1.727200*%
%ADD22O,1.727200X1.727200*%
%ADD23R,2.032000X2.032000*%
%ADD24O,2.032000X2.032000*%
%ADD25C,2.400000*%
%ADD26R,2.400000X2.400000*%
%ADD27O,1.699260X3.500120*%
%ADD28C,0.899160*%
%ADD29R,1.000000X0.500000*%
%ADD30R,0.500000X1.000000*%
G04 APERTURE END LIST*
D10*
D11*
X19450000Y-65450000D02*
X19450000Y-165450000D01*
X119450000Y-65450000D02*
X19450000Y-65450000D01*
X119450000Y-165450000D02*
X119450000Y-65450000D01*
X19450000Y-165450000D02*
X119450000Y-165450000D01*
D12*
X114450000Y-70450000D03*
X114450000Y-160450000D03*
X24450000Y-160450000D03*
D13*
X47090000Y-88350000D03*
D14*
X44550000Y-88350000D03*
X42010000Y-88350000D03*
X39470000Y-88350000D03*
X36930000Y-88350000D03*
X34390000Y-88350000D03*
D13*
X31850000Y-88350000D03*
D14*
X29310000Y-88350000D03*
X29310000Y-101050000D03*
X31850000Y-101050000D03*
X34390000Y-101050000D03*
X36930000Y-101050000D03*
X39470000Y-101050000D03*
X42010000Y-101050000D03*
X44550000Y-101050000D03*
X47090000Y-101050000D03*
D12*
X24450000Y-70450000D03*
D15*
X35500000Y-152050000D03*
X39200000Y-152050000D03*
X31000000Y-152050000D03*
X27300000Y-152050000D03*
X58400000Y-163050000D03*
X54700000Y-163050000D03*
X62900000Y-163050000D03*
X66600000Y-163050000D03*
D16*
X34950000Y-160650000D03*
X39950000Y-160650000D03*
X45350000Y-160650000D03*
X50350000Y-160650000D03*
D17*
X117156923Y-80818721D03*
D18*
X114616923Y-80818721D03*
X112076923Y-80818721D03*
D17*
X117156923Y-75738721D03*
D18*
X114616923Y-75738721D03*
X112076923Y-75738721D03*
D19*
X104450000Y-67690000D03*
D20*
X104450000Y-70230000D03*
X104450000Y-72770000D03*
D17*
X117156923Y-78278721D03*
D18*
X114616923Y-78278721D03*
X112076923Y-78278721D03*
D19*
X106990000Y-67690000D03*
D20*
X106990000Y-70230000D03*
X106990000Y-72770000D03*
D19*
X101910000Y-67690000D03*
D20*
X101910000Y-70230000D03*
X101910000Y-72770000D03*
D21*
X28450000Y-146130000D03*
D22*
X25910000Y-146130000D03*
X28450000Y-143590000D03*
X25910000Y-143590000D03*
X28450000Y-141050000D03*
X25910000Y-141050000D03*
X28450000Y-138510000D03*
X25910000Y-138510000D03*
D19*
X26200000Y-92450000D03*
D20*
X26200000Y-94990000D03*
X26200000Y-97530000D03*
X26200000Y-100070000D03*
D19*
X26200000Y-123950000D03*
D20*
X26200000Y-126490000D03*
X26200000Y-129030000D03*
X26200000Y-131570000D03*
D19*
X26200000Y-108200000D03*
D20*
X26200000Y-110740000D03*
X26200000Y-113280000D03*
X26200000Y-115820000D03*
D19*
X26200000Y-76700000D03*
D20*
X26200000Y-79240000D03*
X26200000Y-81780000D03*
X26200000Y-84320000D03*
D21*
X115850000Y-114390000D03*
D22*
X113310000Y-114390000D03*
X115850000Y-111850000D03*
X113310000Y-111850000D03*
X115850000Y-109310000D03*
X113310000Y-109310000D03*
X115850000Y-106770000D03*
X113310000Y-106770000D03*
X115850000Y-104230000D03*
X113310000Y-104230000D03*
D21*
X115850000Y-135990000D03*
D22*
X113310000Y-135990000D03*
X115850000Y-133450000D03*
X113310000Y-133450000D03*
X115850000Y-130910000D03*
X113310000Y-130910000D03*
X115850000Y-128370000D03*
X113310000Y-128370000D03*
X115850000Y-125830000D03*
X113310000Y-125830000D03*
D21*
X66010000Y-89310000D03*
D22*
X66010000Y-91850000D03*
X63470000Y-89310000D03*
X63470000Y-91850000D03*
X60930000Y-89310000D03*
X60930000Y-91850000D03*
X58390000Y-89310000D03*
X58390000Y-91850000D03*
X55850000Y-89310000D03*
X55850000Y-91850000D03*
D23*
X109910000Y-91250000D03*
D24*
X112450000Y-91250000D03*
D21*
X35650000Y-67050000D03*
D22*
X35650000Y-69590000D03*
X33110000Y-67050000D03*
X33110000Y-69590000D03*
X30570000Y-67050000D03*
X30570000Y-69590000D03*
D21*
X69050000Y-127250000D03*
D22*
X69050000Y-129790000D03*
X66510000Y-127250000D03*
X66510000Y-129790000D03*
X63970000Y-127250000D03*
X63970000Y-129790000D03*
D21*
X97270000Y-67710000D03*
D22*
X97270000Y-70250000D03*
X94730000Y-67710000D03*
X94730000Y-70250000D03*
X92190000Y-67710000D03*
X92190000Y-70250000D03*
X89650000Y-67710000D03*
X89650000Y-70250000D03*
X87110000Y-67710000D03*
X87110000Y-70250000D03*
X84570000Y-67710000D03*
X84570000Y-70250000D03*
D25*
X58500000Y-70150000D03*
D26*
X55000000Y-70150000D03*
D25*
X62000000Y-70150000D03*
X65500000Y-70150000D03*
D16*
X71150000Y-160650000D03*
X76150000Y-160650000D03*
X81550000Y-160650000D03*
X86550000Y-160650000D03*
X91950000Y-160650000D03*
X96950000Y-160650000D03*
D25*
X72900000Y-70150000D03*
D26*
X69400000Y-70150000D03*
D25*
X76400000Y-70150000D03*
X79900000Y-70150000D03*
D17*
X56450000Y-75250000D03*
D18*
X58990000Y-75250000D03*
X61530000Y-75250000D03*
X64070000Y-75250000D03*
D17*
X70850000Y-75250000D03*
D18*
X73390000Y-75250000D03*
X75930000Y-75250000D03*
X78470000Y-75250000D03*
D27*
X71050000Y-149250000D03*
X73590000Y-149250000D03*
X68510000Y-149250000D03*
X84050000Y-149250000D03*
X86590000Y-149250000D03*
X81510000Y-149250000D03*
X96850000Y-149250000D03*
X99390000Y-149250000D03*
X94310000Y-149250000D03*
D13*
X47090000Y-119850000D03*
D14*
X44550000Y-119850000D03*
X42010000Y-119850000D03*
X39470000Y-119850000D03*
X36930000Y-119850000D03*
X34390000Y-119850000D03*
D13*
X31850000Y-119850000D03*
D14*
X29310000Y-119850000D03*
X29310000Y-132550000D03*
X31850000Y-132550000D03*
X34390000Y-132550000D03*
X36930000Y-132550000D03*
X39470000Y-132550000D03*
X42010000Y-132550000D03*
X44550000Y-132550000D03*
X47090000Y-132550000D03*
D13*
X47090000Y-104100000D03*
D14*
X44550000Y-104100000D03*
X42010000Y-104100000D03*
X39470000Y-104100000D03*
X36930000Y-104100000D03*
X34390000Y-104100000D03*
D13*
X31850000Y-104100000D03*
D14*
X29310000Y-104100000D03*
X29310000Y-116800000D03*
X31850000Y-116800000D03*
X34390000Y-116800000D03*
X36930000Y-116800000D03*
X39470000Y-116800000D03*
X42010000Y-116800000D03*
X44550000Y-116800000D03*
X47090000Y-116800000D03*
D13*
X49340000Y-135600000D03*
D14*
X46800000Y-135600000D03*
X44260000Y-135600000D03*
X41720000Y-135600000D03*
X39180000Y-135600000D03*
X36640000Y-135600000D03*
D13*
X34100000Y-135600000D03*
D14*
X31560000Y-135600000D03*
X31560000Y-148300000D03*
X34100000Y-148300000D03*
X36640000Y-148300000D03*
X39180000Y-148300000D03*
X41720000Y-148300000D03*
X44260000Y-148300000D03*
X46800000Y-148300000D03*
X49340000Y-148300000D03*
D13*
X47090000Y-72600000D03*
D14*
X44550000Y-72600000D03*
X42010000Y-72600000D03*
X39470000Y-72600000D03*
X36930000Y-72600000D03*
X34390000Y-72600000D03*
D13*
X31850000Y-72600000D03*
D14*
X29310000Y-72600000D03*
X29310000Y-85300000D03*
X31850000Y-85300000D03*
X34390000Y-85300000D03*
X36930000Y-85300000D03*
X39470000Y-85300000D03*
X42010000Y-85300000D03*
X44550000Y-85300000D03*
X47090000Y-85300000D03*
D17*
X109850000Y-94850000D03*
D18*
X112390000Y-94850000D03*
X114930000Y-94850000D03*
X117470000Y-94850000D03*
D28*
X103450360Y-160899100D03*
X107849640Y-160899100D03*
D29*
X71050000Y-111750000D03*
X71050000Y-112650000D03*
X71050000Y-110850000D03*
D30*
X75850000Y-98250000D03*
X76750000Y-98250000D03*
X74950000Y-98250000D03*
M02*
