M48
;DRILL file {KiCad 4.0.1-stable} date 08.03.2016 22:21:02
;FORMAT={-:-/ absolute / metric / decimal}
FMAT,2
METRIC,TZ
T1C0.400
T2C0.700
T3C0.800
T4C0.813
T5C1.000
T6C1.016
T7C1.097
T8C1.300
T9C1.400
%
G90
G05
M71
T1
X25.72Y-103.83
X26.17Y-97.93
X27.25Y-91.75
X28.72Y-26.63
X31.72Y-103.78
X32.67Y-36.08
X33.22Y-26.18
X33.27Y-83.48
X33.27Y-86.28
X33.32Y-69.53
X33.32Y-70.53
X33.32Y-71.53
X33.32Y-72.53
X33.32Y-73.53
X33.32Y-74.53
X34.095Y-88.38
X34.32Y-69.53
X34.32Y-70.53
X34.32Y-71.53
X34.32Y-72.53
X34.32Y-73.53
X34.32Y-74.53
X34.47Y-35.68
X35.02Y-86.93
X35.32Y-69.53
X35.32Y-70.53
X35.32Y-71.53
X35.32Y-72.53
X35.32Y-73.53
X35.67Y-97.53
X35.72Y-21.18
X35.72Y-22.18
X35.72Y-23.18
X35.72Y-24.18
X35.72Y-25.18
X35.72Y-26.18
X36.37Y-86.255
X36.67Y-35.48
X36.72Y-21.18
X36.72Y-22.18
X36.72Y-23.18
X36.72Y-24.18
X36.72Y-25.18
X36.72Y-26.18
X37.67Y-35.48
X37.72Y-21.18
X37.72Y-22.18
X37.72Y-23.18
X37.72Y-24.18
X37.72Y-25.18
X37.72Y-26.18
X38.67Y-35.48
X38.72Y-21.18
X38.72Y-22.18
X38.72Y-23.18
X38.72Y-24.18
X38.72Y-25.18
X38.72Y-26.18
X39.37Y-38.28
X39.67Y-35.48
X39.72Y-91.88
X40.37Y-38.28
X40.62Y-43.63
X40.67Y-35.48
X41.07Y-40.78
X41.37Y-38.28
X41.67Y-35.48
X41.82Y-92.005
X42.17Y-42.53
X42.27Y-109.63
X42.37Y-38.28
X42.395Y-76.205
X42.445Y-78.455
X42.67Y-35.48
X43.295Y-92.03
X43.52Y-38.18
X43.52Y-39.18
X43.67Y-35.48
X44.52Y-38.18
X44.52Y-39.18
X44.67Y-35.48
X45.045Y-47.755
X45.045Y-49.505
X45.045Y-51.255
X45.045Y-53.005
X45.045Y-54.755
X45.52Y-38.18
X45.52Y-39.18
X45.67Y-35.48
X46.67Y-35.48
X46.87Y-100.13
X47.045Y-47.755
X47.045Y-49.505
X47.045Y-51.255
X47.045Y-53.005
X47.045Y-54.755
X47.37Y-98.53
X47.67Y-35.48
X48.97Y-98.68
X49.045Y-47.755
X49.045Y-49.505
X49.045Y-51.255
X49.045Y-53.005
X49.045Y-54.755
X49.77Y-62.055
X50.02Y-35.23
X51.045Y-47.755
X51.045Y-49.505
X51.045Y-51.255
X51.045Y-53.005
X51.045Y-54.755
X51.87Y-26.68
X52.07Y-34.48
X53.045Y-47.755
X53.045Y-49.505
X53.045Y-51.255
X53.045Y-53.005
X53.045Y-54.755
X53.27Y-106.63
X53.37Y-34.53
X54.02Y-74.48
X55.02Y-34.53
X55.07Y-25.68
X55.12Y-54.23
X55.12Y-69.38
X55.32Y-74.58
X55.37Y-70.68
X56.02Y-89.88
X56.32Y-60.28
X56.62Y-34.53
X56.77Y-71.58
X56.87Y-64.08
X56.87Y-74.98
X57.445Y-69.28
X57.87Y-72.38
X57.87Y-75.18
X58.37Y-34.33
X59.47Y-75.505
X61.27Y-79.18
X61.645Y-60.355
X61.97Y-34.18
X62.07Y-78.28
X62.27Y-80.78
X62.52Y-20.98
X62.52Y-21.98
X62.52Y-22.98
X62.52Y-23.98
X62.52Y-24.98
X62.52Y-25.98
X63.07Y-34.18
X63.32Y-73.905
X63.52Y-20.98
X63.52Y-21.98
X63.52Y-22.98
X63.52Y-23.98
X63.52Y-24.98
X63.52Y-25.98
X63.52Y-91.58
X64.57Y-34.23
X64.57Y-53.98
X65.17Y-78.58
X65.345Y-81.53
X65.92Y-113.68
X66.27Y-77.98
X66.52Y-91.68
X67.245Y-86.73
X67.77Y-113.53
X68.07Y-79.18
X68.37Y-80.98
X68.47Y-57.78
X68.47Y-81.78
X68.67Y-71.93
X68.67Y-98.78
X69.22Y-91.78
X69.27Y-26.48
X69.27Y-56.98
X69.37Y-72.48
X69.52Y-34.63
X69.52Y-35.63
X69.52Y-70.53
X69.52Y-73.83
X69.87Y-68.68
X69.87Y-74.58
X69.92Y-73.13
X69.92Y-98.78
X69.97Y-67.48
X70.27Y-26.48
X70.47Y-60.08
X70.52Y-34.63
X70.52Y-35.63
X70.52Y-36.63
X70.67Y-69.68
X70.895Y-65.43
X71.17Y-63.28
X71.27Y-26.48
X71.52Y-34.63
X71.52Y-35.63
X72.07Y-52.28
X72.27Y-26.48
X72.27Y-80.88
X72.42Y-34.53
X73.27Y-26.48
X73.27Y-81.78
X73.37Y-56.58
X73.47Y-60.08
X74.045Y-62.28
X74.27Y-26.48
X74.32Y-106.83
X74.47Y-66.98
X74.47Y-71.98
X74.47Y-78.18
X74.87Y-67.78
X74.97Y-87.88
X75.37Y-33.88
X75.47Y-69.58
X75.47Y-77.48
X75.57Y-71.98
X75.87Y-68.78
X75.97Y-74.78
X76.07Y-35.58
X76.27Y-33.98
X76.47Y-26.38
X76.57Y-28.08
X76.57Y-71.98
X76.77Y-70.88
X76.92Y-91.78
X77.47Y-71.38
X77.77Y-87.88
X78.07Y-34.58
X78.27Y-71.78
X79.02Y-26.38
X79.17Y-71.38
X79.37Y-35.68
X79.57Y-85.58
X79.67Y-70.58
X79.67Y-77.68
X79.97Y-33.98
X80.17Y-79.08
X80.27Y-74.48
X80.57Y-85.88
X80.67Y-70.58
X80.77Y-69.58
X80.77Y-101.73
X80.87Y-78.38
X81.27Y-86.78
X81.77Y-69.58
X82.22Y-74.455
X82.77Y-68.48
X82.77Y-69.58
X82.97Y-50.48
X82.97Y-67.58
X83.42Y-43.63
X83.42Y-44.63
X83.42Y-45.63
X83.47Y-38.13
X83.47Y-39.13
X83.47Y-40.13
X83.77Y-66.88
X83.77Y-82.88
X83.82Y-27.98
X83.87Y-50.48
X83.87Y-83.88
X84.37Y-67.68
X84.37Y-70.58
X84.42Y-43.63
X84.42Y-44.63
X84.47Y-38.13
X84.47Y-39.13
X84.47Y-40.13
X84.62Y-33.43
X84.67Y-84.58
X84.77Y-50.48
X85.07Y-76.28
X85.17Y-73.28
X85.295Y-90.205
X85.42Y-68.38
X85.47Y-39.13
X85.47Y-40.13
X85.57Y-34.58
X85.67Y-33.43
X85.67Y-50.48
X85.67Y-87.28
X85.695Y-69.605
X85.77Y-85.08
X85.97Y-74.38
X85.97Y-76.38
X86.02Y-67.03
X86.17Y-77.98
X86.47Y-78.78
X86.67Y-50.48
X86.67Y-73.38
X86.77Y-72.58
X86.87Y-67.08
X87.57Y-112.28
X87.67Y-21.78
X87.67Y-22.78
X87.67Y-23.78
X87.67Y-24.78
X87.67Y-25.78
X87.67Y-26.78
X87.77Y-50.48
X87.87Y-65.78
X88.67Y-21.78
X88.67Y-22.78
X88.67Y-23.78
X88.67Y-24.78
X88.67Y-25.78
X88.67Y-26.78
X88.67Y-50.48
X88.87Y-64.58
X88.87Y-79.58
X89.07Y-65.78
X89.22Y-112.48
X89.57Y-81.08
X89.67Y-21.78
X89.67Y-22.78
X89.67Y-23.78
X89.67Y-24.78
X89.67Y-25.78
X89.67Y-26.78
X89.67Y-50.48
X89.72Y-79.83
X89.92Y-99.98
X90.27Y-98.83
X90.37Y-62.48
X90.47Y-81.98
X90.47Y-84.08
X90.72Y-70.755
X90.77Y-90.08
X90.87Y-52.48
X90.87Y-87.38
X90.97Y-60.88
X91.17Y-50.755
X91.295Y-79.08
X91.295Y-83.205
X91.67Y-80.48
X91.67Y-87.98
X91.72Y-98.78
X91.97Y-52.48
X91.97Y-83.88
X92.07Y-79.18
X92.32Y-73.955
X92.37Y-91.48
X92.82Y-98.43
X92.92Y-95.08
X93.07Y-52.48
X93.07Y-80.28
X93.27Y-91.68
X94.17Y-52.48
X94.17Y-91.68
X95.095Y-76.03
X95.27Y-52.48
X95.47Y-106.48
X95.57Y-35.93
X96.095Y-69.705
X96.37Y-52.48
X96.47Y-65.48
X96.97Y-106.53
X97.07Y-83.88
X97.27Y-85.88
X97.27Y-89.38
X97.52Y-26.68
X97.52Y-27.68
X97.57Y-52.48
X98.22Y-34.53
X98.22Y-35.53
X98.22Y-36.53
X98.22Y-37.53
X98.22Y-38.53
X98.22Y-39.53
X98.27Y-106.48
X98.52Y-26.68
X98.52Y-27.68
X98.67Y-52.48
X98.87Y-55.18
X99.07Y-54.28
X99.22Y-34.53
X99.22Y-35.53
X99.22Y-36.53
X99.22Y-37.53
X99.22Y-38.53
X99.22Y-39.53
X99.52Y-26.68
X99.52Y-27.68
X99.67Y-52.48
X99.67Y-53.53
X100.22Y-34.53
X100.22Y-35.53
X100.22Y-36.53
X100.22Y-37.53
X100.22Y-38.53
X100.22Y-39.53
X100.47Y-53.78
X100.52Y-26.68
X100.52Y-27.68
X100.67Y-55.88
X101.22Y-34.53
X101.22Y-35.53
X101.22Y-36.53
X101.22Y-37.53
X101.22Y-38.53
X101.22Y-39.53
X101.52Y-26.68
X101.52Y-27.68
X101.77Y-53.58
X102.22Y-34.53
X102.22Y-35.53
X102.22Y-36.53
X102.22Y-37.53
X102.22Y-38.53
X102.22Y-39.53
X102.57Y-79.38
X103.27Y-64.68
X104.295Y-65.255
X105.82Y-53.73
X108.02Y-58.28
X108.27Y-50.28
X110.42Y-102.78
X110.57Y-103.93
X110.87Y-101.48
X110.92Y-113.03
X111.97Y-36.78
X112.77Y-41.18
X112.97Y-63.33
X113.07Y-67.18
X113.32Y-21.33
X113.32Y-22.33
X113.32Y-23.33
X113.57Y-27.28
X114.27Y-49.18
X114.32Y-21.33
X114.32Y-22.33
X114.32Y-23.33
X115.32Y-21.33
X115.32Y-22.33
X115.32Y-23.33
X116.32Y-21.33
X116.32Y-22.33
X116.32Y-23.33
X116.37Y-44.08
X116.72Y-38.68
X118.57Y-49.18
X118.92Y-64.53
X119.77Y-46.88
T2
X30.37Y-91.98
X37.77Y-88.28
X45.17Y-73.48
X46.97Y-93.28
X47.17Y-85.78
X57.87Y-54.88
X60.17Y-69.18
X62.17Y-66.08
X63.82Y-38.13
X66.37Y-93.88
X72.57Y-44.88
X78.32Y-55.38
X78.57Y-45.88
X85.57Y-99.28
X87.57Y-101.08
X102.42Y-73.33
X108.37Y-94.08
T3
X60.37Y-41.93
X60.37Y-44.47
X60.37Y-47.01
X60.37Y-49.55
X67.99Y-41.93
X67.99Y-44.47
X67.99Y-47.01
X67.99Y-49.55
T4
X25.842Y-93.906
X25.842Y-106.606
X28.382Y-93.906
X28.382Y-106.606
X30.922Y-93.906
X30.922Y-106.606
X33.462Y-93.906
X33.462Y-106.606
X36.002Y-93.906
X36.002Y-106.606
X38.542Y-93.906
X38.542Y-106.606
X41.082Y-93.906
X41.082Y-106.606
X43.622Y-93.906
X43.622Y-106.606
X47.13Y-96.53
X47.13Y-109.23
X49.67Y-96.53
X49.67Y-109.23
X52.21Y-96.53
X52.21Y-109.23
X54.75Y-96.53
X54.75Y-109.23
X57.29Y-96.53
X57.29Y-109.23
X59.83Y-96.53
X59.83Y-109.23
X62.37Y-96.53
X62.37Y-109.23
X64.91Y-96.53
X64.91Y-109.23
X68.18Y-96.53
X68.18Y-109.23
X70.72Y-96.53
X70.72Y-109.23
X73.26Y-96.53
X73.26Y-109.23
X75.8Y-96.53
X75.8Y-109.23
X78.34Y-96.53
X78.34Y-109.23
X80.88Y-96.53
X80.88Y-109.23
X83.42Y-96.53
X83.42Y-109.23
X85.96Y-96.53
X85.96Y-109.23
X89.13Y-96.53
X89.13Y-109.23
X91.67Y-96.53
X91.67Y-109.23
X94.21Y-96.53
X94.21Y-109.23
X96.75Y-96.53
X96.75Y-109.23
X98.346Y-72.784
X98.346Y-77.864
X99.29Y-96.53
X99.29Y-109.23
X101.83Y-96.53
X101.83Y-109.23
X104.37Y-96.53
X104.37Y-109.23
X105.966Y-72.784
X105.966Y-77.864
X106.91Y-96.53
X106.91Y-109.23
T5
X35.37Y-78.38
X42.57Y-60.38
X49.07Y-64.98
T6
X24.97Y-21.94
X24.97Y-24.48
X27.51Y-21.94
X27.51Y-24.48
X28.34Y-98.93
X28.34Y-101.47
X30.05Y-21.94
X30.05Y-24.48
X30.88Y-98.93
X30.88Y-101.47
X30.92Y-109.79
X30.92Y-112.33
X32.59Y-21.94
X32.59Y-24.48
X33.42Y-98.93
X33.42Y-101.47
X33.46Y-109.79
X33.46Y-112.33
X36.Y-109.79
X36.Y-112.33
X38.54Y-109.79
X38.54Y-112.33
X41.57Y-21.94
X41.57Y-24.48
X44.11Y-21.94
X44.11Y-24.48
X45.17Y-69.28
X46.65Y-21.94
X46.65Y-24.48
X47.71Y-69.28
X49.19Y-21.94
X49.19Y-24.48
X49.74Y-101.48
X49.74Y-104.02
X50.25Y-69.28
X50.77Y-75.32
X50.77Y-77.86
X50.77Y-80.4
X50.77Y-82.94
X50.77Y-85.48
X51.73Y-21.94
X51.73Y-24.48
X52.2Y-112.38
X52.28Y-101.48
X52.28Y-104.02
X53.97Y-77.88
X53.97Y-80.42
X53.97Y-82.96
X53.97Y-85.5
X54.27Y-21.94
X54.27Y-24.48
X54.74Y-112.38
X54.82Y-101.48
X54.82Y-104.02
X56.77Y-77.88
X56.77Y-80.42
X56.77Y-82.96
X56.77Y-85.5
X56.81Y-21.94
X56.81Y-24.48
X57.28Y-112.38
X59.35Y-21.94
X59.35Y-24.48
X59.37Y-90.08
X59.57Y-77.88
X59.57Y-80.42
X59.57Y-82.96
X59.57Y-85.5
X59.82Y-112.38
X61.91Y-90.08
X63.97Y-62.08
X64.43Y-66.6
X64.43Y-69.14
X64.43Y-71.68
X64.45Y-90.08
X66.51Y-62.08
X66.97Y-66.6
X66.97Y-69.14
X66.97Y-71.68
X66.99Y-90.08
X67.17Y-21.94
X67.17Y-24.48
X69.05Y-62.08
X69.53Y-90.08
X69.71Y-21.94
X69.71Y-24.48
X70.79Y-101.48
X70.79Y-104.02
X72.07Y-90.08
X72.25Y-21.94
X72.25Y-24.48
X73.25Y-112.38
X73.33Y-101.48
X73.33Y-104.02
X74.61Y-90.08
X74.79Y-21.94
X74.79Y-24.48
X75.79Y-112.38
X75.87Y-101.48
X75.87Y-104.02
X77.15Y-90.08
X77.33Y-21.94
X77.33Y-24.48
X78.33Y-112.38
X79.69Y-90.08
X79.87Y-21.94
X79.87Y-24.48
X80.87Y-112.38
X82.41Y-21.94
X82.41Y-24.48
X84.95Y-21.94
X84.95Y-24.48
X86.97Y-42.14
X86.97Y-44.68
X89.51Y-42.14
X89.51Y-44.68
X91.74Y-101.48
X91.74Y-104.02
X92.05Y-42.14
X92.05Y-44.68
X94.225Y-112.38
X94.28Y-101.48
X94.28Y-104.02
X94.59Y-42.14
X94.59Y-44.68
X95.17Y-21.94
X95.17Y-24.48
X96.765Y-112.38
X96.82Y-101.48
X96.82Y-104.02
X97.13Y-42.14
X97.13Y-44.68
X97.71Y-21.94
X97.71Y-24.48
X99.02Y-83.56
X99.02Y-86.09
X99.02Y-88.63
X99.305Y-112.38
X100.25Y-21.94
X100.25Y-24.48
X100.77Y-42.14
X100.77Y-44.68
X101.56Y-83.56
X101.56Y-86.09
X101.56Y-88.63
X101.845Y-112.38
X102.79Y-21.94
X102.79Y-24.48
X103.31Y-42.14
X103.31Y-44.68
X104.1Y-83.56
X104.1Y-86.09
X104.1Y-88.63
X105.33Y-21.94
X105.33Y-24.48
X105.85Y-42.14
X105.85Y-44.68
X106.64Y-83.56
X106.64Y-86.09
X106.64Y-88.63
X107.37Y-63.28
X107.37Y-65.82
X107.37Y-68.36
X107.87Y-21.94
X107.87Y-24.48
X108.39Y-42.14
X108.39Y-44.68
X110.41Y-21.94
X110.41Y-24.48
X110.93Y-42.14
X110.93Y-44.68
X113.88Y-57.28
X113.88Y-59.82
X113.89Y-51.08
X113.89Y-53.62
X115.495Y-67.805
X115.495Y-70.345
X115.495Y-72.885
X115.495Y-76.555
X115.495Y-79.095
X115.495Y-81.635
X115.495Y-85.555
X115.495Y-88.095
X115.495Y-90.635
X115.495Y-94.305
X115.495Y-96.845
X115.495Y-99.385
X115.495Y-103.055
X115.495Y-105.595
X115.495Y-108.135
X115.495Y-111.805
X115.495Y-114.345
X115.495Y-116.885
X116.42Y-57.28
X116.42Y-59.82
X116.43Y-51.08
X116.43Y-53.62
X118.57Y-22.08
X118.57Y-24.62
X118.57Y-27.16
X118.57Y-29.7
X118.57Y-32.24
X118.57Y-34.78
X118.57Y-37.32
X118.57Y-39.86
X118.57Y-42.4
X118.57Y-44.94
X118.96Y-57.28
X118.96Y-59.82
X118.97Y-51.08
X118.97Y-53.62
X121.11Y-22.08
X121.11Y-24.62
X121.11Y-27.16
X121.11Y-29.7
X121.11Y-32.24
X121.11Y-34.78
X121.11Y-37.32
X121.11Y-39.86
X121.11Y-42.4
X121.11Y-44.94
X121.5Y-57.28
X121.5Y-59.82
X121.51Y-51.08
X121.51Y-53.62
T7
X30.96Y-117.08
X33.5Y-117.08
X36.04Y-117.08
X38.58Y-117.08
X52.21Y-117.08
X54.75Y-117.08
X57.29Y-117.08
X59.83Y-117.08
X73.26Y-117.08
X75.8Y-117.08
X78.34Y-117.08
X80.88Y-117.08
X94.21Y-117.08
X96.75Y-117.08
X99.29Y-117.08
X101.83Y-117.08
X120.47Y-71.93
X120.47Y-74.47
X120.47Y-77.01
X120.47Y-79.55
X120.47Y-82.09
X120.47Y-84.63
X120.47Y-88.03
X120.47Y-90.57
X120.47Y-93.11
X120.47Y-95.65
X120.47Y-98.19
X120.47Y-100.73
X120.47Y-104.13
X120.47Y-106.67
X120.47Y-109.21
X120.47Y-111.75
X120.47Y-114.29
X120.47Y-116.83
T8
X28.07Y-67.28
X28.07Y-72.28
T9
X28.27Y-43.23G85X28.27Y-39.33
G05
X28.27Y-52.73G85X28.27Y-48.83
G05
T0
M30
