G04 #@! TF.FileFunction,Legend,Top*
%FSLAX46Y46*%
G04 Gerber Fmt 4.6, Leading zero omitted, Abs format (unit mm)*
G04 Created by KiCad (PCBNEW 4.0.2-stable) date 16.05.2016 20:42:00*
%MOMM*%
G01*
G04 APERTURE LIST*
%ADD10C,0.100000*%
%ADD11C,0.150000*%
%ADD12C,0.127000*%
%ADD13C,0.381000*%
%ADD14C,0.254000*%
%ADD15C,0.175000*%
%ADD16C,0.300000*%
G04 APERTURE END LIST*
D10*
D11*
X154150000Y-122600000D02*
X154150000Y-123600000D01*
X155850000Y-123600000D02*
X155850000Y-122600000D01*
X149750000Y-125050000D02*
X149750000Y-121450000D01*
X147650000Y-125050000D02*
X147650000Y-121450000D01*
X148400000Y-123000000D02*
X149000000Y-123000000D01*
X149000000Y-123000000D02*
X148700000Y-123300000D01*
X148700000Y-123300000D02*
X148500000Y-123100000D01*
X148500000Y-123100000D02*
X148750000Y-123100000D01*
X148750000Y-123100000D02*
X148700000Y-123150000D01*
X148200000Y-123400000D02*
X149200000Y-123400000D01*
X148700000Y-122900000D02*
X148700000Y-122400000D01*
X148700000Y-123400000D02*
X148200000Y-122900000D01*
X148200000Y-122900000D02*
X149200000Y-122900000D01*
X149200000Y-122900000D02*
X148700000Y-123400000D01*
D12*
X144000000Y-122238000D02*
X144000000Y-122034800D01*
X145905000Y-120714000D02*
X145905000Y-125286000D01*
X145905000Y-125286000D02*
X145270000Y-125286000D01*
X142095000Y-123660400D02*
X145905000Y-123660400D01*
X142095000Y-123990600D02*
X145905000Y-123990600D01*
X142730000Y-120714000D02*
X142095000Y-120714000D01*
X142095000Y-120714000D02*
X142095000Y-125286000D01*
X142095000Y-125286000D02*
X142730000Y-125286000D01*
X145270000Y-120714000D02*
X145905000Y-120714000D01*
X144000000Y-122873000D02*
X144474980Y-122238000D01*
X144474980Y-122238000D02*
X144000000Y-122238000D01*
X144000000Y-122238000D02*
X143525020Y-122238000D01*
X143525020Y-122238000D02*
X144000000Y-122873000D01*
X144000000Y-122873000D02*
X144317500Y-122873000D01*
X144317500Y-122873000D02*
X144474980Y-122715520D01*
X144000000Y-122873000D02*
X143682500Y-122873000D01*
X143682500Y-122873000D02*
X143525020Y-123030480D01*
X144000000Y-122873000D02*
X144000000Y-123982980D01*
D11*
X155020000Y-105230000D02*
X157560000Y-105230000D01*
X152200000Y-104950000D02*
X153750000Y-104950000D01*
X155020000Y-105230000D02*
X155020000Y-107770000D01*
X153750000Y-108050000D02*
X152200000Y-108050000D01*
X152200000Y-108050000D02*
X152200000Y-104950000D01*
X155020000Y-107770000D02*
X157560000Y-107770000D01*
X157560000Y-107770000D02*
X157560000Y-105230000D01*
D13*
X146750000Y-98400000D02*
X146750000Y-97900000D01*
X146250000Y-102400000D02*
G75*
G03X146250000Y-102400000I-2000000J0D01*
G01*
X151250000Y-102400000D02*
G75*
G03X151250000Y-102400000I-2000000J0D01*
G01*
X151750000Y-99900000D02*
X141750000Y-99900000D01*
X151750000Y-104800000D02*
X141750000Y-104800000D01*
X151750000Y-98400000D02*
X141750000Y-98400000D01*
X151750000Y-97900000D02*
X141750000Y-97900000D01*
X141750000Y-97900000D02*
X141750000Y-107700000D01*
X141750000Y-107700000D02*
X151750000Y-107700000D01*
X151750000Y-107700000D02*
X151750000Y-97900000D01*
D11*
X148549160Y-128599760D02*
X148500900Y-128599760D01*
X145750180Y-129300800D02*
X145750180Y-128599760D01*
X145750180Y-128599760D02*
X145999100Y-128599760D01*
X148549160Y-128599760D02*
X148749820Y-128599760D01*
X148749820Y-128599760D02*
X148749820Y-129300800D01*
X145166000Y-112655000D02*
X147071000Y-112655000D01*
X149611000Y-112655000D02*
X148849000Y-112655000D01*
X152024000Y-112655000D02*
X152151000Y-112655000D01*
X152024000Y-112655000D02*
X151389000Y-112655000D01*
X155834000Y-112655000D02*
X154056000Y-112655000D01*
X155834000Y-108972000D02*
X154183000Y-108972000D01*
X151516000Y-108845000D02*
X152151000Y-108845000D01*
X148976000Y-108845000D02*
X149611000Y-108845000D01*
X145166000Y-108972000D02*
X146817000Y-108972000D01*
X152024000Y-113798000D02*
X152024000Y-112655000D01*
X148976000Y-113798000D02*
X148976000Y-112655000D01*
X145166000Y-112655000D02*
X145166000Y-108972000D01*
X155834000Y-108972000D02*
X155834000Y-112655000D01*
X145166000Y-113798000D02*
X145166000Y-112655000D01*
X155834000Y-112655000D02*
X155834000Y-113798000D01*
X150500000Y-113798000D02*
X155834000Y-113798000D01*
X150500000Y-113798000D02*
X145166000Y-113798000D01*
X156625000Y-128650000D02*
X156625000Y-129850000D01*
X154875000Y-129850000D02*
X154875000Y-128650000D01*
X144625000Y-128650000D02*
X144625000Y-129850000D01*
X142875000Y-129850000D02*
X142875000Y-128650000D01*
X149625000Y-129850000D02*
X149625000Y-128650000D01*
X151375000Y-128650000D02*
X151375000Y-129850000D01*
X153875000Y-128650000D02*
X153875000Y-129850000D01*
X152125000Y-129850000D02*
X152125000Y-128650000D01*
X151125000Y-123600000D02*
X151125000Y-122400000D01*
X152875000Y-122400000D02*
X152875000Y-123600000D01*
D14*
X152200920Y-98399040D02*
X157799080Y-98399040D01*
X157600960Y-97901200D02*
X157600960Y-98399040D01*
X152399040Y-98399040D02*
X152399040Y-97901200D01*
X155000000Y-97901200D02*
X155000000Y-98399040D01*
X157799080Y-103700020D02*
X152200920Y-103700020D01*
X157799080Y-97901200D02*
X152200920Y-97901200D01*
X152200920Y-97901200D02*
X152200920Y-104098800D01*
X152200920Y-104098800D02*
X157799080Y-104098800D01*
X157799080Y-104098800D02*
X157799080Y-97901200D01*
D11*
D15*
X154833334Y-120107143D02*
X154785715Y-120154762D01*
X154642858Y-120202381D01*
X154547620Y-120202381D01*
X154404762Y-120154762D01*
X154309524Y-120059524D01*
X154261905Y-119964286D01*
X154214286Y-119773810D01*
X154214286Y-119630952D01*
X154261905Y-119440476D01*
X154309524Y-119345238D01*
X154404762Y-119250000D01*
X154547620Y-119202381D01*
X154642858Y-119202381D01*
X154785715Y-119250000D01*
X154833334Y-119297619D01*
X155785715Y-120202381D02*
X155214286Y-120202381D01*
X155500000Y-120202381D02*
X155500000Y-119202381D01*
X155404762Y-119345238D01*
X155309524Y-119440476D01*
X155214286Y-119488095D01*
X147911905Y-119852381D02*
X147911905Y-118852381D01*
X148150000Y-118852381D01*
X148292858Y-118900000D01*
X148388096Y-118995238D01*
X148435715Y-119090476D01*
X148483334Y-119280952D01*
X148483334Y-119423810D01*
X148435715Y-119614286D01*
X148388096Y-119709524D01*
X148292858Y-119804762D01*
X148150000Y-119852381D01*
X147911905Y-119852381D01*
X149435715Y-119852381D02*
X148864286Y-119852381D01*
X149150000Y-119852381D02*
X149150000Y-118852381D01*
X149054762Y-118995238D01*
X148959524Y-119090476D01*
X148864286Y-119138095D01*
X143261344Y-119552725D02*
X143261344Y-118551965D01*
X143499620Y-118551965D01*
X143642586Y-118599620D01*
X143737897Y-118694930D01*
X143785552Y-118790241D01*
X143833207Y-118980862D01*
X143833207Y-119123828D01*
X143785552Y-119314449D01*
X143737897Y-119409759D01*
X143642586Y-119505070D01*
X143499620Y-119552725D01*
X143261344Y-119552725D01*
X144214449Y-118647275D02*
X144262104Y-118599620D01*
X144357415Y-118551965D01*
X144595691Y-118551965D01*
X144691001Y-118599620D01*
X144738657Y-118647275D01*
X144786312Y-118742586D01*
X144786312Y-118837896D01*
X144738657Y-118980862D01*
X144166794Y-119552725D01*
X144786312Y-119552725D01*
X150952381Y-107138095D02*
X149952381Y-107138095D01*
X149952381Y-106757142D01*
X150000000Y-106661904D01*
X150047619Y-106614285D01*
X150142857Y-106566666D01*
X150285714Y-106566666D01*
X150380952Y-106614285D01*
X150428571Y-106661904D01*
X150476190Y-106757142D01*
X150476190Y-107138095D01*
X150285714Y-105709523D02*
X150952381Y-105709523D01*
X149904762Y-105947619D02*
X150619048Y-106185714D01*
X150619048Y-105566666D01*
D16*
X143992858Y-107078571D02*
X143992858Y-105578571D01*
X144564286Y-105578571D01*
X144707144Y-105650000D01*
X144778572Y-105721429D01*
X144850001Y-105864286D01*
X144850001Y-106078571D01*
X144778572Y-106221429D01*
X144707144Y-106292857D01*
X144564286Y-106364286D01*
X143992858Y-106364286D01*
X146207144Y-105578571D02*
X145492858Y-105578571D01*
X145421429Y-106292857D01*
X145492858Y-106221429D01*
X145635715Y-106150000D01*
X145992858Y-106150000D01*
X146135715Y-106221429D01*
X146207144Y-106292857D01*
X146278572Y-106435714D01*
X146278572Y-106792857D01*
X146207144Y-106935714D01*
X146135715Y-107007143D01*
X145992858Y-107078571D01*
X145635715Y-107078571D01*
X145492858Y-107007143D01*
X145421429Y-106935714D01*
D15*
X147619048Y-126865476D02*
X147538095Y-126825000D01*
X147457143Y-126744048D01*
X147335714Y-126622619D01*
X147254762Y-126582143D01*
X147173810Y-126582143D01*
X147214286Y-126784524D02*
X147133333Y-126744048D01*
X147052381Y-126663095D01*
X147011905Y-126501190D01*
X147011905Y-126217857D01*
X147052381Y-126055952D01*
X147133333Y-125975000D01*
X147214286Y-125934524D01*
X147376190Y-125934524D01*
X147457143Y-125975000D01*
X147538095Y-126055952D01*
X147578571Y-126217857D01*
X147578571Y-126501190D01*
X147538095Y-126663095D01*
X147457143Y-126744048D01*
X147376190Y-126784524D01*
X147214286Y-126784524D01*
X148388095Y-126784524D02*
X147902381Y-126784524D01*
X148145238Y-126784524D02*
X148145238Y-125934524D01*
X148064286Y-126055952D01*
X147983333Y-126136905D01*
X147902381Y-126177381D01*
X144547619Y-110895238D02*
X144500000Y-110990476D01*
X144404762Y-111085714D01*
X144261905Y-111228571D01*
X144214286Y-111323810D01*
X144214286Y-111419048D01*
X144452381Y-111371429D02*
X144404762Y-111466667D01*
X144309524Y-111561905D01*
X144119048Y-111609524D01*
X143785714Y-111609524D01*
X143595238Y-111561905D01*
X143500000Y-111466667D01*
X143452381Y-111371429D01*
X143452381Y-111180952D01*
X143500000Y-111085714D01*
X143595238Y-110990476D01*
X143785714Y-110942857D01*
X144119048Y-110942857D01*
X144309524Y-110990476D01*
X144404762Y-111085714D01*
X144452381Y-111180952D01*
X144452381Y-111371429D01*
X143547619Y-110561905D02*
X143500000Y-110514286D01*
X143452381Y-110419048D01*
X143452381Y-110180952D01*
X143500000Y-110085714D01*
X143547619Y-110038095D01*
X143642857Y-109990476D01*
X143738095Y-109990476D01*
X143880952Y-110038095D01*
X144452381Y-110609524D01*
X144452381Y-109990476D01*
X155558333Y-126584524D02*
X155275000Y-126179762D01*
X155072619Y-126584524D02*
X155072619Y-125734524D01*
X155396428Y-125734524D01*
X155477381Y-125775000D01*
X155517857Y-125815476D01*
X155558333Y-125896429D01*
X155558333Y-126017857D01*
X155517857Y-126098810D01*
X155477381Y-126139286D01*
X155396428Y-126179762D01*
X155072619Y-126179762D01*
X156367857Y-126584524D02*
X155882143Y-126584524D01*
X156125000Y-126584524D02*
X156125000Y-125734524D01*
X156044048Y-125855952D01*
X155963095Y-125936905D01*
X155882143Y-125977381D01*
X145784524Y-127341667D02*
X145379762Y-127625000D01*
X145784524Y-127827381D02*
X144934524Y-127827381D01*
X144934524Y-127503572D01*
X144975000Y-127422619D01*
X145015476Y-127382143D01*
X145096429Y-127341667D01*
X145217857Y-127341667D01*
X145298810Y-127382143D01*
X145339286Y-127422619D01*
X145379762Y-127503572D01*
X145379762Y-127827381D01*
X145015476Y-127017857D02*
X144975000Y-126977381D01*
X144934524Y-126896429D01*
X144934524Y-126694048D01*
X144975000Y-126613095D01*
X145015476Y-126572619D01*
X145096429Y-126532143D01*
X145177381Y-126532143D01*
X145298810Y-126572619D01*
X145784524Y-127058333D01*
X145784524Y-126532143D01*
X150358333Y-126584524D02*
X150075000Y-126179762D01*
X149872619Y-126584524D02*
X149872619Y-125734524D01*
X150196428Y-125734524D01*
X150277381Y-125775000D01*
X150317857Y-125815476D01*
X150358333Y-125896429D01*
X150358333Y-126017857D01*
X150317857Y-126098810D01*
X150277381Y-126139286D01*
X150196428Y-126179762D01*
X149872619Y-126179762D01*
X150641667Y-125734524D02*
X151167857Y-125734524D01*
X150884524Y-126058333D01*
X151005952Y-126058333D01*
X151086905Y-126098810D01*
X151127381Y-126139286D01*
X151167857Y-126220238D01*
X151167857Y-126422619D01*
X151127381Y-126503571D01*
X151086905Y-126544048D01*
X151005952Y-126584524D01*
X150763095Y-126584524D01*
X150682143Y-126544048D01*
X150641667Y-126503571D01*
X152858333Y-126634524D02*
X152575000Y-126229762D01*
X152372619Y-126634524D02*
X152372619Y-125784524D01*
X152696428Y-125784524D01*
X152777381Y-125825000D01*
X152817857Y-125865476D01*
X152858333Y-125946429D01*
X152858333Y-126067857D01*
X152817857Y-126148810D01*
X152777381Y-126189286D01*
X152696428Y-126229762D01*
X152372619Y-126229762D01*
X153586905Y-126067857D02*
X153586905Y-126634524D01*
X153384524Y-125744048D02*
X153182143Y-126351190D01*
X153708333Y-126351190D01*
X151833334Y-120052381D02*
X151500000Y-119576190D01*
X151261905Y-120052381D02*
X151261905Y-119052381D01*
X151642858Y-119052381D01*
X151738096Y-119100000D01*
X151785715Y-119147619D01*
X151833334Y-119242857D01*
X151833334Y-119385714D01*
X151785715Y-119480952D01*
X151738096Y-119528571D01*
X151642858Y-119576190D01*
X151261905Y-119576190D01*
X152738096Y-119052381D02*
X152261905Y-119052381D01*
X152214286Y-119528571D01*
X152261905Y-119480952D01*
X152357143Y-119433333D01*
X152595239Y-119433333D01*
X152690477Y-119480952D01*
X152738096Y-119528571D01*
X152785715Y-119623810D01*
X152785715Y-119861905D01*
X152738096Y-119957143D01*
X152690477Y-120004762D01*
X152595239Y-120052381D01*
X152357143Y-120052381D01*
X152261905Y-120004762D01*
X152214286Y-119957143D01*
D11*
D15*
X154772619Y-103284524D02*
X154772619Y-102434524D01*
X155096428Y-102434524D01*
X155177381Y-102475000D01*
X155217857Y-102515476D01*
X155258333Y-102596429D01*
X155258333Y-102717857D01*
X155217857Y-102798810D01*
X155177381Y-102839286D01*
X155096428Y-102879762D01*
X154772619Y-102879762D01*
X155541667Y-102434524D02*
X156067857Y-102434524D01*
X155784524Y-102758333D01*
X155905952Y-102758333D01*
X155986905Y-102798810D01*
X156027381Y-102839286D01*
X156067857Y-102920238D01*
X156067857Y-103122619D01*
X156027381Y-103203571D01*
X155986905Y-103244048D01*
X155905952Y-103284524D01*
X155663095Y-103284524D01*
X155582143Y-103244048D01*
X155541667Y-103203571D01*
M02*
