G04 #@! TF.FileFunction,Copper,L2,Bot,Signal*
%FSLAX46Y46*%
G04 Gerber Fmt 4.6, Leading zero omitted, Abs format (unit mm)*
G04 Created by KiCad (PCBNEW 4.0.2-stable) date 22.05.2016 02:52:19*
%MOMM*%
G01*
G04 APERTURE LIST*
%ADD10C,0.100000*%
%ADD11C,0.500000*%
%ADD12R,2.032000X2.032000*%
%ADD13O,2.032000X2.032000*%
%ADD14C,2.500000*%
%ADD15O,1.699260X3.500120*%
%ADD16R,3.450000X1.020000*%
%ADD17R,1.020000X3.450000*%
%ADD18O,1.998980X1.998980*%
%ADD19R,1.998980X1.998980*%
%ADD20C,0.600000*%
%ADD21C,0.300000*%
%ADD22C,2.500000*%
%ADD23C,1.500000*%
%ADD24C,0.254000*%
G04 APERTURE END LIST*
D10*
D11*
X157200000Y-124720000D03*
X157200000Y-131200000D03*
X157200000Y-123640000D03*
X157200000Y-122560000D03*
X157200000Y-121480000D03*
X157200000Y-120400000D03*
X157200000Y-119320000D03*
X157200000Y-118240000D03*
X157200000Y-117160000D03*
X157200000Y-116080000D03*
X157200000Y-115000000D03*
X157200000Y-113920000D03*
X157200000Y-112840000D03*
X157200000Y-111760000D03*
X157200000Y-110680000D03*
X157200000Y-109600000D03*
X157200000Y-108520000D03*
X157200000Y-104200000D03*
X157200000Y-103120000D03*
X141800000Y-131200000D03*
X141800000Y-130120000D03*
X141800000Y-129040000D03*
X141800000Y-127960000D03*
X141800000Y-126880000D03*
X141800000Y-125800000D03*
X141800000Y-124720000D03*
X141800000Y-123640000D03*
X141800000Y-122560000D03*
X141800000Y-121480000D03*
X141800000Y-120400000D03*
X141800000Y-119320000D03*
X141800000Y-99880000D03*
X157200000Y-98800000D03*
X156100000Y-98800000D03*
X155000000Y-98800000D03*
X153900000Y-98800000D03*
X152800000Y-98800000D03*
X151700000Y-98800000D03*
X150600000Y-98800000D03*
X149500000Y-98800000D03*
X148400000Y-98800000D03*
X147300000Y-98800000D03*
X146200000Y-98800000D03*
X145100000Y-98800000D03*
X144000000Y-98800000D03*
X142900000Y-98800000D03*
D12*
X153750000Y-106500000D03*
D13*
X156290000Y-106500000D03*
D14*
X149250000Y-102500000D03*
X144250000Y-102500000D03*
D15*
X150500000Y-110750000D03*
X153040000Y-110750000D03*
X147960000Y-110750000D03*
D11*
X141800000Y-98800000D03*
D16*
X147275000Y-129020000D03*
X152725000Y-129020000D03*
X147275000Y-126480000D03*
X152725000Y-126480000D03*
D17*
X152540000Y-121975000D03*
X152540000Y-116525000D03*
X150000000Y-121975000D03*
X150000000Y-116525000D03*
X144920000Y-116525000D03*
X144920000Y-121975000D03*
X147460000Y-116525000D03*
X147460000Y-121975000D03*
X155080000Y-121975000D03*
X155080000Y-116525000D03*
D18*
X156270000Y-101000000D03*
D19*
X153730000Y-101000000D03*
D17*
X142730000Y-106875000D03*
X142730000Y-112325000D03*
X145270000Y-106875000D03*
X145270000Y-112325000D03*
D20*
X154350000Y-130350000D03*
X147250000Y-130200000D03*
X144875000Y-129225000D03*
X156600000Y-129200000D03*
X156200000Y-126200000D03*
X151800000Y-120200000D03*
X144450000Y-123150000D03*
X147250000Y-131350000D03*
X149200000Y-131350000D03*
X154350000Y-127800000D03*
X145600000Y-127800000D03*
X149650000Y-126250000D03*
X149550000Y-129100000D03*
D21*
X152725000Y-129020000D02*
X153020000Y-129020000D01*
X153020000Y-129020000D02*
X153939500Y-129939500D01*
X154350000Y-130350000D02*
X153939500Y-129939500D01*
X147250000Y-130200000D02*
X145100000Y-130200000D01*
X144875000Y-129975000D02*
X144875000Y-129225000D01*
X145100000Y-130200000D02*
X144875000Y-129975000D01*
X156600000Y-130600000D02*
X157200000Y-131200000D01*
X156600000Y-129200000D02*
X156600000Y-130600000D01*
X153730000Y-101000000D02*
X153730000Y-102930000D01*
X153730000Y-102930000D02*
X154000000Y-103200000D01*
X154000000Y-103200000D02*
X157200000Y-103200000D01*
X156200000Y-128800000D02*
X156600000Y-129200000D01*
X155080000Y-122959500D02*
X156159500Y-122959500D01*
X156159500Y-122959500D02*
X156600000Y-123400000D01*
X156600000Y-123400000D02*
X156600000Y-125800000D01*
X156200000Y-126200000D02*
X156200000Y-128800000D01*
X156600000Y-125800000D02*
X156200000Y-126200000D01*
X150000000Y-115530000D02*
X150000000Y-118400000D01*
X150000000Y-118400000D02*
X151800000Y-120200000D01*
D22*
X149250000Y-102500000D02*
X149250000Y-105050000D01*
X149250000Y-105050000D02*
X150500000Y-106300000D01*
X150500000Y-106300000D02*
X150500000Y-110750000D01*
D23*
X144450000Y-123150000D02*
X144640500Y-122959500D01*
X144640500Y-122959500D02*
X144922540Y-122959500D01*
D21*
X145925000Y-131350000D02*
X144475000Y-131350000D01*
X144400000Y-125800000D02*
X144975000Y-125225000D01*
X144975000Y-125225000D02*
X151575000Y-125225000D01*
X151575000Y-125225000D02*
X152725000Y-126375000D01*
X143775000Y-126425000D02*
X144400000Y-125800000D01*
X143775000Y-126500000D02*
X143775000Y-126425000D01*
X143775000Y-126525000D02*
X143775000Y-126500000D01*
X143775000Y-127225000D02*
X143775000Y-126525000D01*
X143775000Y-130650000D02*
X143775000Y-127225000D01*
X144475000Y-131350000D02*
X143775000Y-130650000D01*
X147250000Y-131350000D02*
X145925000Y-131350000D01*
X145925000Y-131350000D02*
X145875000Y-131350000D01*
X152725000Y-126375000D02*
X152725000Y-126480000D01*
X151740000Y-126460000D02*
X153539500Y-126460000D01*
X149950000Y-131350000D02*
X154850000Y-131350000D01*
X149950000Y-131350000D02*
X149200000Y-131350000D01*
X154900000Y-127800000D02*
X154350000Y-127800000D01*
X155400000Y-128300000D02*
X154900000Y-127800000D01*
X155400000Y-130800000D02*
X155400000Y-128300000D01*
X154850000Y-131350000D02*
X155400000Y-130800000D01*
X154350000Y-127800000D02*
X154250000Y-127700000D01*
X145600000Y-127800000D02*
X146110000Y-128310000D01*
X146110000Y-128310000D02*
X146110000Y-129000000D01*
X149540000Y-126460000D02*
X149540000Y-126360000D01*
X148060000Y-126460000D02*
X149540000Y-126460000D01*
X149540000Y-126360000D02*
X149650000Y-126250000D01*
X149550000Y-127350000D02*
X148680000Y-126480000D01*
X149550000Y-129100000D02*
X149550000Y-127350000D01*
X148680000Y-126480000D02*
X147275000Y-126480000D01*
X148060000Y-126460000D02*
X146110000Y-126460000D01*
D24*
G36*
X141723000Y-116597580D02*
X141723000Y-124200000D01*
X141755622Y-124373369D01*
X141858083Y-124532598D01*
X142014420Y-124639419D01*
X142200000Y-124677000D01*
X144688255Y-124677000D01*
X144531644Y-124781644D01*
X143331644Y-125981644D01*
X143195728Y-126185057D01*
X143148000Y-126425000D01*
X143148000Y-130650000D01*
X143195728Y-130889943D01*
X143223974Y-130932216D01*
X143331644Y-131093356D01*
X143956288Y-131718000D01*
X141847475Y-131718000D01*
X141605383Y-131669845D01*
X141440395Y-131559604D01*
X141330155Y-131394618D01*
X141282000Y-131152525D01*
X141282000Y-116156580D01*
X141723000Y-116597580D01*
X141723000Y-116597580D01*
G37*
X141723000Y-116597580D02*
X141723000Y-124200000D01*
X141755622Y-124373369D01*
X141858083Y-124532598D01*
X142014420Y-124639419D01*
X142200000Y-124677000D01*
X144688255Y-124677000D01*
X144531644Y-124781644D01*
X143331644Y-125981644D01*
X143195728Y-126185057D01*
X143148000Y-126425000D01*
X143148000Y-130650000D01*
X143195728Y-130889943D01*
X143223974Y-130932216D01*
X143331644Y-131093356D01*
X143956288Y-131718000D01*
X141847475Y-131718000D01*
X141605383Y-131669845D01*
X141440395Y-131559604D01*
X141330155Y-131394618D01*
X141282000Y-131152525D01*
X141282000Y-116156580D01*
X141723000Y-116597580D01*
G36*
X150513656Y-125970000D02*
X150513656Y-126990000D01*
X150546917Y-127166765D01*
X150651385Y-127329113D01*
X150810785Y-127438027D01*
X151000000Y-127476344D01*
X153643071Y-127476344D01*
X153573135Y-127644767D01*
X153572866Y-127953877D01*
X153601698Y-128023656D01*
X151000000Y-128023656D01*
X150823235Y-128056917D01*
X150660887Y-128161385D01*
X150551973Y-128320785D01*
X150513656Y-128510000D01*
X150513656Y-129530000D01*
X150546917Y-129706765D01*
X150651385Y-129869113D01*
X150810785Y-129978027D01*
X151000000Y-130016344D01*
X153129632Y-130016344D01*
X153572905Y-130459617D01*
X153572866Y-130503877D01*
X153663406Y-130723000D01*
X149671979Y-130723000D01*
X149640710Y-130691676D01*
X149355233Y-130573135D01*
X149046123Y-130572866D01*
X148760440Y-130690908D01*
X148541676Y-130909290D01*
X148423135Y-131194767D01*
X148422866Y-131503877D01*
X148511340Y-131718000D01*
X147938516Y-131718000D01*
X148026865Y-131505233D01*
X148027134Y-131196123D01*
X147909092Y-130910440D01*
X147690710Y-130691676D01*
X147405233Y-130573135D01*
X147096123Y-130572866D01*
X146810440Y-130690908D01*
X146778292Y-130723000D01*
X144734712Y-130723000D01*
X144402000Y-130390288D01*
X144402000Y-126684712D01*
X145063656Y-126023056D01*
X145063656Y-126990000D01*
X145096917Y-127166765D01*
X145111631Y-127189632D01*
X144941676Y-127359290D01*
X144823135Y-127644767D01*
X144822866Y-127953877D01*
X144940908Y-128239560D01*
X145088484Y-128387394D01*
X145063656Y-128510000D01*
X145063656Y-129530000D01*
X145096917Y-129706765D01*
X145201385Y-129869113D01*
X145360785Y-129978027D01*
X145550000Y-130016344D01*
X149000000Y-130016344D01*
X149176765Y-129983083D01*
X149339113Y-129878615D01*
X149352345Y-129859250D01*
X149394767Y-129876865D01*
X149703877Y-129877134D01*
X149989560Y-129759092D01*
X150208324Y-129540710D01*
X150326865Y-129255233D01*
X150327134Y-128946123D01*
X150209092Y-128660440D01*
X150177000Y-128628292D01*
X150177000Y-127350000D01*
X150172845Y-127329113D01*
X150129273Y-127110058D01*
X150015452Y-126939713D01*
X150089560Y-126909092D01*
X150308324Y-126690710D01*
X150426865Y-126405233D01*
X150427134Y-126096123D01*
X150326264Y-125852000D01*
X150537552Y-125852000D01*
X150513656Y-125970000D01*
X150513656Y-125970000D01*
G37*
X150513656Y-125970000D02*
X150513656Y-126990000D01*
X150546917Y-127166765D01*
X150651385Y-127329113D01*
X150810785Y-127438027D01*
X151000000Y-127476344D01*
X153643071Y-127476344D01*
X153573135Y-127644767D01*
X153572866Y-127953877D01*
X153601698Y-128023656D01*
X151000000Y-128023656D01*
X150823235Y-128056917D01*
X150660887Y-128161385D01*
X150551973Y-128320785D01*
X150513656Y-128510000D01*
X150513656Y-129530000D01*
X150546917Y-129706765D01*
X150651385Y-129869113D01*
X150810785Y-129978027D01*
X151000000Y-130016344D01*
X153129632Y-130016344D01*
X153572905Y-130459617D01*
X153572866Y-130503877D01*
X153663406Y-130723000D01*
X149671979Y-130723000D01*
X149640710Y-130691676D01*
X149355233Y-130573135D01*
X149046123Y-130572866D01*
X148760440Y-130690908D01*
X148541676Y-130909290D01*
X148423135Y-131194767D01*
X148422866Y-131503877D01*
X148511340Y-131718000D01*
X147938516Y-131718000D01*
X148026865Y-131505233D01*
X148027134Y-131196123D01*
X147909092Y-130910440D01*
X147690710Y-130691676D01*
X147405233Y-130573135D01*
X147096123Y-130572866D01*
X146810440Y-130690908D01*
X146778292Y-130723000D01*
X144734712Y-130723000D01*
X144402000Y-130390288D01*
X144402000Y-126684712D01*
X145063656Y-126023056D01*
X145063656Y-126990000D01*
X145096917Y-127166765D01*
X145111631Y-127189632D01*
X144941676Y-127359290D01*
X144823135Y-127644767D01*
X144822866Y-127953877D01*
X144940908Y-128239560D01*
X145088484Y-128387394D01*
X145063656Y-128510000D01*
X145063656Y-129530000D01*
X145096917Y-129706765D01*
X145201385Y-129869113D01*
X145360785Y-129978027D01*
X145550000Y-130016344D01*
X149000000Y-130016344D01*
X149176765Y-129983083D01*
X149339113Y-129878615D01*
X149352345Y-129859250D01*
X149394767Y-129876865D01*
X149703877Y-129877134D01*
X149989560Y-129759092D01*
X150208324Y-129540710D01*
X150326865Y-129255233D01*
X150327134Y-128946123D01*
X150209092Y-128660440D01*
X150177000Y-128628292D01*
X150177000Y-127350000D01*
X150172845Y-127329113D01*
X150129273Y-127110058D01*
X150015452Y-126939713D01*
X150089560Y-126909092D01*
X150308324Y-126690710D01*
X150426865Y-126405233D01*
X150427134Y-126096123D01*
X150326264Y-125852000D01*
X150537552Y-125852000D01*
X150513656Y-125970000D01*
G36*
X157394618Y-98330155D02*
X157559604Y-98440395D01*
X157669845Y-98605383D01*
X157718000Y-98847475D01*
X157718000Y-100711350D01*
X157663025Y-100434972D01*
X157342962Y-99955964D01*
X156863954Y-99635901D01*
X156298926Y-99523510D01*
X156241074Y-99523510D01*
X155676046Y-99635901D01*
X155354717Y-99850606D01*
X155267817Y-99640811D01*
X155089188Y-99462183D01*
X154855799Y-99365510D01*
X154388495Y-99365510D01*
X154229745Y-99524260D01*
X154229745Y-100500255D01*
X154623000Y-100500255D01*
X154623000Y-101499745D01*
X154229745Y-101499745D01*
X154229745Y-102475740D01*
X154388495Y-102634490D01*
X154855799Y-102634490D01*
X155089188Y-102537817D01*
X155267817Y-102359189D01*
X155354717Y-102149394D01*
X155676046Y-102364099D01*
X156241074Y-102476490D01*
X156298926Y-102476490D01*
X156863954Y-102364099D01*
X157342962Y-102044036D01*
X157663025Y-101565028D01*
X157718000Y-101288650D01*
X157718000Y-106143974D01*
X157669352Y-105899404D01*
X157345710Y-105415040D01*
X156861346Y-105091398D01*
X156290000Y-104977750D01*
X155718654Y-105091398D01*
X155383467Y-105315363D01*
X155304327Y-105124302D01*
X155125699Y-104945673D01*
X154892310Y-104849000D01*
X154416750Y-104849000D01*
X154258000Y-105007750D01*
X154258000Y-105992000D01*
X154643000Y-105992000D01*
X154643000Y-107008000D01*
X154258000Y-107008000D01*
X154258000Y-107992250D01*
X154416750Y-108151000D01*
X154892310Y-108151000D01*
X155125699Y-108054327D01*
X155304327Y-107875698D01*
X155383467Y-107684637D01*
X155718654Y-107908602D01*
X156290000Y-108022250D01*
X156861346Y-107908602D01*
X157345710Y-107584960D01*
X157669352Y-107100596D01*
X157718000Y-106856026D01*
X157718000Y-131152525D01*
X157669845Y-131394617D01*
X157559604Y-131559605D01*
X157394618Y-131669845D01*
X157152525Y-131718000D01*
X155368712Y-131718000D01*
X155843356Y-131243356D01*
X155852767Y-131229272D01*
X155979272Y-131039943D01*
X156027000Y-130800000D01*
X156027000Y-128300000D01*
X156015733Y-128243356D01*
X155979273Y-128060058D01*
X155843356Y-127856644D01*
X155343356Y-127356644D01*
X155139943Y-127220728D01*
X154900000Y-127173000D01*
X154899286Y-127173000D01*
X154936344Y-126990000D01*
X154936344Y-125970000D01*
X154903083Y-125793235D01*
X154798615Y-125630887D01*
X154639215Y-125521973D01*
X154450000Y-125483656D01*
X152720368Y-125483656D01*
X152018356Y-124781644D01*
X151814943Y-124645728D01*
X151575000Y-124598000D01*
X151245442Y-124598000D01*
X151332598Y-124541917D01*
X151439419Y-124385580D01*
X151477000Y-124200000D01*
X151477000Y-124024275D01*
X151491673Y-124059699D01*
X151670302Y-124238327D01*
X151903691Y-124335000D01*
X152126250Y-124335000D01*
X152285000Y-124176250D01*
X152285000Y-122837500D01*
X152795000Y-122837500D01*
X152795000Y-124176250D01*
X152953750Y-124335000D01*
X153176309Y-124335000D01*
X153409698Y-124238327D01*
X153588327Y-124059699D01*
X153685000Y-123826310D01*
X153685000Y-122996250D01*
X153935000Y-122996250D01*
X153935000Y-123826310D01*
X154031673Y-124059699D01*
X154210302Y-124238327D01*
X154443691Y-124335000D01*
X154666250Y-124335000D01*
X154825000Y-124176250D01*
X154825000Y-122837500D01*
X155335000Y-122837500D01*
X155335000Y-124176250D01*
X155493750Y-124335000D01*
X155716309Y-124335000D01*
X155949698Y-124238327D01*
X156128327Y-124059699D01*
X156225000Y-123826310D01*
X156225000Y-122996250D01*
X156066250Y-122837500D01*
X155335000Y-122837500D01*
X154825000Y-122837500D01*
X154093750Y-122837500D01*
X153935000Y-122996250D01*
X153685000Y-122996250D01*
X153526250Y-122837500D01*
X152795000Y-122837500D01*
X152285000Y-122837500D01*
X152030000Y-122837500D01*
X152030000Y-121112500D01*
X152285000Y-121112500D01*
X152285000Y-119773750D01*
X152795000Y-119773750D01*
X152795000Y-121112500D01*
X153526250Y-121112500D01*
X153685000Y-120953750D01*
X153685000Y-120123690D01*
X153935000Y-120123690D01*
X153935000Y-120953750D01*
X154093750Y-121112500D01*
X154825000Y-121112500D01*
X154825000Y-119773750D01*
X155335000Y-119773750D01*
X155335000Y-121112500D01*
X156066250Y-121112500D01*
X156225000Y-120953750D01*
X156225000Y-120123690D01*
X156128327Y-119890301D01*
X155949698Y-119711673D01*
X155716309Y-119615000D01*
X155493750Y-119615000D01*
X155335000Y-119773750D01*
X154825000Y-119773750D01*
X154666250Y-119615000D01*
X154443691Y-119615000D01*
X154210302Y-119711673D01*
X154031673Y-119890301D01*
X153935000Y-120123690D01*
X153685000Y-120123690D01*
X153588327Y-119890301D01*
X153409698Y-119711673D01*
X153176309Y-119615000D01*
X152953750Y-119615000D01*
X152795000Y-119773750D01*
X152285000Y-119773750D01*
X152126250Y-119615000D01*
X151903691Y-119615000D01*
X151670302Y-119711673D01*
X151491673Y-119890301D01*
X151477000Y-119925725D01*
X151477000Y-119200000D01*
X151444378Y-119026631D01*
X151341917Y-118867402D01*
X151185580Y-118760581D01*
X151000000Y-118723000D01*
X150935025Y-118723000D01*
X151048327Y-118609699D01*
X151145000Y-118376310D01*
X151145000Y-117546250D01*
X151395000Y-117546250D01*
X151395000Y-118376310D01*
X151491673Y-118609699D01*
X151670302Y-118788327D01*
X151903691Y-118885000D01*
X152126250Y-118885000D01*
X152285000Y-118726250D01*
X152285000Y-117387500D01*
X152795000Y-117387500D01*
X152795000Y-118726250D01*
X152953750Y-118885000D01*
X153176309Y-118885000D01*
X153409698Y-118788327D01*
X153588327Y-118609699D01*
X153685000Y-118376310D01*
X153685000Y-117546250D01*
X153935000Y-117546250D01*
X153935000Y-118376310D01*
X154031673Y-118609699D01*
X154210302Y-118788327D01*
X154443691Y-118885000D01*
X154666250Y-118885000D01*
X154825000Y-118726250D01*
X154825000Y-117387500D01*
X155335000Y-117387500D01*
X155335000Y-118726250D01*
X155493750Y-118885000D01*
X155716309Y-118885000D01*
X155949698Y-118788327D01*
X156128327Y-118609699D01*
X156225000Y-118376310D01*
X156225000Y-117546250D01*
X156066250Y-117387500D01*
X155335000Y-117387500D01*
X154825000Y-117387500D01*
X154093750Y-117387500D01*
X153935000Y-117546250D01*
X153685000Y-117546250D01*
X153526250Y-117387500D01*
X152795000Y-117387500D01*
X152285000Y-117387500D01*
X151553750Y-117387500D01*
X151395000Y-117546250D01*
X151145000Y-117546250D01*
X150986250Y-117387500D01*
X150255000Y-117387500D01*
X150255000Y-117418000D01*
X149745000Y-117418000D01*
X149745000Y-117387500D01*
X149490000Y-117387500D01*
X149490000Y-115662500D01*
X149745000Y-115662500D01*
X149745000Y-114323750D01*
X150255000Y-114323750D01*
X150255000Y-115662500D01*
X150986250Y-115662500D01*
X151145000Y-115503750D01*
X151145000Y-114673690D01*
X151395000Y-114673690D01*
X151395000Y-115503750D01*
X151553750Y-115662500D01*
X152285000Y-115662500D01*
X152285000Y-114323750D01*
X152795000Y-114323750D01*
X152795000Y-115662500D01*
X153526250Y-115662500D01*
X153685000Y-115503750D01*
X153685000Y-114673690D01*
X153935000Y-114673690D01*
X153935000Y-115503750D01*
X154093750Y-115662500D01*
X154825000Y-115662500D01*
X154825000Y-114323750D01*
X155335000Y-114323750D01*
X155335000Y-115662500D01*
X156066250Y-115662500D01*
X156225000Y-115503750D01*
X156225000Y-114673690D01*
X156128327Y-114440301D01*
X155949698Y-114261673D01*
X155716309Y-114165000D01*
X155493750Y-114165000D01*
X155335000Y-114323750D01*
X154825000Y-114323750D01*
X154666250Y-114165000D01*
X154443691Y-114165000D01*
X154210302Y-114261673D01*
X154031673Y-114440301D01*
X153935000Y-114673690D01*
X153685000Y-114673690D01*
X153588327Y-114440301D01*
X153409698Y-114261673D01*
X153176309Y-114165000D01*
X152953750Y-114165000D01*
X152795000Y-114323750D01*
X152285000Y-114323750D01*
X152126250Y-114165000D01*
X151903691Y-114165000D01*
X151670302Y-114261673D01*
X151491673Y-114440301D01*
X151395000Y-114673690D01*
X151145000Y-114673690D01*
X151048327Y-114440301D01*
X150869698Y-114261673D01*
X150636309Y-114165000D01*
X150413750Y-114165000D01*
X150255000Y-114323750D01*
X149745000Y-114323750D01*
X149586250Y-114165000D01*
X149363691Y-114165000D01*
X149130302Y-114261673D01*
X149077000Y-114314975D01*
X149077000Y-113800000D01*
X149044378Y-113626631D01*
X148941917Y-113467402D01*
X148785580Y-113360581D01*
X148600000Y-113323000D01*
X147597580Y-113323000D01*
X147191212Y-112916632D01*
X147317879Y-112989013D01*
X147535185Y-112906412D01*
X147535185Y-111623000D01*
X147110370Y-111623000D01*
X147110370Y-109877000D01*
X147535185Y-109877000D01*
X147535185Y-108593588D01*
X147317879Y-108510987D01*
X147077000Y-108648632D01*
X147077000Y-104797580D01*
X147337290Y-104537290D01*
X147439419Y-104385580D01*
X147477000Y-104200000D01*
X147477000Y-102842014D01*
X147522701Y-102842014D01*
X147523000Y-102842738D01*
X147523000Y-105050000D01*
X147584204Y-105357691D01*
X147654460Y-105710895D01*
X148028827Y-106271173D01*
X148773000Y-107015346D01*
X148773000Y-108608632D01*
X148602121Y-108510987D01*
X148384815Y-108593588D01*
X148384815Y-109877000D01*
X148773000Y-109877000D01*
X148773000Y-110750000D01*
X148809630Y-110934151D01*
X148809630Y-111623000D01*
X148384815Y-111623000D01*
X148384815Y-112906412D01*
X148602121Y-112989013D01*
X148859562Y-112841904D01*
X149247044Y-112406961D01*
X149303375Y-112245174D01*
X149561931Y-112632130D01*
X149992321Y-112919707D01*
X150500000Y-113020691D01*
X151007679Y-112919707D01*
X151438069Y-112632130D01*
X151725646Y-112201740D01*
X151770000Y-111978758D01*
X151814354Y-112201740D01*
X152101931Y-112632130D01*
X152532321Y-112919707D01*
X153040000Y-113020691D01*
X153547679Y-112919707D01*
X153978069Y-112632130D01*
X154265646Y-112201740D01*
X154366630Y-111694061D01*
X154366630Y-109805939D01*
X154265646Y-109298260D01*
X153978069Y-108867870D01*
X153547679Y-108580293D01*
X153040000Y-108479309D01*
X152532321Y-108580293D01*
X152227000Y-108784302D01*
X152227000Y-107907025D01*
X152374301Y-108054327D01*
X152607690Y-108151000D01*
X153083250Y-108151000D01*
X153242000Y-107992250D01*
X153242000Y-107008000D01*
X152857000Y-107008000D01*
X152857000Y-105992000D01*
X153242000Y-105992000D01*
X153242000Y-105007750D01*
X153083250Y-104849000D01*
X152607690Y-104849000D01*
X152374301Y-104945673D01*
X152195673Y-105124302D01*
X152099000Y-105357691D01*
X152099000Y-105656501D01*
X152095540Y-105639106D01*
X151721173Y-105078827D01*
X150977000Y-104334654D01*
X150977000Y-102500934D01*
X150977299Y-102157986D01*
X150770914Y-101658495D01*
X152095510Y-101658495D01*
X152095510Y-102125800D01*
X152192183Y-102359189D01*
X152370812Y-102537817D01*
X152604201Y-102634490D01*
X153071505Y-102634490D01*
X153230255Y-102475740D01*
X153230255Y-101499745D01*
X152254260Y-101499745D01*
X152095510Y-101658495D01*
X150770914Y-101658495D01*
X150714933Y-101523011D01*
X150229544Y-101036774D01*
X149595029Y-100773300D01*
X148907986Y-100772701D01*
X148273011Y-101035067D01*
X147786774Y-101520456D01*
X147523300Y-102154971D01*
X147522701Y-102842014D01*
X147477000Y-102842014D01*
X147477000Y-101000000D01*
X147441941Y-100820508D01*
X147337290Y-100662710D01*
X146548780Y-99874200D01*
X152095510Y-99874200D01*
X152095510Y-100341505D01*
X152254260Y-100500255D01*
X153230255Y-100500255D01*
X153230255Y-99524260D01*
X153071505Y-99365510D01*
X152604201Y-99365510D01*
X152370812Y-99462183D01*
X152192183Y-99640811D01*
X152095510Y-99874200D01*
X146548780Y-99874200D01*
X145937290Y-99262710D01*
X145785580Y-99160581D01*
X145600000Y-99123000D01*
X143200000Y-99123000D01*
X143020508Y-99158059D01*
X142862710Y-99262710D01*
X141282000Y-100843420D01*
X141282000Y-98847475D01*
X141330155Y-98605382D01*
X141440395Y-98440396D01*
X141605383Y-98330155D01*
X141847475Y-98282000D01*
X157152525Y-98282000D01*
X157394618Y-98330155D01*
X157394618Y-98330155D01*
G37*
X157394618Y-98330155D02*
X157559604Y-98440395D01*
X157669845Y-98605383D01*
X157718000Y-98847475D01*
X157718000Y-100711350D01*
X157663025Y-100434972D01*
X157342962Y-99955964D01*
X156863954Y-99635901D01*
X156298926Y-99523510D01*
X156241074Y-99523510D01*
X155676046Y-99635901D01*
X155354717Y-99850606D01*
X155267817Y-99640811D01*
X155089188Y-99462183D01*
X154855799Y-99365510D01*
X154388495Y-99365510D01*
X154229745Y-99524260D01*
X154229745Y-100500255D01*
X154623000Y-100500255D01*
X154623000Y-101499745D01*
X154229745Y-101499745D01*
X154229745Y-102475740D01*
X154388495Y-102634490D01*
X154855799Y-102634490D01*
X155089188Y-102537817D01*
X155267817Y-102359189D01*
X155354717Y-102149394D01*
X155676046Y-102364099D01*
X156241074Y-102476490D01*
X156298926Y-102476490D01*
X156863954Y-102364099D01*
X157342962Y-102044036D01*
X157663025Y-101565028D01*
X157718000Y-101288650D01*
X157718000Y-106143974D01*
X157669352Y-105899404D01*
X157345710Y-105415040D01*
X156861346Y-105091398D01*
X156290000Y-104977750D01*
X155718654Y-105091398D01*
X155383467Y-105315363D01*
X155304327Y-105124302D01*
X155125699Y-104945673D01*
X154892310Y-104849000D01*
X154416750Y-104849000D01*
X154258000Y-105007750D01*
X154258000Y-105992000D01*
X154643000Y-105992000D01*
X154643000Y-107008000D01*
X154258000Y-107008000D01*
X154258000Y-107992250D01*
X154416750Y-108151000D01*
X154892310Y-108151000D01*
X155125699Y-108054327D01*
X155304327Y-107875698D01*
X155383467Y-107684637D01*
X155718654Y-107908602D01*
X156290000Y-108022250D01*
X156861346Y-107908602D01*
X157345710Y-107584960D01*
X157669352Y-107100596D01*
X157718000Y-106856026D01*
X157718000Y-131152525D01*
X157669845Y-131394617D01*
X157559604Y-131559605D01*
X157394618Y-131669845D01*
X157152525Y-131718000D01*
X155368712Y-131718000D01*
X155843356Y-131243356D01*
X155852767Y-131229272D01*
X155979272Y-131039943D01*
X156027000Y-130800000D01*
X156027000Y-128300000D01*
X156015733Y-128243356D01*
X155979273Y-128060058D01*
X155843356Y-127856644D01*
X155343356Y-127356644D01*
X155139943Y-127220728D01*
X154900000Y-127173000D01*
X154899286Y-127173000D01*
X154936344Y-126990000D01*
X154936344Y-125970000D01*
X154903083Y-125793235D01*
X154798615Y-125630887D01*
X154639215Y-125521973D01*
X154450000Y-125483656D01*
X152720368Y-125483656D01*
X152018356Y-124781644D01*
X151814943Y-124645728D01*
X151575000Y-124598000D01*
X151245442Y-124598000D01*
X151332598Y-124541917D01*
X151439419Y-124385580D01*
X151477000Y-124200000D01*
X151477000Y-124024275D01*
X151491673Y-124059699D01*
X151670302Y-124238327D01*
X151903691Y-124335000D01*
X152126250Y-124335000D01*
X152285000Y-124176250D01*
X152285000Y-122837500D01*
X152795000Y-122837500D01*
X152795000Y-124176250D01*
X152953750Y-124335000D01*
X153176309Y-124335000D01*
X153409698Y-124238327D01*
X153588327Y-124059699D01*
X153685000Y-123826310D01*
X153685000Y-122996250D01*
X153935000Y-122996250D01*
X153935000Y-123826310D01*
X154031673Y-124059699D01*
X154210302Y-124238327D01*
X154443691Y-124335000D01*
X154666250Y-124335000D01*
X154825000Y-124176250D01*
X154825000Y-122837500D01*
X155335000Y-122837500D01*
X155335000Y-124176250D01*
X155493750Y-124335000D01*
X155716309Y-124335000D01*
X155949698Y-124238327D01*
X156128327Y-124059699D01*
X156225000Y-123826310D01*
X156225000Y-122996250D01*
X156066250Y-122837500D01*
X155335000Y-122837500D01*
X154825000Y-122837500D01*
X154093750Y-122837500D01*
X153935000Y-122996250D01*
X153685000Y-122996250D01*
X153526250Y-122837500D01*
X152795000Y-122837500D01*
X152285000Y-122837500D01*
X152030000Y-122837500D01*
X152030000Y-121112500D01*
X152285000Y-121112500D01*
X152285000Y-119773750D01*
X152795000Y-119773750D01*
X152795000Y-121112500D01*
X153526250Y-121112500D01*
X153685000Y-120953750D01*
X153685000Y-120123690D01*
X153935000Y-120123690D01*
X153935000Y-120953750D01*
X154093750Y-121112500D01*
X154825000Y-121112500D01*
X154825000Y-119773750D01*
X155335000Y-119773750D01*
X155335000Y-121112500D01*
X156066250Y-121112500D01*
X156225000Y-120953750D01*
X156225000Y-120123690D01*
X156128327Y-119890301D01*
X155949698Y-119711673D01*
X155716309Y-119615000D01*
X155493750Y-119615000D01*
X155335000Y-119773750D01*
X154825000Y-119773750D01*
X154666250Y-119615000D01*
X154443691Y-119615000D01*
X154210302Y-119711673D01*
X154031673Y-119890301D01*
X153935000Y-120123690D01*
X153685000Y-120123690D01*
X153588327Y-119890301D01*
X153409698Y-119711673D01*
X153176309Y-119615000D01*
X152953750Y-119615000D01*
X152795000Y-119773750D01*
X152285000Y-119773750D01*
X152126250Y-119615000D01*
X151903691Y-119615000D01*
X151670302Y-119711673D01*
X151491673Y-119890301D01*
X151477000Y-119925725D01*
X151477000Y-119200000D01*
X151444378Y-119026631D01*
X151341917Y-118867402D01*
X151185580Y-118760581D01*
X151000000Y-118723000D01*
X150935025Y-118723000D01*
X151048327Y-118609699D01*
X151145000Y-118376310D01*
X151145000Y-117546250D01*
X151395000Y-117546250D01*
X151395000Y-118376310D01*
X151491673Y-118609699D01*
X151670302Y-118788327D01*
X151903691Y-118885000D01*
X152126250Y-118885000D01*
X152285000Y-118726250D01*
X152285000Y-117387500D01*
X152795000Y-117387500D01*
X152795000Y-118726250D01*
X152953750Y-118885000D01*
X153176309Y-118885000D01*
X153409698Y-118788327D01*
X153588327Y-118609699D01*
X153685000Y-118376310D01*
X153685000Y-117546250D01*
X153935000Y-117546250D01*
X153935000Y-118376310D01*
X154031673Y-118609699D01*
X154210302Y-118788327D01*
X154443691Y-118885000D01*
X154666250Y-118885000D01*
X154825000Y-118726250D01*
X154825000Y-117387500D01*
X155335000Y-117387500D01*
X155335000Y-118726250D01*
X155493750Y-118885000D01*
X155716309Y-118885000D01*
X155949698Y-118788327D01*
X156128327Y-118609699D01*
X156225000Y-118376310D01*
X156225000Y-117546250D01*
X156066250Y-117387500D01*
X155335000Y-117387500D01*
X154825000Y-117387500D01*
X154093750Y-117387500D01*
X153935000Y-117546250D01*
X153685000Y-117546250D01*
X153526250Y-117387500D01*
X152795000Y-117387500D01*
X152285000Y-117387500D01*
X151553750Y-117387500D01*
X151395000Y-117546250D01*
X151145000Y-117546250D01*
X150986250Y-117387500D01*
X150255000Y-117387500D01*
X150255000Y-117418000D01*
X149745000Y-117418000D01*
X149745000Y-117387500D01*
X149490000Y-117387500D01*
X149490000Y-115662500D01*
X149745000Y-115662500D01*
X149745000Y-114323750D01*
X150255000Y-114323750D01*
X150255000Y-115662500D01*
X150986250Y-115662500D01*
X151145000Y-115503750D01*
X151145000Y-114673690D01*
X151395000Y-114673690D01*
X151395000Y-115503750D01*
X151553750Y-115662500D01*
X152285000Y-115662500D01*
X152285000Y-114323750D01*
X152795000Y-114323750D01*
X152795000Y-115662500D01*
X153526250Y-115662500D01*
X153685000Y-115503750D01*
X153685000Y-114673690D01*
X153935000Y-114673690D01*
X153935000Y-115503750D01*
X154093750Y-115662500D01*
X154825000Y-115662500D01*
X154825000Y-114323750D01*
X155335000Y-114323750D01*
X155335000Y-115662500D01*
X156066250Y-115662500D01*
X156225000Y-115503750D01*
X156225000Y-114673690D01*
X156128327Y-114440301D01*
X155949698Y-114261673D01*
X155716309Y-114165000D01*
X155493750Y-114165000D01*
X155335000Y-114323750D01*
X154825000Y-114323750D01*
X154666250Y-114165000D01*
X154443691Y-114165000D01*
X154210302Y-114261673D01*
X154031673Y-114440301D01*
X153935000Y-114673690D01*
X153685000Y-114673690D01*
X153588327Y-114440301D01*
X153409698Y-114261673D01*
X153176309Y-114165000D01*
X152953750Y-114165000D01*
X152795000Y-114323750D01*
X152285000Y-114323750D01*
X152126250Y-114165000D01*
X151903691Y-114165000D01*
X151670302Y-114261673D01*
X151491673Y-114440301D01*
X151395000Y-114673690D01*
X151145000Y-114673690D01*
X151048327Y-114440301D01*
X150869698Y-114261673D01*
X150636309Y-114165000D01*
X150413750Y-114165000D01*
X150255000Y-114323750D01*
X149745000Y-114323750D01*
X149586250Y-114165000D01*
X149363691Y-114165000D01*
X149130302Y-114261673D01*
X149077000Y-114314975D01*
X149077000Y-113800000D01*
X149044378Y-113626631D01*
X148941917Y-113467402D01*
X148785580Y-113360581D01*
X148600000Y-113323000D01*
X147597580Y-113323000D01*
X147191212Y-112916632D01*
X147317879Y-112989013D01*
X147535185Y-112906412D01*
X147535185Y-111623000D01*
X147110370Y-111623000D01*
X147110370Y-109877000D01*
X147535185Y-109877000D01*
X147535185Y-108593588D01*
X147317879Y-108510987D01*
X147077000Y-108648632D01*
X147077000Y-104797580D01*
X147337290Y-104537290D01*
X147439419Y-104385580D01*
X147477000Y-104200000D01*
X147477000Y-102842014D01*
X147522701Y-102842014D01*
X147523000Y-102842738D01*
X147523000Y-105050000D01*
X147584204Y-105357691D01*
X147654460Y-105710895D01*
X148028827Y-106271173D01*
X148773000Y-107015346D01*
X148773000Y-108608632D01*
X148602121Y-108510987D01*
X148384815Y-108593588D01*
X148384815Y-109877000D01*
X148773000Y-109877000D01*
X148773000Y-110750000D01*
X148809630Y-110934151D01*
X148809630Y-111623000D01*
X148384815Y-111623000D01*
X148384815Y-112906412D01*
X148602121Y-112989013D01*
X148859562Y-112841904D01*
X149247044Y-112406961D01*
X149303375Y-112245174D01*
X149561931Y-112632130D01*
X149992321Y-112919707D01*
X150500000Y-113020691D01*
X151007679Y-112919707D01*
X151438069Y-112632130D01*
X151725646Y-112201740D01*
X151770000Y-111978758D01*
X151814354Y-112201740D01*
X152101931Y-112632130D01*
X152532321Y-112919707D01*
X153040000Y-113020691D01*
X153547679Y-112919707D01*
X153978069Y-112632130D01*
X154265646Y-112201740D01*
X154366630Y-111694061D01*
X154366630Y-109805939D01*
X154265646Y-109298260D01*
X153978069Y-108867870D01*
X153547679Y-108580293D01*
X153040000Y-108479309D01*
X152532321Y-108580293D01*
X152227000Y-108784302D01*
X152227000Y-107907025D01*
X152374301Y-108054327D01*
X152607690Y-108151000D01*
X153083250Y-108151000D01*
X153242000Y-107992250D01*
X153242000Y-107008000D01*
X152857000Y-107008000D01*
X152857000Y-105992000D01*
X153242000Y-105992000D01*
X153242000Y-105007750D01*
X153083250Y-104849000D01*
X152607690Y-104849000D01*
X152374301Y-104945673D01*
X152195673Y-105124302D01*
X152099000Y-105357691D01*
X152099000Y-105656501D01*
X152095540Y-105639106D01*
X151721173Y-105078827D01*
X150977000Y-104334654D01*
X150977000Y-102500934D01*
X150977299Y-102157986D01*
X150770914Y-101658495D01*
X152095510Y-101658495D01*
X152095510Y-102125800D01*
X152192183Y-102359189D01*
X152370812Y-102537817D01*
X152604201Y-102634490D01*
X153071505Y-102634490D01*
X153230255Y-102475740D01*
X153230255Y-101499745D01*
X152254260Y-101499745D01*
X152095510Y-101658495D01*
X150770914Y-101658495D01*
X150714933Y-101523011D01*
X150229544Y-101036774D01*
X149595029Y-100773300D01*
X148907986Y-100772701D01*
X148273011Y-101035067D01*
X147786774Y-101520456D01*
X147523300Y-102154971D01*
X147522701Y-102842014D01*
X147477000Y-102842014D01*
X147477000Y-101000000D01*
X147441941Y-100820508D01*
X147337290Y-100662710D01*
X146548780Y-99874200D01*
X152095510Y-99874200D01*
X152095510Y-100341505D01*
X152254260Y-100500255D01*
X153230255Y-100500255D01*
X153230255Y-99524260D01*
X153071505Y-99365510D01*
X152604201Y-99365510D01*
X152370812Y-99462183D01*
X152192183Y-99640811D01*
X152095510Y-99874200D01*
X146548780Y-99874200D01*
X145937290Y-99262710D01*
X145785580Y-99160581D01*
X145600000Y-99123000D01*
X143200000Y-99123000D01*
X143020508Y-99158059D01*
X142862710Y-99262710D01*
X141282000Y-100843420D01*
X141282000Y-98847475D01*
X141330155Y-98605382D01*
X141440395Y-98440396D01*
X141605383Y-98330155D01*
X141847475Y-98282000D01*
X157152525Y-98282000D01*
X157394618Y-98330155D01*
G36*
X146873000Y-101052606D02*
X146873000Y-104147394D01*
X146510197Y-104510197D01*
X146482334Y-104552211D01*
X146473000Y-104600000D01*
X146473000Y-113000000D01*
X146483006Y-113049410D01*
X146510197Y-113089803D01*
X147310197Y-113889803D01*
X147352211Y-113917666D01*
X147400000Y-113927000D01*
X148473000Y-113927000D01*
X148473000Y-119200000D01*
X148483006Y-119249410D01*
X148511447Y-119291035D01*
X148553841Y-119318315D01*
X148600000Y-119327000D01*
X150040288Y-119327000D01*
X150873000Y-120159712D01*
X150873000Y-124073000D01*
X142395275Y-124073000D01*
X142415961Y-124052350D01*
X142526874Y-123785244D01*
X142527126Y-123496025D01*
X142416680Y-123228725D01*
X142327000Y-123138889D01*
X142327000Y-123061156D01*
X142415961Y-122972350D01*
X142526874Y-122705244D01*
X142527126Y-122416025D01*
X142416680Y-122148725D01*
X142327000Y-122058889D01*
X142327000Y-121981156D01*
X142415961Y-121892350D01*
X142526874Y-121625244D01*
X142527126Y-121336025D01*
X142416680Y-121068725D01*
X142327000Y-120978889D01*
X142327000Y-120901156D01*
X142415961Y-120812350D01*
X142526874Y-120545244D01*
X142527126Y-120256025D01*
X142416680Y-119988725D01*
X142327000Y-119898889D01*
X142327000Y-119821156D01*
X142415961Y-119732350D01*
X142526874Y-119465244D01*
X142527126Y-119176025D01*
X142416680Y-118908725D01*
X142327000Y-118818889D01*
X142327000Y-116400000D01*
X142316994Y-116350590D01*
X142289803Y-116310197D01*
X141727000Y-115747394D01*
X141727000Y-101252606D01*
X143252606Y-99727000D01*
X145547394Y-99727000D01*
X146873000Y-101052606D01*
X146873000Y-101052606D01*
G37*
X146873000Y-101052606D02*
X146873000Y-104147394D01*
X146510197Y-104510197D01*
X146482334Y-104552211D01*
X146473000Y-104600000D01*
X146473000Y-113000000D01*
X146483006Y-113049410D01*
X146510197Y-113089803D01*
X147310197Y-113889803D01*
X147352211Y-113917666D01*
X147400000Y-113927000D01*
X148473000Y-113927000D01*
X148473000Y-119200000D01*
X148483006Y-119249410D01*
X148511447Y-119291035D01*
X148553841Y-119318315D01*
X148600000Y-119327000D01*
X150040288Y-119327000D01*
X150873000Y-120159712D01*
X150873000Y-124073000D01*
X142395275Y-124073000D01*
X142415961Y-124052350D01*
X142526874Y-123785244D01*
X142527126Y-123496025D01*
X142416680Y-123228725D01*
X142327000Y-123138889D01*
X142327000Y-123061156D01*
X142415961Y-122972350D01*
X142526874Y-122705244D01*
X142527126Y-122416025D01*
X142416680Y-122148725D01*
X142327000Y-122058889D01*
X142327000Y-121981156D01*
X142415961Y-121892350D01*
X142526874Y-121625244D01*
X142527126Y-121336025D01*
X142416680Y-121068725D01*
X142327000Y-120978889D01*
X142327000Y-120901156D01*
X142415961Y-120812350D01*
X142526874Y-120545244D01*
X142527126Y-120256025D01*
X142416680Y-119988725D01*
X142327000Y-119898889D01*
X142327000Y-119821156D01*
X142415961Y-119732350D01*
X142526874Y-119465244D01*
X142527126Y-119176025D01*
X142416680Y-118908725D01*
X142327000Y-118818889D01*
X142327000Y-116400000D01*
X142316994Y-116350590D01*
X142289803Y-116310197D01*
X141727000Y-115747394D01*
X141727000Y-101252606D01*
X143252606Y-99727000D01*
X145547394Y-99727000D01*
X146873000Y-101052606D01*
M02*
