G04 #@! TF.FileFunction,Soldermask,Top*
%FSLAX46Y46*%
G04 Gerber Fmt 4.6, Leading zero omitted, Abs format (unit mm)*
G04 Created by KiCad (PCBNEW 4.0.1-stable) date 07.03.2016 23:07:36*
%MOMM*%
G01*
G04 APERTURE LIST*
%ADD10C,0.100000*%
%ADD11R,1.500000X1.250000*%
%ADD12R,1.800860X1.597660*%
%ADD13R,2.032000X2.032000*%
%ADD14O,2.032000X2.032000*%
%ADD15O,1.699260X3.500120*%
%ADD16R,1.500000X1.300000*%
%ADD17R,1.300000X1.500000*%
%ADD18O,1.998980X1.998980*%
%ADD19R,1.998980X1.998980*%
%ADD20R,2.199640X1.600200*%
%ADD21C,2.500000*%
%ADD22C,5.000000*%
%ADD23R,0.800100X1.400000*%
%ADD24R,1.727200X1.727200*%
%ADD25O,1.727200X1.727200*%
G04 APERTURE END LIST*
D10*
D11*
X153250000Y-121000000D03*
X155750000Y-121000000D03*
D12*
X142250000Y-126419860D03*
X142250000Y-123580140D03*
D13*
X155500000Y-115250000D03*
D14*
X152960000Y-115250000D03*
D15*
X141040000Y-119520000D03*
X143580000Y-119520000D03*
X138500000Y-119520000D03*
D16*
X153150000Y-118250000D03*
X155850000Y-118250000D03*
D17*
X148500000Y-123650000D03*
X148500000Y-126350000D03*
X155750000Y-123900000D03*
X155750000Y-126600000D03*
D16*
X149850000Y-114500000D03*
X147150000Y-114500000D03*
D17*
X145500000Y-126350000D03*
X145500000Y-123650000D03*
D18*
X152905000Y-108375000D03*
D19*
X155445000Y-108375000D03*
D20*
X138270000Y-127479920D03*
X138270000Y-123680080D03*
D21*
X138500000Y-110550000D03*
X143500000Y-110550000D03*
D22*
X149000000Y-119000000D03*
D23*
X151050000Y-127050000D03*
X152950000Y-127050000D03*
X152000000Y-124450000D03*
D24*
X155490000Y-130060000D03*
D25*
X155490000Y-132600000D03*
X152950000Y-130060000D03*
X152950000Y-132600000D03*
X150410000Y-130060000D03*
X150410000Y-132600000D03*
X147870000Y-130060000D03*
X147870000Y-132600000D03*
X145330000Y-130060000D03*
X145330000Y-132600000D03*
X142790000Y-130060000D03*
X142790000Y-132600000D03*
X140250000Y-130060000D03*
X140250000Y-132600000D03*
X137710000Y-130060000D03*
X137710000Y-132600000D03*
M02*
