G04 #@! TF.FileFunction,Legend,Bot*
%FSLAX46Y46*%
G04 Gerber Fmt 4.6, Leading zero omitted, Abs format (unit mm)*
G04 Created by KiCad (PCBNEW 4.0.2-stable) date 22.05.2016 02:52:19*
%MOMM*%
G01*
G04 APERTURE LIST*
%ADD10C,0.100000*%
%ADD11C,0.198120*%
%ADD12C,0.175000*%
%ADD13C,0.150000*%
G04 APERTURE END LIST*
D10*
D11*
X152600000Y-130350000D02*
X152600000Y-125150000D01*
X152600000Y-125150000D02*
X147400000Y-125150000D01*
X147400000Y-125150000D02*
X147400000Y-130350000D01*
X147400000Y-130350000D02*
X152600000Y-130350000D01*
X156350000Y-116650000D02*
X143650000Y-116650000D01*
X143650000Y-121850000D02*
X156350000Y-121850000D01*
X156350000Y-116650000D02*
X156350000Y-121850000D01*
X143650000Y-121850000D02*
X143650000Y-116650000D01*
X141400000Y-112200000D02*
X146600000Y-112200000D01*
X146600000Y-112200000D02*
X146600000Y-107000000D01*
X146600000Y-107000000D02*
X141400000Y-107000000D01*
X141400000Y-107000000D02*
X141400000Y-112200000D01*
D12*
X151277381Y-131584524D02*
X151277381Y-130734524D01*
X150953572Y-130734524D01*
X150872619Y-130775000D01*
X150832143Y-130815476D01*
X150791667Y-130896429D01*
X150791667Y-131017857D01*
X150832143Y-131098810D01*
X150872619Y-131139286D01*
X150953572Y-131179762D01*
X151277381Y-131179762D01*
X149982143Y-131584524D02*
X150467857Y-131584524D01*
X150225000Y-131584524D02*
X150225000Y-130734524D01*
X150305952Y-130855952D01*
X150386905Y-130936905D01*
X150467857Y-130977381D01*
D13*
X149314285Y-129402381D02*
X149885714Y-129402381D01*
X149600000Y-129402381D02*
X149600000Y-128402381D01*
X149695238Y-128545238D01*
X149790476Y-128640476D01*
X149885714Y-128688095D01*
D11*
X143051576Y-116663218D02*
X142053356Y-116663218D01*
X142053356Y-117043493D01*
X142100890Y-117138561D01*
X142148424Y-117186096D01*
X142243493Y-117233630D01*
X142386096Y-117233630D01*
X142481164Y-117186096D01*
X142528699Y-117138561D01*
X142576233Y-117043493D01*
X142576233Y-116663218D01*
X142148424Y-117613904D02*
X142100890Y-117661438D01*
X142053356Y-117756507D01*
X142053356Y-117994178D01*
X142100890Y-118089247D01*
X142148424Y-118136781D01*
X142243493Y-118184316D01*
X142338561Y-118184316D01*
X142481164Y-118136781D01*
X143051576Y-117566370D01*
X143051576Y-118184316D01*
D13*
X145452381Y-119135715D02*
X145452381Y-118564286D01*
X145452381Y-118850000D02*
X144452381Y-118850000D01*
X144595238Y-118754762D01*
X144690476Y-118659524D01*
X144738095Y-118564286D01*
D11*
X148201576Y-107163218D02*
X147203356Y-107163218D01*
X147203356Y-107543493D01*
X147250890Y-107638561D01*
X147298424Y-107686096D01*
X147393493Y-107733630D01*
X147536096Y-107733630D01*
X147631164Y-107686096D01*
X147678699Y-107638561D01*
X147726233Y-107543493D01*
X147726233Y-107163218D01*
X147203356Y-108066370D02*
X147203356Y-108731850D01*
X148201576Y-108304041D01*
D13*
X143252381Y-109485715D02*
X143252381Y-108914286D01*
X143252381Y-109200000D02*
X142252381Y-109200000D01*
X142395238Y-109104762D01*
X142490476Y-109009524D01*
X142538095Y-108914286D01*
M02*
