M48
;DRILL file {KiCad 4.0.2-stable} date 16.05.2016 20:42:03
;FORMAT={-:-/ absolute / metric / decimal}
FMAT,2
METRIC,TZ
T1C0.400
T2C1.001
T3C1.016
T4C1.097
T5C1.300
%
G90
G05
M71
T1
X141.8Y-98.8
X141.8Y-99.88
X141.8Y-119.32
X141.8Y-120.4
X141.8Y-121.48
X141.8Y-122.56
X141.8Y-123.64
X141.8Y-124.72
X141.8Y-125.8
X141.8Y-126.88
X141.8Y-127.96
X141.8Y-129.04
X141.8Y-130.12
X141.8Y-131.2
X142.9Y-98.8
X144.Y-98.8
X144.45Y-123.15
X144.875Y-129.225
X145.1Y-98.8
X145.6Y-127.8
X146.2Y-98.8
X147.25Y-130.2
X147.25Y-131.35
X147.3Y-98.8
X148.4Y-98.8
X149.2Y-131.35
X149.5Y-98.8
X149.55Y-129.1
X149.65Y-126.25
X150.6Y-98.8
X151.7Y-98.8
X151.8Y-120.2
X152.8Y-98.8
X153.9Y-98.8
X154.35Y-127.8
X154.35Y-130.35
X155.Y-98.8
X156.1Y-98.8
X156.2Y-126.2
X156.6Y-129.2
X157.2Y-98.8
X157.2Y-103.12
X157.2Y-104.2
X157.2Y-108.52
X157.2Y-109.6
X157.2Y-110.68
X157.2Y-111.76
X157.2Y-112.84
X157.2Y-113.92
X157.2Y-115.
X157.2Y-116.08
X157.2Y-117.16
X157.2Y-118.24
X157.2Y-119.32
X157.2Y-120.4
X157.2Y-121.48
X157.2Y-122.56
X157.2Y-123.64
X157.2Y-124.72
X157.2Y-131.2
T2
X147.96Y-110.75
X150.5Y-110.75
X153.04Y-110.75
T3
X153.75Y-106.5
X156.29Y-106.5
T4
X153.73Y-101.
X156.27Y-101.
T5
X144.25Y-102.5
X149.25Y-102.5
T0
M30
