G04 #@! TF.FileFunction,Soldermask,Top*
%FSLAX46Y46*%
G04 Gerber Fmt 4.6, Leading zero omitted, Abs format (unit mm)*
G04 Created by KiCad (PCBNEW 4.0.2-stable) date 16.05.2016 20:42:00*
%MOMM*%
G01*
G04 APERTURE LIST*
%ADD10C,0.100000*%
%ADD11C,0.500000*%
%ADD12R,1.250000X1.500000*%
%ADD13R,1.800860X1.597660*%
%ADD14R,2.199640X1.600200*%
%ADD15R,2.032000X2.032000*%
%ADD16O,2.032000X2.032000*%
%ADD17C,2.500000*%
%ADD18R,0.800100X1.400000*%
%ADD19O,1.699260X3.500120*%
%ADD20R,1.300000X1.500000*%
%ADD21O,1.998980X1.998980*%
%ADD22R,1.998980X1.998980*%
G04 APERTURE END LIST*
D10*
D11*
X157200000Y-124720000D03*
X157200000Y-131200000D03*
X157200000Y-123640000D03*
X157200000Y-122560000D03*
X157200000Y-121480000D03*
X157200000Y-120400000D03*
X157200000Y-119320000D03*
X157200000Y-118240000D03*
X157200000Y-117160000D03*
X157200000Y-116080000D03*
X157200000Y-115000000D03*
X157200000Y-113920000D03*
X157200000Y-112840000D03*
X157200000Y-111760000D03*
X157200000Y-110680000D03*
X157200000Y-109600000D03*
X157200000Y-108520000D03*
X157200000Y-104200000D03*
X157200000Y-103120000D03*
X141800000Y-131200000D03*
X141800000Y-130120000D03*
X141800000Y-129040000D03*
X141800000Y-127960000D03*
X141800000Y-126880000D03*
X141800000Y-125800000D03*
X141800000Y-124720000D03*
X141800000Y-123640000D03*
X141800000Y-122560000D03*
X141800000Y-121480000D03*
X141800000Y-120400000D03*
X141800000Y-119320000D03*
X141800000Y-99880000D03*
X157200000Y-98800000D03*
X156100000Y-98800000D03*
X155000000Y-98800000D03*
X153900000Y-98800000D03*
X152800000Y-98800000D03*
X151700000Y-98800000D03*
X150600000Y-98800000D03*
X149500000Y-98800000D03*
X148400000Y-98800000D03*
X147300000Y-98800000D03*
X146200000Y-98800000D03*
X145100000Y-98800000D03*
X144000000Y-98800000D03*
X142900000Y-98800000D03*
D12*
X155000000Y-124350000D03*
X155000000Y-121850000D03*
D13*
X148700000Y-121480140D03*
X148700000Y-124319860D03*
D14*
X144000000Y-121100080D03*
X144000000Y-124899920D03*
D15*
X153750000Y-106500000D03*
D16*
X156290000Y-106500000D03*
D17*
X149250000Y-102500000D03*
X144250000Y-102500000D03*
D18*
X146300000Y-130550000D03*
X148200000Y-130550000D03*
X147250000Y-127950000D03*
D19*
X150500000Y-110750000D03*
X153040000Y-110750000D03*
X147960000Y-110750000D03*
D20*
X155750000Y-130600000D03*
X155750000Y-127900000D03*
X143750000Y-130600000D03*
X143750000Y-127900000D03*
X150500000Y-127900000D03*
X150500000Y-130600000D03*
X153000000Y-130600000D03*
X153000000Y-127900000D03*
X152000000Y-121650000D03*
X152000000Y-124350000D03*
D11*
X141800000Y-98800000D03*
D21*
X156270000Y-101000000D03*
D22*
X153730000Y-101000000D03*
M02*
