G04 #@! TF.FileFunction,Copper,L1,Top,Signal*
%FSLAX46Y46*%
G04 Gerber Fmt 4.6, Leading zero omitted, Abs format (unit mm)*
G04 Created by KiCad (PCBNEW 4.0.1-stable) date 07.03.2016 23:07:36*
%MOMM*%
G01*
G04 APERTURE LIST*
%ADD10C,0.100000*%
%ADD11C,0.600000*%
%ADD12R,1.500000X1.250000*%
%ADD13R,1.800860X1.597660*%
%ADD14R,2.032000X2.032000*%
%ADD15O,2.032000X2.032000*%
%ADD16O,1.699260X3.500120*%
%ADD17R,1.500000X1.300000*%
%ADD18R,1.300000X1.500000*%
%ADD19O,1.998980X1.998980*%
%ADD20R,1.998980X1.998980*%
%ADD21R,2.199640X1.600200*%
%ADD22C,2.500000*%
%ADD23C,5.000000*%
%ADD24R,0.800100X1.400000*%
%ADD25R,1.727200X1.727200*%
%ADD26O,1.727200X1.727200*%
%ADD27C,0.250000*%
%ADD28C,0.500000*%
%ADD29C,1.500000*%
%ADD30C,0.254000*%
G04 APERTURE END LIST*
D10*
D11*
X156000000Y-112500000D03*
X156000000Y-111000000D03*
X154500000Y-111000000D03*
X139000000Y-115500000D03*
X137500000Y-115500000D03*
X140500000Y-114000000D03*
X139000000Y-114000000D03*
X137500000Y-114000000D03*
X150000000Y-107000000D03*
X148500000Y-107000000D03*
X147000000Y-107000000D03*
X145500000Y-107000000D03*
X144000000Y-107000000D03*
X142500000Y-107000000D03*
X141000000Y-107000000D03*
X139500000Y-107000000D03*
X138000000Y-107000000D03*
D12*
X153250000Y-121000000D03*
X155750000Y-121000000D03*
D13*
X142250000Y-126419860D03*
X142250000Y-123580140D03*
D14*
X155500000Y-115250000D03*
D15*
X152960000Y-115250000D03*
D16*
X141040000Y-119520000D03*
X143580000Y-119520000D03*
X138500000Y-119520000D03*
D17*
X153150000Y-118250000D03*
X155850000Y-118250000D03*
D18*
X148500000Y-123650000D03*
X148500000Y-126350000D03*
X155750000Y-123900000D03*
X155750000Y-126600000D03*
D17*
X149850000Y-114500000D03*
X147150000Y-114500000D03*
D18*
X145500000Y-126350000D03*
X145500000Y-123650000D03*
D19*
X152905000Y-108375000D03*
D20*
X155445000Y-108375000D03*
D21*
X138270000Y-127479920D03*
X138270000Y-123680080D03*
D22*
X138500000Y-110550000D03*
X143500000Y-110550000D03*
D23*
X149000000Y-119000000D03*
D24*
X151050000Y-127050000D03*
X152950000Y-127050000D03*
X152000000Y-124450000D03*
D11*
X136500000Y-107000000D03*
D25*
X155490000Y-130060000D03*
D26*
X155490000Y-132600000D03*
X152950000Y-130060000D03*
X152950000Y-132600000D03*
X150410000Y-130060000D03*
X150410000Y-132600000D03*
X147870000Y-130060000D03*
X147870000Y-132600000D03*
X145330000Y-130060000D03*
X145330000Y-132600000D03*
X142790000Y-130060000D03*
X142790000Y-132600000D03*
X140250000Y-130060000D03*
X140250000Y-132600000D03*
X137710000Y-130060000D03*
X137710000Y-132600000D03*
D11*
X151700000Y-121500000D03*
X151700000Y-128800000D03*
X153600000Y-122900000D03*
X153700000Y-125500000D03*
X149900000Y-126600000D03*
X154400000Y-119700000D03*
X149900000Y-123300000D03*
X147000000Y-125100000D03*
D27*
X147870000Y-130060000D02*
X149110000Y-131300000D01*
X151700000Y-121500000D02*
X152750000Y-121500000D01*
X151700000Y-130600000D02*
X151700000Y-128800000D01*
X151000000Y-131300000D02*
X151700000Y-130600000D01*
X149110000Y-131300000D02*
X151000000Y-131300000D01*
X152750000Y-121500000D02*
X153250000Y-121000000D01*
X152960000Y-115250000D02*
X152960000Y-108330000D01*
X152960000Y-108330000D02*
X152930000Y-108300000D01*
X152910000Y-108320000D02*
X152930000Y-108300000D01*
X153250000Y-121000000D02*
X153250000Y-118350000D01*
X153250000Y-118350000D02*
X153150000Y-118250000D01*
X153150000Y-118250000D02*
X153150000Y-115440000D01*
X153150000Y-115440000D02*
X152960000Y-115250000D01*
X155750000Y-121000000D02*
X155400000Y-121000000D01*
X155400000Y-121000000D02*
X153600000Y-122800000D01*
X153600000Y-122800000D02*
X153600000Y-122900000D01*
X152950000Y-126750760D02*
X152950000Y-126250000D01*
X152950000Y-126250000D02*
X153700000Y-125500000D01*
X142250000Y-126419860D02*
X145430140Y-126419860D01*
X145430140Y-126419860D02*
X145500000Y-126350000D01*
D28*
X143580000Y-119520000D02*
X143580000Y-118070000D01*
X143580000Y-118070000D02*
X147150000Y-114500000D01*
X143580000Y-119520000D02*
X143580000Y-118320000D01*
X142250000Y-123580140D02*
X142250000Y-123350000D01*
X142250000Y-123350000D02*
X143580000Y-122020000D01*
X143580000Y-122020000D02*
X143580000Y-119520000D01*
D29*
X138270000Y-127479920D02*
X135229920Y-127479920D01*
X135229920Y-127479920D02*
X135000000Y-127250000D01*
X138500000Y-110250000D02*
X137000000Y-110250000D01*
X137000000Y-110250000D02*
X135000000Y-112250000D01*
X135000000Y-112250000D02*
X135000000Y-127250000D01*
X135000000Y-127250000D02*
X135000000Y-131250000D01*
X135000000Y-131250000D02*
X136350000Y-132600000D01*
X136350000Y-132600000D02*
X137710000Y-132600000D01*
X137710000Y-132600000D02*
X140250000Y-132600000D01*
X145330000Y-132600000D02*
X145330000Y-130060000D01*
X142790000Y-132600000D02*
X145330000Y-132600000D01*
X140250000Y-132600000D02*
X142790000Y-132600000D01*
X137710000Y-132600000D02*
X140250000Y-132600000D01*
X138270000Y-123680080D02*
X138569920Y-123680080D01*
X138569920Y-123680080D02*
X141040000Y-121210000D01*
X141040000Y-121210000D02*
X141040000Y-119520000D01*
X141040000Y-119520000D02*
X141040000Y-116460000D01*
X141040000Y-116460000D02*
X143500000Y-114000000D01*
X143500000Y-114000000D02*
X143500000Y-110250000D01*
D27*
X149900000Y-126600000D02*
X150899240Y-126600000D01*
X150899240Y-126600000D02*
X151050000Y-126750760D01*
X151050000Y-126750760D02*
X151050000Y-126200000D01*
X151050000Y-126200000D02*
X148500000Y-123650000D01*
X147870000Y-132600000D02*
X147900000Y-132600000D01*
X155850000Y-119600000D02*
X155850000Y-118250000D01*
X154400000Y-119700000D02*
X155750000Y-119700000D01*
X155750000Y-119700000D02*
X155850000Y-119600000D01*
X150410000Y-130060000D02*
X150410000Y-128260000D01*
X150410000Y-128260000D02*
X148500000Y-126350000D01*
X152000000Y-126300000D02*
X152000000Y-126050000D01*
X152000000Y-127800000D02*
X152000000Y-126300000D01*
X152950000Y-128750000D02*
X152000000Y-127800000D01*
X152950000Y-130060000D02*
X152950000Y-128750000D01*
X149800000Y-123400000D02*
X149800000Y-124100000D01*
X149900000Y-123300000D02*
X149800000Y-123400000D01*
X147000000Y-125100000D02*
X145550000Y-123650000D01*
X149800000Y-124313602D02*
X149800000Y-124100000D01*
X151193199Y-125706801D02*
X149800000Y-124313602D01*
X151656801Y-125706801D02*
X151193199Y-125706801D01*
X152000000Y-126050000D02*
X151656801Y-125706801D01*
X145500000Y-123650000D02*
X145550000Y-123650000D01*
X152950000Y-130060000D02*
X152950000Y-129400000D01*
X152950000Y-129400000D02*
X155750000Y-126600000D01*
X152950000Y-132600000D02*
X152950000Y-130060000D01*
D28*
X145700000Y-117700000D02*
X147600000Y-115800000D01*
X152000000Y-123000000D02*
X151200000Y-122200000D01*
X151200000Y-122200000D02*
X146800000Y-122200000D01*
X146800000Y-122200000D02*
X145700000Y-121100000D01*
X145700000Y-121100000D02*
X145700000Y-117700000D01*
X152000000Y-124751780D02*
X152000000Y-123000000D01*
X148550000Y-115800000D02*
X149850000Y-114500000D01*
X147600000Y-115800000D02*
X148550000Y-115800000D01*
D27*
X155750000Y-123900000D02*
X152851780Y-123900000D01*
X152851780Y-123900000D02*
X152000000Y-124751780D01*
D30*
G36*
X156748000Y-106813909D02*
X156570799Y-106740510D01*
X155976750Y-106740510D01*
X155818000Y-106899260D01*
X155818000Y-108002000D01*
X155838000Y-108002000D01*
X155838000Y-108748000D01*
X155818000Y-108748000D01*
X155818000Y-109850740D01*
X155976750Y-110009490D01*
X156570799Y-110009490D01*
X156748000Y-109936091D01*
X156748000Y-113642778D01*
X156642310Y-113599000D01*
X156031750Y-113599000D01*
X155873000Y-113757750D01*
X155873000Y-114877000D01*
X155893000Y-114877000D01*
X155893000Y-115623000D01*
X155873000Y-115623000D01*
X155873000Y-116742250D01*
X156031750Y-116901000D01*
X156642310Y-116901000D01*
X156748000Y-116857222D01*
X156748000Y-116990687D01*
X156600000Y-116960717D01*
X155100000Y-116960717D01*
X154867648Y-117004437D01*
X154654247Y-117141757D01*
X154511083Y-117351283D01*
X154501442Y-117398892D01*
X154495563Y-117367648D01*
X154358243Y-117154247D01*
X154148717Y-117011083D01*
X153902000Y-116961122D01*
X153902000Y-116590814D01*
X153924889Y-116575520D01*
X153945673Y-116625698D01*
X154124301Y-116804327D01*
X154357690Y-116901000D01*
X154968250Y-116901000D01*
X155127000Y-116742250D01*
X155127000Y-115623000D01*
X155107000Y-115623000D01*
X155107000Y-114877000D01*
X155127000Y-114877000D01*
X155127000Y-113757750D01*
X154968250Y-113599000D01*
X154357690Y-113599000D01*
X154124301Y-113695673D01*
X153945673Y-113874302D01*
X153924889Y-113924480D01*
X153712000Y-113782232D01*
X153712000Y-109775647D01*
X153878323Y-109664514D01*
X153907183Y-109734189D01*
X154085812Y-109912817D01*
X154319201Y-110009490D01*
X154913250Y-110009490D01*
X155072000Y-109850740D01*
X155072000Y-108748000D01*
X155052000Y-108748000D01*
X155052000Y-108002000D01*
X155072000Y-108002000D01*
X155072000Y-106899260D01*
X154913250Y-106740510D01*
X154319201Y-106740510D01*
X154085812Y-106837183D01*
X153907183Y-107015811D01*
X153878323Y-107085486D01*
X153559296Y-106872319D01*
X152936865Y-106748510D01*
X152873135Y-106748510D01*
X152250704Y-106872319D01*
X151723033Y-107224898D01*
X151370454Y-107752569D01*
X151246645Y-108375000D01*
X151370454Y-108997431D01*
X151723033Y-109525102D01*
X152208000Y-109849147D01*
X152208000Y-113782232D01*
X151798224Y-114056036D01*
X151442066Y-114589063D01*
X151317000Y-115217812D01*
X151317000Y-115282188D01*
X151442066Y-115910937D01*
X151798224Y-116443964D01*
X152331251Y-116800122D01*
X152398000Y-116813399D01*
X152398000Y-116961093D01*
X152167648Y-117004437D01*
X151954247Y-117141757D01*
X151811083Y-117351283D01*
X151775266Y-117528156D01*
X151652488Y-117231011D01*
X150773616Y-116350604D01*
X149689730Y-115900535D01*
X149800983Y-115789283D01*
X150600000Y-115789283D01*
X150832352Y-115745563D01*
X151045753Y-115608243D01*
X151188917Y-115398717D01*
X151239283Y-115150000D01*
X151239283Y-113850000D01*
X151195563Y-113617648D01*
X151058243Y-113404247D01*
X150848717Y-113261083D01*
X150600000Y-113210717D01*
X149100000Y-113210717D01*
X148867648Y-113254437D01*
X148654247Y-113391757D01*
X148511083Y-113601283D01*
X148501442Y-113648892D01*
X148495563Y-113617648D01*
X148358243Y-113404247D01*
X148148717Y-113261083D01*
X147900000Y-113210717D01*
X146400000Y-113210717D01*
X146167648Y-113254437D01*
X145954247Y-113391757D01*
X145811083Y-113601283D01*
X145760717Y-113850000D01*
X145760717Y-114649018D01*
X143247156Y-117162578D01*
X143014918Y-117208773D01*
X142535865Y-117528866D01*
X142417000Y-117706760D01*
X142417000Y-117030372D01*
X144473686Y-114973686D01*
X144772182Y-114526955D01*
X144877000Y-114000000D01*
X144877000Y-111827567D01*
X145090316Y-111614624D01*
X145376674Y-110924996D01*
X145377325Y-110178280D01*
X145092171Y-109488154D01*
X144564624Y-108959684D01*
X143874996Y-108673326D01*
X143128280Y-108672675D01*
X142438154Y-108957829D01*
X141909684Y-109485376D01*
X141623326Y-110175004D01*
X141622675Y-110921720D01*
X141907829Y-111611846D01*
X142123000Y-111827393D01*
X142123000Y-113429628D01*
X140066314Y-115486314D01*
X139767818Y-115933045D01*
X139663000Y-116460000D01*
X139663000Y-117647197D01*
X139286041Y-117306028D01*
X139093206Y-117258602D01*
X138873000Y-117347238D01*
X138873000Y-119147000D01*
X138893000Y-119147000D01*
X138893000Y-119893000D01*
X138873000Y-119893000D01*
X138873000Y-119913000D01*
X138127000Y-119913000D01*
X138127000Y-119893000D01*
X137015370Y-119893000D01*
X137015370Y-120793430D01*
X137271122Y-121333180D01*
X137713959Y-121733972D01*
X137906794Y-121781398D01*
X138126998Y-121692763D01*
X138126998Y-121905060D01*
X138397568Y-121905060D01*
X138061931Y-122240697D01*
X137170180Y-122240697D01*
X136937828Y-122284417D01*
X136724427Y-122421737D01*
X136581263Y-122631263D01*
X136530897Y-122879980D01*
X136530897Y-124480180D01*
X136574617Y-124712532D01*
X136711937Y-124925933D01*
X136921463Y-125069097D01*
X137170180Y-125119463D01*
X139369820Y-125119463D01*
X139602172Y-125075743D01*
X139815573Y-124938423D01*
X139958737Y-124728897D01*
X140009103Y-124480180D01*
X140009103Y-124188269D01*
X140710287Y-123487085D01*
X140710287Y-124378970D01*
X140754007Y-124611322D01*
X140891327Y-124824723D01*
X141100853Y-124967887D01*
X141256124Y-124999330D01*
X141117218Y-125025467D01*
X140903817Y-125162787D01*
X140760653Y-125372313D01*
X140710287Y-125621030D01*
X140710287Y-127218690D01*
X140754007Y-127451042D01*
X140891327Y-127664443D01*
X141100853Y-127807607D01*
X141349570Y-127857973D01*
X143150430Y-127857973D01*
X143382782Y-127814253D01*
X143596183Y-127676933D01*
X143739347Y-127467407D01*
X143789713Y-127218690D01*
X143789713Y-127171860D01*
X144224238Y-127171860D01*
X144254437Y-127332352D01*
X144391757Y-127545753D01*
X144601283Y-127688917D01*
X144850000Y-127739283D01*
X146150000Y-127739283D01*
X146382352Y-127695563D01*
X146595753Y-127558243D01*
X146738917Y-127348717D01*
X146789283Y-127100000D01*
X146789283Y-126016244D01*
X146814799Y-126026839D01*
X147183583Y-126027161D01*
X147210717Y-126015949D01*
X147210717Y-127100000D01*
X147254437Y-127332352D01*
X147391757Y-127545753D01*
X147601283Y-127688917D01*
X147850000Y-127739283D01*
X148825795Y-127739283D01*
X149658000Y-128571488D01*
X149658000Y-128774985D01*
X149355987Y-128976784D01*
X149140000Y-129300031D01*
X148924013Y-128976784D01*
X148440428Y-128653662D01*
X147870000Y-128540197D01*
X147299572Y-128653662D01*
X146815987Y-128976784D01*
X146600000Y-129300031D01*
X146384013Y-128976784D01*
X145900428Y-128653662D01*
X145330000Y-128540197D01*
X144759572Y-128653662D01*
X144275987Y-128976784D01*
X144055823Y-129306281D01*
X143832687Y-128983576D01*
X143385463Y-128684782D01*
X143163000Y-128773117D01*
X143163000Y-129687000D01*
X143183000Y-129687000D01*
X143183000Y-130433000D01*
X143163000Y-130433000D01*
X143163000Y-130453000D01*
X142417000Y-130453000D01*
X142417000Y-130433000D01*
X140623000Y-130433000D01*
X140623000Y-130453000D01*
X139877000Y-130453000D01*
X139877000Y-130433000D01*
X138083000Y-130433000D01*
X138083000Y-130453000D01*
X137337000Y-130453000D01*
X137337000Y-130433000D01*
X137317000Y-130433000D01*
X137317000Y-129687000D01*
X137337000Y-129687000D01*
X137337000Y-129667000D01*
X138083000Y-129667000D01*
X138083000Y-129687000D01*
X139877000Y-129687000D01*
X139877000Y-128773117D01*
X140623000Y-128773117D01*
X140623000Y-129687000D01*
X142417000Y-129687000D01*
X142417000Y-128773117D01*
X142194537Y-128684782D01*
X141747313Y-128983576D01*
X141520000Y-129312322D01*
X141292687Y-128983576D01*
X140845463Y-128684782D01*
X140623000Y-128773117D01*
X139877000Y-128773117D01*
X139805518Y-128744733D01*
X139815573Y-128738263D01*
X139958737Y-128528737D01*
X140009103Y-128280020D01*
X140009103Y-126679820D01*
X139965383Y-126447468D01*
X139828063Y-126234067D01*
X139618537Y-126090903D01*
X139369820Y-126040537D01*
X137170180Y-126040537D01*
X136937828Y-126084257D01*
X136908825Y-126102920D01*
X136377000Y-126102920D01*
X136377000Y-118246570D01*
X137015370Y-118246570D01*
X137015370Y-119147000D01*
X138127000Y-119147000D01*
X138127000Y-117347238D01*
X137906794Y-117258602D01*
X137713959Y-117306028D01*
X137271122Y-117706820D01*
X137015370Y-118246570D01*
X136377000Y-118246570D01*
X136377000Y-112820372D01*
X137246381Y-111950991D01*
X137435376Y-112140316D01*
X138125004Y-112426674D01*
X138871720Y-112427325D01*
X139561846Y-112142171D01*
X140090316Y-111614624D01*
X140376674Y-110924996D01*
X140377325Y-110178280D01*
X140092171Y-109488154D01*
X139564624Y-108959684D01*
X138874996Y-108673326D01*
X138128280Y-108672675D01*
X137643456Y-108873000D01*
X137000000Y-108873000D01*
X136473045Y-108977818D01*
X136026314Y-109276314D01*
X134026314Y-111276314D01*
X133727818Y-111723045D01*
X133623000Y-112250000D01*
X133623000Y-131250000D01*
X133727818Y-131776955D01*
X134026314Y-132223686D01*
X135376314Y-133573686D01*
X135823045Y-133872182D01*
X136304754Y-133968000D01*
X133522000Y-133968000D01*
X133522000Y-105692000D01*
X156748000Y-105692000D01*
X156748000Y-106813909D01*
X156748000Y-106813909D01*
G37*
X156748000Y-106813909D02*
X156570799Y-106740510D01*
X155976750Y-106740510D01*
X155818000Y-106899260D01*
X155818000Y-108002000D01*
X155838000Y-108002000D01*
X155838000Y-108748000D01*
X155818000Y-108748000D01*
X155818000Y-109850740D01*
X155976750Y-110009490D01*
X156570799Y-110009490D01*
X156748000Y-109936091D01*
X156748000Y-113642778D01*
X156642310Y-113599000D01*
X156031750Y-113599000D01*
X155873000Y-113757750D01*
X155873000Y-114877000D01*
X155893000Y-114877000D01*
X155893000Y-115623000D01*
X155873000Y-115623000D01*
X155873000Y-116742250D01*
X156031750Y-116901000D01*
X156642310Y-116901000D01*
X156748000Y-116857222D01*
X156748000Y-116990687D01*
X156600000Y-116960717D01*
X155100000Y-116960717D01*
X154867648Y-117004437D01*
X154654247Y-117141757D01*
X154511083Y-117351283D01*
X154501442Y-117398892D01*
X154495563Y-117367648D01*
X154358243Y-117154247D01*
X154148717Y-117011083D01*
X153902000Y-116961122D01*
X153902000Y-116590814D01*
X153924889Y-116575520D01*
X153945673Y-116625698D01*
X154124301Y-116804327D01*
X154357690Y-116901000D01*
X154968250Y-116901000D01*
X155127000Y-116742250D01*
X155127000Y-115623000D01*
X155107000Y-115623000D01*
X155107000Y-114877000D01*
X155127000Y-114877000D01*
X155127000Y-113757750D01*
X154968250Y-113599000D01*
X154357690Y-113599000D01*
X154124301Y-113695673D01*
X153945673Y-113874302D01*
X153924889Y-113924480D01*
X153712000Y-113782232D01*
X153712000Y-109775647D01*
X153878323Y-109664514D01*
X153907183Y-109734189D01*
X154085812Y-109912817D01*
X154319201Y-110009490D01*
X154913250Y-110009490D01*
X155072000Y-109850740D01*
X155072000Y-108748000D01*
X155052000Y-108748000D01*
X155052000Y-108002000D01*
X155072000Y-108002000D01*
X155072000Y-106899260D01*
X154913250Y-106740510D01*
X154319201Y-106740510D01*
X154085812Y-106837183D01*
X153907183Y-107015811D01*
X153878323Y-107085486D01*
X153559296Y-106872319D01*
X152936865Y-106748510D01*
X152873135Y-106748510D01*
X152250704Y-106872319D01*
X151723033Y-107224898D01*
X151370454Y-107752569D01*
X151246645Y-108375000D01*
X151370454Y-108997431D01*
X151723033Y-109525102D01*
X152208000Y-109849147D01*
X152208000Y-113782232D01*
X151798224Y-114056036D01*
X151442066Y-114589063D01*
X151317000Y-115217812D01*
X151317000Y-115282188D01*
X151442066Y-115910937D01*
X151798224Y-116443964D01*
X152331251Y-116800122D01*
X152398000Y-116813399D01*
X152398000Y-116961093D01*
X152167648Y-117004437D01*
X151954247Y-117141757D01*
X151811083Y-117351283D01*
X151775266Y-117528156D01*
X151652488Y-117231011D01*
X150773616Y-116350604D01*
X149689730Y-115900535D01*
X149800983Y-115789283D01*
X150600000Y-115789283D01*
X150832352Y-115745563D01*
X151045753Y-115608243D01*
X151188917Y-115398717D01*
X151239283Y-115150000D01*
X151239283Y-113850000D01*
X151195563Y-113617648D01*
X151058243Y-113404247D01*
X150848717Y-113261083D01*
X150600000Y-113210717D01*
X149100000Y-113210717D01*
X148867648Y-113254437D01*
X148654247Y-113391757D01*
X148511083Y-113601283D01*
X148501442Y-113648892D01*
X148495563Y-113617648D01*
X148358243Y-113404247D01*
X148148717Y-113261083D01*
X147900000Y-113210717D01*
X146400000Y-113210717D01*
X146167648Y-113254437D01*
X145954247Y-113391757D01*
X145811083Y-113601283D01*
X145760717Y-113850000D01*
X145760717Y-114649018D01*
X143247156Y-117162578D01*
X143014918Y-117208773D01*
X142535865Y-117528866D01*
X142417000Y-117706760D01*
X142417000Y-117030372D01*
X144473686Y-114973686D01*
X144772182Y-114526955D01*
X144877000Y-114000000D01*
X144877000Y-111827567D01*
X145090316Y-111614624D01*
X145376674Y-110924996D01*
X145377325Y-110178280D01*
X145092171Y-109488154D01*
X144564624Y-108959684D01*
X143874996Y-108673326D01*
X143128280Y-108672675D01*
X142438154Y-108957829D01*
X141909684Y-109485376D01*
X141623326Y-110175004D01*
X141622675Y-110921720D01*
X141907829Y-111611846D01*
X142123000Y-111827393D01*
X142123000Y-113429628D01*
X140066314Y-115486314D01*
X139767818Y-115933045D01*
X139663000Y-116460000D01*
X139663000Y-117647197D01*
X139286041Y-117306028D01*
X139093206Y-117258602D01*
X138873000Y-117347238D01*
X138873000Y-119147000D01*
X138893000Y-119147000D01*
X138893000Y-119893000D01*
X138873000Y-119893000D01*
X138873000Y-119913000D01*
X138127000Y-119913000D01*
X138127000Y-119893000D01*
X137015370Y-119893000D01*
X137015370Y-120793430D01*
X137271122Y-121333180D01*
X137713959Y-121733972D01*
X137906794Y-121781398D01*
X138126998Y-121692763D01*
X138126998Y-121905060D01*
X138397568Y-121905060D01*
X138061931Y-122240697D01*
X137170180Y-122240697D01*
X136937828Y-122284417D01*
X136724427Y-122421737D01*
X136581263Y-122631263D01*
X136530897Y-122879980D01*
X136530897Y-124480180D01*
X136574617Y-124712532D01*
X136711937Y-124925933D01*
X136921463Y-125069097D01*
X137170180Y-125119463D01*
X139369820Y-125119463D01*
X139602172Y-125075743D01*
X139815573Y-124938423D01*
X139958737Y-124728897D01*
X140009103Y-124480180D01*
X140009103Y-124188269D01*
X140710287Y-123487085D01*
X140710287Y-124378970D01*
X140754007Y-124611322D01*
X140891327Y-124824723D01*
X141100853Y-124967887D01*
X141256124Y-124999330D01*
X141117218Y-125025467D01*
X140903817Y-125162787D01*
X140760653Y-125372313D01*
X140710287Y-125621030D01*
X140710287Y-127218690D01*
X140754007Y-127451042D01*
X140891327Y-127664443D01*
X141100853Y-127807607D01*
X141349570Y-127857973D01*
X143150430Y-127857973D01*
X143382782Y-127814253D01*
X143596183Y-127676933D01*
X143739347Y-127467407D01*
X143789713Y-127218690D01*
X143789713Y-127171860D01*
X144224238Y-127171860D01*
X144254437Y-127332352D01*
X144391757Y-127545753D01*
X144601283Y-127688917D01*
X144850000Y-127739283D01*
X146150000Y-127739283D01*
X146382352Y-127695563D01*
X146595753Y-127558243D01*
X146738917Y-127348717D01*
X146789283Y-127100000D01*
X146789283Y-126016244D01*
X146814799Y-126026839D01*
X147183583Y-126027161D01*
X147210717Y-126015949D01*
X147210717Y-127100000D01*
X147254437Y-127332352D01*
X147391757Y-127545753D01*
X147601283Y-127688917D01*
X147850000Y-127739283D01*
X148825795Y-127739283D01*
X149658000Y-128571488D01*
X149658000Y-128774985D01*
X149355987Y-128976784D01*
X149140000Y-129300031D01*
X148924013Y-128976784D01*
X148440428Y-128653662D01*
X147870000Y-128540197D01*
X147299572Y-128653662D01*
X146815987Y-128976784D01*
X146600000Y-129300031D01*
X146384013Y-128976784D01*
X145900428Y-128653662D01*
X145330000Y-128540197D01*
X144759572Y-128653662D01*
X144275987Y-128976784D01*
X144055823Y-129306281D01*
X143832687Y-128983576D01*
X143385463Y-128684782D01*
X143163000Y-128773117D01*
X143163000Y-129687000D01*
X143183000Y-129687000D01*
X143183000Y-130433000D01*
X143163000Y-130433000D01*
X143163000Y-130453000D01*
X142417000Y-130453000D01*
X142417000Y-130433000D01*
X140623000Y-130433000D01*
X140623000Y-130453000D01*
X139877000Y-130453000D01*
X139877000Y-130433000D01*
X138083000Y-130433000D01*
X138083000Y-130453000D01*
X137337000Y-130453000D01*
X137337000Y-130433000D01*
X137317000Y-130433000D01*
X137317000Y-129687000D01*
X137337000Y-129687000D01*
X137337000Y-129667000D01*
X138083000Y-129667000D01*
X138083000Y-129687000D01*
X139877000Y-129687000D01*
X139877000Y-128773117D01*
X140623000Y-128773117D01*
X140623000Y-129687000D01*
X142417000Y-129687000D01*
X142417000Y-128773117D01*
X142194537Y-128684782D01*
X141747313Y-128983576D01*
X141520000Y-129312322D01*
X141292687Y-128983576D01*
X140845463Y-128684782D01*
X140623000Y-128773117D01*
X139877000Y-128773117D01*
X139805518Y-128744733D01*
X139815573Y-128738263D01*
X139958737Y-128528737D01*
X140009103Y-128280020D01*
X140009103Y-126679820D01*
X139965383Y-126447468D01*
X139828063Y-126234067D01*
X139618537Y-126090903D01*
X139369820Y-126040537D01*
X137170180Y-126040537D01*
X136937828Y-126084257D01*
X136908825Y-126102920D01*
X136377000Y-126102920D01*
X136377000Y-118246570D01*
X137015370Y-118246570D01*
X137015370Y-119147000D01*
X138127000Y-119147000D01*
X138127000Y-117347238D01*
X137906794Y-117258602D01*
X137713959Y-117306028D01*
X137271122Y-117706820D01*
X137015370Y-118246570D01*
X136377000Y-118246570D01*
X136377000Y-112820372D01*
X137246381Y-111950991D01*
X137435376Y-112140316D01*
X138125004Y-112426674D01*
X138871720Y-112427325D01*
X139561846Y-112142171D01*
X140090316Y-111614624D01*
X140376674Y-110924996D01*
X140377325Y-110178280D01*
X140092171Y-109488154D01*
X139564624Y-108959684D01*
X138874996Y-108673326D01*
X138128280Y-108672675D01*
X137643456Y-108873000D01*
X137000000Y-108873000D01*
X136473045Y-108977818D01*
X136026314Y-109276314D01*
X134026314Y-111276314D01*
X133727818Y-111723045D01*
X133623000Y-112250000D01*
X133623000Y-131250000D01*
X133727818Y-131776955D01*
X134026314Y-132223686D01*
X135376314Y-133573686D01*
X135823045Y-133872182D01*
X136304754Y-133968000D01*
X133522000Y-133968000D01*
X133522000Y-105692000D01*
X156748000Y-105692000D01*
X156748000Y-106813909D01*
G36*
X156748000Y-128692774D02*
X156713299Y-128658073D01*
X156479910Y-128561400D01*
X156021750Y-128561400D01*
X155863000Y-128720150D01*
X155863000Y-129687000D01*
X155883000Y-129687000D01*
X155883000Y-130433000D01*
X155863000Y-130433000D01*
X155863000Y-132227000D01*
X155883000Y-132227000D01*
X155883000Y-132973000D01*
X155863000Y-132973000D01*
X155863000Y-132993000D01*
X155117000Y-132993000D01*
X155117000Y-132973000D01*
X155097000Y-132973000D01*
X155097000Y-132227000D01*
X155117000Y-132227000D01*
X155117000Y-130433000D01*
X155097000Y-130433000D01*
X155097000Y-129687000D01*
X155117000Y-129687000D01*
X155117000Y-128720150D01*
X154958250Y-128561400D01*
X154852088Y-128561400D01*
X155424205Y-127989283D01*
X156400000Y-127989283D01*
X156632352Y-127945563D01*
X156748000Y-127871145D01*
X156748000Y-128692774D01*
X156748000Y-128692774D01*
G37*
X156748000Y-128692774D02*
X156713299Y-128658073D01*
X156479910Y-128561400D01*
X156021750Y-128561400D01*
X155863000Y-128720150D01*
X155863000Y-129687000D01*
X155883000Y-129687000D01*
X155883000Y-130433000D01*
X155863000Y-130433000D01*
X155863000Y-132227000D01*
X155883000Y-132227000D01*
X155883000Y-132973000D01*
X155863000Y-132973000D01*
X155863000Y-132993000D01*
X155117000Y-132993000D01*
X155117000Y-132973000D01*
X155097000Y-132973000D01*
X155097000Y-132227000D01*
X155117000Y-132227000D01*
X155117000Y-130433000D01*
X155097000Y-130433000D01*
X155097000Y-129687000D01*
X155117000Y-129687000D01*
X155117000Y-128720150D01*
X154958250Y-128561400D01*
X154852088Y-128561400D01*
X155424205Y-127989283D01*
X156400000Y-127989283D01*
X156632352Y-127945563D01*
X156748000Y-127871145D01*
X156748000Y-128692774D01*
G36*
X154504437Y-124882352D02*
X154641757Y-125095753D01*
X154851283Y-125238917D01*
X154898892Y-125248558D01*
X154867648Y-125254437D01*
X154654247Y-125391757D01*
X154511083Y-125601283D01*
X154460717Y-125850000D01*
X154460717Y-126825795D01*
X153856406Y-127430106D01*
X153826300Y-127400000D01*
X153150025Y-127400000D01*
X153150025Y-127443000D01*
X152752000Y-127443000D01*
X152752000Y-126050000D01*
X152749975Y-126039820D01*
X152749975Y-125873750D01*
X153150025Y-125873750D01*
X153150025Y-126700000D01*
X153826300Y-126700000D01*
X153985050Y-126541250D01*
X153985050Y-126223690D01*
X153888377Y-125990301D01*
X153709748Y-125811673D01*
X153476359Y-125715000D01*
X153308775Y-125715000D01*
X153150025Y-125873750D01*
X152749975Y-125873750D01*
X152708739Y-125832514D01*
X152694757Y-125762222D01*
X152668224Y-125722512D01*
X152845803Y-125608243D01*
X152988967Y-125398717D01*
X153039333Y-125150000D01*
X153039333Y-124775935D01*
X153163268Y-124652000D01*
X154461093Y-124652000D01*
X154504437Y-124882352D01*
X154504437Y-124882352D01*
G37*
X154504437Y-124882352D02*
X154641757Y-125095753D01*
X154851283Y-125238917D01*
X154898892Y-125248558D01*
X154867648Y-125254437D01*
X154654247Y-125391757D01*
X154511083Y-125601283D01*
X154460717Y-125850000D01*
X154460717Y-126825795D01*
X153856406Y-127430106D01*
X153826300Y-127400000D01*
X153150025Y-127400000D01*
X153150025Y-127443000D01*
X152752000Y-127443000D01*
X152752000Y-126050000D01*
X152749975Y-126039820D01*
X152749975Y-125873750D01*
X153150025Y-125873750D01*
X153150025Y-126700000D01*
X153826300Y-126700000D01*
X153985050Y-126541250D01*
X153985050Y-126223690D01*
X153888377Y-125990301D01*
X153709748Y-125811673D01*
X153476359Y-125715000D01*
X153308775Y-125715000D01*
X153150025Y-125873750D01*
X152749975Y-125873750D01*
X152708739Y-125832514D01*
X152694757Y-125762222D01*
X152668224Y-125722512D01*
X152845803Y-125608243D01*
X152988967Y-125398717D01*
X153039333Y-125150000D01*
X153039333Y-124775935D01*
X153163268Y-124652000D01*
X154461093Y-124652000D01*
X154504437Y-124882352D01*
G36*
X156123000Y-120687500D02*
X156143000Y-120687500D01*
X156143000Y-121312500D01*
X156123000Y-121312500D01*
X156123000Y-122101250D01*
X156281750Y-122260000D01*
X156626309Y-122260000D01*
X156748000Y-122209594D01*
X156748000Y-122628921D01*
X156648717Y-122561083D01*
X156400000Y-122510717D01*
X155100000Y-122510717D01*
X154867648Y-122554437D01*
X154654247Y-122691757D01*
X154511083Y-122901283D01*
X154461122Y-123148000D01*
X152877000Y-123148000D01*
X152877000Y-123000005D01*
X152877001Y-123000000D01*
X152810242Y-122664387D01*
X152620133Y-122379867D01*
X152504549Y-122264283D01*
X154000000Y-122264283D01*
X154232352Y-122220563D01*
X154445753Y-122083243D01*
X154492216Y-122015242D01*
X154640302Y-122163327D01*
X154873691Y-122260000D01*
X155218250Y-122260000D01*
X155377000Y-122101250D01*
X155377000Y-121312500D01*
X155357000Y-121312500D01*
X155357000Y-120687500D01*
X155377000Y-120687500D01*
X155377000Y-120607000D01*
X156123000Y-120607000D01*
X156123000Y-120687500D01*
X156123000Y-120687500D01*
G37*
X156123000Y-120687500D02*
X156143000Y-120687500D01*
X156143000Y-121312500D01*
X156123000Y-121312500D01*
X156123000Y-122101250D01*
X156281750Y-122260000D01*
X156626309Y-122260000D01*
X156748000Y-122209594D01*
X156748000Y-122628921D01*
X156648717Y-122561083D01*
X156400000Y-122510717D01*
X155100000Y-122510717D01*
X154867648Y-122554437D01*
X154654247Y-122691757D01*
X154511083Y-122901283D01*
X154461122Y-123148000D01*
X152877000Y-123148000D01*
X152877000Y-123000005D01*
X152877001Y-123000000D01*
X152810242Y-122664387D01*
X152620133Y-122379867D01*
X152504549Y-122264283D01*
X154000000Y-122264283D01*
X154232352Y-122220563D01*
X154445753Y-122083243D01*
X154492216Y-122015242D01*
X154640302Y-122163327D01*
X154873691Y-122260000D01*
X155218250Y-122260000D01*
X155377000Y-122101250D01*
X155377000Y-121312500D01*
X155357000Y-121312500D01*
X155357000Y-120687500D01*
X155377000Y-120687500D01*
X155377000Y-120607000D01*
X156123000Y-120607000D01*
X156123000Y-120687500D01*
M02*
