G04 #@! TF.FileFunction,Copper,L2,Bot,Signal*
%FSLAX46Y46*%
G04 Gerber Fmt 4.6, Leading zero omitted, Abs format (unit mm)*
G04 Created by KiCad (PCBNEW 4.0.1-stable) date 07.03.2016 23:07:36*
%MOMM*%
G01*
G04 APERTURE LIST*
%ADD10C,0.100000*%
%ADD11C,0.600000*%
%ADD12R,2.032000X2.032000*%
%ADD13O,2.032000X2.032000*%
%ADD14O,1.699260X3.500120*%
%ADD15O,1.998980X1.998980*%
%ADD16R,1.998980X1.998980*%
%ADD17C,2.500000*%
%ADD18C,5.000000*%
%ADD19R,1.727200X1.727200*%
%ADD20O,1.727200X1.727200*%
%ADD21C,0.250000*%
%ADD22C,1.500000*%
%ADD23C,0.254000*%
G04 APERTURE END LIST*
D10*
D11*
X156000000Y-112500000D03*
X156000000Y-111000000D03*
X154500000Y-111000000D03*
X139000000Y-115500000D03*
X137500000Y-115500000D03*
X140500000Y-114000000D03*
X139000000Y-114000000D03*
X137500000Y-114000000D03*
X150000000Y-107000000D03*
X148500000Y-107000000D03*
X147000000Y-107000000D03*
X145500000Y-107000000D03*
X144000000Y-107000000D03*
X142500000Y-107000000D03*
X141000000Y-107000000D03*
X139500000Y-107000000D03*
X138000000Y-107000000D03*
D12*
X155500000Y-115250000D03*
D13*
X152960000Y-115250000D03*
D14*
X141040000Y-119520000D03*
X143580000Y-119520000D03*
X138500000Y-119520000D03*
D15*
X152905000Y-108375000D03*
D16*
X155445000Y-108375000D03*
D17*
X138500000Y-110550000D03*
X143500000Y-110550000D03*
D18*
X149000000Y-119000000D03*
D11*
X136500000Y-107000000D03*
D19*
X155490000Y-130060000D03*
D20*
X155490000Y-132600000D03*
X152950000Y-130060000D03*
X152950000Y-132600000D03*
X150410000Y-130060000D03*
X150410000Y-132600000D03*
X147870000Y-130060000D03*
X147870000Y-132600000D03*
X145330000Y-130060000D03*
X145330000Y-132600000D03*
X142790000Y-130060000D03*
X142790000Y-132600000D03*
X140250000Y-130060000D03*
X140250000Y-132600000D03*
X137710000Y-130060000D03*
X137710000Y-132600000D03*
D11*
X151700000Y-121500000D03*
X151700000Y-128800000D03*
X153600000Y-122900000D03*
X153700000Y-125500000D03*
X149900000Y-126600000D03*
X154400000Y-119700000D03*
X149900000Y-123300000D03*
X147000000Y-125100000D03*
D21*
X151700000Y-128800000D02*
X151700000Y-121500000D01*
X153600000Y-122900000D02*
X153700000Y-123000000D01*
X153700000Y-123000000D02*
X153700000Y-125500000D01*
X153700000Y-125500000D02*
X155490000Y-127290000D01*
X155490000Y-127290000D02*
X155490000Y-130060000D01*
D22*
X138500000Y-110250000D02*
X137000000Y-110250000D01*
X137000000Y-110250000D02*
X135000000Y-112250000D01*
X135000000Y-112250000D02*
X135000000Y-131250000D01*
X135000000Y-131250000D02*
X136350000Y-132600000D01*
X136350000Y-132600000D02*
X137710000Y-132600000D01*
X140250000Y-132600000D02*
X142790000Y-132600000D01*
X137710000Y-132600000D02*
X140250000Y-132600000D01*
X142790000Y-132600000D02*
X145330000Y-132600000D01*
X145330000Y-130060000D02*
X145330000Y-132600000D01*
X141040000Y-119520000D02*
X141040000Y-116460000D01*
X141040000Y-116460000D02*
X143500000Y-114000000D01*
X143500000Y-114000000D02*
X143500000Y-110250000D01*
D21*
X147870000Y-132600000D02*
X149100000Y-131370000D01*
X149100000Y-127400000D02*
X149900000Y-126600000D01*
X149100000Y-131370000D02*
X149100000Y-127400000D01*
X150750000Y-121500000D02*
X152550000Y-119700000D01*
X152550000Y-119700000D02*
X152500000Y-119700000D01*
X150750000Y-129720000D02*
X150750000Y-121500000D01*
X152500000Y-119700000D02*
X154400000Y-119700000D01*
X150750000Y-129720000D02*
X150410000Y-130060000D01*
X150410000Y-130060000D02*
X150410000Y-132600000D01*
X148800000Y-123300000D02*
X149900000Y-123300000D01*
X147000000Y-125100000D02*
X148800000Y-123300000D01*
D23*
G36*
X156748000Y-106813909D02*
X156570799Y-106740510D01*
X155976750Y-106740510D01*
X155818000Y-106899260D01*
X155818000Y-108002000D01*
X155838000Y-108002000D01*
X155838000Y-108748000D01*
X155818000Y-108748000D01*
X155818000Y-109850740D01*
X155976750Y-110009490D01*
X156570799Y-110009490D01*
X156748000Y-109936091D01*
X156748000Y-113642778D01*
X156642310Y-113599000D01*
X156031750Y-113599000D01*
X155873000Y-113757750D01*
X155873000Y-114877000D01*
X155893000Y-114877000D01*
X155893000Y-115623000D01*
X155873000Y-115623000D01*
X155873000Y-116742250D01*
X156031750Y-116901000D01*
X156642310Y-116901000D01*
X156748000Y-116857222D01*
X156748000Y-128692774D01*
X156713299Y-128658073D01*
X156479910Y-128561400D01*
X156021750Y-128561400D01*
X155863000Y-128720150D01*
X155863000Y-129687000D01*
X155883000Y-129687000D01*
X155883000Y-130433000D01*
X155863000Y-130433000D01*
X155863000Y-132227000D01*
X155883000Y-132227000D01*
X155883000Y-132973000D01*
X155863000Y-132973000D01*
X155863000Y-132993000D01*
X155117000Y-132993000D01*
X155117000Y-132973000D01*
X155097000Y-132973000D01*
X155097000Y-132227000D01*
X155117000Y-132227000D01*
X155117000Y-130433000D01*
X155097000Y-130433000D01*
X155097000Y-129687000D01*
X155117000Y-129687000D01*
X155117000Y-128720150D01*
X154958250Y-128561400D01*
X154500090Y-128561400D01*
X154266701Y-128658073D01*
X154088073Y-128836702D01*
X154020086Y-129000838D01*
X154004013Y-128976784D01*
X153520428Y-128653662D01*
X152950000Y-128540197D01*
X152622578Y-128605325D01*
X152486331Y-128275583D01*
X152452000Y-128241192D01*
X152452000Y-122059145D01*
X152485414Y-122025789D01*
X152626839Y-121685201D01*
X152627161Y-121316417D01*
X152486331Y-120975583D01*
X152412183Y-120901306D01*
X152861489Y-120452000D01*
X153840855Y-120452000D01*
X153874211Y-120485414D01*
X154214799Y-120626839D01*
X154583583Y-120627161D01*
X154924417Y-120486331D01*
X155185414Y-120225789D01*
X155326839Y-119885201D01*
X155327161Y-119516417D01*
X155186331Y-119175583D01*
X154925789Y-118914586D01*
X154585201Y-118773161D01*
X154216417Y-118772839D01*
X153875583Y-118913669D01*
X153841192Y-118948000D01*
X152500000Y-118948000D01*
X152212222Y-119005243D01*
X152126947Y-119062222D01*
X152127542Y-118380730D01*
X151652488Y-117231011D01*
X150773616Y-116350604D01*
X149624728Y-115873544D01*
X148380730Y-115872458D01*
X147231011Y-116347512D01*
X146350604Y-117226384D01*
X145873544Y-118375272D01*
X145872458Y-119619270D01*
X146347512Y-120768989D01*
X147226384Y-121649396D01*
X148375272Y-122126456D01*
X149619270Y-122127542D01*
X149998000Y-121971054D01*
X149998000Y-122373085D01*
X149716417Y-122372839D01*
X149375583Y-122513669D01*
X149341192Y-122548000D01*
X148800000Y-122548000D01*
X148512222Y-122605243D01*
X148268255Y-122768256D01*
X146863632Y-124172880D01*
X146816417Y-124172839D01*
X146475583Y-124313669D01*
X146214586Y-124574211D01*
X146073161Y-124914799D01*
X146072839Y-125283583D01*
X146213669Y-125624417D01*
X146474211Y-125885414D01*
X146814799Y-126026839D01*
X147183583Y-126027161D01*
X147524417Y-125886331D01*
X147785414Y-125625789D01*
X147926839Y-125285201D01*
X147926881Y-125236607D01*
X149111489Y-124052000D01*
X149340855Y-124052000D01*
X149374211Y-124085414D01*
X149714799Y-124226839D01*
X149998000Y-124227086D01*
X149998000Y-125673085D01*
X149716417Y-125672839D01*
X149375583Y-125813669D01*
X149114586Y-126074211D01*
X148973161Y-126414799D01*
X148973119Y-126463393D01*
X148568256Y-126868256D01*
X148405243Y-127112222D01*
X148348000Y-127400000D01*
X148348000Y-128635277D01*
X147870000Y-128540197D01*
X147299572Y-128653662D01*
X146815987Y-128976784D01*
X146600000Y-129300031D01*
X146384013Y-128976784D01*
X145900428Y-128653662D01*
X145330000Y-128540197D01*
X144759572Y-128653662D01*
X144275987Y-128976784D01*
X144055823Y-129306281D01*
X143832687Y-128983576D01*
X143385463Y-128684782D01*
X143163000Y-128773117D01*
X143163000Y-129687000D01*
X143183000Y-129687000D01*
X143183000Y-130433000D01*
X143163000Y-130433000D01*
X143163000Y-130453000D01*
X142417000Y-130453000D01*
X142417000Y-130433000D01*
X140623000Y-130433000D01*
X140623000Y-130453000D01*
X139877000Y-130453000D01*
X139877000Y-130433000D01*
X138083000Y-130433000D01*
X138083000Y-130453000D01*
X137337000Y-130453000D01*
X137337000Y-130433000D01*
X137317000Y-130433000D01*
X137317000Y-129687000D01*
X137337000Y-129687000D01*
X137337000Y-128773117D01*
X138083000Y-128773117D01*
X138083000Y-129687000D01*
X139877000Y-129687000D01*
X139877000Y-128773117D01*
X140623000Y-128773117D01*
X140623000Y-129687000D01*
X142417000Y-129687000D01*
X142417000Y-128773117D01*
X142194537Y-128684782D01*
X141747313Y-128983576D01*
X141520000Y-129312322D01*
X141292687Y-128983576D01*
X140845463Y-128684782D01*
X140623000Y-128773117D01*
X139877000Y-128773117D01*
X139654537Y-128684782D01*
X139207313Y-128983576D01*
X138980000Y-129312322D01*
X138752687Y-128983576D01*
X138305463Y-128684782D01*
X138083000Y-128773117D01*
X137337000Y-128773117D01*
X137114537Y-128684782D01*
X136667313Y-128983576D01*
X136377000Y-129403434D01*
X136377000Y-119893000D01*
X137015370Y-119893000D01*
X137015370Y-120793430D01*
X137271122Y-121333180D01*
X137713959Y-121733972D01*
X137906794Y-121781398D01*
X138127000Y-121692762D01*
X138127000Y-119893000D01*
X137015370Y-119893000D01*
X136377000Y-119893000D01*
X136377000Y-118246570D01*
X137015370Y-118246570D01*
X137015370Y-119147000D01*
X138127000Y-119147000D01*
X138127000Y-117347238D01*
X138873000Y-117347238D01*
X138873000Y-119147000D01*
X138893000Y-119147000D01*
X138893000Y-119893000D01*
X138873000Y-119893000D01*
X138873000Y-121692762D01*
X139093206Y-121781398D01*
X139286041Y-121733972D01*
X139728878Y-121333180D01*
X139790319Y-121203513D01*
X139995865Y-121511134D01*
X140474918Y-121831227D01*
X141040000Y-121943629D01*
X141605082Y-121831227D01*
X142084135Y-121511134D01*
X142310000Y-121173103D01*
X142535865Y-121511134D01*
X143014918Y-121831227D01*
X143580000Y-121943629D01*
X144145082Y-121831227D01*
X144624135Y-121511134D01*
X144944228Y-121032081D01*
X145056630Y-120466999D01*
X145056630Y-118573001D01*
X144944228Y-118007919D01*
X144624135Y-117528866D01*
X144145082Y-117208773D01*
X143580000Y-117096371D01*
X143014918Y-117208773D01*
X142535865Y-117528866D01*
X142417000Y-117706760D01*
X142417000Y-117030372D01*
X144229560Y-115217812D01*
X151317000Y-115217812D01*
X151317000Y-115282188D01*
X151442066Y-115910937D01*
X151798224Y-116443964D01*
X152331251Y-116800122D01*
X152960000Y-116925188D01*
X153588749Y-116800122D01*
X153924889Y-116575520D01*
X153945673Y-116625698D01*
X154124301Y-116804327D01*
X154357690Y-116901000D01*
X154968250Y-116901000D01*
X155127000Y-116742250D01*
X155127000Y-115623000D01*
X155107000Y-115623000D01*
X155107000Y-114877000D01*
X155127000Y-114877000D01*
X155127000Y-113757750D01*
X154968250Y-113599000D01*
X154357690Y-113599000D01*
X154124301Y-113695673D01*
X153945673Y-113874302D01*
X153924889Y-113924480D01*
X153588749Y-113699878D01*
X152960000Y-113574812D01*
X152331251Y-113699878D01*
X151798224Y-114056036D01*
X151442066Y-114589063D01*
X151317000Y-115217812D01*
X144229560Y-115217812D01*
X144473686Y-114973686D01*
X144772182Y-114526955D01*
X144877000Y-114000000D01*
X144877000Y-111827567D01*
X145090316Y-111614624D01*
X145376674Y-110924996D01*
X145377325Y-110178280D01*
X145092171Y-109488154D01*
X144564624Y-108959684D01*
X143874996Y-108673326D01*
X143128280Y-108672675D01*
X142438154Y-108957829D01*
X141909684Y-109485376D01*
X141623326Y-110175004D01*
X141622675Y-110921720D01*
X141907829Y-111611846D01*
X142123000Y-111827393D01*
X142123000Y-113429628D01*
X140066314Y-115486314D01*
X139767818Y-115933045D01*
X139663000Y-116460000D01*
X139663000Y-117647197D01*
X139286041Y-117306028D01*
X139093206Y-117258602D01*
X138873000Y-117347238D01*
X138127000Y-117347238D01*
X137906794Y-117258602D01*
X137713959Y-117306028D01*
X137271122Y-117706820D01*
X137015370Y-118246570D01*
X136377000Y-118246570D01*
X136377000Y-112820372D01*
X137246381Y-111950991D01*
X137435376Y-112140316D01*
X138125004Y-112426674D01*
X138871720Y-112427325D01*
X139561846Y-112142171D01*
X140090316Y-111614624D01*
X140376674Y-110924996D01*
X140377325Y-110178280D01*
X140092171Y-109488154D01*
X139564624Y-108959684D01*
X138874996Y-108673326D01*
X138128280Y-108672675D01*
X137643456Y-108873000D01*
X137000000Y-108873000D01*
X136473045Y-108977818D01*
X136026314Y-109276314D01*
X134026314Y-111276314D01*
X133727818Y-111723045D01*
X133623000Y-112250000D01*
X133623000Y-131250000D01*
X133727818Y-131776955D01*
X134026314Y-132223686D01*
X135376314Y-133573686D01*
X135823045Y-133872182D01*
X136304754Y-133968000D01*
X133522000Y-133968000D01*
X133522000Y-108375000D01*
X151246645Y-108375000D01*
X151370454Y-108997431D01*
X151723033Y-109525102D01*
X152250704Y-109877681D01*
X152873135Y-110001490D01*
X152936865Y-110001490D01*
X153559296Y-109877681D01*
X153878323Y-109664514D01*
X153907183Y-109734189D01*
X154085812Y-109912817D01*
X154319201Y-110009490D01*
X154913250Y-110009490D01*
X155072000Y-109850740D01*
X155072000Y-108748000D01*
X155052000Y-108748000D01*
X155052000Y-108002000D01*
X155072000Y-108002000D01*
X155072000Y-106899260D01*
X154913250Y-106740510D01*
X154319201Y-106740510D01*
X154085812Y-106837183D01*
X153907183Y-107015811D01*
X153878323Y-107085486D01*
X153559296Y-106872319D01*
X152936865Y-106748510D01*
X152873135Y-106748510D01*
X152250704Y-106872319D01*
X151723033Y-107224898D01*
X151370454Y-107752569D01*
X151246645Y-108375000D01*
X133522000Y-108375000D01*
X133522000Y-105692000D01*
X156748000Y-105692000D01*
X156748000Y-106813909D01*
X156748000Y-106813909D01*
G37*
X156748000Y-106813909D02*
X156570799Y-106740510D01*
X155976750Y-106740510D01*
X155818000Y-106899260D01*
X155818000Y-108002000D01*
X155838000Y-108002000D01*
X155838000Y-108748000D01*
X155818000Y-108748000D01*
X155818000Y-109850740D01*
X155976750Y-110009490D01*
X156570799Y-110009490D01*
X156748000Y-109936091D01*
X156748000Y-113642778D01*
X156642310Y-113599000D01*
X156031750Y-113599000D01*
X155873000Y-113757750D01*
X155873000Y-114877000D01*
X155893000Y-114877000D01*
X155893000Y-115623000D01*
X155873000Y-115623000D01*
X155873000Y-116742250D01*
X156031750Y-116901000D01*
X156642310Y-116901000D01*
X156748000Y-116857222D01*
X156748000Y-128692774D01*
X156713299Y-128658073D01*
X156479910Y-128561400D01*
X156021750Y-128561400D01*
X155863000Y-128720150D01*
X155863000Y-129687000D01*
X155883000Y-129687000D01*
X155883000Y-130433000D01*
X155863000Y-130433000D01*
X155863000Y-132227000D01*
X155883000Y-132227000D01*
X155883000Y-132973000D01*
X155863000Y-132973000D01*
X155863000Y-132993000D01*
X155117000Y-132993000D01*
X155117000Y-132973000D01*
X155097000Y-132973000D01*
X155097000Y-132227000D01*
X155117000Y-132227000D01*
X155117000Y-130433000D01*
X155097000Y-130433000D01*
X155097000Y-129687000D01*
X155117000Y-129687000D01*
X155117000Y-128720150D01*
X154958250Y-128561400D01*
X154500090Y-128561400D01*
X154266701Y-128658073D01*
X154088073Y-128836702D01*
X154020086Y-129000838D01*
X154004013Y-128976784D01*
X153520428Y-128653662D01*
X152950000Y-128540197D01*
X152622578Y-128605325D01*
X152486331Y-128275583D01*
X152452000Y-128241192D01*
X152452000Y-122059145D01*
X152485414Y-122025789D01*
X152626839Y-121685201D01*
X152627161Y-121316417D01*
X152486331Y-120975583D01*
X152412183Y-120901306D01*
X152861489Y-120452000D01*
X153840855Y-120452000D01*
X153874211Y-120485414D01*
X154214799Y-120626839D01*
X154583583Y-120627161D01*
X154924417Y-120486331D01*
X155185414Y-120225789D01*
X155326839Y-119885201D01*
X155327161Y-119516417D01*
X155186331Y-119175583D01*
X154925789Y-118914586D01*
X154585201Y-118773161D01*
X154216417Y-118772839D01*
X153875583Y-118913669D01*
X153841192Y-118948000D01*
X152500000Y-118948000D01*
X152212222Y-119005243D01*
X152126947Y-119062222D01*
X152127542Y-118380730D01*
X151652488Y-117231011D01*
X150773616Y-116350604D01*
X149624728Y-115873544D01*
X148380730Y-115872458D01*
X147231011Y-116347512D01*
X146350604Y-117226384D01*
X145873544Y-118375272D01*
X145872458Y-119619270D01*
X146347512Y-120768989D01*
X147226384Y-121649396D01*
X148375272Y-122126456D01*
X149619270Y-122127542D01*
X149998000Y-121971054D01*
X149998000Y-122373085D01*
X149716417Y-122372839D01*
X149375583Y-122513669D01*
X149341192Y-122548000D01*
X148800000Y-122548000D01*
X148512222Y-122605243D01*
X148268255Y-122768256D01*
X146863632Y-124172880D01*
X146816417Y-124172839D01*
X146475583Y-124313669D01*
X146214586Y-124574211D01*
X146073161Y-124914799D01*
X146072839Y-125283583D01*
X146213669Y-125624417D01*
X146474211Y-125885414D01*
X146814799Y-126026839D01*
X147183583Y-126027161D01*
X147524417Y-125886331D01*
X147785414Y-125625789D01*
X147926839Y-125285201D01*
X147926881Y-125236607D01*
X149111489Y-124052000D01*
X149340855Y-124052000D01*
X149374211Y-124085414D01*
X149714799Y-124226839D01*
X149998000Y-124227086D01*
X149998000Y-125673085D01*
X149716417Y-125672839D01*
X149375583Y-125813669D01*
X149114586Y-126074211D01*
X148973161Y-126414799D01*
X148973119Y-126463393D01*
X148568256Y-126868256D01*
X148405243Y-127112222D01*
X148348000Y-127400000D01*
X148348000Y-128635277D01*
X147870000Y-128540197D01*
X147299572Y-128653662D01*
X146815987Y-128976784D01*
X146600000Y-129300031D01*
X146384013Y-128976784D01*
X145900428Y-128653662D01*
X145330000Y-128540197D01*
X144759572Y-128653662D01*
X144275987Y-128976784D01*
X144055823Y-129306281D01*
X143832687Y-128983576D01*
X143385463Y-128684782D01*
X143163000Y-128773117D01*
X143163000Y-129687000D01*
X143183000Y-129687000D01*
X143183000Y-130433000D01*
X143163000Y-130433000D01*
X143163000Y-130453000D01*
X142417000Y-130453000D01*
X142417000Y-130433000D01*
X140623000Y-130433000D01*
X140623000Y-130453000D01*
X139877000Y-130453000D01*
X139877000Y-130433000D01*
X138083000Y-130433000D01*
X138083000Y-130453000D01*
X137337000Y-130453000D01*
X137337000Y-130433000D01*
X137317000Y-130433000D01*
X137317000Y-129687000D01*
X137337000Y-129687000D01*
X137337000Y-128773117D01*
X138083000Y-128773117D01*
X138083000Y-129687000D01*
X139877000Y-129687000D01*
X139877000Y-128773117D01*
X140623000Y-128773117D01*
X140623000Y-129687000D01*
X142417000Y-129687000D01*
X142417000Y-128773117D01*
X142194537Y-128684782D01*
X141747313Y-128983576D01*
X141520000Y-129312322D01*
X141292687Y-128983576D01*
X140845463Y-128684782D01*
X140623000Y-128773117D01*
X139877000Y-128773117D01*
X139654537Y-128684782D01*
X139207313Y-128983576D01*
X138980000Y-129312322D01*
X138752687Y-128983576D01*
X138305463Y-128684782D01*
X138083000Y-128773117D01*
X137337000Y-128773117D01*
X137114537Y-128684782D01*
X136667313Y-128983576D01*
X136377000Y-129403434D01*
X136377000Y-119893000D01*
X137015370Y-119893000D01*
X137015370Y-120793430D01*
X137271122Y-121333180D01*
X137713959Y-121733972D01*
X137906794Y-121781398D01*
X138127000Y-121692762D01*
X138127000Y-119893000D01*
X137015370Y-119893000D01*
X136377000Y-119893000D01*
X136377000Y-118246570D01*
X137015370Y-118246570D01*
X137015370Y-119147000D01*
X138127000Y-119147000D01*
X138127000Y-117347238D01*
X138873000Y-117347238D01*
X138873000Y-119147000D01*
X138893000Y-119147000D01*
X138893000Y-119893000D01*
X138873000Y-119893000D01*
X138873000Y-121692762D01*
X139093206Y-121781398D01*
X139286041Y-121733972D01*
X139728878Y-121333180D01*
X139790319Y-121203513D01*
X139995865Y-121511134D01*
X140474918Y-121831227D01*
X141040000Y-121943629D01*
X141605082Y-121831227D01*
X142084135Y-121511134D01*
X142310000Y-121173103D01*
X142535865Y-121511134D01*
X143014918Y-121831227D01*
X143580000Y-121943629D01*
X144145082Y-121831227D01*
X144624135Y-121511134D01*
X144944228Y-121032081D01*
X145056630Y-120466999D01*
X145056630Y-118573001D01*
X144944228Y-118007919D01*
X144624135Y-117528866D01*
X144145082Y-117208773D01*
X143580000Y-117096371D01*
X143014918Y-117208773D01*
X142535865Y-117528866D01*
X142417000Y-117706760D01*
X142417000Y-117030372D01*
X144229560Y-115217812D01*
X151317000Y-115217812D01*
X151317000Y-115282188D01*
X151442066Y-115910937D01*
X151798224Y-116443964D01*
X152331251Y-116800122D01*
X152960000Y-116925188D01*
X153588749Y-116800122D01*
X153924889Y-116575520D01*
X153945673Y-116625698D01*
X154124301Y-116804327D01*
X154357690Y-116901000D01*
X154968250Y-116901000D01*
X155127000Y-116742250D01*
X155127000Y-115623000D01*
X155107000Y-115623000D01*
X155107000Y-114877000D01*
X155127000Y-114877000D01*
X155127000Y-113757750D01*
X154968250Y-113599000D01*
X154357690Y-113599000D01*
X154124301Y-113695673D01*
X153945673Y-113874302D01*
X153924889Y-113924480D01*
X153588749Y-113699878D01*
X152960000Y-113574812D01*
X152331251Y-113699878D01*
X151798224Y-114056036D01*
X151442066Y-114589063D01*
X151317000Y-115217812D01*
X144229560Y-115217812D01*
X144473686Y-114973686D01*
X144772182Y-114526955D01*
X144877000Y-114000000D01*
X144877000Y-111827567D01*
X145090316Y-111614624D01*
X145376674Y-110924996D01*
X145377325Y-110178280D01*
X145092171Y-109488154D01*
X144564624Y-108959684D01*
X143874996Y-108673326D01*
X143128280Y-108672675D01*
X142438154Y-108957829D01*
X141909684Y-109485376D01*
X141623326Y-110175004D01*
X141622675Y-110921720D01*
X141907829Y-111611846D01*
X142123000Y-111827393D01*
X142123000Y-113429628D01*
X140066314Y-115486314D01*
X139767818Y-115933045D01*
X139663000Y-116460000D01*
X139663000Y-117647197D01*
X139286041Y-117306028D01*
X139093206Y-117258602D01*
X138873000Y-117347238D01*
X138127000Y-117347238D01*
X137906794Y-117258602D01*
X137713959Y-117306028D01*
X137271122Y-117706820D01*
X137015370Y-118246570D01*
X136377000Y-118246570D01*
X136377000Y-112820372D01*
X137246381Y-111950991D01*
X137435376Y-112140316D01*
X138125004Y-112426674D01*
X138871720Y-112427325D01*
X139561846Y-112142171D01*
X140090316Y-111614624D01*
X140376674Y-110924996D01*
X140377325Y-110178280D01*
X140092171Y-109488154D01*
X139564624Y-108959684D01*
X138874996Y-108673326D01*
X138128280Y-108672675D01*
X137643456Y-108873000D01*
X137000000Y-108873000D01*
X136473045Y-108977818D01*
X136026314Y-109276314D01*
X134026314Y-111276314D01*
X133727818Y-111723045D01*
X133623000Y-112250000D01*
X133623000Y-131250000D01*
X133727818Y-131776955D01*
X134026314Y-132223686D01*
X135376314Y-133573686D01*
X135823045Y-133872182D01*
X136304754Y-133968000D01*
X133522000Y-133968000D01*
X133522000Y-108375000D01*
X151246645Y-108375000D01*
X151370454Y-108997431D01*
X151723033Y-109525102D01*
X152250704Y-109877681D01*
X152873135Y-110001490D01*
X152936865Y-110001490D01*
X153559296Y-109877681D01*
X153878323Y-109664514D01*
X153907183Y-109734189D01*
X154085812Y-109912817D01*
X154319201Y-110009490D01*
X154913250Y-110009490D01*
X155072000Y-109850740D01*
X155072000Y-108748000D01*
X155052000Y-108748000D01*
X155052000Y-108002000D01*
X155072000Y-108002000D01*
X155072000Y-106899260D01*
X154913250Y-106740510D01*
X154319201Y-106740510D01*
X154085812Y-106837183D01*
X153907183Y-107015811D01*
X153878323Y-107085486D01*
X153559296Y-106872319D01*
X152936865Y-106748510D01*
X152873135Y-106748510D01*
X152250704Y-106872319D01*
X151723033Y-107224898D01*
X151370454Y-107752569D01*
X151246645Y-108375000D01*
X133522000Y-108375000D01*
X133522000Y-105692000D01*
X156748000Y-105692000D01*
X156748000Y-106813909D01*
M02*
