G04 #@! TF.FileFunction,Soldermask,Bot*
%FSLAX46Y46*%
G04 Gerber Fmt 4.6, Leading zero omitted, Abs format (unit mm)*
G04 Created by KiCad (PCBNEW 4.0.2-stable) date 16.05.2016 20:42:00*
%MOMM*%
G01*
G04 APERTURE LIST*
%ADD10C,0.100000*%
%ADD11C,0.500000*%
%ADD12R,2.032000X2.032000*%
%ADD13O,2.032000X2.032000*%
%ADD14C,2.500000*%
%ADD15O,1.699260X3.500120*%
%ADD16R,3.450000X1.020000*%
%ADD17R,1.020000X3.450000*%
%ADD18O,1.998980X1.998980*%
%ADD19R,1.998980X1.998980*%
G04 APERTURE END LIST*
D10*
D11*
X157200000Y-124720000D03*
X157200000Y-131200000D03*
X157200000Y-123640000D03*
X157200000Y-122560000D03*
X157200000Y-121480000D03*
X157200000Y-120400000D03*
X157200000Y-119320000D03*
X157200000Y-118240000D03*
X157200000Y-117160000D03*
X157200000Y-116080000D03*
X157200000Y-115000000D03*
X157200000Y-113920000D03*
X157200000Y-112840000D03*
X157200000Y-111760000D03*
X157200000Y-110680000D03*
X157200000Y-109600000D03*
X157200000Y-108520000D03*
X157200000Y-104200000D03*
X157200000Y-103120000D03*
X141800000Y-131200000D03*
X141800000Y-130120000D03*
X141800000Y-129040000D03*
X141800000Y-127960000D03*
X141800000Y-126880000D03*
X141800000Y-125800000D03*
X141800000Y-124720000D03*
X141800000Y-123640000D03*
X141800000Y-122560000D03*
X141800000Y-121480000D03*
X141800000Y-120400000D03*
X141800000Y-119320000D03*
X141800000Y-99880000D03*
X157200000Y-98800000D03*
X156100000Y-98800000D03*
X155000000Y-98800000D03*
X153900000Y-98800000D03*
X152800000Y-98800000D03*
X151700000Y-98800000D03*
X150600000Y-98800000D03*
X149500000Y-98800000D03*
X148400000Y-98800000D03*
X147300000Y-98800000D03*
X146200000Y-98800000D03*
X145100000Y-98800000D03*
X144000000Y-98800000D03*
X142900000Y-98800000D03*
D12*
X153750000Y-106500000D03*
D13*
X156290000Y-106500000D03*
D14*
X149250000Y-102500000D03*
X144250000Y-102500000D03*
D15*
X150500000Y-110750000D03*
X153040000Y-110750000D03*
X147960000Y-110750000D03*
D11*
X141800000Y-98800000D03*
D16*
X147275000Y-129020000D03*
X152725000Y-129020000D03*
X147275000Y-126480000D03*
X152725000Y-126480000D03*
D17*
X152540000Y-121975000D03*
X152540000Y-116525000D03*
X150000000Y-121975000D03*
X150000000Y-116525000D03*
X144920000Y-116525000D03*
X144920000Y-121975000D03*
X147460000Y-116525000D03*
X147460000Y-121975000D03*
X155080000Y-121975000D03*
X155080000Y-116525000D03*
D18*
X156270000Y-101000000D03*
D19*
X153730000Y-101000000D03*
D17*
X142730000Y-106875000D03*
X142730000Y-112325000D03*
X145270000Y-106875000D03*
X145270000Y-112325000D03*
M02*
