M48
;DRILL file {KiCad 4.0.1-stable} date 07.03.2016 23:07:38
;FORMAT={-:-/ absolute / metric / decimal}
FMAT,2
METRIC,TZ
T1C0.400
T2C1.001
T3C1.016
T4C1.097
T5C1.300
T6C3.500
%
G90
G05
M71
T1
X136.5Y-107.
X137.5Y-114.
X137.5Y-115.5
X138.Y-107.
X139.Y-114.
X139.Y-115.5
X139.5Y-107.
X140.5Y-114.
X141.Y-107.
X142.5Y-107.
X144.Y-107.
X145.5Y-107.
X147.Y-107.
X147.Y-125.1
X148.5Y-107.
X149.9Y-123.3
X149.9Y-126.6
X150.Y-107.
X151.7Y-121.5
X151.7Y-128.8
X153.6Y-122.9
X153.7Y-125.5
X154.4Y-119.7
X154.5Y-111.
X156.Y-111.
X156.Y-112.5
T2
X138.5Y-119.52
X141.04Y-119.52
X143.58Y-119.52
T3
X137.71Y-130.06
X137.71Y-132.6
X140.25Y-130.06
X140.25Y-132.6
X142.79Y-130.06
X142.79Y-132.6
X145.33Y-130.06
X145.33Y-132.6
X147.87Y-130.06
X147.87Y-132.6
X150.41Y-130.06
X150.41Y-132.6
X152.95Y-130.06
X152.95Y-132.6
X152.96Y-115.25
X155.49Y-130.06
X155.49Y-132.6
X155.5Y-115.25
T4
X152.905Y-108.375
X155.445Y-108.375
T5
X138.5Y-110.55
X143.5Y-110.55
T6
X149.Y-119.
T0
M30
