G04 #@! TF.FileFunction,Copper,L1,Top,Signal*
%FSLAX46Y46*%
G04 Gerber Fmt 4.6, Leading zero omitted, Abs format (unit mm)*
G04 Created by KiCad (PCBNEW 4.0.1-stable) date 07.03.2016 23:04:45*
%MOMM*%
G01*
G04 APERTURE LIST*
%ADD10C,0.100000*%
%ADD11C,0.600000*%
%ADD12R,1.500000X1.250000*%
%ADD13R,2.000000X1.000000*%
%ADD14R,1.350000X0.700000*%
%ADD15R,1.500000X1.000000*%
%ADD16R,1.500000X1.600000*%
%ADD17C,2.400000*%
%ADD18R,1.597660X1.800860*%
%ADD19R,1.727200X1.727200*%
%ADD20O,1.727200X1.727200*%
%ADD21R,1.500000X1.300000*%
%ADD22C,0.250000*%
%ADD23C,0.254000*%
G04 APERTURE END LIST*
D10*
D11*
X149350000Y-94750000D03*
X142900000Y-95100000D03*
X145500000Y-95600000D03*
X152250000Y-95750000D03*
X152250000Y-93750000D03*
X141500000Y-90000000D03*
X139500000Y-90000000D03*
X137500000Y-90000000D03*
X141500000Y-88000000D03*
X139500000Y-88000000D03*
X137500000Y-88000000D03*
X139000000Y-104500000D03*
X137000000Y-104500000D03*
X139400000Y-102500000D03*
X138000000Y-102500000D03*
X138400000Y-100500000D03*
D12*
X145250000Y-99400000D03*
X142750000Y-99400000D03*
D13*
X139725000Y-98200000D03*
D14*
X150100000Y-91300000D03*
X150100000Y-90200000D03*
X150100000Y-89100000D03*
X150100000Y-88000000D03*
X150100000Y-86900000D03*
X150100000Y-85800000D03*
X150100000Y-84700000D03*
X150100000Y-83600000D03*
X150100000Y-92400000D03*
D15*
X149275000Y-82175000D03*
D13*
X139725000Y-82200000D03*
D16*
X149175000Y-97050000D03*
D17*
X139325000Y-85300000D03*
X139325000Y-93300000D03*
D18*
X151019860Y-102200000D03*
X148180140Y-102200000D03*
D19*
X141850000Y-108100000D03*
D20*
X141850000Y-105560000D03*
X144390000Y-108100000D03*
X144390000Y-105560000D03*
X146930000Y-108100000D03*
X146930000Y-105560000D03*
X149470000Y-108100000D03*
X149470000Y-105560000D03*
X152010000Y-108100000D03*
X152010000Y-105560000D03*
D21*
X142650000Y-102400000D03*
X145350000Y-102400000D03*
X148050000Y-99400000D03*
X150750000Y-99400000D03*
D11*
X137000000Y-100500000D03*
X146400000Y-88700000D03*
X146800000Y-91300000D03*
X147900000Y-89200000D03*
X147200000Y-87100000D03*
X147800000Y-95000000D03*
D22*
X147100000Y-88000000D02*
X150100000Y-88000000D01*
X146400000Y-88700000D02*
X147100000Y-88000000D01*
X145250000Y-99400000D02*
X148050000Y-99400000D01*
X145350000Y-102400000D02*
X145350000Y-99500000D01*
X145350000Y-99500000D02*
X145250000Y-99400000D01*
X144340000Y-105660000D02*
X144340000Y-103410000D01*
X144340000Y-103410000D02*
X145350000Y-102400000D01*
X146930000Y-105560000D02*
X145690000Y-106800000D01*
X145690000Y-106800000D02*
X143500000Y-106800000D01*
X143500000Y-106800000D02*
X143100000Y-106400000D01*
X147900000Y-90200000D02*
X150100000Y-90200000D01*
X146800000Y-91300000D02*
X147900000Y-90200000D01*
X146880000Y-105660000D02*
X146840000Y-105660000D01*
X143100000Y-106400000D02*
X143100000Y-102850000D01*
X143100000Y-102850000D02*
X142650000Y-102400000D01*
X147900000Y-89200000D02*
X148000000Y-89100000D01*
X148000000Y-89100000D02*
X150100000Y-89100000D01*
X147400000Y-86900000D02*
X150100000Y-86900000D01*
X147200000Y-87100000D02*
X147400000Y-86900000D01*
X147800000Y-95000000D02*
X146600000Y-93800000D01*
X146600000Y-93800000D02*
X146300000Y-93500000D01*
X146300000Y-93500000D02*
X145300000Y-92500000D01*
X145300000Y-92500000D02*
X145300000Y-86900000D01*
X145300000Y-86900000D02*
X147500000Y-84700000D01*
X147500000Y-84700000D02*
X150100000Y-84700000D01*
X150750000Y-99400000D02*
X150750000Y-101930140D01*
X150750000Y-101930140D02*
X151019860Y-102200000D01*
D23*
G36*
X138090000Y-81791250D02*
X138248750Y-81950000D01*
X139352000Y-81950000D01*
X139352000Y-81807000D01*
X140098000Y-81807000D01*
X140098000Y-81950000D01*
X141201250Y-81950000D01*
X141360000Y-81791250D01*
X141360000Y-81732000D01*
X147890000Y-81732000D01*
X147890000Y-81766250D01*
X148048750Y-81925000D01*
X148902000Y-81925000D01*
X148902000Y-81782000D01*
X149648000Y-81782000D01*
X149648000Y-81925000D01*
X150501250Y-81925000D01*
X150660000Y-81766250D01*
X150660000Y-81732000D01*
X152868000Y-81732000D01*
X152868000Y-104345812D01*
X152580428Y-104153662D01*
X152010000Y-104040197D01*
X151439572Y-104153662D01*
X150955987Y-104476784D01*
X150740000Y-104800031D01*
X150524013Y-104476784D01*
X150040428Y-104153662D01*
X149470000Y-104040197D01*
X148899572Y-104153662D01*
X148415987Y-104476784D01*
X148200000Y-104800031D01*
X147984013Y-104476784D01*
X147500428Y-104153662D01*
X146930000Y-104040197D01*
X146359572Y-104153662D01*
X145875987Y-104476784D01*
X145660000Y-104800031D01*
X145444013Y-104476784D01*
X145092000Y-104241576D01*
X145092000Y-103721488D01*
X145124205Y-103689283D01*
X146100000Y-103689283D01*
X146332352Y-103645563D01*
X146545753Y-103508243D01*
X146688917Y-103298717D01*
X146739283Y-103050000D01*
X146739283Y-102731750D01*
X146746310Y-102731750D01*
X146746310Y-103226740D01*
X146842983Y-103460129D01*
X147021612Y-103638757D01*
X147255001Y-103735430D01*
X147648390Y-103735430D01*
X147807140Y-103576680D01*
X147807140Y-102573000D01*
X146905060Y-102573000D01*
X146746310Y-102731750D01*
X146739283Y-102731750D01*
X146739283Y-101750000D01*
X146695563Y-101517648D01*
X146558243Y-101304247D01*
X146348717Y-101161083D01*
X146102000Y-101111122D01*
X146102000Y-100645090D01*
X146232352Y-100620563D01*
X146445753Y-100483243D01*
X146588917Y-100273717D01*
X146613565Y-100152000D01*
X146679910Y-100152000D01*
X146704437Y-100282352D01*
X146841757Y-100495753D01*
X147051283Y-100638917D01*
X147229705Y-100675048D01*
X147021612Y-100761243D01*
X146842983Y-100939871D01*
X146746310Y-101173260D01*
X146746310Y-101668250D01*
X146905060Y-101827000D01*
X147807140Y-101827000D01*
X147807140Y-101807000D01*
X148553140Y-101807000D01*
X148553140Y-101827000D01*
X148573140Y-101827000D01*
X148573140Y-102573000D01*
X148553140Y-102573000D01*
X148553140Y-103576680D01*
X148711890Y-103735430D01*
X149105279Y-103735430D01*
X149338668Y-103638757D01*
X149517297Y-103460129D01*
X149608155Y-103240778D01*
X149625467Y-103332782D01*
X149762787Y-103546183D01*
X149972313Y-103689347D01*
X150221030Y-103739713D01*
X151818690Y-103739713D01*
X152051042Y-103695993D01*
X152264443Y-103558673D01*
X152407607Y-103349147D01*
X152457973Y-103100430D01*
X152457973Y-101299570D01*
X152414253Y-101067218D01*
X152276933Y-100853817D01*
X152067407Y-100710653D01*
X151818690Y-100660287D01*
X151654101Y-100660287D01*
X151732352Y-100645563D01*
X151945753Y-100508243D01*
X152088917Y-100298717D01*
X152139283Y-100050000D01*
X152139283Y-98750000D01*
X152095563Y-98517648D01*
X151958243Y-98304247D01*
X151748717Y-98161083D01*
X151500000Y-98110717D01*
X150504326Y-98110717D01*
X150560000Y-97976309D01*
X150560000Y-97581750D01*
X150401250Y-97423000D01*
X149548000Y-97423000D01*
X149548000Y-97443000D01*
X148802000Y-97443000D01*
X148802000Y-97423000D01*
X147948750Y-97423000D01*
X147790000Y-97581750D01*
X147790000Y-97976309D01*
X147845674Y-98110717D01*
X147300000Y-98110717D01*
X147067648Y-98154437D01*
X146854247Y-98291757D01*
X146711083Y-98501283D01*
X146681372Y-98648000D01*
X146615386Y-98648000D01*
X146595563Y-98542648D01*
X146458243Y-98329247D01*
X146248717Y-98186083D01*
X146000000Y-98135717D01*
X144500000Y-98135717D01*
X144267648Y-98179437D01*
X144054247Y-98316757D01*
X144007784Y-98384758D01*
X143859698Y-98236673D01*
X143626309Y-98140000D01*
X143281750Y-98140000D01*
X143123000Y-98298750D01*
X143123000Y-99087500D01*
X143143000Y-99087500D01*
X143143000Y-99712500D01*
X143123000Y-99712500D01*
X143123000Y-100501250D01*
X143281750Y-100660000D01*
X143626309Y-100660000D01*
X143859698Y-100563327D01*
X144006721Y-100416305D01*
X144041757Y-100470753D01*
X144251283Y-100613917D01*
X144500000Y-100664283D01*
X144598000Y-100664283D01*
X144598000Y-101111093D01*
X144367648Y-101154437D01*
X144154247Y-101291757D01*
X144011083Y-101501283D01*
X144001442Y-101548892D01*
X143995563Y-101517648D01*
X143858243Y-101304247D01*
X143648717Y-101161083D01*
X143400000Y-101110717D01*
X141900000Y-101110717D01*
X141667648Y-101154437D01*
X141454247Y-101291757D01*
X141311083Y-101501283D01*
X141260717Y-101750000D01*
X141260717Y-103050000D01*
X141304437Y-103282352D01*
X141441757Y-103495753D01*
X141651283Y-103638917D01*
X141900000Y-103689283D01*
X142348000Y-103689283D01*
X142348000Y-104139255D01*
X141850000Y-104040197D01*
X141279572Y-104153662D01*
X140795987Y-104476784D01*
X140472865Y-104960369D01*
X140359400Y-105530797D01*
X140359400Y-105589203D01*
X140472865Y-106159631D01*
X140787999Y-106631261D01*
X140626701Y-106698073D01*
X140448073Y-106876702D01*
X140351400Y-107110091D01*
X140351400Y-107568250D01*
X140510150Y-107727000D01*
X141477000Y-107727000D01*
X141477000Y-107707000D01*
X142223000Y-107707000D01*
X142223000Y-107727000D01*
X142243000Y-107727000D01*
X142243000Y-108473000D01*
X142223000Y-108473000D01*
X142223000Y-108493000D01*
X141477000Y-108493000D01*
X141477000Y-108473000D01*
X140510150Y-108473000D01*
X140351400Y-108631750D01*
X140351400Y-109089909D01*
X140383746Y-109168000D01*
X135432000Y-109168000D01*
X135432000Y-99871250D01*
X141365000Y-99871250D01*
X141365000Y-100151310D01*
X141461673Y-100384699D01*
X141640302Y-100563327D01*
X141873691Y-100660000D01*
X142218250Y-100660000D01*
X142377000Y-100501250D01*
X142377000Y-99712500D01*
X141523750Y-99712500D01*
X141365000Y-99871250D01*
X135432000Y-99871250D01*
X135432000Y-98608750D01*
X138090000Y-98608750D01*
X138090000Y-98826309D01*
X138186673Y-99059698D01*
X138365301Y-99238327D01*
X138598690Y-99335000D01*
X139193250Y-99335000D01*
X139352000Y-99176250D01*
X139352000Y-98450000D01*
X140098000Y-98450000D01*
X140098000Y-99176250D01*
X140256750Y-99335000D01*
X140851310Y-99335000D01*
X141084699Y-99238327D01*
X141263327Y-99059698D01*
X141360000Y-98826309D01*
X141360000Y-98648690D01*
X141365000Y-98648690D01*
X141365000Y-98928750D01*
X141523750Y-99087500D01*
X142377000Y-99087500D01*
X142377000Y-98298750D01*
X142218250Y-98140000D01*
X141873691Y-98140000D01*
X141640302Y-98236673D01*
X141461673Y-98415301D01*
X141365000Y-98648690D01*
X141360000Y-98648690D01*
X141360000Y-98608750D01*
X141201250Y-98450000D01*
X140098000Y-98450000D01*
X139352000Y-98450000D01*
X138248750Y-98450000D01*
X138090000Y-98608750D01*
X135432000Y-98608750D01*
X135432000Y-97573691D01*
X138090000Y-97573691D01*
X138090000Y-97791250D01*
X138248750Y-97950000D01*
X139352000Y-97950000D01*
X139352000Y-97223750D01*
X140098000Y-97223750D01*
X140098000Y-97950000D01*
X141201250Y-97950000D01*
X141360000Y-97791250D01*
X141360000Y-97573691D01*
X141263327Y-97340302D01*
X141084699Y-97161673D01*
X140851310Y-97065000D01*
X140256750Y-97065000D01*
X140098000Y-97223750D01*
X139352000Y-97223750D01*
X139193250Y-97065000D01*
X138598690Y-97065000D01*
X138365301Y-97161673D01*
X138186673Y-97340302D01*
X138090000Y-97573691D01*
X135432000Y-97573691D01*
X135432000Y-93661818D01*
X137497684Y-93661818D01*
X137775242Y-94333560D01*
X138288736Y-94847952D01*
X138959993Y-95126682D01*
X139686818Y-95127316D01*
X140358560Y-94849758D01*
X140872952Y-94336264D01*
X141151682Y-93665007D01*
X141152316Y-92938182D01*
X140874758Y-92266440D01*
X140361264Y-91752048D01*
X139690007Y-91473318D01*
X138963182Y-91472684D01*
X138291440Y-91750242D01*
X137777048Y-92263736D01*
X137498318Y-92934993D01*
X137497684Y-93661818D01*
X135432000Y-93661818D01*
X135432000Y-85661818D01*
X137497684Y-85661818D01*
X137775242Y-86333560D01*
X138288736Y-86847952D01*
X138959993Y-87126682D01*
X139686818Y-87127316D01*
X140236965Y-86900000D01*
X144548000Y-86900000D01*
X144548000Y-92500000D01*
X144605243Y-92787778D01*
X144768256Y-93031744D01*
X145768256Y-94031745D01*
X145768259Y-94031747D01*
X146872880Y-95136368D01*
X146872839Y-95183583D01*
X147013669Y-95524417D01*
X147274211Y-95785414D01*
X147614799Y-95926839D01*
X147871446Y-95927063D01*
X147790000Y-96123691D01*
X147790000Y-96518250D01*
X147948750Y-96677000D01*
X148802000Y-96677000D01*
X148802000Y-95773750D01*
X149548000Y-95773750D01*
X149548000Y-96677000D01*
X150401250Y-96677000D01*
X150560000Y-96518250D01*
X150560000Y-96123691D01*
X150463327Y-95890302D01*
X150284699Y-95711673D01*
X150051310Y-95615000D01*
X149706750Y-95615000D01*
X149548000Y-95773750D01*
X148802000Y-95773750D01*
X148643250Y-95615000D01*
X148496047Y-95615000D01*
X148585414Y-95525789D01*
X148726839Y-95185201D01*
X148727161Y-94816417D01*
X148586331Y-94475583D01*
X148325789Y-94214586D01*
X147985201Y-94073161D01*
X147936607Y-94073119D01*
X146831747Y-92968259D01*
X146831745Y-92968256D01*
X146052000Y-92188512D01*
X146052000Y-91862815D01*
X146274211Y-92085414D01*
X146614799Y-92226839D01*
X146983583Y-92227161D01*
X147324417Y-92086331D01*
X147585414Y-91825789D01*
X147726839Y-91485201D01*
X147726881Y-91436607D01*
X148211488Y-90952000D01*
X148785717Y-90952000D01*
X148785717Y-91650000D01*
X148824731Y-91857342D01*
X148785717Y-92050000D01*
X148785717Y-92750000D01*
X148829437Y-92982352D01*
X148966757Y-93195753D01*
X149176283Y-93338917D01*
X149425000Y-93389283D01*
X150775000Y-93389283D01*
X151007352Y-93345563D01*
X151220753Y-93208243D01*
X151363917Y-92998717D01*
X151414283Y-92750000D01*
X151414283Y-92050000D01*
X151375269Y-91842658D01*
X151414283Y-91650000D01*
X151414283Y-90950000D01*
X151375269Y-90742658D01*
X151414283Y-90550000D01*
X151414283Y-89850000D01*
X151375269Y-89642658D01*
X151414283Y-89450000D01*
X151414283Y-88750000D01*
X151375269Y-88542658D01*
X151414283Y-88350000D01*
X151414283Y-87650000D01*
X151375269Y-87442658D01*
X151414283Y-87250000D01*
X151414283Y-86550000D01*
X151377533Y-86354691D01*
X151410000Y-86276309D01*
X151410000Y-86133750D01*
X151251250Y-85975000D01*
X151044085Y-85975000D01*
X151023717Y-85961083D01*
X150775000Y-85910717D01*
X149425000Y-85910717D01*
X149192648Y-85954437D01*
X149160692Y-85975000D01*
X148948750Y-85975000D01*
X148790000Y-86133750D01*
X148790000Y-86148000D01*
X147400000Y-86148000D01*
X147273996Y-86173064D01*
X147090584Y-86172904D01*
X147811488Y-85452000D01*
X148790000Y-85452000D01*
X148790000Y-85466250D01*
X148948750Y-85625000D01*
X149155915Y-85625000D01*
X149176283Y-85638917D01*
X149425000Y-85689283D01*
X150775000Y-85689283D01*
X151007352Y-85645563D01*
X151039308Y-85625000D01*
X151251250Y-85625000D01*
X151410000Y-85466250D01*
X151410000Y-85323691D01*
X151375652Y-85240768D01*
X151414283Y-85050000D01*
X151414283Y-84350000D01*
X151375269Y-84142658D01*
X151414283Y-83950000D01*
X151414283Y-83250000D01*
X151370563Y-83017648D01*
X151233243Y-82804247D01*
X151023717Y-82661083D01*
X150775000Y-82610717D01*
X150660000Y-82610717D01*
X150660000Y-82583750D01*
X150501250Y-82425000D01*
X149648000Y-82425000D01*
X149648000Y-82568000D01*
X148902000Y-82568000D01*
X148902000Y-82425000D01*
X148048750Y-82425000D01*
X147890000Y-82583750D01*
X147890000Y-82801309D01*
X147986673Y-83034698D01*
X148165301Y-83213327D01*
X148398690Y-83310000D01*
X148743250Y-83310000D01*
X148785717Y-83267533D01*
X148785717Y-83948000D01*
X147500000Y-83948000D01*
X147212222Y-84005243D01*
X147043996Y-84117648D01*
X146968256Y-84168256D01*
X144768256Y-86368256D01*
X144605243Y-86612222D01*
X144548000Y-86900000D01*
X140236965Y-86900000D01*
X140358560Y-86849758D01*
X140872952Y-86336264D01*
X141151682Y-85665007D01*
X141152316Y-84938182D01*
X140874758Y-84266440D01*
X140361264Y-83752048D01*
X139690007Y-83473318D01*
X138963182Y-83472684D01*
X138291440Y-83750242D01*
X137777048Y-84263736D01*
X137498318Y-84934993D01*
X137497684Y-85661818D01*
X135432000Y-85661818D01*
X135432000Y-82608750D01*
X138090000Y-82608750D01*
X138090000Y-82826309D01*
X138186673Y-83059698D01*
X138365301Y-83238327D01*
X138598690Y-83335000D01*
X139193250Y-83335000D01*
X139352000Y-83176250D01*
X139352000Y-82450000D01*
X140098000Y-82450000D01*
X140098000Y-83176250D01*
X140256750Y-83335000D01*
X140851310Y-83335000D01*
X141084699Y-83238327D01*
X141263327Y-83059698D01*
X141360000Y-82826309D01*
X141360000Y-82608750D01*
X141201250Y-82450000D01*
X140098000Y-82450000D01*
X139352000Y-82450000D01*
X138248750Y-82450000D01*
X138090000Y-82608750D01*
X135432000Y-82608750D01*
X135432000Y-81732000D01*
X138090000Y-81732000D01*
X138090000Y-81791250D01*
X138090000Y-81791250D01*
G37*
X138090000Y-81791250D02*
X138248750Y-81950000D01*
X139352000Y-81950000D01*
X139352000Y-81807000D01*
X140098000Y-81807000D01*
X140098000Y-81950000D01*
X141201250Y-81950000D01*
X141360000Y-81791250D01*
X141360000Y-81732000D01*
X147890000Y-81732000D01*
X147890000Y-81766250D01*
X148048750Y-81925000D01*
X148902000Y-81925000D01*
X148902000Y-81782000D01*
X149648000Y-81782000D01*
X149648000Y-81925000D01*
X150501250Y-81925000D01*
X150660000Y-81766250D01*
X150660000Y-81732000D01*
X152868000Y-81732000D01*
X152868000Y-104345812D01*
X152580428Y-104153662D01*
X152010000Y-104040197D01*
X151439572Y-104153662D01*
X150955987Y-104476784D01*
X150740000Y-104800031D01*
X150524013Y-104476784D01*
X150040428Y-104153662D01*
X149470000Y-104040197D01*
X148899572Y-104153662D01*
X148415987Y-104476784D01*
X148200000Y-104800031D01*
X147984013Y-104476784D01*
X147500428Y-104153662D01*
X146930000Y-104040197D01*
X146359572Y-104153662D01*
X145875987Y-104476784D01*
X145660000Y-104800031D01*
X145444013Y-104476784D01*
X145092000Y-104241576D01*
X145092000Y-103721488D01*
X145124205Y-103689283D01*
X146100000Y-103689283D01*
X146332352Y-103645563D01*
X146545753Y-103508243D01*
X146688917Y-103298717D01*
X146739283Y-103050000D01*
X146739283Y-102731750D01*
X146746310Y-102731750D01*
X146746310Y-103226740D01*
X146842983Y-103460129D01*
X147021612Y-103638757D01*
X147255001Y-103735430D01*
X147648390Y-103735430D01*
X147807140Y-103576680D01*
X147807140Y-102573000D01*
X146905060Y-102573000D01*
X146746310Y-102731750D01*
X146739283Y-102731750D01*
X146739283Y-101750000D01*
X146695563Y-101517648D01*
X146558243Y-101304247D01*
X146348717Y-101161083D01*
X146102000Y-101111122D01*
X146102000Y-100645090D01*
X146232352Y-100620563D01*
X146445753Y-100483243D01*
X146588917Y-100273717D01*
X146613565Y-100152000D01*
X146679910Y-100152000D01*
X146704437Y-100282352D01*
X146841757Y-100495753D01*
X147051283Y-100638917D01*
X147229705Y-100675048D01*
X147021612Y-100761243D01*
X146842983Y-100939871D01*
X146746310Y-101173260D01*
X146746310Y-101668250D01*
X146905060Y-101827000D01*
X147807140Y-101827000D01*
X147807140Y-101807000D01*
X148553140Y-101807000D01*
X148553140Y-101827000D01*
X148573140Y-101827000D01*
X148573140Y-102573000D01*
X148553140Y-102573000D01*
X148553140Y-103576680D01*
X148711890Y-103735430D01*
X149105279Y-103735430D01*
X149338668Y-103638757D01*
X149517297Y-103460129D01*
X149608155Y-103240778D01*
X149625467Y-103332782D01*
X149762787Y-103546183D01*
X149972313Y-103689347D01*
X150221030Y-103739713D01*
X151818690Y-103739713D01*
X152051042Y-103695993D01*
X152264443Y-103558673D01*
X152407607Y-103349147D01*
X152457973Y-103100430D01*
X152457973Y-101299570D01*
X152414253Y-101067218D01*
X152276933Y-100853817D01*
X152067407Y-100710653D01*
X151818690Y-100660287D01*
X151654101Y-100660287D01*
X151732352Y-100645563D01*
X151945753Y-100508243D01*
X152088917Y-100298717D01*
X152139283Y-100050000D01*
X152139283Y-98750000D01*
X152095563Y-98517648D01*
X151958243Y-98304247D01*
X151748717Y-98161083D01*
X151500000Y-98110717D01*
X150504326Y-98110717D01*
X150560000Y-97976309D01*
X150560000Y-97581750D01*
X150401250Y-97423000D01*
X149548000Y-97423000D01*
X149548000Y-97443000D01*
X148802000Y-97443000D01*
X148802000Y-97423000D01*
X147948750Y-97423000D01*
X147790000Y-97581750D01*
X147790000Y-97976309D01*
X147845674Y-98110717D01*
X147300000Y-98110717D01*
X147067648Y-98154437D01*
X146854247Y-98291757D01*
X146711083Y-98501283D01*
X146681372Y-98648000D01*
X146615386Y-98648000D01*
X146595563Y-98542648D01*
X146458243Y-98329247D01*
X146248717Y-98186083D01*
X146000000Y-98135717D01*
X144500000Y-98135717D01*
X144267648Y-98179437D01*
X144054247Y-98316757D01*
X144007784Y-98384758D01*
X143859698Y-98236673D01*
X143626309Y-98140000D01*
X143281750Y-98140000D01*
X143123000Y-98298750D01*
X143123000Y-99087500D01*
X143143000Y-99087500D01*
X143143000Y-99712500D01*
X143123000Y-99712500D01*
X143123000Y-100501250D01*
X143281750Y-100660000D01*
X143626309Y-100660000D01*
X143859698Y-100563327D01*
X144006721Y-100416305D01*
X144041757Y-100470753D01*
X144251283Y-100613917D01*
X144500000Y-100664283D01*
X144598000Y-100664283D01*
X144598000Y-101111093D01*
X144367648Y-101154437D01*
X144154247Y-101291757D01*
X144011083Y-101501283D01*
X144001442Y-101548892D01*
X143995563Y-101517648D01*
X143858243Y-101304247D01*
X143648717Y-101161083D01*
X143400000Y-101110717D01*
X141900000Y-101110717D01*
X141667648Y-101154437D01*
X141454247Y-101291757D01*
X141311083Y-101501283D01*
X141260717Y-101750000D01*
X141260717Y-103050000D01*
X141304437Y-103282352D01*
X141441757Y-103495753D01*
X141651283Y-103638917D01*
X141900000Y-103689283D01*
X142348000Y-103689283D01*
X142348000Y-104139255D01*
X141850000Y-104040197D01*
X141279572Y-104153662D01*
X140795987Y-104476784D01*
X140472865Y-104960369D01*
X140359400Y-105530797D01*
X140359400Y-105589203D01*
X140472865Y-106159631D01*
X140787999Y-106631261D01*
X140626701Y-106698073D01*
X140448073Y-106876702D01*
X140351400Y-107110091D01*
X140351400Y-107568250D01*
X140510150Y-107727000D01*
X141477000Y-107727000D01*
X141477000Y-107707000D01*
X142223000Y-107707000D01*
X142223000Y-107727000D01*
X142243000Y-107727000D01*
X142243000Y-108473000D01*
X142223000Y-108473000D01*
X142223000Y-108493000D01*
X141477000Y-108493000D01*
X141477000Y-108473000D01*
X140510150Y-108473000D01*
X140351400Y-108631750D01*
X140351400Y-109089909D01*
X140383746Y-109168000D01*
X135432000Y-109168000D01*
X135432000Y-99871250D01*
X141365000Y-99871250D01*
X141365000Y-100151310D01*
X141461673Y-100384699D01*
X141640302Y-100563327D01*
X141873691Y-100660000D01*
X142218250Y-100660000D01*
X142377000Y-100501250D01*
X142377000Y-99712500D01*
X141523750Y-99712500D01*
X141365000Y-99871250D01*
X135432000Y-99871250D01*
X135432000Y-98608750D01*
X138090000Y-98608750D01*
X138090000Y-98826309D01*
X138186673Y-99059698D01*
X138365301Y-99238327D01*
X138598690Y-99335000D01*
X139193250Y-99335000D01*
X139352000Y-99176250D01*
X139352000Y-98450000D01*
X140098000Y-98450000D01*
X140098000Y-99176250D01*
X140256750Y-99335000D01*
X140851310Y-99335000D01*
X141084699Y-99238327D01*
X141263327Y-99059698D01*
X141360000Y-98826309D01*
X141360000Y-98648690D01*
X141365000Y-98648690D01*
X141365000Y-98928750D01*
X141523750Y-99087500D01*
X142377000Y-99087500D01*
X142377000Y-98298750D01*
X142218250Y-98140000D01*
X141873691Y-98140000D01*
X141640302Y-98236673D01*
X141461673Y-98415301D01*
X141365000Y-98648690D01*
X141360000Y-98648690D01*
X141360000Y-98608750D01*
X141201250Y-98450000D01*
X140098000Y-98450000D01*
X139352000Y-98450000D01*
X138248750Y-98450000D01*
X138090000Y-98608750D01*
X135432000Y-98608750D01*
X135432000Y-97573691D01*
X138090000Y-97573691D01*
X138090000Y-97791250D01*
X138248750Y-97950000D01*
X139352000Y-97950000D01*
X139352000Y-97223750D01*
X140098000Y-97223750D01*
X140098000Y-97950000D01*
X141201250Y-97950000D01*
X141360000Y-97791250D01*
X141360000Y-97573691D01*
X141263327Y-97340302D01*
X141084699Y-97161673D01*
X140851310Y-97065000D01*
X140256750Y-97065000D01*
X140098000Y-97223750D01*
X139352000Y-97223750D01*
X139193250Y-97065000D01*
X138598690Y-97065000D01*
X138365301Y-97161673D01*
X138186673Y-97340302D01*
X138090000Y-97573691D01*
X135432000Y-97573691D01*
X135432000Y-93661818D01*
X137497684Y-93661818D01*
X137775242Y-94333560D01*
X138288736Y-94847952D01*
X138959993Y-95126682D01*
X139686818Y-95127316D01*
X140358560Y-94849758D01*
X140872952Y-94336264D01*
X141151682Y-93665007D01*
X141152316Y-92938182D01*
X140874758Y-92266440D01*
X140361264Y-91752048D01*
X139690007Y-91473318D01*
X138963182Y-91472684D01*
X138291440Y-91750242D01*
X137777048Y-92263736D01*
X137498318Y-92934993D01*
X137497684Y-93661818D01*
X135432000Y-93661818D01*
X135432000Y-85661818D01*
X137497684Y-85661818D01*
X137775242Y-86333560D01*
X138288736Y-86847952D01*
X138959993Y-87126682D01*
X139686818Y-87127316D01*
X140236965Y-86900000D01*
X144548000Y-86900000D01*
X144548000Y-92500000D01*
X144605243Y-92787778D01*
X144768256Y-93031744D01*
X145768256Y-94031745D01*
X145768259Y-94031747D01*
X146872880Y-95136368D01*
X146872839Y-95183583D01*
X147013669Y-95524417D01*
X147274211Y-95785414D01*
X147614799Y-95926839D01*
X147871446Y-95927063D01*
X147790000Y-96123691D01*
X147790000Y-96518250D01*
X147948750Y-96677000D01*
X148802000Y-96677000D01*
X148802000Y-95773750D01*
X149548000Y-95773750D01*
X149548000Y-96677000D01*
X150401250Y-96677000D01*
X150560000Y-96518250D01*
X150560000Y-96123691D01*
X150463327Y-95890302D01*
X150284699Y-95711673D01*
X150051310Y-95615000D01*
X149706750Y-95615000D01*
X149548000Y-95773750D01*
X148802000Y-95773750D01*
X148643250Y-95615000D01*
X148496047Y-95615000D01*
X148585414Y-95525789D01*
X148726839Y-95185201D01*
X148727161Y-94816417D01*
X148586331Y-94475583D01*
X148325789Y-94214586D01*
X147985201Y-94073161D01*
X147936607Y-94073119D01*
X146831747Y-92968259D01*
X146831745Y-92968256D01*
X146052000Y-92188512D01*
X146052000Y-91862815D01*
X146274211Y-92085414D01*
X146614799Y-92226839D01*
X146983583Y-92227161D01*
X147324417Y-92086331D01*
X147585414Y-91825789D01*
X147726839Y-91485201D01*
X147726881Y-91436607D01*
X148211488Y-90952000D01*
X148785717Y-90952000D01*
X148785717Y-91650000D01*
X148824731Y-91857342D01*
X148785717Y-92050000D01*
X148785717Y-92750000D01*
X148829437Y-92982352D01*
X148966757Y-93195753D01*
X149176283Y-93338917D01*
X149425000Y-93389283D01*
X150775000Y-93389283D01*
X151007352Y-93345563D01*
X151220753Y-93208243D01*
X151363917Y-92998717D01*
X151414283Y-92750000D01*
X151414283Y-92050000D01*
X151375269Y-91842658D01*
X151414283Y-91650000D01*
X151414283Y-90950000D01*
X151375269Y-90742658D01*
X151414283Y-90550000D01*
X151414283Y-89850000D01*
X151375269Y-89642658D01*
X151414283Y-89450000D01*
X151414283Y-88750000D01*
X151375269Y-88542658D01*
X151414283Y-88350000D01*
X151414283Y-87650000D01*
X151375269Y-87442658D01*
X151414283Y-87250000D01*
X151414283Y-86550000D01*
X151377533Y-86354691D01*
X151410000Y-86276309D01*
X151410000Y-86133750D01*
X151251250Y-85975000D01*
X151044085Y-85975000D01*
X151023717Y-85961083D01*
X150775000Y-85910717D01*
X149425000Y-85910717D01*
X149192648Y-85954437D01*
X149160692Y-85975000D01*
X148948750Y-85975000D01*
X148790000Y-86133750D01*
X148790000Y-86148000D01*
X147400000Y-86148000D01*
X147273996Y-86173064D01*
X147090584Y-86172904D01*
X147811488Y-85452000D01*
X148790000Y-85452000D01*
X148790000Y-85466250D01*
X148948750Y-85625000D01*
X149155915Y-85625000D01*
X149176283Y-85638917D01*
X149425000Y-85689283D01*
X150775000Y-85689283D01*
X151007352Y-85645563D01*
X151039308Y-85625000D01*
X151251250Y-85625000D01*
X151410000Y-85466250D01*
X151410000Y-85323691D01*
X151375652Y-85240768D01*
X151414283Y-85050000D01*
X151414283Y-84350000D01*
X151375269Y-84142658D01*
X151414283Y-83950000D01*
X151414283Y-83250000D01*
X151370563Y-83017648D01*
X151233243Y-82804247D01*
X151023717Y-82661083D01*
X150775000Y-82610717D01*
X150660000Y-82610717D01*
X150660000Y-82583750D01*
X150501250Y-82425000D01*
X149648000Y-82425000D01*
X149648000Y-82568000D01*
X148902000Y-82568000D01*
X148902000Y-82425000D01*
X148048750Y-82425000D01*
X147890000Y-82583750D01*
X147890000Y-82801309D01*
X147986673Y-83034698D01*
X148165301Y-83213327D01*
X148398690Y-83310000D01*
X148743250Y-83310000D01*
X148785717Y-83267533D01*
X148785717Y-83948000D01*
X147500000Y-83948000D01*
X147212222Y-84005243D01*
X147043996Y-84117648D01*
X146968256Y-84168256D01*
X144768256Y-86368256D01*
X144605243Y-86612222D01*
X144548000Y-86900000D01*
X140236965Y-86900000D01*
X140358560Y-86849758D01*
X140872952Y-86336264D01*
X141151682Y-85665007D01*
X141152316Y-84938182D01*
X140874758Y-84266440D01*
X140361264Y-83752048D01*
X139690007Y-83473318D01*
X138963182Y-83472684D01*
X138291440Y-83750242D01*
X137777048Y-84263736D01*
X137498318Y-84934993D01*
X137497684Y-85661818D01*
X135432000Y-85661818D01*
X135432000Y-82608750D01*
X138090000Y-82608750D01*
X138090000Y-82826309D01*
X138186673Y-83059698D01*
X138365301Y-83238327D01*
X138598690Y-83335000D01*
X139193250Y-83335000D01*
X139352000Y-83176250D01*
X139352000Y-82450000D01*
X140098000Y-82450000D01*
X140098000Y-83176250D01*
X140256750Y-83335000D01*
X140851310Y-83335000D01*
X141084699Y-83238327D01*
X141263327Y-83059698D01*
X141360000Y-82826309D01*
X141360000Y-82608750D01*
X141201250Y-82450000D01*
X140098000Y-82450000D01*
X139352000Y-82450000D01*
X138248750Y-82450000D01*
X138090000Y-82608750D01*
X135432000Y-82608750D01*
X135432000Y-81732000D01*
X138090000Y-81732000D01*
X138090000Y-81791250D01*
M02*
