G04 #@! TF.FileFunction,Copper,L2,Bot,Signal*
%FSLAX46Y46*%
G04 Gerber Fmt 4.6, Leading zero omitted, Abs format (unit mm)*
G04 Created by KiCad (PCBNEW 4.0.1-stable) date 07.03.2016 23:04:45*
%MOMM*%
G01*
G04 APERTURE LIST*
%ADD10C,0.100000*%
%ADD11C,0.600000*%
%ADD12C,2.400000*%
%ADD13R,1.727200X1.727200*%
%ADD14O,1.727200X1.727200*%
%ADD15C,0.250000*%
%ADD16C,0.254000*%
G04 APERTURE END LIST*
D10*
D11*
X149350000Y-94750000D03*
X142900000Y-95100000D03*
X145500000Y-95600000D03*
X152250000Y-95750000D03*
X152250000Y-93750000D03*
X141500000Y-90000000D03*
X139500000Y-90000000D03*
X137500000Y-90000000D03*
X141500000Y-88000000D03*
X139500000Y-88000000D03*
X137500000Y-88000000D03*
X139000000Y-104500000D03*
X137000000Y-104500000D03*
X139400000Y-102500000D03*
X138000000Y-102500000D03*
X138400000Y-100500000D03*
D12*
X139325000Y-85300000D03*
X139325000Y-93300000D03*
D13*
X141850000Y-108100000D03*
D14*
X141850000Y-105560000D03*
X144390000Y-108100000D03*
X144390000Y-105560000D03*
X146930000Y-108100000D03*
X146930000Y-105560000D03*
X149470000Y-108100000D03*
X149470000Y-105560000D03*
X152010000Y-108100000D03*
X152010000Y-105560000D03*
D11*
X137000000Y-100500000D03*
X146400000Y-88700000D03*
X146800000Y-91300000D03*
X147900000Y-89200000D03*
X147200000Y-87100000D03*
X147800000Y-95000000D03*
D15*
X144340000Y-105660000D02*
X144340000Y-90760000D01*
X144340000Y-90760000D02*
X146400000Y-88700000D01*
X146880000Y-105660000D02*
X146880000Y-91380000D01*
X146880000Y-91380000D02*
X146800000Y-91300000D01*
X150700000Y-94000000D02*
X150700000Y-92000000D01*
X150700000Y-92000000D02*
X147900000Y-89200000D01*
X150700000Y-94000000D02*
X150700000Y-96000000D01*
X149420000Y-108200000D02*
X149420000Y-108180000D01*
X149420000Y-108180000D02*
X150700000Y-106900000D01*
X150700000Y-106900000D02*
X150700000Y-96000000D01*
X143100000Y-106900000D02*
X143100000Y-104500000D01*
X143100000Y-104500000D02*
X141700000Y-103100000D01*
X141700000Y-103100000D02*
X141700000Y-98800000D01*
X141700000Y-98800000D02*
X141700000Y-92500000D01*
X141700000Y-92500000D02*
X141700000Y-91700000D01*
X141700000Y-91700000D02*
X143100000Y-90300000D01*
X144340000Y-108200000D02*
X144340000Y-108140000D01*
X144340000Y-108140000D02*
X143100000Y-106900000D01*
X146300000Y-87100000D02*
X147200000Y-87100000D01*
X143100000Y-90300000D02*
X146300000Y-87100000D01*
X144340000Y-108200000D02*
X144340000Y-107960000D01*
X148100000Y-95300000D02*
X148150000Y-95350000D01*
X148150000Y-95350000D02*
X148150000Y-106850000D01*
X148150000Y-106850000D02*
X148100000Y-106900000D01*
X146880000Y-108200000D02*
X146880000Y-108120000D01*
X146880000Y-108120000D02*
X148100000Y-106900000D01*
X148100000Y-95300000D02*
X147800000Y-95000000D01*
D16*
G36*
X152868000Y-104345812D02*
X152580428Y-104153662D01*
X152010000Y-104040197D01*
X151452000Y-104151190D01*
X151452000Y-92000000D01*
X151394757Y-91712222D01*
X151231744Y-91468256D01*
X148827120Y-89063632D01*
X148827161Y-89016417D01*
X148686331Y-88675583D01*
X148425789Y-88414586D01*
X148085201Y-88273161D01*
X147716417Y-88272839D01*
X147375583Y-88413669D01*
X147311244Y-88477896D01*
X147186331Y-88175583D01*
X147037866Y-88026859D01*
X147383583Y-88027161D01*
X147724417Y-87886331D01*
X147985414Y-87625789D01*
X148126839Y-87285201D01*
X148127161Y-86916417D01*
X147986331Y-86575583D01*
X147725789Y-86314586D01*
X147385201Y-86173161D01*
X147016417Y-86172839D01*
X146675583Y-86313669D01*
X146641192Y-86348000D01*
X146300000Y-86348000D01*
X146012222Y-86405243D01*
X145768255Y-86568256D01*
X142568256Y-89768256D01*
X141168256Y-91168256D01*
X141005243Y-91412222D01*
X140948000Y-91700000D01*
X140948000Y-92443699D01*
X140874758Y-92266440D01*
X140361264Y-91752048D01*
X139690007Y-91473318D01*
X138963182Y-91472684D01*
X138291440Y-91750242D01*
X137777048Y-92263736D01*
X137498318Y-92934993D01*
X137497684Y-93661818D01*
X137775242Y-94333560D01*
X138288736Y-94847952D01*
X138959993Y-95126682D01*
X139686818Y-95127316D01*
X140358560Y-94849758D01*
X140872952Y-94336264D01*
X140948000Y-94155528D01*
X140948000Y-103100000D01*
X141005243Y-103387778D01*
X141168256Y-103631744D01*
X141622051Y-104085539D01*
X141279572Y-104153662D01*
X140795987Y-104476784D01*
X140472865Y-104960369D01*
X140359400Y-105530797D01*
X140359400Y-105589203D01*
X140472865Y-106159631D01*
X140787999Y-106631261D01*
X140626701Y-106698073D01*
X140448073Y-106876702D01*
X140351400Y-107110091D01*
X140351400Y-107568250D01*
X140510150Y-107727000D01*
X141477000Y-107727000D01*
X141477000Y-107707000D01*
X142223000Y-107707000D01*
X142223000Y-107727000D01*
X142243000Y-107727000D01*
X142243000Y-108473000D01*
X142223000Y-108473000D01*
X142223000Y-108493000D01*
X141477000Y-108493000D01*
X141477000Y-108473000D01*
X140510150Y-108473000D01*
X140351400Y-108631750D01*
X140351400Y-109089909D01*
X140383746Y-109168000D01*
X135432000Y-109168000D01*
X135432000Y-85661818D01*
X137497684Y-85661818D01*
X137775242Y-86333560D01*
X138288736Y-86847952D01*
X138959993Y-87126682D01*
X139686818Y-87127316D01*
X140358560Y-86849758D01*
X140872952Y-86336264D01*
X141151682Y-85665007D01*
X141152316Y-84938182D01*
X140874758Y-84266440D01*
X140361264Y-83752048D01*
X139690007Y-83473318D01*
X138963182Y-83472684D01*
X138291440Y-83750242D01*
X137777048Y-84263736D01*
X137498318Y-84934993D01*
X137497684Y-85661818D01*
X135432000Y-85661818D01*
X135432000Y-81732000D01*
X152868000Y-81732000D01*
X152868000Y-104345812D01*
X152868000Y-104345812D01*
G37*
X152868000Y-104345812D02*
X152580428Y-104153662D01*
X152010000Y-104040197D01*
X151452000Y-104151190D01*
X151452000Y-92000000D01*
X151394757Y-91712222D01*
X151231744Y-91468256D01*
X148827120Y-89063632D01*
X148827161Y-89016417D01*
X148686331Y-88675583D01*
X148425789Y-88414586D01*
X148085201Y-88273161D01*
X147716417Y-88272839D01*
X147375583Y-88413669D01*
X147311244Y-88477896D01*
X147186331Y-88175583D01*
X147037866Y-88026859D01*
X147383583Y-88027161D01*
X147724417Y-87886331D01*
X147985414Y-87625789D01*
X148126839Y-87285201D01*
X148127161Y-86916417D01*
X147986331Y-86575583D01*
X147725789Y-86314586D01*
X147385201Y-86173161D01*
X147016417Y-86172839D01*
X146675583Y-86313669D01*
X146641192Y-86348000D01*
X146300000Y-86348000D01*
X146012222Y-86405243D01*
X145768255Y-86568256D01*
X142568256Y-89768256D01*
X141168256Y-91168256D01*
X141005243Y-91412222D01*
X140948000Y-91700000D01*
X140948000Y-92443699D01*
X140874758Y-92266440D01*
X140361264Y-91752048D01*
X139690007Y-91473318D01*
X138963182Y-91472684D01*
X138291440Y-91750242D01*
X137777048Y-92263736D01*
X137498318Y-92934993D01*
X137497684Y-93661818D01*
X137775242Y-94333560D01*
X138288736Y-94847952D01*
X138959993Y-95126682D01*
X139686818Y-95127316D01*
X140358560Y-94849758D01*
X140872952Y-94336264D01*
X140948000Y-94155528D01*
X140948000Y-103100000D01*
X141005243Y-103387778D01*
X141168256Y-103631744D01*
X141622051Y-104085539D01*
X141279572Y-104153662D01*
X140795987Y-104476784D01*
X140472865Y-104960369D01*
X140359400Y-105530797D01*
X140359400Y-105589203D01*
X140472865Y-106159631D01*
X140787999Y-106631261D01*
X140626701Y-106698073D01*
X140448073Y-106876702D01*
X140351400Y-107110091D01*
X140351400Y-107568250D01*
X140510150Y-107727000D01*
X141477000Y-107727000D01*
X141477000Y-107707000D01*
X142223000Y-107707000D01*
X142223000Y-107727000D01*
X142243000Y-107727000D01*
X142243000Y-108473000D01*
X142223000Y-108473000D01*
X142223000Y-108493000D01*
X141477000Y-108493000D01*
X141477000Y-108473000D01*
X140510150Y-108473000D01*
X140351400Y-108631750D01*
X140351400Y-109089909D01*
X140383746Y-109168000D01*
X135432000Y-109168000D01*
X135432000Y-85661818D01*
X137497684Y-85661818D01*
X137775242Y-86333560D01*
X138288736Y-86847952D01*
X138959993Y-87126682D01*
X139686818Y-87127316D01*
X140358560Y-86849758D01*
X140872952Y-86336264D01*
X141151682Y-85665007D01*
X141152316Y-84938182D01*
X140874758Y-84266440D01*
X140361264Y-83752048D01*
X139690007Y-83473318D01*
X138963182Y-83472684D01*
X138291440Y-83750242D01*
X137777048Y-84263736D01*
X137498318Y-84934993D01*
X137497684Y-85661818D01*
X135432000Y-85661818D01*
X135432000Y-81732000D01*
X152868000Y-81732000D01*
X152868000Y-104345812D01*
G36*
X147113669Y-89724417D02*
X147374211Y-89985414D01*
X147714799Y-90126839D01*
X147763393Y-90126881D01*
X149948000Y-92311488D01*
X149948000Y-104135277D01*
X149470000Y-104040197D01*
X148902000Y-104153179D01*
X148902000Y-95350000D01*
X148844757Y-95062222D01*
X148779464Y-94964503D01*
X148727100Y-94886135D01*
X148727161Y-94816417D01*
X148586331Y-94475583D01*
X148325789Y-94214586D01*
X147985201Y-94073161D01*
X147632000Y-94072853D01*
X147632000Y-91713598D01*
X147726839Y-91485201D01*
X147727161Y-91116417D01*
X147586331Y-90775583D01*
X147325789Y-90514586D01*
X146985201Y-90373161D01*
X146616417Y-90372839D01*
X146275583Y-90513669D01*
X146014586Y-90774211D01*
X145873161Y-91114799D01*
X145872839Y-91483583D01*
X146013669Y-91824417D01*
X146128000Y-91938948D01*
X146128000Y-104308394D01*
X145875987Y-104476784D01*
X145660000Y-104800031D01*
X145444013Y-104476784D01*
X145092000Y-104241576D01*
X145092000Y-91071488D01*
X146536368Y-89627120D01*
X146583583Y-89627161D01*
X146924417Y-89486331D01*
X146988756Y-89422104D01*
X147113669Y-89724417D01*
X147113669Y-89724417D01*
G37*
X147113669Y-89724417D02*
X147374211Y-89985414D01*
X147714799Y-90126839D01*
X147763393Y-90126881D01*
X149948000Y-92311488D01*
X149948000Y-104135277D01*
X149470000Y-104040197D01*
X148902000Y-104153179D01*
X148902000Y-95350000D01*
X148844757Y-95062222D01*
X148779464Y-94964503D01*
X148727100Y-94886135D01*
X148727161Y-94816417D01*
X148586331Y-94475583D01*
X148325789Y-94214586D01*
X147985201Y-94073161D01*
X147632000Y-94072853D01*
X147632000Y-91713598D01*
X147726839Y-91485201D01*
X147727161Y-91116417D01*
X147586331Y-90775583D01*
X147325789Y-90514586D01*
X146985201Y-90373161D01*
X146616417Y-90372839D01*
X146275583Y-90513669D01*
X146014586Y-90774211D01*
X145873161Y-91114799D01*
X145872839Y-91483583D01*
X146013669Y-91824417D01*
X146128000Y-91938948D01*
X146128000Y-104308394D01*
X145875987Y-104476784D01*
X145660000Y-104800031D01*
X145444013Y-104476784D01*
X145092000Y-104241576D01*
X145092000Y-91071488D01*
X146536368Y-89627120D01*
X146583583Y-89627161D01*
X146924417Y-89486331D01*
X146988756Y-89422104D01*
X147113669Y-89724417D01*
G36*
X143588000Y-103924512D02*
X142452000Y-102788512D01*
X142452000Y-92011488D01*
X143588000Y-90875488D01*
X143588000Y-103924512D01*
X143588000Y-103924512D01*
G37*
X143588000Y-103924512D02*
X142452000Y-102788512D01*
X142452000Y-92011488D01*
X143588000Y-90875488D01*
X143588000Y-103924512D01*
M02*
