G04 #@! TF.FileFunction,Legend,Bot*
%FSLAX46Y46*%
G04 Gerber Fmt 4.6, Leading zero omitted, Abs format (unit mm)*
G04 Created by KiCad (PCBNEW 4.0.1-stable) date 07.03.2016 23:04:45*
%MOMM*%
G01*
G04 APERTURE LIST*
%ADD10C,0.100000*%
%ADD11C,0.120000*%
%ADD12C,0.075000*%
%ADD13C,0.002540*%
%ADD14C,0.010000*%
G04 APERTURE END LIST*
D10*
D11*
X151495239Y-91421905D02*
X151761906Y-91040952D01*
X151952382Y-91421905D02*
X151952382Y-90621905D01*
X151647620Y-90621905D01*
X151571429Y-90660000D01*
X151533334Y-90698095D01*
X151495239Y-90774286D01*
X151495239Y-90888571D01*
X151533334Y-90964762D01*
X151571429Y-91002857D01*
X151647620Y-91040952D01*
X151952382Y-91040952D01*
X150847620Y-91383810D02*
X150923810Y-91421905D01*
X151076191Y-91421905D01*
X151152382Y-91383810D01*
X151190477Y-91307619D01*
X151190477Y-91002857D01*
X151152382Y-90926667D01*
X151076191Y-90888571D01*
X150923810Y-90888571D01*
X150847620Y-90926667D01*
X150809525Y-91002857D01*
X150809525Y-91079048D01*
X151190477Y-91155238D01*
X150504763Y-91383810D02*
X150390477Y-91421905D01*
X150200001Y-91421905D01*
X150123811Y-91383810D01*
X150085715Y-91345714D01*
X150047620Y-91269524D01*
X150047620Y-91193333D01*
X150085715Y-91117143D01*
X150123811Y-91079048D01*
X150200001Y-91040952D01*
X150352382Y-91002857D01*
X150428573Y-90964762D01*
X150466668Y-90926667D01*
X150504763Y-90850476D01*
X150504763Y-90774286D01*
X150466668Y-90698095D01*
X150428573Y-90660000D01*
X150352382Y-90621905D01*
X150161906Y-90621905D01*
X150047620Y-90660000D01*
X149819049Y-90621905D02*
X149361906Y-90621905D01*
X149590477Y-91421905D02*
X149590477Y-90621905D01*
X148523810Y-91383810D02*
X148409524Y-91421905D01*
X148219048Y-91421905D01*
X148142858Y-91383810D01*
X148104762Y-91345714D01*
X148066667Y-91269524D01*
X148066667Y-91193333D01*
X148104762Y-91117143D01*
X148142858Y-91079048D01*
X148219048Y-91040952D01*
X148371429Y-91002857D01*
X148447620Y-90964762D01*
X148485715Y-90926667D01*
X148523810Y-90850476D01*
X148523810Y-90774286D01*
X148485715Y-90698095D01*
X148447620Y-90660000D01*
X148371429Y-90621905D01*
X148180953Y-90621905D01*
X148066667Y-90660000D01*
X147723810Y-91421905D02*
X147723810Y-90621905D01*
X147533334Y-90621905D01*
X147419048Y-90660000D01*
X147342857Y-90736190D01*
X147304762Y-90812381D01*
X147266667Y-90964762D01*
X147266667Y-91079048D01*
X147304762Y-91231429D01*
X147342857Y-91307619D01*
X147419048Y-91383810D01*
X147533334Y-91421905D01*
X147723810Y-91421905D01*
X145857143Y-91345714D02*
X145895238Y-91383810D01*
X146009524Y-91421905D01*
X146085714Y-91421905D01*
X146200000Y-91383810D01*
X146276191Y-91307619D01*
X146314286Y-91231429D01*
X146352381Y-91079048D01*
X146352381Y-90964762D01*
X146314286Y-90812381D01*
X146276191Y-90736190D01*
X146200000Y-90660000D01*
X146085714Y-90621905D01*
X146009524Y-90621905D01*
X145895238Y-90660000D01*
X145857143Y-90698095D01*
X145171429Y-91421905D02*
X145171429Y-91002857D01*
X145209524Y-90926667D01*
X145285714Y-90888571D01*
X145438095Y-90888571D01*
X145514286Y-90926667D01*
X145171429Y-91383810D02*
X145247619Y-91421905D01*
X145438095Y-91421905D01*
X145514286Y-91383810D01*
X145552381Y-91307619D01*
X145552381Y-91231429D01*
X145514286Y-91155238D01*
X145438095Y-91117143D01*
X145247619Y-91117143D01*
X145171429Y-91079048D01*
X144790476Y-91421905D02*
X144790476Y-90888571D01*
X144790476Y-91040952D02*
X144752381Y-90964762D01*
X144714285Y-90926667D01*
X144638095Y-90888571D01*
X144561904Y-90888571D01*
X143952381Y-91421905D02*
X143952381Y-90621905D01*
X143952381Y-91383810D02*
X144028571Y-91421905D01*
X144180952Y-91421905D01*
X144257143Y-91383810D01*
X144295238Y-91345714D01*
X144333333Y-91269524D01*
X144333333Y-91040952D01*
X144295238Y-90964762D01*
X144257143Y-90926667D01*
X144180952Y-90888571D01*
X144028571Y-90888571D01*
X143952381Y-90926667D01*
X142999999Y-91193333D02*
X142619047Y-91193333D01*
X143076190Y-91421905D02*
X142809523Y-90621905D01*
X142542856Y-91421905D01*
X141933333Y-91421905D02*
X141933333Y-90621905D01*
X141933333Y-91383810D02*
X142009523Y-91421905D01*
X142161904Y-91421905D01*
X142238095Y-91383810D01*
X142276190Y-91345714D01*
X142314285Y-91269524D01*
X142314285Y-91040952D01*
X142276190Y-90964762D01*
X142238095Y-90926667D01*
X142161904Y-90888571D01*
X142009523Y-90888571D01*
X141933333Y-90926667D01*
X141209523Y-91421905D02*
X141209523Y-91002857D01*
X141247618Y-90926667D01*
X141323808Y-90888571D01*
X141476189Y-90888571D01*
X141552380Y-90926667D01*
X141209523Y-91383810D02*
X141285713Y-91421905D01*
X141476189Y-91421905D01*
X141552380Y-91383810D01*
X141590475Y-91307619D01*
X141590475Y-91231429D01*
X141552380Y-91155238D01*
X141476189Y-91117143D01*
X141285713Y-91117143D01*
X141209523Y-91079048D01*
X140828570Y-90888571D02*
X140828570Y-91688571D01*
X140828570Y-90926667D02*
X140752379Y-90888571D01*
X140599998Y-90888571D01*
X140523808Y-90926667D01*
X140485713Y-90964762D01*
X140447617Y-91040952D01*
X140447617Y-91269524D01*
X140485713Y-91345714D01*
X140523808Y-91383810D01*
X140599998Y-91421905D01*
X140752379Y-91421905D01*
X140828570Y-91383810D01*
X140219046Y-90888571D02*
X139914284Y-90888571D01*
X140104760Y-90621905D02*
X140104760Y-91307619D01*
X140066665Y-91383810D01*
X139990474Y-91421905D01*
X139914284Y-91421905D01*
X139342855Y-91383810D02*
X139419045Y-91421905D01*
X139571426Y-91421905D01*
X139647617Y-91383810D01*
X139685712Y-91307619D01*
X139685712Y-91002857D01*
X139647617Y-90926667D01*
X139571426Y-90888571D01*
X139419045Y-90888571D01*
X139342855Y-90926667D01*
X139304760Y-91002857D01*
X139304760Y-91079048D01*
X139685712Y-91155238D01*
X138961903Y-91421905D02*
X138961903Y-90888571D01*
X138961903Y-91040952D02*
X138923808Y-90964762D01*
X138885712Y-90926667D01*
X138809522Y-90888571D01*
X138733331Y-90888571D01*
X146638095Y-92661905D02*
X146904762Y-92280952D01*
X147095238Y-92661905D02*
X147095238Y-91861905D01*
X146790476Y-91861905D01*
X146714285Y-91900000D01*
X146676190Y-91938095D01*
X146638095Y-92014286D01*
X146638095Y-92128571D01*
X146676190Y-92204762D01*
X146714285Y-92242857D01*
X146790476Y-92280952D01*
X147095238Y-92280952D01*
X145990476Y-92623810D02*
X146066666Y-92661905D01*
X146219047Y-92661905D01*
X146295238Y-92623810D01*
X146333333Y-92547619D01*
X146333333Y-92242857D01*
X146295238Y-92166667D01*
X146219047Y-92128571D01*
X146066666Y-92128571D01*
X145990476Y-92166667D01*
X145952381Y-92242857D01*
X145952381Y-92319048D01*
X146333333Y-92395238D01*
X145685714Y-92128571D02*
X145495238Y-92661905D01*
X145304762Y-92128571D01*
X145000000Y-92585714D02*
X144961905Y-92623810D01*
X145000000Y-92661905D01*
X145038095Y-92623810D01*
X145000000Y-92585714D01*
X145000000Y-92661905D01*
X144047619Y-92433333D02*
X143666667Y-92433333D01*
X144123810Y-92661905D02*
X143857143Y-91861905D01*
X143590476Y-92661905D01*
X148847619Y-93520952D02*
X148885714Y-93482857D01*
X148961904Y-93444762D01*
X149038095Y-93444762D01*
X149114285Y-93482857D01*
X149152381Y-93520952D01*
X149190476Y-93597143D01*
X149190476Y-93673333D01*
X149152381Y-93749524D01*
X149114285Y-93787619D01*
X149038095Y-93825714D01*
X148961904Y-93825714D01*
X148885714Y-93787619D01*
X148847619Y-93749524D01*
X148847619Y-93444762D02*
X148847619Y-93749524D01*
X148809523Y-93787619D01*
X148771428Y-93787619D01*
X148695238Y-93749524D01*
X148657143Y-93673333D01*
X148657143Y-93482857D01*
X148733333Y-93368571D01*
X148847619Y-93292381D01*
X149000000Y-93254286D01*
X149152381Y-93292381D01*
X149266666Y-93368571D01*
X149342857Y-93482857D01*
X149380952Y-93635238D01*
X149342857Y-93787619D01*
X149266666Y-93901905D01*
X149152381Y-93978095D01*
X149000000Y-94016190D01*
X148847619Y-93978095D01*
X148733333Y-93901905D01*
X148314286Y-93901905D02*
X148314286Y-93368571D01*
X148314286Y-93444762D02*
X148276191Y-93406667D01*
X148200000Y-93368571D01*
X148085714Y-93368571D01*
X148009524Y-93406667D01*
X147971429Y-93482857D01*
X147971429Y-93901905D01*
X147971429Y-93482857D02*
X147933333Y-93406667D01*
X147857143Y-93368571D01*
X147742857Y-93368571D01*
X147666667Y-93406667D01*
X147628572Y-93482857D01*
X147628572Y-93901905D01*
X146904762Y-93901905D02*
X146904762Y-93482857D01*
X146942857Y-93406667D01*
X147019047Y-93368571D01*
X147171428Y-93368571D01*
X147247619Y-93406667D01*
X146904762Y-93863810D02*
X146980952Y-93901905D01*
X147171428Y-93901905D01*
X147247619Y-93863810D01*
X147285714Y-93787619D01*
X147285714Y-93711429D01*
X147247619Y-93635238D01*
X147171428Y-93597143D01*
X146980952Y-93597143D01*
X146904762Y-93559048D01*
X146523809Y-93901905D02*
X146523809Y-93101905D01*
X146447618Y-93597143D02*
X146219047Y-93901905D01*
X146219047Y-93368571D02*
X146523809Y-93673333D01*
X145571428Y-93863810D02*
X145647618Y-93901905D01*
X145799999Y-93901905D01*
X145876190Y-93863810D01*
X145914285Y-93787619D01*
X145914285Y-93482857D01*
X145876190Y-93406667D01*
X145799999Y-93368571D01*
X145647618Y-93368571D01*
X145571428Y-93406667D01*
X145533333Y-93482857D01*
X145533333Y-93559048D01*
X145914285Y-93635238D01*
X145190476Y-93901905D02*
X145190476Y-93368571D01*
X145190476Y-93520952D02*
X145152381Y-93444762D01*
X145114285Y-93406667D01*
X145038095Y-93368571D01*
X144961904Y-93368571D01*
X144885714Y-93978095D02*
X144276190Y-93978095D01*
X144085714Y-93901905D02*
X144085714Y-93101905D01*
X144085714Y-93406667D02*
X144009523Y-93368571D01*
X143857142Y-93368571D01*
X143780952Y-93406667D01*
X143742857Y-93444762D01*
X143704761Y-93520952D01*
X143704761Y-93749524D01*
X143742857Y-93825714D01*
X143780952Y-93863810D01*
X143857142Y-93901905D01*
X144009523Y-93901905D01*
X144085714Y-93863810D01*
X143057142Y-93863810D02*
X143133332Y-93901905D01*
X143285713Y-93901905D01*
X143361904Y-93863810D01*
X143399999Y-93787619D01*
X143399999Y-93482857D01*
X143361904Y-93406667D01*
X143285713Y-93368571D01*
X143133332Y-93368571D01*
X143057142Y-93406667D01*
X143019047Y-93482857D01*
X143019047Y-93559048D01*
X143399999Y-93635238D01*
X142676190Y-93901905D02*
X142676190Y-93368571D01*
X142676190Y-93520952D02*
X142638095Y-93444762D01*
X142599999Y-93406667D01*
X142523809Y-93368571D01*
X142447618Y-93368571D01*
X142180952Y-93901905D02*
X142180952Y-93368571D01*
X142180952Y-93520952D02*
X142142857Y-93444762D01*
X142104761Y-93406667D01*
X142028571Y-93368571D01*
X141952380Y-93368571D01*
X141761904Y-93368571D02*
X141571428Y-93901905D01*
X141380952Y-93368571D02*
X141571428Y-93901905D01*
X141647619Y-94092381D01*
X141685714Y-94130476D01*
X141761904Y-94168571D01*
D12*
X142940000Y-87420000D02*
X142940000Y-87880000D01*
X142850000Y-87420000D02*
X142800000Y-87420000D01*
X142900000Y-87450000D02*
X142850000Y-87420000D01*
X142920000Y-87470000D02*
X142900000Y-87450000D01*
X142940000Y-87540000D02*
X142920000Y-87470000D01*
X142500000Y-87880000D02*
X142450000Y-87850000D01*
X142600000Y-87880000D02*
X142500000Y-87880000D01*
X142640000Y-87850000D02*
X142600000Y-87880000D01*
X142660000Y-87780000D02*
X142640000Y-87850000D01*
X142660000Y-87510000D02*
X142660000Y-87780000D01*
X142630000Y-87450000D02*
X142660000Y-87510000D01*
X142590000Y-87420000D02*
X142630000Y-87450000D01*
X142490000Y-87420000D02*
X142590000Y-87420000D01*
X142450000Y-87460000D02*
X142490000Y-87420000D01*
X142430000Y-87530000D02*
X142450000Y-87460000D01*
X142430000Y-87650000D02*
X142430000Y-87530000D01*
X142430000Y-87650000D02*
X142660000Y-87650000D01*
X143180000Y-87510000D02*
X143180000Y-87880000D01*
X143210000Y-87450000D02*
X143180000Y-87510000D01*
X143250000Y-87420000D02*
X143210000Y-87450000D01*
X143350000Y-87420000D02*
X143250000Y-87420000D01*
X143400000Y-87450000D02*
X143350000Y-87420000D01*
X143340000Y-87610000D02*
X143390000Y-87640000D01*
X143220000Y-87610000D02*
X143340000Y-87610000D01*
X143180000Y-87580000D02*
X143220000Y-87610000D01*
X143230000Y-87880000D02*
X143180000Y-87840000D01*
X143350000Y-87880000D02*
X143230000Y-87880000D01*
X143400000Y-87840000D02*
X143350000Y-87880000D01*
X143420000Y-87780000D02*
X143400000Y-87840000D01*
X143420000Y-87710000D02*
X143420000Y-87780000D01*
X143390000Y-87640000D02*
X143420000Y-87710000D01*
X143970000Y-87420000D02*
X143870000Y-87880000D01*
X143870000Y-87880000D02*
X143780000Y-87540000D01*
X143780000Y-87540000D02*
X143680000Y-87880000D01*
X143680000Y-87880000D02*
X143580000Y-87420000D01*
X144160000Y-87850000D02*
X144200000Y-87880000D01*
X144200000Y-87880000D02*
X144310000Y-87880000D01*
X144310000Y-87880000D02*
X144350000Y-87850000D01*
X144350000Y-87850000D02*
X144370000Y-87820000D01*
X144370000Y-87820000D02*
X144400000Y-87750000D01*
X144400000Y-87750000D02*
X144400000Y-87550000D01*
X144400000Y-87550000D02*
X144370000Y-87480000D01*
X144370000Y-87480000D02*
X144350000Y-87450000D01*
X144350000Y-87450000D02*
X144290000Y-87410000D01*
X144290000Y-87410000D02*
X144220000Y-87410000D01*
X144220000Y-87410000D02*
X144160000Y-87450000D01*
X144160000Y-87180000D02*
X144160000Y-87880000D01*
X144680000Y-87540000D02*
X144660000Y-87470000D01*
X144660000Y-87470000D02*
X144640000Y-87450000D01*
X144640000Y-87450000D02*
X144590000Y-87420000D01*
X144590000Y-87420000D02*
X144540000Y-87420000D01*
X144680000Y-87420000D02*
X144680000Y-87880000D01*
X145130000Y-87640000D02*
X145160000Y-87710000D01*
X145160000Y-87710000D02*
X145160000Y-87780000D01*
X145160000Y-87780000D02*
X145140000Y-87840000D01*
X145140000Y-87840000D02*
X145090000Y-87880000D01*
X145090000Y-87880000D02*
X144970000Y-87880000D01*
X144970000Y-87880000D02*
X144920000Y-87840000D01*
X144920000Y-87580000D02*
X144960000Y-87610000D01*
X144960000Y-87610000D02*
X145080000Y-87610000D01*
X145080000Y-87610000D02*
X145130000Y-87640000D01*
X145140000Y-87450000D02*
X145090000Y-87420000D01*
X145090000Y-87420000D02*
X144990000Y-87420000D01*
X144990000Y-87420000D02*
X144950000Y-87450000D01*
X144950000Y-87450000D02*
X144920000Y-87510000D01*
X144920000Y-87510000D02*
X144920000Y-87880000D01*
X145590000Y-87490000D02*
X145570000Y-87450000D01*
X145570000Y-87450000D02*
X145520000Y-87420000D01*
X145520000Y-87420000D02*
X145440000Y-87420000D01*
X145440000Y-87420000D02*
X145400000Y-87450000D01*
X145400000Y-87450000D02*
X145380000Y-87510000D01*
X145380000Y-87510000D02*
X145380000Y-87880000D01*
X145590000Y-87180000D02*
X145590000Y-87880000D01*
X146640000Y-87650000D02*
X146870000Y-87650000D01*
X146420000Y-87480000D02*
X146400000Y-87450000D01*
X146400000Y-87450000D02*
X146360000Y-87420000D01*
X146360000Y-87420000D02*
X146270000Y-87420000D01*
X146270000Y-87420000D02*
X146230000Y-87450000D01*
X146230000Y-87450000D02*
X146210000Y-87510000D01*
X146210000Y-87510000D02*
X146210000Y-87880000D01*
X146420000Y-87420000D02*
X146420000Y-87880000D01*
X146640000Y-87650000D02*
X146640000Y-87530000D01*
X146640000Y-87530000D02*
X146660000Y-87460000D01*
X146660000Y-87460000D02*
X146700000Y-87420000D01*
X146700000Y-87420000D02*
X146800000Y-87420000D01*
X146800000Y-87420000D02*
X146840000Y-87450000D01*
X146840000Y-87450000D02*
X146870000Y-87510000D01*
X146870000Y-87510000D02*
X146870000Y-87780000D01*
X146870000Y-87780000D02*
X146850000Y-87850000D01*
X146850000Y-87850000D02*
X146810000Y-87880000D01*
X146810000Y-87880000D02*
X146710000Y-87880000D01*
X146710000Y-87880000D02*
X146660000Y-87850000D01*
X147300000Y-87450000D02*
X147260000Y-87420000D01*
X147260000Y-87420000D02*
X147160000Y-87420000D01*
X147160000Y-87420000D02*
X147120000Y-87450000D01*
X147120000Y-87450000D02*
X147090000Y-87480000D01*
X147090000Y-87480000D02*
X147070000Y-87540000D01*
X147070000Y-87540000D02*
X147070000Y-87760000D01*
X147070000Y-87760000D02*
X147090000Y-87820000D01*
X147090000Y-87820000D02*
X147110000Y-87850000D01*
X147110000Y-87850000D02*
X147150000Y-87880000D01*
X147150000Y-87880000D02*
X147250000Y-87880000D01*
X147250000Y-87880000D02*
X147300000Y-87850000D01*
X147300000Y-88120000D02*
X147300000Y-87420000D01*
X147610000Y-87420000D02*
X147690000Y-87420000D01*
X147690000Y-87420000D02*
X147730000Y-87450000D01*
X147730000Y-87450000D02*
X147750000Y-87480000D01*
X147750000Y-87480000D02*
X147780000Y-87550000D01*
X147690000Y-87880000D02*
X147610000Y-87880000D01*
X147610000Y-87880000D02*
X147560000Y-87850000D01*
X147560000Y-87850000D02*
X147540000Y-87820000D01*
X147540000Y-87820000D02*
X147520000Y-87750000D01*
X147520000Y-87750000D02*
X147520000Y-87550000D01*
X147520000Y-87550000D02*
X147540000Y-87490000D01*
X147540000Y-87490000D02*
X147560000Y-87460000D01*
X147560000Y-87460000D02*
X147610000Y-87420000D01*
X147780000Y-87550000D02*
X147780000Y-87750000D01*
X147780000Y-87750000D02*
X147760000Y-87810000D01*
X147760000Y-87810000D02*
X147740000Y-87840000D01*
X147740000Y-87840000D02*
X147690000Y-87880000D01*
D13*
G36*
X146613840Y-87045360D02*
X146588440Y-87030120D01*
X146530020Y-86994560D01*
X146446200Y-86938680D01*
X146347140Y-86872640D01*
X146248080Y-86806600D01*
X146166800Y-86753260D01*
X146110920Y-86715160D01*
X146085520Y-86702460D01*
X146072820Y-86707540D01*
X146027100Y-86730400D01*
X145958520Y-86765960D01*
X145917880Y-86786280D01*
X145856920Y-86811680D01*
X145823900Y-86819300D01*
X145818820Y-86809140D01*
X145795960Y-86760880D01*
X145760400Y-86679600D01*
X145714680Y-86570380D01*
X145658800Y-86443380D01*
X145602920Y-86308760D01*
X145544500Y-86169060D01*
X145488620Y-86034440D01*
X145440360Y-85915060D01*
X145399720Y-85818540D01*
X145374320Y-85749960D01*
X145364160Y-85722020D01*
X145366700Y-85714400D01*
X145399720Y-85683920D01*
X145453060Y-85643280D01*
X145572440Y-85546760D01*
X145689280Y-85401980D01*
X145760400Y-85236880D01*
X145783260Y-85051460D01*
X145762940Y-84881280D01*
X145696900Y-84718720D01*
X145582600Y-84571400D01*
X145442900Y-84462180D01*
X145280340Y-84393600D01*
X145100000Y-84370740D01*
X144927280Y-84391060D01*
X144759640Y-84457100D01*
X144612320Y-84568860D01*
X144548820Y-84639980D01*
X144462460Y-84789840D01*
X144414200Y-84947320D01*
X144409120Y-84987960D01*
X144416740Y-85163220D01*
X144467540Y-85333400D01*
X144561520Y-85483260D01*
X144691060Y-85607720D01*
X144706300Y-85617880D01*
X144764720Y-85663600D01*
X144805360Y-85694080D01*
X144835840Y-85719480D01*
X144612320Y-86257960D01*
X144576760Y-86341780D01*
X144515800Y-86489100D01*
X144462460Y-86616100D01*
X144419280Y-86717700D01*
X144388800Y-86783740D01*
X144376100Y-86811680D01*
X144376100Y-86814220D01*
X144355780Y-86816760D01*
X144315140Y-86801520D01*
X144238940Y-86765960D01*
X144190680Y-86740560D01*
X144132260Y-86712620D01*
X144106860Y-86702460D01*
X144084000Y-86715160D01*
X144030660Y-86750720D01*
X143949380Y-86804060D01*
X143852860Y-86867560D01*
X143761420Y-86931060D01*
X143677600Y-86986940D01*
X143616640Y-87025040D01*
X143586160Y-87042820D01*
X143581080Y-87042820D01*
X143555680Y-87027580D01*
X143507420Y-86986940D01*
X143433760Y-86918360D01*
X143329620Y-86814220D01*
X143314380Y-86798980D01*
X143228020Y-86712620D01*
X143159440Y-86638960D01*
X143113720Y-86588160D01*
X143095940Y-86565300D01*
X143095940Y-86565300D01*
X143111180Y-86534820D01*
X143149280Y-86473860D01*
X143205160Y-86387500D01*
X143273740Y-86288440D01*
X143451540Y-86029360D01*
X143355020Y-85785520D01*
X143324540Y-85709320D01*
X143286440Y-85620420D01*
X143258500Y-85554380D01*
X143243260Y-85526440D01*
X143217860Y-85516280D01*
X143149280Y-85501040D01*
X143052760Y-85480720D01*
X142938460Y-85460400D01*
X142826700Y-85440080D01*
X142727640Y-85419760D01*
X142656520Y-85407060D01*
X142623500Y-85399440D01*
X142615880Y-85394360D01*
X142608260Y-85379120D01*
X142605720Y-85346100D01*
X142603180Y-85285140D01*
X142600640Y-85191160D01*
X142600640Y-85051460D01*
X142600640Y-85036220D01*
X142603180Y-84906680D01*
X142605720Y-84800000D01*
X142608260Y-84733960D01*
X142613340Y-84706020D01*
X142613340Y-84706020D01*
X142643820Y-84698400D01*
X142714940Y-84683160D01*
X142814000Y-84665380D01*
X142933380Y-84642520D01*
X142941000Y-84639980D01*
X143057840Y-84617120D01*
X143156900Y-84596800D01*
X143228020Y-84581560D01*
X143255960Y-84571400D01*
X143263580Y-84563780D01*
X143286440Y-84518060D01*
X143319460Y-84444400D01*
X143360100Y-84355500D01*
X143398200Y-84261520D01*
X143431220Y-84177700D01*
X143454080Y-84116740D01*
X143461700Y-84088800D01*
X143459160Y-84086260D01*
X143441380Y-84058320D01*
X143400740Y-83997360D01*
X143344860Y-83913540D01*
X143276280Y-83811940D01*
X143271200Y-83804320D01*
X143202620Y-83705260D01*
X143146740Y-83618900D01*
X143111180Y-83560480D01*
X143095940Y-83532540D01*
X143095940Y-83530000D01*
X143118800Y-83499520D01*
X143169600Y-83443640D01*
X143243260Y-83367440D01*
X143329620Y-83278540D01*
X143357560Y-83253140D01*
X143456620Y-83156620D01*
X143522660Y-83095660D01*
X143565840Y-83062640D01*
X143586160Y-83055020D01*
X143586160Y-83055020D01*
X143616640Y-83072800D01*
X143680140Y-83113440D01*
X143763960Y-83171860D01*
X143865560Y-83240440D01*
X143873180Y-83245520D01*
X143972240Y-83314100D01*
X144056060Y-83369980D01*
X144114480Y-83410620D01*
X144142420Y-83425860D01*
X144144960Y-83425860D01*
X144185600Y-83413160D01*
X144256720Y-83387760D01*
X144345620Y-83354740D01*
X144437060Y-83316640D01*
X144520880Y-83281080D01*
X144584380Y-83253140D01*
X144614860Y-83235360D01*
X144614860Y-83235360D01*
X144625020Y-83199800D01*
X144642800Y-83123600D01*
X144663120Y-83022000D01*
X144688520Y-82900080D01*
X144691060Y-82879760D01*
X144713920Y-82760380D01*
X144731700Y-82661320D01*
X144746940Y-82592740D01*
X144754560Y-82564800D01*
X144769800Y-82562260D01*
X144828220Y-82557180D01*
X144917120Y-82554640D01*
X145026340Y-82554640D01*
X145138100Y-82554640D01*
X145247320Y-82557180D01*
X145341300Y-82559720D01*
X145409880Y-82564800D01*
X145437820Y-82569880D01*
X145437820Y-82572420D01*
X145447980Y-82610520D01*
X145465760Y-82684180D01*
X145486080Y-82788320D01*
X145508940Y-82910240D01*
X145514020Y-82933100D01*
X145536880Y-83049940D01*
X145557200Y-83149000D01*
X145569900Y-83215040D01*
X145577520Y-83242980D01*
X145590220Y-83248060D01*
X145638480Y-83268380D01*
X145717220Y-83301400D01*
X145816280Y-83342040D01*
X146044880Y-83433480D01*
X146326820Y-83242980D01*
X146352220Y-83225200D01*
X146453820Y-83156620D01*
X146535100Y-83100740D01*
X146593520Y-83062640D01*
X146616380Y-83049940D01*
X146618920Y-83049940D01*
X146646860Y-83075340D01*
X146702740Y-83128680D01*
X146778940Y-83202340D01*
X146867840Y-83288700D01*
X146931340Y-83354740D01*
X147010080Y-83433480D01*
X147058340Y-83486820D01*
X147086280Y-83519840D01*
X147093900Y-83540160D01*
X147091360Y-83555400D01*
X147073580Y-83583340D01*
X147032940Y-83644300D01*
X146974520Y-83730660D01*
X146905940Y-83829720D01*
X146850060Y-83913540D01*
X146789100Y-84007520D01*
X146751000Y-84073560D01*
X146735760Y-84106580D01*
X146740840Y-84119280D01*
X146758620Y-84175160D01*
X146794180Y-84258980D01*
X146834820Y-84358040D01*
X146933880Y-84579020D01*
X147078660Y-84606960D01*
X147167560Y-84624740D01*
X147289480Y-84647600D01*
X147408860Y-84670460D01*
X147591740Y-84706020D01*
X147599360Y-85381660D01*
X147571420Y-85394360D01*
X147543480Y-85401980D01*
X147474900Y-85417220D01*
X147378380Y-85437540D01*
X147261540Y-85457860D01*
X147165020Y-85475640D01*
X147065960Y-85495960D01*
X146994840Y-85508660D01*
X146964360Y-85516280D01*
X146954200Y-85526440D01*
X146931340Y-85574700D01*
X146895780Y-85650900D01*
X146855140Y-85742340D01*
X146817040Y-85836320D01*
X146781480Y-85925220D01*
X146758620Y-85991260D01*
X146748460Y-86024280D01*
X146761160Y-86052220D01*
X146799260Y-86110640D01*
X146852600Y-86191920D01*
X146921180Y-86290980D01*
X146987220Y-86387500D01*
X147045640Y-86471320D01*
X147083740Y-86532280D01*
X147101520Y-86560220D01*
X147091360Y-86578000D01*
X147053260Y-86626260D01*
X146979600Y-86702460D01*
X146867840Y-86811680D01*
X146850060Y-86829460D01*
X146763700Y-86913280D01*
X146690040Y-86981860D01*
X146636700Y-87027580D01*
X146613840Y-87045360D01*
X146613840Y-87045360D01*
G37*
X146613840Y-87045360D02*
X146588440Y-87030120D01*
X146530020Y-86994560D01*
X146446200Y-86938680D01*
X146347140Y-86872640D01*
X146248080Y-86806600D01*
X146166800Y-86753260D01*
X146110920Y-86715160D01*
X146085520Y-86702460D01*
X146072820Y-86707540D01*
X146027100Y-86730400D01*
X145958520Y-86765960D01*
X145917880Y-86786280D01*
X145856920Y-86811680D01*
X145823900Y-86819300D01*
X145818820Y-86809140D01*
X145795960Y-86760880D01*
X145760400Y-86679600D01*
X145714680Y-86570380D01*
X145658800Y-86443380D01*
X145602920Y-86308760D01*
X145544500Y-86169060D01*
X145488620Y-86034440D01*
X145440360Y-85915060D01*
X145399720Y-85818540D01*
X145374320Y-85749960D01*
X145364160Y-85722020D01*
X145366700Y-85714400D01*
X145399720Y-85683920D01*
X145453060Y-85643280D01*
X145572440Y-85546760D01*
X145689280Y-85401980D01*
X145760400Y-85236880D01*
X145783260Y-85051460D01*
X145762940Y-84881280D01*
X145696900Y-84718720D01*
X145582600Y-84571400D01*
X145442900Y-84462180D01*
X145280340Y-84393600D01*
X145100000Y-84370740D01*
X144927280Y-84391060D01*
X144759640Y-84457100D01*
X144612320Y-84568860D01*
X144548820Y-84639980D01*
X144462460Y-84789840D01*
X144414200Y-84947320D01*
X144409120Y-84987960D01*
X144416740Y-85163220D01*
X144467540Y-85333400D01*
X144561520Y-85483260D01*
X144691060Y-85607720D01*
X144706300Y-85617880D01*
X144764720Y-85663600D01*
X144805360Y-85694080D01*
X144835840Y-85719480D01*
X144612320Y-86257960D01*
X144576760Y-86341780D01*
X144515800Y-86489100D01*
X144462460Y-86616100D01*
X144419280Y-86717700D01*
X144388800Y-86783740D01*
X144376100Y-86811680D01*
X144376100Y-86814220D01*
X144355780Y-86816760D01*
X144315140Y-86801520D01*
X144238940Y-86765960D01*
X144190680Y-86740560D01*
X144132260Y-86712620D01*
X144106860Y-86702460D01*
X144084000Y-86715160D01*
X144030660Y-86750720D01*
X143949380Y-86804060D01*
X143852860Y-86867560D01*
X143761420Y-86931060D01*
X143677600Y-86986940D01*
X143616640Y-87025040D01*
X143586160Y-87042820D01*
X143581080Y-87042820D01*
X143555680Y-87027580D01*
X143507420Y-86986940D01*
X143433760Y-86918360D01*
X143329620Y-86814220D01*
X143314380Y-86798980D01*
X143228020Y-86712620D01*
X143159440Y-86638960D01*
X143113720Y-86588160D01*
X143095940Y-86565300D01*
X143095940Y-86565300D01*
X143111180Y-86534820D01*
X143149280Y-86473860D01*
X143205160Y-86387500D01*
X143273740Y-86288440D01*
X143451540Y-86029360D01*
X143355020Y-85785520D01*
X143324540Y-85709320D01*
X143286440Y-85620420D01*
X143258500Y-85554380D01*
X143243260Y-85526440D01*
X143217860Y-85516280D01*
X143149280Y-85501040D01*
X143052760Y-85480720D01*
X142938460Y-85460400D01*
X142826700Y-85440080D01*
X142727640Y-85419760D01*
X142656520Y-85407060D01*
X142623500Y-85399440D01*
X142615880Y-85394360D01*
X142608260Y-85379120D01*
X142605720Y-85346100D01*
X142603180Y-85285140D01*
X142600640Y-85191160D01*
X142600640Y-85051460D01*
X142600640Y-85036220D01*
X142603180Y-84906680D01*
X142605720Y-84800000D01*
X142608260Y-84733960D01*
X142613340Y-84706020D01*
X142613340Y-84706020D01*
X142643820Y-84698400D01*
X142714940Y-84683160D01*
X142814000Y-84665380D01*
X142933380Y-84642520D01*
X142941000Y-84639980D01*
X143057840Y-84617120D01*
X143156900Y-84596800D01*
X143228020Y-84581560D01*
X143255960Y-84571400D01*
X143263580Y-84563780D01*
X143286440Y-84518060D01*
X143319460Y-84444400D01*
X143360100Y-84355500D01*
X143398200Y-84261520D01*
X143431220Y-84177700D01*
X143454080Y-84116740D01*
X143461700Y-84088800D01*
X143459160Y-84086260D01*
X143441380Y-84058320D01*
X143400740Y-83997360D01*
X143344860Y-83913540D01*
X143276280Y-83811940D01*
X143271200Y-83804320D01*
X143202620Y-83705260D01*
X143146740Y-83618900D01*
X143111180Y-83560480D01*
X143095940Y-83532540D01*
X143095940Y-83530000D01*
X143118800Y-83499520D01*
X143169600Y-83443640D01*
X143243260Y-83367440D01*
X143329620Y-83278540D01*
X143357560Y-83253140D01*
X143456620Y-83156620D01*
X143522660Y-83095660D01*
X143565840Y-83062640D01*
X143586160Y-83055020D01*
X143586160Y-83055020D01*
X143616640Y-83072800D01*
X143680140Y-83113440D01*
X143763960Y-83171860D01*
X143865560Y-83240440D01*
X143873180Y-83245520D01*
X143972240Y-83314100D01*
X144056060Y-83369980D01*
X144114480Y-83410620D01*
X144142420Y-83425860D01*
X144144960Y-83425860D01*
X144185600Y-83413160D01*
X144256720Y-83387760D01*
X144345620Y-83354740D01*
X144437060Y-83316640D01*
X144520880Y-83281080D01*
X144584380Y-83253140D01*
X144614860Y-83235360D01*
X144614860Y-83235360D01*
X144625020Y-83199800D01*
X144642800Y-83123600D01*
X144663120Y-83022000D01*
X144688520Y-82900080D01*
X144691060Y-82879760D01*
X144713920Y-82760380D01*
X144731700Y-82661320D01*
X144746940Y-82592740D01*
X144754560Y-82564800D01*
X144769800Y-82562260D01*
X144828220Y-82557180D01*
X144917120Y-82554640D01*
X145026340Y-82554640D01*
X145138100Y-82554640D01*
X145247320Y-82557180D01*
X145341300Y-82559720D01*
X145409880Y-82564800D01*
X145437820Y-82569880D01*
X145437820Y-82572420D01*
X145447980Y-82610520D01*
X145465760Y-82684180D01*
X145486080Y-82788320D01*
X145508940Y-82910240D01*
X145514020Y-82933100D01*
X145536880Y-83049940D01*
X145557200Y-83149000D01*
X145569900Y-83215040D01*
X145577520Y-83242980D01*
X145590220Y-83248060D01*
X145638480Y-83268380D01*
X145717220Y-83301400D01*
X145816280Y-83342040D01*
X146044880Y-83433480D01*
X146326820Y-83242980D01*
X146352220Y-83225200D01*
X146453820Y-83156620D01*
X146535100Y-83100740D01*
X146593520Y-83062640D01*
X146616380Y-83049940D01*
X146618920Y-83049940D01*
X146646860Y-83075340D01*
X146702740Y-83128680D01*
X146778940Y-83202340D01*
X146867840Y-83288700D01*
X146931340Y-83354740D01*
X147010080Y-83433480D01*
X147058340Y-83486820D01*
X147086280Y-83519840D01*
X147093900Y-83540160D01*
X147091360Y-83555400D01*
X147073580Y-83583340D01*
X147032940Y-83644300D01*
X146974520Y-83730660D01*
X146905940Y-83829720D01*
X146850060Y-83913540D01*
X146789100Y-84007520D01*
X146751000Y-84073560D01*
X146735760Y-84106580D01*
X146740840Y-84119280D01*
X146758620Y-84175160D01*
X146794180Y-84258980D01*
X146834820Y-84358040D01*
X146933880Y-84579020D01*
X147078660Y-84606960D01*
X147167560Y-84624740D01*
X147289480Y-84647600D01*
X147408860Y-84670460D01*
X147591740Y-84706020D01*
X147599360Y-85381660D01*
X147571420Y-85394360D01*
X147543480Y-85401980D01*
X147474900Y-85417220D01*
X147378380Y-85437540D01*
X147261540Y-85457860D01*
X147165020Y-85475640D01*
X147065960Y-85495960D01*
X146994840Y-85508660D01*
X146964360Y-85516280D01*
X146954200Y-85526440D01*
X146931340Y-85574700D01*
X146895780Y-85650900D01*
X146855140Y-85742340D01*
X146817040Y-85836320D01*
X146781480Y-85925220D01*
X146758620Y-85991260D01*
X146748460Y-86024280D01*
X146761160Y-86052220D01*
X146799260Y-86110640D01*
X146852600Y-86191920D01*
X146921180Y-86290980D01*
X146987220Y-86387500D01*
X147045640Y-86471320D01*
X147083740Y-86532280D01*
X147101520Y-86560220D01*
X147091360Y-86578000D01*
X147053260Y-86626260D01*
X146979600Y-86702460D01*
X146867840Y-86811680D01*
X146850060Y-86829460D01*
X146763700Y-86913280D01*
X146690040Y-86981860D01*
X146636700Y-87027580D01*
X146613840Y-87045360D01*
D14*
G36*
X147597100Y-99847876D02*
X147551281Y-99848658D01*
X147513390Y-99850799D01*
X147481238Y-99854717D01*
X147452639Y-99860826D01*
X147425403Y-99869542D01*
X147397344Y-99881279D01*
X147381575Y-99888776D01*
X147343537Y-99912256D01*
X147307934Y-99943329D01*
X147277375Y-99979430D01*
X147258429Y-100009980D01*
X147244065Y-100040129D01*
X147234326Y-100067871D01*
X147227768Y-100097931D01*
X147224516Y-100121044D01*
X147220625Y-100153358D01*
X147269163Y-100156572D01*
X147296940Y-100158027D01*
X147329351Y-100159145D01*
X147360868Y-100159752D01*
X147371745Y-100159813D01*
X147425790Y-100159840D01*
X147429296Y-100141152D01*
X147440898Y-100104228D01*
X147460399Y-100072979D01*
X147487040Y-100048347D01*
X147516778Y-100032505D01*
X147541582Y-100025821D01*
X147572965Y-100021665D01*
X147607649Y-100020098D01*
X147642357Y-100021180D01*
X147673810Y-100024973D01*
X147692013Y-100029237D01*
X147723664Y-100042315D01*
X147748679Y-100059787D01*
X147766164Y-100080609D01*
X147775227Y-100103734D01*
X147775256Y-100126710D01*
X147767415Y-100146366D01*
X147752585Y-100166216D01*
X147733385Y-100183148D01*
X147722041Y-100190020D01*
X147704346Y-100197663D01*
X147678577Y-100206969D01*
X147646571Y-100217360D01*
X147610163Y-100228255D01*
X147571189Y-100239078D01*
X147544702Y-100245962D01*
X147486713Y-100261336D01*
X147437582Y-100276093D01*
X147396074Y-100290768D01*
X147360953Y-100305897D01*
X147330983Y-100322017D01*
X147304928Y-100339663D01*
X147281553Y-100359371D01*
X147280090Y-100360743D01*
X147245740Y-100399265D01*
X147220211Y-100441953D01*
X147203255Y-100489420D01*
X147194621Y-100542280D01*
X147193329Y-100574062D01*
X147198027Y-100627603D01*
X147211892Y-100678676D01*
X147234221Y-100726101D01*
X147264315Y-100768699D01*
X147301474Y-100805290D01*
X147344997Y-100834695D01*
X147349508Y-100837109D01*
X147385137Y-100853634D01*
X147421976Y-100866121D01*
X147462078Y-100874996D01*
X147507497Y-100880688D01*
X147560285Y-100883624D01*
X147574240Y-100883966D01*
X147605884Y-100884271D01*
X147636396Y-100884007D01*
X147663321Y-100883234D01*
X147684202Y-100882014D01*
X147693620Y-100880973D01*
X147756253Y-100866886D01*
X147812593Y-100845129D01*
X147862362Y-100815916D01*
X147905283Y-100779462D01*
X147941078Y-100735983D01*
X147969469Y-100685695D01*
X147980717Y-100658297D01*
X147987963Y-100636407D01*
X147994527Y-100612938D01*
X147999934Y-100590114D01*
X148003710Y-100570161D01*
X148005380Y-100555301D01*
X148004471Y-100547761D01*
X148004320Y-100547585D01*
X147998820Y-100546329D01*
X147985165Y-100544257D01*
X147965305Y-100541596D01*
X147941189Y-100538576D01*
X147914769Y-100535425D01*
X147887994Y-100532373D01*
X147862815Y-100529646D01*
X147841183Y-100527475D01*
X147825047Y-100526088D01*
X147817643Y-100525699D01*
X147811440Y-100529871D01*
X147805198Y-100543014D01*
X147800982Y-100556547D01*
X147784211Y-100602434D01*
X147761729Y-100640188D01*
X147733669Y-100669634D01*
X147700163Y-100690597D01*
X147699452Y-100690922D01*
X147661370Y-100704060D01*
X147620087Y-100711073D01*
X147577564Y-100712204D01*
X147535762Y-100707700D01*
X147496643Y-100697805D01*
X147462166Y-100682766D01*
X147434294Y-100662828D01*
X147428506Y-100657017D01*
X147414830Y-100637520D01*
X147403832Y-100613299D01*
X147397430Y-100589048D01*
X147396552Y-100578746D01*
X147398958Y-100561049D01*
X147405160Y-100541552D01*
X147407870Y-100535607D01*
X147415723Y-100522387D01*
X147425630Y-100510857D01*
X147438699Y-100500494D01*
X147456035Y-100490774D01*
X147478747Y-100481172D01*
X147507940Y-100471165D01*
X147544720Y-100460228D01*
X147590196Y-100447838D01*
X147597100Y-100446015D01*
X147653990Y-100430669D01*
X147702083Y-100416757D01*
X147742553Y-100403764D01*
X147776575Y-100391175D01*
X147805323Y-100378475D01*
X147829971Y-100365148D01*
X147851694Y-100350679D01*
X147871665Y-100334553D01*
X147889685Y-100317627D01*
X147923406Y-100278802D01*
X147947588Y-100238380D01*
X147962852Y-100194882D01*
X147969819Y-100146831D01*
X147970420Y-100125299D01*
X147965473Y-100074932D01*
X147951195Y-100027629D01*
X147928153Y-99984172D01*
X147896916Y-99945342D01*
X147858053Y-99911921D01*
X147812131Y-99884690D01*
X147787600Y-99873989D01*
X147762992Y-99864980D01*
X147740193Y-99858221D01*
X147717078Y-99853422D01*
X147691527Y-99850291D01*
X147661414Y-99848538D01*
X147624619Y-99847870D01*
X147597100Y-99847876D01*
X147597100Y-99847876D01*
G37*
X147597100Y-99847876D02*
X147551281Y-99848658D01*
X147513390Y-99850799D01*
X147481238Y-99854717D01*
X147452639Y-99860826D01*
X147425403Y-99869542D01*
X147397344Y-99881279D01*
X147381575Y-99888776D01*
X147343537Y-99912256D01*
X147307934Y-99943329D01*
X147277375Y-99979430D01*
X147258429Y-100009980D01*
X147244065Y-100040129D01*
X147234326Y-100067871D01*
X147227768Y-100097931D01*
X147224516Y-100121044D01*
X147220625Y-100153358D01*
X147269163Y-100156572D01*
X147296940Y-100158027D01*
X147329351Y-100159145D01*
X147360868Y-100159752D01*
X147371745Y-100159813D01*
X147425790Y-100159840D01*
X147429296Y-100141152D01*
X147440898Y-100104228D01*
X147460399Y-100072979D01*
X147487040Y-100048347D01*
X147516778Y-100032505D01*
X147541582Y-100025821D01*
X147572965Y-100021665D01*
X147607649Y-100020098D01*
X147642357Y-100021180D01*
X147673810Y-100024973D01*
X147692013Y-100029237D01*
X147723664Y-100042315D01*
X147748679Y-100059787D01*
X147766164Y-100080609D01*
X147775227Y-100103734D01*
X147775256Y-100126710D01*
X147767415Y-100146366D01*
X147752585Y-100166216D01*
X147733385Y-100183148D01*
X147722041Y-100190020D01*
X147704346Y-100197663D01*
X147678577Y-100206969D01*
X147646571Y-100217360D01*
X147610163Y-100228255D01*
X147571189Y-100239078D01*
X147544702Y-100245962D01*
X147486713Y-100261336D01*
X147437582Y-100276093D01*
X147396074Y-100290768D01*
X147360953Y-100305897D01*
X147330983Y-100322017D01*
X147304928Y-100339663D01*
X147281553Y-100359371D01*
X147280090Y-100360743D01*
X147245740Y-100399265D01*
X147220211Y-100441953D01*
X147203255Y-100489420D01*
X147194621Y-100542280D01*
X147193329Y-100574062D01*
X147198027Y-100627603D01*
X147211892Y-100678676D01*
X147234221Y-100726101D01*
X147264315Y-100768699D01*
X147301474Y-100805290D01*
X147344997Y-100834695D01*
X147349508Y-100837109D01*
X147385137Y-100853634D01*
X147421976Y-100866121D01*
X147462078Y-100874996D01*
X147507497Y-100880688D01*
X147560285Y-100883624D01*
X147574240Y-100883966D01*
X147605884Y-100884271D01*
X147636396Y-100884007D01*
X147663321Y-100883234D01*
X147684202Y-100882014D01*
X147693620Y-100880973D01*
X147756253Y-100866886D01*
X147812593Y-100845129D01*
X147862362Y-100815916D01*
X147905283Y-100779462D01*
X147941078Y-100735983D01*
X147969469Y-100685695D01*
X147980717Y-100658297D01*
X147987963Y-100636407D01*
X147994527Y-100612938D01*
X147999934Y-100590114D01*
X148003710Y-100570161D01*
X148005380Y-100555301D01*
X148004471Y-100547761D01*
X148004320Y-100547585D01*
X147998820Y-100546329D01*
X147985165Y-100544257D01*
X147965305Y-100541596D01*
X147941189Y-100538576D01*
X147914769Y-100535425D01*
X147887994Y-100532373D01*
X147862815Y-100529646D01*
X147841183Y-100527475D01*
X147825047Y-100526088D01*
X147817643Y-100525699D01*
X147811440Y-100529871D01*
X147805198Y-100543014D01*
X147800982Y-100556547D01*
X147784211Y-100602434D01*
X147761729Y-100640188D01*
X147733669Y-100669634D01*
X147700163Y-100690597D01*
X147699452Y-100690922D01*
X147661370Y-100704060D01*
X147620087Y-100711073D01*
X147577564Y-100712204D01*
X147535762Y-100707700D01*
X147496643Y-100697805D01*
X147462166Y-100682766D01*
X147434294Y-100662828D01*
X147428506Y-100657017D01*
X147414830Y-100637520D01*
X147403832Y-100613299D01*
X147397430Y-100589048D01*
X147396552Y-100578746D01*
X147398958Y-100561049D01*
X147405160Y-100541552D01*
X147407870Y-100535607D01*
X147415723Y-100522387D01*
X147425630Y-100510857D01*
X147438699Y-100500494D01*
X147456035Y-100490774D01*
X147478747Y-100481172D01*
X147507940Y-100471165D01*
X147544720Y-100460228D01*
X147590196Y-100447838D01*
X147597100Y-100446015D01*
X147653990Y-100430669D01*
X147702083Y-100416757D01*
X147742553Y-100403764D01*
X147776575Y-100391175D01*
X147805323Y-100378475D01*
X147829971Y-100365148D01*
X147851694Y-100350679D01*
X147871665Y-100334553D01*
X147889685Y-100317627D01*
X147923406Y-100278802D01*
X147947588Y-100238380D01*
X147962852Y-100194882D01*
X147969819Y-100146831D01*
X147970420Y-100125299D01*
X147965473Y-100074932D01*
X147951195Y-100027629D01*
X147928153Y-99984172D01*
X147896916Y-99945342D01*
X147858053Y-99911921D01*
X147812131Y-99884690D01*
X147787600Y-99873989D01*
X147762992Y-99864980D01*
X147740193Y-99858221D01*
X147717078Y-99853422D01*
X147691527Y-99850291D01*
X147661414Y-99848538D01*
X147624619Y-99847870D01*
X147597100Y-99847876D01*
G36*
X144092125Y-99863429D02*
X144044062Y-99873281D01*
X144000981Y-99890391D01*
X143961273Y-99915389D01*
X143925570Y-99946656D01*
X143901371Y-99972491D01*
X143883654Y-99995838D01*
X143870260Y-100019559D01*
X143869690Y-100020754D01*
X143862487Y-100036567D01*
X143857745Y-100049596D01*
X143854953Y-100062733D01*
X143853598Y-100078873D01*
X143853169Y-100100907D01*
X143853140Y-100114226D01*
X143853295Y-100139916D01*
X143854107Y-100158299D01*
X143856098Y-100172230D01*
X143859790Y-100184562D01*
X143865704Y-100198149D01*
X143870170Y-100207346D01*
X143890527Y-100240326D01*
X143917434Y-100271836D01*
X143947792Y-100298523D01*
X143965231Y-100310162D01*
X143988923Y-100324046D01*
X143961672Y-100334134D01*
X143916612Y-100355908D01*
X143878201Y-100385131D01*
X143847004Y-100421186D01*
X143823591Y-100463453D01*
X143811796Y-100497660D01*
X143807311Y-100523503D01*
X143805377Y-100555382D01*
X143805967Y-100589506D01*
X143809057Y-100622083D01*
X143812750Y-100642171D01*
X143823780Y-100679357D01*
X143838969Y-100712391D01*
X143859830Y-100743829D01*
X143887877Y-100776225D01*
X143898718Y-100787313D01*
X143930838Y-100817098D01*
X143961101Y-100839620D01*
X143992429Y-100856585D01*
X144027741Y-100869697D01*
X144050803Y-100876109D01*
X144087631Y-100882634D01*
X144129780Y-100885590D01*
X144173038Y-100884927D01*
X144213196Y-100880598D01*
X144225974Y-100878156D01*
X144277302Y-100861849D01*
X144325072Y-100836647D01*
X144368045Y-100803547D01*
X144404981Y-100763544D01*
X144434642Y-100717635D01*
X144440707Y-100705495D01*
X144448177Y-100687379D01*
X144455185Y-100666419D01*
X144461143Y-100645002D01*
X144465463Y-100625519D01*
X144467557Y-100610358D01*
X144466838Y-100601907D01*
X144466357Y-100601276D01*
X144460771Y-100599916D01*
X144447098Y-100597566D01*
X144427333Y-100594504D01*
X144403471Y-100591008D01*
X144377506Y-100587352D01*
X144351433Y-100583815D01*
X144327247Y-100580674D01*
X144306941Y-100578204D01*
X144292511Y-100576683D01*
X144286631Y-100576333D01*
X144283750Y-100580875D01*
X144280046Y-100592442D01*
X144277759Y-100601967D01*
X144265428Y-100640200D01*
X144246841Y-100672242D01*
X144223131Y-100697547D01*
X144195431Y-100715574D01*
X144164875Y-100725777D01*
X144132597Y-100727615D01*
X144099730Y-100720543D01*
X144067407Y-100704017D01*
X144066393Y-100703326D01*
X144040560Y-100679497D01*
X144021140Y-100648404D01*
X144008542Y-100610977D01*
X144003172Y-100568146D01*
X144003000Y-100558505D01*
X144006804Y-100515230D01*
X144017980Y-100478017D01*
X144036179Y-100447371D01*
X144061053Y-100423797D01*
X144092251Y-100407803D01*
X144110620Y-100402698D01*
X144128390Y-100399877D01*
X144145387Y-100399695D01*
X144165797Y-100402276D01*
X144178805Y-100404682D01*
X144197694Y-100408134D01*
X144212357Y-100410325D01*
X144220285Y-100410899D01*
X144220956Y-100410720D01*
X144220982Y-100405438D01*
X144219857Y-100392290D01*
X144217851Y-100373468D01*
X144215233Y-100351167D01*
X144212272Y-100327580D01*
X144209236Y-100304900D01*
X144206396Y-100285322D01*
X144204020Y-100271039D01*
X144203509Y-100268454D01*
X144200695Y-100262252D01*
X144193851Y-100258268D01*
X144180586Y-100255493D01*
X144169469Y-100254091D01*
X144129417Y-100245695D01*
X144096660Y-100230622D01*
X144071532Y-100209250D01*
X144054370Y-100181959D01*
X144045508Y-100149125D01*
X144045035Y-100113659D01*
X144050769Y-100084232D01*
X144060975Y-100063081D01*
X144080880Y-100041626D01*
X144106295Y-100027184D01*
X144135195Y-100019954D01*
X144165555Y-100020132D01*
X144195352Y-100027916D01*
X144222560Y-100043502D01*
X144226764Y-100046926D01*
X144241381Y-100062506D01*
X144254978Y-100082228D01*
X144265686Y-100102814D01*
X144271638Y-100120986D01*
X144272269Y-100126820D01*
X144272794Y-100135411D01*
X144275024Y-100141399D01*
X144280311Y-100144922D01*
X144290010Y-100146124D01*
X144305473Y-100145143D01*
X144328054Y-100142123D01*
X144359107Y-100137204D01*
X144364086Y-100136392D01*
X144392101Y-100131662D01*
X144416574Y-100127241D01*
X144435753Y-100123469D01*
X144447890Y-100120685D01*
X144451278Y-100119490D01*
X144452142Y-100112824D01*
X144449785Y-100098936D01*
X144444854Y-100080000D01*
X144437997Y-100058189D01*
X144429862Y-100035676D01*
X144421095Y-100014634D01*
X144418181Y-100008399D01*
X144393195Y-99968100D01*
X144360354Y-99933391D01*
X144320606Y-99904791D01*
X144274899Y-99882817D01*
X144224180Y-99867986D01*
X144169398Y-99860815D01*
X144146778Y-99860208D01*
X144092125Y-99863429D01*
X144092125Y-99863429D01*
G37*
X144092125Y-99863429D02*
X144044062Y-99873281D01*
X144000981Y-99890391D01*
X143961273Y-99915389D01*
X143925570Y-99946656D01*
X143901371Y-99972491D01*
X143883654Y-99995838D01*
X143870260Y-100019559D01*
X143869690Y-100020754D01*
X143862487Y-100036567D01*
X143857745Y-100049596D01*
X143854953Y-100062733D01*
X143853598Y-100078873D01*
X143853169Y-100100907D01*
X143853140Y-100114226D01*
X143853295Y-100139916D01*
X143854107Y-100158299D01*
X143856098Y-100172230D01*
X143859790Y-100184562D01*
X143865704Y-100198149D01*
X143870170Y-100207346D01*
X143890527Y-100240326D01*
X143917434Y-100271836D01*
X143947792Y-100298523D01*
X143965231Y-100310162D01*
X143988923Y-100324046D01*
X143961672Y-100334134D01*
X143916612Y-100355908D01*
X143878201Y-100385131D01*
X143847004Y-100421186D01*
X143823591Y-100463453D01*
X143811796Y-100497660D01*
X143807311Y-100523503D01*
X143805377Y-100555382D01*
X143805967Y-100589506D01*
X143809057Y-100622083D01*
X143812750Y-100642171D01*
X143823780Y-100679357D01*
X143838969Y-100712391D01*
X143859830Y-100743829D01*
X143887877Y-100776225D01*
X143898718Y-100787313D01*
X143930838Y-100817098D01*
X143961101Y-100839620D01*
X143992429Y-100856585D01*
X144027741Y-100869697D01*
X144050803Y-100876109D01*
X144087631Y-100882634D01*
X144129780Y-100885590D01*
X144173038Y-100884927D01*
X144213196Y-100880598D01*
X144225974Y-100878156D01*
X144277302Y-100861849D01*
X144325072Y-100836647D01*
X144368045Y-100803547D01*
X144404981Y-100763544D01*
X144434642Y-100717635D01*
X144440707Y-100705495D01*
X144448177Y-100687379D01*
X144455185Y-100666419D01*
X144461143Y-100645002D01*
X144465463Y-100625519D01*
X144467557Y-100610358D01*
X144466838Y-100601907D01*
X144466357Y-100601276D01*
X144460771Y-100599916D01*
X144447098Y-100597566D01*
X144427333Y-100594504D01*
X144403471Y-100591008D01*
X144377506Y-100587352D01*
X144351433Y-100583815D01*
X144327247Y-100580674D01*
X144306941Y-100578204D01*
X144292511Y-100576683D01*
X144286631Y-100576333D01*
X144283750Y-100580875D01*
X144280046Y-100592442D01*
X144277759Y-100601967D01*
X144265428Y-100640200D01*
X144246841Y-100672242D01*
X144223131Y-100697547D01*
X144195431Y-100715574D01*
X144164875Y-100725777D01*
X144132597Y-100727615D01*
X144099730Y-100720543D01*
X144067407Y-100704017D01*
X144066393Y-100703326D01*
X144040560Y-100679497D01*
X144021140Y-100648404D01*
X144008542Y-100610977D01*
X144003172Y-100568146D01*
X144003000Y-100558505D01*
X144006804Y-100515230D01*
X144017980Y-100478017D01*
X144036179Y-100447371D01*
X144061053Y-100423797D01*
X144092251Y-100407803D01*
X144110620Y-100402698D01*
X144128390Y-100399877D01*
X144145387Y-100399695D01*
X144165797Y-100402276D01*
X144178805Y-100404682D01*
X144197694Y-100408134D01*
X144212357Y-100410325D01*
X144220285Y-100410899D01*
X144220956Y-100410720D01*
X144220982Y-100405438D01*
X144219857Y-100392290D01*
X144217851Y-100373468D01*
X144215233Y-100351167D01*
X144212272Y-100327580D01*
X144209236Y-100304900D01*
X144206396Y-100285322D01*
X144204020Y-100271039D01*
X144203509Y-100268454D01*
X144200695Y-100262252D01*
X144193851Y-100258268D01*
X144180586Y-100255493D01*
X144169469Y-100254091D01*
X144129417Y-100245695D01*
X144096660Y-100230622D01*
X144071532Y-100209250D01*
X144054370Y-100181959D01*
X144045508Y-100149125D01*
X144045035Y-100113659D01*
X144050769Y-100084232D01*
X144060975Y-100063081D01*
X144080880Y-100041626D01*
X144106295Y-100027184D01*
X144135195Y-100019954D01*
X144165555Y-100020132D01*
X144195352Y-100027916D01*
X144222560Y-100043502D01*
X144226764Y-100046926D01*
X144241381Y-100062506D01*
X144254978Y-100082228D01*
X144265686Y-100102814D01*
X144271638Y-100120986D01*
X144272269Y-100126820D01*
X144272794Y-100135411D01*
X144275024Y-100141399D01*
X144280311Y-100144922D01*
X144290010Y-100146124D01*
X144305473Y-100145143D01*
X144328054Y-100142123D01*
X144359107Y-100137204D01*
X144364086Y-100136392D01*
X144392101Y-100131662D01*
X144416574Y-100127241D01*
X144435753Y-100123469D01*
X144447890Y-100120685D01*
X144451278Y-100119490D01*
X144452142Y-100112824D01*
X144449785Y-100098936D01*
X144444854Y-100080000D01*
X144437997Y-100058189D01*
X144429862Y-100035676D01*
X144421095Y-100014634D01*
X144418181Y-100008399D01*
X144393195Y-99968100D01*
X144360354Y-99933391D01*
X144320606Y-99904791D01*
X144274899Y-99882817D01*
X144224180Y-99867986D01*
X144169398Y-99860815D01*
X144146778Y-99860208D01*
X144092125Y-99863429D01*
G36*
X146101040Y-100032840D02*
X146400760Y-100032840D01*
X146400760Y-100865960D01*
X146603960Y-100865960D01*
X146603960Y-100032840D01*
X146898600Y-100032840D01*
X146898600Y-99865200D01*
X146101040Y-99865200D01*
X146101040Y-100032840D01*
X146101040Y-100032840D01*
G37*
X146101040Y-100032840D02*
X146400760Y-100032840D01*
X146400760Y-100865960D01*
X146603960Y-100865960D01*
X146603960Y-100032840D01*
X146898600Y-100032840D01*
X146898600Y-99865200D01*
X146101040Y-99865200D01*
X146101040Y-100032840D01*
G36*
X144815800Y-100865960D02*
X145002180Y-100865960D01*
X145005492Y-100793570D01*
X145006101Y-100775222D01*
X145006691Y-100747872D01*
X145007249Y-100712674D01*
X145007764Y-100670785D01*
X145008225Y-100623361D01*
X145008620Y-100571560D01*
X145008938Y-100516536D01*
X145009168Y-100459447D01*
X145009287Y-100408760D01*
X145009771Y-100096340D01*
X145106454Y-100481150D01*
X145203136Y-100865960D01*
X145399003Y-100865960D01*
X145592445Y-100091260D01*
X145592743Y-100478610D01*
X145593040Y-100865960D01*
X145786080Y-100865960D01*
X145786080Y-99865051D01*
X145632999Y-99866395D01*
X145479918Y-99867740D01*
X145390467Y-100204402D01*
X145375444Y-100260723D01*
X145361147Y-100313908D01*
X145347790Y-100363182D01*
X145335588Y-100407771D01*
X145324756Y-100446901D01*
X145315510Y-100479796D01*
X145308066Y-100505684D01*
X145302637Y-100523789D01*
X145299441Y-100533338D01*
X145298666Y-100534602D01*
X145297004Y-100528704D01*
X145292977Y-100513803D01*
X145286806Y-100490723D01*
X145278707Y-100460286D01*
X145268900Y-100423317D01*
X145257603Y-100380639D01*
X145245033Y-100333075D01*
X145231410Y-100281448D01*
X145216951Y-100226583D01*
X145209409Y-100197940D01*
X145122502Y-99867740D01*
X144969151Y-99866395D01*
X144815800Y-99865051D01*
X144815800Y-100865960D01*
X144815800Y-100865960D01*
G37*
X144815800Y-100865960D02*
X145002180Y-100865960D01*
X145005492Y-100793570D01*
X145006101Y-100775222D01*
X145006691Y-100747872D01*
X145007249Y-100712674D01*
X145007764Y-100670785D01*
X145008225Y-100623361D01*
X145008620Y-100571560D01*
X145008938Y-100516536D01*
X145009168Y-100459447D01*
X145009287Y-100408760D01*
X145009771Y-100096340D01*
X145106454Y-100481150D01*
X145203136Y-100865960D01*
X145399003Y-100865960D01*
X145592445Y-100091260D01*
X145592743Y-100478610D01*
X145593040Y-100865960D01*
X145786080Y-100865960D01*
X145786080Y-99865051D01*
X145632999Y-99866395D01*
X145479918Y-99867740D01*
X145390467Y-100204402D01*
X145375444Y-100260723D01*
X145361147Y-100313908D01*
X145347790Y-100363182D01*
X145335588Y-100407771D01*
X145324756Y-100446901D01*
X145315510Y-100479796D01*
X145308066Y-100505684D01*
X145302637Y-100523789D01*
X145299441Y-100533338D01*
X145298666Y-100534602D01*
X145297004Y-100528704D01*
X145292977Y-100513803D01*
X145286806Y-100490723D01*
X145278707Y-100460286D01*
X145268900Y-100423317D01*
X145257603Y-100380639D01*
X145245033Y-100333075D01*
X145231410Y-100281448D01*
X145216951Y-100226583D01*
X145209409Y-100197940D01*
X145122502Y-99867740D01*
X144969151Y-99866395D01*
X144815800Y-99865051D01*
X144815800Y-100865960D01*
G36*
X143101913Y-99863674D02*
X143047541Y-99874505D01*
X142999106Y-99892859D01*
X142955905Y-99918988D01*
X142926122Y-99944218D01*
X142893021Y-99981414D01*
X142869004Y-100020897D01*
X142853482Y-100064099D01*
X142845867Y-100112449D01*
X142844836Y-100141857D01*
X142848434Y-100193041D01*
X142859341Y-100242494D01*
X142877987Y-100291027D01*
X142904796Y-100339449D01*
X142940198Y-100388570D01*
X142984619Y-100439201D01*
X143020928Y-100475609D01*
X143060635Y-100513897D01*
X143097394Y-100549725D01*
X143130565Y-100582449D01*
X143159508Y-100611421D01*
X143183583Y-100635996D01*
X143202151Y-100655529D01*
X143214572Y-100669372D01*
X143220129Y-100676730D01*
X143226118Y-100688160D01*
X142844760Y-100688160D01*
X142844760Y-100865960D01*
X143515320Y-100865960D01*
X143515320Y-100854072D01*
X143513248Y-100836154D01*
X143507568Y-100811711D01*
X143499092Y-100783367D01*
X143488629Y-100753748D01*
X143476987Y-100725477D01*
X143473001Y-100716840D01*
X143462105Y-100695090D01*
X143450392Y-100674286D01*
X143437140Y-100653566D01*
X143421626Y-100632068D01*
X143403126Y-100608931D01*
X143380917Y-100583295D01*
X143354276Y-100554296D01*
X143322481Y-100521074D01*
X143284807Y-100482768D01*
X143240531Y-100438515D01*
X143233587Y-100431620D01*
X143195993Y-100394269D01*
X143164912Y-100363231D01*
X143139615Y-100337696D01*
X143119372Y-100316850D01*
X143103452Y-100299884D01*
X143091127Y-100285986D01*
X143081666Y-100274343D01*
X143074339Y-100264146D01*
X143068416Y-100254583D01*
X143063169Y-100244842D01*
X143060172Y-100238843D01*
X143050820Y-100219176D01*
X143044990Y-100204072D01*
X143041853Y-100189823D01*
X143040584Y-100172718D01*
X143040355Y-100149943D01*
X143040764Y-100125243D01*
X143042303Y-100107684D01*
X143045468Y-100094269D01*
X143050752Y-100081998D01*
X143051923Y-100079761D01*
X143070271Y-100055479D01*
X143095605Y-100036278D01*
X143125243Y-100024111D01*
X143129748Y-100023045D01*
X143154896Y-100018716D01*
X143175585Y-100018286D01*
X143196798Y-100021908D01*
X143209901Y-100025506D01*
X143240913Y-100039623D01*
X143265622Y-100061690D01*
X143284036Y-100091720D01*
X143296165Y-100129725D01*
X143299167Y-100146521D01*
X143302778Y-100171302D01*
X143329039Y-100168347D01*
X143344411Y-100166737D01*
X143366892Y-100164533D01*
X143393471Y-100162025D01*
X143421137Y-100159501D01*
X143421340Y-100159483D01*
X143446280Y-100157034D01*
X143467489Y-100154542D01*
X143482950Y-100152272D01*
X143490644Y-100150494D01*
X143491034Y-100150259D01*
X143492410Y-100143114D01*
X143490897Y-100128558D01*
X143487041Y-100108745D01*
X143481386Y-100085828D01*
X143474476Y-100061959D01*
X143466856Y-100039291D01*
X143459070Y-100019977D01*
X143456943Y-100015480D01*
X143430348Y-99972786D01*
X143396182Y-99936503D01*
X143354980Y-99906913D01*
X143307273Y-99884298D01*
X143253594Y-99868939D01*
X143194477Y-99861116D01*
X143162922Y-99860120D01*
X143101913Y-99863674D01*
X143101913Y-99863674D01*
G37*
X143101913Y-99863674D02*
X143047541Y-99874505D01*
X142999106Y-99892859D01*
X142955905Y-99918988D01*
X142926122Y-99944218D01*
X142893021Y-99981414D01*
X142869004Y-100020897D01*
X142853482Y-100064099D01*
X142845867Y-100112449D01*
X142844836Y-100141857D01*
X142848434Y-100193041D01*
X142859341Y-100242494D01*
X142877987Y-100291027D01*
X142904796Y-100339449D01*
X142940198Y-100388570D01*
X142984619Y-100439201D01*
X143020928Y-100475609D01*
X143060635Y-100513897D01*
X143097394Y-100549725D01*
X143130565Y-100582449D01*
X143159508Y-100611421D01*
X143183583Y-100635996D01*
X143202151Y-100655529D01*
X143214572Y-100669372D01*
X143220129Y-100676730D01*
X143226118Y-100688160D01*
X142844760Y-100688160D01*
X142844760Y-100865960D01*
X143515320Y-100865960D01*
X143515320Y-100854072D01*
X143513248Y-100836154D01*
X143507568Y-100811711D01*
X143499092Y-100783367D01*
X143488629Y-100753748D01*
X143476987Y-100725477D01*
X143473001Y-100716840D01*
X143462105Y-100695090D01*
X143450392Y-100674286D01*
X143437140Y-100653566D01*
X143421626Y-100632068D01*
X143403126Y-100608931D01*
X143380917Y-100583295D01*
X143354276Y-100554296D01*
X143322481Y-100521074D01*
X143284807Y-100482768D01*
X143240531Y-100438515D01*
X143233587Y-100431620D01*
X143195993Y-100394269D01*
X143164912Y-100363231D01*
X143139615Y-100337696D01*
X143119372Y-100316850D01*
X143103452Y-100299884D01*
X143091127Y-100285986D01*
X143081666Y-100274343D01*
X143074339Y-100264146D01*
X143068416Y-100254583D01*
X143063169Y-100244842D01*
X143060172Y-100238843D01*
X143050820Y-100219176D01*
X143044990Y-100204072D01*
X143041853Y-100189823D01*
X143040584Y-100172718D01*
X143040355Y-100149943D01*
X143040764Y-100125243D01*
X143042303Y-100107684D01*
X143045468Y-100094269D01*
X143050752Y-100081998D01*
X143051923Y-100079761D01*
X143070271Y-100055479D01*
X143095605Y-100036278D01*
X143125243Y-100024111D01*
X143129748Y-100023045D01*
X143154896Y-100018716D01*
X143175585Y-100018286D01*
X143196798Y-100021908D01*
X143209901Y-100025506D01*
X143240913Y-100039623D01*
X143265622Y-100061690D01*
X143284036Y-100091720D01*
X143296165Y-100129725D01*
X143299167Y-100146521D01*
X143302778Y-100171302D01*
X143329039Y-100168347D01*
X143344411Y-100166737D01*
X143366892Y-100164533D01*
X143393471Y-100162025D01*
X143421137Y-100159501D01*
X143421340Y-100159483D01*
X143446280Y-100157034D01*
X143467489Y-100154542D01*
X143482950Y-100152272D01*
X143490644Y-100150494D01*
X143491034Y-100150259D01*
X143492410Y-100143114D01*
X143490897Y-100128558D01*
X143487041Y-100108745D01*
X143481386Y-100085828D01*
X143474476Y-100061959D01*
X143466856Y-100039291D01*
X143459070Y-100019977D01*
X143456943Y-100015480D01*
X143430348Y-99972786D01*
X143396182Y-99936503D01*
X143354980Y-99906913D01*
X143307273Y-99884298D01*
X143253594Y-99868939D01*
X143194477Y-99861116D01*
X143162922Y-99860120D01*
X143101913Y-99863674D01*
G36*
X146838134Y-96780172D02*
X146712419Y-96793392D01*
X146671551Y-96799666D01*
X146648373Y-96803497D01*
X146627385Y-96806970D01*
X146611674Y-96809573D01*
X146606500Y-96810433D01*
X146571662Y-96817447D01*
X146530012Y-96827798D01*
X146484038Y-96840724D01*
X146436226Y-96855468D01*
X146389063Y-96871268D01*
X146345036Y-96887365D01*
X146314400Y-96899669D01*
X146202954Y-96952046D01*
X146093965Y-97013923D01*
X145988282Y-97084768D01*
X145886755Y-97164048D01*
X145869900Y-97178385D01*
X145843359Y-97202184D01*
X145811978Y-97231845D01*
X145777555Y-97265539D01*
X145741889Y-97301437D01*
X145706779Y-97337710D01*
X145674024Y-97372530D01*
X145645423Y-97404067D01*
X145627158Y-97425206D01*
X145612320Y-97443372D01*
X145593373Y-97467269D01*
X145571432Y-97495426D01*
X145547609Y-97526373D01*
X145523019Y-97558638D01*
X145498777Y-97590750D01*
X145475996Y-97621238D01*
X145455790Y-97648632D01*
X145439274Y-97671460D01*
X145427561Y-97688250D01*
X145424972Y-97692167D01*
X145416461Y-97703694D01*
X145409411Y-97710469D01*
X145407518Y-97711217D01*
X145402935Y-97707277D01*
X145393817Y-97696394D01*
X145381313Y-97680045D01*
X145366575Y-97659705D01*
X145359824Y-97650080D01*
X145292653Y-97558107D01*
X145218792Y-97465521D01*
X145140948Y-97375564D01*
X145061830Y-97291478D01*
X145052089Y-97281645D01*
X144966395Y-97199847D01*
X144881123Y-97127099D01*
X144794931Y-97062443D01*
X144706477Y-97004924D01*
X144614419Y-96953585D01*
X144543109Y-96918975D01*
X144501628Y-96901123D01*
X144455276Y-96883078D01*
X144406153Y-96865513D01*
X144356362Y-96849100D01*
X144308003Y-96834511D01*
X144263177Y-96822420D01*
X144223986Y-96813498D01*
X144201120Y-96809512D01*
X144181382Y-96806410D01*
X144159522Y-96802598D01*
X144152860Y-96801349D01*
X144118724Y-96795235D01*
X144085359Y-96790297D01*
X144050940Y-96786389D01*
X144013642Y-96783361D01*
X143971638Y-96781065D01*
X143923104Y-96779352D01*
X143867110Y-96778090D01*
X143819163Y-96777384D01*
X143779712Y-96777149D01*
X143749110Y-96777381D01*
X143727709Y-96778073D01*
X143715861Y-96779222D01*
X143713440Y-96780284D01*
X143708798Y-96783171D01*
X143696584Y-96786084D01*
X143679365Y-96788424D01*
X143678023Y-96788552D01*
X143657371Y-96791017D01*
X143630946Y-96794938D01*
X143602914Y-96799672D01*
X143587853Y-96802479D01*
X143564158Y-96807055D01*
X143543047Y-96811084D01*
X143527206Y-96814055D01*
X143520400Y-96815282D01*
X143505314Y-96818592D01*
X143483244Y-96824344D01*
X143456845Y-96831760D01*
X143428767Y-96840059D01*
X143401664Y-96848461D01*
X143378189Y-96856188D01*
X143364213Y-96861201D01*
X143344123Y-96868603D01*
X143325154Y-96875163D01*
X143312120Y-96879249D01*
X143298468Y-96884174D01*
X143277777Y-96893019D01*
X143251936Y-96904854D01*
X143222833Y-96918748D01*
X143192357Y-96933770D01*
X143162395Y-96948988D01*
X143134837Y-96963472D01*
X143111570Y-96976290D01*
X143094483Y-96986512D01*
X143094215Y-96986685D01*
X143077153Y-96997403D01*
X143063213Y-97005569D01*
X143054655Y-97009881D01*
X143053322Y-97010240D01*
X143047617Y-97013110D01*
X143035752Y-97020861D01*
X143019638Y-97032202D01*
X143006490Y-97041857D01*
X142986599Y-97056614D01*
X142967792Y-97070401D01*
X142952796Y-97081229D01*
X142946926Y-97085362D01*
X142909221Y-97113989D01*
X142867910Y-97149890D01*
X142824394Y-97191500D01*
X142780078Y-97237256D01*
X142736363Y-97285592D01*
X142694654Y-97334944D01*
X142656352Y-97383747D01*
X142622861Y-97430437D01*
X142595585Y-97473448D01*
X142589779Y-97483663D01*
X142581079Y-97499234D01*
X142569285Y-97520129D01*
X142556368Y-97542861D01*
X142550409Y-97553295D01*
X142539656Y-97572376D01*
X142531115Y-97588084D01*
X142525863Y-97598403D01*
X142524720Y-97601323D01*
X142522821Y-97606847D01*
X142517584Y-97620012D01*
X142509700Y-97639133D01*
X142499860Y-97662523D01*
X142494029Y-97676214D01*
X142482602Y-97703569D01*
X142472090Y-97729905D01*
X142463436Y-97752773D01*
X142457586Y-97769722D01*
X142456302Y-97774073D01*
X142441605Y-97829412D01*
X142429551Y-97876910D01*
X142419784Y-97918431D01*
X142411948Y-97955841D01*
X142405687Y-97991005D01*
X142400643Y-98025788D01*
X142396461Y-98062054D01*
X142392783Y-98101671D01*
X142392085Y-98110060D01*
X142389566Y-98140838D01*
X142387791Y-98164299D01*
X142386762Y-98183025D01*
X142386478Y-98199595D01*
X142386938Y-98216589D01*
X142388145Y-98236586D01*
X142390096Y-98262168D01*
X142392086Y-98287042D01*
X142401117Y-98369239D01*
X142414956Y-98453290D01*
X142432939Y-98536028D01*
X142454403Y-98614284D01*
X142471297Y-98665130D01*
X142482142Y-98693190D01*
X142496267Y-98726828D01*
X142512407Y-98763277D01*
X142529296Y-98799767D01*
X142545667Y-98833531D01*
X142560255Y-98861799D01*
X142565841Y-98871886D01*
X142582633Y-98900201D01*
X142602578Y-98932114D01*
X142624169Y-98965366D01*
X142645904Y-98997698D01*
X142666278Y-99026854D01*
X142683787Y-99050574D01*
X142690793Y-99059442D01*
X142709148Y-99081282D01*
X142731624Y-99107063D01*
X142756439Y-99134832D01*
X142781813Y-99162638D01*
X142805964Y-99188528D01*
X142827113Y-99210552D01*
X142843411Y-99226695D01*
X142909732Y-99284413D01*
X142984185Y-99340300D01*
X143064762Y-99393197D01*
X143149459Y-99441943D01*
X143236267Y-99485376D01*
X143323181Y-99522336D01*
X143401734Y-99549693D01*
X143475426Y-99570923D01*
X143546009Y-99587972D01*
X143615678Y-99601143D01*
X143686624Y-99610735D01*
X143761040Y-99617049D01*
X143841118Y-99620387D01*
X143921720Y-99621088D01*
X143994820Y-99619952D01*
X144060192Y-99617000D01*
X144120155Y-99611935D01*
X144177025Y-99604460D01*
X144233122Y-99594278D01*
X144290762Y-99581094D01*
X144343157Y-99567177D01*
X144446615Y-99534109D01*
X144545493Y-99493893D01*
X144640625Y-99446023D01*
X144732844Y-99389996D01*
X144822982Y-99325308D01*
X144911875Y-99251453D01*
X144996492Y-99171780D01*
X145049869Y-99117278D01*
X145100024Y-99062991D01*
X145148191Y-99007391D01*
X145195606Y-98948947D01*
X145243504Y-98886132D01*
X145293119Y-98817415D01*
X145345687Y-98741268D01*
X145353425Y-98729820D01*
X145369615Y-98706214D01*
X145384154Y-98685771D01*
X145395992Y-98669908D01*
X145404077Y-98660045D01*
X145407042Y-98657441D01*
X145412250Y-98660822D01*
X145421067Y-98670918D01*
X145431831Y-98685760D01*
X145434943Y-98690461D01*
X145459894Y-98728040D01*
X145488784Y-98770102D01*
X145520013Y-98814424D01*
X145551981Y-98858780D01*
X145583086Y-98900948D01*
X145611728Y-98938702D01*
X145633382Y-98966209D01*
X145717900Y-99066313D01*
X145802314Y-99156748D01*
X145887194Y-99237981D01*
X145973106Y-99310480D01*
X146060618Y-99374714D01*
X146150298Y-99431150D01*
X146242713Y-99480257D01*
X146275542Y-99495677D01*
X146380683Y-99538667D01*
X146486809Y-99572297D01*
X146595735Y-99597062D01*
X146708159Y-99613336D01*
X146729810Y-99615069D01*
X146759330Y-99616599D01*
X146794780Y-99617899D01*
X146834221Y-99618944D01*
X146875715Y-99619707D01*
X146917320Y-99620162D01*
X146957100Y-99620283D01*
X146993115Y-99620042D01*
X147023425Y-99619415D01*
X147046091Y-99618374D01*
X147051000Y-99617987D01*
X147108139Y-99612462D01*
X147157426Y-99606820D01*
X147201165Y-99600667D01*
X147241662Y-99593609D01*
X147281219Y-99585250D01*
X147322142Y-99575199D01*
X147358340Y-99565414D01*
X147457236Y-99534710D01*
X147549426Y-99499319D01*
X147637777Y-99457958D01*
X147725154Y-99409345D01*
X147771094Y-99380816D01*
X147851199Y-99324814D01*
X147929715Y-99261062D01*
X148005077Y-99191153D01*
X148075717Y-99116683D01*
X148140069Y-99039244D01*
X148196567Y-98960430D01*
X148218731Y-98925401D01*
X148271988Y-98830198D01*
X148317473Y-98733442D01*
X148354678Y-98636415D01*
X148383093Y-98540402D01*
X148397259Y-98475684D01*
X148401989Y-98451767D01*
X148406535Y-98431436D01*
X148410383Y-98416824D01*
X148413022Y-98410063D01*
X148413048Y-98410034D01*
X148414095Y-98404040D01*
X148414999Y-98389334D01*
X148415761Y-98367204D01*
X148416381Y-98338943D01*
X148416858Y-98305841D01*
X148417193Y-98269189D01*
X148417385Y-98230278D01*
X148417405Y-98213329D01*
X147922852Y-98213329D01*
X147922078Y-98256250D01*
X147920373Y-98296294D01*
X147917736Y-98331296D01*
X147914168Y-98359090D01*
X147912724Y-98366600D01*
X147887100Y-98462181D01*
X147852720Y-98552610D01*
X147809574Y-98637906D01*
X147757653Y-98718087D01*
X147696946Y-98793172D01*
X147668937Y-98823080D01*
X147595100Y-98891653D01*
X147516086Y-98951619D01*
X147432287Y-99002782D01*
X147344094Y-99044943D01*
X147251897Y-99077904D01*
X147156089Y-99101468D01*
X147100807Y-99110512D01*
X147075721Y-99113776D01*
X147053520Y-99116309D01*
X147032385Y-99118187D01*
X147010498Y-99119490D01*
X146986039Y-99120297D01*
X146957192Y-99120686D01*
X146922137Y-99120735D01*
X146879056Y-99120524D01*
X146870660Y-99120467D01*
X146827873Y-99119942D01*
X146793056Y-99118933D01*
X146764026Y-99117296D01*
X146738601Y-99114885D01*
X146714596Y-99111554D01*
X146700480Y-99109147D01*
X146606436Y-99087407D01*
X146517050Y-99056825D01*
X146431360Y-99017018D01*
X146357580Y-98973627D01*
X146290910Y-98926120D01*
X146223020Y-98869412D01*
X146154676Y-98804266D01*
X146086647Y-98731443D01*
X146019699Y-98651707D01*
X145974032Y-98592378D01*
X145954882Y-98565978D01*
X145931860Y-98533219D01*
X145905950Y-98495589D01*
X145878138Y-98454576D01*
X145849410Y-98411668D01*
X145820750Y-98368353D01*
X145793143Y-98326118D01*
X145767576Y-98286451D01*
X145745032Y-98250841D01*
X145726499Y-98220775D01*
X145714512Y-98200476D01*
X145710666Y-98194132D01*
X145707711Y-98188901D01*
X145706126Y-98183785D01*
X145706341Y-98178870D01*
X145110440Y-98178870D01*
X145107699Y-98185874D01*
X145099922Y-98200243D01*
X145087778Y-98220939D01*
X145071936Y-98246919D01*
X145053067Y-98277143D01*
X145031839Y-98310570D01*
X145008922Y-98346161D01*
X144984985Y-98382873D01*
X144960698Y-98419667D01*
X144936730Y-98455502D01*
X144913750Y-98489338D01*
X144892428Y-98520133D01*
X144876202Y-98543010D01*
X144804297Y-98638734D01*
X144733276Y-98724708D01*
X144662812Y-98801269D01*
X144592580Y-98868754D01*
X144522251Y-98927502D01*
X144459996Y-98972256D01*
X144424837Y-98993851D01*
X144383921Y-99016062D01*
X144340149Y-99037523D01*
X144296424Y-99056869D01*
X144255648Y-99072731D01*
X144226520Y-99082162D01*
X144172228Y-99096394D01*
X144120204Y-99107377D01*
X144068495Y-99115281D01*
X144015149Y-99120275D01*
X143958214Y-99122529D01*
X143895737Y-99122211D01*
X143825766Y-99119490D01*
X143807420Y-99118486D01*
X143712192Y-99109419D01*
X143623030Y-99093308D01*
X143538338Y-99069778D01*
X143456518Y-99038456D01*
X143446236Y-99033894D01*
X143358072Y-98988656D01*
X143275241Y-98934934D01*
X143198319Y-98873222D01*
X143127879Y-98804012D01*
X143064494Y-98727797D01*
X143026726Y-98673777D01*
X142981369Y-98594815D01*
X142944879Y-98511229D01*
X142917449Y-98423681D01*
X142899272Y-98332835D01*
X142890539Y-98239355D01*
X142889734Y-98201433D01*
X142890463Y-98152199D01*
X142893050Y-98109170D01*
X142897951Y-98068486D01*
X142905624Y-98026287D01*
X142915797Y-97981697D01*
X142942336Y-97894204D01*
X142978283Y-97809670D01*
X143023136Y-97728811D01*
X143076393Y-97652344D01*
X143137553Y-97580986D01*
X143206115Y-97515452D01*
X143281575Y-97456461D01*
X143285240Y-97453891D01*
X143348758Y-97413847D01*
X143419111Y-97377043D01*
X143493365Y-97344728D01*
X143568589Y-97318152D01*
X143641852Y-97298564D01*
X143657560Y-97295287D01*
X143742974Y-97282541D01*
X143833258Y-97276623D01*
X143925803Y-97277490D01*
X144017995Y-97285097D01*
X144107225Y-97299401D01*
X144124920Y-97303158D01*
X144210740Y-97325647D01*
X144293389Y-97354520D01*
X144373322Y-97390135D01*
X144450990Y-97432851D01*
X144526847Y-97483027D01*
X144601346Y-97541023D01*
X144674941Y-97607196D01*
X144748083Y-97681906D01*
X144821227Y-97765512D01*
X144894825Y-97858372D01*
X144969331Y-97960845D01*
X144986497Y-97985600D01*
X145011373Y-98022063D01*
X145034865Y-98057057D01*
X145056322Y-98089565D01*
X145075093Y-98118570D01*
X145090526Y-98143059D01*
X145101970Y-98162014D01*
X145108774Y-98174420D01*
X145110440Y-98178870D01*
X145706341Y-98178870D01*
X145706389Y-98177788D01*
X145708980Y-98169914D01*
X145714376Y-98159164D01*
X145723058Y-98144544D01*
X145735504Y-98125055D01*
X145752191Y-98099701D01*
X145773601Y-98067485D01*
X145790882Y-98041480D01*
X145866707Y-97931196D01*
X145941477Y-97830667D01*
X146015612Y-97739594D01*
X146089534Y-97657678D01*
X146163662Y-97584622D01*
X146238419Y-97520127D01*
X146314224Y-97463895D01*
X146391499Y-97415628D01*
X146470664Y-97375028D01*
X146552140Y-97341796D01*
X146636348Y-97315635D01*
X146723708Y-97296246D01*
X146814642Y-97283331D01*
X146867135Y-97278825D01*
X146971485Y-97276075D01*
X147071361Y-97282219D01*
X147167421Y-97297384D01*
X147260321Y-97321694D01*
X147350720Y-97355276D01*
X147409140Y-97382484D01*
X147496289Y-97431811D01*
X147576395Y-97488326D01*
X147649197Y-97551691D01*
X147714431Y-97621568D01*
X147771837Y-97697619D01*
X147821150Y-97779504D01*
X147862109Y-97866887D01*
X147894451Y-97959430D01*
X147912744Y-98031320D01*
X147916629Y-98056159D01*
X147919583Y-98088945D01*
X147921604Y-98127511D01*
X147922694Y-98169694D01*
X147922852Y-98213329D01*
X148417405Y-98213329D01*
X148417434Y-98190399D01*
X148417339Y-98150843D01*
X148417102Y-98112900D01*
X148416721Y-98077863D01*
X148416196Y-98047021D01*
X148415528Y-98021665D01*
X148414716Y-98003087D01*
X148413759Y-97992577D01*
X148413095Y-97990680D01*
X148410027Y-97986113D01*
X148406882Y-97974381D01*
X148405171Y-97964010D01*
X148397127Y-97917014D01*
X148384752Y-97863805D01*
X148368753Y-97806990D01*
X148349838Y-97749179D01*
X148338402Y-97717781D01*
X148290988Y-97606217D01*
X148235453Y-97500730D01*
X148171691Y-97401153D01*
X148099595Y-97307317D01*
X148024267Y-97224336D01*
X147973044Y-97173887D01*
X147924734Y-97130175D01*
X147877000Y-97091239D01*
X147827505Y-97055117D01*
X147802840Y-97038470D01*
X147779904Y-97023308D01*
X147757744Y-97008596D01*
X147739000Y-96996092D01*
X147727032Y-96988039D01*
X147709956Y-96977556D01*
X147685863Y-96964261D01*
X147656780Y-96949131D01*
X147624736Y-96933145D01*
X147591760Y-96917282D01*
X147559879Y-96902520D01*
X147531123Y-96889837D01*
X147507520Y-96880212D01*
X147492960Y-96875146D01*
X147485665Y-96872798D01*
X147470627Y-96867818D01*
X147449728Y-96860834D01*
X147424850Y-96852473D01*
X147411680Y-96848031D01*
X147379742Y-96837491D01*
X147351573Y-96828874D01*
X147324700Y-96821583D01*
X147296650Y-96815020D01*
X147264950Y-96808589D01*
X147227125Y-96801692D01*
X147200860Y-96797151D01*
X147082928Y-96782049D01*
X146961828Y-96776390D01*
X146838134Y-96780172D01*
X146838134Y-96780172D01*
G37*
X146838134Y-96780172D02*
X146712419Y-96793392D01*
X146671551Y-96799666D01*
X146648373Y-96803497D01*
X146627385Y-96806970D01*
X146611674Y-96809573D01*
X146606500Y-96810433D01*
X146571662Y-96817447D01*
X146530012Y-96827798D01*
X146484038Y-96840724D01*
X146436226Y-96855468D01*
X146389063Y-96871268D01*
X146345036Y-96887365D01*
X146314400Y-96899669D01*
X146202954Y-96952046D01*
X146093965Y-97013923D01*
X145988282Y-97084768D01*
X145886755Y-97164048D01*
X145869900Y-97178385D01*
X145843359Y-97202184D01*
X145811978Y-97231845D01*
X145777555Y-97265539D01*
X145741889Y-97301437D01*
X145706779Y-97337710D01*
X145674024Y-97372530D01*
X145645423Y-97404067D01*
X145627158Y-97425206D01*
X145612320Y-97443372D01*
X145593373Y-97467269D01*
X145571432Y-97495426D01*
X145547609Y-97526373D01*
X145523019Y-97558638D01*
X145498777Y-97590750D01*
X145475996Y-97621238D01*
X145455790Y-97648632D01*
X145439274Y-97671460D01*
X145427561Y-97688250D01*
X145424972Y-97692167D01*
X145416461Y-97703694D01*
X145409411Y-97710469D01*
X145407518Y-97711217D01*
X145402935Y-97707277D01*
X145393817Y-97696394D01*
X145381313Y-97680045D01*
X145366575Y-97659705D01*
X145359824Y-97650080D01*
X145292653Y-97558107D01*
X145218792Y-97465521D01*
X145140948Y-97375564D01*
X145061830Y-97291478D01*
X145052089Y-97281645D01*
X144966395Y-97199847D01*
X144881123Y-97127099D01*
X144794931Y-97062443D01*
X144706477Y-97004924D01*
X144614419Y-96953585D01*
X144543109Y-96918975D01*
X144501628Y-96901123D01*
X144455276Y-96883078D01*
X144406153Y-96865513D01*
X144356362Y-96849100D01*
X144308003Y-96834511D01*
X144263177Y-96822420D01*
X144223986Y-96813498D01*
X144201120Y-96809512D01*
X144181382Y-96806410D01*
X144159522Y-96802598D01*
X144152860Y-96801349D01*
X144118724Y-96795235D01*
X144085359Y-96790297D01*
X144050940Y-96786389D01*
X144013642Y-96783361D01*
X143971638Y-96781065D01*
X143923104Y-96779352D01*
X143867110Y-96778090D01*
X143819163Y-96777384D01*
X143779712Y-96777149D01*
X143749110Y-96777381D01*
X143727709Y-96778073D01*
X143715861Y-96779222D01*
X143713440Y-96780284D01*
X143708798Y-96783171D01*
X143696584Y-96786084D01*
X143679365Y-96788424D01*
X143678023Y-96788552D01*
X143657371Y-96791017D01*
X143630946Y-96794938D01*
X143602914Y-96799672D01*
X143587853Y-96802479D01*
X143564158Y-96807055D01*
X143543047Y-96811084D01*
X143527206Y-96814055D01*
X143520400Y-96815282D01*
X143505314Y-96818592D01*
X143483244Y-96824344D01*
X143456845Y-96831760D01*
X143428767Y-96840059D01*
X143401664Y-96848461D01*
X143378189Y-96856188D01*
X143364213Y-96861201D01*
X143344123Y-96868603D01*
X143325154Y-96875163D01*
X143312120Y-96879249D01*
X143298468Y-96884174D01*
X143277777Y-96893019D01*
X143251936Y-96904854D01*
X143222833Y-96918748D01*
X143192357Y-96933770D01*
X143162395Y-96948988D01*
X143134837Y-96963472D01*
X143111570Y-96976290D01*
X143094483Y-96986512D01*
X143094215Y-96986685D01*
X143077153Y-96997403D01*
X143063213Y-97005569D01*
X143054655Y-97009881D01*
X143053322Y-97010240D01*
X143047617Y-97013110D01*
X143035752Y-97020861D01*
X143019638Y-97032202D01*
X143006490Y-97041857D01*
X142986599Y-97056614D01*
X142967792Y-97070401D01*
X142952796Y-97081229D01*
X142946926Y-97085362D01*
X142909221Y-97113989D01*
X142867910Y-97149890D01*
X142824394Y-97191500D01*
X142780078Y-97237256D01*
X142736363Y-97285592D01*
X142694654Y-97334944D01*
X142656352Y-97383747D01*
X142622861Y-97430437D01*
X142595585Y-97473448D01*
X142589779Y-97483663D01*
X142581079Y-97499234D01*
X142569285Y-97520129D01*
X142556368Y-97542861D01*
X142550409Y-97553295D01*
X142539656Y-97572376D01*
X142531115Y-97588084D01*
X142525863Y-97598403D01*
X142524720Y-97601323D01*
X142522821Y-97606847D01*
X142517584Y-97620012D01*
X142509700Y-97639133D01*
X142499860Y-97662523D01*
X142494029Y-97676214D01*
X142482602Y-97703569D01*
X142472090Y-97729905D01*
X142463436Y-97752773D01*
X142457586Y-97769722D01*
X142456302Y-97774073D01*
X142441605Y-97829412D01*
X142429551Y-97876910D01*
X142419784Y-97918431D01*
X142411948Y-97955841D01*
X142405687Y-97991005D01*
X142400643Y-98025788D01*
X142396461Y-98062054D01*
X142392783Y-98101671D01*
X142392085Y-98110060D01*
X142389566Y-98140838D01*
X142387791Y-98164299D01*
X142386762Y-98183025D01*
X142386478Y-98199595D01*
X142386938Y-98216589D01*
X142388145Y-98236586D01*
X142390096Y-98262168D01*
X142392086Y-98287042D01*
X142401117Y-98369239D01*
X142414956Y-98453290D01*
X142432939Y-98536028D01*
X142454403Y-98614284D01*
X142471297Y-98665130D01*
X142482142Y-98693190D01*
X142496267Y-98726828D01*
X142512407Y-98763277D01*
X142529296Y-98799767D01*
X142545667Y-98833531D01*
X142560255Y-98861799D01*
X142565841Y-98871886D01*
X142582633Y-98900201D01*
X142602578Y-98932114D01*
X142624169Y-98965366D01*
X142645904Y-98997698D01*
X142666278Y-99026854D01*
X142683787Y-99050574D01*
X142690793Y-99059442D01*
X142709148Y-99081282D01*
X142731624Y-99107063D01*
X142756439Y-99134832D01*
X142781813Y-99162638D01*
X142805964Y-99188528D01*
X142827113Y-99210552D01*
X142843411Y-99226695D01*
X142909732Y-99284413D01*
X142984185Y-99340300D01*
X143064762Y-99393197D01*
X143149459Y-99441943D01*
X143236267Y-99485376D01*
X143323181Y-99522336D01*
X143401734Y-99549693D01*
X143475426Y-99570923D01*
X143546009Y-99587972D01*
X143615678Y-99601143D01*
X143686624Y-99610735D01*
X143761040Y-99617049D01*
X143841118Y-99620387D01*
X143921720Y-99621088D01*
X143994820Y-99619952D01*
X144060192Y-99617000D01*
X144120155Y-99611935D01*
X144177025Y-99604460D01*
X144233122Y-99594278D01*
X144290762Y-99581094D01*
X144343157Y-99567177D01*
X144446615Y-99534109D01*
X144545493Y-99493893D01*
X144640625Y-99446023D01*
X144732844Y-99389996D01*
X144822982Y-99325308D01*
X144911875Y-99251453D01*
X144996492Y-99171780D01*
X145049869Y-99117278D01*
X145100024Y-99062991D01*
X145148191Y-99007391D01*
X145195606Y-98948947D01*
X145243504Y-98886132D01*
X145293119Y-98817415D01*
X145345687Y-98741268D01*
X145353425Y-98729820D01*
X145369615Y-98706214D01*
X145384154Y-98685771D01*
X145395992Y-98669908D01*
X145404077Y-98660045D01*
X145407042Y-98657441D01*
X145412250Y-98660822D01*
X145421067Y-98670918D01*
X145431831Y-98685760D01*
X145434943Y-98690461D01*
X145459894Y-98728040D01*
X145488784Y-98770102D01*
X145520013Y-98814424D01*
X145551981Y-98858780D01*
X145583086Y-98900948D01*
X145611728Y-98938702D01*
X145633382Y-98966209D01*
X145717900Y-99066313D01*
X145802314Y-99156748D01*
X145887194Y-99237981D01*
X145973106Y-99310480D01*
X146060618Y-99374714D01*
X146150298Y-99431150D01*
X146242713Y-99480257D01*
X146275542Y-99495677D01*
X146380683Y-99538667D01*
X146486809Y-99572297D01*
X146595735Y-99597062D01*
X146708159Y-99613336D01*
X146729810Y-99615069D01*
X146759330Y-99616599D01*
X146794780Y-99617899D01*
X146834221Y-99618944D01*
X146875715Y-99619707D01*
X146917320Y-99620162D01*
X146957100Y-99620283D01*
X146993115Y-99620042D01*
X147023425Y-99619415D01*
X147046091Y-99618374D01*
X147051000Y-99617987D01*
X147108139Y-99612462D01*
X147157426Y-99606820D01*
X147201165Y-99600667D01*
X147241662Y-99593609D01*
X147281219Y-99585250D01*
X147322142Y-99575199D01*
X147358340Y-99565414D01*
X147457236Y-99534710D01*
X147549426Y-99499319D01*
X147637777Y-99457958D01*
X147725154Y-99409345D01*
X147771094Y-99380816D01*
X147851199Y-99324814D01*
X147929715Y-99261062D01*
X148005077Y-99191153D01*
X148075717Y-99116683D01*
X148140069Y-99039244D01*
X148196567Y-98960430D01*
X148218731Y-98925401D01*
X148271988Y-98830198D01*
X148317473Y-98733442D01*
X148354678Y-98636415D01*
X148383093Y-98540402D01*
X148397259Y-98475684D01*
X148401989Y-98451767D01*
X148406535Y-98431436D01*
X148410383Y-98416824D01*
X148413022Y-98410063D01*
X148413048Y-98410034D01*
X148414095Y-98404040D01*
X148414999Y-98389334D01*
X148415761Y-98367204D01*
X148416381Y-98338943D01*
X148416858Y-98305841D01*
X148417193Y-98269189D01*
X148417385Y-98230278D01*
X148417405Y-98213329D01*
X147922852Y-98213329D01*
X147922078Y-98256250D01*
X147920373Y-98296294D01*
X147917736Y-98331296D01*
X147914168Y-98359090D01*
X147912724Y-98366600D01*
X147887100Y-98462181D01*
X147852720Y-98552610D01*
X147809574Y-98637906D01*
X147757653Y-98718087D01*
X147696946Y-98793172D01*
X147668937Y-98823080D01*
X147595100Y-98891653D01*
X147516086Y-98951619D01*
X147432287Y-99002782D01*
X147344094Y-99044943D01*
X147251897Y-99077904D01*
X147156089Y-99101468D01*
X147100807Y-99110512D01*
X147075721Y-99113776D01*
X147053520Y-99116309D01*
X147032385Y-99118187D01*
X147010498Y-99119490D01*
X146986039Y-99120297D01*
X146957192Y-99120686D01*
X146922137Y-99120735D01*
X146879056Y-99120524D01*
X146870660Y-99120467D01*
X146827873Y-99119942D01*
X146793056Y-99118933D01*
X146764026Y-99117296D01*
X146738601Y-99114885D01*
X146714596Y-99111554D01*
X146700480Y-99109147D01*
X146606436Y-99087407D01*
X146517050Y-99056825D01*
X146431360Y-99017018D01*
X146357580Y-98973627D01*
X146290910Y-98926120D01*
X146223020Y-98869412D01*
X146154676Y-98804266D01*
X146086647Y-98731443D01*
X146019699Y-98651707D01*
X145974032Y-98592378D01*
X145954882Y-98565978D01*
X145931860Y-98533219D01*
X145905950Y-98495589D01*
X145878138Y-98454576D01*
X145849410Y-98411668D01*
X145820750Y-98368353D01*
X145793143Y-98326118D01*
X145767576Y-98286451D01*
X145745032Y-98250841D01*
X145726499Y-98220775D01*
X145714512Y-98200476D01*
X145710666Y-98194132D01*
X145707711Y-98188901D01*
X145706126Y-98183785D01*
X145706341Y-98178870D01*
X145110440Y-98178870D01*
X145107699Y-98185874D01*
X145099922Y-98200243D01*
X145087778Y-98220939D01*
X145071936Y-98246919D01*
X145053067Y-98277143D01*
X145031839Y-98310570D01*
X145008922Y-98346161D01*
X144984985Y-98382873D01*
X144960698Y-98419667D01*
X144936730Y-98455502D01*
X144913750Y-98489338D01*
X144892428Y-98520133D01*
X144876202Y-98543010D01*
X144804297Y-98638734D01*
X144733276Y-98724708D01*
X144662812Y-98801269D01*
X144592580Y-98868754D01*
X144522251Y-98927502D01*
X144459996Y-98972256D01*
X144424837Y-98993851D01*
X144383921Y-99016062D01*
X144340149Y-99037523D01*
X144296424Y-99056869D01*
X144255648Y-99072731D01*
X144226520Y-99082162D01*
X144172228Y-99096394D01*
X144120204Y-99107377D01*
X144068495Y-99115281D01*
X144015149Y-99120275D01*
X143958214Y-99122529D01*
X143895737Y-99122211D01*
X143825766Y-99119490D01*
X143807420Y-99118486D01*
X143712192Y-99109419D01*
X143623030Y-99093308D01*
X143538338Y-99069778D01*
X143456518Y-99038456D01*
X143446236Y-99033894D01*
X143358072Y-98988656D01*
X143275241Y-98934934D01*
X143198319Y-98873222D01*
X143127879Y-98804012D01*
X143064494Y-98727797D01*
X143026726Y-98673777D01*
X142981369Y-98594815D01*
X142944879Y-98511229D01*
X142917449Y-98423681D01*
X142899272Y-98332835D01*
X142890539Y-98239355D01*
X142889734Y-98201433D01*
X142890463Y-98152199D01*
X142893050Y-98109170D01*
X142897951Y-98068486D01*
X142905624Y-98026287D01*
X142915797Y-97981697D01*
X142942336Y-97894204D01*
X142978283Y-97809670D01*
X143023136Y-97728811D01*
X143076393Y-97652344D01*
X143137553Y-97580986D01*
X143206115Y-97515452D01*
X143281575Y-97456461D01*
X143285240Y-97453891D01*
X143348758Y-97413847D01*
X143419111Y-97377043D01*
X143493365Y-97344728D01*
X143568589Y-97318152D01*
X143641852Y-97298564D01*
X143657560Y-97295287D01*
X143742974Y-97282541D01*
X143833258Y-97276623D01*
X143925803Y-97277490D01*
X144017995Y-97285097D01*
X144107225Y-97299401D01*
X144124920Y-97303158D01*
X144210740Y-97325647D01*
X144293389Y-97354520D01*
X144373322Y-97390135D01*
X144450990Y-97432851D01*
X144526847Y-97483027D01*
X144601346Y-97541023D01*
X144674941Y-97607196D01*
X144748083Y-97681906D01*
X144821227Y-97765512D01*
X144894825Y-97858372D01*
X144969331Y-97960845D01*
X144986497Y-97985600D01*
X145011373Y-98022063D01*
X145034865Y-98057057D01*
X145056322Y-98089565D01*
X145075093Y-98118570D01*
X145090526Y-98143059D01*
X145101970Y-98162014D01*
X145108774Y-98174420D01*
X145110440Y-98178870D01*
X145706341Y-98178870D01*
X145706389Y-98177788D01*
X145708980Y-98169914D01*
X145714376Y-98159164D01*
X145723058Y-98144544D01*
X145735504Y-98125055D01*
X145752191Y-98099701D01*
X145773601Y-98067485D01*
X145790882Y-98041480D01*
X145866707Y-97931196D01*
X145941477Y-97830667D01*
X146015612Y-97739594D01*
X146089534Y-97657678D01*
X146163662Y-97584622D01*
X146238419Y-97520127D01*
X146314224Y-97463895D01*
X146391499Y-97415628D01*
X146470664Y-97375028D01*
X146552140Y-97341796D01*
X146636348Y-97315635D01*
X146723708Y-97296246D01*
X146814642Y-97283331D01*
X146867135Y-97278825D01*
X146971485Y-97276075D01*
X147071361Y-97282219D01*
X147167421Y-97297384D01*
X147260321Y-97321694D01*
X147350720Y-97355276D01*
X147409140Y-97382484D01*
X147496289Y-97431811D01*
X147576395Y-97488326D01*
X147649197Y-97551691D01*
X147714431Y-97621568D01*
X147771837Y-97697619D01*
X147821150Y-97779504D01*
X147862109Y-97866887D01*
X147894451Y-97959430D01*
X147912744Y-98031320D01*
X147916629Y-98056159D01*
X147919583Y-98088945D01*
X147921604Y-98127511D01*
X147922694Y-98169694D01*
X147922852Y-98213329D01*
X148417405Y-98213329D01*
X148417434Y-98190399D01*
X148417339Y-98150843D01*
X148417102Y-98112900D01*
X148416721Y-98077863D01*
X148416196Y-98047021D01*
X148415528Y-98021665D01*
X148414716Y-98003087D01*
X148413759Y-97992577D01*
X148413095Y-97990680D01*
X148410027Y-97986113D01*
X148406882Y-97974381D01*
X148405171Y-97964010D01*
X148397127Y-97917014D01*
X148384752Y-97863805D01*
X148368753Y-97806990D01*
X148349838Y-97749179D01*
X148338402Y-97717781D01*
X148290988Y-97606217D01*
X148235453Y-97500730D01*
X148171691Y-97401153D01*
X148099595Y-97307317D01*
X148024267Y-97224336D01*
X147973044Y-97173887D01*
X147924734Y-97130175D01*
X147877000Y-97091239D01*
X147827505Y-97055117D01*
X147802840Y-97038470D01*
X147779904Y-97023308D01*
X147757744Y-97008596D01*
X147739000Y-96996092D01*
X147727032Y-96988039D01*
X147709956Y-96977556D01*
X147685863Y-96964261D01*
X147656780Y-96949131D01*
X147624736Y-96933145D01*
X147591760Y-96917282D01*
X147559879Y-96902520D01*
X147531123Y-96889837D01*
X147507520Y-96880212D01*
X147492960Y-96875146D01*
X147485665Y-96872798D01*
X147470627Y-96867818D01*
X147449728Y-96860834D01*
X147424850Y-96852473D01*
X147411680Y-96848031D01*
X147379742Y-96837491D01*
X147351573Y-96828874D01*
X147324700Y-96821583D01*
X147296650Y-96815020D01*
X147264950Y-96808589D01*
X147227125Y-96801692D01*
X147200860Y-96797151D01*
X147082928Y-96782049D01*
X146961828Y-96776390D01*
X146838134Y-96780172D01*
M02*
