G04 #@! TF.FileFunction,Copper,L1,Top,Signal*
%FSLAX46Y46*%
G04 Gerber Fmt 4.6, Leading zero omitted, Abs format (unit mm)*
G04 Created by KiCad (PCBNEW 4.0.2-stable) date 26.07.2016 22:38:52*
%MOMM*%
G01*
G04 APERTURE LIST*
%ADD10C,0.100000*%
%ADD11C,0.600000*%
%ADD12R,1.501140X2.999740*%
%ADD13R,1.500000X1.000000*%
%ADD14R,2.200000X1.200000*%
%ADD15R,1.800860X1.597660*%
%ADD16R,1.727200X1.727200*%
%ADD17O,1.727200X1.727200*%
%ADD18R,1.300000X1.500000*%
%ADD19R,0.650000X1.060000*%
%ADD20C,0.500000*%
%ADD21C,0.350000*%
%ADD22C,0.300000*%
%ADD23C,0.254000*%
G04 APERTURE END LIST*
D10*
D11*
X96600000Y-131700000D03*
X90750000Y-135000000D03*
X103900000Y-132650000D03*
X105800000Y-138500000D03*
X92200000Y-118900000D03*
D12*
X81000000Y-102751020D03*
X81000000Y-106748980D03*
D13*
X108000000Y-130875000D03*
X108000000Y-128375000D03*
X108000000Y-125075000D03*
X108000000Y-123375000D03*
X108000000Y-120875000D03*
X108000000Y-118375000D03*
X108000000Y-115950000D03*
X108000000Y-114250000D03*
X108000000Y-133375000D03*
X108000000Y-126725000D03*
X108000000Y-110900000D03*
D14*
X87000000Y-138400000D03*
X85800000Y-110400000D03*
D15*
X91500000Y-104919860D03*
X91500000Y-102080140D03*
D16*
X95000000Y-105000000D03*
D17*
X95000000Y-102460000D03*
X97540000Y-105000000D03*
X97540000Y-102460000D03*
X100080000Y-105000000D03*
X100080000Y-102460000D03*
X102620000Y-105000000D03*
X102620000Y-102460000D03*
X105160000Y-105000000D03*
X105160000Y-102460000D03*
D18*
X88500000Y-102150000D03*
X88500000Y-104850000D03*
D19*
X85950000Y-103650000D03*
X85000000Y-103650000D03*
X84050000Y-103650000D03*
X84050000Y-105850000D03*
X85950000Y-105850000D03*
D11*
X95200000Y-137600000D03*
X104750000Y-123000000D03*
X83000000Y-123500000D03*
X100000000Y-118600000D03*
X105250000Y-118250000D03*
X85250000Y-102500000D03*
X93000000Y-129500000D03*
X103250000Y-125500000D03*
X103750000Y-120750000D03*
X103000000Y-113750000D03*
X104500000Y-116000000D03*
X86500000Y-101500000D03*
D20*
X108000000Y-123375000D02*
X105125000Y-123375000D01*
X105125000Y-123375000D02*
X104750000Y-123000000D01*
X81750000Y-121750000D02*
X83000000Y-123000000D01*
X83000000Y-123000000D02*
X83000000Y-123500000D01*
X81750000Y-110500000D02*
X81750000Y-121750000D01*
X82751590Y-109498410D02*
X81750000Y-110500000D01*
X82751590Y-107250000D02*
X82751590Y-109498410D01*
D21*
X87000000Y-103750000D02*
X87000000Y-104595000D01*
X87000000Y-104595000D02*
X85950000Y-105645000D01*
X85950000Y-105645000D02*
X85950000Y-105850000D01*
X88500000Y-102250000D02*
X87000000Y-103750000D01*
D20*
X85580000Y-107250000D02*
X82751590Y-107250000D01*
X82751590Y-107250000D02*
X82250570Y-106748980D01*
X82250570Y-106748980D02*
X81000000Y-106748980D01*
X85950000Y-105850000D02*
X85950000Y-106880000D01*
X85950000Y-106880000D02*
X85580000Y-107250000D01*
D22*
X88500000Y-102250000D02*
X88500000Y-102150000D01*
D20*
X108000000Y-118375000D02*
X105375000Y-118375000D01*
X105375000Y-118375000D02*
X105250000Y-118250000D01*
X85000000Y-103650000D02*
X85000000Y-102750000D01*
X85000000Y-102750000D02*
X85250000Y-102500000D01*
D21*
X103625000Y-128375000D02*
X94125000Y-128375000D01*
X94125000Y-128375000D02*
X93000000Y-129500000D01*
X100500000Y-125250000D02*
X103625000Y-128375000D01*
X103625000Y-128375000D02*
X108000000Y-128375000D01*
X100500000Y-123250000D02*
X100500000Y-125250000D01*
X98750000Y-121500000D02*
X100500000Y-123250000D01*
X98750000Y-108163130D02*
X98750000Y-121500000D01*
X102620000Y-102460000D02*
X102620000Y-103166870D01*
X102620000Y-103166870D02*
X101318601Y-104468269D01*
X101318601Y-104468269D02*
X101318601Y-105594529D01*
X101318601Y-105594529D02*
X98750000Y-108163130D01*
X104325000Y-125075000D02*
X103675000Y-125075000D01*
X103675000Y-125075000D02*
X103250000Y-125500000D01*
D20*
X108000000Y-125075000D02*
X104325000Y-125075000D01*
X104325000Y-125075000D02*
X101750000Y-122500000D01*
X101750000Y-122500000D02*
X101750000Y-107091314D01*
X101750000Y-107091314D02*
X102620000Y-106221314D01*
X102620000Y-106221314D02*
X102620000Y-105000000D01*
X103750000Y-120750000D02*
X107875000Y-120750000D01*
X107875000Y-120750000D02*
X108000000Y-120875000D01*
D21*
X104500000Y-116000000D02*
X104500000Y-115250000D01*
X104500000Y-115250000D02*
X103000000Y-113750000D01*
D20*
X104500000Y-116000000D02*
X107950000Y-116000000D01*
X107950000Y-116000000D02*
X108000000Y-115950000D01*
X88500000Y-104850000D02*
X91430140Y-104850000D01*
X91430140Y-104850000D02*
X91500000Y-104919860D01*
D22*
X88569860Y-104919860D02*
X88500000Y-104850000D01*
D20*
X86500000Y-101500000D02*
X84750000Y-101500000D01*
X84750000Y-101500000D02*
X84050000Y-102200000D01*
X84050000Y-102200000D02*
X84050000Y-103650000D01*
X86500000Y-101500000D02*
X86500000Y-103100000D01*
X86500000Y-103100000D02*
X85950000Y-103650000D01*
D22*
X86000000Y-103600000D02*
X85950000Y-103650000D01*
D23*
G36*
X83429867Y-101579867D02*
X83378446Y-101642467D01*
X83326375Y-101704524D01*
X83324153Y-101708565D01*
X83321226Y-101712129D01*
X83282936Y-101783539D01*
X83243918Y-101854513D01*
X83242524Y-101858907D01*
X83240344Y-101862973D01*
X83216645Y-101940489D01*
X83192165Y-102017661D01*
X83191651Y-102022241D01*
X83190302Y-102026654D01*
X83182113Y-102107272D01*
X83173085Y-102187755D01*
X83173022Y-102196766D01*
X83173005Y-102196938D01*
X83173020Y-102197098D01*
X83173000Y-102200000D01*
X83173000Y-102826702D01*
X83119911Y-102944477D01*
X83094967Y-103120000D01*
X83094967Y-104180000D01*
X83102929Y-104279847D01*
X83155374Y-104449199D01*
X83252923Y-104597235D01*
X83387852Y-104712234D01*
X83465678Y-104747315D01*
X83455801Y-104750374D01*
X83307765Y-104847923D01*
X83192766Y-104982852D01*
X83119911Y-105144477D01*
X83094967Y-105320000D01*
X83094967Y-106353111D01*
X82870703Y-106128847D01*
X82808103Y-106077426D01*
X82746046Y-106025355D01*
X82742005Y-106023133D01*
X82738441Y-106020206D01*
X82667031Y-105981916D01*
X82596057Y-105942898D01*
X82591663Y-105941504D01*
X82587597Y-105939324D01*
X82510081Y-105915625D01*
X82432909Y-105891145D01*
X82428329Y-105890631D01*
X82423916Y-105889282D01*
X82380603Y-105884882D01*
X82380603Y-105249110D01*
X82372641Y-105149263D01*
X82320196Y-104979911D01*
X82222647Y-104831875D01*
X82135366Y-104757486D01*
X82155359Y-104744127D01*
X82243807Y-104655679D01*
X82313300Y-104551675D01*
X82361167Y-104436113D01*
X82385570Y-104313432D01*
X82385570Y-103036770D01*
X82226820Y-102878020D01*
X81127000Y-102878020D01*
X81127000Y-102898020D01*
X80873000Y-102898020D01*
X80873000Y-102878020D01*
X79773180Y-102878020D01*
X79614430Y-103036770D01*
X79614430Y-104313432D01*
X79638833Y-104436113D01*
X79686700Y-104551675D01*
X79756193Y-104655679D01*
X79844641Y-104744127D01*
X79863256Y-104756565D01*
X79832195Y-104777033D01*
X79717196Y-104911962D01*
X79644341Y-105073587D01*
X79619397Y-105249110D01*
X79619397Y-108248850D01*
X79627359Y-108348697D01*
X79679804Y-108518049D01*
X79777353Y-108666085D01*
X79912282Y-108781084D01*
X80073907Y-108853939D01*
X80249430Y-108878883D01*
X81750570Y-108878883D01*
X81850417Y-108870921D01*
X81874590Y-108863435D01*
X81874590Y-109135144D01*
X81129867Y-109879867D01*
X81078446Y-109942467D01*
X81026375Y-110004524D01*
X81024153Y-110008565D01*
X81021226Y-110012129D01*
X80982936Y-110083539D01*
X80943918Y-110154513D01*
X80942524Y-110158907D01*
X80940344Y-110162973D01*
X80916645Y-110240489D01*
X80892165Y-110317661D01*
X80891651Y-110322241D01*
X80890302Y-110326654D01*
X80882113Y-110407272D01*
X80873085Y-110487755D01*
X80873022Y-110496766D01*
X80873005Y-110496938D01*
X80873020Y-110497098D01*
X80873000Y-110500000D01*
X80873000Y-121750000D01*
X80880903Y-121830600D01*
X80887965Y-121911326D01*
X80889252Y-121915756D01*
X80889702Y-121920344D01*
X80913114Y-121997887D01*
X80935718Y-122075690D01*
X80937840Y-122079783D01*
X80939173Y-122084199D01*
X80977212Y-122155740D01*
X81014486Y-122227648D01*
X81017363Y-122231251D01*
X81019528Y-122235324D01*
X81070725Y-122298098D01*
X81121269Y-122361414D01*
X81127600Y-122367834D01*
X81127706Y-122367964D01*
X81127826Y-122368063D01*
X81129867Y-122370133D01*
X82088621Y-123328887D01*
X82074320Y-123396168D01*
X82071782Y-123577945D01*
X82104599Y-123756752D01*
X82171522Y-123925780D01*
X82270001Y-124078590D01*
X82396286Y-124209362D01*
X82545566Y-124313114D01*
X82712155Y-124385895D01*
X82889708Y-124424932D01*
X83071463Y-124428740D01*
X83250495Y-124397171D01*
X83419986Y-124331430D01*
X83573479Y-124234020D01*
X83705130Y-124108651D01*
X83809921Y-123960099D01*
X83883864Y-123794022D01*
X83924140Y-123616746D01*
X83927039Y-123409103D01*
X83891729Y-123230771D01*
X83877000Y-123195036D01*
X83877000Y-123000000D01*
X83869097Y-122919400D01*
X83862035Y-122838674D01*
X83860748Y-122834244D01*
X83860298Y-122829656D01*
X83836886Y-122752113D01*
X83814282Y-122674310D01*
X83812160Y-122670217D01*
X83810827Y-122665801D01*
X83772788Y-122594260D01*
X83735514Y-122522352D01*
X83732637Y-122518749D01*
X83730472Y-122514676D01*
X83679275Y-122451902D01*
X83628731Y-122388586D01*
X83622400Y-122382166D01*
X83622294Y-122382036D01*
X83622174Y-122381937D01*
X83620133Y-122379867D01*
X82627000Y-121386734D01*
X82627000Y-112771231D01*
X82803220Y-112953712D01*
X83024967Y-113107830D01*
X83272425Y-113215942D01*
X83536169Y-113273930D01*
X83806153Y-113279585D01*
X84072094Y-113232692D01*
X84323863Y-113135038D01*
X84551868Y-112990341D01*
X84747426Y-112804114D01*
X84903088Y-112583449D01*
X85012925Y-112336752D01*
X85072752Y-112073419D01*
X85077059Y-111764978D01*
X85024608Y-111500077D01*
X84921702Y-111250410D01*
X84772262Y-111025484D01*
X84581980Y-110833869D01*
X84358104Y-110682863D01*
X84109160Y-110578217D01*
X83844632Y-110523917D01*
X83574595Y-110522032D01*
X83309335Y-110572633D01*
X83058954Y-110673793D01*
X82832991Y-110821659D01*
X82640053Y-111010599D01*
X82627000Y-111029662D01*
X82627000Y-110863266D01*
X83371723Y-110118543D01*
X83423144Y-110055943D01*
X83475215Y-109993886D01*
X83477437Y-109989845D01*
X83480364Y-109986281D01*
X83518654Y-109914871D01*
X83557672Y-109843897D01*
X83559066Y-109839503D01*
X83561246Y-109835437D01*
X83584932Y-109757963D01*
X83609425Y-109680749D01*
X83609939Y-109676164D01*
X83611287Y-109671756D01*
X83619471Y-109591187D01*
X83628505Y-109510655D01*
X83628568Y-109501644D01*
X83628585Y-109501472D01*
X83628570Y-109501312D01*
X83628590Y-109498410D01*
X83628590Y-108127000D01*
X85580000Y-108127000D01*
X85660600Y-108119097D01*
X85741326Y-108112035D01*
X85745756Y-108110748D01*
X85750344Y-108110298D01*
X85827887Y-108086886D01*
X85905690Y-108064282D01*
X85909783Y-108062160D01*
X85914199Y-108060827D01*
X85985740Y-108022788D01*
X86057648Y-107985514D01*
X86061251Y-107982637D01*
X86065324Y-107980472D01*
X86128098Y-107929275D01*
X86191414Y-107878731D01*
X86197834Y-107872400D01*
X86197964Y-107872294D01*
X86198063Y-107872174D01*
X86200133Y-107870133D01*
X86570133Y-107500133D01*
X86621554Y-107437533D01*
X86673625Y-107375476D01*
X86675847Y-107371435D01*
X86678774Y-107367871D01*
X86717064Y-107296461D01*
X86756082Y-107225487D01*
X86757476Y-107221093D01*
X86759656Y-107217027D01*
X86783355Y-107139511D01*
X86807835Y-107062339D01*
X86808349Y-107057759D01*
X86809698Y-107053346D01*
X86817887Y-106972728D01*
X86826915Y-106892245D01*
X86826978Y-106883234D01*
X86826995Y-106883062D01*
X86826980Y-106882902D01*
X86827000Y-106880000D01*
X86827000Y-106673298D01*
X86880089Y-106555523D01*
X86905033Y-106380000D01*
X86905033Y-105824167D01*
X87219967Y-105509232D01*
X87219967Y-105600000D01*
X87227929Y-105699847D01*
X87280374Y-105869199D01*
X87377923Y-106017235D01*
X87512852Y-106132234D01*
X87674477Y-106205089D01*
X87850000Y-106230033D01*
X89150000Y-106230033D01*
X89249847Y-106222071D01*
X89419199Y-106169626D01*
X89567235Y-106072077D01*
X89682234Y-105937148D01*
X89755089Y-105775523D01*
X89761985Y-105727000D01*
X89970200Y-105727000D01*
X89977499Y-105818537D01*
X90029944Y-105987889D01*
X90127493Y-106135925D01*
X90262422Y-106250924D01*
X90424047Y-106323779D01*
X90599570Y-106348723D01*
X92400430Y-106348723D01*
X92500277Y-106340761D01*
X92669629Y-106288316D01*
X92817665Y-106190767D01*
X92932664Y-106055838D01*
X93005519Y-105894213D01*
X93030463Y-105718690D01*
X93030463Y-105285750D01*
X93501400Y-105285750D01*
X93501400Y-105926142D01*
X93525803Y-106048823D01*
X93573670Y-106164385D01*
X93643163Y-106268389D01*
X93731611Y-106356837D01*
X93835615Y-106426330D01*
X93951177Y-106474197D01*
X94073858Y-106498600D01*
X94714250Y-106498600D01*
X94873000Y-106339850D01*
X94873000Y-105127000D01*
X93660150Y-105127000D01*
X93501400Y-105285750D01*
X93030463Y-105285750D01*
X93030463Y-104121030D01*
X93022501Y-104021183D01*
X92970056Y-103851831D01*
X92872507Y-103703795D01*
X92737578Y-103588796D01*
X92575953Y-103515941D01*
X92504274Y-103505754D01*
X92585653Y-103489567D01*
X92701215Y-103441700D01*
X92805219Y-103372207D01*
X92893667Y-103283759D01*
X92963160Y-103179755D01*
X93011027Y-103064193D01*
X93035430Y-102941512D01*
X93035430Y-102365890D01*
X92876680Y-102207140D01*
X91627000Y-102207140D01*
X91627000Y-102227140D01*
X91373000Y-102227140D01*
X91373000Y-102207140D01*
X90123320Y-102207140D01*
X89964570Y-102365890D01*
X89964570Y-102941512D01*
X89988973Y-103064193D01*
X90036840Y-103179755D01*
X90106333Y-103283759D01*
X90194781Y-103372207D01*
X90298785Y-103441700D01*
X90414347Y-103489567D01*
X90484799Y-103503581D01*
X90330371Y-103551404D01*
X90182335Y-103648953D01*
X90067336Y-103783882D01*
X89994481Y-103945507D01*
X89990574Y-103973000D01*
X89763662Y-103973000D01*
X89719626Y-103830801D01*
X89622077Y-103682765D01*
X89487148Y-103567766D01*
X89330421Y-103497119D01*
X89419199Y-103469626D01*
X89567235Y-103372077D01*
X89682234Y-103237148D01*
X89755089Y-103075523D01*
X89780033Y-102900000D01*
X89780033Y-101400000D01*
X89778598Y-101382000D01*
X89964570Y-101382000D01*
X89964570Y-101794390D01*
X90123320Y-101953140D01*
X91373000Y-101953140D01*
X91373000Y-101933140D01*
X91627000Y-101933140D01*
X91627000Y-101953140D01*
X92876680Y-101953140D01*
X93035430Y-101794390D01*
X93035430Y-101382000D01*
X93964290Y-101382000D01*
X93957082Y-101387795D01*
X93770086Y-101610648D01*
X93629937Y-101865578D01*
X93541973Y-102142875D01*
X93509545Y-102431976D01*
X93509400Y-102452788D01*
X93509400Y-102467212D01*
X93537788Y-102756738D01*
X93621872Y-103035236D01*
X93758448Y-103292097D01*
X93942314Y-103517540D01*
X93952084Y-103525623D01*
X93951177Y-103525803D01*
X93835615Y-103573670D01*
X93731611Y-103643163D01*
X93643163Y-103731611D01*
X93573670Y-103835615D01*
X93525803Y-103951177D01*
X93501400Y-104073858D01*
X93501400Y-104714250D01*
X93660150Y-104873000D01*
X94873000Y-104873000D01*
X94873000Y-104853000D01*
X95127000Y-104853000D01*
X95127000Y-104873000D01*
X95147000Y-104873000D01*
X95147000Y-105127000D01*
X95127000Y-105127000D01*
X95127000Y-106339850D01*
X95285750Y-106498600D01*
X95926142Y-106498600D01*
X96048823Y-106474197D01*
X96164385Y-106426330D01*
X96268389Y-106356837D01*
X96356837Y-106268389D01*
X96426330Y-106164385D01*
X96474197Y-106048823D01*
X96474395Y-106047830D01*
X96482314Y-106057540D01*
X96706467Y-106242975D01*
X96962369Y-106381341D01*
X97240273Y-106467367D01*
X97529594Y-106497776D01*
X97819311Y-106471409D01*
X98098389Y-106389272D01*
X98356198Y-106254493D01*
X98582918Y-106072205D01*
X98769914Y-105849352D01*
X98809417Y-105777497D01*
X98838448Y-105832097D01*
X99022314Y-106057540D01*
X99246467Y-106242975D01*
X99434361Y-106344569D01*
X98182900Y-107596030D01*
X98135860Y-107653297D01*
X98088259Y-107710026D01*
X98086227Y-107713721D01*
X98083550Y-107716981D01*
X98048553Y-107782251D01*
X98012853Y-107847189D01*
X98011577Y-107851212D01*
X98009586Y-107854925D01*
X97987926Y-107925771D01*
X97965526Y-107996385D01*
X97965056Y-108000572D01*
X97963822Y-108004609D01*
X97956328Y-108078381D01*
X97948078Y-108151932D01*
X97948021Y-108160167D01*
X97948004Y-108160331D01*
X97948018Y-108160484D01*
X97948000Y-108163130D01*
X97948000Y-121500000D01*
X97955230Y-121573734D01*
X97961686Y-121647529D01*
X97962862Y-121651578D01*
X97963274Y-121655776D01*
X97984678Y-121726669D01*
X98005354Y-121797838D01*
X98007296Y-121801585D01*
X98008514Y-121805618D01*
X98043299Y-121871039D01*
X98077387Y-121936800D01*
X98080015Y-121940092D01*
X98081997Y-121943820D01*
X98128853Y-122001271D01*
X98175037Y-122059126D01*
X98180825Y-122064996D01*
X98180924Y-122065117D01*
X98181036Y-122065210D01*
X98182900Y-122067100D01*
X99698000Y-123582199D01*
X99698000Y-125250000D01*
X99705230Y-125323734D01*
X99711686Y-125397529D01*
X99712862Y-125401578D01*
X99713274Y-125405776D01*
X99734678Y-125476669D01*
X99755354Y-125547838D01*
X99757296Y-125551585D01*
X99758514Y-125555618D01*
X99793299Y-125621039D01*
X99827387Y-125686800D01*
X99830015Y-125690092D01*
X99831997Y-125693820D01*
X99878853Y-125751271D01*
X99925037Y-125809126D01*
X99930825Y-125814996D01*
X99930924Y-125815117D01*
X99931036Y-125815210D01*
X99932900Y-125817100D01*
X101688801Y-127573000D01*
X94125000Y-127573000D01*
X94051266Y-127580230D01*
X93977471Y-127586686D01*
X93973422Y-127587862D01*
X93969224Y-127588274D01*
X93898285Y-127609692D01*
X93827162Y-127630355D01*
X93823419Y-127632295D01*
X93819382Y-127633514D01*
X93753946Y-127668307D01*
X93688199Y-127702387D01*
X93684906Y-127705016D01*
X93681180Y-127706997D01*
X93623720Y-127753860D01*
X93565874Y-127800038D01*
X93560010Y-127805821D01*
X93559883Y-127805924D01*
X93559786Y-127806041D01*
X93557900Y-127807901D01*
X92764664Y-128601137D01*
X92737003Y-128606413D01*
X92568447Y-128674515D01*
X92416328Y-128774058D01*
X92286441Y-128901253D01*
X92183733Y-129051254D01*
X92112117Y-129218347D01*
X92074320Y-129396168D01*
X92071782Y-129577945D01*
X92104599Y-129756752D01*
X92171522Y-129925780D01*
X92270001Y-130078590D01*
X92396286Y-130209362D01*
X92545566Y-130313114D01*
X92712155Y-130385895D01*
X92889708Y-130424932D01*
X93071463Y-130428740D01*
X93250495Y-130397171D01*
X93307655Y-130375000D01*
X106619967Y-130375000D01*
X106619967Y-131375000D01*
X106627929Y-131474847D01*
X106680374Y-131644199D01*
X106777923Y-131792235D01*
X106912852Y-131907234D01*
X107074477Y-131980089D01*
X107250000Y-132005033D01*
X108750000Y-132005033D01*
X108849847Y-131997071D01*
X109019199Y-131944626D01*
X109167235Y-131847077D01*
X109282234Y-131712148D01*
X109355089Y-131550523D01*
X109380033Y-131375000D01*
X109380033Y-130375000D01*
X109372071Y-130275153D01*
X109319626Y-130105801D01*
X109222077Y-129957765D01*
X109087148Y-129842766D01*
X108925523Y-129769911D01*
X108750000Y-129744967D01*
X107250000Y-129744967D01*
X107150153Y-129752929D01*
X106980801Y-129805374D01*
X106832765Y-129902923D01*
X106717766Y-130037852D01*
X106644911Y-130199477D01*
X106619967Y-130375000D01*
X93307655Y-130375000D01*
X93419986Y-130331430D01*
X93573479Y-130234020D01*
X93705130Y-130108651D01*
X93809921Y-129960099D01*
X93883864Y-129794022D01*
X93896707Y-129737493D01*
X94457199Y-129177000D01*
X106701988Y-129177000D01*
X106777923Y-129292235D01*
X106912852Y-129407234D01*
X107074477Y-129480089D01*
X107250000Y-129505033D01*
X108750000Y-129505033D01*
X108849847Y-129497071D01*
X109019199Y-129444626D01*
X109167235Y-129347077D01*
X109282234Y-129212148D01*
X109355089Y-129050523D01*
X109380033Y-128875000D01*
X109380033Y-127875000D01*
X109372071Y-127775153D01*
X109319626Y-127605801D01*
X109222077Y-127457765D01*
X109087148Y-127342766D01*
X108925523Y-127269911D01*
X108750000Y-127244967D01*
X107250000Y-127244967D01*
X107150153Y-127252929D01*
X106980801Y-127305374D01*
X106832765Y-127402923D01*
X106717766Y-127537852D01*
X106701922Y-127573000D01*
X103957199Y-127573000D01*
X101302000Y-124917800D01*
X101302000Y-123292266D01*
X102737330Y-124727596D01*
X102666328Y-124774058D01*
X102536441Y-124901253D01*
X102433733Y-125051254D01*
X102362117Y-125218347D01*
X102324320Y-125396168D01*
X102321782Y-125577945D01*
X102354599Y-125756752D01*
X102421522Y-125925780D01*
X102520001Y-126078590D01*
X102646286Y-126209362D01*
X102795566Y-126313114D01*
X102962155Y-126385895D01*
X103139708Y-126424932D01*
X103321463Y-126428740D01*
X103500495Y-126397171D01*
X103669986Y-126331430D01*
X103823479Y-126234020D01*
X103955130Y-126108651D01*
X104059921Y-125960099D01*
X104080797Y-125913211D01*
X104142661Y-125932835D01*
X104147241Y-125933349D01*
X104151654Y-125934698D01*
X104232272Y-125942887D01*
X104312755Y-125951915D01*
X104321766Y-125951978D01*
X104321938Y-125951995D01*
X104322098Y-125951980D01*
X104325000Y-125952000D01*
X106751410Y-125952000D01*
X106777923Y-125992235D01*
X106912852Y-126107234D01*
X107074477Y-126180089D01*
X107250000Y-126205033D01*
X108750000Y-126205033D01*
X108849847Y-126197071D01*
X109019199Y-126144626D01*
X109167235Y-126047077D01*
X109282234Y-125912148D01*
X109355089Y-125750523D01*
X109380033Y-125575000D01*
X109380033Y-124575000D01*
X109372071Y-124475153D01*
X109319626Y-124305801D01*
X109268518Y-124228241D01*
X109282234Y-124212148D01*
X109355089Y-124050523D01*
X109380033Y-123875000D01*
X109380033Y-122875000D01*
X109372071Y-122775153D01*
X109319626Y-122605801D01*
X109222077Y-122457765D01*
X109087148Y-122342766D01*
X108925523Y-122269911D01*
X108750000Y-122244967D01*
X107250000Y-122244967D01*
X107150153Y-122252929D01*
X106980801Y-122305374D01*
X106832765Y-122402923D01*
X106751732Y-122498000D01*
X105529469Y-122498000D01*
X105471849Y-122411274D01*
X105343751Y-122282278D01*
X105193037Y-122180621D01*
X105025448Y-122110173D01*
X104847367Y-122073618D01*
X104665577Y-122072349D01*
X104487003Y-122106413D01*
X104318447Y-122174515D01*
X104166328Y-122274058D01*
X104036441Y-122401253D01*
X103933733Y-122551254D01*
X103862117Y-122718347D01*
X103824320Y-122896168D01*
X103821782Y-123077945D01*
X103854599Y-123256752D01*
X103921522Y-123425780D01*
X103931448Y-123441182D01*
X102627000Y-122136734D01*
X102627000Y-120827945D01*
X102821782Y-120827945D01*
X102854599Y-121006752D01*
X102921522Y-121175780D01*
X103020001Y-121328590D01*
X103146286Y-121459362D01*
X103295566Y-121563114D01*
X103462155Y-121635895D01*
X103639708Y-121674932D01*
X103821463Y-121678740D01*
X104000495Y-121647171D01*
X104052499Y-121627000D01*
X106675048Y-121627000D01*
X106680374Y-121644199D01*
X106777923Y-121792235D01*
X106912852Y-121907234D01*
X107074477Y-121980089D01*
X107250000Y-122005033D01*
X108750000Y-122005033D01*
X108849847Y-121997071D01*
X109019199Y-121944626D01*
X109167235Y-121847077D01*
X109282234Y-121712148D01*
X109355089Y-121550523D01*
X109380033Y-121375000D01*
X109380033Y-120375000D01*
X109372071Y-120275153D01*
X109319626Y-120105801D01*
X109222077Y-119957765D01*
X109087148Y-119842766D01*
X108925523Y-119769911D01*
X108750000Y-119744967D01*
X107250000Y-119744967D01*
X107150153Y-119752929D01*
X106980801Y-119805374D01*
X106878175Y-119873000D01*
X104055962Y-119873000D01*
X104025448Y-119860173D01*
X103847367Y-119823618D01*
X103665577Y-119822349D01*
X103487003Y-119856413D01*
X103318447Y-119924515D01*
X103166328Y-120024058D01*
X103036441Y-120151253D01*
X102933733Y-120301254D01*
X102862117Y-120468347D01*
X102824320Y-120646168D01*
X102821782Y-120827945D01*
X102627000Y-120827945D01*
X102627000Y-114598692D01*
X102712155Y-114635895D01*
X102762839Y-114647038D01*
X103678729Y-115562928D01*
X103612117Y-115718347D01*
X103574320Y-115896168D01*
X103571782Y-116077945D01*
X103604599Y-116256752D01*
X103671522Y-116425780D01*
X103770001Y-116578590D01*
X103896286Y-116709362D01*
X104045566Y-116813114D01*
X104212155Y-116885895D01*
X104389708Y-116924932D01*
X104571463Y-116928740D01*
X104750495Y-116897171D01*
X104802499Y-116877000D01*
X106789380Y-116877000D01*
X106912852Y-116982234D01*
X107074477Y-117055089D01*
X107250000Y-117080033D01*
X108750000Y-117080033D01*
X108849847Y-117072071D01*
X109019199Y-117019626D01*
X109167235Y-116922077D01*
X109282234Y-116787148D01*
X109355089Y-116625523D01*
X109380033Y-116450000D01*
X109380033Y-115450000D01*
X109372071Y-115350153D01*
X109319626Y-115180801D01*
X109268518Y-115103241D01*
X109282234Y-115087148D01*
X109355089Y-114925523D01*
X109380033Y-114750000D01*
X109380033Y-113750000D01*
X109372071Y-113650153D01*
X109319626Y-113480801D01*
X109222077Y-113332765D01*
X109087148Y-113217766D01*
X108925523Y-113144911D01*
X108750000Y-113119967D01*
X107250000Y-113119967D01*
X107150153Y-113127929D01*
X106980801Y-113180374D01*
X106832765Y-113277923D01*
X106717766Y-113412852D01*
X106644911Y-113574477D01*
X106619967Y-113750000D01*
X106619967Y-114750000D01*
X106627929Y-114849847D01*
X106680374Y-115019199D01*
X106731482Y-115096759D01*
X106717766Y-115112852D01*
X106713192Y-115123000D01*
X105290110Y-115123000D01*
X105288314Y-115102471D01*
X105287138Y-115098422D01*
X105286726Y-115094224D01*
X105265308Y-115023285D01*
X105244645Y-114952162D01*
X105242705Y-114948419D01*
X105241486Y-114944382D01*
X105206693Y-114878946D01*
X105172613Y-114813199D01*
X105169984Y-114809906D01*
X105168003Y-114806180D01*
X105121160Y-114748744D01*
X105074962Y-114690873D01*
X105069178Y-114685008D01*
X105069076Y-114684883D01*
X105068960Y-114684787D01*
X105067099Y-114682900D01*
X103912641Y-113528441D01*
X104172094Y-113482692D01*
X104423863Y-113385038D01*
X104651868Y-113240341D01*
X104847426Y-113054114D01*
X105003088Y-112833449D01*
X105112925Y-112586752D01*
X105172752Y-112323419D01*
X105177059Y-112014978D01*
X105124608Y-111750077D01*
X105021702Y-111500410D01*
X104872262Y-111275484D01*
X104681980Y-111083869D01*
X104458104Y-110932863D01*
X104209160Y-110828217D01*
X103944632Y-110773917D01*
X103674595Y-110772032D01*
X103409335Y-110822633D01*
X103158954Y-110923793D01*
X102932991Y-111071659D01*
X102740053Y-111260599D01*
X102627000Y-111425708D01*
X102627000Y-107454580D01*
X103240133Y-106841447D01*
X103291554Y-106778847D01*
X103343625Y-106716790D01*
X103345847Y-106712749D01*
X103348774Y-106709185D01*
X103387064Y-106637775D01*
X103426082Y-106566801D01*
X103427476Y-106562407D01*
X103429656Y-106558341D01*
X103453355Y-106480825D01*
X103477835Y-106403653D01*
X103478349Y-106399073D01*
X103479698Y-106394660D01*
X103487887Y-106314042D01*
X103496915Y-106233559D01*
X103496978Y-106224548D01*
X103496995Y-106224376D01*
X103496980Y-106224216D01*
X103497000Y-106221314D01*
X103497000Y-106205607D01*
X103662918Y-106072205D01*
X103849914Y-105849352D01*
X103889417Y-105777497D01*
X103918448Y-105832097D01*
X104102314Y-106057540D01*
X104326467Y-106242975D01*
X104582369Y-106381341D01*
X104860273Y-106467367D01*
X105149594Y-106497776D01*
X105439311Y-106471409D01*
X105718389Y-106389272D01*
X105976198Y-106254493D01*
X106202918Y-106072205D01*
X106389914Y-105849352D01*
X106530063Y-105594422D01*
X106618027Y-105317125D01*
X106650455Y-105028024D01*
X106650600Y-105007212D01*
X106650600Y-104992788D01*
X106622212Y-104703262D01*
X106538128Y-104424764D01*
X106401552Y-104167903D01*
X106217686Y-103942460D01*
X105993533Y-103757025D01*
X105945018Y-103730793D01*
X105976198Y-103714493D01*
X106202918Y-103532205D01*
X106389914Y-103309352D01*
X106530063Y-103054422D01*
X106618027Y-102777125D01*
X106650455Y-102488024D01*
X106650600Y-102467212D01*
X106650600Y-102452788D01*
X106622212Y-102163262D01*
X106538128Y-101884764D01*
X106401552Y-101627903D01*
X106217686Y-101402460D01*
X106192954Y-101382000D01*
X108219088Y-101382000D01*
X108612242Y-101420549D01*
X108960685Y-101525751D01*
X109282060Y-101696628D01*
X109564123Y-101926674D01*
X109796130Y-102207123D01*
X109969247Y-102527295D01*
X110076877Y-102874994D01*
X110118000Y-103266251D01*
X110118000Y-138219087D01*
X110079451Y-138612242D01*
X109974250Y-138960684D01*
X109803371Y-139282060D01*
X109573328Y-139564121D01*
X109292879Y-139796128D01*
X108972704Y-139969247D01*
X108625005Y-140076877D01*
X108233749Y-140118000D01*
X80280913Y-140118000D01*
X79887758Y-140079451D01*
X79539316Y-139974250D01*
X79217940Y-139803371D01*
X78935879Y-139573328D01*
X78703872Y-139292879D01*
X78530753Y-138972704D01*
X78423123Y-138625005D01*
X78382000Y-138233749D01*
X78382000Y-136215782D01*
X82321190Y-136215782D01*
X82369938Y-136481389D01*
X82469347Y-136732469D01*
X82615632Y-136959459D01*
X82803220Y-137153712D01*
X83024967Y-137307830D01*
X83272425Y-137415942D01*
X83536169Y-137473930D01*
X83806153Y-137479585D01*
X84072094Y-137432692D01*
X84323863Y-137335038D01*
X84551868Y-137190341D01*
X84747426Y-137004114D01*
X84903088Y-136783449D01*
X85012925Y-136536752D01*
X85029048Y-136465782D01*
X102421190Y-136465782D01*
X102469938Y-136731389D01*
X102569347Y-136982469D01*
X102715632Y-137209459D01*
X102903220Y-137403712D01*
X103124967Y-137557830D01*
X103372425Y-137665942D01*
X103636169Y-137723930D01*
X103906153Y-137729585D01*
X104172094Y-137682692D01*
X104423863Y-137585038D01*
X104651868Y-137440341D01*
X104847426Y-137254114D01*
X105003088Y-137033449D01*
X105112925Y-136786752D01*
X105172752Y-136523419D01*
X105177059Y-136214978D01*
X105124608Y-135950077D01*
X105021702Y-135700410D01*
X104872262Y-135475484D01*
X104681980Y-135283869D01*
X104458104Y-135132863D01*
X104209160Y-135028217D01*
X103944632Y-134973917D01*
X103674595Y-134972032D01*
X103409335Y-135022633D01*
X103158954Y-135123793D01*
X102932991Y-135271659D01*
X102740053Y-135460599D01*
X102587487Y-135683415D01*
X102481105Y-135931622D01*
X102424960Y-136195765D01*
X102421190Y-136465782D01*
X85029048Y-136465782D01*
X85072752Y-136273419D01*
X85077059Y-135964978D01*
X85024608Y-135700077D01*
X84921702Y-135450410D01*
X84772262Y-135225484D01*
X84581980Y-135033869D01*
X84358104Y-134882863D01*
X84109160Y-134778217D01*
X83844632Y-134723917D01*
X83574595Y-134722032D01*
X83309335Y-134772633D01*
X83058954Y-134873793D01*
X82832991Y-135021659D01*
X82640053Y-135210599D01*
X82487487Y-135433415D01*
X82381105Y-135681622D01*
X82324960Y-135945765D01*
X82321190Y-136215782D01*
X78382000Y-136215782D01*
X78382000Y-132875000D01*
X106619967Y-132875000D01*
X106619967Y-133875000D01*
X106627929Y-133974847D01*
X106680374Y-134144199D01*
X106777923Y-134292235D01*
X106912852Y-134407234D01*
X107074477Y-134480089D01*
X107250000Y-134505033D01*
X108750000Y-134505033D01*
X108849847Y-134497071D01*
X109019199Y-134444626D01*
X109167235Y-134347077D01*
X109282234Y-134212148D01*
X109355089Y-134050523D01*
X109380033Y-133875000D01*
X109380033Y-132875000D01*
X109372071Y-132775153D01*
X109319626Y-132605801D01*
X109222077Y-132457765D01*
X109087148Y-132342766D01*
X108925523Y-132269911D01*
X108750000Y-132244967D01*
X107250000Y-132244967D01*
X107150153Y-132252929D01*
X106980801Y-132305374D01*
X106832765Y-132402923D01*
X106717766Y-132537852D01*
X106644911Y-132699477D01*
X106619967Y-132875000D01*
X78382000Y-132875000D01*
X78382000Y-103280912D01*
X78420549Y-102887758D01*
X78525751Y-102539315D01*
X78696628Y-102217940D01*
X78926674Y-101935877D01*
X79207123Y-101703870D01*
X79527295Y-101530753D01*
X79614430Y-101503781D01*
X79614430Y-102465270D01*
X79773180Y-102624020D01*
X80873000Y-102624020D01*
X80873000Y-102604020D01*
X81127000Y-102604020D01*
X81127000Y-102624020D01*
X82226820Y-102624020D01*
X82385570Y-102465270D01*
X82385570Y-101382000D01*
X83627734Y-101382000D01*
X83429867Y-101579867D01*
X83429867Y-101579867D01*
G37*
X83429867Y-101579867D02*
X83378446Y-101642467D01*
X83326375Y-101704524D01*
X83324153Y-101708565D01*
X83321226Y-101712129D01*
X83282936Y-101783539D01*
X83243918Y-101854513D01*
X83242524Y-101858907D01*
X83240344Y-101862973D01*
X83216645Y-101940489D01*
X83192165Y-102017661D01*
X83191651Y-102022241D01*
X83190302Y-102026654D01*
X83182113Y-102107272D01*
X83173085Y-102187755D01*
X83173022Y-102196766D01*
X83173005Y-102196938D01*
X83173020Y-102197098D01*
X83173000Y-102200000D01*
X83173000Y-102826702D01*
X83119911Y-102944477D01*
X83094967Y-103120000D01*
X83094967Y-104180000D01*
X83102929Y-104279847D01*
X83155374Y-104449199D01*
X83252923Y-104597235D01*
X83387852Y-104712234D01*
X83465678Y-104747315D01*
X83455801Y-104750374D01*
X83307765Y-104847923D01*
X83192766Y-104982852D01*
X83119911Y-105144477D01*
X83094967Y-105320000D01*
X83094967Y-106353111D01*
X82870703Y-106128847D01*
X82808103Y-106077426D01*
X82746046Y-106025355D01*
X82742005Y-106023133D01*
X82738441Y-106020206D01*
X82667031Y-105981916D01*
X82596057Y-105942898D01*
X82591663Y-105941504D01*
X82587597Y-105939324D01*
X82510081Y-105915625D01*
X82432909Y-105891145D01*
X82428329Y-105890631D01*
X82423916Y-105889282D01*
X82380603Y-105884882D01*
X82380603Y-105249110D01*
X82372641Y-105149263D01*
X82320196Y-104979911D01*
X82222647Y-104831875D01*
X82135366Y-104757486D01*
X82155359Y-104744127D01*
X82243807Y-104655679D01*
X82313300Y-104551675D01*
X82361167Y-104436113D01*
X82385570Y-104313432D01*
X82385570Y-103036770D01*
X82226820Y-102878020D01*
X81127000Y-102878020D01*
X81127000Y-102898020D01*
X80873000Y-102898020D01*
X80873000Y-102878020D01*
X79773180Y-102878020D01*
X79614430Y-103036770D01*
X79614430Y-104313432D01*
X79638833Y-104436113D01*
X79686700Y-104551675D01*
X79756193Y-104655679D01*
X79844641Y-104744127D01*
X79863256Y-104756565D01*
X79832195Y-104777033D01*
X79717196Y-104911962D01*
X79644341Y-105073587D01*
X79619397Y-105249110D01*
X79619397Y-108248850D01*
X79627359Y-108348697D01*
X79679804Y-108518049D01*
X79777353Y-108666085D01*
X79912282Y-108781084D01*
X80073907Y-108853939D01*
X80249430Y-108878883D01*
X81750570Y-108878883D01*
X81850417Y-108870921D01*
X81874590Y-108863435D01*
X81874590Y-109135144D01*
X81129867Y-109879867D01*
X81078446Y-109942467D01*
X81026375Y-110004524D01*
X81024153Y-110008565D01*
X81021226Y-110012129D01*
X80982936Y-110083539D01*
X80943918Y-110154513D01*
X80942524Y-110158907D01*
X80940344Y-110162973D01*
X80916645Y-110240489D01*
X80892165Y-110317661D01*
X80891651Y-110322241D01*
X80890302Y-110326654D01*
X80882113Y-110407272D01*
X80873085Y-110487755D01*
X80873022Y-110496766D01*
X80873005Y-110496938D01*
X80873020Y-110497098D01*
X80873000Y-110500000D01*
X80873000Y-121750000D01*
X80880903Y-121830600D01*
X80887965Y-121911326D01*
X80889252Y-121915756D01*
X80889702Y-121920344D01*
X80913114Y-121997887D01*
X80935718Y-122075690D01*
X80937840Y-122079783D01*
X80939173Y-122084199D01*
X80977212Y-122155740D01*
X81014486Y-122227648D01*
X81017363Y-122231251D01*
X81019528Y-122235324D01*
X81070725Y-122298098D01*
X81121269Y-122361414D01*
X81127600Y-122367834D01*
X81127706Y-122367964D01*
X81127826Y-122368063D01*
X81129867Y-122370133D01*
X82088621Y-123328887D01*
X82074320Y-123396168D01*
X82071782Y-123577945D01*
X82104599Y-123756752D01*
X82171522Y-123925780D01*
X82270001Y-124078590D01*
X82396286Y-124209362D01*
X82545566Y-124313114D01*
X82712155Y-124385895D01*
X82889708Y-124424932D01*
X83071463Y-124428740D01*
X83250495Y-124397171D01*
X83419986Y-124331430D01*
X83573479Y-124234020D01*
X83705130Y-124108651D01*
X83809921Y-123960099D01*
X83883864Y-123794022D01*
X83924140Y-123616746D01*
X83927039Y-123409103D01*
X83891729Y-123230771D01*
X83877000Y-123195036D01*
X83877000Y-123000000D01*
X83869097Y-122919400D01*
X83862035Y-122838674D01*
X83860748Y-122834244D01*
X83860298Y-122829656D01*
X83836886Y-122752113D01*
X83814282Y-122674310D01*
X83812160Y-122670217D01*
X83810827Y-122665801D01*
X83772788Y-122594260D01*
X83735514Y-122522352D01*
X83732637Y-122518749D01*
X83730472Y-122514676D01*
X83679275Y-122451902D01*
X83628731Y-122388586D01*
X83622400Y-122382166D01*
X83622294Y-122382036D01*
X83622174Y-122381937D01*
X83620133Y-122379867D01*
X82627000Y-121386734D01*
X82627000Y-112771231D01*
X82803220Y-112953712D01*
X83024967Y-113107830D01*
X83272425Y-113215942D01*
X83536169Y-113273930D01*
X83806153Y-113279585D01*
X84072094Y-113232692D01*
X84323863Y-113135038D01*
X84551868Y-112990341D01*
X84747426Y-112804114D01*
X84903088Y-112583449D01*
X85012925Y-112336752D01*
X85072752Y-112073419D01*
X85077059Y-111764978D01*
X85024608Y-111500077D01*
X84921702Y-111250410D01*
X84772262Y-111025484D01*
X84581980Y-110833869D01*
X84358104Y-110682863D01*
X84109160Y-110578217D01*
X83844632Y-110523917D01*
X83574595Y-110522032D01*
X83309335Y-110572633D01*
X83058954Y-110673793D01*
X82832991Y-110821659D01*
X82640053Y-111010599D01*
X82627000Y-111029662D01*
X82627000Y-110863266D01*
X83371723Y-110118543D01*
X83423144Y-110055943D01*
X83475215Y-109993886D01*
X83477437Y-109989845D01*
X83480364Y-109986281D01*
X83518654Y-109914871D01*
X83557672Y-109843897D01*
X83559066Y-109839503D01*
X83561246Y-109835437D01*
X83584932Y-109757963D01*
X83609425Y-109680749D01*
X83609939Y-109676164D01*
X83611287Y-109671756D01*
X83619471Y-109591187D01*
X83628505Y-109510655D01*
X83628568Y-109501644D01*
X83628585Y-109501472D01*
X83628570Y-109501312D01*
X83628590Y-109498410D01*
X83628590Y-108127000D01*
X85580000Y-108127000D01*
X85660600Y-108119097D01*
X85741326Y-108112035D01*
X85745756Y-108110748D01*
X85750344Y-108110298D01*
X85827887Y-108086886D01*
X85905690Y-108064282D01*
X85909783Y-108062160D01*
X85914199Y-108060827D01*
X85985740Y-108022788D01*
X86057648Y-107985514D01*
X86061251Y-107982637D01*
X86065324Y-107980472D01*
X86128098Y-107929275D01*
X86191414Y-107878731D01*
X86197834Y-107872400D01*
X86197964Y-107872294D01*
X86198063Y-107872174D01*
X86200133Y-107870133D01*
X86570133Y-107500133D01*
X86621554Y-107437533D01*
X86673625Y-107375476D01*
X86675847Y-107371435D01*
X86678774Y-107367871D01*
X86717064Y-107296461D01*
X86756082Y-107225487D01*
X86757476Y-107221093D01*
X86759656Y-107217027D01*
X86783355Y-107139511D01*
X86807835Y-107062339D01*
X86808349Y-107057759D01*
X86809698Y-107053346D01*
X86817887Y-106972728D01*
X86826915Y-106892245D01*
X86826978Y-106883234D01*
X86826995Y-106883062D01*
X86826980Y-106882902D01*
X86827000Y-106880000D01*
X86827000Y-106673298D01*
X86880089Y-106555523D01*
X86905033Y-106380000D01*
X86905033Y-105824167D01*
X87219967Y-105509232D01*
X87219967Y-105600000D01*
X87227929Y-105699847D01*
X87280374Y-105869199D01*
X87377923Y-106017235D01*
X87512852Y-106132234D01*
X87674477Y-106205089D01*
X87850000Y-106230033D01*
X89150000Y-106230033D01*
X89249847Y-106222071D01*
X89419199Y-106169626D01*
X89567235Y-106072077D01*
X89682234Y-105937148D01*
X89755089Y-105775523D01*
X89761985Y-105727000D01*
X89970200Y-105727000D01*
X89977499Y-105818537D01*
X90029944Y-105987889D01*
X90127493Y-106135925D01*
X90262422Y-106250924D01*
X90424047Y-106323779D01*
X90599570Y-106348723D01*
X92400430Y-106348723D01*
X92500277Y-106340761D01*
X92669629Y-106288316D01*
X92817665Y-106190767D01*
X92932664Y-106055838D01*
X93005519Y-105894213D01*
X93030463Y-105718690D01*
X93030463Y-105285750D01*
X93501400Y-105285750D01*
X93501400Y-105926142D01*
X93525803Y-106048823D01*
X93573670Y-106164385D01*
X93643163Y-106268389D01*
X93731611Y-106356837D01*
X93835615Y-106426330D01*
X93951177Y-106474197D01*
X94073858Y-106498600D01*
X94714250Y-106498600D01*
X94873000Y-106339850D01*
X94873000Y-105127000D01*
X93660150Y-105127000D01*
X93501400Y-105285750D01*
X93030463Y-105285750D01*
X93030463Y-104121030D01*
X93022501Y-104021183D01*
X92970056Y-103851831D01*
X92872507Y-103703795D01*
X92737578Y-103588796D01*
X92575953Y-103515941D01*
X92504274Y-103505754D01*
X92585653Y-103489567D01*
X92701215Y-103441700D01*
X92805219Y-103372207D01*
X92893667Y-103283759D01*
X92963160Y-103179755D01*
X93011027Y-103064193D01*
X93035430Y-102941512D01*
X93035430Y-102365890D01*
X92876680Y-102207140D01*
X91627000Y-102207140D01*
X91627000Y-102227140D01*
X91373000Y-102227140D01*
X91373000Y-102207140D01*
X90123320Y-102207140D01*
X89964570Y-102365890D01*
X89964570Y-102941512D01*
X89988973Y-103064193D01*
X90036840Y-103179755D01*
X90106333Y-103283759D01*
X90194781Y-103372207D01*
X90298785Y-103441700D01*
X90414347Y-103489567D01*
X90484799Y-103503581D01*
X90330371Y-103551404D01*
X90182335Y-103648953D01*
X90067336Y-103783882D01*
X89994481Y-103945507D01*
X89990574Y-103973000D01*
X89763662Y-103973000D01*
X89719626Y-103830801D01*
X89622077Y-103682765D01*
X89487148Y-103567766D01*
X89330421Y-103497119D01*
X89419199Y-103469626D01*
X89567235Y-103372077D01*
X89682234Y-103237148D01*
X89755089Y-103075523D01*
X89780033Y-102900000D01*
X89780033Y-101400000D01*
X89778598Y-101382000D01*
X89964570Y-101382000D01*
X89964570Y-101794390D01*
X90123320Y-101953140D01*
X91373000Y-101953140D01*
X91373000Y-101933140D01*
X91627000Y-101933140D01*
X91627000Y-101953140D01*
X92876680Y-101953140D01*
X93035430Y-101794390D01*
X93035430Y-101382000D01*
X93964290Y-101382000D01*
X93957082Y-101387795D01*
X93770086Y-101610648D01*
X93629937Y-101865578D01*
X93541973Y-102142875D01*
X93509545Y-102431976D01*
X93509400Y-102452788D01*
X93509400Y-102467212D01*
X93537788Y-102756738D01*
X93621872Y-103035236D01*
X93758448Y-103292097D01*
X93942314Y-103517540D01*
X93952084Y-103525623D01*
X93951177Y-103525803D01*
X93835615Y-103573670D01*
X93731611Y-103643163D01*
X93643163Y-103731611D01*
X93573670Y-103835615D01*
X93525803Y-103951177D01*
X93501400Y-104073858D01*
X93501400Y-104714250D01*
X93660150Y-104873000D01*
X94873000Y-104873000D01*
X94873000Y-104853000D01*
X95127000Y-104853000D01*
X95127000Y-104873000D01*
X95147000Y-104873000D01*
X95147000Y-105127000D01*
X95127000Y-105127000D01*
X95127000Y-106339850D01*
X95285750Y-106498600D01*
X95926142Y-106498600D01*
X96048823Y-106474197D01*
X96164385Y-106426330D01*
X96268389Y-106356837D01*
X96356837Y-106268389D01*
X96426330Y-106164385D01*
X96474197Y-106048823D01*
X96474395Y-106047830D01*
X96482314Y-106057540D01*
X96706467Y-106242975D01*
X96962369Y-106381341D01*
X97240273Y-106467367D01*
X97529594Y-106497776D01*
X97819311Y-106471409D01*
X98098389Y-106389272D01*
X98356198Y-106254493D01*
X98582918Y-106072205D01*
X98769914Y-105849352D01*
X98809417Y-105777497D01*
X98838448Y-105832097D01*
X99022314Y-106057540D01*
X99246467Y-106242975D01*
X99434361Y-106344569D01*
X98182900Y-107596030D01*
X98135860Y-107653297D01*
X98088259Y-107710026D01*
X98086227Y-107713721D01*
X98083550Y-107716981D01*
X98048553Y-107782251D01*
X98012853Y-107847189D01*
X98011577Y-107851212D01*
X98009586Y-107854925D01*
X97987926Y-107925771D01*
X97965526Y-107996385D01*
X97965056Y-108000572D01*
X97963822Y-108004609D01*
X97956328Y-108078381D01*
X97948078Y-108151932D01*
X97948021Y-108160167D01*
X97948004Y-108160331D01*
X97948018Y-108160484D01*
X97948000Y-108163130D01*
X97948000Y-121500000D01*
X97955230Y-121573734D01*
X97961686Y-121647529D01*
X97962862Y-121651578D01*
X97963274Y-121655776D01*
X97984678Y-121726669D01*
X98005354Y-121797838D01*
X98007296Y-121801585D01*
X98008514Y-121805618D01*
X98043299Y-121871039D01*
X98077387Y-121936800D01*
X98080015Y-121940092D01*
X98081997Y-121943820D01*
X98128853Y-122001271D01*
X98175037Y-122059126D01*
X98180825Y-122064996D01*
X98180924Y-122065117D01*
X98181036Y-122065210D01*
X98182900Y-122067100D01*
X99698000Y-123582199D01*
X99698000Y-125250000D01*
X99705230Y-125323734D01*
X99711686Y-125397529D01*
X99712862Y-125401578D01*
X99713274Y-125405776D01*
X99734678Y-125476669D01*
X99755354Y-125547838D01*
X99757296Y-125551585D01*
X99758514Y-125555618D01*
X99793299Y-125621039D01*
X99827387Y-125686800D01*
X99830015Y-125690092D01*
X99831997Y-125693820D01*
X99878853Y-125751271D01*
X99925037Y-125809126D01*
X99930825Y-125814996D01*
X99930924Y-125815117D01*
X99931036Y-125815210D01*
X99932900Y-125817100D01*
X101688801Y-127573000D01*
X94125000Y-127573000D01*
X94051266Y-127580230D01*
X93977471Y-127586686D01*
X93973422Y-127587862D01*
X93969224Y-127588274D01*
X93898285Y-127609692D01*
X93827162Y-127630355D01*
X93823419Y-127632295D01*
X93819382Y-127633514D01*
X93753946Y-127668307D01*
X93688199Y-127702387D01*
X93684906Y-127705016D01*
X93681180Y-127706997D01*
X93623720Y-127753860D01*
X93565874Y-127800038D01*
X93560010Y-127805821D01*
X93559883Y-127805924D01*
X93559786Y-127806041D01*
X93557900Y-127807901D01*
X92764664Y-128601137D01*
X92737003Y-128606413D01*
X92568447Y-128674515D01*
X92416328Y-128774058D01*
X92286441Y-128901253D01*
X92183733Y-129051254D01*
X92112117Y-129218347D01*
X92074320Y-129396168D01*
X92071782Y-129577945D01*
X92104599Y-129756752D01*
X92171522Y-129925780D01*
X92270001Y-130078590D01*
X92396286Y-130209362D01*
X92545566Y-130313114D01*
X92712155Y-130385895D01*
X92889708Y-130424932D01*
X93071463Y-130428740D01*
X93250495Y-130397171D01*
X93307655Y-130375000D01*
X106619967Y-130375000D01*
X106619967Y-131375000D01*
X106627929Y-131474847D01*
X106680374Y-131644199D01*
X106777923Y-131792235D01*
X106912852Y-131907234D01*
X107074477Y-131980089D01*
X107250000Y-132005033D01*
X108750000Y-132005033D01*
X108849847Y-131997071D01*
X109019199Y-131944626D01*
X109167235Y-131847077D01*
X109282234Y-131712148D01*
X109355089Y-131550523D01*
X109380033Y-131375000D01*
X109380033Y-130375000D01*
X109372071Y-130275153D01*
X109319626Y-130105801D01*
X109222077Y-129957765D01*
X109087148Y-129842766D01*
X108925523Y-129769911D01*
X108750000Y-129744967D01*
X107250000Y-129744967D01*
X107150153Y-129752929D01*
X106980801Y-129805374D01*
X106832765Y-129902923D01*
X106717766Y-130037852D01*
X106644911Y-130199477D01*
X106619967Y-130375000D01*
X93307655Y-130375000D01*
X93419986Y-130331430D01*
X93573479Y-130234020D01*
X93705130Y-130108651D01*
X93809921Y-129960099D01*
X93883864Y-129794022D01*
X93896707Y-129737493D01*
X94457199Y-129177000D01*
X106701988Y-129177000D01*
X106777923Y-129292235D01*
X106912852Y-129407234D01*
X107074477Y-129480089D01*
X107250000Y-129505033D01*
X108750000Y-129505033D01*
X108849847Y-129497071D01*
X109019199Y-129444626D01*
X109167235Y-129347077D01*
X109282234Y-129212148D01*
X109355089Y-129050523D01*
X109380033Y-128875000D01*
X109380033Y-127875000D01*
X109372071Y-127775153D01*
X109319626Y-127605801D01*
X109222077Y-127457765D01*
X109087148Y-127342766D01*
X108925523Y-127269911D01*
X108750000Y-127244967D01*
X107250000Y-127244967D01*
X107150153Y-127252929D01*
X106980801Y-127305374D01*
X106832765Y-127402923D01*
X106717766Y-127537852D01*
X106701922Y-127573000D01*
X103957199Y-127573000D01*
X101302000Y-124917800D01*
X101302000Y-123292266D01*
X102737330Y-124727596D01*
X102666328Y-124774058D01*
X102536441Y-124901253D01*
X102433733Y-125051254D01*
X102362117Y-125218347D01*
X102324320Y-125396168D01*
X102321782Y-125577945D01*
X102354599Y-125756752D01*
X102421522Y-125925780D01*
X102520001Y-126078590D01*
X102646286Y-126209362D01*
X102795566Y-126313114D01*
X102962155Y-126385895D01*
X103139708Y-126424932D01*
X103321463Y-126428740D01*
X103500495Y-126397171D01*
X103669986Y-126331430D01*
X103823479Y-126234020D01*
X103955130Y-126108651D01*
X104059921Y-125960099D01*
X104080797Y-125913211D01*
X104142661Y-125932835D01*
X104147241Y-125933349D01*
X104151654Y-125934698D01*
X104232272Y-125942887D01*
X104312755Y-125951915D01*
X104321766Y-125951978D01*
X104321938Y-125951995D01*
X104322098Y-125951980D01*
X104325000Y-125952000D01*
X106751410Y-125952000D01*
X106777923Y-125992235D01*
X106912852Y-126107234D01*
X107074477Y-126180089D01*
X107250000Y-126205033D01*
X108750000Y-126205033D01*
X108849847Y-126197071D01*
X109019199Y-126144626D01*
X109167235Y-126047077D01*
X109282234Y-125912148D01*
X109355089Y-125750523D01*
X109380033Y-125575000D01*
X109380033Y-124575000D01*
X109372071Y-124475153D01*
X109319626Y-124305801D01*
X109268518Y-124228241D01*
X109282234Y-124212148D01*
X109355089Y-124050523D01*
X109380033Y-123875000D01*
X109380033Y-122875000D01*
X109372071Y-122775153D01*
X109319626Y-122605801D01*
X109222077Y-122457765D01*
X109087148Y-122342766D01*
X108925523Y-122269911D01*
X108750000Y-122244967D01*
X107250000Y-122244967D01*
X107150153Y-122252929D01*
X106980801Y-122305374D01*
X106832765Y-122402923D01*
X106751732Y-122498000D01*
X105529469Y-122498000D01*
X105471849Y-122411274D01*
X105343751Y-122282278D01*
X105193037Y-122180621D01*
X105025448Y-122110173D01*
X104847367Y-122073618D01*
X104665577Y-122072349D01*
X104487003Y-122106413D01*
X104318447Y-122174515D01*
X104166328Y-122274058D01*
X104036441Y-122401253D01*
X103933733Y-122551254D01*
X103862117Y-122718347D01*
X103824320Y-122896168D01*
X103821782Y-123077945D01*
X103854599Y-123256752D01*
X103921522Y-123425780D01*
X103931448Y-123441182D01*
X102627000Y-122136734D01*
X102627000Y-120827945D01*
X102821782Y-120827945D01*
X102854599Y-121006752D01*
X102921522Y-121175780D01*
X103020001Y-121328590D01*
X103146286Y-121459362D01*
X103295566Y-121563114D01*
X103462155Y-121635895D01*
X103639708Y-121674932D01*
X103821463Y-121678740D01*
X104000495Y-121647171D01*
X104052499Y-121627000D01*
X106675048Y-121627000D01*
X106680374Y-121644199D01*
X106777923Y-121792235D01*
X106912852Y-121907234D01*
X107074477Y-121980089D01*
X107250000Y-122005033D01*
X108750000Y-122005033D01*
X108849847Y-121997071D01*
X109019199Y-121944626D01*
X109167235Y-121847077D01*
X109282234Y-121712148D01*
X109355089Y-121550523D01*
X109380033Y-121375000D01*
X109380033Y-120375000D01*
X109372071Y-120275153D01*
X109319626Y-120105801D01*
X109222077Y-119957765D01*
X109087148Y-119842766D01*
X108925523Y-119769911D01*
X108750000Y-119744967D01*
X107250000Y-119744967D01*
X107150153Y-119752929D01*
X106980801Y-119805374D01*
X106878175Y-119873000D01*
X104055962Y-119873000D01*
X104025448Y-119860173D01*
X103847367Y-119823618D01*
X103665577Y-119822349D01*
X103487003Y-119856413D01*
X103318447Y-119924515D01*
X103166328Y-120024058D01*
X103036441Y-120151253D01*
X102933733Y-120301254D01*
X102862117Y-120468347D01*
X102824320Y-120646168D01*
X102821782Y-120827945D01*
X102627000Y-120827945D01*
X102627000Y-114598692D01*
X102712155Y-114635895D01*
X102762839Y-114647038D01*
X103678729Y-115562928D01*
X103612117Y-115718347D01*
X103574320Y-115896168D01*
X103571782Y-116077945D01*
X103604599Y-116256752D01*
X103671522Y-116425780D01*
X103770001Y-116578590D01*
X103896286Y-116709362D01*
X104045566Y-116813114D01*
X104212155Y-116885895D01*
X104389708Y-116924932D01*
X104571463Y-116928740D01*
X104750495Y-116897171D01*
X104802499Y-116877000D01*
X106789380Y-116877000D01*
X106912852Y-116982234D01*
X107074477Y-117055089D01*
X107250000Y-117080033D01*
X108750000Y-117080033D01*
X108849847Y-117072071D01*
X109019199Y-117019626D01*
X109167235Y-116922077D01*
X109282234Y-116787148D01*
X109355089Y-116625523D01*
X109380033Y-116450000D01*
X109380033Y-115450000D01*
X109372071Y-115350153D01*
X109319626Y-115180801D01*
X109268518Y-115103241D01*
X109282234Y-115087148D01*
X109355089Y-114925523D01*
X109380033Y-114750000D01*
X109380033Y-113750000D01*
X109372071Y-113650153D01*
X109319626Y-113480801D01*
X109222077Y-113332765D01*
X109087148Y-113217766D01*
X108925523Y-113144911D01*
X108750000Y-113119967D01*
X107250000Y-113119967D01*
X107150153Y-113127929D01*
X106980801Y-113180374D01*
X106832765Y-113277923D01*
X106717766Y-113412852D01*
X106644911Y-113574477D01*
X106619967Y-113750000D01*
X106619967Y-114750000D01*
X106627929Y-114849847D01*
X106680374Y-115019199D01*
X106731482Y-115096759D01*
X106717766Y-115112852D01*
X106713192Y-115123000D01*
X105290110Y-115123000D01*
X105288314Y-115102471D01*
X105287138Y-115098422D01*
X105286726Y-115094224D01*
X105265308Y-115023285D01*
X105244645Y-114952162D01*
X105242705Y-114948419D01*
X105241486Y-114944382D01*
X105206693Y-114878946D01*
X105172613Y-114813199D01*
X105169984Y-114809906D01*
X105168003Y-114806180D01*
X105121160Y-114748744D01*
X105074962Y-114690873D01*
X105069178Y-114685008D01*
X105069076Y-114684883D01*
X105068960Y-114684787D01*
X105067099Y-114682900D01*
X103912641Y-113528441D01*
X104172094Y-113482692D01*
X104423863Y-113385038D01*
X104651868Y-113240341D01*
X104847426Y-113054114D01*
X105003088Y-112833449D01*
X105112925Y-112586752D01*
X105172752Y-112323419D01*
X105177059Y-112014978D01*
X105124608Y-111750077D01*
X105021702Y-111500410D01*
X104872262Y-111275484D01*
X104681980Y-111083869D01*
X104458104Y-110932863D01*
X104209160Y-110828217D01*
X103944632Y-110773917D01*
X103674595Y-110772032D01*
X103409335Y-110822633D01*
X103158954Y-110923793D01*
X102932991Y-111071659D01*
X102740053Y-111260599D01*
X102627000Y-111425708D01*
X102627000Y-107454580D01*
X103240133Y-106841447D01*
X103291554Y-106778847D01*
X103343625Y-106716790D01*
X103345847Y-106712749D01*
X103348774Y-106709185D01*
X103387064Y-106637775D01*
X103426082Y-106566801D01*
X103427476Y-106562407D01*
X103429656Y-106558341D01*
X103453355Y-106480825D01*
X103477835Y-106403653D01*
X103478349Y-106399073D01*
X103479698Y-106394660D01*
X103487887Y-106314042D01*
X103496915Y-106233559D01*
X103496978Y-106224548D01*
X103496995Y-106224376D01*
X103496980Y-106224216D01*
X103497000Y-106221314D01*
X103497000Y-106205607D01*
X103662918Y-106072205D01*
X103849914Y-105849352D01*
X103889417Y-105777497D01*
X103918448Y-105832097D01*
X104102314Y-106057540D01*
X104326467Y-106242975D01*
X104582369Y-106381341D01*
X104860273Y-106467367D01*
X105149594Y-106497776D01*
X105439311Y-106471409D01*
X105718389Y-106389272D01*
X105976198Y-106254493D01*
X106202918Y-106072205D01*
X106389914Y-105849352D01*
X106530063Y-105594422D01*
X106618027Y-105317125D01*
X106650455Y-105028024D01*
X106650600Y-105007212D01*
X106650600Y-104992788D01*
X106622212Y-104703262D01*
X106538128Y-104424764D01*
X106401552Y-104167903D01*
X106217686Y-103942460D01*
X105993533Y-103757025D01*
X105945018Y-103730793D01*
X105976198Y-103714493D01*
X106202918Y-103532205D01*
X106389914Y-103309352D01*
X106530063Y-103054422D01*
X106618027Y-102777125D01*
X106650455Y-102488024D01*
X106650600Y-102467212D01*
X106650600Y-102452788D01*
X106622212Y-102163262D01*
X106538128Y-101884764D01*
X106401552Y-101627903D01*
X106217686Y-101402460D01*
X106192954Y-101382000D01*
X108219088Y-101382000D01*
X108612242Y-101420549D01*
X108960685Y-101525751D01*
X109282060Y-101696628D01*
X109564123Y-101926674D01*
X109796130Y-102207123D01*
X109969247Y-102527295D01*
X110076877Y-102874994D01*
X110118000Y-103266251D01*
X110118000Y-138219087D01*
X110079451Y-138612242D01*
X109974250Y-138960684D01*
X109803371Y-139282060D01*
X109573328Y-139564121D01*
X109292879Y-139796128D01*
X108972704Y-139969247D01*
X108625005Y-140076877D01*
X108233749Y-140118000D01*
X80280913Y-140118000D01*
X79887758Y-140079451D01*
X79539316Y-139974250D01*
X79217940Y-139803371D01*
X78935879Y-139573328D01*
X78703872Y-139292879D01*
X78530753Y-138972704D01*
X78423123Y-138625005D01*
X78382000Y-138233749D01*
X78382000Y-136215782D01*
X82321190Y-136215782D01*
X82369938Y-136481389D01*
X82469347Y-136732469D01*
X82615632Y-136959459D01*
X82803220Y-137153712D01*
X83024967Y-137307830D01*
X83272425Y-137415942D01*
X83536169Y-137473930D01*
X83806153Y-137479585D01*
X84072094Y-137432692D01*
X84323863Y-137335038D01*
X84551868Y-137190341D01*
X84747426Y-137004114D01*
X84903088Y-136783449D01*
X85012925Y-136536752D01*
X85029048Y-136465782D01*
X102421190Y-136465782D01*
X102469938Y-136731389D01*
X102569347Y-136982469D01*
X102715632Y-137209459D01*
X102903220Y-137403712D01*
X103124967Y-137557830D01*
X103372425Y-137665942D01*
X103636169Y-137723930D01*
X103906153Y-137729585D01*
X104172094Y-137682692D01*
X104423863Y-137585038D01*
X104651868Y-137440341D01*
X104847426Y-137254114D01*
X105003088Y-137033449D01*
X105112925Y-136786752D01*
X105172752Y-136523419D01*
X105177059Y-136214978D01*
X105124608Y-135950077D01*
X105021702Y-135700410D01*
X104872262Y-135475484D01*
X104681980Y-135283869D01*
X104458104Y-135132863D01*
X104209160Y-135028217D01*
X103944632Y-134973917D01*
X103674595Y-134972032D01*
X103409335Y-135022633D01*
X103158954Y-135123793D01*
X102932991Y-135271659D01*
X102740053Y-135460599D01*
X102587487Y-135683415D01*
X102481105Y-135931622D01*
X102424960Y-136195765D01*
X102421190Y-136465782D01*
X85029048Y-136465782D01*
X85072752Y-136273419D01*
X85077059Y-135964978D01*
X85024608Y-135700077D01*
X84921702Y-135450410D01*
X84772262Y-135225484D01*
X84581980Y-135033869D01*
X84358104Y-134882863D01*
X84109160Y-134778217D01*
X83844632Y-134723917D01*
X83574595Y-134722032D01*
X83309335Y-134772633D01*
X83058954Y-134873793D01*
X82832991Y-135021659D01*
X82640053Y-135210599D01*
X82487487Y-135433415D01*
X82381105Y-135681622D01*
X82324960Y-135945765D01*
X82321190Y-136215782D01*
X78382000Y-136215782D01*
X78382000Y-132875000D01*
X106619967Y-132875000D01*
X106619967Y-133875000D01*
X106627929Y-133974847D01*
X106680374Y-134144199D01*
X106777923Y-134292235D01*
X106912852Y-134407234D01*
X107074477Y-134480089D01*
X107250000Y-134505033D01*
X108750000Y-134505033D01*
X108849847Y-134497071D01*
X109019199Y-134444626D01*
X109167235Y-134347077D01*
X109282234Y-134212148D01*
X109355089Y-134050523D01*
X109380033Y-133875000D01*
X109380033Y-132875000D01*
X109372071Y-132775153D01*
X109319626Y-132605801D01*
X109222077Y-132457765D01*
X109087148Y-132342766D01*
X108925523Y-132269911D01*
X108750000Y-132244967D01*
X107250000Y-132244967D01*
X107150153Y-132252929D01*
X106980801Y-132305374D01*
X106832765Y-132402923D01*
X106717766Y-132537852D01*
X106644911Y-132699477D01*
X106619967Y-132875000D01*
X78382000Y-132875000D01*
X78382000Y-103280912D01*
X78420549Y-102887758D01*
X78525751Y-102539315D01*
X78696628Y-102217940D01*
X78926674Y-101935877D01*
X79207123Y-101703870D01*
X79527295Y-101530753D01*
X79614430Y-101503781D01*
X79614430Y-102465270D01*
X79773180Y-102624020D01*
X80873000Y-102624020D01*
X80873000Y-102604020D01*
X81127000Y-102604020D01*
X81127000Y-102624020D01*
X82226820Y-102624020D01*
X82385570Y-102465270D01*
X82385570Y-101382000D01*
X83627734Y-101382000D01*
X83429867Y-101579867D01*
G36*
X100873000Y-122488801D02*
X99552000Y-121167800D01*
X99552000Y-108495330D01*
X100873000Y-107174329D01*
X100873000Y-122488801D01*
X100873000Y-122488801D01*
G37*
X100873000Y-122488801D02*
X99552000Y-121167800D01*
X99552000Y-108495330D01*
X100873000Y-107174329D01*
X100873000Y-122488801D01*
G36*
X85623000Y-102490126D02*
X85525153Y-102497929D01*
X85496754Y-102506724D01*
X85387542Y-102485000D01*
X85285750Y-102485000D01*
X85127002Y-102643748D01*
X85127002Y-102485000D01*
X85005266Y-102485000D01*
X85113265Y-102377000D01*
X85623000Y-102377000D01*
X85623000Y-102490126D01*
X85623000Y-102490126D01*
G37*
X85623000Y-102490126D02*
X85525153Y-102497929D01*
X85496754Y-102506724D01*
X85387542Y-102485000D01*
X85285750Y-102485000D01*
X85127002Y-102643748D01*
X85127002Y-102485000D01*
X85005266Y-102485000D01*
X85113265Y-102377000D01*
X85623000Y-102377000D01*
X85623000Y-102490126D01*
M02*
