G04 #@! TF.FileFunction,Legend,Top*
%FSLAX46Y46*%
G04 Gerber Fmt 4.6, Leading zero omitted, Abs format (unit mm)*
G04 Created by KiCad (PCBNEW 4.0.2-stable) date 26.07.2016 22:38:52*
%MOMM*%
G01*
G04 APERTURE LIST*
%ADD10C,0.100000*%
%ADD11C,0.300000*%
%ADD12C,0.150000*%
%ADD13C,0.075000*%
%ADD14C,0.002540*%
G04 APERTURE END LIST*
D10*
D11*
X93458571Y-128372570D02*
X92744286Y-128872570D01*
X93458571Y-129229713D02*
X91958571Y-129229713D01*
X91958571Y-128658285D01*
X92030000Y-128515427D01*
X92101429Y-128443999D01*
X92244286Y-128372570D01*
X92458571Y-128372570D01*
X92601429Y-128443999D01*
X92672857Y-128515427D01*
X92744286Y-128658285D01*
X92744286Y-129229713D01*
X93387143Y-127158285D02*
X93458571Y-127301142D01*
X93458571Y-127586856D01*
X93387143Y-127729713D01*
X93244286Y-127801142D01*
X92672857Y-127801142D01*
X92530000Y-127729713D01*
X92458571Y-127586856D01*
X92458571Y-127301142D01*
X92530000Y-127158285D01*
X92672857Y-127086856D01*
X92815714Y-127086856D01*
X92958571Y-127801142D01*
X93387143Y-126515428D02*
X93458571Y-126301142D01*
X93458571Y-125943999D01*
X93387143Y-125801142D01*
X93315714Y-125729713D01*
X93172857Y-125658285D01*
X93030000Y-125658285D01*
X92887143Y-125729713D01*
X92815714Y-125801142D01*
X92744286Y-125943999D01*
X92672857Y-126229713D01*
X92601429Y-126372571D01*
X92530000Y-126443999D01*
X92387143Y-126515428D01*
X92244286Y-126515428D01*
X92101429Y-126443999D01*
X92030000Y-126372571D01*
X91958571Y-126229713D01*
X91958571Y-125872571D01*
X92030000Y-125658285D01*
X91958571Y-125229714D02*
X91958571Y-124372571D01*
X93458571Y-124801142D02*
X91958571Y-124801142D01*
X91958571Y-124015428D02*
X91958571Y-123086857D01*
X92530000Y-123586857D01*
X92530000Y-123372571D01*
X92601429Y-123229714D01*
X92672857Y-123158285D01*
X92815714Y-123086857D01*
X93172857Y-123086857D01*
X93315714Y-123158285D01*
X93387143Y-123229714D01*
X93458571Y-123372571D01*
X93458571Y-123801143D01*
X93387143Y-123944000D01*
X93315714Y-124015428D01*
X92101429Y-122515429D02*
X92030000Y-122444000D01*
X91958571Y-122301143D01*
X91958571Y-121944000D01*
X92030000Y-121801143D01*
X92101429Y-121729714D01*
X92244286Y-121658286D01*
X92387143Y-121658286D01*
X92601429Y-121729714D01*
X93458571Y-122586857D01*
X93458571Y-121658286D01*
X93387143Y-119944001D02*
X93458571Y-119729715D01*
X93458571Y-119372572D01*
X93387143Y-119229715D01*
X93315714Y-119158286D01*
X93172857Y-119086858D01*
X93030000Y-119086858D01*
X92887143Y-119158286D01*
X92815714Y-119229715D01*
X92744286Y-119372572D01*
X92672857Y-119658286D01*
X92601429Y-119801144D01*
X92530000Y-119872572D01*
X92387143Y-119944001D01*
X92244286Y-119944001D01*
X92101429Y-119872572D01*
X92030000Y-119801144D01*
X91958571Y-119658286D01*
X91958571Y-119301144D01*
X92030000Y-119086858D01*
X93458571Y-118444001D02*
X91958571Y-118444001D01*
X91958571Y-118086858D01*
X92030000Y-117872573D01*
X92172857Y-117729715D01*
X92315714Y-117658287D01*
X92601429Y-117586858D01*
X92815714Y-117586858D01*
X93101429Y-117658287D01*
X93244286Y-117729715D01*
X93387143Y-117872573D01*
X93458571Y-118086858D01*
X93458571Y-118444001D01*
X95715714Y-129586856D02*
X95787143Y-129658285D01*
X95858571Y-129872571D01*
X95858571Y-130015428D01*
X95787143Y-130229713D01*
X95644286Y-130372571D01*
X95501429Y-130443999D01*
X95215714Y-130515428D01*
X95001429Y-130515428D01*
X94715714Y-130443999D01*
X94572857Y-130372571D01*
X94430000Y-130229713D01*
X94358571Y-130015428D01*
X94358571Y-129872571D01*
X94430000Y-129658285D01*
X94501429Y-129586856D01*
X95858571Y-128301142D02*
X95072857Y-128301142D01*
X94930000Y-128372571D01*
X94858571Y-128515428D01*
X94858571Y-128801142D01*
X94930000Y-128943999D01*
X95787143Y-128301142D02*
X95858571Y-128443999D01*
X95858571Y-128801142D01*
X95787143Y-128943999D01*
X95644286Y-129015428D01*
X95501429Y-129015428D01*
X95358571Y-128943999D01*
X95287143Y-128801142D01*
X95287143Y-128443999D01*
X95215714Y-128301142D01*
X95858571Y-127586856D02*
X94858571Y-127586856D01*
X95144286Y-127586856D02*
X95001429Y-127515428D01*
X94930000Y-127443999D01*
X94858571Y-127301142D01*
X94858571Y-127158285D01*
X95858571Y-126015428D02*
X94358571Y-126015428D01*
X95787143Y-126015428D02*
X95858571Y-126158285D01*
X95858571Y-126443999D01*
X95787143Y-126586857D01*
X95715714Y-126658285D01*
X95572857Y-126729714D01*
X95144286Y-126729714D01*
X95001429Y-126658285D01*
X94930000Y-126586857D01*
X94858571Y-126443999D01*
X94858571Y-126158285D01*
X94930000Y-126015428D01*
X95430000Y-124229714D02*
X95430000Y-123515428D01*
X95858571Y-124372571D02*
X94358571Y-123872571D01*
X95858571Y-123372571D01*
X95858571Y-122229714D02*
X94358571Y-122229714D01*
X95787143Y-122229714D02*
X95858571Y-122372571D01*
X95858571Y-122658285D01*
X95787143Y-122801143D01*
X95715714Y-122872571D01*
X95572857Y-122944000D01*
X95144286Y-122944000D01*
X95001429Y-122872571D01*
X94930000Y-122801143D01*
X94858571Y-122658285D01*
X94858571Y-122372571D01*
X94930000Y-122229714D01*
X95858571Y-120872571D02*
X95072857Y-120872571D01*
X94930000Y-120944000D01*
X94858571Y-121086857D01*
X94858571Y-121372571D01*
X94930000Y-121515428D01*
X95787143Y-120872571D02*
X95858571Y-121015428D01*
X95858571Y-121372571D01*
X95787143Y-121515428D01*
X95644286Y-121586857D01*
X95501429Y-121586857D01*
X95358571Y-121515428D01*
X95287143Y-121372571D01*
X95287143Y-121015428D01*
X95215714Y-120872571D01*
X94858571Y-120158285D02*
X96358571Y-120158285D01*
X94930000Y-120158285D02*
X94858571Y-120015428D01*
X94858571Y-119729714D01*
X94930000Y-119586857D01*
X95001429Y-119515428D01*
X95144286Y-119443999D01*
X95572857Y-119443999D01*
X95715714Y-119515428D01*
X95787143Y-119586857D01*
X95858571Y-119729714D01*
X95858571Y-120015428D01*
X95787143Y-120158285D01*
X94858571Y-119015428D02*
X94858571Y-118443999D01*
X94358571Y-118801142D02*
X95644286Y-118801142D01*
X95787143Y-118729714D01*
X95858571Y-118586856D01*
X95858571Y-118443999D01*
X95787143Y-117372571D02*
X95858571Y-117515428D01*
X95858571Y-117801142D01*
X95787143Y-117943999D01*
X95644286Y-118015428D01*
X95072857Y-118015428D01*
X94930000Y-117943999D01*
X94858571Y-117801142D01*
X94858571Y-117515428D01*
X94930000Y-117372571D01*
X95072857Y-117301142D01*
X95215714Y-117301142D01*
X95358571Y-118015428D01*
X95858571Y-116658285D02*
X94858571Y-116658285D01*
X95144286Y-116658285D02*
X95001429Y-116586857D01*
X94930000Y-116515428D01*
X94858571Y-116372571D01*
X94858571Y-116229714D01*
D12*
X82198880Y-107350960D02*
X82198880Y-102149040D01*
X79801120Y-102149040D02*
X79801120Y-107350960D01*
X78701300Y-109349940D02*
X79801120Y-109349940D01*
X79201680Y-109949380D02*
X79201680Y-108750500D01*
X79801120Y-108745420D02*
X82198880Y-108745420D01*
X108000000Y-131900000D02*
X108000000Y-132400000D01*
X108000000Y-129400000D02*
X108000000Y-129900000D01*
X108000000Y-121900000D02*
X108000000Y-122400000D01*
X108000000Y-119400000D02*
X108000000Y-119900000D01*
X108000000Y-117000000D02*
X108000000Y-117400000D01*
X108000000Y-111900000D02*
X108000000Y-113300000D01*
X87400000Y-110000000D02*
X108000000Y-110000000D01*
X88600000Y-138900000D02*
X108000000Y-138900000D01*
X108000000Y-138900000D02*
X108000000Y-134400000D01*
X78200000Y-138900000D02*
X78200000Y-110000000D01*
X78200000Y-110000000D02*
X84200000Y-110000000D01*
X78200000Y-138900000D02*
X85400000Y-138900000D01*
X90450000Y-101350000D02*
X90450000Y-104950000D01*
X92550000Y-101350000D02*
X92550000Y-104950000D01*
X91800000Y-103400000D02*
X91200000Y-103400000D01*
X91200000Y-103400000D02*
X91500000Y-103100000D01*
X91500000Y-103100000D02*
X91700000Y-103300000D01*
X91700000Y-103300000D02*
X91450000Y-103300000D01*
X91450000Y-103300000D02*
X91500000Y-103250000D01*
X92000000Y-103000000D02*
X91000000Y-103000000D01*
X91500000Y-103500000D02*
X91500000Y-104000000D01*
X91500000Y-103000000D02*
X92000000Y-103500000D01*
X92000000Y-103500000D02*
X91000000Y-103500000D01*
X91000000Y-103500000D02*
X91500000Y-103000000D01*
X93730000Y-101190000D02*
X106430000Y-101190000D01*
X106430000Y-101190000D02*
X106430000Y-106270000D01*
X106430000Y-106270000D02*
X96270000Y-106270000D01*
X93730000Y-101190000D02*
X93730000Y-103730000D01*
X93450000Y-105000000D02*
X93450000Y-106550000D01*
X93730000Y-103730000D02*
X96270000Y-103730000D01*
X96270000Y-103730000D02*
X96270000Y-106270000D01*
X93450000Y-106550000D02*
X95000000Y-106550000D01*
X87625000Y-104100000D02*
X87625000Y-102900000D01*
X89375000Y-102900000D02*
X89375000Y-104100000D01*
X86800000Y-104450000D02*
G75*
G03X86800000Y-104450000I-100000J0D01*
G01*
X86450000Y-105000000D02*
X86450000Y-104500000D01*
X83550000Y-105000000D02*
X86450000Y-105000000D01*
X83550000Y-104500000D02*
X83550000Y-105000000D01*
X86450000Y-104500000D02*
X83550000Y-104500000D01*
D13*
X89488000Y-121284000D02*
X89948000Y-121284000D01*
X89488000Y-121194000D02*
X89488000Y-121144000D01*
X89518000Y-121244000D02*
X89488000Y-121194000D01*
X89538000Y-121264000D02*
X89518000Y-121244000D01*
X89608000Y-121284000D02*
X89538000Y-121264000D01*
X89948000Y-120844000D02*
X89918000Y-120794000D01*
X89948000Y-120944000D02*
X89948000Y-120844000D01*
X89918000Y-120984000D02*
X89948000Y-120944000D01*
X89848000Y-121004000D02*
X89918000Y-120984000D01*
X89578000Y-121004000D02*
X89848000Y-121004000D01*
X89518000Y-120974000D02*
X89578000Y-121004000D01*
X89488000Y-120934000D02*
X89518000Y-120974000D01*
X89488000Y-120834000D02*
X89488000Y-120934000D01*
X89528000Y-120794000D02*
X89488000Y-120834000D01*
X89598000Y-120774000D02*
X89528000Y-120794000D01*
X89718000Y-120774000D02*
X89598000Y-120774000D01*
X89718000Y-120774000D02*
X89718000Y-121004000D01*
X89578000Y-121524000D02*
X89948000Y-121524000D01*
X89518000Y-121554000D02*
X89578000Y-121524000D01*
X89488000Y-121594000D02*
X89518000Y-121554000D01*
X89488000Y-121694000D02*
X89488000Y-121594000D01*
X89518000Y-121744000D02*
X89488000Y-121694000D01*
X89678000Y-121684000D02*
X89708000Y-121734000D01*
X89678000Y-121564000D02*
X89678000Y-121684000D01*
X89648000Y-121524000D02*
X89678000Y-121564000D01*
X89948000Y-121574000D02*
X89908000Y-121524000D01*
X89948000Y-121694000D02*
X89948000Y-121574000D01*
X89908000Y-121744000D02*
X89948000Y-121694000D01*
X89848000Y-121764000D02*
X89908000Y-121744000D01*
X89778000Y-121764000D02*
X89848000Y-121764000D01*
X89708000Y-121734000D02*
X89778000Y-121764000D01*
X89488000Y-122314000D02*
X89948000Y-122214000D01*
X89948000Y-122214000D02*
X89608000Y-122124000D01*
X89608000Y-122124000D02*
X89948000Y-122024000D01*
X89948000Y-122024000D02*
X89488000Y-121924000D01*
X89918000Y-122504000D02*
X89948000Y-122544000D01*
X89948000Y-122544000D02*
X89948000Y-122654000D01*
X89948000Y-122654000D02*
X89918000Y-122694000D01*
X89918000Y-122694000D02*
X89888000Y-122714000D01*
X89888000Y-122714000D02*
X89818000Y-122744000D01*
X89818000Y-122744000D02*
X89618000Y-122744000D01*
X89618000Y-122744000D02*
X89548000Y-122714000D01*
X89548000Y-122714000D02*
X89518000Y-122694000D01*
X89518000Y-122694000D02*
X89478000Y-122634000D01*
X89478000Y-122634000D02*
X89478000Y-122564000D01*
X89478000Y-122564000D02*
X89518000Y-122504000D01*
X89248000Y-122504000D02*
X89948000Y-122504000D01*
X89608000Y-123024000D02*
X89538000Y-123004000D01*
X89538000Y-123004000D02*
X89518000Y-122984000D01*
X89518000Y-122984000D02*
X89488000Y-122934000D01*
X89488000Y-122934000D02*
X89488000Y-122884000D01*
X89488000Y-123024000D02*
X89948000Y-123024000D01*
X89708000Y-123474000D02*
X89778000Y-123504000D01*
X89778000Y-123504000D02*
X89848000Y-123504000D01*
X89848000Y-123504000D02*
X89908000Y-123484000D01*
X89908000Y-123484000D02*
X89948000Y-123434000D01*
X89948000Y-123434000D02*
X89948000Y-123314000D01*
X89948000Y-123314000D02*
X89908000Y-123264000D01*
X89648000Y-123264000D02*
X89678000Y-123304000D01*
X89678000Y-123304000D02*
X89678000Y-123424000D01*
X89678000Y-123424000D02*
X89708000Y-123474000D01*
X89518000Y-123484000D02*
X89488000Y-123434000D01*
X89488000Y-123434000D02*
X89488000Y-123334000D01*
X89488000Y-123334000D02*
X89518000Y-123294000D01*
X89518000Y-123294000D02*
X89578000Y-123264000D01*
X89578000Y-123264000D02*
X89948000Y-123264000D01*
X89558000Y-123934000D02*
X89518000Y-123914000D01*
X89518000Y-123914000D02*
X89488000Y-123864000D01*
X89488000Y-123864000D02*
X89488000Y-123784000D01*
X89488000Y-123784000D02*
X89518000Y-123744000D01*
X89518000Y-123744000D02*
X89578000Y-123724000D01*
X89578000Y-123724000D02*
X89948000Y-123724000D01*
X89248000Y-123934000D02*
X89948000Y-123934000D01*
X89718000Y-124984000D02*
X89718000Y-125214000D01*
X89548000Y-124764000D02*
X89518000Y-124744000D01*
X89518000Y-124744000D02*
X89488000Y-124704000D01*
X89488000Y-124704000D02*
X89488000Y-124614000D01*
X89488000Y-124614000D02*
X89518000Y-124574000D01*
X89518000Y-124574000D02*
X89578000Y-124554000D01*
X89578000Y-124554000D02*
X89948000Y-124554000D01*
X89488000Y-124764000D02*
X89948000Y-124764000D01*
X89718000Y-124984000D02*
X89598000Y-124984000D01*
X89598000Y-124984000D02*
X89528000Y-125004000D01*
X89528000Y-125004000D02*
X89488000Y-125044000D01*
X89488000Y-125044000D02*
X89488000Y-125144000D01*
X89488000Y-125144000D02*
X89518000Y-125184000D01*
X89518000Y-125184000D02*
X89578000Y-125214000D01*
X89578000Y-125214000D02*
X89848000Y-125214000D01*
X89848000Y-125214000D02*
X89918000Y-125194000D01*
X89918000Y-125194000D02*
X89948000Y-125154000D01*
X89948000Y-125154000D02*
X89948000Y-125054000D01*
X89948000Y-125054000D02*
X89918000Y-125004000D01*
X89518000Y-125644000D02*
X89488000Y-125604000D01*
X89488000Y-125604000D02*
X89488000Y-125504000D01*
X89488000Y-125504000D02*
X89518000Y-125464000D01*
X89518000Y-125464000D02*
X89548000Y-125434000D01*
X89548000Y-125434000D02*
X89608000Y-125414000D01*
X89608000Y-125414000D02*
X89828000Y-125414000D01*
X89828000Y-125414000D02*
X89888000Y-125434000D01*
X89888000Y-125434000D02*
X89918000Y-125454000D01*
X89918000Y-125454000D02*
X89948000Y-125494000D01*
X89948000Y-125494000D02*
X89948000Y-125594000D01*
X89948000Y-125594000D02*
X89918000Y-125644000D01*
X90188000Y-125644000D02*
X89488000Y-125644000D01*
X89488000Y-125954000D02*
X89488000Y-126034000D01*
X89488000Y-126034000D02*
X89518000Y-126074000D01*
X89518000Y-126074000D02*
X89548000Y-126094000D01*
X89548000Y-126094000D02*
X89618000Y-126124000D01*
X89948000Y-126034000D02*
X89948000Y-125954000D01*
X89948000Y-125954000D02*
X89918000Y-125904000D01*
X89918000Y-125904000D02*
X89888000Y-125884000D01*
X89888000Y-125884000D02*
X89818000Y-125864000D01*
X89818000Y-125864000D02*
X89618000Y-125864000D01*
X89618000Y-125864000D02*
X89558000Y-125884000D01*
X89558000Y-125884000D02*
X89528000Y-125904000D01*
X89528000Y-125904000D02*
X89488000Y-125954000D01*
X89618000Y-126124000D02*
X89818000Y-126124000D01*
X89818000Y-126124000D02*
X89878000Y-126104000D01*
X89878000Y-126104000D02*
X89908000Y-126084000D01*
X89908000Y-126084000D02*
X89948000Y-126034000D01*
D14*
G36*
X89113360Y-124957840D02*
X89098120Y-124932440D01*
X89062560Y-124874020D01*
X89006680Y-124790200D01*
X88940640Y-124691140D01*
X88874600Y-124592080D01*
X88821260Y-124510800D01*
X88783160Y-124454920D01*
X88770460Y-124429520D01*
X88775540Y-124416820D01*
X88798400Y-124371100D01*
X88833960Y-124302520D01*
X88854280Y-124261880D01*
X88879680Y-124200920D01*
X88887300Y-124167900D01*
X88877140Y-124162820D01*
X88828880Y-124139960D01*
X88747600Y-124104400D01*
X88638380Y-124058680D01*
X88511380Y-124002800D01*
X88376760Y-123946920D01*
X88237060Y-123888500D01*
X88102440Y-123832620D01*
X87983060Y-123784360D01*
X87886540Y-123743720D01*
X87817960Y-123718320D01*
X87790020Y-123708160D01*
X87782400Y-123710700D01*
X87751920Y-123743720D01*
X87711280Y-123797060D01*
X87614760Y-123916440D01*
X87469980Y-124033280D01*
X87304880Y-124104400D01*
X87119460Y-124127260D01*
X86949280Y-124106940D01*
X86786720Y-124040900D01*
X86639400Y-123926600D01*
X86530180Y-123786900D01*
X86461600Y-123624340D01*
X86438740Y-123444000D01*
X86459060Y-123271280D01*
X86525100Y-123103640D01*
X86636860Y-122956320D01*
X86707980Y-122892820D01*
X86857840Y-122806460D01*
X87015320Y-122758200D01*
X87055960Y-122753120D01*
X87231220Y-122760740D01*
X87401400Y-122811540D01*
X87551260Y-122905520D01*
X87675720Y-123035060D01*
X87685880Y-123050300D01*
X87731600Y-123108720D01*
X87762080Y-123149360D01*
X87787480Y-123179840D01*
X88325960Y-122956320D01*
X88409780Y-122920760D01*
X88557100Y-122859800D01*
X88684100Y-122806460D01*
X88785700Y-122763280D01*
X88851740Y-122732800D01*
X88879680Y-122720100D01*
X88882220Y-122720100D01*
X88884760Y-122699780D01*
X88869520Y-122659140D01*
X88833960Y-122582940D01*
X88808560Y-122534680D01*
X88780620Y-122476260D01*
X88770460Y-122450860D01*
X88783160Y-122428000D01*
X88818720Y-122374660D01*
X88872060Y-122293380D01*
X88935560Y-122196860D01*
X88999060Y-122105420D01*
X89054940Y-122021600D01*
X89093040Y-121960640D01*
X89110820Y-121930160D01*
X89110820Y-121925080D01*
X89095580Y-121899680D01*
X89054940Y-121851420D01*
X88986360Y-121777760D01*
X88882220Y-121673620D01*
X88866980Y-121658380D01*
X88780620Y-121572020D01*
X88706960Y-121503440D01*
X88656160Y-121457720D01*
X88633300Y-121439940D01*
X88633300Y-121439940D01*
X88602820Y-121455180D01*
X88541860Y-121493280D01*
X88455500Y-121549160D01*
X88356440Y-121617740D01*
X88097360Y-121795540D01*
X87853520Y-121699020D01*
X87777320Y-121668540D01*
X87688420Y-121630440D01*
X87622380Y-121602500D01*
X87594440Y-121587260D01*
X87584280Y-121561860D01*
X87569040Y-121493280D01*
X87548720Y-121396760D01*
X87528400Y-121282460D01*
X87508080Y-121170700D01*
X87487760Y-121071640D01*
X87475060Y-121000520D01*
X87467440Y-120967500D01*
X87462360Y-120959880D01*
X87447120Y-120952260D01*
X87414100Y-120949720D01*
X87353140Y-120947180D01*
X87259160Y-120944640D01*
X87119460Y-120944640D01*
X87104220Y-120944640D01*
X86974680Y-120947180D01*
X86868000Y-120949720D01*
X86801960Y-120952260D01*
X86774020Y-120957340D01*
X86774020Y-120957340D01*
X86766400Y-120987820D01*
X86751160Y-121058940D01*
X86733380Y-121158000D01*
X86710520Y-121277380D01*
X86707980Y-121285000D01*
X86685120Y-121401840D01*
X86664800Y-121500900D01*
X86649560Y-121572020D01*
X86639400Y-121599960D01*
X86631780Y-121607580D01*
X86586060Y-121630440D01*
X86512400Y-121663460D01*
X86423500Y-121704100D01*
X86329520Y-121742200D01*
X86245700Y-121775220D01*
X86184740Y-121798080D01*
X86156800Y-121805700D01*
X86154260Y-121803160D01*
X86126320Y-121785380D01*
X86065360Y-121744740D01*
X85981540Y-121688860D01*
X85879940Y-121620280D01*
X85872320Y-121615200D01*
X85773260Y-121546620D01*
X85686900Y-121490740D01*
X85628480Y-121455180D01*
X85600540Y-121439940D01*
X85598000Y-121439940D01*
X85567520Y-121462800D01*
X85511640Y-121513600D01*
X85435440Y-121587260D01*
X85346540Y-121673620D01*
X85321140Y-121701560D01*
X85224620Y-121800620D01*
X85163660Y-121866660D01*
X85130640Y-121909840D01*
X85123020Y-121930160D01*
X85123020Y-121930160D01*
X85140800Y-121960640D01*
X85181440Y-122024140D01*
X85239860Y-122107960D01*
X85308440Y-122209560D01*
X85313520Y-122217180D01*
X85382100Y-122316240D01*
X85437980Y-122400060D01*
X85478620Y-122458480D01*
X85493860Y-122486420D01*
X85493860Y-122488960D01*
X85481160Y-122529600D01*
X85455760Y-122600720D01*
X85422740Y-122689620D01*
X85384640Y-122781060D01*
X85349080Y-122864880D01*
X85321140Y-122928380D01*
X85303360Y-122958860D01*
X85303360Y-122958860D01*
X85267800Y-122969020D01*
X85191600Y-122986800D01*
X85090000Y-123007120D01*
X84968080Y-123032520D01*
X84947760Y-123035060D01*
X84828380Y-123057920D01*
X84729320Y-123075700D01*
X84660740Y-123090940D01*
X84632800Y-123098560D01*
X84630260Y-123113800D01*
X84625180Y-123172220D01*
X84622640Y-123261120D01*
X84622640Y-123370340D01*
X84622640Y-123482100D01*
X84625180Y-123591320D01*
X84627720Y-123685300D01*
X84632800Y-123753880D01*
X84637880Y-123781820D01*
X84640420Y-123781820D01*
X84678520Y-123791980D01*
X84752180Y-123809760D01*
X84856320Y-123830080D01*
X84978240Y-123852940D01*
X85001100Y-123858020D01*
X85117940Y-123880880D01*
X85217000Y-123901200D01*
X85283040Y-123913900D01*
X85310980Y-123921520D01*
X85316060Y-123934220D01*
X85336380Y-123982480D01*
X85369400Y-124061220D01*
X85410040Y-124160280D01*
X85501480Y-124388880D01*
X85310980Y-124670820D01*
X85293200Y-124696220D01*
X85224620Y-124797820D01*
X85168740Y-124879100D01*
X85130640Y-124937520D01*
X85117940Y-124960380D01*
X85117940Y-124962920D01*
X85143340Y-124990860D01*
X85196680Y-125046740D01*
X85270340Y-125122940D01*
X85356700Y-125211840D01*
X85422740Y-125275340D01*
X85501480Y-125354080D01*
X85554820Y-125402340D01*
X85587840Y-125430280D01*
X85608160Y-125437900D01*
X85623400Y-125435360D01*
X85651340Y-125417580D01*
X85712300Y-125376940D01*
X85798660Y-125318520D01*
X85897720Y-125249940D01*
X85981540Y-125194060D01*
X86075520Y-125133100D01*
X86141560Y-125095000D01*
X86174580Y-125079760D01*
X86187280Y-125084840D01*
X86243160Y-125102620D01*
X86326980Y-125138180D01*
X86426040Y-125178820D01*
X86647020Y-125277880D01*
X86674960Y-125422660D01*
X86692740Y-125511560D01*
X86715600Y-125633480D01*
X86738460Y-125752860D01*
X86774020Y-125935740D01*
X87449660Y-125943360D01*
X87462360Y-125915420D01*
X87469980Y-125887480D01*
X87485220Y-125818900D01*
X87505540Y-125722380D01*
X87525860Y-125605540D01*
X87543640Y-125509020D01*
X87563960Y-125409960D01*
X87576660Y-125338840D01*
X87584280Y-125308360D01*
X87594440Y-125298200D01*
X87642700Y-125275340D01*
X87718900Y-125239780D01*
X87810340Y-125199140D01*
X87904320Y-125161040D01*
X87993220Y-125125480D01*
X88059260Y-125102620D01*
X88092280Y-125092460D01*
X88120220Y-125105160D01*
X88178640Y-125143260D01*
X88259920Y-125196600D01*
X88358980Y-125265180D01*
X88455500Y-125331220D01*
X88539320Y-125389640D01*
X88600280Y-125427740D01*
X88628220Y-125445520D01*
X88646000Y-125435360D01*
X88694260Y-125397260D01*
X88770460Y-125323600D01*
X88879680Y-125211840D01*
X88897460Y-125194060D01*
X88981280Y-125107700D01*
X89049860Y-125034040D01*
X89095580Y-124980700D01*
X89113360Y-124957840D01*
X89113360Y-124957840D01*
G37*
X89113360Y-124957840D02*
X89098120Y-124932440D01*
X89062560Y-124874020D01*
X89006680Y-124790200D01*
X88940640Y-124691140D01*
X88874600Y-124592080D01*
X88821260Y-124510800D01*
X88783160Y-124454920D01*
X88770460Y-124429520D01*
X88775540Y-124416820D01*
X88798400Y-124371100D01*
X88833960Y-124302520D01*
X88854280Y-124261880D01*
X88879680Y-124200920D01*
X88887300Y-124167900D01*
X88877140Y-124162820D01*
X88828880Y-124139960D01*
X88747600Y-124104400D01*
X88638380Y-124058680D01*
X88511380Y-124002800D01*
X88376760Y-123946920D01*
X88237060Y-123888500D01*
X88102440Y-123832620D01*
X87983060Y-123784360D01*
X87886540Y-123743720D01*
X87817960Y-123718320D01*
X87790020Y-123708160D01*
X87782400Y-123710700D01*
X87751920Y-123743720D01*
X87711280Y-123797060D01*
X87614760Y-123916440D01*
X87469980Y-124033280D01*
X87304880Y-124104400D01*
X87119460Y-124127260D01*
X86949280Y-124106940D01*
X86786720Y-124040900D01*
X86639400Y-123926600D01*
X86530180Y-123786900D01*
X86461600Y-123624340D01*
X86438740Y-123444000D01*
X86459060Y-123271280D01*
X86525100Y-123103640D01*
X86636860Y-122956320D01*
X86707980Y-122892820D01*
X86857840Y-122806460D01*
X87015320Y-122758200D01*
X87055960Y-122753120D01*
X87231220Y-122760740D01*
X87401400Y-122811540D01*
X87551260Y-122905520D01*
X87675720Y-123035060D01*
X87685880Y-123050300D01*
X87731600Y-123108720D01*
X87762080Y-123149360D01*
X87787480Y-123179840D01*
X88325960Y-122956320D01*
X88409780Y-122920760D01*
X88557100Y-122859800D01*
X88684100Y-122806460D01*
X88785700Y-122763280D01*
X88851740Y-122732800D01*
X88879680Y-122720100D01*
X88882220Y-122720100D01*
X88884760Y-122699780D01*
X88869520Y-122659140D01*
X88833960Y-122582940D01*
X88808560Y-122534680D01*
X88780620Y-122476260D01*
X88770460Y-122450860D01*
X88783160Y-122428000D01*
X88818720Y-122374660D01*
X88872060Y-122293380D01*
X88935560Y-122196860D01*
X88999060Y-122105420D01*
X89054940Y-122021600D01*
X89093040Y-121960640D01*
X89110820Y-121930160D01*
X89110820Y-121925080D01*
X89095580Y-121899680D01*
X89054940Y-121851420D01*
X88986360Y-121777760D01*
X88882220Y-121673620D01*
X88866980Y-121658380D01*
X88780620Y-121572020D01*
X88706960Y-121503440D01*
X88656160Y-121457720D01*
X88633300Y-121439940D01*
X88633300Y-121439940D01*
X88602820Y-121455180D01*
X88541860Y-121493280D01*
X88455500Y-121549160D01*
X88356440Y-121617740D01*
X88097360Y-121795540D01*
X87853520Y-121699020D01*
X87777320Y-121668540D01*
X87688420Y-121630440D01*
X87622380Y-121602500D01*
X87594440Y-121587260D01*
X87584280Y-121561860D01*
X87569040Y-121493280D01*
X87548720Y-121396760D01*
X87528400Y-121282460D01*
X87508080Y-121170700D01*
X87487760Y-121071640D01*
X87475060Y-121000520D01*
X87467440Y-120967500D01*
X87462360Y-120959880D01*
X87447120Y-120952260D01*
X87414100Y-120949720D01*
X87353140Y-120947180D01*
X87259160Y-120944640D01*
X87119460Y-120944640D01*
X87104220Y-120944640D01*
X86974680Y-120947180D01*
X86868000Y-120949720D01*
X86801960Y-120952260D01*
X86774020Y-120957340D01*
X86774020Y-120957340D01*
X86766400Y-120987820D01*
X86751160Y-121058940D01*
X86733380Y-121158000D01*
X86710520Y-121277380D01*
X86707980Y-121285000D01*
X86685120Y-121401840D01*
X86664800Y-121500900D01*
X86649560Y-121572020D01*
X86639400Y-121599960D01*
X86631780Y-121607580D01*
X86586060Y-121630440D01*
X86512400Y-121663460D01*
X86423500Y-121704100D01*
X86329520Y-121742200D01*
X86245700Y-121775220D01*
X86184740Y-121798080D01*
X86156800Y-121805700D01*
X86154260Y-121803160D01*
X86126320Y-121785380D01*
X86065360Y-121744740D01*
X85981540Y-121688860D01*
X85879940Y-121620280D01*
X85872320Y-121615200D01*
X85773260Y-121546620D01*
X85686900Y-121490740D01*
X85628480Y-121455180D01*
X85600540Y-121439940D01*
X85598000Y-121439940D01*
X85567520Y-121462800D01*
X85511640Y-121513600D01*
X85435440Y-121587260D01*
X85346540Y-121673620D01*
X85321140Y-121701560D01*
X85224620Y-121800620D01*
X85163660Y-121866660D01*
X85130640Y-121909840D01*
X85123020Y-121930160D01*
X85123020Y-121930160D01*
X85140800Y-121960640D01*
X85181440Y-122024140D01*
X85239860Y-122107960D01*
X85308440Y-122209560D01*
X85313520Y-122217180D01*
X85382100Y-122316240D01*
X85437980Y-122400060D01*
X85478620Y-122458480D01*
X85493860Y-122486420D01*
X85493860Y-122488960D01*
X85481160Y-122529600D01*
X85455760Y-122600720D01*
X85422740Y-122689620D01*
X85384640Y-122781060D01*
X85349080Y-122864880D01*
X85321140Y-122928380D01*
X85303360Y-122958860D01*
X85303360Y-122958860D01*
X85267800Y-122969020D01*
X85191600Y-122986800D01*
X85090000Y-123007120D01*
X84968080Y-123032520D01*
X84947760Y-123035060D01*
X84828380Y-123057920D01*
X84729320Y-123075700D01*
X84660740Y-123090940D01*
X84632800Y-123098560D01*
X84630260Y-123113800D01*
X84625180Y-123172220D01*
X84622640Y-123261120D01*
X84622640Y-123370340D01*
X84622640Y-123482100D01*
X84625180Y-123591320D01*
X84627720Y-123685300D01*
X84632800Y-123753880D01*
X84637880Y-123781820D01*
X84640420Y-123781820D01*
X84678520Y-123791980D01*
X84752180Y-123809760D01*
X84856320Y-123830080D01*
X84978240Y-123852940D01*
X85001100Y-123858020D01*
X85117940Y-123880880D01*
X85217000Y-123901200D01*
X85283040Y-123913900D01*
X85310980Y-123921520D01*
X85316060Y-123934220D01*
X85336380Y-123982480D01*
X85369400Y-124061220D01*
X85410040Y-124160280D01*
X85501480Y-124388880D01*
X85310980Y-124670820D01*
X85293200Y-124696220D01*
X85224620Y-124797820D01*
X85168740Y-124879100D01*
X85130640Y-124937520D01*
X85117940Y-124960380D01*
X85117940Y-124962920D01*
X85143340Y-124990860D01*
X85196680Y-125046740D01*
X85270340Y-125122940D01*
X85356700Y-125211840D01*
X85422740Y-125275340D01*
X85501480Y-125354080D01*
X85554820Y-125402340D01*
X85587840Y-125430280D01*
X85608160Y-125437900D01*
X85623400Y-125435360D01*
X85651340Y-125417580D01*
X85712300Y-125376940D01*
X85798660Y-125318520D01*
X85897720Y-125249940D01*
X85981540Y-125194060D01*
X86075520Y-125133100D01*
X86141560Y-125095000D01*
X86174580Y-125079760D01*
X86187280Y-125084840D01*
X86243160Y-125102620D01*
X86326980Y-125138180D01*
X86426040Y-125178820D01*
X86647020Y-125277880D01*
X86674960Y-125422660D01*
X86692740Y-125511560D01*
X86715600Y-125633480D01*
X86738460Y-125752860D01*
X86774020Y-125935740D01*
X87449660Y-125943360D01*
X87462360Y-125915420D01*
X87469980Y-125887480D01*
X87485220Y-125818900D01*
X87505540Y-125722380D01*
X87525860Y-125605540D01*
X87543640Y-125509020D01*
X87563960Y-125409960D01*
X87576660Y-125338840D01*
X87584280Y-125308360D01*
X87594440Y-125298200D01*
X87642700Y-125275340D01*
X87718900Y-125239780D01*
X87810340Y-125199140D01*
X87904320Y-125161040D01*
X87993220Y-125125480D01*
X88059260Y-125102620D01*
X88092280Y-125092460D01*
X88120220Y-125105160D01*
X88178640Y-125143260D01*
X88259920Y-125196600D01*
X88358980Y-125265180D01*
X88455500Y-125331220D01*
X88539320Y-125389640D01*
X88600280Y-125427740D01*
X88628220Y-125445520D01*
X88646000Y-125435360D01*
X88694260Y-125397260D01*
X88770460Y-125323600D01*
X88879680Y-125211840D01*
X88897460Y-125194060D01*
X88981280Y-125107700D01*
X89049860Y-125034040D01*
X89095580Y-124980700D01*
X89113360Y-124957840D01*
D12*
X79097143Y-104941666D02*
X79144762Y-104989285D01*
X79192381Y-105132142D01*
X79192381Y-105227380D01*
X79144762Y-105370238D01*
X79049524Y-105465476D01*
X78954286Y-105513095D01*
X78763810Y-105560714D01*
X78620952Y-105560714D01*
X78430476Y-105513095D01*
X78335238Y-105465476D01*
X78240000Y-105370238D01*
X78192381Y-105227380D01*
X78192381Y-105132142D01*
X78240000Y-104989285D01*
X78287619Y-104941666D01*
X79192381Y-103989285D02*
X79192381Y-104560714D01*
X79192381Y-104275000D02*
X78192381Y-104275000D01*
X78335238Y-104370238D01*
X78430476Y-104465476D01*
X78478095Y-104560714D01*
X79270569Y-109730892D02*
X79270569Y-108968987D01*
X79651521Y-109349939D02*
X78889616Y-109349939D01*
X90701905Y-107640381D02*
X90701905Y-106640381D01*
X90940000Y-106640381D01*
X91082858Y-106688000D01*
X91178096Y-106783238D01*
X91225715Y-106878476D01*
X91273334Y-107068952D01*
X91273334Y-107211810D01*
X91225715Y-107402286D01*
X91178096Y-107497524D01*
X91082858Y-107592762D01*
X90940000Y-107640381D01*
X90701905Y-107640381D01*
X92225715Y-107640381D02*
X91654286Y-107640381D01*
X91940000Y-107640381D02*
X91940000Y-106640381D01*
X91844762Y-106783238D01*
X91749524Y-106878476D01*
X91654286Y-106926095D01*
X93749905Y-108148381D02*
X93749905Y-107148381D01*
X94130858Y-107148381D01*
X94226096Y-107196000D01*
X94273715Y-107243619D01*
X94321334Y-107338857D01*
X94321334Y-107481714D01*
X94273715Y-107576952D01*
X94226096Y-107624571D01*
X94130858Y-107672190D01*
X93749905Y-107672190D01*
X95273715Y-108148381D02*
X94702286Y-108148381D01*
X94988000Y-108148381D02*
X94988000Y-107148381D01*
X94892762Y-107291238D01*
X94797524Y-107386476D01*
X94702286Y-107434095D01*
X88225334Y-107640381D02*
X87892000Y-107164190D01*
X87653905Y-107640381D02*
X87653905Y-106640381D01*
X88034858Y-106640381D01*
X88130096Y-106688000D01*
X88177715Y-106735619D01*
X88225334Y-106830857D01*
X88225334Y-106973714D01*
X88177715Y-107068952D01*
X88130096Y-107116571D01*
X88034858Y-107164190D01*
X87653905Y-107164190D01*
X88606286Y-106735619D02*
X88653905Y-106688000D01*
X88749143Y-106640381D01*
X88987239Y-106640381D01*
X89082477Y-106688000D01*
X89130096Y-106735619D01*
X89177715Y-106830857D01*
X89177715Y-106926095D01*
X89130096Y-107068952D01*
X88558667Y-107640381D01*
X89177715Y-107640381D01*
X84074095Y-107148381D02*
X84074095Y-107957905D01*
X84121714Y-108053143D01*
X84169333Y-108100762D01*
X84264571Y-108148381D01*
X84455048Y-108148381D01*
X84550286Y-108100762D01*
X84597905Y-108053143D01*
X84645524Y-107957905D01*
X84645524Y-107148381D01*
X85645524Y-108148381D02*
X85074095Y-108148381D01*
X85359809Y-108148381D02*
X85359809Y-107148381D01*
X85264571Y-107291238D01*
X85169333Y-107386476D01*
X85074095Y-107434095D01*
M02*
