G04 #@! TF.FileFunction,Soldermask,Top*
%FSLAX46Y46*%
G04 Gerber Fmt 4.6, Leading zero omitted, Abs format (unit mm)*
G04 Created by KiCad (PCBNEW 4.0.2-stable) date 27.07.2016 22:22:32*
%MOMM*%
G01*
G04 APERTURE LIST*
%ADD10C,0.100000*%
%ADD11C,1.000000*%
%ADD12R,1.901140X3.399740*%
%ADD13R,1.900000X1.400000*%
%ADD14R,2.600000X1.600000*%
%ADD15C,1.900000*%
%ADD16R,2.127200X2.127200*%
%ADD17O,2.127200X2.127200*%
%ADD18R,1.700000X1.900000*%
%ADD19R,1.050000X1.460000*%
%ADD20R,1.598880X1.598880*%
G04 APERTURE END LIST*
D10*
D11*
X96600000Y-131700000D03*
X90750000Y-135000000D03*
X103900000Y-132650000D03*
X105800000Y-138500000D03*
X92200000Y-118900000D03*
D12*
X81000000Y-102751020D03*
X81000000Y-106748980D03*
D13*
X108000000Y-130875000D03*
X108000000Y-128375000D03*
X108000000Y-125075000D03*
X108000000Y-123375000D03*
X108000000Y-120875000D03*
X108000000Y-118375000D03*
X108000000Y-115950000D03*
X108000000Y-114250000D03*
X108000000Y-133375000D03*
X108000000Y-126725000D03*
X108000000Y-110900000D03*
D14*
X87000000Y-138400000D03*
X85800000Y-110400000D03*
D15*
X83700000Y-136100000D03*
X83700000Y-111900000D03*
D16*
X95000000Y-105000000D03*
D17*
X95000000Y-102460000D03*
X97540000Y-105000000D03*
X97540000Y-102460000D03*
X100080000Y-105000000D03*
X100080000Y-102460000D03*
X102620000Y-105000000D03*
X102620000Y-102460000D03*
X105160000Y-105000000D03*
X105160000Y-102460000D03*
D18*
X88500000Y-102150000D03*
X88500000Y-104850000D03*
D19*
X85950000Y-103650000D03*
X85000000Y-103650000D03*
X84050000Y-103650000D03*
X84050000Y-105850000D03*
X85950000Y-105850000D03*
D15*
X103800000Y-136350000D03*
X103800000Y-112150000D03*
D11*
X95200000Y-137600000D03*
D20*
X91500000Y-104549020D03*
X91500000Y-102450980D03*
M02*
