G04 #@! TF.FileFunction,Legend,Top*
%FSLAX46Y46*%
G04 Gerber Fmt 4.6, Leading zero omitted, Abs format (unit mm)*
G04 Created by KiCad (PCBNEW 4.0.1-stable) date 07.03.2016 23:04:45*
%MOMM*%
G01*
G04 APERTURE LIST*
%ADD10C,0.100000*%
%ADD11C,0.150000*%
%ADD12C,0.120000*%
G04 APERTURE END LIST*
D10*
D11*
X143500000Y-100250000D02*
X144500000Y-100250000D01*
X144500000Y-98550000D02*
X143500000Y-98550000D01*
D10*
X149800000Y-82800000D02*
X135350000Y-82800000D01*
X149800000Y-95900000D02*
X148225000Y-95900000D01*
X148225000Y-95900000D02*
X148225000Y-97600000D01*
X135375000Y-97600000D02*
X148225000Y-97600000D01*
X149800000Y-95900000D02*
X149800000Y-92925000D01*
X135350000Y-82800000D02*
X135350000Y-97600000D01*
D11*
X149800000Y-82800000D02*
X149800000Y-83075000D01*
X147450000Y-103250000D02*
X151050000Y-103250000D01*
X147450000Y-101150000D02*
X151050000Y-101150000D01*
X149500000Y-101900000D02*
X149500000Y-102500000D01*
X149500000Y-102500000D02*
X149200000Y-102200000D01*
X149200000Y-102200000D02*
X149400000Y-102000000D01*
X149400000Y-102000000D02*
X149400000Y-102250000D01*
X149400000Y-102250000D02*
X149350000Y-102200000D01*
X149100000Y-101700000D02*
X149100000Y-102700000D01*
X149600000Y-102200000D02*
X150100000Y-102200000D01*
X149100000Y-102200000D02*
X149600000Y-101700000D01*
X149600000Y-101700000D02*
X149600000Y-102700000D01*
X149600000Y-102700000D02*
X149100000Y-102200000D01*
X140580000Y-104290000D02*
X153280000Y-104290000D01*
X153280000Y-104290000D02*
X153280000Y-109370000D01*
X153280000Y-109370000D02*
X143120000Y-109370000D01*
X140580000Y-104290000D02*
X140580000Y-106830000D01*
X140300000Y-108100000D02*
X140300000Y-109650000D01*
X140580000Y-106830000D02*
X143120000Y-106830000D01*
X143120000Y-106830000D02*
X143120000Y-109370000D01*
X140300000Y-109650000D02*
X141850000Y-109650000D01*
X144600000Y-103275000D02*
X143400000Y-103275000D01*
X143400000Y-101525000D02*
X144600000Y-101525000D01*
X150000000Y-100275000D02*
X148800000Y-100275000D01*
X148800000Y-98525000D02*
X150000000Y-98525000D01*
X141257143Y-99766666D02*
X141304762Y-99814285D01*
X141352381Y-99957142D01*
X141352381Y-100052380D01*
X141304762Y-100195238D01*
X141209524Y-100290476D01*
X141114286Y-100338095D01*
X140923810Y-100385714D01*
X140780952Y-100385714D01*
X140590476Y-100338095D01*
X140495238Y-100290476D01*
X140400000Y-100195238D01*
X140352381Y-100052380D01*
X140352381Y-99957142D01*
X140400000Y-99814285D01*
X140447619Y-99766666D01*
X141352381Y-98814285D02*
X141352381Y-99385714D01*
X141352381Y-99100000D02*
X140352381Y-99100000D01*
X140495238Y-99195238D01*
X140590476Y-99290476D01*
X140638095Y-99385714D01*
X143085715Y-90257143D02*
X143038096Y-90304762D01*
X142895239Y-90352381D01*
X142800001Y-90352381D01*
X142657143Y-90304762D01*
X142561905Y-90209524D01*
X142514286Y-90114286D01*
X142466667Y-89923810D01*
X142466667Y-89780952D01*
X142514286Y-89590476D01*
X142561905Y-89495238D01*
X142657143Y-89400000D01*
X142800001Y-89352381D01*
X142895239Y-89352381D01*
X143038096Y-89400000D01*
X143085715Y-89447619D01*
X143704762Y-89352381D02*
X143895239Y-89352381D01*
X143990477Y-89400000D01*
X144085715Y-89495238D01*
X144133334Y-89685714D01*
X144133334Y-90019048D01*
X144085715Y-90209524D01*
X143990477Y-90304762D01*
X143895239Y-90352381D01*
X143704762Y-90352381D01*
X143609524Y-90304762D01*
X143514286Y-90209524D01*
X143466667Y-90019048D01*
X143466667Y-89685714D01*
X143514286Y-89495238D01*
X143609524Y-89400000D01*
X143704762Y-89352381D01*
X144561905Y-90352381D02*
X144561905Y-89352381D01*
X145133334Y-90352381D01*
X145133334Y-89352381D01*
X146133334Y-90352381D02*
X145561905Y-90352381D01*
X145847619Y-90352381D02*
X145847619Y-89352381D01*
X145752381Y-89495238D01*
X145657143Y-89590476D01*
X145561905Y-89638095D01*
D12*
X152916667Y-102616666D02*
X152216667Y-102616666D01*
X152216667Y-102450000D01*
X152250000Y-102350000D01*
X152316667Y-102283333D01*
X152383333Y-102250000D01*
X152516667Y-102216666D01*
X152616667Y-102216666D01*
X152750000Y-102250000D01*
X152816667Y-102283333D01*
X152883333Y-102350000D01*
X152916667Y-102450000D01*
X152916667Y-102616666D01*
X152916667Y-101550000D02*
X152916667Y-101950000D01*
X152916667Y-101750000D02*
X152216667Y-101750000D01*
X152316667Y-101816666D01*
X152383333Y-101883333D01*
X152416667Y-101950000D01*
D11*
X139902381Y-108838095D02*
X138902381Y-108838095D01*
X138902381Y-108457142D01*
X138950000Y-108361904D01*
X138997619Y-108314285D01*
X139092857Y-108266666D01*
X139235714Y-108266666D01*
X139330952Y-108314285D01*
X139378571Y-108361904D01*
X139426190Y-108457142D01*
X139426190Y-108838095D01*
X139902381Y-107314285D02*
X139902381Y-107885714D01*
X139902381Y-107600000D02*
X138902381Y-107600000D01*
X139045238Y-107695238D01*
X139140476Y-107790476D01*
X139188095Y-107885714D01*
X141352381Y-102566666D02*
X140876190Y-102900000D01*
X141352381Y-103138095D02*
X140352381Y-103138095D01*
X140352381Y-102757142D01*
X140400000Y-102661904D01*
X140447619Y-102614285D01*
X140542857Y-102566666D01*
X140685714Y-102566666D01*
X140780952Y-102614285D01*
X140828571Y-102661904D01*
X140876190Y-102757142D01*
X140876190Y-103138095D01*
X141352381Y-101614285D02*
X141352381Y-102185714D01*
X141352381Y-101900000D02*
X140352381Y-101900000D01*
X140495238Y-101995238D01*
X140590476Y-102090476D01*
X140638095Y-102185714D01*
D12*
X152861905Y-99533333D02*
X152480952Y-99800000D01*
X152861905Y-99990476D02*
X152061905Y-99990476D01*
X152061905Y-99685714D01*
X152100000Y-99609523D01*
X152138095Y-99571428D01*
X152214286Y-99533333D01*
X152328571Y-99533333D01*
X152404762Y-99571428D01*
X152442857Y-99609523D01*
X152480952Y-99685714D01*
X152480952Y-99990476D01*
X152138095Y-99228571D02*
X152100000Y-99190476D01*
X152061905Y-99114285D01*
X152061905Y-98923809D01*
X152100000Y-98847619D01*
X152138095Y-98809523D01*
X152214286Y-98771428D01*
X152290476Y-98771428D01*
X152404762Y-98809523D01*
X152861905Y-99266666D01*
X152861905Y-98771428D01*
M02*
