M48
;DRILL file {KiCad 4.0.2-stable} date 26.07.2016 22:40:00
;FORMAT={-:-/ absolute / metric / decimal}
FMAT,2
METRIC,TZ
T1C0.400
T2C1.016
%
G90
G05
M71
T1
X83.Y-123.5
X85.25Y-102.5
X86.5Y-101.5
X90.75Y-135.
X92.2Y-118.9
X93.Y-129.5
X95.2Y-137.6
X96.6Y-131.7
X100.Y-118.6
X103.Y-113.75
X103.25Y-125.5
X103.75Y-120.75
X103.9Y-132.65
X104.5Y-116.
X104.75Y-123.
X105.25Y-118.25
X105.8Y-138.5
T2
X95.Y-102.46
X95.Y-105.
X97.54Y-102.46
X97.54Y-105.
X100.08Y-102.46
X100.08Y-105.
X102.62Y-102.46
X102.62Y-105.
X105.16Y-102.46
X105.16Y-105.
T0
M30
