G04 #@! TF.FileFunction,Legend,Bot*
%FSLAX46Y46*%
G04 Gerber Fmt 4.6, Leading zero omitted, Abs format (unit mm)*
G04 Created by KiCad (PCBNEW 4.0.2-stable) date 26.07.2016 22:38:52*
%MOMM*%
G01*
G04 APERTURE LIST*
%ADD10C,0.100000*%
%ADD11C,0.300000*%
%ADD12C,0.075000*%
%ADD13C,0.002540*%
%ADD14C,0.150000*%
G04 APERTURE END LIST*
D10*
D11*
X93458571Y-118515430D02*
X92744286Y-118015430D01*
X93458571Y-117658287D02*
X91958571Y-117658287D01*
X91958571Y-118229715D01*
X92030000Y-118372573D01*
X92101429Y-118444001D01*
X92244286Y-118515430D01*
X92458571Y-118515430D01*
X92601429Y-118444001D01*
X92672857Y-118372573D01*
X92744286Y-118229715D01*
X92744286Y-117658287D01*
X93387143Y-119729715D02*
X93458571Y-119586858D01*
X93458571Y-119301144D01*
X93387143Y-119158287D01*
X93244286Y-119086858D01*
X92672857Y-119086858D01*
X92530000Y-119158287D01*
X92458571Y-119301144D01*
X92458571Y-119586858D01*
X92530000Y-119729715D01*
X92672857Y-119801144D01*
X92815714Y-119801144D01*
X92958571Y-119086858D01*
X93387143Y-120372572D02*
X93458571Y-120586858D01*
X93458571Y-120944001D01*
X93387143Y-121086858D01*
X93315714Y-121158287D01*
X93172857Y-121229715D01*
X93030000Y-121229715D01*
X92887143Y-121158287D01*
X92815714Y-121086858D01*
X92744286Y-120944001D01*
X92672857Y-120658287D01*
X92601429Y-120515429D01*
X92530000Y-120444001D01*
X92387143Y-120372572D01*
X92244286Y-120372572D01*
X92101429Y-120444001D01*
X92030000Y-120515429D01*
X91958571Y-120658287D01*
X91958571Y-121015429D01*
X92030000Y-121229715D01*
X91958571Y-121658286D02*
X91958571Y-122515429D01*
X93458571Y-122086858D02*
X91958571Y-122086858D01*
X91958571Y-122872572D02*
X91958571Y-123801143D01*
X92530000Y-123301143D01*
X92530000Y-123515429D01*
X92601429Y-123658286D01*
X92672857Y-123729715D01*
X92815714Y-123801143D01*
X93172857Y-123801143D01*
X93315714Y-123729715D01*
X93387143Y-123658286D01*
X93458571Y-123515429D01*
X93458571Y-123086857D01*
X93387143Y-122944000D01*
X93315714Y-122872572D01*
X92101429Y-124372571D02*
X92030000Y-124444000D01*
X91958571Y-124586857D01*
X91958571Y-124944000D01*
X92030000Y-125086857D01*
X92101429Y-125158286D01*
X92244286Y-125229714D01*
X92387143Y-125229714D01*
X92601429Y-125158286D01*
X93458571Y-124301143D01*
X93458571Y-125229714D01*
X93387143Y-126943999D02*
X93458571Y-127158285D01*
X93458571Y-127515428D01*
X93387143Y-127658285D01*
X93315714Y-127729714D01*
X93172857Y-127801142D01*
X93030000Y-127801142D01*
X92887143Y-127729714D01*
X92815714Y-127658285D01*
X92744286Y-127515428D01*
X92672857Y-127229714D01*
X92601429Y-127086856D01*
X92530000Y-127015428D01*
X92387143Y-126943999D01*
X92244286Y-126943999D01*
X92101429Y-127015428D01*
X92030000Y-127086856D01*
X91958571Y-127229714D01*
X91958571Y-127586856D01*
X92030000Y-127801142D01*
X93458571Y-128443999D02*
X91958571Y-128443999D01*
X91958571Y-128801142D01*
X92030000Y-129015427D01*
X92172857Y-129158285D01*
X92315714Y-129229713D01*
X92601429Y-129301142D01*
X92815714Y-129301142D01*
X93101429Y-129229713D01*
X93244286Y-129158285D01*
X93387143Y-129015427D01*
X93458571Y-128801142D01*
X93458571Y-128443999D01*
X95715714Y-117301144D02*
X95787143Y-117229715D01*
X95858571Y-117015429D01*
X95858571Y-116872572D01*
X95787143Y-116658287D01*
X95644286Y-116515429D01*
X95501429Y-116444001D01*
X95215714Y-116372572D01*
X95001429Y-116372572D01*
X94715714Y-116444001D01*
X94572857Y-116515429D01*
X94430000Y-116658287D01*
X94358571Y-116872572D01*
X94358571Y-117015429D01*
X94430000Y-117229715D01*
X94501429Y-117301144D01*
X95858571Y-118586858D02*
X95072857Y-118586858D01*
X94930000Y-118515429D01*
X94858571Y-118372572D01*
X94858571Y-118086858D01*
X94930000Y-117944001D01*
X95787143Y-118586858D02*
X95858571Y-118444001D01*
X95858571Y-118086858D01*
X95787143Y-117944001D01*
X95644286Y-117872572D01*
X95501429Y-117872572D01*
X95358571Y-117944001D01*
X95287143Y-118086858D01*
X95287143Y-118444001D01*
X95215714Y-118586858D01*
X95858571Y-119301144D02*
X94858571Y-119301144D01*
X95144286Y-119301144D02*
X95001429Y-119372572D01*
X94930000Y-119444001D01*
X94858571Y-119586858D01*
X94858571Y-119729715D01*
X95858571Y-120872572D02*
X94358571Y-120872572D01*
X95787143Y-120872572D02*
X95858571Y-120729715D01*
X95858571Y-120444001D01*
X95787143Y-120301143D01*
X95715714Y-120229715D01*
X95572857Y-120158286D01*
X95144286Y-120158286D01*
X95001429Y-120229715D01*
X94930000Y-120301143D01*
X94858571Y-120444001D01*
X94858571Y-120729715D01*
X94930000Y-120872572D01*
X95430000Y-122658286D02*
X95430000Y-123372572D01*
X95858571Y-122515429D02*
X94358571Y-123015429D01*
X95858571Y-123515429D01*
X95858571Y-124658286D02*
X94358571Y-124658286D01*
X95787143Y-124658286D02*
X95858571Y-124515429D01*
X95858571Y-124229715D01*
X95787143Y-124086857D01*
X95715714Y-124015429D01*
X95572857Y-123944000D01*
X95144286Y-123944000D01*
X95001429Y-124015429D01*
X94930000Y-124086857D01*
X94858571Y-124229715D01*
X94858571Y-124515429D01*
X94930000Y-124658286D01*
X95858571Y-126015429D02*
X95072857Y-126015429D01*
X94930000Y-125944000D01*
X94858571Y-125801143D01*
X94858571Y-125515429D01*
X94930000Y-125372572D01*
X95787143Y-126015429D02*
X95858571Y-125872572D01*
X95858571Y-125515429D01*
X95787143Y-125372572D01*
X95644286Y-125301143D01*
X95501429Y-125301143D01*
X95358571Y-125372572D01*
X95287143Y-125515429D01*
X95287143Y-125872572D01*
X95215714Y-126015429D01*
X94858571Y-126729715D02*
X96358571Y-126729715D01*
X94930000Y-126729715D02*
X94858571Y-126872572D01*
X94858571Y-127158286D01*
X94930000Y-127301143D01*
X95001429Y-127372572D01*
X95144286Y-127444001D01*
X95572857Y-127444001D01*
X95715714Y-127372572D01*
X95787143Y-127301143D01*
X95858571Y-127158286D01*
X95858571Y-126872572D01*
X95787143Y-126729715D01*
X94858571Y-127872572D02*
X94858571Y-128444001D01*
X94358571Y-128086858D02*
X95644286Y-128086858D01*
X95787143Y-128158286D01*
X95858571Y-128301144D01*
X95858571Y-128444001D01*
X95787143Y-129515429D02*
X95858571Y-129372572D01*
X95858571Y-129086858D01*
X95787143Y-128944001D01*
X95644286Y-128872572D01*
X95072857Y-128872572D01*
X94930000Y-128944001D01*
X94858571Y-129086858D01*
X94858571Y-129372572D01*
X94930000Y-129515429D01*
X95072857Y-129586858D01*
X95215714Y-129586858D01*
X95358571Y-128872572D01*
X95858571Y-130229715D02*
X94858571Y-130229715D01*
X95144286Y-130229715D02*
X95001429Y-130301143D01*
X94930000Y-130372572D01*
X94858571Y-130515429D01*
X94858571Y-130658286D01*
D12*
X89488000Y-125604000D02*
X89948000Y-125604000D01*
X89488000Y-125694000D02*
X89488000Y-125744000D01*
X89518000Y-125644000D02*
X89488000Y-125694000D01*
X89538000Y-125624000D02*
X89518000Y-125644000D01*
X89608000Y-125604000D02*
X89538000Y-125624000D01*
X89948000Y-126044000D02*
X89918000Y-126094000D01*
X89948000Y-125944000D02*
X89948000Y-126044000D01*
X89918000Y-125904000D02*
X89948000Y-125944000D01*
X89848000Y-125884000D02*
X89918000Y-125904000D01*
X89578000Y-125884000D02*
X89848000Y-125884000D01*
X89518000Y-125914000D02*
X89578000Y-125884000D01*
X89488000Y-125954000D02*
X89518000Y-125914000D01*
X89488000Y-126054000D02*
X89488000Y-125954000D01*
X89528000Y-126094000D02*
X89488000Y-126054000D01*
X89598000Y-126114000D02*
X89528000Y-126094000D01*
X89718000Y-126114000D02*
X89598000Y-126114000D01*
X89718000Y-126114000D02*
X89718000Y-125884000D01*
X89578000Y-125364000D02*
X89948000Y-125364000D01*
X89518000Y-125334000D02*
X89578000Y-125364000D01*
X89488000Y-125294000D02*
X89518000Y-125334000D01*
X89488000Y-125194000D02*
X89488000Y-125294000D01*
X89518000Y-125144000D02*
X89488000Y-125194000D01*
X89678000Y-125204000D02*
X89708000Y-125154000D01*
X89678000Y-125324000D02*
X89678000Y-125204000D01*
X89648000Y-125364000D02*
X89678000Y-125324000D01*
X89948000Y-125314000D02*
X89908000Y-125364000D01*
X89948000Y-125194000D02*
X89948000Y-125314000D01*
X89908000Y-125144000D02*
X89948000Y-125194000D01*
X89848000Y-125124000D02*
X89908000Y-125144000D01*
X89778000Y-125124000D02*
X89848000Y-125124000D01*
X89708000Y-125154000D02*
X89778000Y-125124000D01*
X89488000Y-124574000D02*
X89948000Y-124674000D01*
X89948000Y-124674000D02*
X89608000Y-124764000D01*
X89608000Y-124764000D02*
X89948000Y-124864000D01*
X89948000Y-124864000D02*
X89488000Y-124964000D01*
X89918000Y-124384000D02*
X89948000Y-124344000D01*
X89948000Y-124344000D02*
X89948000Y-124234000D01*
X89948000Y-124234000D02*
X89918000Y-124194000D01*
X89918000Y-124194000D02*
X89888000Y-124174000D01*
X89888000Y-124174000D02*
X89818000Y-124144000D01*
X89818000Y-124144000D02*
X89618000Y-124144000D01*
X89618000Y-124144000D02*
X89548000Y-124174000D01*
X89548000Y-124174000D02*
X89518000Y-124194000D01*
X89518000Y-124194000D02*
X89478000Y-124254000D01*
X89478000Y-124254000D02*
X89478000Y-124324000D01*
X89478000Y-124324000D02*
X89518000Y-124384000D01*
X89248000Y-124384000D02*
X89948000Y-124384000D01*
X89608000Y-123864000D02*
X89538000Y-123884000D01*
X89538000Y-123884000D02*
X89518000Y-123904000D01*
X89518000Y-123904000D02*
X89488000Y-123954000D01*
X89488000Y-123954000D02*
X89488000Y-124004000D01*
X89488000Y-123864000D02*
X89948000Y-123864000D01*
X89708000Y-123414000D02*
X89778000Y-123384000D01*
X89778000Y-123384000D02*
X89848000Y-123384000D01*
X89848000Y-123384000D02*
X89908000Y-123404000D01*
X89908000Y-123404000D02*
X89948000Y-123454000D01*
X89948000Y-123454000D02*
X89948000Y-123574000D01*
X89948000Y-123574000D02*
X89908000Y-123624000D01*
X89648000Y-123624000D02*
X89678000Y-123584000D01*
X89678000Y-123584000D02*
X89678000Y-123464000D01*
X89678000Y-123464000D02*
X89708000Y-123414000D01*
X89518000Y-123404000D02*
X89488000Y-123454000D01*
X89488000Y-123454000D02*
X89488000Y-123554000D01*
X89488000Y-123554000D02*
X89518000Y-123594000D01*
X89518000Y-123594000D02*
X89578000Y-123624000D01*
X89578000Y-123624000D02*
X89948000Y-123624000D01*
X89558000Y-122954000D02*
X89518000Y-122974000D01*
X89518000Y-122974000D02*
X89488000Y-123024000D01*
X89488000Y-123024000D02*
X89488000Y-123104000D01*
X89488000Y-123104000D02*
X89518000Y-123144000D01*
X89518000Y-123144000D02*
X89578000Y-123164000D01*
X89578000Y-123164000D02*
X89948000Y-123164000D01*
X89248000Y-122954000D02*
X89948000Y-122954000D01*
X89718000Y-121904000D02*
X89718000Y-121674000D01*
X89548000Y-122124000D02*
X89518000Y-122144000D01*
X89518000Y-122144000D02*
X89488000Y-122184000D01*
X89488000Y-122184000D02*
X89488000Y-122274000D01*
X89488000Y-122274000D02*
X89518000Y-122314000D01*
X89518000Y-122314000D02*
X89578000Y-122334000D01*
X89578000Y-122334000D02*
X89948000Y-122334000D01*
X89488000Y-122124000D02*
X89948000Y-122124000D01*
X89718000Y-121904000D02*
X89598000Y-121904000D01*
X89598000Y-121904000D02*
X89528000Y-121884000D01*
X89528000Y-121884000D02*
X89488000Y-121844000D01*
X89488000Y-121844000D02*
X89488000Y-121744000D01*
X89488000Y-121744000D02*
X89518000Y-121704000D01*
X89518000Y-121704000D02*
X89578000Y-121674000D01*
X89578000Y-121674000D02*
X89848000Y-121674000D01*
X89848000Y-121674000D02*
X89918000Y-121694000D01*
X89918000Y-121694000D02*
X89948000Y-121734000D01*
X89948000Y-121734000D02*
X89948000Y-121834000D01*
X89948000Y-121834000D02*
X89918000Y-121884000D01*
X89518000Y-121244000D02*
X89488000Y-121284000D01*
X89488000Y-121284000D02*
X89488000Y-121384000D01*
X89488000Y-121384000D02*
X89518000Y-121424000D01*
X89518000Y-121424000D02*
X89548000Y-121454000D01*
X89548000Y-121454000D02*
X89608000Y-121474000D01*
X89608000Y-121474000D02*
X89828000Y-121474000D01*
X89828000Y-121474000D02*
X89888000Y-121454000D01*
X89888000Y-121454000D02*
X89918000Y-121434000D01*
X89918000Y-121434000D02*
X89948000Y-121394000D01*
X89948000Y-121394000D02*
X89948000Y-121294000D01*
X89948000Y-121294000D02*
X89918000Y-121244000D01*
X90188000Y-121244000D02*
X89488000Y-121244000D01*
X89488000Y-120934000D02*
X89488000Y-120854000D01*
X89488000Y-120854000D02*
X89518000Y-120814000D01*
X89518000Y-120814000D02*
X89548000Y-120794000D01*
X89548000Y-120794000D02*
X89618000Y-120764000D01*
X89948000Y-120854000D02*
X89948000Y-120934000D01*
X89948000Y-120934000D02*
X89918000Y-120984000D01*
X89918000Y-120984000D02*
X89888000Y-121004000D01*
X89888000Y-121004000D02*
X89818000Y-121024000D01*
X89818000Y-121024000D02*
X89618000Y-121024000D01*
X89618000Y-121024000D02*
X89558000Y-121004000D01*
X89558000Y-121004000D02*
X89528000Y-120984000D01*
X89528000Y-120984000D02*
X89488000Y-120934000D01*
X89618000Y-120764000D02*
X89818000Y-120764000D01*
X89818000Y-120764000D02*
X89878000Y-120784000D01*
X89878000Y-120784000D02*
X89908000Y-120804000D01*
X89908000Y-120804000D02*
X89948000Y-120854000D01*
D13*
G36*
X89113360Y-121930160D02*
X89098120Y-121955560D01*
X89062560Y-122013980D01*
X89006680Y-122097800D01*
X88940640Y-122196860D01*
X88874600Y-122295920D01*
X88821260Y-122377200D01*
X88783160Y-122433080D01*
X88770460Y-122458480D01*
X88775540Y-122471180D01*
X88798400Y-122516900D01*
X88833960Y-122585480D01*
X88854280Y-122626120D01*
X88879680Y-122687080D01*
X88887300Y-122720100D01*
X88877140Y-122725180D01*
X88828880Y-122748040D01*
X88747600Y-122783600D01*
X88638380Y-122829320D01*
X88511380Y-122885200D01*
X88376760Y-122941080D01*
X88237060Y-122999500D01*
X88102440Y-123055380D01*
X87983060Y-123103640D01*
X87886540Y-123144280D01*
X87817960Y-123169680D01*
X87790020Y-123179840D01*
X87782400Y-123177300D01*
X87751920Y-123144280D01*
X87711280Y-123090940D01*
X87614760Y-122971560D01*
X87469980Y-122854720D01*
X87304880Y-122783600D01*
X87119460Y-122760740D01*
X86949280Y-122781060D01*
X86786720Y-122847100D01*
X86639400Y-122961400D01*
X86530180Y-123101100D01*
X86461600Y-123263660D01*
X86438740Y-123444000D01*
X86459060Y-123616720D01*
X86525100Y-123784360D01*
X86636860Y-123931680D01*
X86707980Y-123995180D01*
X86857840Y-124081540D01*
X87015320Y-124129800D01*
X87055960Y-124134880D01*
X87231220Y-124127260D01*
X87401400Y-124076460D01*
X87551260Y-123982480D01*
X87675720Y-123852940D01*
X87685880Y-123837700D01*
X87731600Y-123779280D01*
X87762080Y-123738640D01*
X87787480Y-123708160D01*
X88325960Y-123931680D01*
X88409780Y-123967240D01*
X88557100Y-124028200D01*
X88684100Y-124081540D01*
X88785700Y-124124720D01*
X88851740Y-124155200D01*
X88879680Y-124167900D01*
X88882220Y-124167900D01*
X88884760Y-124188220D01*
X88869520Y-124228860D01*
X88833960Y-124305060D01*
X88808560Y-124353320D01*
X88780620Y-124411740D01*
X88770460Y-124437140D01*
X88783160Y-124460000D01*
X88818720Y-124513340D01*
X88872060Y-124594620D01*
X88935560Y-124691140D01*
X88999060Y-124782580D01*
X89054940Y-124866400D01*
X89093040Y-124927360D01*
X89110820Y-124957840D01*
X89110820Y-124962920D01*
X89095580Y-124988320D01*
X89054940Y-125036580D01*
X88986360Y-125110240D01*
X88882220Y-125214380D01*
X88866980Y-125229620D01*
X88780620Y-125315980D01*
X88706960Y-125384560D01*
X88656160Y-125430280D01*
X88633300Y-125448060D01*
X88633300Y-125448060D01*
X88602820Y-125432820D01*
X88541860Y-125394720D01*
X88455500Y-125338840D01*
X88356440Y-125270260D01*
X88097360Y-125092460D01*
X87853520Y-125188980D01*
X87777320Y-125219460D01*
X87688420Y-125257560D01*
X87622380Y-125285500D01*
X87594440Y-125300740D01*
X87584280Y-125326140D01*
X87569040Y-125394720D01*
X87548720Y-125491240D01*
X87528400Y-125605540D01*
X87508080Y-125717300D01*
X87487760Y-125816360D01*
X87475060Y-125887480D01*
X87467440Y-125920500D01*
X87462360Y-125928120D01*
X87447120Y-125935740D01*
X87414100Y-125938280D01*
X87353140Y-125940820D01*
X87259160Y-125943360D01*
X87119460Y-125943360D01*
X87104220Y-125943360D01*
X86974680Y-125940820D01*
X86868000Y-125938280D01*
X86801960Y-125935740D01*
X86774020Y-125930660D01*
X86774020Y-125930660D01*
X86766400Y-125900180D01*
X86751160Y-125829060D01*
X86733380Y-125730000D01*
X86710520Y-125610620D01*
X86707980Y-125603000D01*
X86685120Y-125486160D01*
X86664800Y-125387100D01*
X86649560Y-125315980D01*
X86639400Y-125288040D01*
X86631780Y-125280420D01*
X86586060Y-125257560D01*
X86512400Y-125224540D01*
X86423500Y-125183900D01*
X86329520Y-125145800D01*
X86245700Y-125112780D01*
X86184740Y-125089920D01*
X86156800Y-125082300D01*
X86154260Y-125084840D01*
X86126320Y-125102620D01*
X86065360Y-125143260D01*
X85981540Y-125199140D01*
X85879940Y-125267720D01*
X85872320Y-125272800D01*
X85773260Y-125341380D01*
X85686900Y-125397260D01*
X85628480Y-125432820D01*
X85600540Y-125448060D01*
X85598000Y-125448060D01*
X85567520Y-125425200D01*
X85511640Y-125374400D01*
X85435440Y-125300740D01*
X85346540Y-125214380D01*
X85321140Y-125186440D01*
X85224620Y-125087380D01*
X85163660Y-125021340D01*
X85130640Y-124978160D01*
X85123020Y-124957840D01*
X85123020Y-124957840D01*
X85140800Y-124927360D01*
X85181440Y-124863860D01*
X85239860Y-124780040D01*
X85308440Y-124678440D01*
X85313520Y-124670820D01*
X85382100Y-124571760D01*
X85437980Y-124487940D01*
X85478620Y-124429520D01*
X85493860Y-124401580D01*
X85493860Y-124399040D01*
X85481160Y-124358400D01*
X85455760Y-124287280D01*
X85422740Y-124198380D01*
X85384640Y-124106940D01*
X85349080Y-124023120D01*
X85321140Y-123959620D01*
X85303360Y-123929140D01*
X85303360Y-123929140D01*
X85267800Y-123918980D01*
X85191600Y-123901200D01*
X85090000Y-123880880D01*
X84968080Y-123855480D01*
X84947760Y-123852940D01*
X84828380Y-123830080D01*
X84729320Y-123812300D01*
X84660740Y-123797060D01*
X84632800Y-123789440D01*
X84630260Y-123774200D01*
X84625180Y-123715780D01*
X84622640Y-123626880D01*
X84622640Y-123517660D01*
X84622640Y-123405900D01*
X84625180Y-123296680D01*
X84627720Y-123202700D01*
X84632800Y-123134120D01*
X84637880Y-123106180D01*
X84640420Y-123106180D01*
X84678520Y-123096020D01*
X84752180Y-123078240D01*
X84856320Y-123057920D01*
X84978240Y-123035060D01*
X85001100Y-123029980D01*
X85117940Y-123007120D01*
X85217000Y-122986800D01*
X85283040Y-122974100D01*
X85310980Y-122966480D01*
X85316060Y-122953780D01*
X85336380Y-122905520D01*
X85369400Y-122826780D01*
X85410040Y-122727720D01*
X85501480Y-122499120D01*
X85310980Y-122217180D01*
X85293200Y-122191780D01*
X85224620Y-122090180D01*
X85168740Y-122008900D01*
X85130640Y-121950480D01*
X85117940Y-121927620D01*
X85117940Y-121925080D01*
X85143340Y-121897140D01*
X85196680Y-121841260D01*
X85270340Y-121765060D01*
X85356700Y-121676160D01*
X85422740Y-121612660D01*
X85501480Y-121533920D01*
X85554820Y-121485660D01*
X85587840Y-121457720D01*
X85608160Y-121450100D01*
X85623400Y-121452640D01*
X85651340Y-121470420D01*
X85712300Y-121511060D01*
X85798660Y-121569480D01*
X85897720Y-121638060D01*
X85981540Y-121693940D01*
X86075520Y-121754900D01*
X86141560Y-121793000D01*
X86174580Y-121808240D01*
X86187280Y-121803160D01*
X86243160Y-121785380D01*
X86326980Y-121749820D01*
X86426040Y-121709180D01*
X86647020Y-121610120D01*
X86674960Y-121465340D01*
X86692740Y-121376440D01*
X86715600Y-121254520D01*
X86738460Y-121135140D01*
X86774020Y-120952260D01*
X87449660Y-120944640D01*
X87462360Y-120972580D01*
X87469980Y-121000520D01*
X87485220Y-121069100D01*
X87505540Y-121165620D01*
X87525860Y-121282460D01*
X87543640Y-121378980D01*
X87563960Y-121478040D01*
X87576660Y-121549160D01*
X87584280Y-121579640D01*
X87594440Y-121589800D01*
X87642700Y-121612660D01*
X87718900Y-121648220D01*
X87810340Y-121688860D01*
X87904320Y-121726960D01*
X87993220Y-121762520D01*
X88059260Y-121785380D01*
X88092280Y-121795540D01*
X88120220Y-121782840D01*
X88178640Y-121744740D01*
X88259920Y-121691400D01*
X88358980Y-121622820D01*
X88455500Y-121556780D01*
X88539320Y-121498360D01*
X88600280Y-121460260D01*
X88628220Y-121442480D01*
X88646000Y-121452640D01*
X88694260Y-121490740D01*
X88770460Y-121564400D01*
X88879680Y-121676160D01*
X88897460Y-121693940D01*
X88981280Y-121780300D01*
X89049860Y-121853960D01*
X89095580Y-121907300D01*
X89113360Y-121930160D01*
X89113360Y-121930160D01*
G37*
X89113360Y-121930160D02*
X89098120Y-121955560D01*
X89062560Y-122013980D01*
X89006680Y-122097800D01*
X88940640Y-122196860D01*
X88874600Y-122295920D01*
X88821260Y-122377200D01*
X88783160Y-122433080D01*
X88770460Y-122458480D01*
X88775540Y-122471180D01*
X88798400Y-122516900D01*
X88833960Y-122585480D01*
X88854280Y-122626120D01*
X88879680Y-122687080D01*
X88887300Y-122720100D01*
X88877140Y-122725180D01*
X88828880Y-122748040D01*
X88747600Y-122783600D01*
X88638380Y-122829320D01*
X88511380Y-122885200D01*
X88376760Y-122941080D01*
X88237060Y-122999500D01*
X88102440Y-123055380D01*
X87983060Y-123103640D01*
X87886540Y-123144280D01*
X87817960Y-123169680D01*
X87790020Y-123179840D01*
X87782400Y-123177300D01*
X87751920Y-123144280D01*
X87711280Y-123090940D01*
X87614760Y-122971560D01*
X87469980Y-122854720D01*
X87304880Y-122783600D01*
X87119460Y-122760740D01*
X86949280Y-122781060D01*
X86786720Y-122847100D01*
X86639400Y-122961400D01*
X86530180Y-123101100D01*
X86461600Y-123263660D01*
X86438740Y-123444000D01*
X86459060Y-123616720D01*
X86525100Y-123784360D01*
X86636860Y-123931680D01*
X86707980Y-123995180D01*
X86857840Y-124081540D01*
X87015320Y-124129800D01*
X87055960Y-124134880D01*
X87231220Y-124127260D01*
X87401400Y-124076460D01*
X87551260Y-123982480D01*
X87675720Y-123852940D01*
X87685880Y-123837700D01*
X87731600Y-123779280D01*
X87762080Y-123738640D01*
X87787480Y-123708160D01*
X88325960Y-123931680D01*
X88409780Y-123967240D01*
X88557100Y-124028200D01*
X88684100Y-124081540D01*
X88785700Y-124124720D01*
X88851740Y-124155200D01*
X88879680Y-124167900D01*
X88882220Y-124167900D01*
X88884760Y-124188220D01*
X88869520Y-124228860D01*
X88833960Y-124305060D01*
X88808560Y-124353320D01*
X88780620Y-124411740D01*
X88770460Y-124437140D01*
X88783160Y-124460000D01*
X88818720Y-124513340D01*
X88872060Y-124594620D01*
X88935560Y-124691140D01*
X88999060Y-124782580D01*
X89054940Y-124866400D01*
X89093040Y-124927360D01*
X89110820Y-124957840D01*
X89110820Y-124962920D01*
X89095580Y-124988320D01*
X89054940Y-125036580D01*
X88986360Y-125110240D01*
X88882220Y-125214380D01*
X88866980Y-125229620D01*
X88780620Y-125315980D01*
X88706960Y-125384560D01*
X88656160Y-125430280D01*
X88633300Y-125448060D01*
X88633300Y-125448060D01*
X88602820Y-125432820D01*
X88541860Y-125394720D01*
X88455500Y-125338840D01*
X88356440Y-125270260D01*
X88097360Y-125092460D01*
X87853520Y-125188980D01*
X87777320Y-125219460D01*
X87688420Y-125257560D01*
X87622380Y-125285500D01*
X87594440Y-125300740D01*
X87584280Y-125326140D01*
X87569040Y-125394720D01*
X87548720Y-125491240D01*
X87528400Y-125605540D01*
X87508080Y-125717300D01*
X87487760Y-125816360D01*
X87475060Y-125887480D01*
X87467440Y-125920500D01*
X87462360Y-125928120D01*
X87447120Y-125935740D01*
X87414100Y-125938280D01*
X87353140Y-125940820D01*
X87259160Y-125943360D01*
X87119460Y-125943360D01*
X87104220Y-125943360D01*
X86974680Y-125940820D01*
X86868000Y-125938280D01*
X86801960Y-125935740D01*
X86774020Y-125930660D01*
X86774020Y-125930660D01*
X86766400Y-125900180D01*
X86751160Y-125829060D01*
X86733380Y-125730000D01*
X86710520Y-125610620D01*
X86707980Y-125603000D01*
X86685120Y-125486160D01*
X86664800Y-125387100D01*
X86649560Y-125315980D01*
X86639400Y-125288040D01*
X86631780Y-125280420D01*
X86586060Y-125257560D01*
X86512400Y-125224540D01*
X86423500Y-125183900D01*
X86329520Y-125145800D01*
X86245700Y-125112780D01*
X86184740Y-125089920D01*
X86156800Y-125082300D01*
X86154260Y-125084840D01*
X86126320Y-125102620D01*
X86065360Y-125143260D01*
X85981540Y-125199140D01*
X85879940Y-125267720D01*
X85872320Y-125272800D01*
X85773260Y-125341380D01*
X85686900Y-125397260D01*
X85628480Y-125432820D01*
X85600540Y-125448060D01*
X85598000Y-125448060D01*
X85567520Y-125425200D01*
X85511640Y-125374400D01*
X85435440Y-125300740D01*
X85346540Y-125214380D01*
X85321140Y-125186440D01*
X85224620Y-125087380D01*
X85163660Y-125021340D01*
X85130640Y-124978160D01*
X85123020Y-124957840D01*
X85123020Y-124957840D01*
X85140800Y-124927360D01*
X85181440Y-124863860D01*
X85239860Y-124780040D01*
X85308440Y-124678440D01*
X85313520Y-124670820D01*
X85382100Y-124571760D01*
X85437980Y-124487940D01*
X85478620Y-124429520D01*
X85493860Y-124401580D01*
X85493860Y-124399040D01*
X85481160Y-124358400D01*
X85455760Y-124287280D01*
X85422740Y-124198380D01*
X85384640Y-124106940D01*
X85349080Y-124023120D01*
X85321140Y-123959620D01*
X85303360Y-123929140D01*
X85303360Y-123929140D01*
X85267800Y-123918980D01*
X85191600Y-123901200D01*
X85090000Y-123880880D01*
X84968080Y-123855480D01*
X84947760Y-123852940D01*
X84828380Y-123830080D01*
X84729320Y-123812300D01*
X84660740Y-123797060D01*
X84632800Y-123789440D01*
X84630260Y-123774200D01*
X84625180Y-123715780D01*
X84622640Y-123626880D01*
X84622640Y-123517660D01*
X84622640Y-123405900D01*
X84625180Y-123296680D01*
X84627720Y-123202700D01*
X84632800Y-123134120D01*
X84637880Y-123106180D01*
X84640420Y-123106180D01*
X84678520Y-123096020D01*
X84752180Y-123078240D01*
X84856320Y-123057920D01*
X84978240Y-123035060D01*
X85001100Y-123029980D01*
X85117940Y-123007120D01*
X85217000Y-122986800D01*
X85283040Y-122974100D01*
X85310980Y-122966480D01*
X85316060Y-122953780D01*
X85336380Y-122905520D01*
X85369400Y-122826780D01*
X85410040Y-122727720D01*
X85501480Y-122499120D01*
X85310980Y-122217180D01*
X85293200Y-122191780D01*
X85224620Y-122090180D01*
X85168740Y-122008900D01*
X85130640Y-121950480D01*
X85117940Y-121927620D01*
X85117940Y-121925080D01*
X85143340Y-121897140D01*
X85196680Y-121841260D01*
X85270340Y-121765060D01*
X85356700Y-121676160D01*
X85422740Y-121612660D01*
X85501480Y-121533920D01*
X85554820Y-121485660D01*
X85587840Y-121457720D01*
X85608160Y-121450100D01*
X85623400Y-121452640D01*
X85651340Y-121470420D01*
X85712300Y-121511060D01*
X85798660Y-121569480D01*
X85897720Y-121638060D01*
X85981540Y-121693940D01*
X86075520Y-121754900D01*
X86141560Y-121793000D01*
X86174580Y-121808240D01*
X86187280Y-121803160D01*
X86243160Y-121785380D01*
X86326980Y-121749820D01*
X86426040Y-121709180D01*
X86647020Y-121610120D01*
X86674960Y-121465340D01*
X86692740Y-121376440D01*
X86715600Y-121254520D01*
X86738460Y-121135140D01*
X86774020Y-120952260D01*
X87449660Y-120944640D01*
X87462360Y-120972580D01*
X87469980Y-121000520D01*
X87485220Y-121069100D01*
X87505540Y-121165620D01*
X87525860Y-121282460D01*
X87543640Y-121378980D01*
X87563960Y-121478040D01*
X87576660Y-121549160D01*
X87584280Y-121579640D01*
X87594440Y-121589800D01*
X87642700Y-121612660D01*
X87718900Y-121648220D01*
X87810340Y-121688860D01*
X87904320Y-121726960D01*
X87993220Y-121762520D01*
X88059260Y-121785380D01*
X88092280Y-121795540D01*
X88120220Y-121782840D01*
X88178640Y-121744740D01*
X88259920Y-121691400D01*
X88358980Y-121622820D01*
X88455500Y-121556780D01*
X88539320Y-121498360D01*
X88600280Y-121460260D01*
X88628220Y-121442480D01*
X88646000Y-121452640D01*
X88694260Y-121490740D01*
X88770460Y-121564400D01*
X88879680Y-121676160D01*
X88897460Y-121693940D01*
X88981280Y-121780300D01*
X89049860Y-121853960D01*
X89095580Y-121907300D01*
X89113360Y-121930160D01*
D14*
X79500000Y-132150000D02*
X79500000Y-132650000D01*
X79500000Y-129650000D02*
X79500000Y-130150000D01*
X79500000Y-122150000D02*
X79500000Y-122650000D01*
X79500000Y-119650000D02*
X79500000Y-120150000D01*
X79500000Y-117250000D02*
X79500000Y-117650000D01*
X79500000Y-112150000D02*
X79500000Y-113550000D01*
X100100000Y-110250000D02*
X79500000Y-110250000D01*
X98900000Y-139150000D02*
X79500000Y-139150000D01*
X79500000Y-139150000D02*
X79500000Y-134650000D01*
X109300000Y-139150000D02*
X109300000Y-110250000D01*
X109300000Y-110250000D02*
X103300000Y-110250000D01*
X109300000Y-139150000D02*
X102100000Y-139150000D01*
X99788343Y-132999575D02*
X99835962Y-132951956D01*
X99883581Y-132809099D01*
X99883581Y-132713861D01*
X99835962Y-132571003D01*
X99740724Y-132475765D01*
X99645486Y-132428146D01*
X99455010Y-132380527D01*
X99312152Y-132380527D01*
X99121676Y-132428146D01*
X99026438Y-132475765D01*
X98931200Y-132571003D01*
X98883581Y-132713861D01*
X98883581Y-132809099D01*
X98931200Y-132951956D01*
X98978819Y-132999575D01*
X98883581Y-133618622D02*
X98883581Y-133809099D01*
X98931200Y-133904337D01*
X99026438Y-133999575D01*
X99216914Y-134047194D01*
X99550248Y-134047194D01*
X99740724Y-133999575D01*
X99835962Y-133904337D01*
X99883581Y-133809099D01*
X99883581Y-133618622D01*
X99835962Y-133523384D01*
X99740724Y-133428146D01*
X99550248Y-133380527D01*
X99216914Y-133380527D01*
X99026438Y-133428146D01*
X98931200Y-133523384D01*
X98883581Y-133618622D01*
X99883581Y-134475765D02*
X98883581Y-134475765D01*
X99883581Y-135047194D01*
X98883581Y-135047194D01*
X98978819Y-135475765D02*
X98931200Y-135523384D01*
X98883581Y-135618622D01*
X98883581Y-135856718D01*
X98931200Y-135951956D01*
X98978819Y-135999575D01*
X99074057Y-136047194D01*
X99169295Y-136047194D01*
X99312152Y-135999575D01*
X99883581Y-135428146D01*
X99883581Y-136047194D01*
M02*
