M48
;DRILL file {KiCad 4.0.1-stable} date 07.03.2016 23:05:07
;FORMAT={-:-/ absolute / metric / decimal}
FMAT,2
METRIC,TZ
T1C0.400
T2C1.016
T3C2.200
%
G90
G05
M71
T1
X137.Y-100.5
X137.Y-104.5
X137.5Y-88.
X137.5Y-90.
X138.Y-102.5
X138.4Y-100.5
X139.Y-104.5
X139.4Y-102.5
X139.5Y-88.
X139.5Y-90.
X141.5Y-88.
X141.5Y-90.
X142.9Y-95.1
X145.5Y-95.6
X146.4Y-88.7
X146.8Y-91.3
X147.2Y-87.1
X147.8Y-95.
X147.9Y-89.2
X149.35Y-94.75
X152.25Y-93.75
X152.25Y-95.75
T2
X141.85Y-105.56
X141.85Y-108.1
X144.39Y-105.56
X144.39Y-108.1
X146.93Y-105.56
X146.93Y-108.1
X149.47Y-105.56
X149.47Y-108.1
X152.01Y-105.56
X152.01Y-108.1
T3
X139.325Y-85.3
X139.325Y-93.3
T0
M30
