G04 #@! TF.FileFunction,Copper,L2,Bot,Signal*
%FSLAX46Y46*%
G04 Gerber Fmt 4.6, Leading zero omitted, Abs format (unit mm)*
G04 Created by KiCad (PCBNEW 4.0.2-stable) date 27.07.2016 22:22:32*
%MOMM*%
G01*
G04 APERTURE LIST*
%ADD10C,0.100000*%
%ADD11C,0.600000*%
%ADD12R,1.727200X1.727200*%
%ADD13O,1.727200X1.727200*%
%ADD14R,1.500000X1.000000*%
%ADD15R,2.200000X1.200000*%
%ADD16C,0.500000*%
%ADD17C,0.350000*%
%ADD18C,0.254000*%
G04 APERTURE END LIST*
D10*
D11*
X96600000Y-131700000D03*
X90750000Y-135000000D03*
X103900000Y-132650000D03*
X105800000Y-138500000D03*
X92200000Y-118900000D03*
D12*
X95000000Y-105000000D03*
D13*
X95000000Y-102460000D03*
X97540000Y-105000000D03*
X97540000Y-102460000D03*
X100080000Y-105000000D03*
X100080000Y-102460000D03*
X102620000Y-105000000D03*
X102620000Y-102460000D03*
X105160000Y-105000000D03*
X105160000Y-102460000D03*
D14*
X79500000Y-131125000D03*
X79500000Y-128625000D03*
X79500000Y-125325000D03*
X79500000Y-123625000D03*
X79500000Y-121125000D03*
X79500000Y-118625000D03*
X79500000Y-116200000D03*
X79500000Y-114500000D03*
X79500000Y-133625000D03*
X79500000Y-126975000D03*
X79500000Y-111150000D03*
D15*
X100500000Y-138650000D03*
X101700000Y-110650000D03*
D11*
X95200000Y-137600000D03*
X104750000Y-123000000D03*
X83000000Y-123500000D03*
X100000000Y-118600000D03*
X105250000Y-118250000D03*
X85250000Y-102500000D03*
X93000000Y-129500000D03*
X103250000Y-125500000D03*
X103750000Y-120750000D03*
X103000000Y-113750000D03*
X104500000Y-116000000D03*
X86500000Y-101500000D03*
D16*
X104750000Y-123000000D02*
X83500000Y-123000000D01*
X83500000Y-123000000D02*
X83000000Y-123500000D01*
X83000000Y-123500000D02*
X79625000Y-123500000D01*
X79625000Y-123500000D02*
X79500000Y-123625000D01*
X88600000Y-118625000D02*
X99975000Y-118625000D01*
X79500000Y-118625000D02*
X88600000Y-118625000D01*
X99975000Y-118625000D02*
X100000000Y-118600000D01*
D17*
X93000000Y-129500000D02*
X92125000Y-128625000D01*
X92125000Y-128625000D02*
X79500000Y-128625000D01*
X103250000Y-125500000D02*
X79675000Y-125500000D01*
X79675000Y-125500000D02*
X79500000Y-125325000D01*
X103750000Y-120000000D02*
X102625000Y-121125000D01*
X102625000Y-121125000D02*
X79500000Y-121125000D01*
D16*
X102250000Y-118500000D02*
X103750000Y-120000000D01*
X103750000Y-120000000D02*
X103750000Y-120750000D01*
X102250000Y-115750000D02*
X102250000Y-118500000D01*
X103000000Y-115000000D02*
X102250000Y-115750000D01*
X103750000Y-115000000D02*
X103000000Y-115000000D01*
X106799990Y-111950010D02*
X103750000Y-115000000D01*
X105160000Y-105000000D02*
X106799990Y-106639990D01*
X106799990Y-106639990D02*
X106799990Y-111950010D01*
D17*
X103000000Y-113750000D02*
X102575736Y-113750000D01*
X102575736Y-113750000D02*
X100125736Y-116200000D01*
X100125736Y-116200000D02*
X80600000Y-116200000D01*
X80600000Y-116200000D02*
X79500000Y-116200000D01*
D16*
X107500000Y-112750000D02*
X104500000Y-115750000D01*
X104500000Y-115750000D02*
X104500000Y-116000000D01*
X107500000Y-103578686D02*
X107500000Y-112750000D01*
X105160000Y-102460000D02*
X106381314Y-102460000D01*
X106381314Y-102460000D02*
X107500000Y-103578686D01*
X95000000Y-102460000D02*
X87460000Y-102460000D01*
X87460000Y-102460000D02*
X86500000Y-101500000D01*
D18*
G36*
X108612242Y-101420549D02*
X108960685Y-101525751D01*
X109282060Y-101696628D01*
X109564123Y-101926674D01*
X109796130Y-102207123D01*
X109969247Y-102527295D01*
X110076877Y-102874994D01*
X110118000Y-103266251D01*
X110118000Y-138219087D01*
X110079451Y-138612242D01*
X109974250Y-138960684D01*
X109803371Y-139282060D01*
X109573328Y-139564121D01*
X109292879Y-139796128D01*
X108972704Y-139969247D01*
X108625005Y-140076877D01*
X108233749Y-140118000D01*
X80280913Y-140118000D01*
X79887758Y-140079451D01*
X79539316Y-139974250D01*
X79217940Y-139803371D01*
X78935879Y-139573328D01*
X78703872Y-139292879D01*
X78530753Y-138972704D01*
X78423123Y-138625005D01*
X78382000Y-138233749D01*
X78382000Y-136215782D01*
X82321190Y-136215782D01*
X82369938Y-136481389D01*
X82469347Y-136732469D01*
X82615632Y-136959459D01*
X82803220Y-137153712D01*
X83024967Y-137307830D01*
X83272425Y-137415942D01*
X83536169Y-137473930D01*
X83806153Y-137479585D01*
X84072094Y-137432692D01*
X84323863Y-137335038D01*
X84551868Y-137190341D01*
X84747426Y-137004114D01*
X84903088Y-136783449D01*
X85012925Y-136536752D01*
X85029048Y-136465782D01*
X102421190Y-136465782D01*
X102469938Y-136731389D01*
X102569347Y-136982469D01*
X102715632Y-137209459D01*
X102903220Y-137403712D01*
X103124967Y-137557830D01*
X103372425Y-137665942D01*
X103636169Y-137723930D01*
X103906153Y-137729585D01*
X104172094Y-137682692D01*
X104423863Y-137585038D01*
X104651868Y-137440341D01*
X104847426Y-137254114D01*
X105003088Y-137033449D01*
X105112925Y-136786752D01*
X105172752Y-136523419D01*
X105177059Y-136214978D01*
X105124608Y-135950077D01*
X105021702Y-135700410D01*
X104872262Y-135475484D01*
X104681980Y-135283869D01*
X104458104Y-135132863D01*
X104209160Y-135028217D01*
X103944632Y-134973917D01*
X103674595Y-134972032D01*
X103409335Y-135022633D01*
X103158954Y-135123793D01*
X102932991Y-135271659D01*
X102740053Y-135460599D01*
X102587487Y-135683415D01*
X102481105Y-135931622D01*
X102424960Y-136195765D01*
X102421190Y-136465782D01*
X85029048Y-136465782D01*
X85072752Y-136273419D01*
X85077059Y-135964978D01*
X85024608Y-135700077D01*
X84921702Y-135450410D01*
X84772262Y-135225484D01*
X84581980Y-135033869D01*
X84358104Y-134882863D01*
X84109160Y-134778217D01*
X83844632Y-134723917D01*
X83574595Y-134722032D01*
X83309335Y-134772633D01*
X83058954Y-134873793D01*
X82832991Y-135021659D01*
X82640053Y-135210599D01*
X82487487Y-135433415D01*
X82381105Y-135681622D01*
X82324960Y-135945765D01*
X82321190Y-136215782D01*
X78382000Y-136215782D01*
X78382000Y-134630939D01*
X78412852Y-134657234D01*
X78574477Y-134730089D01*
X78750000Y-134755033D01*
X80250000Y-134755033D01*
X80349847Y-134747071D01*
X80519199Y-134694626D01*
X80667235Y-134597077D01*
X80782234Y-134462148D01*
X80855089Y-134300523D01*
X80880033Y-134125000D01*
X80880033Y-133125000D01*
X80872071Y-133025153D01*
X80819626Y-132855801D01*
X80722077Y-132707765D01*
X80587148Y-132592766D01*
X80425523Y-132519911D01*
X80250000Y-132494967D01*
X78750000Y-132494967D01*
X78650153Y-132502929D01*
X78480801Y-132555374D01*
X78382000Y-132620479D01*
X78382000Y-132130939D01*
X78412852Y-132157234D01*
X78574477Y-132230089D01*
X78750000Y-132255033D01*
X80250000Y-132255033D01*
X80349847Y-132247071D01*
X80519199Y-132194626D01*
X80667235Y-132097077D01*
X80782234Y-131962148D01*
X80855089Y-131800523D01*
X80880033Y-131625000D01*
X80880033Y-130625000D01*
X80872071Y-130525153D01*
X80819626Y-130355801D01*
X80722077Y-130207765D01*
X80587148Y-130092766D01*
X80425523Y-130019911D01*
X80250000Y-129994967D01*
X78750000Y-129994967D01*
X78650153Y-130002929D01*
X78480801Y-130055374D01*
X78382000Y-130120479D01*
X78382000Y-129630939D01*
X78412852Y-129657234D01*
X78574477Y-129730089D01*
X78750000Y-129755033D01*
X80250000Y-129755033D01*
X80349847Y-129747071D01*
X80519199Y-129694626D01*
X80667235Y-129597077D01*
X80782234Y-129462148D01*
X80798078Y-129427000D01*
X91792800Y-129427000D01*
X92100563Y-129734763D01*
X92104599Y-129756752D01*
X92171522Y-129925780D01*
X92270001Y-130078590D01*
X92396286Y-130209362D01*
X92545566Y-130313114D01*
X92712155Y-130385895D01*
X92889708Y-130424932D01*
X93071463Y-130428740D01*
X93250495Y-130397171D01*
X93419986Y-130331430D01*
X93573479Y-130234020D01*
X93705130Y-130108651D01*
X93809921Y-129960099D01*
X93883864Y-129794022D01*
X93924140Y-129616746D01*
X93927039Y-129409103D01*
X93891729Y-129230771D01*
X93822452Y-129062694D01*
X93721849Y-128911274D01*
X93593751Y-128782278D01*
X93443037Y-128680621D01*
X93275448Y-128610173D01*
X93236347Y-128602147D01*
X92692100Y-128057900D01*
X92634833Y-128010860D01*
X92578104Y-127963259D01*
X92574409Y-127961227D01*
X92571149Y-127958550D01*
X92505879Y-127923553D01*
X92440941Y-127887853D01*
X92436918Y-127886577D01*
X92433205Y-127884586D01*
X92362359Y-127862926D01*
X92291745Y-127840526D01*
X92287558Y-127840056D01*
X92283521Y-127838822D01*
X92209749Y-127831328D01*
X92136198Y-127823078D01*
X92127963Y-127823021D01*
X92127799Y-127823004D01*
X92127646Y-127823018D01*
X92125000Y-127823000D01*
X80798012Y-127823000D01*
X80722077Y-127707765D01*
X80587148Y-127592766D01*
X80425523Y-127519911D01*
X80250000Y-127494967D01*
X78750000Y-127494967D01*
X78650153Y-127502929D01*
X78480801Y-127555374D01*
X78382000Y-127620479D01*
X78382000Y-126330939D01*
X78412852Y-126357234D01*
X78574477Y-126430089D01*
X78750000Y-126455033D01*
X80250000Y-126455033D01*
X80349847Y-126447071D01*
X80519199Y-126394626D01*
X80659764Y-126302000D01*
X102779575Y-126302000D01*
X102795566Y-126313114D01*
X102962155Y-126385895D01*
X103139708Y-126424932D01*
X103321463Y-126428740D01*
X103500495Y-126397171D01*
X103669986Y-126331430D01*
X103823479Y-126234020D01*
X103955130Y-126108651D01*
X104059921Y-125960099D01*
X104133864Y-125794022D01*
X104174140Y-125616746D01*
X104177039Y-125409103D01*
X104141729Y-125230771D01*
X104072452Y-125062694D01*
X103971849Y-124911274D01*
X103843751Y-124782278D01*
X103693037Y-124680621D01*
X103525448Y-124610173D01*
X103347367Y-124573618D01*
X103165577Y-124572349D01*
X102987003Y-124606413D01*
X102818447Y-124674515D01*
X102782558Y-124698000D01*
X80863662Y-124698000D01*
X80819626Y-124555801D01*
X80768518Y-124478241D01*
X80782234Y-124462148D01*
X80820616Y-124377000D01*
X82691795Y-124377000D01*
X82712155Y-124385895D01*
X82889708Y-124424932D01*
X83071463Y-124428740D01*
X83250495Y-124397171D01*
X83419986Y-124331430D01*
X83573479Y-124234020D01*
X83705130Y-124108651D01*
X83809921Y-123960099D01*
X83833801Y-123906465D01*
X83863266Y-123877000D01*
X104441795Y-123877000D01*
X104462155Y-123885895D01*
X104639708Y-123924932D01*
X104821463Y-123928740D01*
X105000495Y-123897171D01*
X105169986Y-123831430D01*
X105323479Y-123734020D01*
X105455130Y-123608651D01*
X105559921Y-123460099D01*
X105633864Y-123294022D01*
X105674140Y-123116746D01*
X105677039Y-122909103D01*
X105641729Y-122730771D01*
X105572452Y-122562694D01*
X105471849Y-122411274D01*
X105343751Y-122282278D01*
X105193037Y-122180621D01*
X105025448Y-122110173D01*
X104847367Y-122073618D01*
X104665577Y-122072349D01*
X104487003Y-122106413D01*
X104445949Y-122123000D01*
X83500000Y-122123000D01*
X83419445Y-122130898D01*
X83338674Y-122137965D01*
X83334244Y-122139252D01*
X83329656Y-122139702D01*
X83252113Y-122163114D01*
X83174310Y-122185718D01*
X83170217Y-122187840D01*
X83165801Y-122189173D01*
X83094260Y-122227212D01*
X83022352Y-122264486D01*
X83018749Y-122267363D01*
X83014676Y-122269528D01*
X82951902Y-122320725D01*
X82888586Y-122371269D01*
X82882170Y-122377597D01*
X82882036Y-122377706D01*
X82881933Y-122377830D01*
X82879868Y-122379867D01*
X82636735Y-122623000D01*
X80622622Y-122623000D01*
X80587148Y-122592766D01*
X80425523Y-122519911D01*
X80250000Y-122494967D01*
X78750000Y-122494967D01*
X78650153Y-122502929D01*
X78480801Y-122555374D01*
X78382000Y-122620479D01*
X78382000Y-122130939D01*
X78412852Y-122157234D01*
X78574477Y-122230089D01*
X78750000Y-122255033D01*
X80250000Y-122255033D01*
X80349847Y-122247071D01*
X80519199Y-122194626D01*
X80667235Y-122097077D01*
X80782234Y-121962148D01*
X80798078Y-121927000D01*
X102625000Y-121927000D01*
X102698734Y-121919770D01*
X102772529Y-121913314D01*
X102776578Y-121912138D01*
X102780776Y-121911726D01*
X102851669Y-121890322D01*
X102922838Y-121869646D01*
X102926585Y-121867704D01*
X102930618Y-121866486D01*
X102996039Y-121831701D01*
X103061800Y-121797613D01*
X103065092Y-121794985D01*
X103068820Y-121793003D01*
X103126271Y-121746147D01*
X103184126Y-121699963D01*
X103189996Y-121694175D01*
X103190117Y-121694076D01*
X103190210Y-121693964D01*
X103192100Y-121692100D01*
X103313327Y-121570873D01*
X103462155Y-121635895D01*
X103639708Y-121674932D01*
X103821463Y-121678740D01*
X104000495Y-121647171D01*
X104169986Y-121581430D01*
X104323479Y-121484020D01*
X104455130Y-121358651D01*
X104559921Y-121210099D01*
X104633864Y-121044022D01*
X104674140Y-120866746D01*
X104677039Y-120659103D01*
X104641729Y-120480771D01*
X104627000Y-120445036D01*
X104627000Y-120000000D01*
X104619092Y-119919350D01*
X104612034Y-119838674D01*
X104610748Y-119834249D01*
X104610298Y-119829656D01*
X104586874Y-119752071D01*
X104564282Y-119674310D01*
X104562160Y-119670217D01*
X104560827Y-119665801D01*
X104522788Y-119594260D01*
X104485514Y-119522352D01*
X104482637Y-119518749D01*
X104480472Y-119514676D01*
X104429275Y-119451902D01*
X104378731Y-119388586D01*
X104372403Y-119382170D01*
X104372294Y-119382036D01*
X104372170Y-119381933D01*
X104370132Y-119379867D01*
X103127000Y-118136734D01*
X103127000Y-116113266D01*
X103363266Y-115877000D01*
X103578394Y-115877000D01*
X103574320Y-115896168D01*
X103571782Y-116077945D01*
X103604599Y-116256752D01*
X103671522Y-116425780D01*
X103770001Y-116578590D01*
X103896286Y-116709362D01*
X104045566Y-116813114D01*
X104212155Y-116885895D01*
X104389708Y-116924932D01*
X104571463Y-116928740D01*
X104750495Y-116897171D01*
X104919986Y-116831430D01*
X105073479Y-116734020D01*
X105205130Y-116608651D01*
X105309921Y-116460099D01*
X105383864Y-116294022D01*
X105424140Y-116116746D01*
X105424857Y-116065409D01*
X108120133Y-113370132D01*
X108171533Y-113307557D01*
X108223625Y-113245476D01*
X108225847Y-113241435D01*
X108228774Y-113237871D01*
X108267064Y-113166461D01*
X108306082Y-113095487D01*
X108307476Y-113091093D01*
X108309656Y-113087027D01*
X108333371Y-113009459D01*
X108357835Y-112932339D01*
X108358349Y-112927759D01*
X108359698Y-112923346D01*
X108367887Y-112842728D01*
X108376915Y-112762245D01*
X108376978Y-112753234D01*
X108376995Y-112753062D01*
X108376980Y-112752902D01*
X108377000Y-112750000D01*
X108377000Y-103578686D01*
X108369097Y-103498086D01*
X108362035Y-103417360D01*
X108360748Y-103412930D01*
X108360298Y-103408342D01*
X108336886Y-103330799D01*
X108314282Y-103252996D01*
X108312160Y-103248903D01*
X108310827Y-103244487D01*
X108272788Y-103172946D01*
X108235514Y-103101038D01*
X108232637Y-103097435D01*
X108230472Y-103093362D01*
X108179275Y-103030588D01*
X108128731Y-102967272D01*
X108122400Y-102960852D01*
X108122294Y-102960722D01*
X108122174Y-102960623D01*
X108120133Y-102958553D01*
X107001447Y-101839867D01*
X106938847Y-101788446D01*
X106876790Y-101736375D01*
X106872749Y-101734153D01*
X106869185Y-101731226D01*
X106797775Y-101692936D01*
X106726801Y-101653918D01*
X106722407Y-101652524D01*
X106718341Y-101650344D01*
X106640825Y-101626645D01*
X106563653Y-101602165D01*
X106559073Y-101601651D01*
X106554660Y-101600302D01*
X106474042Y-101592113D01*
X106393559Y-101583085D01*
X106384548Y-101583022D01*
X106384376Y-101583005D01*
X106384216Y-101583020D01*
X106381314Y-101583000D01*
X106364930Y-101583000D01*
X106217686Y-101402460D01*
X106192954Y-101382000D01*
X108219088Y-101382000D01*
X108612242Y-101420549D01*
X108612242Y-101420549D01*
G37*
X108612242Y-101420549D02*
X108960685Y-101525751D01*
X109282060Y-101696628D01*
X109564123Y-101926674D01*
X109796130Y-102207123D01*
X109969247Y-102527295D01*
X110076877Y-102874994D01*
X110118000Y-103266251D01*
X110118000Y-138219087D01*
X110079451Y-138612242D01*
X109974250Y-138960684D01*
X109803371Y-139282060D01*
X109573328Y-139564121D01*
X109292879Y-139796128D01*
X108972704Y-139969247D01*
X108625005Y-140076877D01*
X108233749Y-140118000D01*
X80280913Y-140118000D01*
X79887758Y-140079451D01*
X79539316Y-139974250D01*
X79217940Y-139803371D01*
X78935879Y-139573328D01*
X78703872Y-139292879D01*
X78530753Y-138972704D01*
X78423123Y-138625005D01*
X78382000Y-138233749D01*
X78382000Y-136215782D01*
X82321190Y-136215782D01*
X82369938Y-136481389D01*
X82469347Y-136732469D01*
X82615632Y-136959459D01*
X82803220Y-137153712D01*
X83024967Y-137307830D01*
X83272425Y-137415942D01*
X83536169Y-137473930D01*
X83806153Y-137479585D01*
X84072094Y-137432692D01*
X84323863Y-137335038D01*
X84551868Y-137190341D01*
X84747426Y-137004114D01*
X84903088Y-136783449D01*
X85012925Y-136536752D01*
X85029048Y-136465782D01*
X102421190Y-136465782D01*
X102469938Y-136731389D01*
X102569347Y-136982469D01*
X102715632Y-137209459D01*
X102903220Y-137403712D01*
X103124967Y-137557830D01*
X103372425Y-137665942D01*
X103636169Y-137723930D01*
X103906153Y-137729585D01*
X104172094Y-137682692D01*
X104423863Y-137585038D01*
X104651868Y-137440341D01*
X104847426Y-137254114D01*
X105003088Y-137033449D01*
X105112925Y-136786752D01*
X105172752Y-136523419D01*
X105177059Y-136214978D01*
X105124608Y-135950077D01*
X105021702Y-135700410D01*
X104872262Y-135475484D01*
X104681980Y-135283869D01*
X104458104Y-135132863D01*
X104209160Y-135028217D01*
X103944632Y-134973917D01*
X103674595Y-134972032D01*
X103409335Y-135022633D01*
X103158954Y-135123793D01*
X102932991Y-135271659D01*
X102740053Y-135460599D01*
X102587487Y-135683415D01*
X102481105Y-135931622D01*
X102424960Y-136195765D01*
X102421190Y-136465782D01*
X85029048Y-136465782D01*
X85072752Y-136273419D01*
X85077059Y-135964978D01*
X85024608Y-135700077D01*
X84921702Y-135450410D01*
X84772262Y-135225484D01*
X84581980Y-135033869D01*
X84358104Y-134882863D01*
X84109160Y-134778217D01*
X83844632Y-134723917D01*
X83574595Y-134722032D01*
X83309335Y-134772633D01*
X83058954Y-134873793D01*
X82832991Y-135021659D01*
X82640053Y-135210599D01*
X82487487Y-135433415D01*
X82381105Y-135681622D01*
X82324960Y-135945765D01*
X82321190Y-136215782D01*
X78382000Y-136215782D01*
X78382000Y-134630939D01*
X78412852Y-134657234D01*
X78574477Y-134730089D01*
X78750000Y-134755033D01*
X80250000Y-134755033D01*
X80349847Y-134747071D01*
X80519199Y-134694626D01*
X80667235Y-134597077D01*
X80782234Y-134462148D01*
X80855089Y-134300523D01*
X80880033Y-134125000D01*
X80880033Y-133125000D01*
X80872071Y-133025153D01*
X80819626Y-132855801D01*
X80722077Y-132707765D01*
X80587148Y-132592766D01*
X80425523Y-132519911D01*
X80250000Y-132494967D01*
X78750000Y-132494967D01*
X78650153Y-132502929D01*
X78480801Y-132555374D01*
X78382000Y-132620479D01*
X78382000Y-132130939D01*
X78412852Y-132157234D01*
X78574477Y-132230089D01*
X78750000Y-132255033D01*
X80250000Y-132255033D01*
X80349847Y-132247071D01*
X80519199Y-132194626D01*
X80667235Y-132097077D01*
X80782234Y-131962148D01*
X80855089Y-131800523D01*
X80880033Y-131625000D01*
X80880033Y-130625000D01*
X80872071Y-130525153D01*
X80819626Y-130355801D01*
X80722077Y-130207765D01*
X80587148Y-130092766D01*
X80425523Y-130019911D01*
X80250000Y-129994967D01*
X78750000Y-129994967D01*
X78650153Y-130002929D01*
X78480801Y-130055374D01*
X78382000Y-130120479D01*
X78382000Y-129630939D01*
X78412852Y-129657234D01*
X78574477Y-129730089D01*
X78750000Y-129755033D01*
X80250000Y-129755033D01*
X80349847Y-129747071D01*
X80519199Y-129694626D01*
X80667235Y-129597077D01*
X80782234Y-129462148D01*
X80798078Y-129427000D01*
X91792800Y-129427000D01*
X92100563Y-129734763D01*
X92104599Y-129756752D01*
X92171522Y-129925780D01*
X92270001Y-130078590D01*
X92396286Y-130209362D01*
X92545566Y-130313114D01*
X92712155Y-130385895D01*
X92889708Y-130424932D01*
X93071463Y-130428740D01*
X93250495Y-130397171D01*
X93419986Y-130331430D01*
X93573479Y-130234020D01*
X93705130Y-130108651D01*
X93809921Y-129960099D01*
X93883864Y-129794022D01*
X93924140Y-129616746D01*
X93927039Y-129409103D01*
X93891729Y-129230771D01*
X93822452Y-129062694D01*
X93721849Y-128911274D01*
X93593751Y-128782278D01*
X93443037Y-128680621D01*
X93275448Y-128610173D01*
X93236347Y-128602147D01*
X92692100Y-128057900D01*
X92634833Y-128010860D01*
X92578104Y-127963259D01*
X92574409Y-127961227D01*
X92571149Y-127958550D01*
X92505879Y-127923553D01*
X92440941Y-127887853D01*
X92436918Y-127886577D01*
X92433205Y-127884586D01*
X92362359Y-127862926D01*
X92291745Y-127840526D01*
X92287558Y-127840056D01*
X92283521Y-127838822D01*
X92209749Y-127831328D01*
X92136198Y-127823078D01*
X92127963Y-127823021D01*
X92127799Y-127823004D01*
X92127646Y-127823018D01*
X92125000Y-127823000D01*
X80798012Y-127823000D01*
X80722077Y-127707765D01*
X80587148Y-127592766D01*
X80425523Y-127519911D01*
X80250000Y-127494967D01*
X78750000Y-127494967D01*
X78650153Y-127502929D01*
X78480801Y-127555374D01*
X78382000Y-127620479D01*
X78382000Y-126330939D01*
X78412852Y-126357234D01*
X78574477Y-126430089D01*
X78750000Y-126455033D01*
X80250000Y-126455033D01*
X80349847Y-126447071D01*
X80519199Y-126394626D01*
X80659764Y-126302000D01*
X102779575Y-126302000D01*
X102795566Y-126313114D01*
X102962155Y-126385895D01*
X103139708Y-126424932D01*
X103321463Y-126428740D01*
X103500495Y-126397171D01*
X103669986Y-126331430D01*
X103823479Y-126234020D01*
X103955130Y-126108651D01*
X104059921Y-125960099D01*
X104133864Y-125794022D01*
X104174140Y-125616746D01*
X104177039Y-125409103D01*
X104141729Y-125230771D01*
X104072452Y-125062694D01*
X103971849Y-124911274D01*
X103843751Y-124782278D01*
X103693037Y-124680621D01*
X103525448Y-124610173D01*
X103347367Y-124573618D01*
X103165577Y-124572349D01*
X102987003Y-124606413D01*
X102818447Y-124674515D01*
X102782558Y-124698000D01*
X80863662Y-124698000D01*
X80819626Y-124555801D01*
X80768518Y-124478241D01*
X80782234Y-124462148D01*
X80820616Y-124377000D01*
X82691795Y-124377000D01*
X82712155Y-124385895D01*
X82889708Y-124424932D01*
X83071463Y-124428740D01*
X83250495Y-124397171D01*
X83419986Y-124331430D01*
X83573479Y-124234020D01*
X83705130Y-124108651D01*
X83809921Y-123960099D01*
X83833801Y-123906465D01*
X83863266Y-123877000D01*
X104441795Y-123877000D01*
X104462155Y-123885895D01*
X104639708Y-123924932D01*
X104821463Y-123928740D01*
X105000495Y-123897171D01*
X105169986Y-123831430D01*
X105323479Y-123734020D01*
X105455130Y-123608651D01*
X105559921Y-123460099D01*
X105633864Y-123294022D01*
X105674140Y-123116746D01*
X105677039Y-122909103D01*
X105641729Y-122730771D01*
X105572452Y-122562694D01*
X105471849Y-122411274D01*
X105343751Y-122282278D01*
X105193037Y-122180621D01*
X105025448Y-122110173D01*
X104847367Y-122073618D01*
X104665577Y-122072349D01*
X104487003Y-122106413D01*
X104445949Y-122123000D01*
X83500000Y-122123000D01*
X83419445Y-122130898D01*
X83338674Y-122137965D01*
X83334244Y-122139252D01*
X83329656Y-122139702D01*
X83252113Y-122163114D01*
X83174310Y-122185718D01*
X83170217Y-122187840D01*
X83165801Y-122189173D01*
X83094260Y-122227212D01*
X83022352Y-122264486D01*
X83018749Y-122267363D01*
X83014676Y-122269528D01*
X82951902Y-122320725D01*
X82888586Y-122371269D01*
X82882170Y-122377597D01*
X82882036Y-122377706D01*
X82881933Y-122377830D01*
X82879868Y-122379867D01*
X82636735Y-122623000D01*
X80622622Y-122623000D01*
X80587148Y-122592766D01*
X80425523Y-122519911D01*
X80250000Y-122494967D01*
X78750000Y-122494967D01*
X78650153Y-122502929D01*
X78480801Y-122555374D01*
X78382000Y-122620479D01*
X78382000Y-122130939D01*
X78412852Y-122157234D01*
X78574477Y-122230089D01*
X78750000Y-122255033D01*
X80250000Y-122255033D01*
X80349847Y-122247071D01*
X80519199Y-122194626D01*
X80667235Y-122097077D01*
X80782234Y-121962148D01*
X80798078Y-121927000D01*
X102625000Y-121927000D01*
X102698734Y-121919770D01*
X102772529Y-121913314D01*
X102776578Y-121912138D01*
X102780776Y-121911726D01*
X102851669Y-121890322D01*
X102922838Y-121869646D01*
X102926585Y-121867704D01*
X102930618Y-121866486D01*
X102996039Y-121831701D01*
X103061800Y-121797613D01*
X103065092Y-121794985D01*
X103068820Y-121793003D01*
X103126271Y-121746147D01*
X103184126Y-121699963D01*
X103189996Y-121694175D01*
X103190117Y-121694076D01*
X103190210Y-121693964D01*
X103192100Y-121692100D01*
X103313327Y-121570873D01*
X103462155Y-121635895D01*
X103639708Y-121674932D01*
X103821463Y-121678740D01*
X104000495Y-121647171D01*
X104169986Y-121581430D01*
X104323479Y-121484020D01*
X104455130Y-121358651D01*
X104559921Y-121210099D01*
X104633864Y-121044022D01*
X104674140Y-120866746D01*
X104677039Y-120659103D01*
X104641729Y-120480771D01*
X104627000Y-120445036D01*
X104627000Y-120000000D01*
X104619092Y-119919350D01*
X104612034Y-119838674D01*
X104610748Y-119834249D01*
X104610298Y-119829656D01*
X104586874Y-119752071D01*
X104564282Y-119674310D01*
X104562160Y-119670217D01*
X104560827Y-119665801D01*
X104522788Y-119594260D01*
X104485514Y-119522352D01*
X104482637Y-119518749D01*
X104480472Y-119514676D01*
X104429275Y-119451902D01*
X104378731Y-119388586D01*
X104372403Y-119382170D01*
X104372294Y-119382036D01*
X104372170Y-119381933D01*
X104370132Y-119379867D01*
X103127000Y-118136734D01*
X103127000Y-116113266D01*
X103363266Y-115877000D01*
X103578394Y-115877000D01*
X103574320Y-115896168D01*
X103571782Y-116077945D01*
X103604599Y-116256752D01*
X103671522Y-116425780D01*
X103770001Y-116578590D01*
X103896286Y-116709362D01*
X104045566Y-116813114D01*
X104212155Y-116885895D01*
X104389708Y-116924932D01*
X104571463Y-116928740D01*
X104750495Y-116897171D01*
X104919986Y-116831430D01*
X105073479Y-116734020D01*
X105205130Y-116608651D01*
X105309921Y-116460099D01*
X105383864Y-116294022D01*
X105424140Y-116116746D01*
X105424857Y-116065409D01*
X108120133Y-113370132D01*
X108171533Y-113307557D01*
X108223625Y-113245476D01*
X108225847Y-113241435D01*
X108228774Y-113237871D01*
X108267064Y-113166461D01*
X108306082Y-113095487D01*
X108307476Y-113091093D01*
X108309656Y-113087027D01*
X108333371Y-113009459D01*
X108357835Y-112932339D01*
X108358349Y-112927759D01*
X108359698Y-112923346D01*
X108367887Y-112842728D01*
X108376915Y-112762245D01*
X108376978Y-112753234D01*
X108376995Y-112753062D01*
X108376980Y-112752902D01*
X108377000Y-112750000D01*
X108377000Y-103578686D01*
X108369097Y-103498086D01*
X108362035Y-103417360D01*
X108360748Y-103412930D01*
X108360298Y-103408342D01*
X108336886Y-103330799D01*
X108314282Y-103252996D01*
X108312160Y-103248903D01*
X108310827Y-103244487D01*
X108272788Y-103172946D01*
X108235514Y-103101038D01*
X108232637Y-103097435D01*
X108230472Y-103093362D01*
X108179275Y-103030588D01*
X108128731Y-102967272D01*
X108122400Y-102960852D01*
X108122294Y-102960722D01*
X108122174Y-102960623D01*
X108120133Y-102958553D01*
X107001447Y-101839867D01*
X106938847Y-101788446D01*
X106876790Y-101736375D01*
X106872749Y-101734153D01*
X106869185Y-101731226D01*
X106797775Y-101692936D01*
X106726801Y-101653918D01*
X106722407Y-101652524D01*
X106718341Y-101650344D01*
X106640825Y-101626645D01*
X106563653Y-101602165D01*
X106559073Y-101601651D01*
X106554660Y-101600302D01*
X106474042Y-101592113D01*
X106393559Y-101583085D01*
X106384548Y-101583022D01*
X106384376Y-101583005D01*
X106384216Y-101583020D01*
X106381314Y-101583000D01*
X106364930Y-101583000D01*
X106217686Y-101402460D01*
X106192954Y-101382000D01*
X108219088Y-101382000D01*
X108612242Y-101420549D01*
G36*
X101373000Y-118500000D02*
X101380903Y-118580600D01*
X101387965Y-118661326D01*
X101389252Y-118665756D01*
X101389702Y-118670344D01*
X101413114Y-118747887D01*
X101435718Y-118825690D01*
X101437840Y-118829783D01*
X101439173Y-118834199D01*
X101477212Y-118905740D01*
X101514486Y-118977648D01*
X101517363Y-118981251D01*
X101519528Y-118985324D01*
X101570725Y-119048098D01*
X101621269Y-119111414D01*
X101627600Y-119117834D01*
X101627706Y-119117964D01*
X101627826Y-119118063D01*
X101629867Y-119120133D01*
X102562768Y-120053033D01*
X102292800Y-120323000D01*
X80798012Y-120323000D01*
X80722077Y-120207765D01*
X80587148Y-120092766D01*
X80425523Y-120019911D01*
X80250000Y-119994967D01*
X78750000Y-119994967D01*
X78650153Y-120002929D01*
X78480801Y-120055374D01*
X78382000Y-120120479D01*
X78382000Y-117205939D01*
X78412852Y-117232234D01*
X78574477Y-117305089D01*
X78750000Y-117330033D01*
X80250000Y-117330033D01*
X80349847Y-117322071D01*
X80519199Y-117269626D01*
X80667235Y-117172077D01*
X80782234Y-117037148D01*
X80798078Y-117002000D01*
X100125736Y-117002000D01*
X100199470Y-116994770D01*
X100273265Y-116988314D01*
X100277314Y-116987138D01*
X100281512Y-116986726D01*
X100352405Y-116965322D01*
X100423574Y-116944646D01*
X100427321Y-116942704D01*
X100431354Y-116941486D01*
X100496775Y-116906701D01*
X100562536Y-116872613D01*
X100565828Y-116869985D01*
X100569556Y-116868003D01*
X100627007Y-116821147D01*
X100684862Y-116774963D01*
X100690732Y-116769175D01*
X100690853Y-116769076D01*
X100690946Y-116768964D01*
X100692836Y-116767100D01*
X101373000Y-116086936D01*
X101373000Y-118500000D01*
X101373000Y-118500000D01*
G37*
X101373000Y-118500000D02*
X101380903Y-118580600D01*
X101387965Y-118661326D01*
X101389252Y-118665756D01*
X101389702Y-118670344D01*
X101413114Y-118747887D01*
X101435718Y-118825690D01*
X101437840Y-118829783D01*
X101439173Y-118834199D01*
X101477212Y-118905740D01*
X101514486Y-118977648D01*
X101517363Y-118981251D01*
X101519528Y-118985324D01*
X101570725Y-119048098D01*
X101621269Y-119111414D01*
X101627600Y-119117834D01*
X101627706Y-119117964D01*
X101627826Y-119118063D01*
X101629867Y-119120133D01*
X102562768Y-120053033D01*
X102292800Y-120323000D01*
X80798012Y-120323000D01*
X80722077Y-120207765D01*
X80587148Y-120092766D01*
X80425523Y-120019911D01*
X80250000Y-119994967D01*
X78750000Y-119994967D01*
X78650153Y-120002929D01*
X78480801Y-120055374D01*
X78382000Y-120120479D01*
X78382000Y-117205939D01*
X78412852Y-117232234D01*
X78574477Y-117305089D01*
X78750000Y-117330033D01*
X80250000Y-117330033D01*
X80349847Y-117322071D01*
X80519199Y-117269626D01*
X80667235Y-117172077D01*
X80782234Y-117037148D01*
X80798078Y-117002000D01*
X100125736Y-117002000D01*
X100199470Y-116994770D01*
X100273265Y-116988314D01*
X100277314Y-116987138D01*
X100281512Y-116986726D01*
X100352405Y-116965322D01*
X100423574Y-116944646D01*
X100427321Y-116942704D01*
X100431354Y-116941486D01*
X100496775Y-116906701D01*
X100562536Y-116872613D01*
X100565828Y-116869985D01*
X100569556Y-116868003D01*
X100627007Y-116821147D01*
X100684862Y-116774963D01*
X100690732Y-116769175D01*
X100690853Y-116769076D01*
X100690946Y-116768964D01*
X100692836Y-116767100D01*
X101373000Y-116086936D01*
X101373000Y-118500000D01*
G36*
X85574320Y-101396168D02*
X85571782Y-101577945D01*
X85604599Y-101756752D01*
X85671522Y-101925780D01*
X85770001Y-102078590D01*
X85896286Y-102209362D01*
X86045566Y-102313114D01*
X86094015Y-102334281D01*
X86839867Y-103080133D01*
X86902467Y-103131554D01*
X86964524Y-103183625D01*
X86968565Y-103185847D01*
X86972129Y-103188774D01*
X87043539Y-103227064D01*
X87114513Y-103266082D01*
X87118907Y-103267476D01*
X87122973Y-103269656D01*
X87200489Y-103293355D01*
X87277661Y-103317835D01*
X87282241Y-103318349D01*
X87286654Y-103319698D01*
X87367272Y-103327887D01*
X87447755Y-103336915D01*
X87456766Y-103336978D01*
X87456938Y-103336995D01*
X87457098Y-103336980D01*
X87460000Y-103337000D01*
X93795070Y-103337000D01*
X93942314Y-103517540D01*
X93952084Y-103525623D01*
X93951177Y-103525803D01*
X93835615Y-103573670D01*
X93731611Y-103643163D01*
X93643163Y-103731611D01*
X93573670Y-103835615D01*
X93525803Y-103951177D01*
X93501400Y-104073858D01*
X93501400Y-104714250D01*
X93660150Y-104873000D01*
X94873000Y-104873000D01*
X94873000Y-104853000D01*
X95127000Y-104853000D01*
X95127000Y-104873000D01*
X95147000Y-104873000D01*
X95147000Y-105127000D01*
X95127000Y-105127000D01*
X95127000Y-106339850D01*
X95285750Y-106498600D01*
X95926142Y-106498600D01*
X96048823Y-106474197D01*
X96164385Y-106426330D01*
X96268389Y-106356837D01*
X96356837Y-106268389D01*
X96426330Y-106164385D01*
X96474197Y-106048823D01*
X96474395Y-106047830D01*
X96482314Y-106057540D01*
X96706467Y-106242975D01*
X96962369Y-106381341D01*
X97240273Y-106467367D01*
X97529594Y-106497776D01*
X97819311Y-106471409D01*
X98098389Y-106389272D01*
X98356198Y-106254493D01*
X98582918Y-106072205D01*
X98769914Y-105849352D01*
X98809417Y-105777497D01*
X98838448Y-105832097D01*
X99022314Y-106057540D01*
X99246467Y-106242975D01*
X99502369Y-106381341D01*
X99780273Y-106467367D01*
X100069594Y-106497776D01*
X100359311Y-106471409D01*
X100638389Y-106389272D01*
X100896198Y-106254493D01*
X101122918Y-106072205D01*
X101309914Y-105849352D01*
X101349417Y-105777497D01*
X101378448Y-105832097D01*
X101562314Y-106057540D01*
X101786467Y-106242975D01*
X102042369Y-106381341D01*
X102320273Y-106467367D01*
X102609594Y-106497776D01*
X102899311Y-106471409D01*
X103178389Y-106389272D01*
X103436198Y-106254493D01*
X103662918Y-106072205D01*
X103849914Y-105849352D01*
X103889417Y-105777497D01*
X103918448Y-105832097D01*
X104102314Y-106057540D01*
X104326467Y-106242975D01*
X104582369Y-106381341D01*
X104860273Y-106467367D01*
X105149594Y-106497776D01*
X105395161Y-106475427D01*
X105922990Y-107003256D01*
X105922990Y-111586745D01*
X105168765Y-112340970D01*
X105172752Y-112323419D01*
X105177059Y-112014978D01*
X105124608Y-111750077D01*
X105021702Y-111500410D01*
X104872262Y-111275484D01*
X104681980Y-111083869D01*
X104458104Y-110932863D01*
X104209160Y-110828217D01*
X103944632Y-110773917D01*
X103674595Y-110772032D01*
X103409335Y-110822633D01*
X103158954Y-110923793D01*
X102932991Y-111071659D01*
X102740053Y-111260599D01*
X102587487Y-111483415D01*
X102481105Y-111731622D01*
X102424960Y-111995765D01*
X102421190Y-112265782D01*
X102469938Y-112531389D01*
X102569347Y-112782469D01*
X102641792Y-112894881D01*
X102568447Y-112924515D01*
X102524948Y-112952980D01*
X102502002Y-112955230D01*
X102428207Y-112961686D01*
X102424158Y-112962862D01*
X102419960Y-112963274D01*
X102349067Y-112984678D01*
X102277898Y-113005354D01*
X102274151Y-113007296D01*
X102270118Y-113008514D01*
X102204718Y-113043288D01*
X102138935Y-113077387D01*
X102135642Y-113080016D01*
X102131916Y-113081997D01*
X102074486Y-113128835D01*
X102016610Y-113175037D01*
X102010744Y-113180822D01*
X102010619Y-113180924D01*
X102010523Y-113181040D01*
X102008636Y-113182901D01*
X99793536Y-115398000D01*
X80798012Y-115398000D01*
X80768518Y-115353241D01*
X80782234Y-115337148D01*
X80855089Y-115175523D01*
X80880033Y-115000000D01*
X80880033Y-114000000D01*
X80872071Y-113900153D01*
X80819626Y-113730801D01*
X80722077Y-113582765D01*
X80587148Y-113467766D01*
X80425523Y-113394911D01*
X80250000Y-113369967D01*
X78750000Y-113369967D01*
X78650153Y-113377929D01*
X78480801Y-113430374D01*
X78382000Y-113495479D01*
X78382000Y-112015782D01*
X82321190Y-112015782D01*
X82369938Y-112281389D01*
X82469347Y-112532469D01*
X82615632Y-112759459D01*
X82803220Y-112953712D01*
X83024967Y-113107830D01*
X83272425Y-113215942D01*
X83536169Y-113273930D01*
X83806153Y-113279585D01*
X84072094Y-113232692D01*
X84323863Y-113135038D01*
X84551868Y-112990341D01*
X84747426Y-112804114D01*
X84903088Y-112583449D01*
X85012925Y-112336752D01*
X85072752Y-112073419D01*
X85077059Y-111764978D01*
X85024608Y-111500077D01*
X84921702Y-111250410D01*
X84772262Y-111025484D01*
X84581980Y-110833869D01*
X84358104Y-110682863D01*
X84109160Y-110578217D01*
X83844632Y-110523917D01*
X83574595Y-110522032D01*
X83309335Y-110572633D01*
X83058954Y-110673793D01*
X82832991Y-110821659D01*
X82640053Y-111010599D01*
X82487487Y-111233415D01*
X82381105Y-111481622D01*
X82324960Y-111745765D01*
X82321190Y-112015782D01*
X78382000Y-112015782D01*
X78382000Y-105285750D01*
X93501400Y-105285750D01*
X93501400Y-105926142D01*
X93525803Y-106048823D01*
X93573670Y-106164385D01*
X93643163Y-106268389D01*
X93731611Y-106356837D01*
X93835615Y-106426330D01*
X93951177Y-106474197D01*
X94073858Y-106498600D01*
X94714250Y-106498600D01*
X94873000Y-106339850D01*
X94873000Y-105127000D01*
X93660150Y-105127000D01*
X93501400Y-105285750D01*
X78382000Y-105285750D01*
X78382000Y-103280912D01*
X78420549Y-102887758D01*
X78525751Y-102539315D01*
X78696628Y-102217940D01*
X78926674Y-101935877D01*
X79207123Y-101703870D01*
X79527295Y-101530753D01*
X79874994Y-101423123D01*
X80266251Y-101382000D01*
X85577331Y-101382000D01*
X85574320Y-101396168D01*
X85574320Y-101396168D01*
G37*
X85574320Y-101396168D02*
X85571782Y-101577945D01*
X85604599Y-101756752D01*
X85671522Y-101925780D01*
X85770001Y-102078590D01*
X85896286Y-102209362D01*
X86045566Y-102313114D01*
X86094015Y-102334281D01*
X86839867Y-103080133D01*
X86902467Y-103131554D01*
X86964524Y-103183625D01*
X86968565Y-103185847D01*
X86972129Y-103188774D01*
X87043539Y-103227064D01*
X87114513Y-103266082D01*
X87118907Y-103267476D01*
X87122973Y-103269656D01*
X87200489Y-103293355D01*
X87277661Y-103317835D01*
X87282241Y-103318349D01*
X87286654Y-103319698D01*
X87367272Y-103327887D01*
X87447755Y-103336915D01*
X87456766Y-103336978D01*
X87456938Y-103336995D01*
X87457098Y-103336980D01*
X87460000Y-103337000D01*
X93795070Y-103337000D01*
X93942314Y-103517540D01*
X93952084Y-103525623D01*
X93951177Y-103525803D01*
X93835615Y-103573670D01*
X93731611Y-103643163D01*
X93643163Y-103731611D01*
X93573670Y-103835615D01*
X93525803Y-103951177D01*
X93501400Y-104073858D01*
X93501400Y-104714250D01*
X93660150Y-104873000D01*
X94873000Y-104873000D01*
X94873000Y-104853000D01*
X95127000Y-104853000D01*
X95127000Y-104873000D01*
X95147000Y-104873000D01*
X95147000Y-105127000D01*
X95127000Y-105127000D01*
X95127000Y-106339850D01*
X95285750Y-106498600D01*
X95926142Y-106498600D01*
X96048823Y-106474197D01*
X96164385Y-106426330D01*
X96268389Y-106356837D01*
X96356837Y-106268389D01*
X96426330Y-106164385D01*
X96474197Y-106048823D01*
X96474395Y-106047830D01*
X96482314Y-106057540D01*
X96706467Y-106242975D01*
X96962369Y-106381341D01*
X97240273Y-106467367D01*
X97529594Y-106497776D01*
X97819311Y-106471409D01*
X98098389Y-106389272D01*
X98356198Y-106254493D01*
X98582918Y-106072205D01*
X98769914Y-105849352D01*
X98809417Y-105777497D01*
X98838448Y-105832097D01*
X99022314Y-106057540D01*
X99246467Y-106242975D01*
X99502369Y-106381341D01*
X99780273Y-106467367D01*
X100069594Y-106497776D01*
X100359311Y-106471409D01*
X100638389Y-106389272D01*
X100896198Y-106254493D01*
X101122918Y-106072205D01*
X101309914Y-105849352D01*
X101349417Y-105777497D01*
X101378448Y-105832097D01*
X101562314Y-106057540D01*
X101786467Y-106242975D01*
X102042369Y-106381341D01*
X102320273Y-106467367D01*
X102609594Y-106497776D01*
X102899311Y-106471409D01*
X103178389Y-106389272D01*
X103436198Y-106254493D01*
X103662918Y-106072205D01*
X103849914Y-105849352D01*
X103889417Y-105777497D01*
X103918448Y-105832097D01*
X104102314Y-106057540D01*
X104326467Y-106242975D01*
X104582369Y-106381341D01*
X104860273Y-106467367D01*
X105149594Y-106497776D01*
X105395161Y-106475427D01*
X105922990Y-107003256D01*
X105922990Y-111586745D01*
X105168765Y-112340970D01*
X105172752Y-112323419D01*
X105177059Y-112014978D01*
X105124608Y-111750077D01*
X105021702Y-111500410D01*
X104872262Y-111275484D01*
X104681980Y-111083869D01*
X104458104Y-110932863D01*
X104209160Y-110828217D01*
X103944632Y-110773917D01*
X103674595Y-110772032D01*
X103409335Y-110822633D01*
X103158954Y-110923793D01*
X102932991Y-111071659D01*
X102740053Y-111260599D01*
X102587487Y-111483415D01*
X102481105Y-111731622D01*
X102424960Y-111995765D01*
X102421190Y-112265782D01*
X102469938Y-112531389D01*
X102569347Y-112782469D01*
X102641792Y-112894881D01*
X102568447Y-112924515D01*
X102524948Y-112952980D01*
X102502002Y-112955230D01*
X102428207Y-112961686D01*
X102424158Y-112962862D01*
X102419960Y-112963274D01*
X102349067Y-112984678D01*
X102277898Y-113005354D01*
X102274151Y-113007296D01*
X102270118Y-113008514D01*
X102204718Y-113043288D01*
X102138935Y-113077387D01*
X102135642Y-113080016D01*
X102131916Y-113081997D01*
X102074486Y-113128835D01*
X102016610Y-113175037D01*
X102010744Y-113180822D01*
X102010619Y-113180924D01*
X102010523Y-113181040D01*
X102008636Y-113182901D01*
X99793536Y-115398000D01*
X80798012Y-115398000D01*
X80768518Y-115353241D01*
X80782234Y-115337148D01*
X80855089Y-115175523D01*
X80880033Y-115000000D01*
X80880033Y-114000000D01*
X80872071Y-113900153D01*
X80819626Y-113730801D01*
X80722077Y-113582765D01*
X80587148Y-113467766D01*
X80425523Y-113394911D01*
X80250000Y-113369967D01*
X78750000Y-113369967D01*
X78650153Y-113377929D01*
X78480801Y-113430374D01*
X78382000Y-113495479D01*
X78382000Y-112015782D01*
X82321190Y-112015782D01*
X82369938Y-112281389D01*
X82469347Y-112532469D01*
X82615632Y-112759459D01*
X82803220Y-112953712D01*
X83024967Y-113107830D01*
X83272425Y-113215942D01*
X83536169Y-113273930D01*
X83806153Y-113279585D01*
X84072094Y-113232692D01*
X84323863Y-113135038D01*
X84551868Y-112990341D01*
X84747426Y-112804114D01*
X84903088Y-112583449D01*
X85012925Y-112336752D01*
X85072752Y-112073419D01*
X85077059Y-111764978D01*
X85024608Y-111500077D01*
X84921702Y-111250410D01*
X84772262Y-111025484D01*
X84581980Y-110833869D01*
X84358104Y-110682863D01*
X84109160Y-110578217D01*
X83844632Y-110523917D01*
X83574595Y-110522032D01*
X83309335Y-110572633D01*
X83058954Y-110673793D01*
X82832991Y-110821659D01*
X82640053Y-111010599D01*
X82487487Y-111233415D01*
X82381105Y-111481622D01*
X82324960Y-111745765D01*
X82321190Y-112015782D01*
X78382000Y-112015782D01*
X78382000Y-105285750D01*
X93501400Y-105285750D01*
X93501400Y-105926142D01*
X93525803Y-106048823D01*
X93573670Y-106164385D01*
X93643163Y-106268389D01*
X93731611Y-106356837D01*
X93835615Y-106426330D01*
X93951177Y-106474197D01*
X94073858Y-106498600D01*
X94714250Y-106498600D01*
X94873000Y-106339850D01*
X94873000Y-105127000D01*
X93660150Y-105127000D01*
X93501400Y-105285750D01*
X78382000Y-105285750D01*
X78382000Y-103280912D01*
X78420549Y-102887758D01*
X78525751Y-102539315D01*
X78696628Y-102217940D01*
X78926674Y-101935877D01*
X79207123Y-101703870D01*
X79527295Y-101530753D01*
X79874994Y-101423123D01*
X80266251Y-101382000D01*
X85577331Y-101382000D01*
X85574320Y-101396168D01*
M02*
